<?xml version="1.0" encoding="UTF-8"?>
<svg data-name="Unikbase Logo" xmlns="http://www.w3.org/2000/svg" viewBox="0 0 349.81 95.61">
  <defs>
    <style>
      .cls-1 {
        fill: #f26a24;
      }

      .cls-2 {
        fill: #081d24;
      }
    </style>
  </defs>
  <g>
    <path class="cls-2" d="m95.93,61.55c.26-.26.61-.39,1.04-.39h1.1c.43,0,.78.13,1.04.39.26.26.39.61.39,1.04v18.13c0,7.41,3.23,11.12,9.68,11.12,3.12,0,5.6-.99,7.44-2.96,1.84-1.97,2.76-4.69,2.76-8.16v-18.13c0-.43.13-.78.39-1.04.26-.26.61-.39,1.04-.39h1.11c.43,0,.78.13,1.04.39s.39.61.39,1.04v30.94c0,.43-.13.78-.39,1.04-.26.26-.61.39-1.04.39h-1.11c-.43,0-.78-.13-1.04-.39s-.39-.61-.39-1.04v-3.05c-1.3,1.69-2.79,2.97-4.45,3.83-1.67.87-3.8,1.3-6.4,1.3-4.25,0-7.48-1.34-9.69-4.03s-3.31-6.2-3.31-10.53v-18.46c0-.43.13-.78.39-1.04Z"/>
    <path class="cls-2" d="m161.64,94.57c-.26.26-.61.39-1.04.39h-1.11c-.43,0-.78-.13-1.04-.39-.26-.26-.39-.61-.39-1.04v-18.13c0-3.51-.86-6.24-2.57-8.19-1.71-1.95-4.17-2.93-7.38-2.93s-5.61.99-7.47,2.96c-1.86,1.97-2.79,4.69-2.79,8.16v18.13c0,.43-.13.78-.39,1.04-.26.26-.61.39-1.04.39h-1.1c-.43,0-.78-.13-1.04-.39-.26-.26-.39-.61-.39-1.04v-30.94c0-.43.13-.78.39-1.04.26-.26.61-.39,1.04-.39h1.1c.43,0,.78.13,1.04.39s.39.61.39,1.04v3.05c1.3-1.69,2.78-2.97,4.45-3.83,1.67-.87,3.82-1.3,6.47-1.3,4.25,0,7.52,1.35,9.81,4.06,2.3,2.71,3.45,6.21,3.45,10.5v18.46c0,.43-.13.78-.39,1.04Z"/>
    <path class="cls-2" d="m176.49,53.81c-.28.26-.64.39-1.07.39h-2.47c-.43,0-.78-.13-1.04-.39-.26-.26-.39-.61-.39-1.04v-2.47c0-.43.13-.79.39-1.07.26-.28.61-.42,1.04-.42h2.47c.43,0,.79.14,1.07.42.28.28.42.64.42,1.07v2.47c0,.43-.14.78-.42,1.04Zm-.68,40.75c-.26.26-.61.39-1.04.39h-1.1c-.43,0-.78-.13-1.04-.39-.26-.26-.39-.61-.39-1.04v-30.94c0-.43.13-.78.39-1.04.26-.26.61-.39,1.04-.39h1.1c.43,0,.78.13,1.04.39s.39.61.39,1.04v30.94c0,.43-.13.78-.39,1.04Z"/>
    <path class="cls-2" d="m211.3,92.36c.56.52.84.95.84,1.3,0,.39-.12.7-.36.94s-.55.36-.94.36h-1.04c-.65,0-1.13-.05-1.43-.16-.3-.11-.74-.42-1.3-.94l-16.32-14.5v14.17c0,.43-.13.78-.39,1.04s-.61.39-1.04.39h-1.11c-.43,0-.78-.13-1.04-.39s-.39-.61-.39-1.04v-43.29c0-.43.13-.78.39-1.04s.61-.39,1.04-.39h1.11c.43,0,.78.13,1.04.39s.39.61.39,1.04v23.01l13.94-11.1c.69-.52,1.17-.83,1.43-.94.26-.11.69-.16,1.3-.16h1.24c.39,0,.7.12.94.36s.36.55.36.94c0,.48-.28.91-.84,1.3l-15.89,12.59,18.07,16.12Z"/>
    <path class="cls-2" d="m247.31,78.06c0,.78-.02,1.39-.07,1.82-.13,4.38-1.31,8.09-3.54,11.15s-5.69,4.58-10.37,4.58-8.41-1.71-10.92-5.13v3.05c0,.43-.13.78-.39,1.04s-.61.39-1.04.39h-1.11c-.43,0-.78-.13-1.04-.39s-.39-.61-.39-1.04v-43.29c0-.43.13-.78.39-1.04s.61-.39,1.04-.39h1.11c.43,0,.78.13,1.04.39s.39.61.39,1.04v15.41c2.56-3.42,6.2-5.13,10.92-5.13s8.14,1.53,10.37,4.58c2.23,3.06,3.41,6.77,3.54,11.15.04.43.07,1.04.07,1.82Zm-6.66,10.43c1.62-2.23,2.5-5.1,2.63-8.61.04-.43.06-1.04.06-1.82,0-4.03-.78-7.33-2.34-9.91-1.56-2.58-4.25-3.87-8.06-3.87-2.3,0-4.23.54-5.79,1.62-1.56,1.08-2.73,2.46-3.51,4.13-.78,1.67-1.19,3.43-1.24,5.3l-.06,2.53.06,2.54c.13,3.08,1.06,5.75,2.79,8.03,1.73,2.28,4.31,3.41,7.74,3.41s6.08-1.12,7.7-3.35Z"/>
    <path class="cls-2" d="m276.69,90.47c-.95,1.43-2.35,2.64-4.19,3.64-1.84,1-4.28,1.5-7.31,1.5-2.08,0-4.01-.43-5.79-1.3-1.78-.87-3.2-2.04-4.26-3.51-1.06-1.47-1.59-3.1-1.59-4.88,0-2.86,1.16-5.2,3.48-7.02,2.32-1.82,5.45-2.99,9.39-3.51l10.27-1.43v-2.28c0-2.38-.73-4.21-2.18-5.49-1.45-1.28-3.67-1.92-6.66-1.92-2.21,0-4.02.43-5.43,1.3-1.41.87-2.31,1.91-2.7,3.12-.17.52-.38.88-.62,1.07-.24.19-.55.29-.94.29h-.91c-.39,0-.73-.14-1.01-.42-.28-.28-.42-.62-.42-1.01,0-.95.43-2.07,1.3-3.35.87-1.28,2.21-2.39,4.03-3.35,1.82-.95,4.05-1.43,6.7-1.43,4.64,0,7.93,1.1,9.88,3.32,1.95,2.21,2.92,4.9,2.92,8.06v21.64c0,.43-.13.78-.39,1.04s-.61.39-1.04.39h-1.11c-.43,0-.78-.13-1.04-.39-.26-.26-.39-.61-.39-1.04v-3.05Zm0-12.93l-8.38,1.17c-3.55.48-6.24,1.3-8.06,2.47-1.82,1.17-2.73,2.64-2.73,4.42,0,1.99.83,3.53,2.5,4.62,1.67,1.08,3.61,1.62,5.82,1.62,3.16,0,5.76-1.04,7.8-3.12,2.04-2.08,3.05-5.07,3.05-8.97v-2.21Z"/>
    <path class="cls-2" d="m291.8,75.72c-1.41-1.52-2.11-3.45-2.11-5.79,0-1.6.44-3.12,1.33-4.55.89-1.43,2.21-2.6,3.96-3.51s3.87-1.37,6.34-1.37c2.6,0,4.8.44,6.6,1.33,1.8.89,3.14,1.92,4.03,3.09.89,1.17,1.33,2.12,1.33,2.86,0,.39-.14.7-.42.94-.28.24-.62.36-1.01.36h-.98c-.61,0-1.08-.28-1.43-.84-.87-1.3-1.85-2.29-2.96-2.96-1.1-.67-2.83-1.01-5.17-1.01-2.51,0-4.42.52-5.72,1.56-1.3,1.04-1.95,2.41-1.95,4.09,0,1.04.26,1.91.78,2.6.52.69,1.49,1.33,2.92,1.92,1.43.58,3.51,1.18,6.24,1.79,4.03.91,6.87,2.12,8.51,3.64,1.65,1.52,2.47,3.53,2.47,6.04,0,1.78-.5,3.4-1.5,4.88-1,1.47-2.47,2.64-4.42,3.51s-4.29,1.3-7.02,1.3-5.19-.48-7.12-1.43c-1.93-.95-3.38-2.04-4.35-3.25-.97-1.21-1.46-2.19-1.46-2.92,0-.39.15-.7.46-.94.3-.24.63-.36.98-.36h.97c.3,0,.55.05.75.16.2.11.42.34.68.68.95,1.34,2.11,2.39,3.48,3.15,1.37.76,3.24,1.14,5.62,1.14,2.69,0,4.85-.51,6.5-1.53,1.65-1.02,2.47-2.48,2.47-4.39,0-1.17-.34-2.12-1.01-2.86-.67-.74-1.75-1.38-3.25-1.92s-3.72-1.16-6.66-1.85c-3.86-.87-6.49-2.06-7.9-3.58Z"/>
    <path class="cls-2" d="m346.01,64.99c2.54,2.99,3.8,7.08,3.8,12.28v.98c0,.43-.14.78-.42,1.04-.28.26-.64.39-1.07.39h-23.14v.65c.09,2.04.55,3.93,1.4,5.69s2.03,3.16,3.54,4.22c1.52,1.06,3.29,1.59,5.33,1.59,2.38,0,4.32-.46,5.82-1.4,1.49-.93,2.57-1.87,3.22-2.83.39-.52.68-.84.88-.97s.55-.2,1.07-.2h1.04c.39,0,.71.11.97.33.26.22.39.5.39.84,0,.91-.58,2-1.72,3.28-1.15,1.28-2.74,2.38-4.78,3.31-2.04.93-4.33,1.4-6.89,1.4-4.12,0-7.43-1.35-9.94-4.06-2.51-2.71-3.94-6.34-4.29-10.89l-.07-2.6.07-2.6c.35-4.51,1.76-8.12,4.26-10.86,2.49-2.73,5.82-4.09,9.98-4.09,4.51,0,8.03,1.5,10.56,4.49Zm-.16,11.05v-.26c0-3.34-.94-6.09-2.83-8.26-1.89-2.17-4.41-3.25-7.57-3.25s-5.67,1.08-7.51,3.25c-1.84,2.17-2.76,4.92-2.76,8.26v.26h20.67Z"/>
  </g>
  <path class="cls-1" d="m27.14,94.84c-8.88,0-15.48-2.38-20.16-7.27-4.63-4.84-6.97-12.36-6.97-22.37V21.12c0-.4.18-.77.49-1.03L24.45.31c.87-.72,2.18-.1,2.18,1.03v45.15c0,8.95,1.98,15.56,5.87,19.63,3.89,4.06,9.53,6.04,17.25,6.05.3-2.13.45-4.46.45-6.97V22.76c0-.74.6-1.33,1.33-1.33h1.3c.74,0,1.33.6,1.33,1.33v42.44c0,2.4-.13,4.66-.4,6.77,5.71-.6,10.16-2.54,13.28-5.8,3.86-4.04,5.82-10.66,5.82-19.68V4.04c0-.74.6-1.33,1.33-1.33h1.3c.74,0,1.33.6,1.33,1.33v42.44c0,10.08-2.33,17.62-6.92,22.42-3.99,4.18-9.65,6.56-16.85,7.1-1.11,4.84-3.05,8.72-5.82,11.61-4.58,4.79-11.34,7.22-20.1,7.22ZM3.96,22.36v42.84c0,8.95,1.98,15.56,5.87,19.63,3.9,4.07,9.55,6.05,17.3,6.05s13.44-2.02,17.24-6c2.08-2.18,3.62-5.11,4.58-8.77-8.46-.15-14.79-2.53-19.32-7.27-4.63-4.84-6.98-12.36-6.98-22.37V6.91S3.96,22.36,3.96,22.36Z"/>
</svg>