<svg width="183" height="182" viewBox="0 0 183 182" fill="none" xmlns="http://www.w3.org/2000/svg">
<g opacity="0.4">
<path d="M149.7 2.29993V4.1499C149.7 5.1699 150.52 5.98999 151.54 5.98999H176.57V31.0199C176.57 32.0399 177.39 32.86 178.41 32.86H180.26C181.28 32.86 182.1 32.0399 182.1 31.0199V0.459961H151.54C150.52 0.459961 149.7 1.27993 149.7 2.29993Z" fill="#EAE6E1"/>
<path d="M2.74042 32.8602H4.59039C5.61039 32.8602 6.43042 32.0401 6.43042 31.0201V5.98022H31.4604C32.4804 5.98022 33.3004 5.16014 33.3004 4.14014V2.29016C33.3004 1.27016 32.4804 0.450195 31.4604 0.450195H0.900391V31.0103C0.900391 32.0303 1.72042 32.8502 2.74042 32.8502V32.8602Z" fill="#EAE6E1"/>
<path d="M33.3004 179.55V177.7C33.3004 176.68 32.4804 175.86 31.4604 175.86H6.43042V150.83C6.43042 149.81 5.61039 148.99 4.59039 148.99H2.74042C1.72042 148.99 0.900391 149.81 0.900391 150.83V181.39H31.4604C32.4804 181.39 33.3004 180.57 33.3004 179.55Z" fill="#EAE6E1"/>
<path d="M180.27 148.98H178.42C177.4 148.98 176.58 149.8 176.58 150.82V175.85H151.55C150.53 175.85 149.71 176.67 149.71 177.69V179.54C149.71 180.56 150.53 181.38 151.55 181.38H182.11V150.82C182.11 149.8 181.29 148.98 180.27 148.98Z" fill="#EAE6E1"/>
<path d="M78.1105 156.83C57.7005 156.23 41.7305 138.92 41.7305 118.5V55.04C41.7305 54.58 41.9105 54.13 42.2205 53.79L68.2505 25.5901C69.3905 24.3601 71.4405 25.1601 71.4405 26.8401V92.3301C71.4405 109.95 85.3305 124.83 102.951 125.12C105.681 125.16 108.35 124.86 110.89 124.26C111.14 122.66 111.27 121.02 111.27 119.35V57.2401C111.27 56.2201 112.09 55.4 113.11 55.4H114.91C115.93 55.4 116.75 56.2201 116.75 57.2401V119.35C116.75 120.34 116.71 121.32 116.64 122.3C127.76 117.27 135.52 106.07 135.52 93.0901V30.9801C135.52 29.9601 136.34 29.14 137.36 29.14H139.16C140.18 29.14 141 29.9601 141 30.9801V93.0901C141 109.53 130.36 123.54 115.61 128.59C111.4 145.16 96.1105 157.37 78.1305 156.84L78.1105 156.83ZM47.2104 56.4501V119.34C47.2104 137 61.5805 151.37 79.2405 151.37C93.1305 151.37 104.97 142.49 109.41 130.12C107.48 130.43 105.5 130.59 103.48 130.59C82.8005 130.59 65.9805 113.76 65.9805 93.0901V36.1301L47.2104 56.4601V56.4501Z" fill="#EAE6E1"/>
</g>
</svg>
