<?xml version="1.0" encoding="UTF-8"?>
<svg id="Layer_1" data-name="Layer 1" xmlns="http://www.w3.org/2000/svg" viewBox="0 0 210 210">
  <defs>
    <style>
      .cls-1 {
        opacity: .4;
      }

      .cls-2 {
        fill: #eae5e1;
        stroke-width: 0px;
      }
    </style>
  </defs>
  <g class="cls-1">
    <path class="cls-2" d="m183.35,207.67c-.29,0-.58-.04-.85-.09l-.18-.03c-.72-.11-1.35-.2-1.99-.26-.95-.08-1.9-.15-2.86-.21-.84-.06-1.68-.11-2.52-.18-1.68-.14-3.4-.17-5.06-.21-.68-.01-1.36-.03-2.04-.05-.6-.02-1.2,0-1.8,0h-.9c-.65.01-1.3.03-1.95.05-.98.03-2,.06-2.99.03-1.28-.03-2.54-.07-3.78-.15-2.09-.14-4.15.05-5.71.23-1.11.13-2.25.11-3.34.1-2.07-.03-4.11-.06-6.16-.05-.55,0-1.14-.01-1.72-.02-.55-.01-1.1-.04-1.64-.02h-.02c-1.66,0-3.32-.04-4.97-.08l-1.39-.03c-.52-.01-1.04-.03-1.56-.05-.83-.03-1.66-.06-2.48-.06-1-.01-1.98.04-2.96.08-.91.04-1.81.08-2.72.08-1.87.01-3.4-.04-4.85-.17-.85-.07-1.7-.11-2.56-.15-.57-.03-1.14-.05-1.72-.09-1.06-.07-2.15-.04-3.21,0-.72.02-1.44.04-2.16.03-1.82-.02-3.66-.16-5.61-.41-.31-.04-.65-.03-1.01-.02-.29,0-.58.01-.86,0-.17-.01-.35,0-.53,0-.41.02-.88.03-1.35-.14-.26-.1-.39-.38-.29-.64.1-.26.39-.39.64-.29.28.1.61.09.97.08.21,0,.42-.01.63,0,.25.02.51,0,.78,0,.38,0,.78-.02,1.16.03,1.92.25,3.72.38,5.5.4.7,0,1.41-.01,2.12-.03,1.08-.03,2.19-.06,3.3.01.57.04,1.13.06,1.7.09.87.04,1.73.08,2.59.16,1.42.12,2.92.17,4.76.16.89,0,1.79-.04,2.68-.08.98-.04,1.96-.08,2.95-.08h.06c.84,0,1.68.03,2.52.06.52.02,1.03.04,1.55.05l1.39.03c1.66.04,3.31.07,4.97.08.59,0,1.11.01,1.67.02.56.01,1.13.03,1.69.02,2.06,0,4.1.02,6.15.05,1.09.02,2.19.04,3.24-.09,1.6-.19,3.72-.39,5.9-.24,1.23.08,2.47.12,3.74.15.97.03,1.97,0,2.94-.03.66-.02,1.32-.04,1.97-.04h.89c.62-.02,1.23-.03,1.85-.01.68.02,1.35.03,2.03.05,1.68.03,3.41.07,5.12.21.83.07,1.67.12,2.5.18.96.06,1.92.13,2.88.21.66.06,1.31.15,1.96.25l.27.04c.47.07.87.14,1.2-.03.37-.18.67-.09.84-.04.04.01.09.03.1.03.28.01.49.25.48.52-.01.28-.23.49-.52.48-.14,0-.25-.04-.34-.07-.04-.01-.11-.03-.11-.03-.32.16-.64.21-.96.21Z"/>
    <path class="cls-2" d="m56.5,204.03c-.25,0-.46-.18-.5-.44-.12-.96-.02-1.89.08-2.78.05-.45.1-.9.12-1.35.04-.84.03-1.7.02-2.53,0-.58-.01-1.16,0-1.75-.02-.18-.03-.27-.03-.35.01-1.04.02-2.08.03-3.12.02-2.63.05-5.34.15-8.01.02-.48,0-.96,0-1.43-.01-.53-.03-1.06,0-1.59.02-.38.04-.77.06-1.15.06-1,.11-2.03.09-3.04-.03-1.21,0-2.43,0-3.61.02-1.44.04-2.93-.02-4.38-.08-1.83-.07-3.69-.06-5.48v-1.03c.01-.88,0-1.77-.03-2.66-.01-.49-.02-.97-.03-1.45v-.27c-.02-.99-.03-2.01.09-3.04.05-.4.04-.81.02-1.24-.01-.44-.02-.9.03-1.36.11-.96.14-1.95.17-2.91.02-.66.04-1.33.08-1.99.02-.3.02-.6.02-.9,0-.2,0-.39,0-.59.03-1.27.06-2.55.09-3.83l.04-1.79c.02-.73.02-1.45.02-2.18v-1.17c0-1.46.04-2.92.07-4.38l.04-1.77c0-.28.19-.47.51-.49.28,0,.5.23.49.51l-.04,1.77c-.03,1.46-.06,2.91-.07,4.36v1.17c0,.73,0,1.47-.02,2.2l-.04,1.79c-.03,1.28-.05,2.55-.09,3.83,0,.19,0,.38,0,.57,0,.32,0,.64-.02.96-.04.65-.06,1.3-.08,1.95-.03.98-.06,1.99-.17,2.99-.04.39-.03.79-.02,1.22.01.45.03.92-.03,1.39-.11.96-.1,1.95-.09,2.91v.27c0,.48.02.96.03,1.45.02.89.04,1.79.03,2.68v1.04c-.02,1.78-.03,3.63.05,5.43.06,1.48.04,2.99.02,4.44-.02,1.17-.04,2.38,0,3.57.02,1.04-.03,2.1-.09,3.12-.02.38-.04.76-.06,1.14-.02.5,0,1.01,0,1.51.01.5.03,1,0,1.5-.1,2.66-.12,5.37-.15,7.99,0,1.04-.02,2.08-.03,3.13,0,.04,0,.08.01.12,0,.08.02.16.02.23,0,.58,0,1.15,0,1.72,0,.85.02,1.72-.02,2.58-.02.47-.07.95-.12,1.42-.1.88-.19,1.71-.08,2.55.04.27-.16.52-.43.56-.02,0-.04,0-.06,0Z"/>
    <path class="cls-2" d="m95.48,206c-.26,0-.51-.03-.75-.06-.19-.02-.38-.05-.57-.05l-1.81-.04c-1.45-.03-2.89-.07-4.34-.14-.81-.04-1.61-.06-2.42-.08-1.28-.03-2.6-.06-3.91-.17-.76-.06-1.52-.09-2.28-.12-1.11-.04-2.25-.08-3.39-.23-.06-.01-.16.01-.27.03-.16.03-.33.06-.53.05h-.11c-1.93-.11-3.86-.21-5.79-.28-.66-.03-1.32-.04-1.97-.05-1.03-.02-2.09-.04-3.13-.11-1.07-.07-2.26-.18-3.72-.35-.41-.05-.82-.01-1.26.03-.39.03-.79.07-1.21.04-.09,0-.18,0-.28,0-.44,0-1-.01-1.47-.45-.2-.19-.22-.5-.03-.71.19-.21.5-.22.71-.03.19.17.43.18.81.19.11,0,.21,0,.32,0,.34.02.69,0,1.07-.04.47-.04.95-.08,1.46-.02,1.47.17,2.6.27,3.68.34,1.02.07,2.07.09,3.09.11.66.01,1.33.03,1.99.05,1.93.08,3.87.18,5.8.28h.11c.07.01.18,0,.29-.03.17-.03.37-.07.59-.04,1.08.15,2.2.19,3.29.23.78.03,1.56.06,2.33.12,1.27.11,2.58.14,3.85.17.82.02,1.63.04,2.44.08,1.44.07,2.88.1,4.31.14l1.81.04c.22,0,.44.03.66.06.3.04.57.07.84.04.69-.07,1.41-.09,2.22-.05.28.01.49.25.48.52-.01.27-.26.49-.52.48-.76-.03-1.44-.02-2.07.05-.1.01-.21.02-.31.02Z"/>
    <path class="cls-2" d="m183.77,123.25s-.01,0-.02,0c-.28,0-.49-.24-.48-.52.01-.33.06-.66.1-.98.03-.2.06-.4.08-.6.14-1.5.2-3.03.27-4.51.04-.84.07-1.69.12-2.53.03-.48.04-.97.04-1.46,0-.48.01-.96.04-1.43.03-.52.03-1.03.03-1.55,0-.71,0-1.45.08-2.18.09-.96.08-1.96.07-2.93v-.26c0-.64.04-1.29.09-1.91.06-.77.11-1.5.08-2.24-.02-.42-.03-.85-.04-1.27-.01-.54-.03-1.08-.06-1.62-.03-.46-.02-.91-.01-1.36v-.7c.03-.61.04-1.23.02-1.84-.03-1.11-.06-2.26,0-3.4.04-.7.05-1.4.06-2.09,0-.38.01-.76.02-1.14.04-1.48,0-3-.02-4.48v-.6c-.04-1.77.02-3.51.14-5.6.04-.66.03-1.31.03-1.97,0-.74,0-1.5.05-2.27.13-1.94.19-4.04.19-6.45,0-1.19.07-2.39.13-3.54l.06-1.06c.04-.69.04-1.38.03-2.07,0-1.18,0-2.39.18-3.6.09-.61.09-1.24.09-1.91,0-.29,0-.58,0-.86l.02-.55c.03-.6.05-1.17-.04-1.74-.07-.44-.15-.94-.08-1.42.06-.43.07-.85.04-1.34l-.04-.46c-.04-.49-.09-.99-.06-1.51.06-1.2.13-2.4.21-3.6.04-.56.03-1.14.01-1.7-.01-.55-.02-1.1,0-1.65.05-.82.07-1.64.1-2.45.02-.69.04-1.37.08-2.06.06-1.22.03-2.49,0-3.71-.01-.51-.02-1.03-.03-1.54,0-.83-.06-1.65-.11-2.48-.05-.88-.11-1.78-.11-2.69,0-.58-.04-1.17-.08-1.75-.03-.44-.06-.87-.08-1.31,0-.15,0-.31.02-.47.02-.18.03-.34,0-.45-.25-.89-.06-1.72.12-2.45l.09-.39c.08-.38.06-.74-.08-1.13-.03-.1-.13-.15-.19-.13-.31,0-.51-.21-.52-.48,0-.28.21-.51.48-.52.55,0,.99.31,1.17.81.19.56.23,1.11.11,1.66l-.09.41c-.16.67-.31,1.31-.13,1.95.08.29.05.57.03.82-.01.11-.02.23-.02.34.01.42.04.85.08,1.27.04.61.09,1.22.09,1.82,0,.87.06,1.77.11,2.63.05.84.1,1.68.11,2.53,0,.51.02,1.02.03,1.53.03,1.24.05,2.52,0,3.78-.03.68-.05,1.36-.08,2.04-.03.83-.05,1.65-.1,2.48-.03.52-.02,1.05,0,1.57.01.58.03,1.19-.02,1.79-.08,1.19-.16,2.38-.21,3.58-.02.45.02.9.06,1.37l.04.48c.04.57.03,1.06-.05,1.56-.05.33.01.73.08,1.12.11.67.08,1.31.05,1.94l-.02.53c0,.28,0,.56,0,.84,0,.67,0,1.37-.1,2.06-.17,1.14-.17,2.31-.17,3.45,0,.71,0,1.41-.04,2.12l-.06,1.06c-.06,1.14-.13,2.33-.13,3.49,0,2.43-.05,4.56-.19,6.52-.05.73-.05,1.48-.05,2.2,0,.68,0,1.35-.04,2.03-.11,2.06-.18,3.79-.15,5.52v.6c.04,1.48.07,3.01.03,4.52,0,.37-.02.75-.02,1.13-.01.71-.02,1.42-.06,2.13-.06,1.11-.03,2.23,0,3.32.02.63,0,1.26,0,1.9v.7c-.02.42-.03.84,0,1.27.04.55.05,1.11.07,1.66,0,.41.02.83.04,1.24.04.8-.02,1.6-.08,2.36-.05.63-.09,1.22-.09,1.83v.26c.01.99.02,2.02-.07,3.03-.07.69-.07,1.4-.07,2.09,0,.53,0,1.06-.03,1.6-.02.46-.03.93-.04,1.39,0,.5-.01,1.01-.04,1.5-.05.84-.09,1.68-.12,2.52-.07,1.49-.13,3.04-.27,4.56-.02.22-.05.44-.08.66-.04.29-.08.58-.09.87,0,.27-.23.48-.5.48Z"/>
    <path class="cls-2" d="m184.94,15.31s-.01,0-.02,0c-.54-.02-72.88-.54-74.71-.42-.25.01-.51-.19-.53-.47s.19-.51.47-.53c1.83-.12,74.26.4,74.81.42.28,0,.49.24.48.52,0,.27-.23.48-.5.48Z"/>
    <path class="cls-2" d="m59.25,202.94c-.27,0-.49-.22-.5-.49-.03-1.46-.03-2.5-.01-3.96v-.5c.02-1.94.04-3.94-.03-5.91-.02-.52,0-1.05,0-1.58.01-.46.02-.92.01-1.39-.06-2.2-.12-4.41-.16-6.62-.02-.92-.03-1.83-.04-2.75l-.02-1.37c0-.45,0-.9.01-1.34.01-.66.03-1.33-.01-2-.04-.68-.02-1.36,0-2.01.02-.53.04-1.06.02-1.59-.02-.73-.03-1.46-.04-2.19-.01-1.22-.03-2.48-.11-3.71-.07-.98-.08-1.96-.1-2.91,0-.72-.02-1.43-.05-2.15-.02-.52,0-1.04.02-1.54.02-.45.04-.91.02-1.36-.04-1.15,0-2.31.05-3.42.04-1.2.09-2.43.04-3.64-.03-.64,0-1.27.02-1.89v-.35c.04-.77.01-1.56-.02-2.32-.03-.87-.07-1.78-.02-2.68.01-.23.03-.47.05-.71.05-.68.09-1.32.05-1.96-.03-.53-.03-1.06-.02-1.59,0-.44.01-.88,0-1.32-.01-.25,0-.5.03-.74.02-.18.03-.36.03-.55-.02-1.16,0-2.33.01-3.49.02-1.04.03-2.08.02-3.12l-.02-1.07c-.02-.94-.03-1.88-.03-2.82,0-1.32.04-2.34.14-3.3.05-.45.1-1.11,0-1.72-.07-.46-.01-.88.04-1.28.03-.22.06-.44.06-.66v-.61c.02-.56.03-1.13.02-1.69-.02-.67,0-1.33,0-2,0-.37.02-.74.03-1.11.04-.97.07-1.98,0-2.96-.03-.34-.02-.7,0-1.06v-.21c.06-1.85.11-3.71.16-5.56v-.36c.05-1.44.09-2.88.09-4.32,0-.55,0-1.11,0-1.66.01-1.22.02-2.48-.03-3.71,0-.23.01-.47.04-.71.02-.14.03-.28.04-.42l-.17-5.52c-.04-1.84-.07-3.69-.09-5.53,0-.22,0-.45-.01-.67-.01-.52-.03-1.04,0-1.56.08-1.49,0-3.01-.06-4.48v-.23c-.03-.54,0-1.08.03-1.6.02-.34.04-.69.04-1.03,0-.78.03-1.55.05-2.33.02-.71.04-1.42.05-2.13,0-.19,0-.38-.02-.56-.01-.24-.03-.48-.02-.72.04-1.09.04-2.17.04-3.26,0-.84,0-1.68.02-2.53v-.33c.04-1.45.07-2.95-.11-4.41-.16-1.31-.25-2.68-.27-4.06,0-.67-.03-1.34-.05-2.01-.04-1.21-.08-2.46-.03-3.69.04-.91.03-1.84.02-2.74,0-1.02-.02-2.07.04-3.11.04-.65.05-12.51.06-18.69-.19-1.95-.23-4.08-.11-6.46.01-.28.22-.49.52-.47.28.01.49.25.47.52-.12,2.33-.08,4.41.11,6.36,0,.78-.01,17.96-.06,18.8-.05,1.01-.04,2.05-.04,3.05,0,.91.02,1.86-.02,2.79-.05,1.2,0,2.43.03,3.62.02.68.05,1.36.05,2.04.02,1.34.1,2.67.26,3.94.19,1.54.16,3.07.13,4.56v.33c-.02.84-.03,1.67-.03,2.51,0,1.1,0,2.19-.04,3.29,0,.21,0,.42.02.63.01.21.02.42.02.64-.01.71-.03,1.43-.05,2.14-.02.77-.04,1.54-.05,2.32,0,.36-.02.72-.04,1.08-.03.52-.06,1.01-.04,1.5v.23c.08,1.5.14,3.04.07,4.58-.02.5-.01.99,0,1.49,0,.23.01.46.01.69.02,1.84.06,3.68.09,5.52l.04,1.95.13,3.59c0,.2-.02.37-.04.53-.02.19-.04.38-.03.56.05,1.26.04,2.53.03,3.76,0,.55-.01,1.1,0,1.65,0,1.45-.04,2.9-.08,4.35v.36c-.06,1.85-.11,3.71-.17,5.56v.22c-.02.32-.03.64,0,.94.08,1.04.05,2.07,0,3.07-.01.36-.03.73-.03,1.09-.01.65-.02,1.3,0,1.95.02.58,0,1.16,0,1.74v.6c-.01.26-.05.52-.08.78-.05.35-.09.67-.04.99.11.72.05,1.47,0,1.98-.1.92-.14,1.9-.13,3.19,0,.93.02,1.87.03,2.81l.02,1.07c.01,1.05,0,2.1-.02,3.15-.02,1.15-.04,2.3-.01,3.46,0,.22-.01.44-.03.66-.02.2-.04.4-.03.61.02.46.02.92.01,1.38,0,.5-.01,1.01.02,1.51.04.7,0,1.41-.05,2.09-.02.23-.03.46-.04.69-.05.85-.01,1.73.02,2.58.03.78.06,1.59.03,2.39v.36c-.04.59-.06,1.21-.04,1.8.06,1.25.01,2.5-.03,3.72-.04,1.1-.08,2.24-.05,3.35.02.48,0,.96-.02,1.44-.02.49-.04.97-.02,1.45.03.73.04,1.46.05,2.18.01.94.03,1.91.09,2.86.09,1.26.1,2.53.12,3.77,0,.72.02,1.45.04,2.17.02.55,0,1.11-.02,1.66-.02.66-.04,1.29,0,1.92.04.7.03,1.4.01,2.08,0,.44-.02.87-.01,1.31l.02,1.37c.01.91.02,1.83.04,2.74.05,2.2.1,4.41.16,6.61.01.48,0,.96-.01,1.44-.01.5-.03,1.01,0,1.51.08,1.99.06,4.01.04,5.96v.5c-.02,1.44-.03,2.48,0,3.93,0,.28-.21.5-.49.51h-.01Z"/>
    <path class="cls-2" d="m56.85,13.98c-.26,0-.49-.21-.5-.47-.01-.28.2-.51.47-.52,1-.05,2.24-.09,3.44-.12.92-.03,1.81-.06,2.57-.09l.72-.03c1.15-.06,2.34-.11,3.53,0,2.12.22,4.29.02,6.38-.18.9-.08,1.8-.17,2.7-.22,1.52-.1,78.81.32,79.48.33.28,0,.5.23.49.51,0,.28-.21.5-.51.49-.67-.01-77.89-.42-79.4-.33-.89.05-1.78.14-2.67.22-2.14.2-4.36.41-6.58.18-1.11-.11-2.26-.06-3.37,0l-.73.03c-.76.03-1.67.06-2.58.09-1.2.04-2.42.07-3.42.12,0,0-.02,0-.03,0Z"/>
    <path class="cls-2" d="m184.44,207.37c-.2,0-.39-.12-.47-.33-.16-.43-.12-.83-.09-1.19.01-.13.03-.25.03-.38,0-.58.06-1.16.11-1.72.03-.36.07-.72.09-1.08.03-.55.04-1.1.06-1.65.02-.81.05-1.65.12-2.47.07-.82.07-1.67.06-2.49,0-.7,0-1.42.04-2.13.07-1.21.06-2.18-.02-3.05-.05-.53-.04-1.06-.02-1.57.01-.52.03-1.01-.03-1.5-.03-.24.03-.45.08-.62.03-.11.06-.21.05-.28-.05-1.04-.05-2.1-.05-3.12v-.32c0-.23-.04-.46-.08-.69-.06-.35-.12-.71-.08-1.1.13-1.57.26-3,.42-4.35-.16-.69-.11-1.32-.07-1.92.02-.32.05-.64.03-.96-.02-.48.02-.95.07-1.4.02-.19.04-.38.05-.57l.04-.49c.06-.74.12-1.44.03-2.13-.08-.64,0-1.24.1-1.82.04-.27.08-.55.1-.82,0-.12.02-.23.03-.35.02-.16.04-.33.04-.49,0-.41.03-.82.05-1.22.04-.92.09-1.78.01-2.66-.03-.31-.06-.61-.09-.92-.09-.85-.18-1.73-.16-2.62.02-.81-.03-1.65-.08-2.46l-.04-.81c-.02-.47-.06-.94-.09-1.42-.05-.63-.09-1.27-.11-1.9-.05-1.45-.01-2.74.11-3.95.15-1.43.13-2.84.1-4.17-.01-.51,0-1.03.03-1.54l.03-.68c0-.28.26-.49.51-.49.28,0,.49.24.49.51l-.03.7c-.02.49-.04.99-.03,1.48.03,1.3.05,2.8-.11,4.29-.12,1.16-.16,2.4-.11,3.81.02.62.07,1.25.11,1.87.03.48.07.96.09,1.44l.04.8c.05.83.1,1.68.08,2.54-.02.82.07,1.67.16,2.49.03.31.07.62.09.94.08.95.04,1.89,0,2.8-.02.4-.04.8-.05,1.2,0,.19-.02.38-.05.58-.01.11-.02.21-.03.32-.02.3-.07.6-.11.9-.08.54-.16,1.04-.09,1.54.1.8.04,1.58-.02,2.34l-.04.48c-.01.2-.03.4-.05.59-.04.44-.08.85-.06,1.26.02.36,0,.72-.03,1.08-.04.54-.08,1.06.05,1.54.04.15.02.3.01.39-.16,1.37-.29,2.78-.42,4.35-.02.27.03.55.08.85.04.27.09.55.09.85v.32c0,1.01,0,2.06.04,3.08.01.22-.04.42-.08.58-.02.1-.05.2-.05.25.06.56.05,1.11.03,1.64-.01.5-.03.97.02,1.44.09.92.1,1.94.02,3.2-.04.69-.04,1.38-.03,2.07,0,.84,0,1.71-.07,2.58-.07.8-.09,1.62-.11,2.42-.02.56-.03,1.12-.06,1.68-.02.38-.06.75-.09,1.12-.05.56-.1,1.09-.11,1.63,0,.16-.02.32-.03.47-.03.28-.05.53.03.74.1.26-.04.55-.29.64-.06.02-.12.03-.17.03Z"/>
    <path class="cls-2" d="m57.69,43.1c-.24,0-.45-.17-.49-.41-.18-.95-.15-1.9-.13-2.82,0-.29.01-.58.02-.87,0-.88-.03-1.76-.06-2.64l-.03-.88c-.01-.48-.04-.96-.08-1.44-.04-.63-.08-1.25-.09-1.88-.01-.91-.11-1.84-.21-2.8-.02-.22-.03-.44-.02-.65.01-.62,0-1.24,0-1.86,0-.83-.01-1.67.03-2.49.03-.57-.06-2.91-.14-5.18-.09-2.61-.18-5.08-.14-5.73.02-.27.25-.48.53-.47.28.02.49.25.47.53-.03.6.06,3.27.14,5.64.08,2.39.16,4.66.13,5.26-.04.81-.03,1.63-.02,2.44,0,.63,0,1.26,0,1.89,0,.17,0,.34.02.52.11.98.21,1.93.22,2.89,0,.61.05,1.22.08,1.83.03.49.06.98.08,1.47l.03.87c.03.89.06,1.79.06,2.68,0,.3,0,.59-.02.89-.02.91-.04,1.76.11,2.61.05.27-.13.53-.4.58-.03,0-.06,0-.09,0Z"/>
    <path class="cls-2" d="m171.34,201.77c-.31,0-.57-.1-.7-.15-.15-.06-.27-.1-.31-.1h0c-.16.22-.47.28-.69.12-.22-.16-.27-.47-.11-.69.46-.64,1.11-.4,1.39-.29.47.17.55.09.61.02.1-.12.21-.19.31-.23.23-.34.43-.72.63-1.12.37-.72.75-1.46,1.42-2.13.12-.12.29-.17.46-.13.17.04.3.16.36.32.33.91.15,1.71,0,2.41-.09.42-.18.81-.15,1.19.01.15-.04.3-.16.4-.11.1-.26.15-.41.13l-.15-.02c-.44-.06-.79-.12-1.13-.04-.2.04-.38,0-.5-.05-.28.28-.59.36-.88.36Zm1.69-1.35c.18,0,.37.02.55.04.03-.3.09-.59.16-.87.06-.26.11-.51.14-.76-.19.3-.35.62-.52.95-.11.21-.22.42-.33.64Z"/>
    <path class="cls-2" d="m57.66,83.56h-.01c-.28,0-.49-.24-.49-.51l.03-.88c.02-.64.05-1.29.04-1.93,0-.72-.01-1.43-.01-2.15,0-.98-.01-1.97-.03-2.95,0-.41,0-.83,0-1.24,0-.79,0-1.6-.04-2.39-.05-.79-.05-1.59-.05-2.37v-.39c0-.56.04-1.12.08-1.68.07-1.01.14-1.97-.03-2.94-.13-.74-.15-1.45-.05-2.13.09-.6.19-1.27.1-1.87-.07-.48-.08-.95-.09-1.4,0-.19,0-.38-.02-.57-.03-.61,0-1.23.05-1.83.02-.27.03-.54.04-.81.02-.49.04-.98.07-1.47.05-.97.09-1.95.11-2.92v-.72c.04-1.29.06-2.62-.04-3.94-.04-.48-.03-.97-.03-1.46,0-.69.01-1.33-.1-1.97-.05-.27.14-.53.41-.58.27-.04.53.14.58.41.12.73.12,1.45.11,2.15,0,.46,0,.92.02,1.37.11,1.36.08,2.72.06,4.03v.72c-.03.98-.08,1.97-.12,2.95-.02.49-.05.98-.06,1.46-.01.28-.03.56-.05.84-.04.6-.07,1.16-.05,1.72,0,.2.02.4.02.59.01.44.02.86.08,1.28.11.74,0,1.53-.1,2.17-.08.57-.07,1.18.04,1.81.19,1.09.12,2.16.04,3.18-.04.53-.08,1.07-.08,1.6v.39c0,.76,0,1.54.04,2.3.05.82.05,1.65.05,2.45,0,.41,0,.82,0,1.22.01.99.02,1.98.03,2.96,0,.71,0,1.43.01,2.14,0,.66-.02,1.32-.04,1.98l-.03.88c0,.27-.23.49-.5.49Z"/>
    <path class="cls-2" d="m187.89,28.02c-.23,0-.44-.16-.49-.4-.15-.72-.08-1.42,0-2.09l.02-.15c.04-.38.04-.75.03-1.16,0-.38,0-.77.03-1.15.02-.17.04-.34.06-.51.04-.28.08-.55.07-.81-.02-.62-.04-1.24-.06-1.87-.03-.96-.06-1.92-.11-2.88-.01-.19-.02-.38-.02-.57-.02-.51-.03-.99-.12-1.46-.02-.08-.02-.15-.03-.23,0-.09-.02-.16-.04-.22-.08-.2-.16-.43-.21-.48,0,.02-.19.03-.36.04h-.16c-.29.02-30.53-.06-31.15-.52-.22-.16-.27-.48-.11-.7.13-.18.37-.24.57-.17,1.45.23,29.01.44,30.66.4h.15c.97-.04,1.16.09,1.54,1.07.07.18.09.34.1.47,0,.05,0,.09.02.14.11.55.13,1.09.14,1.62,0,.18.01.36.02.55.05.97.08,1.94.11,2.91.02.62.04,1.24.06,1.85.01.35-.03.68-.08,1-.02.15-.04.3-.06.45-.03.35-.03.7-.02,1.05,0,.41,0,.84-.04,1.28l-.02.15c-.07.62-.14,1.21-.02,1.77.06.27-.12.54-.38.59-.04,0-.07.01-.11.01Z"/>
    <path class="cls-2" d="m186.66,47.11c-.27,0-.49-.22-.5-.49-.01-.55,0-1.11.02-1.66l.02-.67c0-.31.03-.62.05-.93.02-.25.04-.5.05-.75,0-.23.04-.45.07-.68.04-.26.07-.5.06-.73-.04-.86.05-1.7.12-2.52.04-.45.09-.9.11-1.35.02-.39.08-.78.14-1.16.08-.51.15-.99.13-1.45-.04-.92.03-1.82.1-2.7.05-.68.11-1.38.11-2.07,0-.21.02-.41.03-.62.03-.4.06-.79-.06-1.13-.09-.26.04-.55.3-.64.26-.09.54.04.64.3.19.54.15,1.07.11,1.54-.01.18-.03.36-.03.54,0,.72-.06,1.45-.11,2.15-.07.85-.14,1.72-.1,2.58.02.56-.06,1.11-.14,1.64-.05.36-.11.71-.13,1.07-.02.46-.07.93-.11,1.39-.08.82-.15,1.59-.12,2.38.01.32-.03.62-.07.91-.03.19-.05.38-.06.58,0,.26-.03.53-.05.79-.02.29-.04.59-.05.88l-.02.68c-.01.54-.03,1.08-.02,1.62,0,.28-.21.5-.49.51h0Z"/>
    <path class="cls-2" d="m165.88,201.52c-.25,0-.46-.19-.5-.44-.09-.76.12-1.43.33-2.07l.1-.33c.1-.32.21-.64.32-.95.08-.24.17-.48.25-.72.02-.08.04-.13.05-.17,0,.04,0,.09.02.14l.53-.78-.28.41.29-.41c.49.34.5.61.34,1.12-.08.25-.17.49-.25.74-.11.3-.21.61-.31.92l-.11.34c-.18.56-.35,1.1-.29,1.64.03.27-.16.52-.44.56-.02,0-.04,0-.06,0Zm.64-4.42h0,0Z"/>
    <path class="cls-2" d="m165.65,203.62c-.06,0-.11,0-.17-.03-.15-.05-.27-.18-.32-.34-.16-.57-.13-1.1-.07-1.55-.24-.05-.42-.16-.54-.34-.24-.37-.06-.81,0-.97l.28-.66c.29-.67.57-1.31.78-1.98l.07-.23c.1-.36.21-.76.53-1.11.19-.2.5-.21.71-.03.2.19.21.5.03.71-.15.16-.22.41-.29.69-.02.09-.05.18-.08.27-.22.73-.52,1.42-.81,2.09l-.27.62c.25.06.38.19.44.26.15.11.23.3.2.48-.02.14-.04.27-.05.39.16-.27.29-.57.43-.88.26-.59.52-1.19,1.01-1.7.17-.17.43-.2.62-.07.67.42.6,1.04.56,1.41-.01.12-.02.23-.01.3.04.27-.15.53-.42.57-.27.04-.53-.15-.57-.42-.02-.1-.02-.2-.01-.29-.09.19-.18.39-.27.59-.32.72-.67,1.54-1.48,2.13-.09.06-.19.09-.29.09Z"/>
    <path class="cls-2" d="m181.57,205.9s-.08,0-.12,0c-1.21-.04-2.42-.11-3.63-.19-1.35-.09-2.75-.18-4.12-.2-.31,0-.61,0-.92,0-.68,0-1.38,0-2.08-.07-2.08-.22-3.93-.39-5.65-.51l-.88-.06c-1.87-.13-3.8-.27-5.69-.05-1.5.18-2.99.25-4.42.22-1.95-.05-3.87,0-5.7.14-.75.06-1.49.08-2.19.06-.83-.02-1.66-.02-2.49-.03-1.3-.01-2.59-.02-3.89-.07-.47-.02-.95-.01-1.42,0-.62,0-1.26,0-1.9-.03-1.99-.14-3.99-.23-5.99-.32l-2.22-.1c-1.54-.08-3.08-.15-4.62-.19-.94-.02-1.88-.06-2.83-.1-.79-.03-1.59-.06-2.38-.08-.49-.01-.99-.02-1.48-.03-1.02-.02-2.07-.04-3.11-.11-.49-.03-1.2-.09-1.99-.16-1.87-.15-5.36-.44-5.83-.32-.09.02-.27.08-34.29.06-.49.28-.95.16-1.31.06-.17-.05-.34-.09-.46-.07-.62.08-1.26,0-1.75-.06-.64-.09-1.29-.1-1.97-.12-.82-.02-1.67-.03-2.52-.2-.18-.04-.4-.02-.63,0-.21.02-.42.04-.63.03-1.16-.06-2.27-.25-3.31-.46-.27-.05-.45-.32-.39-.59.05-.27.31-.45.59-.39.99.2,2.07.39,3.16.44.17,0,.33,0,.49-.02.28-.03.6-.06.92,0,.76.15,1.53.17,2.34.18.68.01,1.39.03,2.09.13.43.06.98.12,1.48.06.32-.04.6.03.84.1.36.09.47.1.6,0,.09-.07.19-.1.3-.1h0c11.56,0,33.6,0,34.26-.04.45-.13,2.33-.01,6.1.3.79.06,1.49.12,1.97.16,1.02.07,2.06.09,3.07.11.5,0,.99.02,1.49.03.8.02,1.6.05,2.39.08.94.04,1.88.07,2.82.1,1.55.04,3.09.11,4.64.19l2.22.1c2,.09,4.01.18,6.01.32.6.04,1.22.04,1.82.03.49,0,.98,0,1.46.01,1.29.05,2.57.06,3.86.07.83,0,1.67.01,2.5.03.67.02,1.38,0,2.1-.06,1.86-.14,3.81-.19,5.79-.15,1.39.03,2.83-.04,4.28-.22,1.99-.24,3.97-.1,5.88.04l.88.06c1.73.12,3.59.28,5.69.51.65.07,1.29.07,1.97.06.31,0,.63,0,.94,0,1.39.03,2.8.12,4.17.2,1.2.08,2.4.15,3.59.19.36.01.43-.03.44-.04.04-.06.09-.36.13-.56.01-.08,0-.19-.04-.32-.04-.16-.07-.35-.06-.56.04-.72.1-1.44.15-2.16.07-.94.14-1.87.19-2.81.05-.98.07-1.8.06-2.57-.02-1.34-.02-2.68,0-4.01,0-.12-.03-.26-.07-.42-.07-.26-.15-.59-.07-.96.14-.6.13-1.22.12-1.87v-.27c0-.62.03-1.24.07-1.86.02-.31.04-.63.05-.94.01-.24.03-.48.04-.72.03-.37.05-.74.05-1.11v-.97c-.02-.83-.03-1.68,0-2.53,0-.21.03-.41.05-.62.02-.21.05-.43.05-.65.04-1.4.02-2.82.01-4.2-.01-1.32-.02-2.65,0-3.97,0-.38.01-.77.02-1.15,0-.88.02-1.79.08-2.7.02-.25.02-.5.03-.75,0-.25,0-.5.02-.75.04-.56.05-1.12.07-1.68.02-.7.04-1.39.1-2.09.02-.27,0-.54,0-.81-.01-.34-.02-.7.02-1.06.09-.74.1-1.5.1-2.25,0-.34,0-.68.02-1.02.06-2.02.07-3.56.02-5.01-.02-.44,0-.88.03-1.31.03-.48.05-.94.02-1.4l-.03-.41c-.05-.63-.1-1.28-.02-1.94.02-.16.04-.32.07-.49.07-.46.13-.9.08-1.31-.09-.85-.06-1.7-.03-2.52.02-.54.04-1.09.03-1.63-.04-1.52.07-3.04.18-4.51l.02-.24c.06-.78.12-1.58.05-2.33-.08-.88-.03-1.74.02-2.57v-.12c.04-.52.03-.92-.01-1.31-.03-.21-.08-.42-.13-.63-.06-.26-.12-.52-.15-.78-.14-1.38-.08-2.78-.02-4.13,0-.13.01-.19,0-.21-.19-.2-.17-.49.03-.68.2-.19.53-.16.72.04.28.29.26.64.25.83-.06,1.38-.12,2.74.01,4.05.02.22.08.43.13.65.06.24.12.49.15.74.05.44.06.91.03,1.49v.12c-.06.83-.1,1.62-.02,2.42.08.84.01,1.69-.05,2.5l-.02.24c-.11,1.45-.22,2.94-.18,4.41.02.57,0,1.13-.03,1.7-.03.82-.06,1.59.02,2.38.06.54-.02,1.06-.09,1.56-.02.15-.04.31-.06.46-.07.56-.02,1.14.02,1.74l.03.42c.03.52,0,1.02-.02,1.52-.02.41-.04.81-.03,1.22.05,1.47.05,3.03-.02,5.08-.01.33-.01.66-.02,1,0,.77-.02,1.56-.11,2.35-.03.29-.02.59-.01.91.01.31.02.62,0,.92-.05.68-.07,1.36-.09,2.04-.02.57-.04,1.14-.07,1.71-.01.23-.02.46-.02.7,0,.27,0,.54-.03.81-.07.87-.07,1.77-.08,2.64,0,.39,0,.77-.02,1.16-.03,1.31-.02,2.63,0,3.94.01,1.39.02,2.82-.01,4.23,0,.25-.03.49-.06.73-.02.18-.04.37-.05.55-.04.82-.02,1.66-.01,2.47v.98c.01.39-.01.79-.04,1.19-.02.23-.03.46-.04.69-.01.32-.03.64-.05.96-.04.6-.07,1.19-.07,1.79v.27c0,.68.02,1.39-.14,2.1-.03.13,0,.29.06.49.05.2.11.43.1.68-.02,1.33-.02,2.66,0,3.98.01.8,0,1.64-.06,2.64-.05.94-.12,1.89-.19,2.83-.05.72-.1,1.43-.15,2.15,0,.07.02.17.04.29.04.19.09.43.05.69-.15.89-.32,1.43-1.46,1.43Z"/>
    <path class="cls-2" d="m185.34,142.56c-.22,0-.43-.16-.5-.39-.12-.42-.04-9.54,1.31-72.89.09-4.15.14-6.74.15-6.91,0-.68.03-1.36.05-2.03.01-.41.03-.81.04-1.22.01-.5-.02-1-.05-1.53-.04-.62-.08-1.26-.04-1.91.03-.45,0-.98-.1-1.57-.07-.49-.05-.95-.04-1.4.02-.39.03-.76-.02-1.11-.08-.6-.04-1.19,0-1.76.03-.46.06-.9.03-1.34-.03-.41-.03-.83-.02-1.24v-.53c0-.28.23-.5.5-.5h0c.28,0,.5.22.5.5v.55c0,.39-.01.77.01,1.15.04.51,0,1-.03,1.48-.04.54-.07,1.06,0,1.56.06.44.04.87.02,1.29-.02.42-.03.82.03,1.21.1.67.14,1.26.11,1.78-.03.59,0,1.17.04,1.79.03.53.07,1.07.05,1.62,0,.41-.02.82-.04,1.23-.02.67-.04,1.34-.05,2.01,0,.16-.06,2.76-.15,6.92-.38,17.6-1.52,71.14-1.34,72.65.07.27-.09.52-.35.59-.04.01-.08.02-.12.02Z"/>
    <path class="cls-2" d="m177.13,201.88c-.2,0-.38-.11-.46-.31-.12-.3-.04-.51.05-.64.19-.27.5-.27.63-.27l3.13.03c.28,0,.5.23.5.5s-.22.5-.5.5l-2.93-.03c-.06.08-.14.15-.24.18-.06.02-.12.03-.17.03Z"/>
    <path class="cls-2" d="m161.41,201.97c-.2,0-.39-.12-.47-.32-.1-.26.03-.55.29-.65.39-.15.79-.16,1.13-.17.18,0,.36,0,.54-.03.06,0,.12-.02.18-.04.26-.06.66-.16,1.03.08.12.08.14.09.49-.14l.56.83c-.33.22-.89.6-1.59.15h0s-.17.04-.26.06c-.09.02-.17.04-.25.05-.22.03-.45.04-.67.05-.29,0-.57.01-.8.1-.06.02-.12.03-.18.03Z"/>
    <path class="cls-2" d="m89.71,14.7c-.6,0-1.19-.02-1.77-.03-.51-.02-1.01-.03-1.52-.03-.82,0-1.64-.03-2.47-.06l-1.31-.04c-.15,0-.29-.02-.44-.05-.2-.03-.36-.06-.5-.01-.19.06-.4.03-.56-.07-.17-.11-.28-.3-.31-.52-.03-.27.17-.52.44-.55.15-.02.3.04.41.14.25-.03.48,0,.68.04.1.02.21.03.31.04l1.32.04c.81.03,1.63.05,2.44.06.51,0,1.03.02,1.54.03,1.04.03,2.12.06,3.17-.01.27-.02.51.19.53.46.02.28-.19.51-.46.53-.5.03-1,.05-1.5.05Z"/>
    <path class="cls-2" d="m175.09,202.24c-.3,0-.72-.13-.8-.82-.1-.26.02-.59.28-.69.26-.1.54-.02.64.24.03.09.05.17.06.25.46-.03.74-.07.93-.32.17-.22.48-.26.7-.1.22.17.26.48.1.7-.48.63-1.15.68-1.69.72h-.13s-.06.01-.09.01Z"/>
    <path class="cls-2" d="m104.58,15.02c-.62,0-1.24-.05-1.84-.09-.5-.04-1-.08-1.5-.09-.63-.01-1.27-.05-1.9-.09-.73-.04-1.47-.09-2.2-.09h-.92c-.87,0-1.76,0-2.65-.06-.28-.02-.48-.26-.46-.54.02-.28.28-.48.54-.46.85.06,1.72.06,2.57.06h.93c.75,0,1.51.05,2.26.09.62.04,1.24.07,1.86.09.52.01,1.03.05,1.55.09.61.05,1.23.09,1.85.09.47,0,.94,0,1.42,0,1.28,0,2.56,0,3.84-.07.3-.01.51.2.53.47.02.28-.2.51-.47.53-1.3.07-2.6.08-3.89.07-.47,0-.94,0-1.41,0-.03,0-.06,0-.09,0Z"/>
    <path class="cls-2" d="m177.06,201.72s-.09,0-.13-.02h-.02c-.59-.17-1.15-.32-1.7-.26-.07,0-.14.02-.22.04-.29.06-.74.15-1.17-.16-.22-.16-.27-.47-.11-.7.16-.22.47-.27.7-.11.06.05.13.05.39,0,.1-.02.21-.04.31-.05.74-.07,1.42.11,2.07.29.27.07.43.35.36.62-.06.22-.26.37-.47.37Z"/>
    <path class="cls-2" d="m80.98,14.48h-.01l-3.71-.1c-.28,0-.49-.24-.49-.51,0-.28.24-.48.51-.49l3.71.1c.28,0,.49.24.49.51,0,.27-.23.49-.5.49Z"/>
    <path class="cls-2" d="m92.45,14.66c-.35,0-.7-.05-1.02-.09l-.26-.04c-.27-.04-.47-.29-.43-.56.04-.27.3-.47.56-.43l.27.04c.54.08,1.05.15,1.52-.02.26-.09.55.05.64.31.09.26-.05.55-.31.64-.33.12-.66.16-.98.16Z"/>
    <path class="cls-2" d="m173.5,202.83c-.09,0-.18-.02-.26-.07-.24-.14-.31-.45-.17-.69.24-.4.39-.71.43-1.06.03-.28.29-.47.55-.44.28.03.47.28.44.55-.06.58-.33,1.06-.57,1.47-.09.16-.26.24-.43.24Z"/>
    <path class="cls-2" d="m169.52,201.92c-.08,0-.17,0-.26-.04-.59-.19-1.25-.29-2.12-.32-.28-.01-.49-.24-.48-.52.01-.27.23-.48.5-.48,0,0,.01,0,.02,0,.97.04,1.71.15,2.39.37.11-.03.17-.03.23-.04.25-.02.51.2.52.48.01.28-.2.51-.48.52h-.09c-.06.02-.14.03-.22.03Z"/>
    <path class="cls-2" d="m57.56,130.73s-.01,0-.02,0c-.28-.01-.49-.25-.48-.52.02-.47.04-.94.05-1.42.02-.67.04-1.34.08-2.01.05-.93.03-1.89,0-2.82-.01-.48-.03-.96-.03-1.44,0-.18.02-.35.04-.53.01-.1.03-.21.03-.31.05-.9.02-1.82,0-2.71-.02-.74-.04-1.47-.03-2.21.06-2.36.12-4.71.2-7.07.04-1.12.01-2.27-.01-3.38-.01-.45-.02-.9-.03-1.35,0-.23-.01-.46.07-.7l.14-5c-.08-.72-.11-1.51-.13-2.27l-.02-.71c-.01-.36-.02-.72-.02-1.08-.01-.72-.02-1.47-.1-2.19-.03-.29-.01-.57,0-.84,0-.11.01-.22.02-.32l-.2-7.46.03-1.13c0-.27.23-.49.5-.49h.01c.28,0,.49.24.49.51l-.03,1.1.2,7.46c0,.15-.01.27-.02.39-.01.23-.03.45,0,.67.08.77.1,1.54.11,2.28,0,.35.01.71.02,1.06l.02.72c.02.74.04,1.51.12,2.26l-.14,5.17c0,.08-.02.15-.06.22-.02.04-.02.15-.01.24,0,.54.02.99.03,1.44.03,1.12.05,2.28.01,3.43-.07,2.35-.14,4.71-.2,7.06-.02.72,0,1.43.03,2.15.03.91.06,1.85,0,2.79,0,.13-.02.25-.04.38-.02.13-.04.27-.03.4,0,.47.02.94.03,1.42.03.95.05,1.93,0,2.91-.04.66-.06,1.32-.08,1.98-.01.48-.03.95-.05,1.43-.01.27-.23.48-.5.48Z"/>
    <path class="cls-2" d="m165.59,201.8c-.12,0-.24-.04-.33-.13-.21-.18-.22-.5-.04-.71.46-.52,1.03-.38,1.33-.3.1.02.19.05.26.05h0c.27,0,.5.22.5.49,0,.28-.22.5-.49.51h-.01c-.19,0-.36-.04-.5-.08-.28-.07-.29-.06-.34,0-.1.11-.24.17-.37.17Z"/>
    <path class="cls-2" d="m58.93,15.43c-.25,0-.47-.19-.5-.44-.03-.27.16-.52.43-.55.12-.01,1.12-.07,3.93-.23,4.73-.26,13.52-.75,14.11-.87.25-.11.51.02.62.27.11.25-.04.56-.29.67-.24.1-1.73.23-14.39.93-2,.11-3.73.21-3.87.22-.02,0-.03,0-.05,0Z"/>
    <g id="zjU742">
      <g>
        <path class="cls-2" d="m99.31,69.81s-.09,0-.14-.02l-.26-.08c-1.66-.49-3.37-1-5.03-1.6-2.86-1.05-5.38-2.57-7.46-3.93-2.19-1.42-3.53-3.63-3.88-6.38-.3-2.36.25-4.64.84-6.77.94-3.42,3.31-5.98,5.73-8.23,1.08-1,2.33-1.81,3.54-2.59.32-.2.63-.41.94-.61,3.19-2.1,6.08-3.96,9.23-5.53,2.94-1.46,6.05-2.57,9.26-3.3.95-.22,1.89-.44,2.84-.67,1.78-.43,3.63-.88,5.46-1.23.56-.11,1.14-.14,1.69-.18.77-.05,1.49-.09,2.13-.32,1.98-.7,3.94-.59,5.84-.49.49.03.98.05,1.48.07.57.02,1.24.06,1.84.42.24.14.32.45.17.69-.14.24-.45.31-.69.17-.4-.24-.89-.27-1.36-.28-.5-.01-1-.04-1.5-.07-1.88-.1-3.67-.2-5.45.43-.78.28-1.6.32-2.41.37-.55.03-1.06.06-1.56.16-1.81.35-3.65.8-5.42,1.22-.95.23-1.9.46-2.85.68-3.13.71-6.17,1.8-9.04,3.22-3.1,1.54-5.97,3.38-9.13,5.46-.32.21-.64.41-.96.62-1.17.75-2.39,1.53-3.4,2.48-2.31,2.15-4.58,4.58-5.45,7.76-.56,2.03-1.08,4.2-.81,6.38.31,2.45,1.49,4.41,3.43,5.67,2.04,1.32,4.5,2.81,7.26,3.83,1.63.6,3.33,1.1,4.97,1.58l.26.08c.26.08.42.36.34.62-.06.22-.26.36-.48.36Z"/>
        <path class="cls-2" d="m116.22,26.55c-.26,0-.48-.21-.5-.47-.02-.28.2-.51.47-.53l2-.11c1.5-.08,2.99-.16,4.49-.25,1.62-.1,3.26-.07,4.83-.03,1.04.02,2.08.05,3.11.03,2.08-.03,4.16.09,6.19.2.71.04,1.42.08,2.12.11.28.01.49.25.47.52s-.23.49-.52.48c-.71-.03-1.42-.07-2.13-.11-2-.11-4.08-.23-6.11-.2-1.05.01-2.1,0-3.15-.03-1.56-.03-3.17-.07-4.75.03-1.5.1-3,.17-4.5.25l-2,.11s-.02,0-.03,0Z"/>
        <path class="cls-2" d="m72.96,84.32c-.05,0-.1,0-.16-.03-.26-.09-.4-.37-.32-.63.47-1.43,1.03-2.93,2.14-4.19.23-.26.41-.57.6-.9.09-.15.17-.3.27-.45l.38-.61c.9-1.46,1.83-2.96,3.46-3.83l.5-.27c1.87-.99,3.8-2.02,5.86-2.75,1.63-.58,3.31-.85,4.94-1.12l.66-.11c1.73-.29,3.47-.28,5.15-.27,1.31,0,2.66.01,3.98-.12.39-.04.79-.06,1.18-.08.63-.03,1.28-.07,1.87-.19l1.19-.24c2.07-.41,4.21-.84,6.23-1.51,2.53-.84,4.29-1.84,5.7-3.23,2.05-2.03,4.2-4.27,6.05-6.82l.2-.28c.54-.74,1.11-1.51,1.47-2.36.34-.79.78-1.53,1.2-2.24.31-.52.63-1.05.9-1.59.17-.34.35-.67.54-.99.49-.88.96-1.71,1.09-2.69l.04-.3c.07-.62.15-1.32.54-1.95.14-.24.45-.31.69-.17.24.14.31.45.17.69-.27.44-.33.98-.4,1.55l-.04.31c-.15,1.18-.69,2.13-1.21,3.06-.18.31-.35.63-.51.95-.29.57-.62,1.13-.93,1.66-.43.71-.83,1.39-1.14,2.12-.4.96-1,1.77-1.58,2.56l-.2.27c-1.9,2.61-4.08,4.88-6.16,6.94-1.5,1.49-3.44,2.6-6.09,3.47-2.08.69-4.25,1.12-6.35,1.54l-1.18.24c-.66.13-1.35.17-2.01.21-.38.02-.76.04-1.13.08-1.37.15-2.75.14-4.09.13-1.64,0-3.33-.02-4.98.26l-.66.11c-1.66.27-3.22.53-4.77,1.08-1.99.71-3.89,1.71-5.73,2.69l-.5.27c-1.39.74-2.21,2.06-3.08,3.47l-.38.61c-.08.14-.17.27-.25.41-.21.36-.42.73-.72,1.06-.99,1.11-1.5,2.5-1.94,3.84-.07.21-.26.34-.47.34Z"/>
        <path class="cls-2" d="m151.32,173.07c-.66,0-1.33-.04-2-.18-.42-.08-.88-.06-1.36-.04-.26.01-.52.02-.79.02-2.19,0-4.39-.24-6.51-.47l-.46-.05c-1.58-.17-3.38-.36-5.1-.34-1.61.02-3.22-.04-4.79-.11-1.99-.08-4.04-.17-6.05-.06-2.8.14-5.33.25-7.88.11-3.15-.17-6.36-.24-9.47-.3-1.02-.02-2.05-.04-3.07-.07-.78-.02-1.56-.09-2.31-.16-1.07-.1-2.18-.2-3.26-.15-.6.03-1.19.1-1.78.17-1.03.12-2.09.25-3.17.17-.85-.06-1.69-.15-2.54-.24l-1.12-.11c-.27-.03-.48-.27-.45-.55.03-.27.27-.47.55-.45l1.13.11c.84.09,1.67.17,2.51.24.99.08,1.96-.04,2.98-.16.62-.07,1.23-.15,1.85-.18,1.15-.06,2.29.05,3.4.15.74.07,1.5.14,2.25.16,1.02.02,2.04.05,3.07.07,3.11.06,6.33.13,9.5.3,2.51.14,5.01.03,7.78-.11,2.05-.11,4.13-.02,6.14.06,1.55.06,3.16.13,4.73.11,1.8-.02,3.62.17,5.22.35l.46.05c2.13.23,4.36.46,6.52.47.21,0,.42-.01.62-.02.53-.03,1.07-.05,1.6.05,1.24.24,2.47.16,3.76.07h.12c.27-.03.51.18.53.46.02.28-.19.51-.46.53h-.12c-.66.05-1.34.1-2.02.1Z"/>
        <path class="cls-2" d="m121.66,204.03c-.26,0-.48-.2-.5-.46v-.11c-.1-1.31-.19-2.66.07-4.03.08-.42.06-.88.04-1.37-.01-.22-.02-.45-.02-.67,0-2.23.24-4.47.47-6.63l.05-.46c.17-1.57.37-3.36.34-5.1-.02-1.56.04-3.55.1-5.66.09-2.79.17-5.68.07-7.73-.01-.28.2-.51.47-.53.3-.01.51.2.52.47.11,2.09.02,5-.07,7.82-.06,2.1-.12,4.08-.1,5.62.03,1.8-.17,3.62-.35,5.22l-.05.46c-.24,2.13-.48,4.34-.47,6.52,0,.21.01.41.02.62.03.52.05,1.07-.05,1.61-.24,1.24-.16,2.47-.07,3.77v.11c.03.28-.18.51-.46.53-.01,0-.02,0-.04,0Z"/>
        <path class="cls-2" d="m106.59,201.4h0c-.28,0-.5-.22-.5-.5,0-.82.02-1.63.06-2.44.17-3.17.24-6.39.3-9.51.02-1.01.04-2.02.07-3.02.02-.78.09-1.56.16-2.32.1-1.07.2-2.18.15-3.25-.03-.59-.1-1.19-.17-1.78-.12-1.03-.25-2.1-.17-3.18.06-.84.15-1.68.24-2.51l.12-1.15c.03-.28.3-.47.55-.45.28.03.48.27.45.55l-.12,1.15c-.08.83-.17,1.66-.23,2.49-.08.99.04,1.96.16,2.99.07.61.15,1.23.18,1.85.06,1.15-.05,2.29-.15,3.4-.07.74-.14,1.51-.16,2.25-.02,1.01-.04,2.01-.07,3.02-.06,3.13-.13,6.36-.3,9.54-.04.8-.06,1.59-.06,2.39,0,.28-.22.5-.5.5Z"/>
        <path class="cls-2" d="m113.69,204.14c-.26,0-.48-.2-.5-.47v-.12c-.1-1.3-.19-2.65.07-4.02.08-.42.06-.88.04-1.36-.01-.22-.02-.45-.02-.67,0-2.22.23-4.44.47-6.6l.05-.49c.17-1.57.37-3.36.34-5.1-.02-1.6.04-3.22.11-4.78.08-1.99.17-4.04.06-6.05-.09-1.84-.18-3.64-.18-5.44,0-.28.22-.5.5-.5h0c.28,0,.5.22.5.5,0,1.77.08,3.56.18,5.39.11,2.06.02,4.14-.06,6.15-.06,1.55-.13,3.16-.11,4.73.03,1.8-.17,3.62-.35,5.22l-.05.49c-.23,2.12-.47,4.32-.46,6.48,0,.21.01.42.02.63.02.52.05,1.06-.05,1.6-.24,1.24-.16,2.46-.07,3.76v.12c.03.28-.18.51-.46.53-.01,0-.02,0-.04,0Z"/>
        <path class="cls-2" d="m85.78,204.03s-.03,0-.05,0c-.28-.03-.48-.27-.45-.55l.12-1.15c.08-.83.17-1.66.23-2.49.08-.99-.04-1.96-.16-2.99-.07-.61-.15-1.23-.18-1.85-.06-1.15.05-2.29.15-3.4.07-.74.14-1.51.16-2.25.03-1.36.06-3.16.09-5.11.06-4.09.13-8.72.28-11.55.02-.28.24-.49.53-.47.28.02.49.25.47.53-.15,2.81-.22,7.43-.28,11.51-.03,1.95-.05,3.76-.09,5.12-.02.78-.09,1.56-.16,2.32-.1,1.07-.2,2.18-.15,3.25.03.59.1,1.19.17,1.78.12,1.03.25,2.1.17,3.18-.06.84-.15,1.68-.24,2.51l-.12,1.15c-.03.26-.24.45-.5.45Z"/>
        <path class="cls-2" d="m72.16,204.03c-.26,0-.48-.2-.5-.47v-.12c-.1-1.3-.19-2.65.07-4.02.08-.42.06-.88.04-1.36-.01-.22-.02-.45-.02-.67,0-2.22.23-4.44.47-6.59l.05-.49c.17-1.58.37-3.37.34-5.1-.03-2.05.09-5.2.16-7.07.01-.28.23-.5.52-.48.28.01.49.24.48.52-.07,1.87-.19,4.99-.16,7.02.03,1.79-.17,3.62-.35,5.22l-.05.5c-.23,2.12-.47,4.32-.46,6.48,0,.21.01.42.02.63.02.52.05,1.06-.05,1.6-.24,1.24-.16,2.46-.07,3.76v.12c.03.28-.18.51-.46.53-.01,0-.02,0-.04,0Z"/>
        <path class="cls-2" d="m97.87,204.03c-.27,0-.49-.21-.5-.48-.03-1.02-.08-2.04-.14-3.07-.11-2.05-.02-4.13.06-6.14.06-1.55.13-3.16.11-4.74-.03-1.79.17-3.61.35-5.22l.05-.46c.24-2.13.48-4.34.47-6.52,0-.21-.01-.42-.02-.63-.03-.52-.05-1.06.05-1.6.24-1.24.16-2.46.07-3.76v-.12c-.03-.28.18-.51.46-.53.28,0,.51.19.53.46v.12c.1,1.3.19,2.65-.08,4.02-.08.42-.06.88-.04,1.36.01.23.02.45.02.67,0,2.23-.24,4.47-.47,6.63l-.05.46c-.17,1.58-.37,3.37-.34,5.1.02,1.6-.04,3.23-.11,4.79-.08,1.99-.17,4.04-.06,6.04.05,1.03.1,2.06.14,3.08,0,.28-.21.51-.48.52,0,0-.01,0-.02,0Z"/>
        <path class="cls-2" d="m133.23,204.03c-.26,0-.48-.2-.5-.47v-.12c-.1-1.3-.19-2.65.07-4.02.08-.42.06-.88.04-1.36-.01-.22-.02-.45-.02-.67,0-2.22.23-4.44.47-6.59l.05-.49c.17-1.58.37-3.37.34-5.1-.02-1.6.04-3.22.11-4.79.08-1.99.17-4.04.06-6.05-.01-.28.2-.51.47-.53.31-.02.51.2.52.47.11,2.06.02,4.14-.06,6.15-.06,1.55-.13,3.16-.11,4.73.03,1.79-.17,3.62-.35,5.22l-.05.5c-.23,2.12-.47,4.32-.46,6.48,0,.21.01.42.02.63.02.52.05,1.06-.05,1.6-.24,1.24-.16,2.46-.07,3.76v.12c.03.28-.18.51-.46.53-.01,0-.02,0-.04,0Z"/>
        <path class="cls-2" d="m153.29,204.15h0c-.28,0-.5-.23-.49-.51.02-1.67.09-3.37.16-5,.1-2.37.2-4.82.15-7.23-.03-1.32-.1-2.63-.17-3.94-.12-2.21-.25-4.49-.17-6.78.06-1.83.15-3.65.24-5.47l.12-2.51c.01-.28.22-.51.52-.48.28.01.49.25.48.52l-.12,2.51c-.09,1.82-.17,3.64-.23,5.46-.08,2.24.05,4.5.17,6.69.07,1.32.15,2.65.18,3.98.06,2.44-.05,4.91-.15,7.29-.07,1.63-.14,3.32-.16,4.97,0,.27-.23.49-.5.49Z"/>
        <path class="cls-2" d="m145.95,204.03c-.26,0-.48-.2-.5-.47v-.12c-.1-1.3-.19-2.65.07-4.02.08-.42.06-.88.04-1.36-.01-.23-.02-.45-.02-.67,0-2.23.24-4.47.47-6.63l.05-.46c.17-1.58.37-3.37.34-5.1-.02-1.56.04-3.65.1-5.86.09-2.96.18-6.03.07-8.08-.01-.28.2-.51.47-.52.32-.03.51.2.52.47.11,2.09.02,5.18-.07,8.16-.06,2.2-.12,4.29-.1,5.82.03,1.79-.17,3.61-.35,5.22l-.05.46c-.24,2.13-.48,4.34-.47,6.52,0,.21.01.42.02.63.03.52.05,1.06-.05,1.6-.24,1.24-.16,2.46-.07,3.76v.12c.03.28-.18.51-.46.53-.01,0-.02,0-.04,0Z"/>
        <path class="cls-2" d="m160.52,204.03s-.03,0-.05,0c-.28-.03-.48-.27-.45-.55l.12-1.15c.08-.83.17-1.66.23-2.49.07-.99-.04-1.95-.16-2.98-.07-.62-.15-1.23-.18-1.85-.06-1.15.05-2.29.15-3.4.07-.74.14-1.5.16-2.24.03-1.04.05-2.88.07-4.72.02-1.84.04-3.69.07-4.73,0-.28.24-.5.51-.49.28,0,.5.24.49.51-.03,1.04-.05,2.88-.07,4.72-.02,1.84-.04,3.69-.07,4.73-.02.78-.09,1.56-.16,2.31-.1,1.07-.2,2.18-.15,3.26.03.6.1,1.19.17,1.78.12,1.03.25,2.09.17,3.17-.06.84-.15,1.68-.24,2.51l-.12,1.15c-.03.26-.24.45-.5.45Z"/>
        <path class="cls-2" d="m59.06,183c-.2,0-.39-.12-.46-.32-.1-.26.02-.55.28-.65.4-.16,4.06-1.36,8.29-2.75,4.43-1.46,9.45-3.1,9.87-3.28.92-.38,1.86-.73,2.79-1.09,2.54-.96,5.16-1.95,7.49-3.51,2.13-1.43,4.42-2.95,6.71-4.38,3.07-1.91,5.72-4.48,8.27-6.96.81-.79,1.63-1.58,2.46-2.36,2.43-2.27,4.48-4.94,6.46-7.52l1.03-1.34c1.34-1.73,2.51-3.65,3.64-5.5.34-.56.69-1.13,1.03-1.68,1.4-2.25,2.68-4.67,3.91-7.4,1.39-3.09,2.16-5.97,2.35-8.82.02-.28.26-.48.53-.46.28.02.48.26.46.53-.2,2.97-1,5.97-2.44,9.16-1.25,2.78-2.55,5.24-3.97,7.52-.35.56-.69,1.12-1.03,1.68-1.14,1.87-2.32,3.81-3.7,5.59l-1.03,1.34c-2,2.61-4.08,5.32-6.57,7.64-.83.77-1.63,1.56-2.45,2.34-2.59,2.52-5.28,5.13-8.44,7.1-2.28,1.42-4.56,2.94-6.69,4.36-2.43,1.63-5.1,2.64-7.69,3.62-.92.35-1.85.7-2.76,1.08-.42.17-4.21,1.42-9.94,3.3-3.87,1.27-7.86,2.58-8.24,2.73-.06.02-.12.03-.18.03Z"/>
        <path class="cls-2" d="m182.85,196.37c-.09,0-.18-.02-.26-.08-.03-.02-.12-.07-.26-.15-3.94-2.21-13.74-7.98-19.74-13.98-.88-.88-1.79-1.72-2.7-2.57-1.5-1.39-3.05-2.83-4.44-4.39-.51-.58-1.04-1.14-1.57-1.7-.66-.69-1.34-1.41-1.98-2.15-.81-.94-1.59-1.91-2.38-2.87-.69-.85-1.38-1.71-2.09-2.54l-.36-.43c-2-2.36-4.08-4.8-5.7-7.5-1.55-2.59-3.18-5.19-4.75-7.71-1.19-1.9-2.38-3.8-3.54-5.72l-.54-.88c-1.02-1.66-2.08-3.38-2.9-5.22-.16-.36-.31-.72-.46-1.08-.36-.84-.73-1.72-1.15-2.52l-.18-.33c-1.14-2.14-2.32-4.36-2.75-6.87-.01-.09-.04-.18-.06-.27-.11-.43-.28-1.08.25-1.66.19-.2.5-.22.71-.03.2.19.22.5.03.71-.15.16-.12.34-.02.73.03.12.06.24.08.35.4,2.35,1.49,4.4,2.65,6.57l.18.34c.45.84.83,1.74,1.19,2.6.15.36.3.71.46,1.07.78,1.78,1.82,3.47,2.83,5.1l.54.88c1.17,1.91,2.35,3.81,3.54,5.71,1.58,2.52,3.21,5.13,4.76,7.73,1.58,2.63,3.62,5.04,5.6,7.37l.36.43c.72.84,1.41,1.7,2.11,2.56.78.96,1.55,1.92,2.36,2.85.62.72,1.29,1.43,1.94,2.12.54.57,1.08,1.13,1.6,1.72,1.36,1.53,2.89,2.95,4.37,4.33.92.85,1.84,1.71,2.73,2.59,5.91,5.91,15.62,11.63,19.52,13.81.17.1.27.15.3.17.24.15.31.45.16.69-.09.15-.26.24-.42.24Z"/>
        <path class="cls-2" d="m79.45,151.34c-.59,0-1-.2-1.4-.68-.39-.47-.72-.96-1.05-1.44-.17-.26-.35-.51-.53-.76l-.41-.57c-.89-1.23-1.82-2.5-2.63-3.83l-.35-.57c-1.27-2.06-2.58-4.2-3.45-6.54-.24-.64-.53-1.29-.82-1.92-.53-1.16-1.07-2.36-1.34-3.68-.16-.81-.34-1.61-.52-2.41-.2-.91-.41-1.83-.58-2.75-.67-3.44-1.03-6.1-1.15-8.62-.08-1.81-.17-3.43-.41-5.01-.27-1.8-.29-3.71-.06-6.01.18-1.73.53-3.45.88-5.12.13-.62.26-1.25.38-1.88.66-3.46,1.54-6.27,2.75-8.83.12-.25.42-.36.67-.24.25.12.36.42.24.67-1.18,2.49-2.03,5.22-2.67,8.6-.12.63-.25,1.26-.38,1.89-.34,1.65-.69,3.35-.86,5.02-.22,2.21-.21,4.04.05,5.75.25,1.63.34,3.28.42,5.11.12,2.47.46,5.09,1.13,8.48.18.91.38,1.82.58,2.72.18.81.36,1.62.52,2.43.24,1.2.74,2.3,1.27,3.46.29.64.59,1.3.84,1.98.84,2.26,2.12,4.35,3.36,6.37l.35.57c.79,1.29,1.7,2.55,2.58,3.76l.41.57c.19.26.37.52.55.79.32.48.63.93.99,1.36.24.29.39.33.7.32,1.05-.04,2.1-.11,3.15-.17,1.45-.09,2.95-.18,4.43-.21.43,0,.88-.08,1.36-.16.28-.05.56-.09.85-.13l.03-.47c.05-.68.09-1.39.12-2.1.09-2.6.25-4.59.52-6.46.08-.59.15-1.18.21-1.77.1-.85.19-1.74.35-2.61.1-.58.19-1.17.29-1.75.08-.51.16-1.03.25-1.54l.3-1.8c.27-1.6.54-3.26.87-4.89.69-3.44,1.49-7.09,3.06-10.52l.19-.43c.41-.93.86-1.98,1.98-2.57.25-.13.55-.04.68.21s.04.55-.21.68c-.81.43-1.16,1.23-1.53,2.09l-.2.44c-1.52,3.33-2.31,6.92-2.99,10.3-.32,1.61-.6,3.26-.86,4.85l-.3,1.8c-.09.51-.17,1.02-.25,1.53-.09.59-.19,1.18-.29,1.76-.15.84-.24,1.71-.34,2.55-.07.6-.13,1.2-.22,1.8-.26,1.84-.42,3.8-.51,6.36-.03.73-.08,1.45-.12,2.13l-.06.88c-.01.25-.21.45-.46.47-.42.03-.81.1-1.19.17-.51.09-1,.17-1.5.18-1.46.03-2.95.12-4.39.21-1.06.07-2.11.13-3.17.18-.04,0-.08,0-.11,0Z"/>
        <path class="cls-2" d="m162.01,73.37c-.16,0-.3-.03-.44-.05l-.13-.02c-.82-.12-1.54-.45-2.24-.77-.32-.15-.65-.29-.98-.42l-.52-.19c-1.76-.65-3.58-1.33-5.26-2.35-2.08-1.26-3.93-2.72-5.47-3.99-1.12-.92-2.04-2.03-2.93-3.1-.56-.67-1.14-1.37-1.75-2-.15-.16-.29-.33-.41-.51l-.76-1.14c-1.75-2.62-3.56-5.33-5.15-8.14-.27-.48-.55-.96-.84-1.43-.57-.95-1.16-1.94-1.65-2.97-.87-1.81-1.77-3.68-2.83-5.48-.14-.24-.06-.54.18-.68s.54-.06.69.18c1.08,1.83,1.99,3.72,2.87,5.55.48.99,1.05,1.96,1.61,2.89.29.48.57.96.85,1.45,1.57,2.77,3.37,5.47,5.11,8.08l.76,1.14c.09.13.19.26.3.37.64.66,1.23,1.37,1.8,2.06.9,1.08,1.75,2.11,2.79,2.97,1.51,1.24,3.32,2.67,5.35,3.9,1.6.97,3.29,1.6,5.09,2.27l.52.19c.35.13.7.29,1.04.44.66.3,1.29.58,1.98.69l.15.03c.1.02.24.04.3.03,2.52-.5,5.38-1.07,7.49-3.15.17-.16.29-.29.32-.36.32-.81.79-1.52,1.24-2.2.34-.53.67-1.03.94-1.56.59-1.2.83-2.49,1.09-3.85l.02-.12c.22-1.18.2-2.35.15-3.45-.22-4.76-1.65-8.53-4.39-11.53-2.11-2.32-4.53-4.37-7.38-6.25-1.68-1.11-3.47-2.04-5.31-2.97-.25-.12-.35-.43-.22-.67.12-.25.43-.34.67-.22,1.87.95,3.69,1.89,5.41,3.03,2.92,1.94,5.39,4.03,7.56,6.42,2.9,3.18,4.42,7.16,4.65,12.16.05,1.1.07,2.4-.17,3.67l-.02.12c-.25,1.37-.52,2.78-1.17,4.11-.29.59-.65,1.14-1,1.67-.44.68-.86,1.31-1.14,2.03-.11.28-.32.48-.49.65-2.38,2.35-5.4,2.95-8.06,3.48-.08.02-.15.02-.23.02Z"/>
        <path class="cls-2" d="m101.09,126.68c-.1,0-.2-.03-.29-.09-.23-.16-.28-.47-.12-.7.2-.29,2-2.59,2.27-2.89,1.71-1.92,3.04-4.1,4.36-6.35.35-.59.7-1.18,1.05-1.77,1.03-1.73,2.09-3.52,3.04-5.32.56-1.06,1.19-2.08,1.79-3.08.62-1.01,1.26-2.06,1.82-3.12,1.29-2.45,2.44-5.02,3.55-7.5.4-.88.79-1.77,1.19-2.65.9-1.98,1.76-4.02,2.57-5.95.73-1.75,1.36-3.58,1.96-5.35.27-.79.54-1.57.82-2.35.09-.26.38-.39.64-.3.26.09.4.38.3.64-.28.78-.54,1.56-.81,2.34-.61,1.79-1.25,3.64-1.99,5.41-.81,1.94-1.67,3.99-2.58,5.98-.4.88-.8,1.76-1.19,2.64-1.12,2.5-2.28,5.08-3.58,7.56-.57,1.09-1.22,2.15-1.85,3.18-.6.98-1.22,2-1.76,3.03-.97,1.82-2.03,3.62-3.07,5.36-.35.59-.7,1.18-1.04,1.77-1.35,2.3-2.7,4.52-4.47,6.51-.21.24-1.98,2.49-2.19,2.8-.1.14-.25.21-.41.21Z"/>
        <path class="cls-2" d="m97.53,131.31s-.05,0-.08,0c-.27-.04-.46-.3-.42-.57.04-.25.16-1.02.97-1.12.22-.03.43-.06.65-.1.63-.1,1.28-.21,1.94-.15,1.73.15,3.37-.39,4.76-.91,3.51-1.31,6.8-3,9.77-5.01,2.43-1.64,4.97-3.55,8.01-5.99,5.05-4.07,8.85-8.51,11.6-13.58,2.48-4.57,3.81-8.95,4.07-13.4.01-.26.02-.52.03-.79.02-.61.03-1.24.15-1.85.51-2.76.53-5.62.54-8.38v-1.25c.03-1.81.03-3.74-.19-5.64-.36-3.11-.79-6.44-1.53-9.64-.71-3.13-1.63-6.22-2.73-9.2-.57-1.54-1.13-3.08-1.69-4.62l-.72-1.97c-.09-.26.04-.55.3-.64.26-.09.55.04.64.3l.72,1.97c.56,1.54,1.12,3.08,1.69,4.61,1.12,3.01,2.05,6.15,2.77,9.32.74,3.26,1.18,6.61,1.55,9.75.23,1.96.23,3.92.21,5.76v1.24c-.03,2.8-.05,5.7-.57,8.55-.1.54-.12,1.1-.13,1.7,0,.27-.02.55-.03.82-.26,4.6-1.63,9.13-4.19,13.82-2.82,5.19-6.7,9.73-11.86,13.88-3.06,2.46-5.62,4.38-8.07,6.04-3.04,2.06-6.4,3.78-9.98,5.12-1.49.56-3.24,1.14-5.19.97-.54-.05-1.1.04-1.7.14-.23.04-.46.07-.68.1-.04.02-.07.07-.1.29-.04.25-.25.42-.49.42Z"/>
        <path class="cls-2" d="m97.26,113.69c-.2,0-.39-.12-.46-.31-.03-.08-.07-.16-.11-.25-.11-.23-.23-.48-.26-.78-.16-1.63-.58-3.25-.99-4.82-.12-.47-.25-.95-.36-1.42-.64-2.58-1.36-5.18-2.06-7.7l-.68-2.44c-.58-2.11-1.17-4.21-1.78-6.31-.14-.48-.29-.95-.44-1.43-.25-.79-.51-1.6-.71-2.43-.61-2.62-1.42-5.1-2.41-7.38-.12-.28-.21-.57-.31-.86-.24-.74-.45-1.39-1.08-1.77-.24-.14-.31-.45-.16-.69.14-.24.45-.31.69-.17.94.58,1.24,1.5,1.5,2.31.08.26.17.52.28.77,1.01,2.34,1.84,4.88,2.46,7.55.18.79.44,1.58.68,2.35.16.48.31.97.45,1.46.61,2.1,1.2,4.21,1.78,6.32l.67,2.43c.7,2.53,1.43,5.14,2.07,7.73.12.47.24.94.36,1.41.42,1.6.85,3.26,1.02,4.97.01.12.09.28.17.44.05.1.1.21.14.31.1.26-.02.55-.28.65-.06.02-.12.04-.19.04Z"/>
        <path class="cls-2" d="m115.62,92.81c-1.94,0-3.43-.45-4.67-1.41-.31-.24-.42-.23-.63-.16-.26.09-.54-.06-.63-.32-.09-.26.05-.55.32-.63,0,0,.02,0,.02,0-.03-.03-.05-.05-.08-.08-.8-.96-1.54-1.91-1.92-3.02-.6-1.77.49-4.71,2.08-5.62,1.39-.79,2.9-1.43,4.59-.78,2.05.79,3.82,1.62,4.76,3.72.19.41.38.83.71,1.14.31.28.53.82.57,1.36.1,1.42-.35,2.81-1.38,4.23-.76,1.05-1.93,1.57-3.58,1.59-.05,0-.11,0-.16,0Zm-4.25-2.34c.06.04.12.08.19.13,1.09.84,2.42,1.23,4.21,1.2,1.34-.02,2.2-.38,2.78-1.18.9-1.24,1.28-2.38,1.19-3.57-.02-.33-.16-.62-.25-.7-.48-.44-.73-1-.93-1.45-.79-1.76-2.31-2.47-4.22-3.21-1.24-.48-2.35-.08-3.74.71-1.17.67-2.07,3.12-1.63,4.44.32.95.98,1.79,1.74,2.7.03.03.08.08.14.12.18.14.47.37.51.8Z"/>
        <path class="cls-2" d="m100.7,95.13c-.23,0-.48-.01-.74-.04h-.11c-.89-.12-2-.24-2.6-1.43-.09-.18-.22-.35-.36-.54-.15-.2-.3-.39-.41-.61-1.67-3.03-1.8-6-.37-8.83.89-1.76,2.85-2.52,4.79-1.86.75.26,1.4.65,2.03,1.03.24.14.48.29.73.43.58.33.74.79.77,1.12.04.47.2.92.37,1.39.12.34.24.68.33,1.04.28,1.22.57,2.45.38,3.74,0,.02,0,.04-.01.06.02.09.02.2-.02.32-.68,1.69-1.68,4.19-4.76,4.19Zm-1.2-12.54c-1.06,0-1.99.56-2.5,1.55-1.29,2.55-1.18,5.13.35,7.89.09.17.22.33.34.49.16.21.33.43.46.69.34.67.88.76,1.82.87h.11c2.61.32,3.52-1.22,4.38-3.31-.07-.17-.04-.37.08-.51.12-1.06-.12-2.09-.38-3.18-.08-.35-.19-.66-.3-.96-.18-.51-.37-1.04-.43-1.64,0-.09-.04-.21-.26-.33-.26-.14-.51-.29-.76-.44-.61-.37-1.19-.72-1.84-.94-.36-.12-.73-.19-1.07-.19Z"/>
        <path class="cls-2" d="m125.65,79.96s-.09,0-.13-.02c-.27-.07-.42-.35-.35-.61.03-.1.05-.2.07-.29.06-.25.12-.51.22-.75,1.07-2.51,1.64-5.22,2.1-7.56.36-1.85.54-3.76.71-5.61.05-.55.1-1.1.16-1.64.25-2.39.46-4.78.67-7.17.14-1.55.27-3.11.42-4.66.29-3.08.55-6.1.53-9.12v-.17c-.01-.35-.03-.79.27-1.2.16-.22.48-.27.7-.11.22.16.27.48.11.7-.09.13-.09.3-.08.58v.19c.02,3.06-.24,6.11-.53,9.22-.15,1.55-.28,3.1-.42,4.66-.21,2.4-.42,4.79-.67,7.19-.06.54-.11,1.09-.16,1.63-.18,1.88-.36,3.81-.73,5.71-.46,2.39-1.05,5.16-2.16,7.76-.08.18-.12.38-.17.58-.03.11-.05.22-.08.33-.06.22-.26.37-.48.37Z"/>
        <path class="cls-2" d="m78.48,144.31c-.22,0-.42-.14-.48-.36-.09-.31-.19-.62-.29-.93-.23-.7-.46-1.42-.59-2.16-.42-2.43-.94-5.62-1.34-8.83-.52-4.18-.67-8.73-.47-14.32.02-.5.03-1.01.04-1.52.05-1.86.1-3.78.41-5.67.1-.62.2-1.25.29-1.88.18-1.2.37-2.44.62-3.65.4-1.85.89-3.71,1.37-5.51l.22-.84c.8-3.03,1.64-6.16,3.02-9.09.07-.15.15-.29.23-.44.19-.35.38-.68.37-1.02,0-.28.22-.5.5-.5h0c.27,0,.5.22.5.5,0,.61-.26,1.09-.5,1.52-.07.13-.14.25-.2.38-1.35,2.85-2.17,5.94-2.96,8.92l-.22.84c-.48,1.79-.97,3.63-1.36,5.46-.25,1.18-.44,2.41-.61,3.59-.09.63-.19,1.27-.29,1.9-.3,1.82-.35,3.71-.4,5.53-.01.51-.03,1.02-.04,1.53-.2,5.53-.05,10.03.46,14.16.4,3.19.92,6.37,1.34,8.79.11.67.33,1.33.55,2.02.1.32.21.64.3.96.08.26-.07.54-.34.62-.05.01-.09.02-.14.02Z"/>
        <path class="cls-2" d="m70.34,163.35c-.21,0-.41-.14-.48-.35l-.04-.12c-.81-2.63-1.64-5.35-2.2-8.12-.05-.27.12-.53.39-.59.27-.05.53.12.59.39.55,2.71,1.38,5.41,2.18,8.02l.04.12c.08.26-.07.54-.33.62-.05.02-.1.02-.15.02Z"/>
        <path class="cls-2" d="m145.28,132.13c-.25,0-.5-.05-.75-.14-1.43-.53-2.95-.86-4.43-1.18-.87-.19-1.78-.38-2.66-.62-1.88-.5-3.72-1.13-5.51-1.74l-2.42-.82c-1.26-.43-2.55-.87-3.87-1.15-.9-.19-1.74-.55-2.55-.9-.34-.14-.67-.29-1.01-.42-.34-.13-.68-.26-1.02-.38-1.29-.48-2.63-.98-3.86-1.72-.24-.14-.31-.45-.17-.69.14-.24.45-.31.69-.17,1.15.69,2.38,1.15,3.69,1.64.35.13.69.26,1.03.39.35.14.7.28,1.04.43.8.34,1.56.67,2.36.84,1.38.29,2.7.75,3.99,1.18l2.42.82c1.77.6,3.6,1.23,5.44,1.72.86.23,1.75.42,2.61.61,1.51.33,3.07.66,4.57,1.22.13.05.24.07.36.08-.1-.37-.2-.73-.3-1.09-.34-1.22-.69-2.49-.97-3.75-.19-.84-.45-1.68-.7-2.49-.19-.62-.38-1.23-.54-1.85l-.57-2.21c-.74-2.87-1.51-5.85-2.46-8.71-.27-.83-.49-1.67-.71-2.49-.35-1.36-.72-2.76-1.32-4.04-.12-.25,0-.55.24-.66.25-.12.55,0,.66.24.64,1.36,1.01,2.81,1.38,4.21.21.81.43,1.64.69,2.43.96,2.89,1.73,5.88,2.48,8.77l.57,2.2c.16.61.35,1.21.53,1.81.26.83.52,1.69.72,2.57.28,1.24.62,2.49.96,3.7.15.54.3,1.08.44,1.62.07.25-.06.5-.3.59-.25.1-.5.15-.75.15Z"/>
        <path class="cls-2" d="m138.29,104.88c-.19,0-.37-.11-.46-.29-.11-.25,0-.55.25-.66.68-.31,1.37-.61,2.05-.91,1.52-.67,3.1-1.36,4.59-2.13,2.26-1.17,4.5-2.21,6.98-3.35.65-.3,1.33-.55,1.99-.8.85-.32,1.65-.62,2.42-1.01,1.5-.78,3-1.66,4.44-2.51.62-.37,1.25-.74,1.88-1.1.24-.14.54-.06.68.18.14.24.06.54-.18.68-.62.36-1.25.73-1.87,1.09-1.45.86-2.96,1.75-4.49,2.54-.82.42-1.69.75-2.53,1.06-.64.24-1.3.48-1.92.77-2.47,1.14-4.7,2.17-6.94,3.33-1.52.79-3.11,1.49-4.65,2.16-.68.3-1.36.6-2.04.9-.07.03-.14.04-.21.04Z"/>
        <path class="cls-2" d="m83.55,143.59c-.27,0-.5-.22-.5-.49-.02-1.6.14-3.2.29-4.75.09-.98.19-1.96.24-2.94.11-2.07.17-3.79.18-5.41v-.83c.03-4.34.06-8.83.82-13.23.16-.9.27-1.8.38-2.71.17-1.37.35-2.79.68-4.18.29-1.23.57-2.55.64-3.92l.02-.41c.03-.81.07-1.64.45-2.45.12-.25.42-.36.67-.24.25.12.36.42.24.67-.3.63-.33,1.33-.36,2.07l-.02.42c-.08,1.44-.37,2.81-.67,4.09-.31,1.34-.49,2.73-.66,4.07-.12.92-.23,1.84-.39,2.75-.75,4.31-.77,8.76-.8,13.06v.83c-.02,1.63-.07,3.36-.18,5.45-.05,1-.15,1.99-.24,2.98-.15,1.52-.3,3.1-.28,4.64,0,.28-.22.5-.49.51h0Z"/>
        <path class="cls-2" d="m115.15,91.22c-.28,0-.58-.03-.89-.08-1.22-.21-2.44-.56-3.1-1.76-.2-.36-.42-.71-.65-1.05-.15-.23-.3-.46-.44-.69-.4-.65-1.22-2-.3-3.3,1.1-1.54,2.35-2.19,3.83-2.01,1.72.22,3.11.99,4.27,2.38.49.59.9,1.26.62,2.2,0,.01,0,.03,0,.04,0,.17,0,.33,0,.5,0,.43.01.88-.14,1.32-.56,1.63-1.63,2.45-3.2,2.45Zm-2.03-7.92c-.95,0-1.74.51-2.53,1.62-.39.55-.3,1.15.34,2.2.14.23.28.45.42.67.24.37.48.73.69,1.12.43.78,1.23,1.06,2.39,1.25,1.57.26,2.48-.26,2.98-1.71.09-.27.09-.61.08-.98,0-.19,0-.38,0-.57,0,0,0-.01,0-.02,0-.07,0-.14.02-.2.15-.45.05-.76-.42-1.33-.98-1.18-2.17-1.84-3.62-2.03-.12-.02-.24-.02-.36-.02Z"/>
        <path class="cls-2" d="m162.14,92.95c-.06,0-.12-.01-.18-.03-1.42-.53-2.82-1.18-4.17-1.8-.84-.39-1.68-.77-2.53-1.14l-1.48-.64c-1.28-.55-2.6-1.13-3.92-1.64-.82-.32-1.68-.6-2.51-.86-1-.32-2.03-.66-3.03-1.07-2.11-.87-4.34-1.57-6.49-2.24-1.1-.34-2.21-.69-3.3-1.06-2.18-.74-4.47-1.34-6.68-1.91-.99-.26-1.99-.52-2.97-.79-1.5-.42-3.02-.79-4.53-1.16-1.19-.29-2.38-.59-3.56-.9l-.13-.03c-2.69-.71-5.47-1.45-8.27-1.82-.28-.04-.56-.06-.85-.08-.73-.05-1.48-.11-2.21-.42-.21-.09-.41-.13-.68-.12-.42.02-.84.05-1.26.08-.85.06-1.74.12-2.61.08-1.12-.06-2.27,0-3.38.06-1.02.05-2.07.1-3.11.07-.76-.03-1.52.05-2.32.13-.4.04-.79.08-1.19.11-.96.07-1.92.13-2.88.19l-1.22.08c-.29.02-.51-.19-.53-.47-.02-.28.19-.51.47-.53l1.22-.08c.96-.06,1.91-.12,2.87-.19.39-.03.77-.07,1.16-.1.8-.08,1.62-.17,2.45-.14,1,.03,2.04-.02,3.03-.07,1.13-.06,2.31-.12,3.48-.06.82.04,1.67-.02,2.5-.08.43-.03.86-.06,1.29-.08.41-.02.76.05,1.12.2.58.25,1.21.29,1.89.34.3.02.61.04.91.08,2.86.38,5.67,1.12,8.39,1.84l.13.03c1.18.31,2.36.6,3.54.9,1.52.38,3.04.75,4.55,1.17.98.27,1.97.53,2.96.79,2.23.58,4.53,1.19,6.75,1.94,1.09.37,2.18.71,3.28,1.05,2.17.68,4.42,1.38,6.57,2.27.96.4,1.97.72,2.96,1.04.84.27,1.71.55,2.56.88,1.34.52,2.67,1.09,3.95,1.65l1.47.63c.86.37,1.71.76,2.56,1.15,1.33.61,2.71,1.25,4.1,1.77.26.1.39.39.29.64-.08.2-.27.32-.47.32Z"/>
        <path class="cls-2" d="m100.4,93.49c-.9,0-1.79-.43-2.54-1.23-.27-.29-.34-.63-.39-.88-.03-.13-.05-.26-.09-.31-1.14-1.5-1.05-3.16-.81-4.58.15-.88.64-1.6,1.38-2.03.8-.46,1.82-.55,2.69-.23,1.89.7,2.66,2.26,3.16,3.69.28.79.27,1.52,0,2.3-.03.1-.08.19-.13.29-.03.06-.09.16-.09.2.04.08.06.17.06.26.01.1,0,.2-.06.3-.69,1.27-1.68,2.06-2.8,2.2-.12.02-.25.02-.37.02Zm-.85-8.45c-.38,0-.77.1-1.1.29-.34.2-.78.59-.9,1.33-.25,1.47-.24,2.69.62,3.81.18.23.23.5.28.71.04.2.07.32.14.4.63.68,1.34.98,2.05.89.75-.1,1.44-.64,1.96-1.52-.1-.39.07-.72.17-.91.03-.05.06-.1.08-.15.21-.57.21-1.06,0-1.64-.45-1.27-1.06-2.53-2.57-3.08-.23-.09-.48-.13-.74-.13Z"/>
        <path class="cls-2" d="m122.94,109.37s-.04,0-.07,0c-2.55-.34-5.09-.89-7.53-1.64-.17,0-.32-.07-.42-.21-.6-.86-.09-1.61.21-2.05l.07-.1c.55-.83,1.49-.6,1.94-.5,1.17.28,2.22.83,3.23,1.35.64.33,1.3.68,1.98.94,1.23.48,1.2,1.36,1.07,1.84-.06.22-.26.37-.48.37Zm-7.28-2.59c2.17.66,4.42,1.17,6.69,1.51-.08-.07-.2-.13-.36-.2-.72-.28-1.41-.64-2.07-.98-1-.52-1.95-1.01-3.01-1.27-.6-.15-.77-.09-.87.08l-.07.11c-.25.38-.35.57-.3.76Z"/>
        <path class="cls-2" d="m100.62,92.56c-1.05,0-1.87-.51-2.43-1.52-.76-1.36-.73-2.71-.7-4.01.01-.57.34-1.15.88-1.56.53-.4,1.15-.56,1.68-.43.98.25,1.85.87,2.59,1.86.5.66.94,1.47.42,2.49-.03.05-.03.21-.03.32,0,.04,0,.07,0,.11.07.11.1.24.05.38,0,0-.04.1-.04.1-.01.04-.03.08-.04.12-.29,1.26-1.09,2.05-2.15,2.12-.08,0-.15,0-.23,0Zm-.95-6.56c-.21,0-.47.1-.69.27-.29.22-.48.52-.48.76-.03,1.24-.06,2.39.57,3.52.42.75.93,1.05,1.72,1,.82-.05,1.13-.87,1.24-1.35,0-.02.01-.05.02-.07-.03-.07-.04-.15-.03-.23,0-.07,0-.14.01-.22,0-.22.01-.49.14-.75.23-.45.14-.81-.33-1.43-.61-.81-1.28-1.3-2.04-1.49-.04-.01-.09-.02-.13-.02Z"/>
        <path class="cls-2" d="m115.33,89.66c-2.03,0-3.97-1.35-4.58-3.2-.02-.07-.03-.13-.02-.2,0-.07,0-.15.03-.22.05-.12.08-.25.12-.38.1-.36.21-.77.53-1.11,1.14-1.21,3.28-1.29,5.07-.18.64.4,1.04.86,1.17,1.38.24.93-.14,1.77-.45,2.33-.16.29-.19.43-.2.47-.19,1.07-1.09,1.11-1.47,1.12-.06,0-.13,0-.19,0Zm-3.59-3.4c.52,1.42,2.13,2.46,3.74,2.4.48-.02.49-.08.53-.3.04-.21.14-.47.31-.78.36-.64.47-1.15.36-1.59-.06-.25-.32-.53-.73-.78-1.39-.86-3-.86-3.82.01-.15.16-.21.4-.29.69-.03.12-.06.23-.1.34Z"/>
        <path class="cls-2" d="m178.8,165.49c-.28,0-.5-.22-.5-.5v-3.74c0-.28.22-.5.5-.5s.5.22.5.5v3.74c0,.28-.22.5-.5.5Z"/>
        <path class="cls-2" d="m178.8,59.75c-.28,0-.5-.22-.5-.5v-3.65c0-.28.22-.5.5-.5s.5.22.5.5v3.65c0,.28-.22.5-.5.5Z"/>
        <path class="cls-2" d="m68.11,69.54c-.28,0-.5-.22-.5-.5,0-.14-.02-.27.03-.41.6-1.96,1.2-3.91,1.8-5.87l.33-1.07c.08-.26.36-.41.62-.33.26.08.41.36.33.62l-.33,1.07c-.6,1.96-1.2,3.91-1.8,5.87,0,.01.02.11.02.12,0,.28-.22.5-.5.5Z"/>
        <path class="cls-2" d="m154.67,35.9c-.08,0-.16-.02-.23-.06-1.65-.85-3.62-1.81-5.72-2.54-2.37-.82-4.53-1.4-6.6-1.76-.29-.05-.58-.14-.87-.23-.45-.14-.88-.27-1.3-.22-.27.03-.52-.17-.55-.44-.03-.27.17-.52.44-.55.64-.07,1.21.1,1.71.26.25.08.49.15.75.2,2.12.37,4.33.96,6.75,1.8,2.16.75,4.17,1.73,5.85,2.6.25.13.34.43.22.67-.09.17-.26.27-.44.27Z"/>
        <path class="cls-2" d="m105.54,75.15c-.22,0-.42-.15-.48-.37-.07-.27.08-.54.35-.61.89-.24,1.76-.18,2.61-.2.47-.01.94-.01,1.4-.02,1.11,0,2.25-.02,3.37-.13,2.43-.25,4.88-.59,7.26-.93l1.35-.19c2.44-.34,4.37-.88,6.09-1.71.25-.12.55-.02.67.23.12.25.01.55-.24.67-1.81.87-3.84,1.44-6.38,1.8l-1.34.19c-2.39.34-4.85.69-7.3.94-1.16.12-2.33.13-3.46.13-.46,0-.92,0-1.39.02-.82.02-1.63-.04-2.37.16-.04.01-.09.02-.13.02Z"/>
        <path class="cls-2" d="m104.73,121.79c-.05,0-.1,0-.15-.02-1.26-.4-2.59-.64-3.88-.87-.62-.11-1.24-.22-1.85-.35l-.1-.02c-.26-.05-.86-.16-.92-.88-.12-1.39-.43-2.79-.73-4.15-.11-.5-.22-.99-.32-1.49-.06-.27.12-.53.39-.59.27-.05.54.12.59.39.1.49.21.98.32,1.48.31,1.37.62,2.79.75,4.24.03,0,.07.01.11.02l.12.02c.61.13,1.22.24,1.83.35,1.32.24,2.69.48,4.01.91.26.08.41.37.32.63-.07.21-.26.35-.48.35Z"/>
        <path class="cls-2" d="m132.77,46.93c-.25,0-.47-.19-.5-.45-.08-.76-.43-1.46-.77-2.14-.36-.73-.63-1.5-.88-2.24-.1-.29-.2-.58-.31-.87-.11-.3-.15-.6-.18-.9-.05-.42-.1-.79-.33-1.07-.18-.21-.15-.53.07-.7.21-.18.53-.15.7.07.42.5.49,1.08.55,1.58.03.25.06.49.13.68.11.29.21.59.31.89.24.71.5,1.45.83,2.12.36.72.77,1.54.86,2.48.03.27-.17.52-.45.55-.02,0-.04,0-.05,0Z"/>
        <path class="cls-2" d="m82.04,38.03s-.03,0-.04,0l-4.63-.36c-.28-.02-.48-.26-.46-.54.02-.28.29-.48.54-.46l4.63.36c.28.02.48.26.46.54-.02.26-.24.46-.5.46Z"/>
        <path class="cls-2" d="m163.9,116.83s-.05,0-.08,0c-.58-.09-1.17-.08-1.79-.08-.91,0-1.87,0-2.83-.29-.26-.08-.41-.37-.32-.63.08-.26.37-.41.63-.32.8.25,1.63.25,2.52.25.63,0,1.29,0,1.95.09.27.04.46.3.42.57-.04.25-.25.43-.49.43Z"/>
        <path class="cls-2" d="m97.97,130.51c-.09,0-.19-.03-.28-.08-.23-.15-.29-.46-.14-.69.44-.67.98-1.25,1.5-1.81.61-.65,1.18-1.26,1.6-1.99.14-.24.44-.32.68-.19.24.14.32.44.18.68-.48.83-1.12,1.52-1.73,2.18-.52.55-1,1.08-1.4,1.68-.1.15-.25.22-.42.22Z"/>
        <path class="cls-2" d="m80.97,39.46h-4.45c-.28,0-.5-.22-.5-.5s.22-.5.5-.5h4.45c.28,0,.5.22.5.5s-.22.5-.5.5Z"/>
        <path class="cls-2" d="m129.75,44.09s-.06,0-.09,0c-.27-.05-.46-.31-.41-.58l.11-.62c.08-.47.17-.94.24-1.41.01-.08,0-.16,0-.24,0-.31,0-.79.45-1.15.22-.17.53-.13.7.09.17.22.13.53-.09.7-.06.04-.07.08-.07.35,0,.13,0,.26-.02.39-.07.48-.16.96-.24,1.45l-.11.62c-.04.24-.25.41-.49.41Z"/>
        <path class="cls-2" d="m70.47,88.94s-.03,0-.04,0c-.28-.02-.48-.26-.46-.54.06-.73.44-1.27.77-1.75.2-.3.4-.57.51-.87.09-.26.38-.39.64-.3.26.1.39.38.29.64-.15.41-.39.76-.62,1.09-.3.43-.56.81-.6,1.27-.02.26-.24.46-.5.46Z"/>
        <path class="cls-2" d="m159.82,119.52c-.39,0-.67-.21-.87-.36-.08-.06-.16-.12-.23-.15-.25-.11-.37-.4-.27-.66s.4-.37.66-.27c.17.07.31.18.43.27.21.15.25.17.32.15.27-.06.54.1.61.36.07.27-.1.54-.36.61-.1.02-.2.04-.28.04Z"/>
        <path class="cls-2" d="m156.69,82.59c-.2,0-.39-.12-.47-.32l-2.09-5.35c-.1-.26.03-.55.28-.65.26-.1.55.03.65.28l2.09,5.35c.1.26-.03.55-.28.65-.06.02-.12.03-.18.03Z"/>
      </g>
    </g>
  </g>
</svg>