<?xml version="1.0" encoding="UTF-8"?><svg id="Layer_1" xmlns="http://www.w3.org/2000/svg" viewBox="0 0 50 50"><defs><style>.cls-1{fill:#fff;stroke-width:0px;}</style></defs><path class="cls-1" d="m15.5,48H1.73c-.04-.42-.03-.78.28-1.14,1.58-1.87,3.12-3.76,4.67-5.65.44-.53.62-1.14.54-1.82-.01-.12-.02-.25-.02-.37,0-6.66,0-13.32.01-19.98,0-.73-.2-1.31-.68-1.87-1.32-1.53-2.58-3.11-3.89-4.65-.32-.37-.39-.73-.31-1.19.09,0,.18-.01.28-.01,4.28,0,8.57,0,12.85,0,.23,0,.33.08.42.28,3.37,7.39,6.74,14.78,10.11,22.17.04.09.08.17.15.3.14-.33.25-.62.37-.9,2.88-7.19,5.76-14.38,8.65-21.58.06-.15.11-.28.33-.28,4.13,0,8.26,0,12.39,0,.06,0,.11,0,.18.01.04.41.06.76-.31,1.1-1.17,1.06-2.29,2.18-3.44,3.27-.25.24-.37.53-.36.87,0,.17.01.34.01.52,0,8.4,0,16.81,0,25.21,0,.18,0,.36-.01.55-.01.34.11.63.36.87,1.17,1.14,2.34,2.29,3.52,3.43.29.28.1.61.17.94h-18.17c-.05-.43-.04-.78.33-1.13,1.14-1.05,2.24-2.15,3.35-3.23.27-.26.41-.55.41-.94,0-6.99,0-13.97,0-20.96,0-.03,0-.06-.02-.17-.07.16-.11.25-.15.34-3.37,8.56-6.74,17.12-10.11,25.69-.1.24-.2.35-.47.32-.26-.03-.52-.02-.78,0-.23.02-.33-.06-.43-.27-1.05-2.31-2.11-4.61-3.16-6.92-2.87-6.27-5.75-12.54-8.62-18.81-.04-.09-.08-.17-.19-.25,0,.11,0,.23,0,.34,0,5.63,0,11.27,0,16.9,0,.43,0,.87.09,1.28.07.31.25.63.45.88,1.55,1.91,3.12,3.81,4.71,5.69.3.36.31.71.28,1.14Z"/></svg>