<?xml version="1.0" encoding="UTF-8"?>
<svg id="Layer_1" data-name="Layer 1" xmlns="http://www.w3.org/2000/svg" viewBox="0 0 210 210">
  <defs>
    <style>
      .cls-1 {
        fill: none;
        stroke: #eae5e1;
        stroke-linecap: round;
        stroke-linejoin: round;
      }

      .cls-2 {
        opacity: .4;
      }
    </style>
  </defs>
  <g class="cls-2">
    <path class="cls-1" d="m163.09,193.74s0,0,0,0m-.36-58.19h0m27.42,35.49c-.02.81-.18,1.55-.47,2.3m-47.54-40.88h0m-51.68-6.4c3.05.38,6.09.78,9.13,1.2,1.52.21,3.04.42,4.56.64,1.52.22,3.04.44,4.56.66,1.52.22,3.04.45,4.56.67,1.52.23,3.04.45,4.55.68,3.04.46,6.07.91,9.11,1.36m-90.26-16.19c4.54,2.64,10.14,2.64,14.68,0m-14.78-3.04c4.85,1.55,10.11,1.14,14.66-1.14m-12.8-25.38c.78,2.71,2.57,5.02,4.99,6.46,2.43,1.43,5.31,1.89,8.06,1.26m-10.53-12.9c2.67-.61,5.48-.15,7.82,1.27,2.34,1.42,4.04,3.7,4.74,6.35m-9.25-11.78c2.87-.53,5.81.39,7.87,2.44,2.07,2.05,3,4.99,2.49,7.86m1.31-18.33c2.84-.24,5.62.9,7.47,3.07,1.85,2.17,2.54,5.1,1.85,7.86m3.87-19.24c2.92-.07,5.64,1.49,7.06,4.05,1.42,2.56,1.31,5.69-.29,8.14m-1.53-14.74c2.82.3,5.28,2.05,6.47,4.63,1.19,2.57.95,5.59-.65,7.93m-.25-14.85c2.99.1,5.64,1.97,6.73,4.76,1.09,2.79.42,5.96-1.71,8.06m.64-14.79c2.7.66,4.87,2.66,5.75,5.3.88,2.64.34,5.54-1.42,7.69m8.53-16.48c1.89,1.7,3.08,4.04,3.33,6.56.25,2.53-.45,5.05-1.97,7.09m11.63-16.04c2.96,4.09,2.96,9.61,0,13.7m4.98-14.35c3.57,3.58,4.21,9.15,1.55,13.45m3.31-13.94c2.97,3.89,3.42,9.15,1.15,13.49m24.96.2c3.43-3.5,5.08-8.38,4.47-13.25m.69,14.02c1.46-4.38,2.24-8.95,2.29-13.57m.19,14.07c.85-4.63,2.61-9.04,5.16-12.99m-1.88,13.83c.65-4.91,3.25-9.34,7.21-12.31m-5.3,12.91c2.36-4.54,5.98-8.31,10.43-10.85m-6.96,12.23c2.26-4.57,6.14-8.15,10.88-10.03m-6.01,13.54c2.83-4.49,8.29-6.57,13.39-5.11m-13.1,5.81c3.96-2.63,8.82-3.56,13.47-2.57m-13.95,3.86c3.83-2.06,8.45-2.02,12.24.1m-12.8.72c3.64-1.45,7.77-.86,10.85,1.56m-14.51,1.98c3.33-.45,6.69.53,9.26,2.7m-10.93-1.28c3.16-.24,6.19,1.28,7.89,3.95m-9.99-2.16c1.57-.38,3.24-.06,4.55.89,1.32.95,2.15,2.42,2.28,4.04m-10.24-2.04c1.58-.77,3.43-.71,4.95.17,1.52.87,2.51,2.45,2.64,4.2m-15.14,2.38c3.78-.79,7.68.62,10.09,3.64m-13.42,1.6c4.03-.69,8.18-.21,11.95,1.39m-13.77,3.2c4.13-.4,8.3-.21,12.38.56m-13.42,3.23c4.05.57,8.04,1.35,12,2.35m-12.89,2.73c3.91,1.45,8.1,1.95,12.24,1.45m-12.61,8.26c3.54,2.49,7.99,3.34,12.2,2.33m-12.2,3.1c1.28,1.95,3.29,3.31,5.57,3.78,2.29.47,4.66,0,6.61-1.28m-12.18,3.96c3.58,2.37,8,3.1,12.16,2.02m30.88-52.56c3-2.63,6.44-6.58,6.51-11.09m-20.13,23.4c4.54-4.1,9.08-8.2,13.63-12.3m-21.44,37.43c.01-2.25.17-4.47.47-6.7.29-2.23.72-4.42,1.3-6.59.57-2.14,1.32-4.32,2.27-6.32.9-1.91,2.18-4.05,3.78-5.51m-7.82,25.6c0-.16,0-.31,0-.47m-.11,3.72c0-1.08.04-2.16.11-3.25m-.59,81.38c.16-26.04.32-52.09.49-78.14m-140.2,11.64c-.07-1.9.66-3.7,1.96-5.07,1.31-1.38,3.06-2.17,4.78-2.77m-6.74,7.84h0m.62,16.34c-.21-5.45-.41-10.9-.62-16.34m.62,16.37s0-.02,0-.03m6.3,6.67c-1.54-.46-3.08-1.16-4.27-2.31-1.19-1.14-1.96-2.65-2.03-4.33m54.66,17.06c-15.77-2.4-33.05-5.78-48.36-10.42m110.71,16.63c-10.44-.57-20.85-1.34-31.25-2.36-2.6-.25-5.2-.53-7.79-.81-2.6-.29-5.19-.59-7.78-.91-5.19-.64-10.36-1.35-15.52-2.13m80.86,3.15c-2.68,1.42-6.12,2.22-9.06,2.65-1.57.23-3.14.37-4.72.44s-3.16.06-4.74-.03m18.53-3.07s-.01,0-.02.01m3.11-1.66c-1.03.55-2.06,1.1-3.1,1.65m13.45-77.69s0,0,0,0m12.32-11.14c-4.1,3.71-8.21,7.43-12.31,11.14m18.36-25.64c.92,2.79.43,5.53-.85,8.05-1.24,2.45-3.2,4.64-5.2,6.45m-4.41-17.02c-.13-.2-.4-.58-.54-.77-.19-.25-.38-.5-.58-.74-.4-.48-.81-.95-1.26-1.39-.9-.9-1.86-1.7-2.88-2.44-2.16-1.56-4.56-2.8-7.01-3.8-2.29-.94-4.62-1.68-7.01-2.3-2.63-.69-5.29-1.21-7.98-1.62-10.01-1.54-20.94-1.58-30.98-.79-2.58.2-5.16.47-7.73.79-2.57.32-5.13.7-7.68,1.13-2.58.44-5.15.93-7.71,1.49-2.5.55-4.98,1.15-7.45,1.82-1.3.35-2.59.72-3.88,1.11-1.26.38-2.51.78-3.75,1.19-2.39.8-4.76,1.66-7.09,2.62-4.72,1.92-9.51,4.28-13.76,7.14m117.89-2.41c-.18-.35-.38-.69-.6-1.02m1.58,5.15c.02-1.46-.33-2.84-.99-4.14m-4.05,12.17c1.2-1.05,2.38-2.26,3.31-3.56.9-1.26,1.71-2.83,1.73-4.47m-18.9,20.17c4.62-4.05,9.24-8.09,13.86-12.14m-23.12,40.12c0-2.53.19-5.03.54-7.53.35-2.5.85-4.96,1.55-7.38.69-2.39,1.58-4.81,2.72-7.03,1.12-2.18,2.59-4.39,4.46-6.03m-9.33,47.51c.02-6.51.04-13.02.07-19.53m-.04,19.66s-.03-.08-.03-.12m-97.79,57.96c0-.06,0-.11,0-.17m109.35,9.01c-1.96,1-3.97,1.83-6.03,2.58-2.51.91-5.07,1.68-7.66,2.35-4.68,1.21-9.51,2.11-14.29,2.77-9.49,1.32-19.51,1.81-29.08,1.55-9.44-.25-19.66-1.28-28.9-3.42-2.5-.58-4.98-1.25-7.42-2.06-2.18-.72-4.31-1.54-6.38-2.54-1.42-.68-2.78-1.43-4.08-2.31-1.07-.73-2.11-1.56-3.01-2.5-.73-.77-1.39-1.64-1.84-2.61-.39-.83-.63-1.72-.66-2.65m118.76-1.47c-.03,2.54-1.64,4.69-3.35,6.27-1.75,1.62-3.96,2.97-6.06,4.04m9.43-12.12c0,.6-.01,1.21-.02,1.81m-20.9-76.03h0m9.54,4.31c-.16,25.99-.33,51.99-.49,77.98m.49-78v.02M24.27,154.23c-.06-1.69.75-3.14,1.96-4.23m-1.09,26.98c-.29-7.58-.57-15.17-.86-22.75m.86,22.79s0-.03,0-.04m4.87,5.52c-1.2-.45-2.38-1.09-3.3-2.02-.92-.94-1.51-2.13-1.57-3.47m115.55,24.54c-18.54-.91-37.71-2.73-56.06-5.62-9.22-1.45-18.56-3.23-27.64-5.39-8.98-2.14-18.33-4.79-26.98-8.05m130.09,15.04c-2.67,1.81-6.31,2.84-9.39,3.4-3.24.58-6.73.79-10.02.62m41.75-19.21c-7.45,5.06-14.89,10.13-22.34,15.19m29.62-24.28c-.96,3.97-4.17,6.98-7.28,9.09m7.73-11.4c-.01.81-.17,1.56-.45,2.31m2.04-107.89c-.53,35.19-1.06,70.39-1.59,105.58m1.09-108.75c.34,1.03.51,2.09.5,3.17m-49.73,45.93c0,.22.18.38.32.49.25.19.58.32.87.43.5.18,1.01.29,1.54.39,1.04.2,2.09.3,3.15.37,2.01.12,4.34.06,6.34-.22m-12.21,18.84c0-6.77,0-13.53,0-20.29m.64,22.23c-.41-.57-.64-1.23-.64-1.94m10.54-47.86c-.37.19-.71.41-1.02.68m10.36,2.32c-1.04-1.42-2.5-2.57-4.17-3.17-1.65-.6-3.54-.66-5.17.17m16.03-16.42c-.13-.19-.27-.36-.42-.53-.21-.23-.44-.45-.68-.66-.69-.59-1.47-1.1-2.26-1.54-1.09-.62-2.22-1.13-3.39-1.58-1.44-.56-2.89-1.02-4.38-1.42-1.93-.52-3.88-.93-5.86-1.27-2.21-.38-4.43-.66-6.66-.86-4.19-.39-8.49-.51-12.69-.44-2.1.03-4.2.12-6.3.25-2.13.13-4.26.31-6.39.53-4.22.44-8.41,1.06-12.58,1.86-2.11.4-4.21.85-6.3,1.35-2.03.48-4.05,1.01-6.05,1.59-2.11.61-4.19,1.27-6.26,1.99-1.94.68-3.85,1.41-5.74,2.21-2.11.89-4.17,1.86-6.18,2.95-1.72.93-3.38,1.93-4.98,3.07m94.21-2.4c.77-.67,1.55-1.46,2.17-2.28.3-.4.61-.87.82-1.34.07-.17.13-.33.17-.5.02-.08.03-.17.03-.25,0-.07-.01-.14-.03-.22-.06-.18-.15-.34-.26-.5m22.97-2.14v.03m-136.19-2.83c2.48-1.59,5.05-2.99,7.69-4.28,2.94-1.43,5.94-2.7,9-3.86,2.82-1.07,5.67-2.04,8.56-2.93,3.05-.94,6.11-1.78,9.21-2.55,2.98-.73,5.97-1.4,8.98-1.99,3.08-.6,6.16-1.14,9.26-1.6,6.14-.92,12.3-1.57,18.5-1.94,11.93-.71,25.24-.42,37.07,1.83,3.27.62,6.49,1.4,9.66,2.43,2.71.88,5.43,1.98,7.94,3.35,2.79,1.52,5.5,3.5,7.47,6.08,1.83,2.4,2.89,5.19,2.84,8.25m-153.01,7.99c5.61-3.6,11.21-7.2,16.82-10.79m-27.36,36.73c-.09-2.41.06-4.87.42-7.26.36-2.39.95-4.78,1.77-7.05.81-2.27,1.89-4.5,3.25-6.49,1.35-1.98,3.05-3.82,5.1-5.13m-10.54,25.94h0m.65,18.01c-.22-6-.43-12-.65-18.01m3.85,21.48c-1.77-.23-3.14-1.68-3.2-3.47m3.19,3.47h0m150.55,61.77s0,0,0,0m-23.01-45.57c-.61-.12-1.22-.25-1.83-.39-.3-.07-.61-.14-.91-.22-.2-.05-.4-.11-.6-.19-.1-.04-.18-.09-.27-.15-1.03-.74-1.64-1.95-1.63-3.22m7.57,3.76c-.71.37-1.53.51-2.32.41m3.33-.93c-.33.17-.67.34-1,.52M63.53,63.21c-5.55,3.63-11.09,7.25-16.64,10.88m17.03-11.11c-.13.07-.27.15-.39.23m8.99,3.8c-.78-1.54-2.04-2.9-3.57-3.72-1.51-.81-3.4-1.14-5.03-.31m9.23,9.5c.59-1.81.2-3.84-.63-5.47m-1.09,7.84c.84-.58,1.41-1.42,1.72-2.37m-18.06,13.63c5.45-3.75,10.9-7.5,16.34-11.25m-14.61,8.83c-.3.97-.87,1.83-1.73,2.42m-7.81-12.24c1.27-.65,2.74-.59,4.03-.15,1.31.45,2.47,1.3,3.39,2.31.92,1.02,1.64,2.25,2.04,3.57.39,1.3.5,2.75.08,4.08m-9.93-9.59c.13-.08.25-.16.39-.22m-11.11,25.86c-.16-4.75.6-9.73,2.28-14.19.84-2.24,1.94-4.43,3.33-6.39,1.38-1.95,3.09-3.73,5.11-5.05m-10.08,44.6c-.21-6.32-.42-12.64-.64-18.97m.98,20.25c-.21-.4-.33-.84-.34-1.28m128.9-46.28c1.51-1.28,3.52-1.54,5.36-1.08,1.84.46,3.48,1.62,4.63,3.11m-24.14,9.98c4.72-4,9.44-8.01,14.16-12.01m-23.69,38.9c0-2.46.18-4.88.54-7.3.36-2.43.88-4.8,1.61-7.14,1.37-4.41,3.69-9.3,7.39-12.44m-114.4,35.56c-.07-.01-.14-.03-.2-.04m11.67,1.64c-.47.1-.94.18-1.42.26-1.34.21-2.72.36-4.05.32-1.37-.04-2.68-.27-4.12-.6-.57-.13-1.16-.27-1.5-.69-.2-.24-.32-.58-.38-.89m13.93-.2c-.54.97-1.47,1.47-2.46,1.8m2.84-3.34c.01.54-.12,1.07-.38,1.54m-.17-20.46c.18,6.31.36,12.61.55,18.92m3.63-32.13c-.17.12-.32.26-.47.41-.27.28-.51.58-.73.89-.34.49-.63,1-.9,1.54-.53,1.07-.93,2.18-1.24,3.33-.32,1.15-.54,2.31-.68,3.49-.14,1.18-.2,2.36-.16,3.55m4.18-13.22s0,0,0,0m108.69,31.29c0-1.57,0-2.37.09-3.94.08-1.32.21-2.62.38-3.93.17-1.3.39-2.6.65-3.89.26-1.29.57-2.57.93-3.83.33-1.19.77-2.6,1.17-3.77.42-1.25.9-2.47,1.45-3.67.55-1.2,1.17-2.35,1.91-3.45.38-.58.8-1.13,1.25-1.65.43-.5.83-.88,1.32-1.33m-9.41,29.47c.06,0,.2.01.27-.02m-112.74-13.6c-5.36,1.34-11.04-.29-14.87-4.27m55.77-48.35c2.31,1.18,4.02,3.27,4.72,5.76.69,2.49.32,5.17-1.05,7.37m-2.08.6c1.27-4.61.7-9.54-1.59-13.73m34.16-5.49c2.87,4.07,2.87,9.5,0,13.57m3.66-.18c1.74-4.79.27-10.16-3.66-13.4m6.58-.25c2.14,1.52,3.5,3.91,3.71,6.53.21,2.62-.75,5.2-2.62,7.04m4.81.07c1.34-2.56,1.45-5.58.31-8.23-1.15-2.65-3.43-4.63-6.21-5.4m9.99,88.1c.33.32.69.63,1.07.88,1.58,1.04,3.63,1.2,5.59,1.23,1.97.03,3.87-.06,5.74-.51m-64.66-9.08c4.37.55,8.72,1.14,13.08,1.76,2.18.31,4.35.62,6.53.95,2.18.32,4.35.65,6.53.98,2.18.33,4.35.66,6.53.99,2.17.33,4.35.66,6.52.98,4.35.65,8.71,1.27,13.07,1.83m-94.22-11.9c3.49.41,6.99.75,10.49,1.09,3.5.34,7,.66,10.5,1.01,1.75.17,3.5.35,5.25.53,1.75.18,3.5.37,5.25.56,3.5.39,6.99.8,10.48,1.24m-33.96-6.54l-6.56,1.49m9.76-2.06c-1.08.12-2.14.31-3.2.58m36.92-10.33c-5.55,1.3-11.45,3.08-16.89,4.76-5.59,1.72-11.17,3.49-16.82,4.99m58-10.79c-2.03-.15-4.06-.27-6.09-.34-2.03-.07-4.07-.08-6.1-.03-3.93.11-8.25.5-12.1,1.4m-.61.07c3.97-.93,8.34-1.35,12.4-1.47,2.09-.06,4.17-.05,6.25.02,2.08.07,4.16.19,6.24.35m-60.92,11.3c6.07-1.48,12.04-3.3,18.01-5.12,5.8-1.76,12.11-3.68,18.02-5.07m-55.95,9.43c4.7,2.06,10.08,1.89,14.65-.45m-.34-11.69c-4.9-.48-9.84-.33-14.71.43m0,0c4.73,1.99,10.09,1.83,14.71-.43m-14.65-12.96c3.71,3.93,9.08,5.82,14.43,5.07m.02-.9c-5.02-.54-9.91-1.95-14.45-4.17m106.44-47.97c2.37,4.32,2.03,9.62-.87,13.61m3.02.24c1.53-2.13,2.16-4.77,1.76-7.36-.4-2.59-1.81-4.92-3.91-6.48m-103.23,37.07c3.64,3.43,7.95,6.08,12.66,7.77m.28-.69c-3.53-3.58-8.03-6.04-12.94-7.09m11.64-11.49c2.89-.43,5.8.61,7.77,2.77,1.97,2.16,2.73,5.15,2.04,7.99m-1.62,1.12c.42-2.65-.2-5.36-1.72-7.57-1.52-2.21-3.84-3.75-6.46-4.3m52.44-22.74c2.47,4.28,2.47,9.56,0,13.85m1.86-.39c2.23-1.71,3.38-4.48,2.99-7.27-.39-2.79-2.24-5.15-4.85-6.19m1.1,59.34c6.13-14.63,6.4-31.06.76-45.88m-42.43,61.2c3.22.31,6.44.62,9.67.95,3.22.33,6.44.67,9.66,1.04m-19.25-1.97s-.05-.01-.07-.01m-2.16-58.27c2.74.21,5.23,1.65,6.79,3.91,1.56,2.26,2.01,5.11,1.23,7.74m-1.41.97c.3-5.11-2.24-9.96-6.61-12.62m106.21,1.06c2.32-4.22,5.66-7.79,9.7-10.41m-23.84,27.61c3.61-6.56,8.41-12.39,14.14-17.2M35.08,120.59c.98-.35,1.54-1.26,1.71-2.21m.31,1.5c-.67.24-1.35.48-2.02.72m106.94-9.86c-2.52-.32-5.04-.59-7.56-.87m-16.81-1.7c4.24.32,7.98.66,12.21,1.11,3.81.41,8.37.96,12.17,1.47m-49.27-1.47c-.22.05-.42.13-.62.22m1.24-.3c-.21,0-.41.03-.61.07"/>
    <path class="cls-1" d="m66.96,123.74s0,0,.01,0m75.26,8.13c0,.22.14.39.29.52.24.21.56.36.85.48.5.2,1.01.34,1.53.45,1.04.23,2.09.35,3.16.42,2.02.13,4.36.08,6.36-.25m-47.24-4.9s.01,0,.02,0m-47.59,30.85h0m-30.06-37.7c-.03-.84-.06-1.68-.09-2.52m.16,2.49c-.03-.79-.06-1.58-.08-2.37m.78,2.12c-.02-.45-.03-.9-.05-1.36m-.2,1.45c-.02-.56-.04-1.12-.06-1.67m124.33.84s.05.02.08.03m-13.49,48.02c.04.07.11.2.21.2m-109.07-48.11c.49.11.99.18,1.48.19.59.01,1.17-.06,1.74-.19"/>
  </g>
</svg>