<svg width="47" height="47" viewBox="0 0 47 47" fill="none" xmlns="http://www.w3.org/2000/svg">
<path d="M29.24 20.7801C29.24 20.7801 29.16 20.7801 29.11 20.7701C28.74 20.7001 28.5 20.3501 28.57 19.9801C29.23 16.4901 28.82 12.6901 27.32 8.36007C26.27 5.31007 23.71 3.40009 19.51 2.51009C16.88 1.96009 14.1 1.71007 11.67 3.61007C8.74002 5.90007 7.03001 8.44008 6.44001 11.3701C6.17001 12.7001 6.44001 14.0501 6.72001 15.4801C6.89001 16.3401 7.07 17.2401 7.12 18.1501C7.14 18.4701 7.13 18.7901 7.12 19.1001V19.5101C7.12 19.8901 6.81001 20.1901 6.44001 20.1901C6.07001 20.1901 5.76002 19.8901 5.76002 19.5101V19.0801C5.76002 18.8001 5.77002 18.5101 5.76002 18.2301C5.71002 17.4101 5.55001 16.6001 5.38001 15.7501C5.08001 14.2501 4.78001 12.7101 5.10001 11.1101C5.76001 7.85007 7.63001 5.06007 10.82 2.55007C13.69 0.300072 16.82 0.570087 19.77 1.19009C24.48 2.18009 27.36 4.38007 28.58 7.92007C30.16 12.4801 30.58 16.5101 29.88 20.2301C29.82 20.5601 29.53 20.7801 29.21 20.7801H29.24Z" fill="#041C25"/>
<path d="M37.3099 45.9999C37.2199 45.9999 37.1399 45.9998 37.0599 45.9798C35.5699 45.7098 29.5699 41.9198 29.5299 36.2298C29.3499 35.1898 29.5299 34.2099 29.7199 33.2599C29.8499 32.5799 29.9799 31.8699 29.9799 31.1399C29.9799 30.9499 30.0599 30.7799 30.1899 30.6499C30.3199 30.5199 30.5099 30.4499 30.6899 30.4599C33.2299 30.5799 35.4699 29.6999 37.3499 27.8199C37.4999 27.6699 37.7099 27.5999 37.9199 27.6299C38.1299 27.6599 38.3099 27.7799 38.4199 27.9599C39.4199 29.6599 43.0199 30.4899 45.2999 29.5599C45.6499 29.4099 46.0399 29.5799 46.1899 29.9299C46.2399 30.0499 46.2499 30.1899 46.2299 30.3099C46.2399 30.3699 46.2399 30.4399 46.2299 30.5099C46.1199 31.4699 45.9899 32.3799 45.8499 33.2799C45.5799 35.0499 45.3299 36.7199 45.3499 38.5899C45.3499 40.3399 44.4099 42.0399 42.6399 43.5199C40.8399 45.0199 38.4399 46.0299 37.3199 46.0299L37.3099 45.9999ZM31.3099 31.8299C31.2599 32.4199 31.1499 32.9799 31.0499 33.5199C30.8699 34.4399 30.7199 35.2398 30.8799 36.0398C30.8799 36.0798 30.8899 36.1198 30.8899 36.1698C30.8899 41.0198 36.2299 44.4499 37.3099 44.6399C37.7399 44.6799 40.0499 43.9498 41.9499 42.2898C42.8799 41.4698 43.9899 40.1699 43.9899 38.5699C43.9699 36.5999 44.2299 34.8799 44.4999 33.0599C44.5899 32.4299 44.6899 31.7899 44.7799 31.1299C42.2999 31.6799 39.2499 30.8899 37.7499 29.3099C35.8799 30.9599 33.7199 31.8099 31.3099 31.8399V31.8299Z" fill="#041C25"/>
<path d="M17.66 39.8002C17.58 39.8002 17.5 39.7902 17.42 39.7602C15.54 39.0702 14.71 37.7202 14.87 35.6402C14.97 34.3202 14.96 33.4802 14.02 32.9102C12.24 31.8202 11.91 30.0102 13.1 27.9502C14.32 25.8402 16.1899 25.0702 18.8299 25.6002C20.9099 26.0102 21.08 27.5202 21.19 28.5202C21.23 28.8902 21.27 29.2302 21.38 29.4802C22.26 31.4702 20.37 32.7402 19.41 33.3302C19.73 35.3902 20.09 37.7302 18.13 39.6202C18 39.7402 17.83 39.8102 17.66 39.8102V39.8002ZM17.31 26.7902C15.94 26.7902 15 27.3702 14.28 28.6302C13.19 30.5202 14.01 31.3202 14.73 31.7502C16.45 32.8002 16.32 34.5002 16.23 35.7502C16.13 37.0702 16.49 37.8202 17.49 38.3202C18.61 36.9702 18.36 35.3602 18.07 33.5202L18.02 33.1702C17.98 32.8902 18.11 32.6202 18.35 32.4802C18.4 32.3902 18.4799 32.3102 18.5799 32.2502C20.0599 31.3402 20.47 30.7602 20.14 30.0202C19.95 29.5802 19.9 29.1102 19.85 28.6602C19.74 27.6102 19.6399 27.1402 18.5799 26.9302C18.1199 26.8402 17.71 26.7902 17.32 26.7902H17.31Z" fill="#041C25"/>
<path d="M21.6801 46.2605C21.4401 46.2605 21.2201 46.2604 21.0401 46.2404C19.2401 46.1004 17.4001 46.1205 15.6201 46.1405C13.1401 46.1705 10.5901 46.2004 8.03009 45.8104C7.63009 45.7504 7.24009 45.7005 6.84009 45.6405C4.93009 45.3805 2.96008 45.1105 0.930085 44.2105C0.740085 44.1305 0.60008 43.9604 0.55008 43.7504C0.50008 43.5504 0.550085 43.3304 0.680085 43.1704C1.03008 42.7304 1.03009 42.2605 1.00009 41.5305V41.2204C0.940092 39.0604 0.970092 36.8604 1.00009 34.7404C1.04009 31.1304 1.09009 27.4105 0.780091 23.7605L0.760102 23.5105C0.680102 22.6805 0.520082 21.1204 2.24008 20.6704C3.13008 20.4404 3.97008 20.0904 4.86008 19.7204C6.38008 19.0904 7.9601 18.4304 9.8201 18.3704C12.3001 18.2904 14.7701 18.3104 17.2901 18.3504C21.6101 18.4104 25.8101 19.0605 30.0801 19.7805C30.2401 19.8105 30.4101 19.8304 30.6001 19.8504C31.7801 19.9904 33.9701 20.2504 34.0001 22.7404C34.0001 23.0104 34.0301 23.2804 34.0501 23.5604C34.1201 24.4404 34.2001 25.4305 33.7201 26.4005C33.5601 26.7405 33.1501 26.8805 32.8101 26.7105C32.4701 26.5405 32.3301 26.1404 32.5001 25.8004C32.8101 25.1604 32.7601 24.4304 32.7001 23.6604C32.6801 23.3604 32.6501 23.0504 32.6501 22.7504C32.6401 21.5804 31.9401 21.3704 30.4501 21.1904C30.2401 21.1704 30.0401 21.1404 29.8701 21.1104C25.6501 20.4004 21.5001 19.7505 17.2801 19.7005C14.7701 19.6705 12.3201 19.6404 9.87009 19.7204C8.26009 19.7704 6.86011 20.3505 5.39011 20.9605C4.50011 21.3305 3.5701 21.7104 2.6001 21.9704C2.1001 22.1004 2.0301 22.3204 2.1301 23.3604L2.1601 23.6405C2.4701 27.3505 2.43011 31.1104 2.39011 34.7504C2.37011 36.8604 2.34011 39.0504 2.39011 41.1904V41.4804C2.42011 42.0104 2.44008 42.6304 2.21008 43.2504C3.82008 43.8504 5.4001 44.0704 7.0701 44.3004C7.4701 44.3604 7.88009 44.4104 8.28009 44.4704C10.7201 44.8404 13.2301 44.8105 15.6501 44.7805C17.4601 44.7605 19.3401 44.7404 21.1901 44.8804C22.1101 44.9504 24.1601 44.7804 26.1401 44.6204C28.3301 44.4404 30.4001 44.2704 31.4501 44.3604C31.8201 44.3904 32.1001 44.7204 32.0701 45.1004C32.0401 45.4704 31.7001 45.7504 31.3301 45.7204C30.4001 45.6404 28.2901 45.8104 26.2501 45.9804C24.5001 46.1204 22.8401 46.2605 21.7301 46.2605H21.6801Z" fill="#041C25"/>
<path d="M37.75 40.0402C37.64 40.0402 37.53 40.0103 37.43 39.9603C36.06 39.2403 35.1 38.2502 34.16 37.2902C33.87 37.0002 33.59 36.7002 33.29 36.4202C33.02 36.1602 33.01 35.7303 33.27 35.4603C33.53 35.1903 33.96 35.1802 34.23 35.4402C34.54 35.7302 34.83 36.0403 35.13 36.3403C35.89 37.1103 36.61 37.8502 37.52 38.4402C38.03 37.7002 38.66 37.0802 39.27 36.4802C40.07 35.6902 40.83 34.9403 41.3 33.9603C41.46 33.6203 41.87 33.4803 42.21 33.6403C42.55 33.8003 42.69 34.2102 42.53 34.5502C41.96 35.7302 41.08 36.6002 40.23 37.4402C39.5 38.1602 38.81 38.8402 38.35 39.6802C38.23 39.9102 37.99 40.0303 37.75 40.0303V40.0402Z" fill="#041C25"/>
</svg>
