<?xml version="1.0" encoding="UTF-8"?>
<svg id="Layer_1" data-name="Layer 1" xmlns="http://www.w3.org/2000/svg" viewBox="0 0 65 65">
  <defs>
    <style>
      .cls-1 {
        fill: #fff;
      }
    </style>
  </defs>
  <path class="cls-1" d="m31.72,22.55c-15.98-.4-26.79-13.45-26.79-13.45,0,0-5.51,10.46,3.89,17.21,0,0-2.6.23-5.5-1.44,0,0-1.13,9.71,9.95,12.79,0,0-.73.81-5.41.43,0,0,2.29,8.58,11.84,8.85,0,0-5.88,6.33-18.69,5.65,0,0,20.32,13.76,41.88-1.22,7.32-5.09,16.02-19.06,14.82-31.85,0,0,3.94-2.53,6.29-6.65,0,0-1.69.7-3.45,1.2-1.46.42-2.96.65-3.57.67,0,0,4.83-3.34,5.36-7.08,0,0-5.27,2.87-8.03,3.07h-.1c-2.39-2.52-5.77-4.1-9.52-4.1-7.23,0-13.09,5.86-13.09,13.09,0,.97.11,1.92.31,2.83h-.19Z"/>
</svg>