<svg width="30" height="8" viewBox="0 0 30 8" fill="none" xmlns="http://www.w3.org/2000/svg">
<path d="M29.0202 4.23047H0.660156C0.390156 4.23047 0.160156 4.01047 0.160156 3.73047C0.160156 3.45047 0.380156 3.23047 0.660156 3.23047H29.0202C29.2902 3.23047 29.5202 3.45047 29.5202 3.73047C29.5202 4.01047 29.3002 4.23047 29.0202 4.23047Z" fill="white"/>
<path d="M25.8699 7.38038C25.7399 7.38038 25.6199 7.33039 25.5199 7.23039C25.3299 7.04039 25.3299 6.72038 25.5199 6.53038L28.3199 3.73039L25.5199 0.930372C25.3299 0.740372 25.3299 0.420391 25.5199 0.230391C25.7099 0.0403906 26.0299 0.0403906 26.2199 0.230391L29.3699 3.38038C29.4599 3.47038 29.5199 3.60039 29.5199 3.73039C29.5199 3.86039 29.4699 3.99037 29.3699 4.08037L26.2199 7.23039C26.1199 7.33039 25.9999 7.38038 25.8699 7.38038Z" fill="white"/>
</svg>
