<?xml version="1.0" encoding="UTF-8"?>
<svg id="Layer_1" data-name="Layer 1" xmlns="http://www.w3.org/2000/svg" viewBox="0 0 210 210">
  <defs>
    <style>
      .cls-1 {
        fill: none;
        stroke: #eae5e1;
        stroke-linecap: round;
        stroke-linejoin: round;
      }

      .cls-2 {
        opacity: .4;
      }
    </style>
  </defs>
  <g class="cls-2">
    <path class="cls-1" d="m184.78,207.05c-.23-.01-.41-.18-.7-.04-.53.26-1.1.13-1.67.04-.67-.1-1.34-.2-2.02-.26-1.79-.16-3.59-.24-5.38-.39-2.37-.2-4.75-.18-7.12-.26-.91-.03-1.82,0-2.72.01-1.64,0-3.29.11-4.93.07-1.25-.03-2.51-.07-3.76-.15-1.95-.13-3.87,0-5.81.23-1.09.13-2.2.11-3.3.09-2.05-.03-4.09-.06-6.14-.05-1.12,0-2.24-.04-3.36-.04-2.12,0-4.25-.06-6.37-.11-1.35-.03-2.7-.1-4.05-.1-1.9,0-3.79.15-5.69.16-1.6.01-3.21-.03-4.81-.16-1.42-.12-2.85-.16-4.28-.25-1.8-.12-3.59.04-5.39.02-1.86-.02-3.71-.16-5.56-.4-.6-.08-1.29,0-1.91-.03-.57-.04-1.17.1-1.74-.11"/>
    <path class="cls-1" d="m56.5,203.52c-.18-1.36.14-2.7.2-4.05.06-1.42,0-2.86.01-4.29,0-.1-.03-.23-.03-.35.05-3.71.05-7.42.18-11.12.04-1-.06-2.01-.01-3.01.06-1.41.19-2.82.15-4.23-.06-2.67.11-5.33,0-8-.09-2.17-.06-4.33-.05-6.49,0-1.37-.04-2.75-.06-4.12-.01-1.07-.04-2.16.08-3.24.1-.86-.05-1.74.05-2.6.18-1.64.14-3.28.25-4.92.03-.5.01-1,.03-1.51.05-1.87.08-3.75.13-5.62.03-1.12.01-2.24.02-3.36.01-2.05.07-4.09.11-6.14"/>
    <path class="cls-1" d="m97.89,205.44c-.72-.03-1.43-.02-2.15.05-.52.05-1.04-.08-1.56-.1-2.05-.06-4.09-.08-6.14-.18-2.1-.1-4.21-.08-6.31-.25-1.88-.16-3.77-.09-5.64-.35-.26-.04-.55.1-.84.08-1.97-.1-3.94-.2-5.9-.28-1.7-.07-3.4-.05-5.1-.16-1.23-.08-2.47-.21-3.7-.35-.85-.1-1.67.12-2.5.07-.49-.03-1.02.05-1.44-.32"/>
    <path class="cls-1" d="m184.94,14.81c.29,0,.57.17.68.47.15.45.2.91.09,1.39-.18.85-.47,1.7-.21,2.61.09.32-.02.69,0,1.04.04,1.03.16,2.06.16,3.08,0,1.73.2,3.44.21,5.16.02,1.76.1,3.52.02,5.28-.07,1.5-.09,3.01-.17,4.52-.06,1.11.06,2.24-.02,3.36-.08,1.2-.16,2.39-.21,3.59-.03.64.05,1.28.1,1.91.04.5.03.96-.04,1.45-.06.41.01.86.08,1.27.13.8.05,1.59.03,2.38-.02.95.04,1.91-.1,2.83-.28,1.87-.11,3.75-.21,5.62-.08,1.52-.19,3.04-.19,4.57,0,2.16-.04,4.33-.19,6.48-.1,1.41,0,2.82-.08,4.23-.1,1.85-.18,3.71-.15,5.56.03,1.7.08,3.41.03,5.1-.03,1.08-.02,2.16-.08,3.24-.06,1.11-.03,2.24,0,3.36.02.77,0,1.55-.02,2.32,0,.52-.03,1.04,0,1.57.07.96.06,1.93.11,2.9.07,1.4-.18,2.78-.16,4.17.01,1.08.03,2.17-.07,3.24-.12,1.24-.04,2.47-.1,3.71-.05.96-.03,1.94-.08,2.89-.14,2.35-.18,4.71-.39,7.06-.05.52-.16,1.03-.18,1.56"/>
    <path class="cls-1" d="m110.18,14.39c1.7-.11,73.06.37,74.76.42"/>
    <path class="cls-1" d="m58.93,14.93c-.11,2.15-.1,4.29.11,6.44,0,0-.01,17.89-.06,18.72-.1,1.95.02,3.9-.06,5.85-.08,1.9.07,3.79.09,5.68.02,1.34.1,2.68.27,4,.2,1.61.15,3.23.12,4.82-.04,1.93,0,3.86-.06,5.79-.01.43.04.85.04,1.28-.02,1.49-.08,2.97-.1,4.46-.01.86-.12,1.74-.08,2.6.07,1.59.15,3.17.07,4.76-.04.74,0,1.47.01,2.2.03,2.49.08,4.99.13,7.48l.13,3.6c-.01.37-.09.74-.07,1.1.08,1.8.02,3.59.02,5.39,0,1.57-.04,3.13-.09,4.69-.05,1.85-.1,3.71-.16,5.56-.01.41-.04.83,0,1.21.11,1.38,0,2.75-.03,4.12-.01.66-.03,1.31,0,1.97.02.77,0,1.55-.02,2.32,0,.62-.21,1.22-.11,1.86.09.6.06,1.25,0,1.85-.11,1.08-.14,2.17-.14,3.24,0,1.29.03,2.59.05,3.89.03,2.2-.08,4.4-.03,6.61,0,.43-.08.84-.06,1.28.04.96-.03,1.93.03,2.9.06.9-.05,1.81-.1,2.72-.09,1.66.11,3.32.05,4.99-.03.73-.07,1.47-.03,2.2.11,2.36-.16,4.71-.08,7.07.03.97-.09,1.94-.04,2.89.08,1.68.03,3.37.15,5.05.14,1.96.09,3.94.15,5.91.04,1.2-.1,2.4-.03,3.59.07,1.13-.02,2.24,0,3.36.02,1.37.03,2.74.06,4.12.05,2.2.1,4.41.16,6.61.03.99-.06,1.97-.02,2.95.09,2.15.06,4.29.03,6.44-.01,1.45-.02,2.49.01,3.94"/>
    <path class="cls-1" d="m155.64,13.17c-1.39-.02-78.04-.42-79.44-.33-3.05.18-6.09.72-9.17.4-1.39-.14-2.79-.03-4.17.03-1.76.07-4.25.12-6.01.21"/>
    <path class="cls-1" d="m184.44,206.87c-.17-.46-.03-.93-.03-1.39,0-.93.15-1.85.2-2.78.08-1.37.06-2.74.18-4.11.13-1.54,0-3.09.1-4.63.06-1.03.08-2.09-.02-3.13-.1-1.03.07-2.05-.05-3.08-.03-.28.14-.56.13-.86-.05-1.14-.04-2.28-.04-3.42,0-.57-.21-1.15-.17-1.74.12-1.45.25-2.89.41-4.34,0-.08.02-.16,0-.23-.24-.91,0-1.82-.04-2.73-.03-.64.07-1.27.12-1.91.06-.91.18-1.82.06-2.72-.11-.87.14-1.7.2-2.55.02-.29.07-.58.08-.87.03-1.31.17-2.62.06-3.94-.1-1.16-.28-2.32-.25-3.48.02-1.11-.07-2.21-.12-3.3-.05-1.1-.17-2.21-.2-3.31-.04-1.29-.02-2.59.11-3.88.15-1.41.14-2.82.1-4.23-.02-.73.03-1.47.06-2.2"/>
    <path class="cls-1" d="m57.69,42.6c-.22-1.19-.11-2.4-.11-3.6,0-1.18-.05-2.36-.09-3.54-.03-1.1-.15-2.2-.16-3.31-.01-.95-.11-1.9-.21-2.84-.02-.2-.03-.39-.02-.58.03-1.45-.03-2.9.03-4.35.05-1.21-.35-9.7-.28-10.9"/>
    <path class="cls-1" d="m169.93,201.25c.26-.36.57-.2.87-.09.39.15.79.21,1.1-.15.24-.28.48,0,.7-.04.47-.1.93-.01,1.46.06-.09-1.12.64-2.18.18-3.47-1.01.98-1.33,2.23-2.04,3.23"/>
    <path class="cls-1" d="m57.68,42.95c.2,1.16.04,2.33.13,3.48.12,1.58.07,3.14.04,4.7-.02,1.47-.11,2.93-.17,4.4-.03.87-.13,1.75-.09,2.6.03.63.01,1.28.11,1.92.1.66,0,1.35-.1,2.02-.1.67-.06,1.34.05,1.97.28,1.58-.04,3.14-.04,4.7,0,.91,0,1.82.05,2.72.07,1.22.03,2.44.05,3.65.02,1.7.02,3.4.04,5.1.01.95-.05,1.89-.07,2.84"/>
    <path class="cls-1" d="m187.89,27.52c-.15-.7-.05-1.4.03-2.08.09-.78,0-1.55.06-2.32.04-.46.16-.92.14-1.39-.06-1.59-.09-3.17-.17-4.76-.04-.7-.02-1.4-.16-2.09-.03-.17-.03-.35-.1-.53-.32-.84-.31-.78-1.21-.75-.38.01-30.46-.15-30.84-.43"/>
    <path class="cls-1" d="m187.59,28.03c.22.63.05,1.28.05,1.91,0,1.58-.28,3.15-.21,4.75.04.87-.22,1.77-.27,2.66-.07,1.27-.29,2.54-.24,3.82.02.48-.11.96-.13,1.44-.02.55-.09,1.13-.1,1.68-.01.77-.05,1.54-.03,2.32"/>
    <path class="cls-1" d="m166.7,196.61c.26.18.28.19.16.55-.18.56-.39,1.11-.56,1.67-.22.71-.51,1.42-.41,2.19"/>
    <path class="cls-1" d="m166.58,196.75c-.3.32-.36.76-.48,1.15-.29.93-.7,1.8-1.08,2.69-.15.35-.16.63.33.64.15,0,.19.12.28.19-.08.55-.16,1.09,0,1.7,1.25-.9,1.26-2.48,2.23-3.47.58.37.26.92.32,1.37"/>
    <path class="cls-1" d="m59.25,202.44c1.07.21,2.14.4,3.23.45.45.02.9-.11,1.33-.02,1.47.3,2.98.1,4.46.32.51.07,1.08.13,1.61.06.57-.07,1.13.43,1.68,0,0,0,34.11.02,34.31-.04.72-.2,6.04.33,7.99.46,1.52.1,3.05.09,4.57.14,1.74.05,3.47.14,5.21.18,1.55.04,3.09.11,4.63.19,2.74.13,5.48.24,8.22.42,1.1.08,2.2,0,3.3.04,2.12.08,4.25.06,6.37.1.71.01,1.44,0,2.14-.06,1.91-.15,3.83-.19,5.74-.15,1.46.03,2.91-.05,4.35-.22,2.24-.27,4.45-.04,6.67.11,1.89.13,3.78.3,5.67.51.99.11,1.97.05,2.95.07,2.59.05,5.17.31,7.76.39.89.03.94-.22,1.07-1.01.05-.32-.11-.62-.09-.93.1-1.66.25-3.31.34-4.97.05-.87.07-1.73.06-2.61-.02-1.33-.02-2.67,0-4,0-.44-.25-.84-.15-1.28.17-.75.14-1.5.13-2.26,0-.93.08-1.85.12-2.78.03-.62.1-1.24.1-1.85,0-1.16-.05-2.32,0-3.48.02-.42.1-.84.11-1.27.07-2.72-.04-5.45.02-8.17.03-1.27,0-2.55.1-3.82.04-.5.02-1,.05-1.51.08-1.25.07-2.51.17-3.76.05-.61-.05-1.24.02-1.85.13-1.1.09-2.2.13-3.3.05-1.68.08-3.36.02-5.04-.03-.91.11-1.81.05-2.73-.05-.75-.14-1.51-.05-2.26.07-.64.22-1.27.15-1.91-.15-1.38.04-2.75,0-4.12-.05-1.53.07-3.05.19-4.57.06-.85.14-1.71.06-2.55-.08-.88-.03-1.74.02-2.61.03-.46.03-.92-.02-1.4-.06-.48-.23-.93-.27-1.4-.14-1.35-.08-2.7-.02-4.06,0-.18.05-.37-.1-.52"/>
    <path class="cls-1" d="m185.33,142.04c-.25-.9,1.47-78.75,1.48-79.66,0-1.08.06-2.16.08-3.24.03-1.14-.16-2.28-.1-3.42.03-.55-.02-1.15-.1-1.67-.13-.85.06-1.67-.05-2.5-.13-1.02.11-2.05.03-3.07-.04-.58-.01-1.16-.02-1.74"/>
    <path class="cls-1" d="m180.48,201.19c-1.04,0-2.09-.02-3.13-.03-.16,0-.29.01-.21.23"/>
    <path class="cls-1" d="m164.9,201.11c-.33.22-.63.43-1.06.16-.25-.16-.58,0-.86.04-.52.08-1.06-.02-1.57.17"/>
    <path class="cls-1" d="m91.18,14.15c-1.58.11-3.17-.01-4.75-.02-1.26,0-2.51-.07-3.76-.1-.37,0-.73-.15-1.1-.04-.12.04-.21-.04-.23-.18"/>
    <path class="cls-1" d="m176.6,201.2c-.37.49-.93.49-1.46.53-.42.03-.3-.36-.39-.58"/>
    <path class="cls-1" d="m109.95,14.44c-1.76.1-3.52.06-5.28.08-1.14,0-2.28-.15-3.41-.18-1.37-.03-2.74-.17-4.11-.18-1.17,0-2.36.03-3.53-.06"/>
    <path class="cls-1" d="m177.06,201.22c-.62-.17-1.25-.35-1.9-.28-.35.04-.7.21-1.04-.03"/>
    <path class="cls-1" d="m80.98,13.98c-1.24-.03-2.47-.07-3.71-.1"/>
    <path class="cls-1" d="m93.27,14.03c-.68.24-1.35.09-2.03,0"/>
    <path class="cls-1" d="m174,201.07c-.05.47-.26.87-.5,1.26"/>
    <path class="cls-1" d="m169.81,201.39c-.14,0-.28.05-.4.01-.73-.24-1.49-.32-2.25-.35"/>
    <path class="cls-1" d="m57.66,83.29l-.03,1.1.2,7.48c-.01.37-.06.74-.02,1.1.12,1.1.09,2.21.13,3.31.04,1.01.04,2.02.15,3.02l-.14,5.1c-.1.18-.07.38-.07.58.02,1.58.09,3.17.04,4.75-.07,2.36-.14,4.71-.2,7.07-.04,1.64.13,3.28.03,4.93-.02.27-.08.54-.07.81,0,1.43.11,2.86.03,4.29-.07,1.14-.08,2.28-.13,3.42"/>
    <path class="cls-1" d="m166.81,201.22c-.41,0-.84-.34-1.22.08"/>
    <path class="cls-1" d="m77.05,13.81c-.37.16-17.73,1.07-18.12,1.12"/>
    <g id="zjU742">
      <g>
        <path class="cls-1" d="m133.13,28.81c-.49-.3-1.05-.34-1.6-.35-2.39-.06-4.76-.45-7.14.39-1.21.43-2.61.26-3.9.51-2.78.54-5.53,1.27-8.29,1.9-3.19.73-6.24,1.81-9.15,3.26-3.2,1.59-6.2,3.53-9.18,5.5-1.51,1-3.1,1.92-4.42,3.15-2.42,2.25-4.69,4.71-5.59,8-.59,2.13-1.11,4.33-.82,6.57.32,2.53,1.52,4.64,3.65,6.03,2.33,1.51,4.73,2.91,7.36,3.88,1.73.63,3.49,1.15,5.26,1.67"/>
        <path class="cls-1" d="m138.91,26.01c-2.76-.13-5.51-.36-8.28-.32-2.64.04-5.28-.17-7.92,0-2.16.14-4.33.24-6.5.36"/>
        <path class="cls-1" d="m129.03,44.83c-.38.63-.41,1.37-.5,2.05-.19,1.47-1.05,2.59-1.67,3.85-.65,1.3-1.52,2.47-2.09,3.81-.43,1.01-1.1,1.87-1.72,2.74-1.81,2.49-3.92,4.72-6.1,6.88-1.67,1.66-3.72,2.63-5.89,3.35-2.43.81-4.97,1.25-7.48,1.76-1,.2-2.08.17-3.1.28-3.03.32-6.06-.12-9.1.4-1.87.32-3.71.57-5.51,1.21-2.21.78-4.25,1.9-6.3,2.98-1.73.92-2.64,2.66-3.65,4.26-.3.47-.54.99-.91,1.41-1.03,1.16-1.56,2.57-2.04,4.01"/>
        <path class="cls-1" d="m153.42,172.47c-1.34.09-2.67.2-4.01-.07-.69-.13-1.42-.03-2.13-.02-2.36.01-4.69-.27-7.03-.52-1.71-.19-3.44-.37-5.16-.34-3.62.05-7.24-.36-10.86-.17-2.61.13-5.23.26-7.83.11-4.18-.23-8.37-.27-12.55-.37-1.86-.04-3.73-.4-5.61-.31-1.63.08-3.25.47-4.9.34-1.22-.09-2.43-.23-3.65-.35"/>
        <path class="cls-1" d="m121.66,203.53c-.09-1.34-.2-2.67.07-4.01.13-.69.03-1.42.02-2.13-.01-2.36.27-4.69.52-7.03.19-1.71.37-3.44.34-5.16-.05-3.62.36-9.8.17-13.42"/>
        <path class="cls-1" d="m106.59,200.9c0-.81.02-1.61.06-2.42.23-4.18.27-8.37.37-12.55.04-1.86.4-3.73.31-5.61-.08-1.63-.47-3.25-.34-4.9.09-1.22.23-2.43.35-3.65"/>
        <path class="cls-1" d="m113.69,203.64c-.09-1.34-.2-2.67.07-4.01.13-.69.03-1.42.02-2.13-.01-2.36.27-4.69.52-7.03.19-1.71.37-3.44.34-5.16-.05-3.62.36-7.24.17-10.86-.09-1.81-.18-3.61-.18-5.42"/>
        <path class="cls-1" d="m86.45,172.73c-.23,4.18-.27,12.46-.37,16.65-.04,1.86-.4,3.73-.31,5.61.08,1.63.47,3.25.34,4.9-.09,1.22-.23,2.43-.35,3.65"/>
        <path class="cls-1" d="m72.16,203.53c-.09-1.34-.2-2.67.07-4.01.13-.69.03-1.42.02-2.13-.01-2.36.27-4.69.52-7.03.19-1.71.37-3.44.34-5.16-.03-2.01.08-5.05.16-7.05"/>
        <path class="cls-1" d="m98.86,171.26c.09,1.34.2,2.67-.07,4.01-.13.69-.03,1.42-.02,2.13.01,2.36-.27,4.69-.52,7.03-.19,1.71-.37,3.44-.34,5.16.05,3.62-.36,7.24-.17,10.86.05,1.03.1,2.05.14,3.08"/>
        <path class="cls-1" d="m133.23,203.53c-.09-1.34-.2-2.67.07-4.01.13-.69.03-1.42.02-2.13-.01-2.36.27-4.69.52-7.03.19-1.71.37-3.44.34-5.16-.05-3.62.36-7.24.17-10.86"/>
        <path class="cls-1" d="m153.29,203.65c.04-4.07.4-8.15.31-12.25-.08-3.57-.47-7.1-.34-10.69.09-2.66.23-5.32.35-7.97"/>
        <path class="cls-1" d="m145.95,203.53c-.09-1.34-.2-2.67.07-4.01.13-.69.03-1.42.02-2.13-.01-2.36.27-4.69.52-7.03.19-1.71.37-3.44.34-5.16-.05-3.62.36-10.35.17-13.96"/>
        <path class="cls-1" d="m160.96,179.92c-.05,2.09-.09,7.37-.14,9.45-.04,1.86-.4,3.73-.31,5.61.08,1.63.47,3.25.34,4.9-.09,1.22-.23,2.43-.35,3.65"/>
        <path class="cls-1" d="m123.69,125.47c-.21,3.15-1.1,6.12-2.39,8.99-1.16,2.57-2.45,5.07-3.94,7.46-1.52,2.44-2.93,4.94-4.7,7.22-2.39,3.08-4.67,6.24-7.55,8.92-3.5,3.26-6.72,6.84-10.81,9.38-2.26,1.41-4.49,2.89-6.7,4.37-3.23,2.17-6.87,3.21-10.37,4.65-.83.34-17.34,5.7-18.17,6.03"/>
        <path class="cls-1" d="m125.65,126.09c-.44.48-.14,1.04-.06,1.51.44,2.56,1.67,4.79,2.88,7.05.62,1.16,1.1,2.42,1.63,3.63.94,2.13,2.2,4.07,3.4,6.04,2.74,4.49,5.59,8.91,8.3,13.43,1.69,2.83,3.87,5.34,6.01,7.86,1.51,1.78,2.94,3.64,4.47,5.42,1.13,1.32,2.39,2.54,3.54,3.84,2.21,2.48,4.77,4.6,7.12,6.94,7.14,7.14,19.57,13.84,19.91,14.05"/>
        <path class="cls-1" d="m69.22,90.94c-1.31,2.78-2.13,5.69-2.71,8.71-.44,2.31-1.01,4.62-1.25,6.96-.2,1.93-.25,3.89.06,5.88.25,1.65.34,3.37.42,5.06.14,2.89.58,5.72,1.14,8.55.34,1.73.76,3.43,1.1,5.16.39,1.96,1.45,3.67,2.13,5.52.93,2.51,2.37,4.76,3.75,7.02.92,1.51,1.98,2.93,3.02,4.37.52.72.98,1.48,1.55,2.18.36.43.66.52,1.11.5,2.52-.1,5.04-.34,7.56-.39.85-.02,1.71-.26,2.67-.34.06-.92.14-1.96.18-3.01.08-2.15.21-4.28.51-6.41.2-1.45.31-2.91.56-4.36.19-1.1.35-2.2.54-3.29.38-2.23.72-4.46,1.17-6.67.71-3.55,1.51-7.09,3.03-10.41.47-1.03.83-2.17,1.95-2.76"/>
        <path class="cls-1" d="m131.08,40.56c1.06,1.78,1.96,3.65,2.85,5.52.73,1.51,1.65,2.91,2.47,4.37,1.8,3.19,3.86,6.21,5.89,9.25.1.16.22.31.36.44,1.6,1.64,2.86,3.6,4.64,5.06,1.72,1.42,3.49,2.78,5.41,3.95,1.8,1.09,3.75,1.77,5.7,2.5,1.04.39,1.99.99,3.12,1.16.21.03.44.09.62.06,2.81-.56,5.6-1.17,7.74-3.28.16-.16.36-.33.44-.54.54-1.35,1.52-2.44,2.15-3.73.64-1.3.89-2.7,1.15-4.1.22-1.18.22-2.37.16-3.56-.2-4.44-1.44-8.48-4.52-11.85-2.22-2.44-4.72-4.51-7.47-6.33-1.72-1.14-3.53-2.07-5.36-3"/>
        <path class="cls-1" d="m125.56,79.72c-.92,2.58-1.74,5.2-2.79,7.73-.83,2-1.67,4-2.57,5.97-1.56,3.4-3.01,6.85-4.76,10.17-1.12,2.12-2.49,4.09-3.61,6.2-1.28,2.42-2.72,4.75-4.1,7.11-1.31,2.24-2.67,4.47-4.42,6.43-.24.27-2.02,2.55-2.23,2.84"/>
        <path class="cls-1" d="m133.13,46.97c.8,2.2,1.59,4.39,2.41,6.59,1.12,3.03,2.04,6.11,2.75,9.26.73,3.2,1.16,6.44,1.54,9.7.22,1.9.22,3.81.21,5.7-.03,3.24.03,6.49-.56,9.71-.15.84-.12,1.72-.17,2.58-.28,4.88-1.82,9.36-4.13,13.61-2.94,5.41-6.95,9.88-11.73,13.73-2.61,2.1-5.27,4.14-8.04,6.01-3.08,2.08-6.4,3.76-9.88,5.07-1.58.59-3.21,1.09-4.98.94-.82-.07-1.66.14-2.49.24-.39.05-.48.38-.53.71"/>
        <path class="cls-1" d="m85.87,75.36c1.06.65,1.15,1.86,1.58,2.86,1.04,2.41,1.84,4.9,2.44,7.46.3,1.3.77,2.55,1.14,3.83.61,2.1,1.2,4.21,1.78,6.32.93,3.38,1.9,6.75,2.74,10.15.51,2.09,1.16,4.15,1.37,6.31.03.31.23.59.34.89"/>
        <path class="cls-1" d="m110.16,90.76c.41-.14.7-.06,1.09.24,1.31,1.01,2.84,1.33,4.52,1.31,1.32-.02,2.43-.35,3.18-1.39.82-1.14,1.39-2.41,1.29-3.9-.03-.42-.2-.84-.41-1.03-.41-.38-.63-.87-.82-1.3-.89-1.98-2.65-2.74-4.49-3.46-1.54-.6-2.91.03-4.17.74-1.39.79-2.37,3.5-1.85,5.03.36,1.07,1.1,1.98,1.83,2.86.19.23.54.34.54.71"/>
        <path class="cls-1" d="m105,90.49c.18-1.22-.1-2.39-.37-3.56-.2-.84-.63-1.61-.71-2.49-.03-.3-.2-.55-.52-.73-.88-.49-1.7-1.08-2.68-1.42-1.68-.58-3.39.04-4.18,1.61-1.44,2.85-1.15,5.64.36,8.36.23.41.58.75.79,1.17.5.98,1.41,1.05,2.32,1.15,3.12.37,4.13-1.72,4.98-3.83.02-.04-.05-.12-.08-.18"/>
        <path class="cls-1" d="m130.72,41.45c-.24.33-.18.7-.18,1.07.02,3.07-.25,6.12-.53,9.17-.37,3.94-.68,7.9-1.08,11.84-.25,2.44-.41,4.89-.88,7.3-.5,2.61-1.08,5.2-2.13,7.66-.13.31-.18.65-.27.98"/>
        <path class="cls-1" d="m82.39,88.09c0,.64-.4,1.15-.65,1.68-1.36,2.88-2.18,5.94-2.99,9-.56,2.1-1.13,4.2-1.59,6.32-.39,1.82-.6,3.68-.91,5.51-.39,2.36-.36,4.74-.45,7.12-.17,4.76-.12,9.51.47,14.24.37,2.95.84,5.88,1.34,8.81.18,1.03.57,2.02.87,3.03"/>
        <path class="cls-1" d="m68.11,154.66c.56,2.78,1.4,5.48,2.23,8.19"/>
        <path class="cls-1" d="m138.11,104.29c.98,2.1,1.33,4.4,2.05,6.59,1.19,3.6,2.08,7.28,3.04,10.94.38,1.46.92,2.88,1.25,4.36.4,1.79.93,3.55,1.41,5.34-.44.17-.81.13-1.15,0-2.31-.86-4.76-1.18-7.14-1.81-2.39-.64-4.69-1.48-7.02-2.26-1.58-.53-3.15-1.11-4.8-1.46-1.21-.26-2.33-.85-3.48-1.29-1.63-.63-3.29-1.15-4.8-2.06"/>
        <path class="cls-1" d="m162.68,92.54c-2.11,1.22-4.18,2.51-6.33,3.62-1.41.73-2.98,1.15-4.43,1.82-2.34,1.07-4.67,2.16-6.96,3.34-2.16,1.12-4.44,2.04-6.66,3.05"/>
        <path class="cls-1" d="m87.2,102.51c-.4.85-.37,1.78-.42,2.67-.08,1.36-.35,2.69-.65,4-.53,2.26-.66,4.58-1.06,6.86-.8,4.63-.78,9.3-.81,13.97-.01,1.81-.08,3.62-.18,5.43-.14,2.55-.56,5.09-.53,7.65"/>
        <path class="cls-1" d="m118,86.84c.24-.72-.02-1.22-.51-1.8-1.05-1.27-2.33-2-3.94-2.2-1.55-.19-2.57.69-3.36,1.8-.65.91-.22,1.86.32,2.75.36.59.77,1.15,1.1,1.76.57,1.05,1.68,1.33,2.74,1.51,1.81.3,2.96-.36,3.53-2.04.18-.51.08-1.12.11-1.68"/>
        <path class="cls-1" d="m86.67,75.54c1.36-.09,2.73-.17,4.09-.27,1.19-.08,2.38-.28,3.56-.24,2.17.06,4.33-.24,6.5-.13,1.27.06,2.55-.1,3.83-.15.31-.01.59.02.9.16.93.4,1.95.33,2.93.46,2.87.38,5.66,1.12,8.46,1.86,2.69.71,5.41,1.32,8.09,2.07,3.23.89,6.52,1.65,9.69,2.72,3.27,1.1,6.62,1.99,9.82,3.31,1.8.74,3.7,1.22,5.53,1.93,1.83.71,3.61,1.51,5.41,2.28,2.24.95,4.4,2.07,6.68,2.93"/>
        <path class="cls-1" d="m103.13,90.94c-.18-.35.09-.61.19-.89.24-.67.25-1.28,0-1.97-.53-1.51-1.25-2.79-2.86-3.39-1.28-.47-3.11.1-3.4,1.88-.25,1.5-.27,2.91.71,4.2.24.32.13.81.45,1.15,1.6,1.71,3.7,1.33,4.9-.9"/>
        <path class="cls-1" d="m115.42,107.22c2.47.76,4.98,1.3,7.52,1.64.22-.82-.43-1.12-.77-1.25-1.75-.68-3.29-1.82-5.15-2.27-.53-.13-1.08-.21-1.41.29-.3.46-.72.97-.29,1.59"/>
        <path class="cls-1" d="m102.51,89.96c.03-.27-.01-.57.1-.79.39-.77.07-1.38-.37-1.96-.6-.79-1.35-1.43-2.32-1.67-.81-.2-1.91.64-1.93,1.49-.03,1.28-.06,2.52.63,3.77.56.99,1.31,1.32,2.19,1.26.93-.06,1.48-.81,1.7-1.74.02-.09.06-.18.09-.27"/>
        <path class="cls-1" d="m111.23,86.31c.56,1.72,2.45,2.93,4.27,2.85.5-.02.89-.1,1-.71.03-.19.15-.43.25-.62.34-.62.58-1.29.4-1.96-.12-.45-.52-.81-.95-1.08-1.59-.98-3.45-.96-4.45.1-.34.36-.37.88-.54,1.33"/>
        <path class="cls-1" d="m178.8,161.25v3.74"/>
        <path class="cls-1" d="m178.8,55.6v3.65"/>
        <path class="cls-1" d="m70.25,61.83c-.71,2.31-1.42,4.63-2.13,6.94-.02.08,0,.18,0,.27"/>
        <path class="cls-1" d="m154.67,35.4c-1.88-.97-3.79-1.88-5.79-2.57-2.18-.75-4.4-1.38-6.67-1.78-.77-.14-1.49-.55-2.31-.46"/>
        <path class="cls-1" d="m127.7,71.44c-1.98.95-4.1,1.45-6.23,1.75-2.87.4-5.74.83-8.63,1.12-1.61.16-3.21.11-4.81.15-.83.02-1.67-.04-2.49.18"/>
        <path class="cls-1" d="m97.26,113.9c.39,1.89.9,3.76,1.07,5.7.03.39.32.39.62.45,1.93.4,3.9.63,5.79,1.24"/>
        <path class="cls-1" d="m130.19,38.96c.52.63.36,1.46.6,2.11.37,1.02.68,2.07,1.17,3.06.36.73.73,1.47.82,2.31"/>
        <path class="cls-1" d="m82.04,37.53c-1.54-.12-3.09-.24-4.63-.36"/>
        <path class="cls-1" d="m159.36,115.98c1.49.47,3.03.13,4.54.36"/>
        <path class="cls-1" d="m101.09,126.18c-.83,1.45-2.2,2.45-3.12,3.83"/>
        <path class="cls-1" d="m80.97,38.96h-4.45"/>
        <path class="cls-1" d="m130.37,40.47c-.37.29-.22.7-.27,1.07-.1.69-.23,1.37-.35,2.05"/>
        <path class="cls-1" d="m71.71,85.95c-.32.88-1.16,1.49-1.25,2.49"/>
        <path class="cls-1" d="m159.98,119c-.47.12-.71-.3-1.07-.45"/>
        <path class="cls-1" d="m154.6,76.73c.7,1.78,1.39,3.57,2.09,5.35"/>
      </g>
    </g>
  </g>
</svg>