<?xml version="1.0" encoding="UTF-8"?>
<svg id="Layer_1" data-name="Layer 1" xmlns="http://www.w3.org/2000/svg" viewBox="0 0 210 210">
  <defs>
    <style>
      .cls-1 {
        opacity: .4;
      }

      .cls-2 {
        fill: #eae5e1;
        stroke-width: 0px;
      }
    </style>
  </defs>
  <g class="cls-1">
    <path class="cls-2" d="m113.6,209.23c-1.65,0-3.3-.02-4.95-.07-10.52-.28-20.55-1.47-29-3.43-2.71-.63-5.15-1.31-7.46-2.08-2.42-.8-4.53-1.64-6.44-2.56-1.57-.75-2.92-1.52-4.14-2.35-1.22-.83-2.26-1.69-3.09-2.57-.85-.89-1.5-1.81-1.93-2.74-.41-.87-.64-1.75-.7-2.63-9.72-2.35-18.48-4.98-26.06-7.83t0,0c-1.45-.54-2.62-1.26-3.48-2.13-1.06-1.08-1.65-2.39-1.71-3.8,0-.01,0-.02,0-.03,0,0,0,0,0-.01l-.86-22.75s0,0,0,0c-.06-1.55.54-3.01,1.73-4.25-1.26-1.26-1.99-2.87-2.06-4.55,0,0,0,0,0-.01,0,0,0-.02,0-.02l-.62-16.34s0-.03,0-.04c-.07-1.99.68-3.9,2.1-5.4,1.47-1.55,3.43-2.36,4.98-2.9.26-.09.55.05.64.31s-.05.55-.31.64c-1.44.5-3.27,1.25-4.58,2.64-1.24,1.31-1.88,2.98-1.82,4.7,0,.02,0,.03,0,.04l.62,16.3v.03s0,0,0,0c.01.06.02.11,0,.17.1,1.41.76,2.76,1.86,3.82,1,.96,2.33,1.67,4.07,2.19,0,0,0,0,0,0,13.46,4.08,29.71,7.58,48.29,10.4t0,0c5.02.76,10.24,1.48,15.51,2.13,2.59.32,5.18.62,7.78.91,2.59.29,5.19.56,7.79.81,10.07.99,20.58,1.78,31.23,2.36,0,0,0,0,0,0,1.52.09,3.06.1,4.69.03,1.58-.07,3.15-.22,4.67-.44,2.5-.36,6.08-1.1,8.89-2.59,0,0,.02,0,.02-.01l3.1-1.65c.12-.07.26-.07.39-.03l.17-27.16-.92.48h0c-.81.42-1.7.58-2.61.47,0,0-.02,0-.03,0,0,0-.01,0-.02,0-.61-.12-1.23-.25-1.84-.39-.31-.07-.62-.14-.93-.23-.22-.06-.45-.12-.66-.21-.15-.07-.26-.13-.37-.21-.23-.17-.44-.35-.63-.55-2.03.44-4.03.48-5.56.45-1.92-.03-4.11-.16-5.86-1.31-.34-.22-.67-.49-1.03-.83-3.79-.49-7.91-1.07-12.92-1.81-2.17-.32-4.35-.65-6.52-.98l-6.53-.99c-2.17-.33-4.35-.65-6.52-.98-2.17-.32-4.35-.64-6.53-.95-4.68-.67-8.96-1.24-13.07-1.76t0,0c-3.44-.43-6.97-.85-10.47-1.24-1.75-.19-3.49-.38-5.24-.56-1.75-.18-3.5-.36-5.25-.53-2.06-.2-4.11-.4-6.17-.59,0,0-.01,0-.02,0-.08,0-.17-.02-.25-.02l-4.05-.39c-3.17-.3-6.85-.66-10.48-1.09-.38.07-.75.14-1.13.2-1.59.25-2.94.36-4.14.32-1.24-.04-2.5-.22-4.21-.61-.55-.13-1.31-.3-1.77-.85-.17-.21-.29-.44-.37-.67l-1.53.54c-.26.09-.55-.04-.64-.3-.09-.26.04-.55.3-.64h0c.69-.25,1.2-.91,1.37-1.78l-.11-3.21s0-.03,0-.05l-.1-2.99s0-.03,0-.05l-.17-5.03s0-.04,0-.07l-.24-7.21h0c-.07-2.03.03-4.1.3-6.15,0-.04,0-.09.02-.14.37-2.81,1.04-5.57,1.99-8.09,0,0,0,0,0,0,.91-2.42,2.05-4.61,3.39-6.5,1.53-2.16,3.3-3.91,5.25-5.18h0s9.06-5.92,9.06-5.92c.01-.01.03-.02.05-.03l7.54-4.93c3.84-2.59,8.49-5,13.84-7.19.87-.36,1.76-.71,2.67-1.05.02,0,.03-.01.05-.02,1.43-.54,2.9-1.06,4.4-1.56.41-.14.81-.27,1.22-.4.02,0,.05-.02.07-.02.82-.27,1.65-.52,2.48-.77,1.25-.38,2.51-.74,3.78-1.08.03,0,.05-.02.08-.02.01,0,.02,0,.04,0,2.1-.57,4.27-1.1,6.46-1.6.02,0,.05-.01.07-.02.31-.07.62-.14.94-.21,2.55-.56,5.15-1.06,7.73-1.5,1.42-.24,2.87-.47,4.32-.68,0,0,.01,0,.02,0,1.12-.16,2.25-.31,3.37-.45,2.15-.27,4.32-.5,6.48-.68,0,0,.02,0,.03,0,.42-.04.84-.07,1.25-.1,1.17-.09,2.34-.17,3.5-.24.02,0,.03,0,.05,0,2.2-.13,4.38-.21,6.53-.25.03,0,.06,0,.09,0,3.49-.06,6.89,0,10.17.19.02,0,.04,0,.05,0,.01,0,.02,0,.03,0,3.11.17,6.11.45,8.97.84.02,0,.04,0,.06,0,.55.08,1.1.15,1.65.24,2.89.44,5.51.98,8.03,1.63,2.59.67,4.9,1.44,7.08,2.33.74.3,1.45.62,2.13.95.02,0,.04.02.06.03,1.42.68,2.73,1.42,3.93,2.2.01,0,.03.02.04.03.33.21.64.43.95.66.49.35.95.71,1.4,1.08,0,0,0,0,0,0,.55.46,1.06.92,1.54,1.41.46.46.89.94,1.29,1.42.2.25.4.5.59.76.15.2.42.59.56.8.22.34.43.69.62,1.06,0,0,0,0,0,0,.24.48.44.96.6,1.45,0,.02.01.04.02.06.29.93.43,1.88.42,2.85h0c0,.17-.01.34-.03.52,0,.03,0,.06,0,.09-.15,1.3-.75,2.69-1.78,4.14,0,0,0,0,0,.01-.86,1.2-1.99,2.43-3.38,3.64l-1.66,1.45s-.02.02-.04.03l-8.38,7.35s-.01.01-.02.02l-2.62,2.3s-.02.01-.03.02l-1.11.97h0c-.52.46-1.03.98-1.52,1.56-.01.02-.03.03-.04.05-.79.94-1.54,2.03-2.24,3.28,0,.02-.02.03-.03.05-.17.31-.34.63-.51.95-.32.62-.62,1.26-.91,1.93,0,.01,0,.03-.01.04,0,.01-.01.03-.02.04-.49,1.14-.94,2.35-1.35,3.64,0,.02-.01.04-.02.06-.13.4-.25.81-.37,1.23-.4,1.39-.73,2.79-1.02,4.23,0,.02,0,.04-.01.06,0,0,0,0,0,0-.19.98-.36,1.99-.5,3.02-.05.36-.1.72-.14,1.07,0,.02,0,.03,0,.05-.24,2.02-.37,3.99-.39,5.99,0,.02,0,.04,0,.06,0,.09,0,.19,0,.28h0s-.07,19.49-.07,19.49c.04.1.04.21,0,.31.05.71.32,1.38.76,1.92,0,.01.02.02.03.03.18.22.4.42.63.59.05.04.11.07.18.1.16.07.34.12.52.17.3.08.59.15.89.22.6.14,1.2.26,1.8.38.7.08,1.39-.04,2.01-.36t0,0l1-.52c.12-.06.26-.07.39-.03l.11-17.97h0c0-1.07.04-2.17.11-3.27v-.46s0,0,0,0c.01-2.25.17-4.47.47-6.77.31-2.32.74-4.5,1.31-6.66.63-2.35,1.4-4.51,2.3-6.41,1.17-2.48,2.49-4.39,3.9-5.66,0,0,0,0,0,0l13.62-12.3s0,0,0,0c4.09-3.59,6.28-7.3,6.33-10.72h0c.01-.93-.08-1.83-.27-2.72,0-.03-.01-.06-.02-.08,0,0,0,0,0,0,0,0,0,0,0,0-.01-.03-.02-.07-.02-.1-.41-1.76-1.22-3.45-2.43-5.03-1.69-2.21-4.15-4.21-7.32-5.94-2.25-1.23-4.9-2.35-7.86-3.32-2.93-.96-6.07-1.75-9.6-2.42-13.31-2.53-27.44-2.39-36.95-1.82-6.11.36-12.32,1.02-18.46,1.93-3.09.46-6.2,1-9.24,1.6-3,.59-6.01,1.26-8.95,1.98-3.18.79-6.27,1.64-9.18,2.54-2.95.91-5.82,1.89-8.53,2.92-3.23,1.23-6.16,2.48-8.96,3.84-2.83,1.38-5.33,2.77-7.64,4.25,0,0,0,0,0,0l-16.81,10.79h0c-1.82,1.17-3.49,2.85-4.95,4.99-1.26,1.85-2.34,4-3.2,6.38-.79,2.19-1.38,4.53-1.75,6.96-.36,2.38-.5,4.79-.41,7.16h0s.65,18.01.65,18.01h0c.06,1.54,1.21,2.79,2.76,3,.05,0,.09.02.14.04,0,0,0,0,0,0h0c.07.03.13.07.17.13h0s0,0,0,0c.05.06.09.12.11.2,0,0,0,0,0,0,.01.05.02.11.02.17,0,.06-.02.12-.04.17h0c-.03.06-.07.12-.12.16,0,0,0,0,0,0t0,0c-.06.05-.13.09-.21.12-.05.01-.1.02-.16.02-.01,0-.03,0-.04,0-2.03-.26-3.56-1.92-3.63-3.95h0s-.65-18.01-.65-18.01h0c-.09-2.44.06-4.91.42-7.35.38-2.49.98-4.9,1.79-7.15.88-2.46,2-4.69,3.31-6.61,1.54-2.26,3.3-4.03,5.24-5.27h0s16.82-10.79,16.82-10.79c0,0,0,0,0,0,2.34-1.5,4.87-2.91,7.74-4.31,2.82-1.37,5.78-2.64,9.04-3.88,2.73-1.03,5.62-2.02,8.59-2.94,2.93-.9,6.03-1.76,9.23-2.56,2.95-.73,5.98-1.4,9-1.99,3.06-.6,6.18-1.14,9.29-1.61,6.16-.92,12.4-1.58,18.55-1.94,9.57-.57,23.79-.71,37.19,1.84,3.57.68,6.75,1.48,9.72,2.45,3.02.99,5.72,2.13,8.03,3.39,3.29,1.8,5.86,3.89,7.63,6.21,1.31,1.72,2.19,3.56,2.63,5.48.2.6.33,1.21.42,1.82.07.54.1,1.08.08,1.63l-1.59,105.4h0c0,.14,0,.28-.02.41-.05.71-.21,1.4-.47,2.11-.85,3.37-3.36,6.49-7.46,9.28,0,0,0,0,0,0l-7.05,4.8-.02,1.55h0c-.02,2.27-1.2,4.5-3.51,6.63-1.56,1.44-3.64,2.83-6.18,4.12h0c-1.82.93-3.81,1.78-6.08,2.61-2.38.87-4.9,1.64-7.7,2.36-4.38,1.13-9.21,2.07-14.35,2.78-7.68,1.07-15.96,1.62-24.22,1.62Zm-56.69-18.18c.08.65.27,1.31.58,1.96.39.83.98,1.67,1.75,2.48.78.83,1.77,1.65,2.92,2.43,1.18.8,2.49,1.54,4.02,2.28,1.88.9,3.94,1.72,6.32,2.51,2.28.76,4.7,1.43,7.38,2.05,8.38,1.95,18.34,3.12,28.8,3.41,9.8.27,19.83-.27,29-1.54,5.1-.71,9.89-1.64,14.24-2.76,2.77-.72,5.26-1.48,7.61-2.33,2.24-.81,4.19-1.65,5.97-2.56h0c2.45-1.25,4.46-2.58,5.95-3.97,2.1-1.94,3.17-3.92,3.19-5.9h0s0-.86,0-.86l-11.32,7.7s-.03.02-.04.03l-2.91,1.98s0,0,0,0c-2.9,1.97-6.81,2.97-9.58,3.47-3.25.58-6.76.8-10.13.63h0c-19.71-.97-38.58-2.86-56.11-5.62-9.8-1.55-19.1-3.36-27.63-5.39Zm83.79,10.01c3.3.16,6.72-.05,9.9-.61,2.68-.48,6.45-1.44,9.2-3.32,0,0,0,0,0,0l2.72-1.85.19-30.82-3,1.6s-.01,0-.01,0h0s0,0-.01,0c-2.94,1.56-6.64,2.33-9.22,2.7-1.55.22-3.16.37-4.77.44-1.67.07-3.23.06-4.79-.03h0c-10.66-.58-21.18-1.37-31.27-2.36-2.6-.25-5.2-.53-7.8-.81-2.6-.29-5.2-.59-7.79-.91-5.28-.65-10.51-1.37-15.54-2.13h0c-18.63-2.83-34.92-6.34-48.43-10.44,0,0,0,0,0,0-1.55-.46-2.82-1.08-3.84-1.88-.77.79-1.54,1.98-1.48,3.54h0s.86,22.75.86,22.75v.03h0c.05,1.17.55,2.25,1.43,3.15.76.77,1.81,1.4,3.12,1.9h0c7.63,2.87,16.47,5.52,26.29,7.88.02,0,.03,0,.05.01.19.05.38.09.58.14,8.52,2.03,17.81,3.84,27.61,5.38,17.49,2.76,36.33,4.64,56,5.61h0Zm23.57-83.53l-.49,76.89,11.07-7.53s.02-.02.03-.02l7.25-4.93h0c3.89-2.65,6.26-5.57,7.05-8.69,0-.02,0-.04.01-.05,0-.01,0-.03,0-.04,0-.01,0-.02,0-.04,0-.01,0-.03.01-.04.22-.58.35-1.13.4-1.69.01-.12.02-.24.02-.36,0,0,0,0,0-.01,0-.02,0-.04,0-.07h0s1.52-101.01,1.52-101.01c-.1.22-.2.43-.31.65-1.11,2.19-2.9,4.41-5.31,6.59,0,0,0,0,0,0l-12.3,11.13s-.01.01-.02.02c-.45.4-.83.78-1.26,1.27-.42.49-.82,1.01-1.21,1.6-.67,1-1.28,2.1-1.87,3.38-.5,1.09-.97,2.28-1.43,3.62-.4,1.16-.83,2.56-1.16,3.74-.36,1.27-.67,2.55-.92,3.8-.26,1.27-.47,2.56-.65,3.86-.18,1.31-.3,2.62-.38,3.89-.08,1.36-.08,2.11-.09,3.36v.35c.04.11.04.23,0,.34ZM24.63,177.02h0Zm118.41-43.81c.34.33.65.59.97.79,1.52,1,3.55,1.12,5.32,1.14,1.96.03,3.51-.08,4.9-.34-.37-.66-.57-1.41-.56-2.19h0s.01-3.16.01-3.16c-3.81.82-7.79.2-11.16-1.75v3.89h0c0,.57.18,1.13.52,1.61Zm-15.88-2.37c.83.12,1.66.25,2.5.37,4.66.69,8.54,1.24,12.1,1.71-.03-.09-.06-.19-.09-.28,0-.02-.02-.05-.02-.08-.08-.31-.12-.63-.12-.96h0v-4.78s0,0,0,0v-6.44s0-.03,0-.04v-5.39s0-.03,0-.04v-3.6s0,0,0,0v-.13c-2.2-.27-4.4-.52-6.6-.76l-.52-.06c-.09-.01-.18-.05-.25-.1-1.52-.18-2.99-.34-4.35-.49-4.19-.45-7.95-.79-12.19-1.11-.01,0-.03,0-.04,0-1.27-.1-2.47-.17-3.62-.23-.82-.04-1.62-.08-2.41-.1-2.13-.07-4.12-.08-6.07-.03-4.49.12-8.63.6-11.99,1.39,0,0-.01,0-.02,0-.4.09-.8.19-1.21.29-.01,0-.02,0-.03,0-5.11,1.25-10.5,2.88-15.61,4.45l-2.32.72c-4.73,1.46-9.63,2.98-14.51,4.28-.02,0-.04,0-.05.01-.01,0-.03,0-.04,0-1.04.11-2.07.3-3.12.56,0,0-.01,0-.02,0l-6.01,1.36c2.95.33,5.87.61,8.44.86l4.05.39s.07,0,.11.01c.02,0,.04,0,.06,0h0s0,0,0,0h0s0,0,0,0h0s0,0,0,0h0s0,0,0,0h0c3.22.31,6.45.62,9.67.95,3.22.33,6.44.67,9.66,1.04,0,0,.01,0,.02,0,2.65.3,5.29.62,7.89.95,0,0,0,0,0,0,.01,0,.02,0,.04,0h.01c3.05.38,6.1.79,9.14,1.21,1.52.21,3.04.42,4.56.64,1.52.22,3.04.44,4.56.66l9.12,1.36c3.04.46,6.08.91,9.11,1.36.06,0,.11.03.16.05Zm15.36-4.3c3.31,2.1,7.34,2.79,11.16,1.9l.02-4.71c-1.9,1.01-4.07,1.32-6.21.89-1.94-.4-3.66-1.38-4.97-2.81v4.73Zm0-6.34c1.22,1.78,3.05,3,5.17,3.44,2.08.43,4.21.05,6.01-1.06l.02-4.7c-3.86.76-7.86.03-11.2-2.02v4.35Zm-104.88-.3c.05.27.15.5.27.65.23.27.7.4,1.23.52,1.65.38,2.85.55,4.02.59,1.14.03,2.43-.07,3.95-.31.46-.07.91-.16,1.37-.25,1.07-.36,1.76-.86,2.15-1.56h0c.08-.14.14-.29.19-.44-4.24,1.89-9.01,2.04-13.35.41.02.04.04.09.06.13.01.02.02.04.03.07,0,0,0,0,0,0,.02.03.04.07.05.1.01.03.02.06.02.09Zm13.87.13s-.04.08-.07.11l4.89-1.11c.08-.02.17-.04.25-.06,0,0,.01,0,.02,0,5.88-1.43,11.76-3.22,17.45-4.95l.53-.16c5.71-1.73,12.11-3.68,18-5.06.01,0,.03,0,.04-.01,0,0,0,0,0,0,.02,0,.04,0,.06-.01,3.43-.8,7.4-1.29,11.82-1.45,5.93-14.37,6.21-30.26.78-44.82-1.52.31-3.02.64-4.48.99-1.71.41-3.4.84-5.03,1.3-.02,0-.04.01-.07.02-.31.09-.62.18-.93.26-1.56.45-3.11.93-4.62,1.43-.02,0-.04.02-.06.02-.52.17-1.03.35-1.54.53-2.03.71-3.9,1.43-5.71,2.2-2.23.95-4.24,1.91-6.13,2.93-.17.09-.34.19-.51.28-.02.01-.04.02-.05.03-1.63.9-3.06,1.8-4.36,2.73,0,0-.01,0-.02.01-.02.01-.03.02-.05.03,0,0,0,0,0,0-.78.54-1.57,1.08-2.35,1.62-.02.02-.04.03-.07.05-.46.31-.91.63-1.37.94,0,0,0,0,0,0-.77.53-1.54,1.06-2.32,1.6-.02.02-.04.03-.06.04-1.92,1.32-3.83,2.64-5.75,3.96-.01,0-.02.02-.03.02-1.45,1-2.9,2-4.35,3,0,0-.02.02-.03.02-.12.08-.24.19-.39.35-.23.24-.45.51-.68.83-.11.16-.22.33-.33.5,0,.02-.02.03-.03.05-.17.28-.34.59-.5.92-.13.25-.25.51-.36.78,0,.02-.01.03-.02.05-.09.2-.17.41-.25.62v.02s-.01.02-.02.03c-.21.55-.39,1.12-.56,1.74-.31,1.11-.52,2.23-.67,3.42-.08.65-.13,1.29-.15,1.91,0,.02,0,.05,0,.07h0c0,.28-.01.55-.01.82v.04c0,.21,0,.42,0,.62h0s.21,7.2.21,7.2c0,.02,0,.04,0,.06l.25,8.5s0,.03,0,.04l.09,3.12s0,.01,0,.02c.01.62-.14,1.24-.44,1.78,0,0,0,0,0,0Zm-14.21-1.67c4.42,1.83,9.36,1.68,13.65-.42l-.06-2.01c-4.28,2.18-9.38,2.19-13.67.03l.08,2.39s0,.01,0,.02Zm105.23-3.69c3.28,2.22,7.33,3.01,11.21,2.19v-3.52c-1.77.21-3.87.27-5.85.15-1.24-.07-2.26-.19-3.21-.37-.65-.13-1.15-.25-1.61-.41-.16-.06-.35-.13-.53-.22v2.18Zm-105.35.14c4.24,2.35,9.43,2.36,13.68.01l-.09-3.11c-4.31,1.96-9.1,2.33-13.66,1.04l.07,2.06Zm105.35-3.52s.04.05.12.11c.22.16.53.28.75.36.41.14.86.26,1.46.38.91.17,1.89.29,3.09.36,1.97.11,4.06.06,5.81-.16.03-1.7.13-3.38.32-5.1-3.79.36-7.65-.09-11.25-1.34-.2,1.8-.3,3.58-.3,5.39Zm-105.45.4c4.55,1.37,9.38.99,13.66-1.08l-.09-3.29c-4.34,1.9-9.26,2.05-13.7.4l.13,3.97Zm80.65-4.02c4.24.32,8,.66,12.18,1.11,3.54.38,7.85.9,11.63,1.39.04-1.67.16-3.33.37-5.02h0c.05-.4.1-.81.16-1.21.37-2.54.91-4.91,1.62-7.22.05-.17.11-.34.16-.51,0-.01,0-.02,0-.03.46-1.41,1.06-2.99,1.82-4.58.01-.04.03-.08.05-.11.88-1.82,1.98-3.65,3.35-5.27.01-.02.02-.03.04-.04.64-.76,1.34-1.47,2.1-2.12,0,0,0,0,0,0l1.47-1.25c3.55-6.42,8.17-12.09,13.74-16.86-.42-.3-.9-.6-1.44-.91-.98-.55-2.07-1.06-3.33-1.55-1.06-.42-2.2-.8-3.44-1.16-.02,0-.03,0-.05-.01-.28-.08-.56-.16-.84-.24-.76-.21-1.55-.4-2.36-.58,0,0,0,0,0,0-.01,0-.03,0-.04-.01-.78-.17-1.58-.34-2.41-.49-.01,0-.03,0-.04,0-.31-.06-.63-.11-.95-.17-1.34-.23-2.7-.42-4.13-.59-.02,0-.04,0-.06,0-.75-.09-1.52-.17-2.31-.24-.02,0-.04,0-.06,0-.02,0-.04,0-.06,0-2.04-.19-4.15-.32-6.31-.39-.03,0-.05,0-.07,0-1.55-.05-3.13-.07-4.73-.06-.02,0-.03,0-.04,0-.49,0-.98,0-1.47.02-.82.01-1.65.03-2.49.06,0,0-.01,0-.02,0-1.19.04-2.4.1-3.62.17-.01,0-.03,0-.04,0-.04,0-.08,0-.11,0-2.09.13-4.24.31-6.37.53-.51.05-1.03.11-1.54.17-.01,0-.03,0-.04,0-2.16.25-4.32.55-6.48.89,0,0-.02,0-.03,0-1.49.24-2.98.5-4.45.78-.27.05-.54.1-.81.16,5.41,14.62,5.17,30.54-.68,44.98,1.85-.04,3.76-.04,5.82.03.84.03,1.69.06,2.58.11,1.17.06,2.39.14,3.68.24h0s0,0,0,0c0,0,0,0,0,0h0s0,0,0,0h0s0,0,0,0h0s0,0,0,0h0s0,0,0,0h0s0,0,0,0h0s0,0,0,0h0s0,0,0,0Zm-79.2-.47c3.45.99,7.12.88,10.5-.3-3.5-.22-7.02-.11-10.5.3Zm-1.82-6.45l.19,5.66c4.53-.66,9.14-.8,13.71-.4l-.05-1.58c-4.94,1.03-10.09-.35-13.85-3.68Zm106.24,4.14c3.59,1.27,7.46,1.73,11.25,1.33.03-.24.06-.48.09-.72.12-.9.27-1.78.43-2.64-3.63-.9-7.34-1.63-11.04-2.16-.24,1.1-.45,2.22-.62,3.39-.04.27-.08.53-.11.8Zm-106.28-5.56c3.61,3.65,8.87,5.2,13.87,4.09l-.12-4.06h0s0-.08,0-.11c-4.96.53-9.92-1.15-13.56-4.55-.16,1.55-.22,3.1-.19,4.64Zm107.24.4c3.69.54,7.38,1.26,11.01,2.16.27-1.3.58-2.57.94-3.83.07-.25.15-.5.22-.75-3.75-.66-7.57-.82-11.36-.48-.02.07-.04.14-.06.2-.28.89-.53,1.79-.75,2.7Zm-104.56-4.31c3.2,2.23,7.14,3.26,11.07,2.82,0,0,0,0,0-.01-3.81-.45-7.52-1.39-11.07-2.8Zm-2.32-2.1c4.25,2.03,8.76,3.34,13.43,3.9.03-.49.07-.99.13-1.49.08-.62.17-1.23.29-1.83-2.65.42-5.35-.09-7.67-1.46-2.13-1.26-3.78-3.14-4.74-5.39-.65,1.99-1.13,4.11-1.43,6.26Zm111.54,2.33c2.62,0,5.23.23,7.81.69.33-1.01.69-1.99,1.08-2.91-3.48-1.38-7.25-1.8-10.95-1.21-.58,1.23-1.06,2.44-1.45,3.57,1.17-.09,2.34-.14,3.51-.14Zm-109.58-10.08c.77,2.53,2.44,4.66,4.72,6.01,2.24,1.32,4.86,1.77,7.4,1.27.06-.23.11-.46.18-.68.13-.48.27-.94.43-1.38-4.4-1.65-8.39-4.09-11.86-7.25-.31.66-.59,1.34-.86,2.04Zm110.8,5.38c2.75,0,5.49.52,8.07,1.55.24-.54.5-1.07.76-1.58.12-.24.25-.48.38-.71-2.28-2.67-5.77-3.9-9.22-3.24-1.07,1.29-1.96,2.71-2.72,4.15.91-.12,1.82-.17,2.73-.17Zm-108.24-7.26c3.09,2.6,6.56,4.64,10.35,6.09-2.92-2.85-6.46-4.92-10.35-6.09Zm110.06,2.1c2.99,0,5.85,1.25,7.91,3.5.56-.94,1.15-1.79,1.77-2.55-.99-1.23-2.29-2.18-3.7-2.69-1.69-.61-3.38-.56-4.76.15,0,0,0,0,0,0-.33.17-.63.37-.93.62,0,0-.02.01-.03.02-.37.31-.72.65-1.06.99.27-.02.54-.03.81-.03Zm-111.18-3.44c4.54,1.08,8.68,3.34,12.04,6.57l.09-.19c.15-.29.29-.57.45-.83-.7-2.45-2.27-4.52-4.46-5.85-2.19-1.33-4.75-1.77-7.25-1.25-.31.5-.6,1.02-.88,1.55Zm2.92-2.76c2,0,3.97.55,5.72,1.61,2.16,1.31,3.78,3.29,4.64,5.64.16-.21.32-.4.49-.58.42-2.66-.46-5.37-2.38-7.27-1.91-1.9-4.63-2.76-7.28-2.33-.83.82-1.61,1.75-2.34,2.78-.05.08-.11.15-.16.23.44-.05.87-.08,1.31-.08Zm111.92,3.03c.87,0,1.76.16,2.65.48,1.53.55,2.93,1.56,4.02,2.86.41-.45.82-.86,1.25-1.23h0l.93-.81c-.19-1.49-1.06-2.8-2.36-3.56-1.36-.78-3.01-.85-4.43-.17l-2.92,2.48c.29-.04.58-.06.87-.06Zm-109.36-7.07c2.46,0,4.85.97,6.62,2.73,1.88,1.87,2.87,4.43,2.77,7.03.48-.47.84-1.07,1.06-1.77h0c.35-1.12.32-2.46-.08-3.79-.37-1.23-1.04-2.4-1.93-3.38-.92-1.02-2.03-1.77-3.19-2.17-1.31-.45-2.6-.41-3.64.12,0,0,0,0,0,0-.12.06-.23.12-.34.19h0s0,0,0,0c-.48.31-.95.66-1.4,1.03.04,0,.09,0,.13,0Zm11.4,8.29c-.02.06-.04.13-.06.19.6-.41,1.2-.82,1.79-1.23.34-2.47-.25-4.94-1.67-7-1.42-2.06-3.53-3.49-5.95-4.05l-1.77,1.16c.6.03,1.21.15,1.83.36,1.32.46,2.56,1.3,3.6,2.45.99,1.09,1.73,2.39,2.14,3.76.33,1.07.6,2.7.08,4.38h0Zm102.06-5.11c1,0,1.99.26,2.88.77,1.39.8,2.37,2.13,2.74,3.66l1.77-1.55c-.18-1.37-.92-2.61-2.05-3.43-1.17-.84-2.63-1.14-4.03-.84l-1.65,1.4c.11,0,.23-.01.34-.01Zm-104.98-6.93c1.5.81,2.81,1.98,3.8,3.42,1.39,2.02,2.05,4.41,1.92,6.83l.57-.39c.58-2.62-.15-5.36-1.96-7.35-1.17-1.28-2.68-2.14-4.33-2.51Zm-1.27-1.18c2.4.13,4.68,1.2,6.33,3.01,1.81,1.98,2.65,4.62,2.36,7.24,1.01-.7,2.02-1.39,3.03-2.09.57-2.55-.09-5.24-1.79-7.23-1.71-2.01-4.3-3.09-6.92-2.91l-3.02,1.98Zm114.13-4.06c-4.83,4.11-8.94,8.9-12.25,14.28l10.36-8.79s.01-.01.02-.02c.86-.76,1.56-1.5,2.1-2.2,0,0,0,0,.01-.01.19-.25.36-.5.5-.74,0-.02.02-.04.03-.05.09-.15.16-.3.23-.44.06-.13.11-.27.14-.42,0-.04.02-.09.02-.14h0c-.05-.18-.11-.29-.2-.43,0,0,0-.01-.01-.02-.11-.16-.23-.31-.37-.46-.18-.2-.38-.38-.58-.56Zm-5.26,9.66c1.18.05,2.33.43,3.3,1.14,1.18.85,2,2.08,2.34,3.47l2.15-1.89c-1.61-2.26-4.27-3.53-7.03-3.37l-.76.65Zm1.93-1.63c2.63.2,5.05,1.54,6.62,3.7l2.17-1.9c-2.35-1.79-5.32-2.6-8.27-2.24l-.52.44Zm-106.28-6.92c2.38.24,4.61,1.38,6.19,3.23,1.68,1.97,2.45,4.55,2.17,7.09.39-.27.77-.53,1.16-.8.19-4.74-2.13-9.2-6.12-11.75l-3.41,2.23Zm5.57-1.86c3.1,2.67,4.92,6.55,4.96,10.69.15-.1.3-.21.46-.31.67-2.45.23-5.05-1.21-7.15-1.04-1.52-2.52-2.63-4.21-3.23Zm102.6,7.26c2.77,0,5.48.93,7.67,2.65l1.53-1.34c-1.1-1.28-2.52-2.18-4.05-2.56-1.85-.46-3.64-.11-4.91.98,0,0,0,0,0,0l-.33.28s.06,0,.09,0Zm-103.39-8.52c2.36.52,4.44,1.9,5.83,3.93,1.4,2.04,1.95,4.49,1.58,6.89.45-.31.89-.61,1.34-.92t0,0c.71-.49,1.24-1.22,1.53-2.12,0,0,0,0,0,0,.49-1.52.27-3.37-.6-5.08h0c-.77-1.51-1.96-2.76-3.36-3.51-1.59-.85-3.25-.97-4.56-.3,0,0,0,0,0,0-.12.06-.23.13-.34.2,0,0,0,0,0,0l-1.4.92Zm106.97,6.07c.59,0,1.2.08,1.81.23,1.73.43,3.34,1.45,4.56,2.87l1.29-1.13h0c.32-.28.63-.57.92-.85-2.84-1.99-6.52-2.45-9.77-1.2-.05.07-.11.14-.17.21.44-.09.89-.14,1.35-.14Zm-95.75,2.02c-.02.07-.05.14-.07.21.64-.4,1.31-.79,2.02-1.19,1.44-2.28,1.52-5.15.21-7.52-1.31-2.35-3.76-3.79-6.44-3.79h-.06c-1.02.54-1.99,1.1-2.93,1.66.93.06,1.89.34,2.83.84,1.58.85,2.92,2.25,3.78,3.94,0,0,0,0,0,0,.99,1.94,1.23,4.07.66,5.85h0Zm98.31-3.78c2.39,0,4.76.74,6.74,2.17.46-.49.88-.97,1.25-1.45-2.96-1.48-6.34-1.7-9.42-.64.48-.06.96-.09,1.43-.09Zm-101.01-9.35c2.4.46,4.51,1.96,5.73,4.16,1.24,2.23,1.39,4.86.46,7.17.89-.46,1.81-.92,2.76-1.36,1.42-2.17,1.63-4.96.54-7.33-1.1-2.36-3.36-4.01-5.94-4.33-1.23.55-2.41,1.11-3.55,1.68Zm5.12-2.37c2.3.71,4.25,2.37,5.28,4.59,1.04,2.25,1.04,4.84.06,7.07.35-.15.71-.31,1.07-.46.74-.31,1.49-.62,2.26-.92,1.94-1.96,2.54-4.88,1.53-7.45-1.01-2.57-3.43-4.3-6.18-4.43-.88.33-1.74.67-2.58,1.01-.48.2-.96.4-1.43.6Zm98.41,10.15c2.07,0,4.15.49,6.05,1.48.68-1.02,1.11-2,1.29-2.91-4.27-.78-8.74.1-12.4,2.44,1.62-.67,3.34-1.01,5.05-1.01Zm4.29-5.02c-3.71,0-7.29,1.81-9.45,4.93,3.76-2.26,8.28-3.1,12.61-2.33,0-.76-.1-1.5-.31-2.23-.95-.25-1.91-.37-2.86-.37Zm-96.8-7.43c2.35.68,4.3,2.41,5.22,4.77.93,2.38.66,5.02-.65,7.13.56-.21,1.12-.41,1.7-.61.48-.17.96-.33,1.45-.5,1.59-2.02,2.06-4.66,1.24-7.1-.81-2.44-2.77-4.28-5.26-4.94-.37.12-.74.24-1.11.37-.88.29-1.74.59-2.59.9Zm85.93,10.97c.24.21.47.43.68.66,0,0,0,.01.01.02,2.84-3.98,7.83-5.94,12.62-4.97-.07-.16-.14-.31-.22-.47,0,0,0,0,0,0-.17-.34-.36-.66-.56-.97,0,0,0,0,0-.01-.12-.19-.38-.56-.52-.74-.18-.24-.37-.48-.56-.72-.38-.47-.79-.92-1.23-1.35-.38-.38-.78-.75-1.2-1.11-3.71,2.47-6.82,5.8-9.02,9.67Zm-3.47-2.21c.38.19.73.38,1.08.57.6.34,1.12.67,1.59,1.01,2.23-3.86,5.32-7.2,9.01-9.7-.26-.21-.54-.41-.82-.62-.23-.17-.47-.34-.72-.5-4.37,1.8-7.95,5.06-10.15,9.24Zm-77.18-10.52c2.18.97,3.86,2.81,4.63,5.12.78,2.33.53,4.83-.65,6.92.63-.2,1.27-.4,1.91-.59,1.12-4.3.61-8.8-1.43-12.75-1.14.31-2.27.64-3.41.98-.35.11-.7.21-1.05.32Zm5.93-.51c1.58,3.67,1.95,7.72,1.06,11.63l.28-.08c.26-.07.52-.15.78-.22,1.2-2.05,1.53-4.52.89-6.81-.5-1.8-1.57-3.38-3.01-4.52Zm.05-1.2c1.89,1.29,3.3,3.22,3.92,5.45.62,2.24.42,4.63-.54,6.72.97-.26,1.95-.52,2.95-.76,1.38-1.91,2-4.25,1.77-6.6-.23-2.32-1.28-4.46-2.97-6.06-1.74.39-3.45.81-5.13,1.25Zm67.77,10.8c.36.13.71.26,1.05.39.51.2,1,.4,1.47.61,2.2-4.2,5.72-7.52,10.04-9.46-.88-.54-1.83-1.06-2.83-1.54-4.1,2.39-7.45,5.84-9.73,10Zm-61.48-12.31c1.59,1.71,2.58,3.88,2.82,6.22.22,2.22-.26,4.44-1.36,6.36.81-.19,1.64-.38,2.47-.56,2.21-3.98,2.23-8.85.06-12.85-1.32.25-2.63.52-3.92.81-.02,0-.04,0-.07.01Zm59.41,11.63c.38.11.75.23,1.11.35,2.26-4.19,5.56-7.69,9.6-10.18-.41-.18-.83-.36-1.25-.54-.88-.36-1.78-.7-2.71-1.02-3.6,2.78-6.04,6.9-6.75,11.39Zm-54.01-11.85c1.67,3.82,1.6,8.21-.21,11.98.23-.05.47-.1.7-.14,2.03-1.6,3.07-4.17,2.71-6.74-.29-2.1-1.48-3.95-3.21-5.1Zm50.76,10.99c.67.15,1.31.32,1.95.49.11.03.22.06.33.09.73-4.48,3.1-8.59,6.58-11.49-.99-.31-2.02-.61-3.1-.89-.32-.08-.63-.16-.95-.24-2.34,3.7-3.96,7.75-4.81,12.04Zm-50.37-11.93c2.05,1.29,3.47,3.45,3.81,5.9.33,2.37-.39,4.74-1.91,6.52,1.33-.25,2.66-.48,4-.7,2.66-3.82,2.68-8.86.05-12.7-1.34.2-2.68.41-4,.63-.65.11-1.31.23-1.96.35Zm47.96,11.42c.49.09.96.19,1.43.29.85-4.29,2.45-8.35,4.76-12.06-1.31-.3-2.66-.57-4.07-.82-.1,4.29-.82,8.52-2.12,12.59Zm-40.91-12.56c2.42,3.87,2.48,8.74.17,12.65,1.73-.26,3.47-.5,5.2-.7,2.36-4.02,1.77-9.08-1.44-12.46-.45.05-.91.11-1.36.16-.86.11-1.71.22-2.57.34Zm36.12,11.79c1.11.14,2.18.3,3.24.49.19.03.37.06.55.1,1.32-4.07,2.03-8.3,2.12-12.58-.29-.05-.58-.09-.88-.14-.34-.05-.68-.1-1.03-.15.39,4.5-1.05,8.89-4,12.29Zm-30.97-12.43c2.93,3.5,3.49,8.38,1.44,12.46.2-.02.4-.04.6-.06.88-.09,1.75-.18,2.63-.25,1.99-4.02,1.57-8.87-1.07-12.49-1.2.11-2.4.22-3.6.36Zm28.44,12.14c.45.04.89.09,1.32.14,3.14-3.31,4.66-7.75,4.2-12.28-2.28-.3-4.65-.53-7.1-.7,1.57,1.57,2.6,3.58,2.95,5.81.38,2.45-.11,4.92-1.38,7.02Zm-23.69-12.59c2.44,3.7,2.84,8.44,1.07,12.5.85-.07,1.69-.13,2.53-.18,2.55-3.79,2.56-8.78.02-12.57-1.07.06-2.15.14-3.23.22l-.39.03Zm20.7,12.34c.63.04,1.25.1,1.87.15,1.34-1.99,1.88-4.38,1.51-6.76-.26-1.67-.95-3.22-1.99-4.5,1.18,3.69.7,7.79-1.39,11.11Zm-3.57-.2c.82.03,1.63.07,2.43.12,2.57-3.71,2.88-8.6.8-12.61-2.41-.13-4.88-.19-7.4-.19h-.06c1.86,1.06,3.34,2.7,4.22,4.72,1.11,2.56,1.1,5.42.01,7.95Zm-11.18-9.8c1.02,3.27.65,6.89-1.13,9.91.79-.04,1.57-.08,2.35-.11,1.1-3.33.6-6.93-1.21-9.8Zm-.86-2.67c3.23,3.24,4.45,8.03,3.14,12.44.6-.02,1.21-.03,1.8-.04.44,0,.87-.01,1.3-.02,1.67-1.73,2.52-4.09,2.33-6.5-.19-2.42-1.42-4.62-3.37-6.06-1.72.03-3.45.09-5.2.18Zm7.57,12.38c1.14,0,2.27.02,3.39.06,1.14-2.37,1.2-5.09.15-7.52-.73-1.67-1.91-3.06-3.41-4.01,1.06,1.41,1.72,3.1,1.86,4.9.19,2.39-.53,4.73-2,6.58Z"/>
    <path class="cls-2" d="m141.14,169.47s-.02,0-.03,0c-.18-.01-.43-.1-.62-.47-.13-.25-.03-.55.21-.67.24-.12.53-.04.67.2.18.09.29.27.28.48-.02.26-.24.47-.5.47Zm8.97-35.17c-.7,0-1.4-.02-2.09-.07-1.24-.08-2.26-.22-3.23-.43-.65-.14-1.15-.29-1.61-.47-.27-.11-.67-.29-.99-.57-.3-.27-.46-.57-.46-.89,0-.28.22-.5.5-.5s.5.22.5.5c0,0,.02.05.12.14.15.13.38.26.71.39.41.16.85.29,1.45.42.92.2,1.9.33,3.09.41,2.14.14,4.41.05,6.25-.25.26-.04.53.14.57.41.04.27-.14.53-.41.57-1.31.21-2.84.32-4.38.32Zm-7.38-2.43h0,0Zm-35.6-2.78c-.24,0-.44-.18-.47-.43-.04-.27.18-.53.45-.57.3-.04.59.19.59.49,0,.28-.22.5-.5.5-.02,0-.05,0-.07,0Zm-40.16-4.85c-.24,0-.45-.17-.49-.41-.05-.27.13-.52.39-.58,0,0,.02,0,.03,0,.26-.1.5.05.6.3.1.26-.08.56-.34.66-.03.01-.07.02-.11.03-.03,0-.05,0-.08,0Zm-37.42-2c-.27,0-.49-.21-.5-.48l-.09-2.52c0-.28.21-.51.48-.52.2-.02.38.11.47.28.08.08.12.19.13.32v.05c.17.01.32.11.4.26.18.07.32.24.33.45l.05,1.36c0,.27-.2.5-.47.52-.08.05-.17.09-.27.09-.04,0-.08,0-.11,0-.02.02-.05.05-.08.07-.08.08-.2.13-.32.13,0,0-.01,0-.02,0Zm4.14-.69s-.09,0-.13,0c-.53,0-1.07-.08-1.59-.2-.27-.06-.43-.33-.37-.6.06-.27.33-.43.6-.37.45.11.92.17,1.38.17.52.01,1.08-.05,1.62-.17.27-.06.54.11.6.37.06.27-.11.54-.38.6-.58.13-1.16.2-1.73.2Zm120.73-.3c-.05,0-.11,0-.17-.03,0,0-.09-.03-.1-.04-.26-.1-.38-.39-.28-.65.1-.26.39-.38.65-.28l-.18.47.25-.44c.26.09.4.38.31.64-.07.21-.27.33-.47.33Z"/>
  </g>
</svg>