<?xml version="1.0" encoding="UTF-8"?>
<svg id="Layer_1" data-name="Layer 1" xmlns="http://www.w3.org/2000/svg" viewBox="0 0 210 210">
  <defs>
    <style>
      .cls-1, .cls-2 {
        fill: none;
        stroke: #eae5e1;
        stroke-linecap: round;
        stroke-linejoin: round;
      }

      .cls-3, .cls-2 {
        opacity: .4;
      }
    </style>
  </defs>
  <g class="cls-3">
    <g>
      <path class="cls-1" d="m142.94,139.85c-.56.1-.32.71-.72.94-1.3.13-2.56-.51-3.89-.78-1.33-.27-2.67-.48-4-.74-1.58-.31-3.18-.49-4.76-.88-1.31-.33-2.65-.61-3.99-.82-1.29-.2-2.59-.33-3.87-.6-1.26-.26-2.54-.34-3.81-.55-.16-.03-.33,0-.5,0-1.81,0-3.62-.15-5.43-.28-1.05-.08-2.09-.31-3.13-.56-.72-.17-1.49-.27-2.24-.27-1.49-.01-2.95-.29-4.43-.4-2-.15-4.01-.34-5.99-.69-1.31-.23-2.63-.44-3.94-.66-.53-.09-1.08-.05-1.62-.07-1.75-.06-3.33-.86-5.05-1.09-.96-.13-1.92-.31-2.88-.33-1.02-.02-2.04-.16-3.06-.15-1.33.01-2.66.01-4,0-.84,0-1.67-.16-2.49-.28-.58-.09-1.17-.11-1.76-.19-1.58-.23-3.15-.46-4.68-.91-.82-.24-1.67-.33-2.5-.47-.88-.15-1.73-.41-2.62-.52-.96-.12-1.92-.2-2.87-.39-1.03-.2-2.09-.27-3.06-.73-.47-.23-1.01-.17-1.5-.32-.89-.28-1.68-.8-2.29-1.45-.85-.92-1.72-1.82-2.58-2.73-.9-.96-1.46-2.13-1.89-3.36-.13-.37-.25-.75-.49-1.06"/>
      <path class="cls-1" d="m172.78,95.64c.17,1.2.26,2.41.12,3.62-.06.55.01,1.09.09,1.62.15,1.06.16,2.14.07,3.18-.13,1.56-.18,3.13-.12,4.68.05,1.27-.03,2.54.13,3.81.07.58.09,1.2-.02,1.81-.14.83.11,1.66.12,2.49.03,1.66-.33,3.29-.44,4.93-.11,1.66-.28,3.32-.21,4.99.07,1.56.13,3.12-.09,4.69-.07.51-.05,1.05-.16,1.56-.54,2.59-1.7,4.85-3.48,6.82-.74.83-1.48,1.66-2.39,2.29-1.06.72-2.16,1.46-3.55,1.31-.72-.08-1.4-.39-2.12-.49-1.43-.21-2.82-.64-4.25-.84-.94-.13-1.91-.21-2.87-.21-.85,0-1.66-.19-2.49-.29-.19-.02-.34.05-.5.02"/>
      <path class="cls-1" d="m120.15,88.65c-.07.23-.12.46,0,.69.12.22.1.48.05.68-.25.9-.12,1.79-.07,2.69.05.83.09,1.66-.09,2.5-.12.54.08,1.11,0,1.68-.1.7-.1,1.42-.25,2.12-.15.71.16,1.46-.08,2.18-.08.23,0,.47-.07.68-.4,1.23-.55,2.54-1.19,3.68-.23.42-.21.9-.46,1.33-.35.6-.69,1.22-1.16,1.72-1.88,2-3.91,3.81-6.42,5-.97.46-2,.57-3.06.57-.88,0-1.74.2-2.62.27-.34.03-.69,0-1-.05-1.04-.18-2.08-.13-3.13-.17-1.27-.05-2.54-.18-3.81-.29-2.15-.19-4.25-.67-6.36-1.09-1.11-.22-2.16-.67-3.07-1.41-1.15-.93-2.48-1.62-3.61-2.57-1.58-1.32-3.02-2.8-3.85-4.69-.9-2.07-1.79-4.17-2.23-6.41-.18-.94-.14-1.88-.14-2.81-.02-2.27-.08-4.54-.16-6.81-.01-.42-.09-.84-.19-1.25-.25-1.03-.37-2.06-.33-3.12.02-.51-.19-1.04-.29-1.56"/>
      <path class="cls-1" d="m173.09,128.05c.85.12,1.7.25,2.56,0,.15-.04.34-.03.5,0,1.25.21,2.5.15,3.75-.01.9-.12,1.79-.03,2.69.02.66.04,1.22-.12,1.75-.5.74-.53,1.52-.99,2.43-1.2.29-.06.55-.27.73-.45,1.3-1.23,2.38-2.69,2.78-4.43.51-2.2.86-4.43.58-6.74-.18-1.44-.37-2.89-.32-4.37.04-1.08-.18-2.17-.35-3.24-.25-1.55-.58-3.09-.88-4.63-.31-1.59-.53-3.22-.55-4.86-.01-1.44-.22-2.88-.38-4.31-.21-1.82-.51-3.62-.8-5.43-.18-1.15-.45-2.28-.6-3.44-.06-.51-.04-1.05-.15-1.56-.29-1.42-.35-2.88-.58-4.32-.14-.84-.26-1.69-.32-2.55-.05-.68-.26-1.37-.36-2.06-.14-1-.19-2.02-.48-3-.33-1.1-.44-2.25-.6-3.37-.13-.94-.29-1.87-.44-2.8-.23-1.42-.43-2.85-.75-4.26-.27-1.17-.58-2.34-.76-3.55-.14-.96-.27-1.97-.67-2.87-.35-.8-.3-1.63-.42-2.44-.09-.59-.3-1.16-.46-1.74-.19-.7-.25-1.34.03-2.01.14-.34,0-.67-.06-1-.19-1.05-.69-1.99-.99-3-.22-.74-.54-1.4-.94-2.06-.66-1.1-1.69-1.64-2.82-2.05-.97-.35-1.95-.61-3-.64-.41-.01-.75.1-1.06.33-.34.26-.66.55-1,.81-.64.47-1.24,1.02-2.06,1.2-.22.05-.46.15-.62.31-.87.89-1.75,1.75-2.41,2.84-.45.74-.69,1.58-1.2,2.28-.17.23-.2.57-.29.86-.67,2.04-.89,4.13-.98,6.25-.07,1.63-.3,3.24-.39,4.87-.08,1.36-.35,2.71-.54,4.06-.15,1.04-.29,2.08-.46,3.12-.15.89-.27,1.79-.41,2.69-.23,1.54-.5,3.07-.63,4.62-.2,2.36-.43,4.71-.75,7.05-.21,1.5-.62,2.95-1.13,4.37-.3.83-.52,1.71-1.06,2.43-1.15,1.55-2.53,2.68-4.54,3.05-1,.18-1.97.55-3.01.64-1.29.11-2.59.18-3.87-.02-1.58-.24-3.1-.7-4.56-1.35-.27-.12-.58-.16-.87-.19-1.2-.15-2.26-.7-3.37-1.12-.18-.07-.14-.29-.31-.32"/>
      <path class="cls-1" d="m130.45,90.96c-1.03-1.04-1.45-2.35-1.69-3.74-.09-.51-.07-.97-.78-1.31-.87-.42-1.81-.48-2.65-.87-.3-.14-.62-.25-.94-.38-1.23-.49-2.54-.69-3.81-1.05-.84-.24-1.66-.57-2.5-.8-1.32-.35-2.61-.78-3.99-.93-.73-.08-1.44-.45-2.19-.51-.98-.08-1.93-.37-2.94-.3-.46.04-.95-.27-1.43-.4-.28-.08-.57-.16-.87-.13-.58.06-1.14-.04-1.69-.24-.83-.31-1.71-.17-2.56-.27-1.76-.22-3.51-.49-5.26-.81-1.22-.22-2.48-.44-3.74-.42-1.71.03-3.42,0-5.12-.14-2.25-.19-4.5,0-6.74-.12-1.73-.09-3.46-.05-5.18-.24-2.35-.26-4.7,0-7.06,0-2.67,0-5.33.1-7.99.36-.68.07-1.37.03-2.06,0-1.3-.05-2.57.36-3.87.25-1.44-.13-2.88-.13-4.31-.34-1.87-.27-3.73-.58-5.56-1.07-.15-.04-.36-.08-.42-.15-.81-.85-1.83-1.54-2.19-2.74-.16-.53-.27-1.09-.29-1.62-.06-1.28-.38-2.53-.33-3.81.07-2,.06-4.01.41-6,.34-1.86.76-3.7,1.14-5.55.2-.95.3-1.92.41-2.88.11-.91.36-1.76.64-2.62.33-.99.3-2.04.42-3.06.17-1.45.16-2.93.45-4.37.15-.76.52-1.45.6-2.24.06-.56.16-1.13.2-1.69.17-2.33.52-4.61,1.52-6.74.59-1.24,1.36-2.34,2.48-3.2,1.16-.89,2.33-1.79,3.59-2.52.7-.41,1.31-1.15,2.29-.97.66.12,1.33.23,2,.25,1.78.04,3.46.56,5.18.89"/>
      <path class="cls-1" d="m55.28,27.46c-.79-.43-1.68-.32-2.5-.33-.84-.01-1.71.05-2.56.19-.63.1-1.26.14-1.75.63-.37.38-.91.52-1.32.87-1.17.99-2.21,2.09-3.11,3.32-.34.47-.52,1-.63,1.56-.19,1.01-.6,1.95-.85,2.94-.34,1.34-.71,2.68-.91,4.05-.26,1.84-.66,3.65-1.16,5.44-.41,1.48-.67,3-1.02,4.49-.36,1.52-.65,3.05-.78,4.62-.1,1.34-.29,2.68-.58,4-.09.42-.09.87-.12,1.31-.21,3.08-.13,6.16-.15,9.24-.01,1.82.31,3.6.66,5.36.26,1.3.66,2.6,1.78,3.51.08.06.16.12.19.25.26,1.07,1.07,1.46,2.05,1.78.78.25,1.51.65,2.32.85.17.04.33.15.31.37-.15,1.64.16,3.28-.03,4.94-.11,1.02.07,2.09.23,3.11.16,1,.18,2,.22,3,.05,1.39-.06,2.79.03,4.18.09,1.42.16,2.83.24,4.25.05.98-.26,1.9-.3,2.87-.03.68-.03,1.38-.09,2.06-.08,1.02-.11,2.05-.04,3.06.15,2.24.2,4.49.79,6.68.13.46.07.95.07,1.43"/>
      <path class="cls-1" d="m136.13,130.17c-.73.09-1.31-.41-2-.51-.94-.14-1.87-.37-2.81-.55-.45-.09-.84-.32-1.31-.39-1.27-.19-2.55-.23-3.81-.48-2-.4-4.02-.67-5.99-1.19-.82-.22-1.66-.23-2.5-.32-1.68-.18-3.35-.48-5.06-.53-.72-.02-1.47.01-2.18-.1-1.33-.2-2.67-.12-4-.35-.75-.13-1.54.02-2.31-.07-1.19-.14-2.37-.28-3.56-.42-1.16-.13-2.31-.37-3.49-.43-1.5-.08-3-.25-4.5-.43-1.34-.16-2.71-.25-4.05-.44-1.48-.2-2.97-.35-4.44-.65-1.15-.23-2.33-.29-3.49-.46-1.96-.28-3.93-.36-5.87-.79-2.09-.47-4.15-1.04-6.24-1.5-1.8-.4-3.61-.72-5.43-1.03-1.96-.34-3.93-.56-5.88-.94-.91-.18-1.82-.41-2.74-.55-.3-.05-.58-.04-.88-.05"/>
      <path class="cls-1" d="m134.63,89.34c1.29.28,2.02,1.15,2.5,2.31.26.63.49.71,1.25.7.44,0,.87-.11,1.31-.13.7-.03,1.37.21,2.06.3,1.09.15,2.02.76,3.06,1.07.84.25,1.66.48,2.56.45.52-.01,1.02.17,1.51.45.62.36,1.4.12,2.11.26,1.36.26,2.75.29,4.11,0,.78-.16,1.58-.29,2.32-.66.74-.36.86-.19.95.61.14,1.24-.17,2.45-.08,3.69.19,2.65-.28,5.28-.2,7.93.05,1.56.13,3.12.15,4.68.03,2.1-.14,4.2-.13,6.31,0,1.83.08,3.67-.13,5.49-.18,1.56-.17,3.13-.4,4.68-.16,1.08-.3,2.18-.5,3.26-.15.82,0,1.7.03,2.55"/>
      <path class="cls-1" d="m73.76,29.21c.28-.65.13-1.31-.01-1.93-.5-2.22-1.39-4.24-3.43-5.48-.74-.46-1.91-.61-2.87.1-1.13.84-1.78,1.96-2.25,3.25-.25.67-.6,1.3-.93,1.94-.47.92-.56,1.94-.74,2.94-.2,1.07-.58,2.09-.71,3.18-.03.28-.03.54.02.81"/>
      <path class="cls-1" d="m144.37,52.56c-.92.46-1.85.88-2.57,1.68-.63.7-1.04,1.49-1.31,2.38-.16.51-.4.99-.41,1.56,0,.19-.04.43,0,.62.05.32.08.63-.01.94-.65.1-1.2.41-1.55.94-.65.98-1.48,1.85-1.76,3.05-.13.58-.26,1.15-.24,1.75,0,.23-.04.47-.25.55-.73.28-1.17.89-1.6,1.46-.77,1.01-1.6,2-1.89,3.3-.29,1.3-.4,2.57,0,3.88.23.77.44,1.54.93,2.18-.65.56-1.07,1.31-1.11,2.01-.05,1.01-.44,1.94-.49,2.93-.01.25-.08.45-.26.62"/>
      <path class="cls-1" d="m142.94,35.58c-.88-.19-1.72-.54-2.62-.64-.31-.04-.64-.08-.94-.09-1.94-.02-3.86-.23-5.81-.16-1.71.06-3.42-.12-5.12-.33-1.12-.14-2.25-.2-3.37-.41-1.82-.34-3.69-.14-5.49-.41-2.12-.33-4.26-.29-6.38-.55-1.71-.21-3.41-.5-5.12-.75-.9-.13-1.83.03-2.74-.03-2.04-.14-4.1-.11-6.12-.48-.42-.08-.87-.02-1.31,0-1.7.06-3.38-.13-5.06-.31-1.56-.16-3.11-.37-4.68-.46-1.9-.12-3.81-.2-5.69-.66-1.24-.3-2.53-.28-3.8-.4-1.12-.1-2.26-.06-3.37-.25-.18-.03-.33,0-.5,0-.23.01-.52.12-.67-.06-.32-.39-.73-.3-1.14-.3-1.33-.02-2.63-.24-3.93-.44-.77-.12-1.51-.38-2.25-.62"/>
      <path class="cls-1" d="m142.5,40.82c-.54.09-.94-.1-1.25-.56-.51-.73-1.18-1.13-2.11-1.22-.75-.07-1.48-.17-2.19.1-2.53.94-4.69,2.44-6.56,4.37-.13.13-.24.26-.44.25-1.19-.05-2.2.62-3.3.9-.58.14-.95.69-1.32,1.16-.62.79-1.29,1.54-1.7,2.49-.13.31-.18.56-.12.88.13.71-.23,1.37-.29,2.06-.02.27-.05.54.11.82.3.51.33,1.12.29,1.68-.03.36.01.73.12.99.59,1.4.59,2.85.47,4.32-.06.75-.89,1.77-1.63,1.93-.2.04-.43.04-.63-.11-.19-.15-.41-.26-.62-.38-.52-.27-.97-.21-1.44.18-1.09.9-2.24,1.73-3.43,2.5-1.26.82-2.64,1.11-4.12.75"/>
      <path class="cls-1" d="m67.58,41.7c.13-.16.3.11.44-.06.75-.94,1.84-.87,2.87-.92.36-.02.69-.18,1.06-.14.93.09,1.6.68,2.31,1.19.81.58,1.49,1.3,2.17,2.01.74.79,1.12,1.79,1.02,2.92-.07.84-.77,1.14-1.32,1.55-.13.1-.31-.06-.44-.23-.37-.49-.67-.98-.69-1.63-.03-.79-.61-1.33-1.13-1.79-.93-.82-1.96-1.51-3.1-2.03-.52-.24-1.05-.26-1.57-.33-.47-.07-.85-.2-1.12-.59"/>
      <path class="cls-1" d="m53.03,117.93c-.18-.93-.1-1.88-.25-2.81-.28-1.76-.23-3.54-.41-5.31-.1-.99-.18-1.99-.21-2.99-.05-2.31-.09-4.62-.26-6.93-.12-1.64.03-3.29-.13-4.93-.18-1.81-.26-3.62-.36-5.43-.06-1.12-.05-2.25-.14-3.37-.07-.91-.12-1.82-.44-2.69-.02-.06-.02-.14.06-.19"/>
      <path class="cls-1" d="m80.81,57.43c-.02-.15-.06-.29-.06-.44-.01-.82-.17-1.04-1-1.05-1.15-.02-2.29-.35-3.43-.23-.96.1-1.94-.17-2.88.16-1.44.5-2.55-.19-3.55-1.07-1.16-1.03-1.77-2.43-2.46-3.79-.75-1.48-1.22-3.05-1.66-4.63-.06-.22-.05-.46-.07-.69"/>
      <path class="cls-1" d="m115.53,87.78c-.08,1.33-.19,2.66-.24,4-.02.56-.03,1.15-.29,1.61-.3.55.05,1.01,0,1.52-.04.57-.04,1.16-.1,1.75-.14,1.38-.3,2.76-.58,4.12-.35,1.73-.69,3.5-1.58,5.04-.7,1.22-1.66,2.27-2.84,3.08-1.27.87-2.73,1.13-4.19,1.35-1.63.25-3.28.29-4.93.13-.45-.04-.88.09-1.31.15-1.13.14-2.25-.12-3.37.04-.41.06-.79-.21-1.19-.29-1.78-.36-3.48-.98-5.23-1.42-1.02-.26-1.98-.85-2.89-1.45-.97-.64-1.46-1.67-2.17-2.52-.33-.4-.79-.67-1.02-1.17-.48-1.03-.89-2.08-1.2-3.18-.29-1.02-.4-2.05-.44-3.07-.05-1.42,0-2.85-.25-4.24-.16-.89-.27-1.77-.13-2.62.23-1.38-.02-2.75.12-4.13.14-1.38.35-2.78.1-4.18"/>
      <path class="cls-1" d="m165.48,82.78c-.35-.08-.29.27-.29.38-.03.65-.27,1.25-.42,1.87-.32,1.35-.87,2.64-1.62,3.8-.78,1.21-1.55,2.43-2.6,3.46-.6.58-1.21,1.1-2.01,1.36-.16.05-.26.16-.31.31"/>
      <path class="cls-1" d="m116.84,53.69c-.85-.26-1.68-.6-2.56-.73-.35-.05-.66-.2-.99-.28-.99-.22-1.9-.13-2.75.45-.4.27-.87.43-1.3.64-.76.37-1,1.18-1.37,1.86-.4.74-.68,1.52-.76,2.37-.02.17-.18.31-.18.5"/>
      <path class="cls-1" d="m181.08,50.88c-.67.69-1.46.63-2.31.45-1.3-.28-2.62-.19-3.93-.21-1.37-.02-2.71.13-4.06.33-.36.05-.71.08-1.06,0"/>
      <path class="cls-1" d="m93.02,66.34c-.68-.19-7.35,0-8.03-.22-2.2-.68-4.1-1.88-5.87-3.32-1.13-.92-2.21-1.87-3-3.12-.06-.1-.15-.22-.25-.24-.3-.05-.47-.18-.44-.51.04-.34.31-.53.56-.55.96-.07,1.9-.38,2.87-.33.48.03.93-.04,1.38-.24.91-.41,1.92-.5,2.87-.81.91-.3,1.84-.5,2.81-.32.19.03.39-.01.56-.12"/>
      <path class="cls-1" d="m86.49,143.97c-.24-.12-.49-.14-.75-.13-.83.05-1.67-.02-2.5-.08-.75-.05-1.4-.46-2.07-.79-1.26-.61-2.41-1.38-3.64-2.27-.07-.17.03-.49.16-.73.33-.6.31-1.15-.09-1.66-1.01.07-1.29,1.26-2.22,1.5-.17-.15-.33-.29-.54-.47.38-.73.24-1.74,1.09-2.31.17-.11.15-.34.25-.5"/>
      <path class="cls-1" d="m64.33,46.19c-1.11.14-2.11-.23-2.99-.83-.97-.67-1.89-1.42-2.57-2.42-.18-.26-.29-.54-.32-.87-.11-1.09-.09-2.16.52-3.12.43-.67,1.05-1,1.87-.88"/>
      <path class="cls-1" d="m88.18,65.8c.51-.36.8-.94,1.29-1.34.27-.22.56-.39.87-.62-.34-1.15-1.13-1.93-2.11-2.53-.93-.57-1.88-1.09-2.99-1.27-.33-.05-.64-.29-.94-.49-1.04-.7-2.24-.93-3.44-1.17-.21-.04-.3-.15-.43-.26"/>
      <path class="cls-1" d="m139.63,200.28c.19.56-.02.9-.56,1.14-.36.16-.7.36-1.07.48-.58.19-.76.46-.62,1.07.14.61-.16,1.36-.69,1.69-.63.4-1.23.9-2,.99-.64.07-1.29.02-1.93.07-1.84.14-3.64-.22-5.43-.59-.23-.05-.46-.03-.69-.03"/>
      <path class="cls-1" d="m136.26,46.88c-.43,1.32-1.61,1.85-2.69,2.42-1.24.65-2.36,1.46-3.49,2.26-1.31.93-2.63,1.84-3.8,2.94-.15.15-.33.11-.5.12"/>
      <path class="cls-1" d="m135.13,182.55c-.53-.56-1.26-.65-1.94-.79-.64-.13-1.27-.33-1.93-.4-.13-.01-.28-.02-.37-.13-.77-.87-1.92-.83-2.89-1.14-1.08-.35-2.27-.36-3.42-.1-.92.21-1.76.64-2.55,1.13-.28.17-.41.51-.45.86-.08.69-.37,1.32-.68,1.94"/>
      <path class="cls-1" d="m180.77,48.32c-.78-.47-.84-1.35-1.19-2.06-1.04-2.14-2.64-3.3-5.12-3.04-1.03.11-1.78.73-2.39,1.59-.57.8-.83,1.72-1.21,2.58-.55,1.27-.96,2.6-1.15,3.99-.04.28-.16.54-.24.81-.32.99-.37,2.03-.49,3.06-.06.51-.28.7-.76.62"/>
      <path class="cls-1" d="m138,76.54c.03-.21-.01-.41.05-.63.26-.86-.17-1.48-1.05-1.42-.91.06-1.13-.65-1.42-1.21-.49-.93-.38-1.91-.01-2.86.32-.82.58-1.69,1.26-2.32.1-.09.08-.38.03-.55-.14-.49-.32-.96-.49-1.44"/>
      <path class="cls-1" d="m146.06,162.2c-.29.97-.9,1.78-1.58,2.48-.46.47-1.2.55-1.85.64-.94.12-1.86-.07-2.74-.37-.75-.25-1.24-.23-1.61.39-.67,1.15-1.85,1.62-2.83,2.36-.12.09-.25.17-.37.25-1.14.8-1.68.52-2.68-.01-.69-.37-1.14-1.02-1.62-1.62-.04-.05,0-.16,0-.25"/>
      <path class="cls-1" d="m120.15,57.99c-.12.05-.25.1-.37.06-.87-.3-1.69-.02-2.5.25-.51.17-1.04.25-1.56.39-.75.2-1.32.77-2,1.11-.87.43-1.8.7-2.74.95-.23.06-.53.12-.64.53,1.02.29,1.98.82,3.15.3.52-.23,1.13-.27,1.68-.52,1.13-.51,2.16-1.14,2.99-2.07.31-.34.72-.56,1.06-.87"/>
      <path class="cls-1" d="m148.37,142.28c-.38-.79-.38-1.66-.54-2.5-.04-.23-.16-.44-.15-.68,0-.37.07-.67.37-.95.4-.37.49-.81.42-1.43-.25-2.14-1.68-3.37-3.22-4.55-.96-.74-2.05-1.09-3.24-.79-.56.14-.95.7-1.57.79"/>
      <path class="cls-1" d="m136.82,48.69c.03.53-.24.88-.61,1.26-1.32,1.36-2.94,2.27-4.57,3.18-1.28.71-2.37,1.69-3.5,2.61-.22.18-.44.39-.66,0"/>
      <path class="cls-1" d="m86.74,142.97c-.48-.17-.96.05-1.44,0-.78-.08-1.49-.46-2.25-.54-1.55-.16-2.47-1.16-3.38-2.26-.41-.5-.94-.88-1.61-1.01"/>
      <path class="cls-1" d="m102.35,58.43c-1.37-1.37-3.05-1.41-4.81-1.13-.33.05-.67.06-1,.05-.9,0-1.6.41-2.24.96-.38.32-.67.74-1.06,1.07-.33.28-.17.69-.13,1.05"/>
      <path class="cls-1" d="m74.13,55.06c-.15-.61-.64-.99-1.02-1.42-.89-.99-1.79-1.96-2.59-3.02-1.02-1.36-1.95-2.79-2.64-4.36-.06-.14-.09-.25,0-.38"/>
      <path class="cls-1" d="m139.75,200.66c.59-.07,1.15-.31,1.75-.31.31,0,.31-.29.43-.45.5-.66,1.19-1.17,1.57-1.93.53-1.06.64-2.22.72-3.37.02-.24.02-.44.22-.49,1.12-.29,1.53-1.22,1.92-2.14.11-.25.16-.44.45-.43.23.01.26-.16.31-.31.05-.13.11-.25.18-.38,1.13-1.97.43-2.32-1.24-2.92-.68-.24-1.5-.25-2.1.03-.72.34-1.37.95-1.58,1.83"/>
      <path class="cls-1" d="m153.74,31.58c-.8-.89-1.9-1.23-3-1.48-1.68-.38-3.24-.03-4.69.97-1.46,1.02-2.24,2.43-2.82,4.06-.71,1.98-.34,3.83.33,5.69.08.22.23.27.44.25"/>
      <path class="cls-1" d="m115.71,161.32c-.7-.6-1.6-.63-2.44-.72-.99-.11-1.99-.13-3,.03-1.32.21-2.42.86-3.15,1.91-.51.73-.99,1.38-1.78,1.79-.31.16-.66.01-.93.13-.88.38-1.65.12-2.44-.26-.79-.37-1.67-.43-2.5-.66-.84-.24-1.58-.65-2.36-.97-.54-.22-1-.66-1.62-.69"/>
      <path class="cls-1" d="m117.21,160.01c-.08-.13-.16-.24-.31-.32-1.19-.64-2.47-.82-3.81-.89-1.42-.07-2.63.35-3.89.97-.94.46-1.77.94-2.34,1.8-.32.47-.55.99-.82,1.49"/>
      <path class="cls-1" d="m136.51,109.94c-.23.07-.45.13-.74.22-.07.63-.3,1.22-.95,1.53-.29.14-.61.2-.94.19-.1,0-.18,0-.26-.12-1.04-1.69-1.63-3.51-1.67-5.5,0-.04.06-.12.05-.19"/>
      <path class="cls-1" d="m172.97,95.33c-.15-.02-.19-.11-.19-.25-.01-1.33-.14-2.66-.13-4,.02-2.06-.11-4.12-.08-6.18.03-1.98-.09-3.95-.03-5.93.05-1.59.12-3.2-.11-4.81-.15-1.08,0-2.2.02-3.31.04-1.31,0-2.62,0-3.93,0-2.25.02-4.5.03-6.74,0-1.04.06-2.08,0-3.12-.06-1.01-.65-1.18-1.34-1.25-.75-.08-1.5.18-2.25,0"/>
      <path class="cls-1" d="m152.74,149.59c-.1-.62-.2-1.25-.31-1.87-.17-.9-.8-1.49-1.44-2.06-1.02-.92-2.21-1.49-3.56-1.76-.24-.05-.46-.2-.69-.3"/>
      <path class="cls-1" d="m133.76,119.8c-1.02-.34-1.57-1.17-1.97-2.07-.27-.61-.6-1.2-.79-1.86-.41-1.4-.33-2.7.46-3.94"/>
      <path class="cls-1" d="m158.23,33.08c.57-.06,1.56.52,1.8,1.13.22.55.02,1.06-.37,1.49-.16.18-.32.35-.5.5-.45.37-1.06.59-1.06,1.31,0,.19-.16.24-.26.3-.8.49-1.05,1.25-1.13,2.13-.07.81-.59,1.45-.89,2.18-.41.97-.89,1.9-1.3,2.88-.28.68-.33.67-.87.38"/>
      <path class="cls-1" d="m130.32,179.74c-.79-.86-1.86-1.21-2.94-1.49-1.1-.29-2.24-.37-3.37-.19-.8.13-1.58.33-2.14,1.04-.34.43-.82.76-1.23,1.13-1.22,1.11-1.35,1.76-.63,3.25.03.06.04.12.06.19"/>
      <path class="cls-1" d="m72.45,46.07c.03-.89-.56-1.36-1.17-1.89-.85-.73-1.94-.66-2.89-1.04-1-.4-2.01-.74-3.06-1-.49-.12-.95-.23-1.39-.54-.38-.28-.96-.18-1.37-.51-.07-.06-.24,0-.38,0-.3.64-.41,1.3-.18,2,.04.13.16.29,0,.43"/>
      <path class="cls-1" d="m126.89,160.82c.3.13.63.08.94.05,1.19-.12,1.69.2,1.73,1.32.04.9.35,1.7.7,2.5.19.42.46.82.34,1.41.95-.5,1.84-.28,2.72-.28,1.56,0,2.84-.39,3.71-1.86.55-.92.78-1.96,1.34-2.86"/>
      <path class="cls-1" d="m130.51,166.51c-.66.43-1.28.91-1.89,1.42-.72.6-1.6.71-2.55.53-1.32-.24-2.5-.7-3.43-1.7"/>
      <path class="cls-1" d="m141.81,194.98c-.42,0-.86-.09-1.24.02-.73.2-1.5.32-2.19.66-.36.18-.68.37-.88.75-.47.9-1.24,1.56-2.01,2.16-.59.46-1.45.48-2.06,1-.17.15-.48-.13-.66-.3-.42-.37-.87-.52-1.38-.24-.46.25-.91,1.21-.81,1.68.02.07.12.13.18.19"/>
      <path class="cls-1" d="m95.36,161.32c.17.47-.06.82-.31,1.19-.81,1.21-1.78,2.23-3.25,2.54-.92.2-1.83.51-2.81.34-.38-.07-.6-.22-.72-.62.34-.22.6-.52.79-.89.24-.45.57-.71,1.18-.59.77.16.93.02,1.24-.67.02-.03-.01-.11,0-.12.91-.37.83-1.3,1.03-2.01.18-.63.61-1.06,1.01-1.38.36-.28.59-.67.96-.93"/>
      <path class="cls-1" d="m142.06,200.66c.52-.25,1.09-.05,1.63-.24,1.33-.48,2.49-1.45,2.68-3.07.08-.7.14-1.4.68-1.94.11-.11.2-.29.07-.49-.15-.23-.05-.5-.06-.75-.04-1.03.49-1.81,1.11-2.57.61-.75.84-1.68,1-2.62.08-.46,0-.87-.43-1.19-.89-.67-1.9-1.02-3-1.11-.33-.03-.56-.07-.77-.43-.6-1.06-1.68-1.42-2.79-1.61-.37-.06-.66-.17-.93-.4"/>
      <path class="cls-1" d="m168.72,56c-.37,1.24-.38,2.55-.68,3.81-.32,1.29-.45,2.63-.64,3.94-.11.78-.3,1.56-.32,2.36-.02.73-.28,1.45-.37,2.18-.14,1.06-.27,2.12-.38,3.18-.15,1.48-.07,2.99-.57,4.45-.19.56.01,1.24-.04,1.86-.14,1.58-.33,3.16-.49,4.75,0,.08.04.17.06.25"/>
      <path class="cls-1" d="m75.38,139.85c-.31.73-.76,1.02-1.5,1-.37,0-.75-.04-1.12.06-.08.02-.18.08-.25.06-1.41-.44-2.78.19-4.19.16-1.16-.02-2.27-.11-3.37-.47-.29-.09-.58-.18-.91-.28-.53.59-1.16,1.08-1.66,1.71-.41.51-.86,1.02-1.61,1.01-.18,0-.21.1-.19.25"/>
      <path class="cls-1" d="m99.17,182.93c-.2.64-.79.53-1.25.61-.41.07-.8.14-1.19.32-.66.31-1.38.13-2.05.06-1.08-.12-2.06-.53-2.88-1.29-.38-.36-.42-.76-.06-1.12.3-.3.41-.69.57-1.06.44-.99.8-2.04,1.61-2.81.33-.31.78-.39,1.18-.3.61.14,1.21.08,1.81.11.21.01.52-.1.47.31"/>
      <path class="cls-1" d="m146.12,186.61c.34-.63.18-1.17-.18-1.75-.56-.91-1.3-1.49-2.38-1.55-.47-.03-.8-.17-1.01-.63-.18-.39-.61-.6-.99-.68-2.13-.44-4.23-.42-6.24.55-.06.03-.11.05-.12.06-.23.2-.34.47-.44.74q-.44,1.12-.33,1.57c.48-.11.98-.08,1.17-.75.1-.36.66-.41.98-.47.84-.17,1.67-.51,2.55-.34.5.1,1.06,0,1.5.37"/>
      <path class="cls-1" d="m143.94,130.67c-.02-.71.01-1.41-.05-2.12-.05-.6-.26-1.14-.59-1.61-.47-.68-1.12-1.21-1.74-1.76-.01-.01-.04,0-.06,0-.75,0-.81-.57-1.1-1.1-.69-1.27-1.19-2.67-2.27-3.71-.9-.87-1.86-1.05-3.06-.56-.26.11-.49.09-.76-.05-.27-.14-.56-.03-.54.3.11,2.02.08,4.07,1.41,5.82.63.83,1.48,1.33,2.33,1.85.3.18.66.04.99.07"/>
      <path class="cls-1" d="m147.18,137.91c-.02-1.47-.74-2.57-1.88-3.43-.57-.43-1.1-.95-1.87-1.07-1-.15-1.6-.17-2.06.57"/>
      <path class="cls-1" d="m152.11,51.5c1.82.46,3.8-.74,4.15-2.37.22-1.04-.2-1.89-.43-2.81-.06-.24-.11-.56-.35-.76"/>
      <path class="cls-1" d="m65.2,41.95c.11-.27.13-.51.02-.82-.21-.55-.23-1.16-.36-1.74-.21-.96-.55-1.9-1.28-2.63-.1-.1-.2-.17-.31-.12-.59.29-1.26.16-1.87.34-.05.01-.08.06-.13.09"/>
      <path class="cls-1" d="m120.58,206.53c.16.4.5.6.87.75,1.36.53,2.75.5,4.12.05.79-.26,1.3-1.49.99-2.29-.15-.39-.49-.53-.93-.45-.68.12-1.34.05-1.94-.37-.36-.26-.64-.19-.87.25-.23.45-.74.7-.88,1.21"/>
      <path class="cls-1" d="m141.25,69.73c.71-.18.97-.84,1.36-1.32.64-.79,1.26-1.61,1.74-2.5.32-.6.6-1.28.42-2.05-.1-.41-.02-.87-.02-1.31"/>
      <path class="cls-1" d="m144.87,59.99c.35-.69.99-1.18,1.25-1.93.23-.67.43-1.35.49-2.06.07-.82-.63-1.72-1.31-1.87-.13-.03-.24-.07-.31-.19.63-1.14,1.15-2.34,1.87-3.44.32-.48.66-.96,1.07-1.36.2-.2.46-.23.8-.24,1.29-.06,2.6.28,3.87-.08,1.16-.33,2.04-.96,1.51-2.56-.06-.19,0-.41,0-.62"/>
      <path class="cls-1" d="m115.15,166.38c-.12.62-.55.87-1.12.87-1.96,0-3.67-.62-5-2.12-.28-.32-.58-.63-.87-.94"/>
      <path class="cls-1" d="m136.76,181.18s-.11.02-.12,0c-.67-1.06-1.76-1.34-2.88-1.55-.88-.16-1.79-.27-2.68-.01-.75.22-.76.23-.81,1.06"/>
      <path class="cls-1" d="m146.37,44.07c-.19.98-.84,1.72-1.39,2.49-1.26,1.76-3.09,2.82-5.06,3.53-1.05.38-2.3.54-3.23-.52"/>
      <path class="cls-1" d="m145.75,163.13c.2.3.4.6.63.94,1.42-.74,2.83-1.46,3.93-2.63.26-.28.2-.65.19-1-.02-.74.23-1.18.94-1.36.41-.1.73-.32.98-.59.46-.52.89-1.07,1.34-1.6.57-.67.22-1.37.13-2.01-.09-.68.04-1.49-.65-2,0,0,0-.04,0-.06.19-1.09-.73-1.56-1.26-2.22.25-.55.49-1.05,1.2-1.04.1,0,.21-.19.31-.3.7-.76.87-2.12.37-3.06-.25-.47-.47-.96-.66-1.45-.51-1.28-1.54-2.01-2.67-2.57-.46-.23-1.23-.22-1.78.04-.79.36-1.56.79-2.18,1.46-.61-.17-1.27-.31-1.95-.36"/>
      <path class="cls-1" d="m158.48,133.6c-1.31-.19-2.63-.2-3.94-.46-.74-.15-1.52-.29-2.3-.31-.94-.02-1.86-.32-2.81-.29-.48.01-.86-.52-1.45-.16-.41.25-.97-.13-1.48-.09"/>
      <path class="cls-1" d="m69.95,135.41c-.94-.71-1.97-.87-3.06-.43-.41.17-.81.29-1.25.31-.78.03-1.45.41-2.12.76-.4.21-.64.15-.95-.13-1.02-.95-2.16-1.09-3.44-.52-.5.23-1.08.29-1.62.46-.62.2-1.24.41-1.38,1.18"/>
      <path class="cls-1" d="m158.23,36.77c-.44-.56-.53-1.27-.86-1.88-.49-.94-1.37-1.18-2.27-1.42-.28-.07-.58.01-.81.19-.5.37-1.1.58-1.53,1.1-.23.28-.54.54-.97.67-.61.19-.92.86-1.45,1.22"/>
      <path class="cls-1" d="m108.78,159.89c-.51-1.39-1.65-2.14-2.95-2.59-.98-.34-2.02-.15-2.99.28-.31.14-.6.29-.84-.23-.21-.46-.74-.71-1.16-1.01-.44-.31-.91-.18-1.37-.07-.74.19-1.51.16-2.25.42-.96.33-1.79.89-2.65,1.39"/>
      <path class="cls-1" d="m115.15,182.55c.03.53-.11.88-.75.83-.13-.01-.3.08-.45.22-.86.78-1.8,1.49-3.04,1.38-1.69-.15-3.31-.58-4.71-1.65-1.18,1.29-2.62,1.32-4.15.91-.46-.12-.95-.22-1.37-.45-.23-.12-.55-.16-.58-.55-.02-.22-.29-.32-.49-.37-.92-.24-1.81-.52-2.81-.55-1.48-.04-2.97-.27-4.31-1.02-.14-.08-.29-.1-.44-.12"/>
      <path class="cls-1" d="m129.26,91.21c-1-.45-2.02-.84-3.06-1.18-1.68-.56-3.39-1.04-5.12-1.35-1.32-.24-2.62-.56-3.93-.82-.74-.15-1.54-.07-2.18-.58-1.24.05-2.38-.42-3.55-.71-1.71-.42-3.48-.48-5.18-.93-1.28-.33-2.59-.57-3.88-.82-.84-.16-1.74-.27-2.61-.29-1.09-.03-2.12-.45-3.18-.48-.66-.02-1.31-.11-1.93-.25-.87-.2-1.76-.31-2.63-.53-.95-.24-1.92-.22-2.87-.36-1.35-.2-2.71-.29-4.06-.49-1.01-.15-2.04-.12-3.06-.21-1.39-.12-2.79-.05-4.19-.16-1.41-.1-2.84,0-4.24.13-2.39.21-4.79.42-7.18.63-.69.06-1.41-.03-2.12-.04-.84,0-1.67.07-2.5.24-.32.06-.66,0-1,.01-3.04.17-6.08.11-9.12.12-.19,0-.37,0-.56.05-.22.06-.42,0-.37-.3"/>
      <path class="cls-1" d="m127.89,186.05c-.37-.57-1.03-.55-1.57-.66-.83-.16-1.54-.67-2.37-.76-.98-.12-1.57-.75-2.11-1.45-.11-.14-.21-.26-.38-.31"/>
      <path class="cls-1" d="m149.12,150.84c-.95.21-1.59-.36-2.17-.95-.44-.44-.78-.97-1.13-1.49-.42-.62-.68-1.28-.4-2.06.11-.32-.03-.71.08-1.06"/>
      <path class="cls-1" d="m44.79,113.65c-.59-.07-1.13.01-1.7.25-.65.27-1.39.26-2.06.56-.43.19-.8.39-1.11.72-.62.67-1.22,1.37-2,1.87"/>
      <path class="cls-1" d="m90.8,59.8c-.71-.72-1.54-1.3-2.33-1.91-1.09-.85-2.16-1.7-3.1-2.71-.41-.44-.45-1.08-.92-1.51-.86-.81-1.72-1.49-3.01-1.18-.34.08-.68-.07-1-.24.09-.21.19-.41.44-.47"/>
      <path class="cls-1" d="m95.99,142.03c.49-.72.23-1.38-.26-1.93-.82-.9-1.75-1.67-2.99-1.94-.56-.12-1.16-.25-1.56.37"/>
      <path class="cls-1" d="m138,117.56c.46-1.25.77-2.54.67-3.87-.09-1.17-.7-2.15-1.42-3.06-.03-.04-.12-.04-.18-.07"/>
      <path class="cls-1" d="m77.07,136.47c-.85.12-1.65-.24-2.5-.28-1.15-.05-2.25.08-3.3.48-.58.22-1.12.21-1.69.11"/>
      <path class="cls-1" d="m136.97,204.53c.64.27,1.25.11,1.84-.13,1.09-.44,2.08-1.07,2.93-1.87.64-.61.61-1.4,0-2.18"/>
      <path class="cls-1" d="m146.43,156.58c-.59.2-1.2.2-1.81.25-.83.06-1.58.44-2.37.62-1.02.23-1.67,1.03-2.5,1.56-.26.17-.55.32-.56.69,0,.08-.04.21,0,.24.63.55.48,1.4.8,2.07.33.7.56.87,1.26.68.7-.2,1.42-.11,2.12-.12.4,0,.76-.07,1.13-.24.48-.21.96-.34,1.56-.26.53.07,1.21-.22,1.67-.64.74-.66,1.69-.99,2.45-1.61.05-.04.16,0,.25,0"/>
      <path class="cls-1" d="m91.55,182.49c-.62.54-1.13,1.23-2,1.44-.5.12-.99.28-1.5.36-.62.1-1.91-.64-2.11-1.24-.22-.7-.8-.93-1.33-1.23-.17-.1-.37-.18-.56-.26-.53-.2-.98-.32-1.58.08-.85.57-1.82.17-2.58-.37-.35-.25-.78-.35-1.09-.65-.79-.78-1.54-1.58-2.06-2.56-.04-.08-.11-.19-.24-.19"/>
      <path class="cls-1" d="m135.76,104.26c.11-.48.54-.75.77-1.18.57-1.08.29-2.11-.09-3.13-.18-.48-.43-.94-.72-1.39-.28-.44-.39-.9-.11-1.5.73-1.54.78-3.11-.43-4.47-.45-.51-.8-1.16-1.54-1.41-.23-.08-.35-.49-.23-.72.13-.25.11-.6.41-.76"/>
      <path class="cls-1" d="m138.13,44.01c-.34-.22-.73-.11-1.06-.04-1.26.27-2.51.57-3.38,1.66-.18.23-.47.38-.67.58-.99.98-1.74,2.13-2.14,3.48"/>
      <path class="cls-1" d="m133.82,104.32c.6-.36,1.65-.23,2.12.25,1.37,1.37,1.56,3.07,1.31,4.87-.04.31-.31.43-.59.59-.13-.34-.22-.67-.22-1.03-.02-1.42-.33-2.41-2.06-3-.46-.16-.89-.33-1.39.04-.39.29-.92.04-1.28-.19-.34-.22-.66-.49-1.02-.65-.95-.43-1.4-1.25-1.73-2.14-.49-1.33-.59-2.72-.37-4.11.1-.63.46-1.18.99-1.56.39-.27.62-.79,1.18-.82"/>
      <path class="cls-1" d="m77.75,138.1c.37-.44.92-.63,1.38-.95.16-.11.42-.21.64-.04.49.38,1.1.46,1.66.53.57.07,1.15.2,1.75.16.66-.04.88-.18.93-.82.02-.35-.02-.69.31-.92-1.39-1.24-2.62-1.51-4.05-1.02-.64.22-1.29.41-1.93.63-.22.08-.43.09-.56-.13-.26-.43-.68-.7-1.13-.79-.97-.2-1.91-.59-2.93-.58-.1,0-.23-.04-.31,0-1.04.64-2.3.72-3.36,1.27-.43.22-.64.75-.64,1.29"/>
      <path class="cls-1" d="m106.85,58.56c.2.71-.02,1.42-.03,2.12-.01.7-.24,1.4-.1,2.12.04.2-.02.47-.19.48-.88.07-1.56.86-2.5.7-.17-.03-.38.01-.49-.07-.39-.3-.81-.23-1.19-.1-.66.23-1.32.33-2,.29-.16,0-.22.03-.19.19"/>
      <path class="cls-1" d="m122.15,178.62c-.14-.43-.51-.6-.88-.74-1.14-.46-2.35-.51-3.56-.55-.38-.01-.77.11-1.08.47-.26.3-.73.25-1.11.31-.37.07-.68.01-1.02-.34-.84-.87-1.97-1.12-3.16-1.09-1.01.03-1.97.19-2.88.68-1.13.61-2.13,1.36-2.78,2.46-.33.56-.65,1.2-.4,1.92"/>
      <path class="cls-1" d="m115.03,183.24c.59.61,1.34.63,2.12.71.86.09,1.67-.13,2.5-.15.13,0,.25-.06.37-.06.51-.01,1.13.34,1.25.68.1.31-.35,1.3-.69,1.5-.08.05-.17.12-.25.12-1.65.03-3.18-.27-4.3-1.63-.06-.08-.28-.25-.07-.43"/>
      <path class="cls-1" d="m144.81,62.43c.38-.54,1.04-.73,1.51-1.17,1.07-1.02,1.57-2.28,1.88-3.69.15-.68-.08-1.34.04-2"/>
      <path class="cls-1" d="m88.68,149.96c-.56.12-1.13.07-1.68.13-1.57.19-2.62,1.15-3.44,2.42-.03.05-.11.08-.12.13-.13,1.14-.99.98-1.75,1-.17,0-.33,0-.5,0"/>
      <path class="cls-1" d="m141.06,69.92c.23.74.26,1.47.15,2.25-.24,1.59-.99,2.86-2.14,3.93-.31.28-.66.43-1.06.5"/>
      <path class="cls-1" d="m132.2,47.5c.32.12.73.05.92-.09.68-.52,1.5-.66,2.27-.9.71-.22,1.2-.7,1.68-1.2.39-.4.75-.83,1.13-1.25.23-.25.53-.17.81-.19"/>
      <path class="cls-1" d="m151.3,33.77c-1.02-.14-2.03-.16-3.06-.08-1.3.09-2.12,1.31-1.83,2.52.18.74.07,1.55.4,2.27"/>
      <path class="cls-1" d="m74.2,40.7c.47-.61.27-1.3.04-1.86-.57-1.35-1.55-2.41-2.79-3.18-.32-.2-.7-.46-1.12-.14"/>
      <path class="cls-1" d="m106.54,63.36c.25.34.22.74.18,1.12-.08.9.04,1.79.01,2.69-.01.42-.12.8-.25,1.19-.31.88-1.32.92-1.87.55-.3-.2-.63-.35-.88-.62"/>
      <path class="cls-1" d="m106.04,67.67c-.74.13-1.5.14-2.18.5-.1.05-.2.07-.31.06-1.77-.04-3.53.24-5.31.12-1.28-.09-2.55-.17-3.82-.47-.69-.16-1.33-.44-1.99-.66-.1-.03-.17-.09-.25,0"/>
      <path class="cls-1" d="m141.56,125.11c.48-1.27.67-2.55.2-3.88-.14-.39-.32-.76-.58-1.05-.66-.71-1.3-1.46-2.12-2-.58-.38-1.21-.68-1.93-.77-1.28-.16-2.75.92-2.94,2.19"/>
      <path class="cls-1" d="m76.38,172.81c-.81.52-1.36,1.31-2.04,1.96-.6.57-1.32,1.13-1.41,2.1-.07.77.06,1.04.82,1.22.15.04.28.1.37.22"/>
      <path class="cls-1" d="m148.49,40.32c-.02-.28.19-.56-.08-.88-.21-.11-.45.09-.66.2-1.34.7-2.07,1.88-2.42,3.3-.1.39-.26.66-.58.87"/>
      <path class="cls-1" d="m130.26,43.76c.24.13.43.33.68.44.85.4.98.83.43,1.61-.35.5-.72.98-1.3,1.26-1,.47-1.78,1.32-2.82,1.73-1.23.49-1.39,1.56-1.55,2.63-.09.62-.13,1.27-.09,1.87.07,1.19-.07,2.37.04,3.57.14,1.46.43,2.96.03,4.43-.29,1.07-.72,1.64-2.05,1.65-1.05,0-1.83-.54-2.6-1.05-.45-.3-.42-.98-.4-1.53"/>
      <path class="cls-1" d="m122.33,166.82c-.39.31-.76.64-1.25.82-.99.35-1.95.05-2.87-.22-.59-.18-1.31-.36-1.57-1.09"/>
      <path class="cls-1" d="m78.57,52.87c-.57-.7-1.26-1.28-1.87-1.94-1.09-1.17-2.1-2.41-3.05-3.69-.25-.34-.59-.57-.84-.91-.06-.08-.29-.19-.54-.17-.58.04-1.19-.01-1.74-.18-.39-.12-.75-.18-1.13-.15-1.04.09-1.95-.26-2.88-.68-1.01-.45-2-1.02-3.18-.96-.04,0-.09.02-.12,0-1.14-.61-2.49-.85-3.38-1.93-.29-.35-.31-.73-.3-1.13.03-.9.16-1.79.12-2.68"/>
      <path class="cls-1" d="m141.75,190.29c-.14-.31-.31-.5-.68-.65-1.08-.43-2.22-.72-3.2-1.4-.82-.58-1.58-1.21-2.12-2.07"/>
      <path class="cls-1" d="m138.19,161.14c-1.24-.61-2.6-.85-3.94-1.1-.73-.14-1.5-.24-2.25.09-.29.13-.39.29-.37.57"/>
      <path class="cls-1" d="m134.32,198.91c-.43-.52-.88-1-1.49-1.32-.42-.22-.73-.25-1.14.06-.89.69-1.81,1.34-2.62,2.13-.16.16-.36.14-.62.1-1.34-.18-2.67-.67-4.05-.34-1.05.25-2.09.52-3.12.82-.57.16-1.15.26-1.7.53-.35.17-.71.3-.99.59-.28.3-.62.38-.93.12-.73-.62-1.66-.83-2.51-.94-.96-.12-1.97.07-2.94.48-.8.34-1.4.89-2.05,1.4"/>
      <path class="cls-1" d="m138.19,198.85c.9.39,1.79.15,2.44-.55.58-.63,1.06-1.3,1.31-2.13.06-.19.1-.39.05-.56-.13-.49-.02-.96.02-1.44.1-1.31-.94-2.33-1.94-2.5-.56-.09-.97-.46-1.37-.82-.4-.36-.81-.69-1.25-1-.71-.5-1.23-1.23-1.93-1.75-.34-.25-.28-.74-.45-1.11"/>
      <path class="cls-1" d="m154.05,46.32c-.83.71-1.59.09-2.37-.12-1.25-.33-2.08-1.11-2.63-2.25-.05-.1-.16-.17-.25-.25"/>
      <path class="cls-1" d="m77.5,140.91c-.39.45-.64,1-1.12,1.37-.88.68-1.35.72-2.25.25-.68-.36-1.34-.74-1.56-1.56"/>
      <path class="cls-1" d="m142.37,131.17c-.09-1.09-.26-2.15-.81-3.12-.2-.36-.39-.71-.69-1-.25-.23-.53-.38-.87-.25-.94.35-1.73.02-2.43-.57-.73-.61-1.1-1.46-1.31-2.37-.19-.82-.34-1.64-.2-2.5.07-.41.22-.76.39-1.12"/>
      <path class="cls-1" d="m135.63,116.62c-1.47-.64-2.24-1.87-2.74-3.31-.17-.5-.37-.89-.93-1.15-.79-.38-1.1-1.24-1.3-2.04-.23-.89-.32-1.81-.35-2.74-.02-.73.08-1.38.58-1.94"/>
      <path class="cls-1" d="m122.77,161.2c-.28-.48-.72-.74-1.25-.87-.87-.21-1.74-.45-2.62-.61-.45-.08-.93.03-1.37.18-.18.06-.34.12-.39.37-.08.48-.51.71-.87.93-.53.32-.76.68-.68,1.26.09.63.28,1.23.56,1.81.29.61.55,1.24.57,1.93"/>
      <path class="cls-1" d="m29.24,124.74c-.2-.27-.38-.56-.49-.88-.06-.17-.06-.41.12-.56.2-.17.38-.03.56.06.07.03.13.09.18.13.61.53.68.54,1.38.12.5-.3,1-.6,1.62-.44.77-.58,1.88-.44,2.57-1.24.6-.71.8-1.6,1.21-2.4.19-.38-.2-.83-.47-1.17-.62-.76-.66-1.35-.12-2.19.18-.28.69-.33,1.06-.06.78.57,1.3,1.31,1.38,2.31.04.48.19.93.35,1.38.13.37-.04.79-.16,1.18-.38,1.21-1.06,2.22-2,3.06-.36.32-.64.75-1.12.94-.76.3-1.44.2-2.06-.32-.18-.15-.29-.36-.53-.44"/>
      <path class="cls-1" d="m137.69,162.32c-.36-.31-.83-.32-1.25-.42-.99-.23-1.91-.71-2.93-.84-.75-.09-1.44-.35-2.26-.17-.59.13-1.28.05-1.92.18-.02,0-.04.04-.06.06"/>
      <path class="cls-1" d="m154.17,155.95c.75-.37.87-1.08,1.01-1.81.21-1.15.48-2.3-.02-3.43-.31-.69-.69-1.35-1.43-1.69"/>
      <path class="cls-1" d="m81.13,51.06c-.17-.56-.73-.85-1.13-.95-.96-.23-1.89-.67-2.92-.62-.43.02-.83.07-1.19.32"/>
      <path class="cls-1" d="m34.49,137.16c-.38-.51-.87-.93-1.37-1.31-.32-.24-.73-.27-1.07-.34-.85-.17-1.73-.53-2.61-.15-.21.09-.37-.08-.58.03-.5.27-.87.59-.87,1.2"/>
      <path class="cls-1" d="m90.12,139.03c-.84-.11-1.58-.5-2.37-.75-.73-.23-1.51-.08-2.26-.34-.47-.16-1-.22-1.49-.41"/>
      <path class="cls-1" d="m52.72,137.22c-.42-.56-2.01-1.08-2.62-.88-.09.03-.14.08-.18.13-.41.54-1.01.79-1.63,1-.58.2-.94.64-1.19,1.18-.18.39-.4.48-.82.26-1.53-.79-3.17-.99-4.86-.76-.19.03-.42-.14-.56.12"/>
      <path class="cls-1" d="m69.64,177.93c-.44.03-.78-.36-1.33-.16-.57.21-.82.57-1.05,1.04-.12.23-.08.61-.5.56-.33-.04-.54-.22-.7-.55-.33-.7-.33-1.48-.6-2.2-.12-.32.11-.65.3-.93.31-.44.47-.9.43-1.44"/>
      <path class="cls-1" d="m126.33,205.34c-.53.63-1.28.63-2,.68-.56.04-1.12.15-1.69.01-.12-.03-.27.03-.37-.07-.5-.52-.97-.15-1.29.15-.4.36-.83.57-1.33.66-.34.06-.47.37-.75.51-1.26.63-2.6,1.09-3.99.65-.91-.29-1.84-.63-2.64-1.21-.4-.29-.82-.59-1.37-.44-.24.07-.3-.14-.44-.25-.23-.16-.3-.57-.75-.39-.41.16-.61.42-.68.82-.01.08-.04.17-.06.25"/>
      <path class="cls-1" d="m106.16,181.74c-.48-.03-.91.01-1.32.36-.59.5-1.32.63-2.11.67-.71.03-1.41.1-2.12.09-.23,0-.39.14-.59.19"/>
      <path class="cls-1" d="m105.69,178.37c-.12-.28-.38-.2-.59-.25-1.09-.25-2.23-.03-3.31-.31-.7-.19-1.48-.03-2.13-.48-.13-.09-.37-.01-.55-.01"/>
      <path class="cls-1" d="m64.02,140.35c-.1-.21-.2-.42-.31-.62-.33-.62-.52-.63-1.14-.27-.16.1-.26.22-.36.34q-.96,1.12-2.31,1.62c-.17.06-.34.06-.5.05-.5-.03-.96.08-1.37.38"/>
      <path class="cls-1" d="m64.7,172.44c.33.52.42,1.14.65,1.7.09.23-.35.54-.65.66-.65.26-1.2.71-1.85.99-.99.43-1.46,1.31-1.2,2.46"/>
      <path class="cls-1" d="m139.94,158.76c-.22-.59-.7-.87-1.25-1.06-.65-.23-1.08.07-1.2.75-.12.71-.08,1.43-.3,2.12"/>
      <path class="cls-1" d="m145.25,144.9c-.62-.04-1.19-.27-1.75-.5-.7-.3-1.07-.85-1.06-1.62,0-.44-.09-.88.06-1.31.1-.3-.2-.41-.25-.63"/>
      <path class="cls-1" d="m100.79,66.92c0-.41-.33-.26-.5-.24-1.5.21-3,.28-4.49.09-.98-.12-1.95-.4-2.62-1.23"/>
      <path class="cls-1" d="m82.75,62.05c-.33.31-.68.05-1,0-1.53-.3-2.73-1.16-3.81-2.24-.04-.04-.04-.12-.07-.18"/>
      <path class="cls-1" d="m146.12,54.62c.29-.4.72-.42,1.12-.3.76.24,1.36.04,1.81-.58.84-1.13,1.33-2.42,1.57-3.81"/>
      <path class="cls-1" d="m126.89,160.45c.04.49-.2.71-.69.76-.39.04-.8.06-1.13.36-.07.06-.19.22-.38.08-.1-.07-.31-.06-.42.05-.49.47-1.05.92-1.29,1.57-.19.52-.36,1.06-.48,1.61-.28,1.27-1.61,1.94-2.79,1.51-.46-.17-.96-.29-1.36-.58-.39-.29-.75-.1-1.06.04-.19.09-.41.23-.57.41"/>
      <path class="cls-1" d="m133.13,104.26c-.52,0-.79-.39-.99-.76-.71-1.29-1.27-2.64-1.02-4.18.05-.33.18-.64.33-.93.16-.31.17-.55-.07-.82-.42-.48-.64-1.08-.55-1.68.22-1.46.22-2.97.79-4.38.13-.32.37-.61.25-1"/>
      <path class="cls-1" d="m29.05,141.78c-.62.16-1.23.25-1.87.1-.64-.16-1.29-.29-1.94-.41-.44-.08-.75-.37-.98-.7-.2-.28-.31-.61-.04-1,.23-.34-.3-1.09-.73-1.1-.25,0-.54-.14-.75.11"/>
      <path class="cls-1" d="m140,134.16c-.55-.41-1.24-.5-1.82-.86-1.03-.65-1.54-1.6-1.82-2.75-.15-.62-.23-1.26-.42-1.88-.19-.6-.39-1.21,0-1.81"/>
      <path class="cls-1" d="m90.62,181.43c-.43.66-1.1.8-1.81.95-1.02.23-2.04.1-3.06.11"/>
      <path class="cls-1" d="m94.17,148.21c-.02,1.17-.11,2.33.1,3.5.12.69-.13,1.32-.9,1.7-.85.42-1.63.95-2.63.92-.34-.01-.65-.2-1-.13"/>
      <path class="cls-1" d="m148.56,155.86c-.02-.26-.19-.45-.38-.59-.48-.34-.55-.92-.79-1.39-.12-.24.05-.55.23-.8.35-.49.82-.85,1.26-1.24.56-.5.62-.77.18-1.31-.19-.23-.4-.43-.62-.63-.83-.76-1.06-1.74-1.13-2.81-.04-.59.12-1.22-.3-1.75"/>
      <path class="cls-1" d="m71.82,28.34c-.02-1.05-.5-1.97-.82-2.93-.14-.4-.71-.57-1.24-.44-1.04.26-1.8,1.04-1.85,2.12-.04.96-.45,1.82-.6,2.74-.18,1.1-.34,2.19-.3,3.31.02.49.37.46.69.43.91-.09,2.07.34,2.29,1.01.22.68.45,1.37.41,2.12-.02.34.1.6.4.9.79.79,1.52,1.68,1.52,2.91"/>
      <path class="cls-1" d="m140.5,132.73c.05-.76-.6-.88-1.06-1.19-1.2-.8-2.14-2.13-1.87-3.74"/>
      <path class="cls-1" d="m151.12,38.58c.5,0,.22.34.18.5-.27,1.07-.75,2.03-1.48,2.88-.42.49-.85.98-1.07,1.62"/>
      <path class="cls-1" d="m121.83,162.14c-.24-.35-.63-.45-1-.56-1.07-.32-2.11-.75-3.25-.82-.19-.01-.35-.13-.5-.24"/>
      <path class="cls-1" d="m118.46,204.34c-.28.39-.66.31-1.06.26-1.12-.14-2.23-.31-3.31-.68-.31-.11-.57-.23-.74-.44-.02-.33.23-.47.32-.69.29-.74.49-.84,1.24-.56.82.31,1.63.64,2.43,1,.31.14.62.18.94.18"/>
      <path class="cls-1" d="m152.36,50.19c.18.45-.13.81-.27,1.18-.19.48-.39.97-.62,1.43-.64,1.28-1.81,2-3.04,2.63-.21.11-.34,0-.31-.24"/>
      <path class="cls-1" d="m18.69,131.04c-.15,1.39-.49,2.76-.38,4.18.06.84.42,1.36,1.26,1.52.08.02.06.1.16.1-.25.49-.4.97.09,1.38.5.42,1.49.49,2,.19.31-.18.32-.45.31-.75"/>
      <path class="cls-1" d="m95.11,152.71c-.02-.25.07-.44.31-.57.69-.37,1.14-1,1.55-1.63.41-.62.01-1.93-.8-1.99"/>
      <path class="cls-1" d="m172.47,39.14c-.54-.33-1.16-.34-1.75-.36-1.02-.03-2.01-.2-3-.45-.65-.17-1.34.02-2-.13-1.58-.36-3.2-.48-4.81-.62-.71-.06-1.41.2-2.12.12-.23-.03-.47.06-.69-.06"/>
      <path class="cls-1" d="m117.03,54.43c-.71-.07-1.38.18-1.99.46-.92.42-1.74,1.05-2.69,1.41-.07.03-.15.07-.18.12-.74,1.31-2.01,2.3-2.46,3.76-.22.73-.5,1.53-.31,2.36.1.42-.02.9-.09,1.3-.2,1.23-.17,2.46-.12,3.69.04,1.05-.17,2-.59,2.93-.17.36-.48.62-.87.68-.94.14-1.84.16-2.63-.55-.59-.53-1.29-.94-1.81-1.56-.22-.26-.23-.48-.12-.76"/>
      <path class="cls-1" d="m95.36,141.84c-.46-.64-.71-1.41-1.36-1.95-.66-.55-1.38-.87-2.2-1.04-.04,0-.1.02-.12,0-.55-.48-.99-.1-1.44.19"/>
      <path class="cls-1" d="m43.73,120.93c1.16-.28,2.02-1.11,3.1-1.64-.33-.53.14-1.26-.45-1.7-.96.05-1.9.14-2.83.15-.63,0-1.22.13-1.68.52-.82.71-1.64,1.4-2.69,1.74-.11.04-.05.16-.06.25"/>
      <path class="cls-1" d="m35.36,118.93c-1.18-.16-2.37-.17-3.56-.23-.98-.05-1.81.48-2.62.98"/>
      <path class="cls-1" d="m111.59,182.99c-.49.68-1.26.62-1.93.6-.93-.03-1.79-.35-2.38-1.16-.03-.04-.12-.04-.18-.07"/>
      <path class="cls-1" d="m76.94,170.13c.43-.18.63-.76,1.06-.77.37-.01.73.04,1.13-.01.73-.09,1.3-.35,1.62-1.03.19-.4.56-.68.7-1.12.09-.3.06-.66-.09-.79-.41-.34-.42-.77-.48-1.17,1.06-1.22,2.57-2.03,3.26-3.49.43-.9,1.08-1.03,1.85-1.17.12-.02.3,0,.37-.07.35-.42.82-.52,1.32-.55.95-.05,1.66-.78,2.56-.93,1.03-.17,2.09-.38,3.12.05"/>
      <path class="cls-1" d="m137.63,116.5c0-.25,0-.5.06-.75.28-1.4.02-2.7-.81-3.87"/>
      <path class="cls-1" d="m81.19,155.21c-.4.43-.33,1-.41,1.5-.1.66-.31,1.19-.76,1.7-.35.4-.81.74-.98,1.35.42.16.73.46.9.88"/>
      <path class="cls-1" d="m96.05,147.96c-.35-.52-.23-1.08.02-1.55.61-1.18.34-2.14-.58-3"/>
      <path class="cls-1" d="m140.63,68.05c-.09.65.52,1.07.54,1.7-1.34.92-3.42.16-4.04-1.07-.09-.18-.16-.37-.31-.5"/>
      <path class="cls-1" d="m43.41,119.24c-.24,1.17-.88,1.95-2.06,2.32-.76.24-1.46.67-2.25.86-.41.1-.81.12-1.19-.13"/>
      <path class="cls-1" d="m69.39,136.66c-1.28-.22-2.54-.45-3.82.1-.37.16-.66.4-.98.59-.85.5-1.62,1.14-2.62,1.38-.47.11-.89.17-1.31-.04-.03-.35.14-.6.38-.71.73-.33,1.02-1.12,1.68-1.52.07-.04.09-.16.13-.24"/>
      <path class="cls-1" d="m55.84,142.28c-1.51-.29-2.97-.05-4.43.31"/>
      <path class="cls-1" d="m48.53,142.16c-.53.17-.9.47-1.22.98-.45.72-1.12,1.16-2.1,1.11-.99-.05-1.96-.1-2.87-.53-.5-.24-.84-.56-.69-1.19.03-.14.03-.3-.06-.44"/>
      <path class="cls-1" d="m63.83,41.39c.07-.28-.02-.52-.19-.75-.6-.83-1.13-1.73-1.82-2.49-.45-.49-.69-1.1-.94-1.65-.22-.48.24-1.02.64-1.42.76-.77,1.57-1.39,2.75-.94.27.1.55-.06.81-.13.64-.19,1.33-.17,1.94-.49"/>
      <path class="cls-1" d="m142,140.72c-.43-.85-1.14-1.49-1.69-2.24-.52-.72-.96-1.45-.8-2.38.1-.58.42-1.1.5-1.69.03-.26.31-.28.49-.3.28-.03.55-.05.86-.15.16.74.34,1.46.48,2.2.12.64.29,1.25.64,1.82.24.4.3.91.43,1.37.14.51.32,1,.6,1.42.51.75.5,1.71,1.03,2.46.18.25-.01.67.14.99"/>
      <path class="cls-1" d="m135.94,89.59c.36-.41.86-.64,1.21-1.1.5-.66.66-1.4.7-2.15.05-.9-.06-1.8-.29-2.68-.06-.25-.17-.47-.38-.62"/>
      <path class="cls-1" d="m137.54,83.09c.36-.41.86-.64,1.21-1.1.5-.66.66-1.4.7-2.15.05-.9-.06-1.8-.29-2.68-.06-.25-.17-.47-.38-.62"/>
      <path class="cls-1" d="m100.86,66.8c.57-.52,1.3-.21,1.94-.36.25-.06.51-.04.68-.26-.35-.45-.86-.53-1.37-.71-1.3-.46-2.56-.52-3.88-.12-.58.18-1.2.27-1.81.25-.81-.03-1.68.21-2.39-.48-.11-.1-.41-.03-.54.12-.21.23-.44.35-.76.31"/>
      <path class="cls-1" d="m20.94,126.42c-.53-.22-1.07-.22-1.63-.07-.36.09-.62.21-.68.61.6.3,1,.77,1.17,1.41.07.27.28.35.45.36.63.02,1.11.35,1.63.63.25.14.54.22.84.34.5-.39.43-1.01.52-1.53.19-1.04-.04-2.02-.6-2.94-.38-.62-1.5-.9-2.13-.5"/>
      <path class="cls-1" d="m91.24,146.28c-.47.32-.64.74-.57,1.31.03.28.1.61-.11.87-.17.21-.05.44.01.62.32.93.13,1.83-.06,2.75-.16.83-.81,1.35-1.14,2.06"/>
      <path class="cls-1" d="m26.56,123.24c-.28-.07-.16-.34-.25-.5-.47-.83-1.21-1.03-2.06-.56-.65.36-1.01,1.1-.81,1.69"/>
      <path class="cls-1" d="m128.58,86.03c.34-.43.18-.96.3-1.44.23-.91.55-1.8.67-2.74"/>
      <path class="cls-1" d="m47.54,137.72c-1.15-.81-2.47-.88-3.81-.94-.63-.03-1.24.17-1.87.13-.46-.03-.75.3-1.06.56"/>
      <path class="cls-1" d="m148.62,43.38c-.74-.23-1.47.32-1.5,1.12-.03.84.27,1.63.4,2.49-.74.31-1.58.54-2.23,1.18-.54.54-.83,1.18-.91,1.89-.12,1.06.02,2.13.18,3.18.03.21.16.43.36.56"/>
      <path class="cls-1" d="m145,54.12c-.37.56-.92.95-1.33,1.49-.6.79-.83,1.7-.97,2.63-.07.47.02.96-.07,1.43"/>
      <path class="cls-1" d="m50.66,83.09c-1.56-.18-3.07-.55-4.56-1.05-.28-.09-.56-.24-.87-.2"/>
      <path class="cls-1" d="m94.74,143.16c-.46-.67-.92-1.35-1.56-1.87-.78-.63-1.58-1.25-2.37-1.87"/>
      <path class="cls-1" d="m145,186.49c-.63.48-1.43.6-2.08,1.09-.66.5-1.13,1.01-1.23,1.84-.01.11-.12.21-.18.31"/>
      <path class="cls-1" d="m130.2,201.28c-1.15.83-2.14,1.86-3.25,2.75-.22.18-.46.34-.56.63"/>
      <path class="cls-1" d="m29.18,141.16c-.33-.47-.88-.34-1.31-.41-.93-.15-1.81-.39-2.62-.9-.29-.18-.59-.3-.94-.25"/>
      <path class="cls-1" d="m136.19,185.05c0,.19.05.4-.07.56-.78,1.13-1.8,1.94-3.18,2.18-.75.13-1.16-.09-1.49-.81-.16-.34-.39-.47-.76-.5-.72-.07-1.46.02-2.13-.36-.25-.14-.58-.16-.74.18-.15.31.1.53.31.68.65.45,1.42.59,2.18.75.46.1.59-.36.87-.56"/>
      <path class="cls-1" d="m137.54,92.33c-.12.54.01,1.08-.02,1.62-.05.92-.24,1.83-.68,2.6-.28.49-.53,1.28-1.39,1.21"/>
      <path class="cls-1" d="m75.38,58.87c-.49-.15-.95-.06-1.44.06-1.09.27-1.71.09-2.55-.67.18-.62.63-1.04,1.13-1.36.37-.24.32-.42.17-.71"/>
      <path class="cls-1" d="m135.01,99.26c-.37,1.21-.14,2.46-.3,3.69-.04.31-.16.61-.14.93"/>
      <path class="cls-1" d="m120.65,179.31c-1.08-.41-2.12-.94-3.31-1.05-.21-.02-.46-.13-.63-.33"/>
      <path class="cls-1" d="m90.43,148.46c-.42-.06-.58-.46-.87-.69-.43-.35-.61-.23-.83.31-.35.87,0,1.66.23,2.43.22.74.03,1.22-.53,1.63-.57.41-1.17.77-1.56,1.38"/>
      <path class="cls-1" d="m100.79,158.39c-.91-.89-1.93-1.17-3.19-.78-.48.15-.55.61-.96.83-.65.36-1.18.98-1.62,1.68-.5.8-1.16,1.49-1.56,2.38-.23.51-1.41.69-2.04.45"/>
      <path class="cls-1" d="m126.7,160.76c-.69-.57-1.49-.42-2.24-.23-1.23.3-2.14,1.09-2.89,2.1-.28.37-.33.8-.47,1.2-.09.25.05.56.42.62.63.09,1.25.3,1.88-.05.12-.07.4-.18.55.05.13.21.08.41-.05.62-.35.54-.82.97-1.32,1.37"/>
      <path class="cls-1" d="m106.35,177.68c-.4-.27-.82-.5-1.18-.82-1.24-1.1-2.64-.98-4.06-.54-.55.17-1.2.24-1.44.92"/>
      <path class="cls-1" d="m141,61.61c-1.11,1.03-1.75,2.3-1.87,3.81-.05.72.08,1.4.55,2,.59.77,1.06.66,1.68.23,1.17-.8,1.77-2.73,1.46-4.17-.17-.79-.51-1.44-1.27-1.73-.77-.29-.97-.92-1.17-1.58-.04-.14-.13-.21-.2-.31"/>
      <path class="cls-1" d="m67.2,188.8c.58-.3.87-.97.55-1.49-.26-.43-.4-.94-.86-1.27-.28-.2-.41-.48-.21-.87.3-.58.45-1.24,1.07-1.62.29-.18.16-.56.17-.8,0-.6.05-1.22-.01-1.81-.06-.58-.48-1.12-.83-1.63"/>
      <path class="cls-1" d="m82.37,161.26c-.27.81-1.01,1.17-1.64,1.6-.34.24-.77.41-1.09.67-.46.36-.87.26-1.33.11"/>
      <path class="cls-1" d="m126.83,201.16c-.35-.45-.81-.17-1.18-.1-.74.13-1.47.37-2.19.61-.55.19-.96.56-1.06,1.18"/>
      <path class="cls-1" d="m77.5,158.26c.94-.47,1.76-1.07,1.92-2.19.09-.59,0-1.21.02-1.81.02-.67.31-1.09.81-1.19.62-.13.87.07.87.69,0,.29,0,.58,0,.87,0,.23.02.44.27.54,1.14-.24,2.46-.08,3.23-1.29-.08-.15-.06-.33-.19-.44"/>
      <path class="cls-1" d="m88.49,140.53c0,.41-.29.66-.57.87-.86.62-1.15,1.54-1.36,2.51-.05.21.07.37.24.5.22.17.55.21.67.05.79-1.06,1.95-1.76,2.75-2.81.22-.29.37-.67.16-1.12-.18-.41-.23-.89-.22-1.36.02-.51-.12-.98-.49-1.38-.74-.78-1.48-1.56-2.63-1.75"/>
      <path class="cls-1" d="m92.86,57.43c-1.03-.29-2.06-.33-3.12-.14-.44.08-.7.27-.87.64"/>
      <path class="cls-1" d="m29.05,135.29c-.53-.96-1.51-1.1-2.44-1.3-.4-.09-.83-.05-1.25-.07"/>
      <path class="cls-1" d="m107.72,204.16c-.32.74-1.05.88-1.69,1.03-.4.09-.86-.04-1.31.07-.32.08-.53.15-.69.46-.37.72-.96,1.08-1.8,1.01-.58-.05-1.17.1-1.75-.07-1.09-.33-2.17-.62-3.08-1.41-.7-.61-1.42-1.21-2.17-1.77"/>
      <path class="cls-1" d="m59.96,184.11c-.24-.72.09-1.34.3-2,.19-.6.7-1.11.58-1.81"/>
      <path class="cls-1" d="m28.46,137.35c-.11-.77-.86-.87-1.36-1.16-.73-.43-1.57-.6-2.42-.73-1.01-.15-1.64.24-1.74,1.27-.02.2-.14.36-.13.56"/>
      <path class="cls-1" d="m100.98,158.51c-.25.51-.66.72-1.37.48-.83-.28-1.69-.45-2.5-.79"/>
      <path class="cls-1" d="m150.49,142.03c.06-1.01-.13-1.9-1.06-2.5-.53-.35-.88-.92-1.44-1.24"/>
      <path class="cls-1" d="m73.38,142.41c-.26.33-.64.37-1,.3-1.33-.27-2.66-.29-4-.06-1.14.2-2.23-.07-3.31-.38-.23-.06-.46-.08-.69-.17-.55-.22-.53-.78-.75-1.2"/>
      <path class="cls-1" d="m79.31,155.58c-.91-.18-1.8-.51-2.75-.38-.52.07-.98.22-1.38.61-.42.41-.13.89-.24,1.32"/>
      <path class="cls-1" d="m88.24,164.7c-.37-.21-.79-.22-1.19-.24-1.27-.08-2.55.05-3.81.2-.62.08-1.22.38-1.88.23"/>
      <path class="cls-1" d="m137.88,199.04c-.68.19-1.19.66-1.68,1.13-.71.69-1.61.95-2.5,1.25-.75.25-1.46-.03-2.19-.07-.27-.02-.45-.2-.62-.37"/>
      <path class="cls-1" d="m72.01,165.88c.02-.37-.12-.68-.38-.93-.57-.56-.98-1.27-1.74-1.64-.21-.1-.44-.3-.44-.61"/>
      <path class="cls-1" d="m107.79,160.45c-.28-.38-.65-.56-1.12-.57-.37,0-.7-.19-1.06-.26-.47-.09-.87-.05-1.19.33"/>
      <path class="cls-1" d="m147.12,36.08c.26-.2.52-.1.81-.05.63.11,1.22.35,1.87.37.36.01.71.07.46.68-.39.98-.4,2.06-.46,3.11"/>
      <path class="cls-1" d="m113.28,203.47c-1.11.04-1.87.66-2.5,1.5-.19.25-.58.29-.69.62"/>
      <path class="cls-1" d="m132.7,89.84c-1.41-1.04-1.96-2.48-2.15-4.18-.13-1.22.4-2.12.96-3.06"/>
      <path class="cls-1" d="m83.19,136.6c-.16-.03-.33.02-.5-.05-.86-.35-1.71-.04-2.55.1-.14.02-.25.22-.38.33"/>
      <path class="cls-1" d="m88.68,154.33c.2-.22.41-.46.75-.37.38.11.33.48.36.75.12.87.15,1.77-.44,2.48-.58.7-1.26,1.3-2.1,1.71-.66.33-.68.47-.38,1.18"/>
      <path class="cls-1" d="m130.57,165.94c-.51-.15-.99-.06-1.5.04-.6.11-1.26.11-1.86,0-1-.18-2-.13-3-.2"/>
      <path class="cls-1" d="m123.02,51.87c-.46.81-1.18.77-1.94.56-.61-.17-1.19-.2-1.75.18-.36.24-.83.24-1.25.37-.7.22-1.15.61-1.31,1.33"/>
      <path class="cls-1" d="m26.68,124.49c.98.1,1.28-.63,1.54-1.32.2-.52.39-1.05.65-1.55.29-.56.07-1.18.29-1.76.1-.25-.44-.51-.66-.3-.7.7-1.47,1.38-1.14,2.55.08.29.09.54-.24.76-.6.41-.81.97-.46,1.68.08.17.03.42-.05.62"/>
      <path class="cls-1" d="m143.81,193.1c.43-.56.84-1.14,1.18-1.75.19-.34.31-.71.06-1.05-.26-.35-.62-.08-.93-.06-.35.03-.6.3-.87.5-.18.14-.1.33.12.43"/>
      <path class="cls-1" d="m94.11,148.09c.22-.36.52-.65.74-1,.4-.65.56-1.37.26-2.12-.16-.4-.15-.87-.5-1.19"/>
      <path class="cls-1" d="m111.34,201.35c-.17-.29-.38-.46-.75-.51-1.45-.21-2.86-.21-4.25.3-.36.13-.77.27-1.18.27-.27,0-.46.12-.62.31"/>
      <path class="cls-1" d="m88.87,150.52c-.77.55-1.73.74-2.51,1.3-.41.3-.79.68-1.3.83-.15.04-.29.13-.44,0"/>
      <path class="cls-1" d="m94.92,144.78c-.9.57-2,.76-2.81,1.5-.89.8-.95,1.05-.37,2.06"/>
      <path class="cls-1" d="m82.25,181.49c-.22-.48-.71-.49-1.12-.67-.93-.39-1.72-1-2.52-1.62-.57-.44-.58-1.08-.92-1.58.06-.42.63-.45.66-.89"/>
      <path class="cls-1" d="m37.17,144.09c-.56-.12-1.12-.25-1.69-.38-.78-.18-1.51-.51-1.97-1.14-.38-.52-.75-.45-1.14-.22-.6.35-1.29.45-1.89.79-.37.21-1.25-.27-1.37-.67-.15-.54.12-1,.69-1.19.49-.16,1.05-.18,1.38-.68.12-.18.39.03.56-.13"/>
      <path class="cls-1" d="m144.68,62.43c-.22-.18-.25-.44-.31-.69-.23-.91-.86-1.57-1.38-2.31-.03-.05-.18.04-.24-.07"/>
      <path class="cls-1" d="m153.18,153.08c-.78.88-1.45,1.86-2.43,2.57-.23.16-.31.42-.07.68.12.13.21.29.32.43"/>
      <path class="cls-1" d="m73.26,175.62c-.35-.38-.87-.47-1.25-.81-.26-.22-.58-.37-.74-.69-.21-.4-.56-.58-1-.62"/>
      <path class="cls-1" d="m73.7,163.82c-.58.07-.93-.31-1.24-.69-.5-.61-1.05-1.12-1.88-1.17-.16-.01-.18-.13-.24-.2-.23-.24-.46-.42-.82-.44-.48-.02-.76-.39-.98-.75-.09-.14-.04-.38.11-.55.25-.28.89-.44,1.25-.24.6.34,1.2.29,1.81.12"/>
      <path class="cls-1" d="m32.74,123.24c.17.89.08,1.06-1,1.49-.43.17-.88.34-1.29.54-.52.25-.79.86-1.15,1.34-.35.47-.56,1.02-.99,1.45-.55.56-1.02.65-1.69.24"/>
      <path class="cls-1" d="m28.87,124.36c-.65.26-.89.81-1.07,1.43-.14.51-.16,1.15-.93,1.19"/>
      <path class="cls-1" d="m135.82,85.59c-.75.23-1.39-.2-2.06-.38-.6-.16-1.3-.12-1.75-.68"/>
      <path class="cls-1" d="m133.91,82.22c-.41-.58.95-.26,2.54,1.13"/>
      <path class="cls-1" d="m84.68,175.75c.19-.71-.41-1.1-.77-1.41-1.25-1.06-2.64-1.93-4.22-2.47-.34-.12-.69.07-1-.12"/>
      <path class="cls-1" d="m80.38,52.25c-.12,0-.27-.04-.37,0-1.39.67-2.6,1.58-3.69,2.67-.2.2-.26.43-.25.69"/>
      <path class="cls-1" d="m63.89,180.18c-.26.27-.53.26-.88.14-.89-.31-1.8-.54-2.31-1.45"/>
      <path class="cls-1" d="m94.42,157.89c-.83-.9-1.92-.86-3-.8-.4.02-.83.04-1.18.2-.34.16-.56.04-.82-.08"/>
      <path class="cls-1" d="m31.86,140.28c.61-.25,1.06-.74,1.62-1.07.34-.2.27-.88-.12-.97-.83-.2-1.48-.79-2.31-.95-.91-.18-1.78-.6-2.75-.38"/>
      <path class="cls-1" d="m95.92,148.21c.42.93-.02,1.7-.51,2.43-.21.31-.53.55-.8.82"/>
      <path class="cls-1" d="m102.29,58.62c-.15.25-.4.16-.62.19-.89.1-1.65.44-2.18,1.19-.27.38-.57.57-1.07.51-.49-.05-.88.36-1.37.44-.33.05-.66.19-1,.22-.16.01-.32.07-.36.15-.53.85-1.42.68-2.2.79-.38.05-.72.1-1,.39"/>
      <path class="cls-1" d="m114.84,178.18c-.33.87-.46.95-1.24.49-1.05-.61-2.16-.73-3.31-.48-1.02.22-1.94.71-2.74,1.38-.46.38-.98.71-1.28,1.28-.16.3-.56.16-.85.01"/>
      <path class="cls-1" d="m75.88,178.68c.03-.63.55-1.01.78-1.55.32-.74.51-1.46.47-2.26"/>
      <path class="cls-1" d="m128.64,200.03c-.07.49-.5.8-.82.9-1.32.43-2.28,1.43-3.48,2.04-.42.21-.56.69-.82,1.05"/>
      <path class="cls-1" d="m95.99,201.41c-.7-.55-1.46-.87-2.37-1.03-1.17-.21-2.26-.09-3.38.2-.35.09-.74-.04-1.12-.04-.45,0-.76.11-.77.68,0,.59-.72.85-1.29.49-.19-.12-.34-.33-.5-.49"/>
      <path class="cls-1" d="m85.06,158.33q1.03.14,1.44-.75c.13-.28.34-.47.62-.64.81-.51,1.46-1.15,1.57-2.17.05-.48-.07-.6-.49-.43-.46.19-.86.14-1.25-.13"/>
      <path class="cls-1" d="m122.27,202.91c-.6.25-1.26.42-1.8.77-.59.39-1.25.34-1.86.54"/>
      <path class="cls-1" d="m61.77,137.1c-.93-.61-1.98-.63-2.99-.41-.83.18-1.63.47-2.5.41-.08,0-.16,0-.25.05-.77.46-1.6.5-2.43.25-.97-.29-1.79.29-2.68.42-.22.03-.52.09-.75.22"/>
      <path class="cls-1" d="m34.8,138.1c.75.92-.05,2.76-1.38,3.04-.34.07-.68-.25-1.06-.3-.52-.08-.58-.49-.57-.93,0-.12-.04-.25-.06-.39.35-.43.71-.86,1.06-1.29"/>
      <path class="cls-1" d="m140.44,124.74c-.43.19-.87-.05-1.31.04-.71.15-1.39.29-1.87.89"/>
      <path class="cls-1" d="m134.32,184.99c-.17.17-.34.32-.5.5-.45.52-1,.89-1.69.99-.26.04-.42.21-.62.32"/>
      <path class="cls-1" d="m85.71,152.4c.52.29.73.82,1.02,1.29.13.21.17.48.09.78-.24.85-.21,1.71.05,2.56"/>
      <path class="cls-1" d="m97.42,177.56c.51-.3,1.1.05,1.74-.22-.4-.72-1.04-1.11-1.74-1.19-1.22-.14-2.45-.23-3.68-.14-.26.02-.51.14-.76.27-.82.41-1.58.91-2.3,1.47"/>
      <path class="cls-1" d="m123.08,57.81c.09-.24.19-.45-.25-.45-.64,0-1.28-.12-1.94-.06-.53.05-1.01.13-1.31.63"/>
      <path class="cls-1" d="m85.81,204.34c-.7.08-1.23-.38-1.8-.65-.33-.16-.39-.68-.49-1.04-.17-.61-.11-1.24.23-1.81"/>
      <path class="cls-1" d="m72.7,166.26c-.52-.33-1.13-.24-1.69-.36-.93-.2-1.92.37-2.3,1.23-.13.3-.25.64.06.93"/>
      <path class="cls-1" d="m68.58,170.19c-.97.35-1.7,1.02-2.3,1.82-.22.29-.42.23-.64.14-.39-.17-.64-.08-.82.29"/>
      <path class="cls-1" d="m147.31,153.89c-.56.37-.85.98-1.31,1.43-.1.1-.07.21-.06.31.06.47.81,1.04,1.24.93.36-.09.77-.16,1.05-.39.38-.31.74-.27,1.14-.17"/>
      <path class="cls-1" d="m76.38,165.26c-.15-.68-.14-1.38-.28-2.07-.09-.47.12-1.02.54-1.36.32-.26.6-.58.99-.76.41-.19.53-.6.41-.93-.21-.6-.22-1.26-.58-1.83-.16-.26-.35-.4-.59-.44-1.12-.23-2.16-.61-3.06-1.34-.31-.26-1.06-.03-1.15.37-.08.35-.32.34-.52.46"/>
      <path class="cls-1" d="m88.99,175.72c-.39-.07-.79-.07-1.19-.14-.53-.09-1.06.06-1.5.42"/>
      <path class="cls-1" d="m133.57,91.27c-.39.36-.87.51-1.37.63-.39.1-.64-.19-.93-.33-.23-.11-.39-.37-.64-.49-.12.15-.23.31-.37.45-1.17,1.23-1.39,2.8-1.39,4.37,0,.53-.07,1.19.33,1.69"/>
      <path class="cls-1" d="m40.23,137.72c-.32-.72-1.03-.98-1.66-1.23-1.05-.41-2.03.04-2.96.54"/>
      <path class="cls-1" d="m70.2,171.63c0-.29.15-.52.31-.75.38-.55.68-1.13.75-1.81"/>
      <path class="cls-1" d="m60.52,143.12c-.59-.27-1.27-.3-1.85-.64-.08-.05-.24-.11-.26-.15-.4-.73-1.08-.59-1.7-.53-.24.02-.44,0-.55-.15-.25-.33-.59-.34-.95-.37-.57-.05-.99.12-1.19.69"/>
      <path class="cls-1" d="m46.54,118.56c-.56-.04-1.08.06-1.63.21-.66.18-1.32.53-2.05.35"/>
      <path class="cls-1" d="m83.25,159.95c-1.21-.23-2.42-.29-3.62.06"/>
      <path class="cls-1" d="m74.26,160.14c-.33-1.11-.77-2.16-1.69-2.93"/>
      <path class="cls-1" d="m25.31,133.79c.12-.29.07-.54-.18-.75-.42-.35-.73-.81-1.25-1.07-.32-.16-.58-.44-.38-.86.13-.29.05-.49-.18-.69-.23-.2-.4-.45-.5-.74"/>
      <path class="cls-1" d="m107.85,202.22c-.87,0-1.69.31-2.56.31"/>
      <path class="cls-1" d="m66.7,179.43c-.04.52-.54.74-.76,1.15-.02.04-.19.15-.37.05-.4-.24-.85-.33-1.3-.39-.19-.03-.32-.16-.46-.35-.53-.72-1.46-.97-2.11-1.57-.2-.19-.42,0-.62.11-.21.13-.26.51-.62.38"/>
      <path class="cls-1" d="m74.01,163.26c-.21.59-.42,1.17-.46,1.81-.02.36-.12.75-.54.94-.42.2-.29.47,0,.67.09.06.15.16.24.19.56.23.7.71.75,1.25"/>
      <path class="cls-1" d="m113.97,183.43c-.24-.31-.61-.38-.94-.36-1.14.07-2.07-.58-3.12-.84-.3-.07-.58-.05-.88-.05"/>
      <path class="cls-1" d="m107.94,202.34c-.02-.44.37-.38.6-.42.44-.08.87.08,1.24.31.36.23.5.55.21.99-.29.43-.5.89-1.13.81-.46-.06-.88.18-1.4-.15-.67-.42-1.55-.35-2.34-.21-.42.08-.82.24-1.25.23-1.21-.01-2.42.07-3.62.25-.12.02-.25.02-.37,0-.61-.09-.93-.69-1.61-.81-.58-.1-.99-.79-1.07-1.5"/>
      <path class="cls-1" d="m87.06,135.85v.12c-.87-.01-1.74.38-2.62.06"/>
      <path class="cls-1" d="m63.27,187.05c-.28-.41-.66-.77-.69-1.31-.02-.37-.39-.27-.57-.43-.37-.32-.7-.68-1.12-.94-.52-.33-1.06-.18-1.56-.03-.32.09-.38.52-.31.85.05.23.09.37-.2.38"/>
      <path class="cls-1" d="m80.88,166.07c-.44.8-1.36.96-2.02,1.47-.54.42-.8.87-.79,1.52,0,.07.01.14-.06.19"/>
      <path class="cls-1" d="m88.74,138.91c-.21.3-.58.26-.88.37-.73.28-1,.83-.67,1.53.41-.2.81-.44,1.3-.34.22.04.4-.14.49-.31.2-.38.54-.55.88-.74"/>
      <path class="cls-1" d="m91.49,181.62c-.65-.21-1.22-.54-1.69-1.05-.31-.33-.31-.64-.12-1.01.22-.45.55-.83.82-1.24.1-.16.24-.3.24-.5"/>
      <path class="cls-1" d="m158.55,32.96c-.04-.28.05-.55.14-.8-.67-.78-1.49-.93-2.45-.77-.51.08-1.05.09-1.55,0-.57-.11-.87.11-.98.59-.05.21-.33.26-.27.49"/>
      <path class="cls-1" d="m146.62,191.48c-.3-.32.02-.7-.11-1.07-.25-.7-.28-.75-1.14-.74"/>
      <path class="cls-1" d="m132.07,79.28c-.19.18-.32.39-.45.62-.33.58-.73,1.12-1.49,1.19"/>
      <path class="cls-1" d="m147.18,195.04c1.2-.63,1.33-1.42.25-2.19"/>
      <path class="cls-1" d="m50.1,137.72c.02.29,0,.58-.25.74-.73.47-.85,1.33-1.32,1.91-.68.19-1.43.13-1.81.96-.2.42-.75.57-.98,1.01"/>
      <path class="cls-1" d="m123.02,57.93c-.35.12-.63.38-.86.63-.43.47-.88.91-1.32,1.36"/>
      <path class="cls-1" d="m78.44,167.69c-.58-.62-.58-1.35-.45-2.12.05-.27.07-.57-.27-.75-.76.3-1.54.52-2.01,1.39-.22.39-.76.63-.91,1.18-.07.27-.08.51.08.68.28.3.4.68.62,1.01"/>
      <path class="cls-1" d="m91.3,177.12c-.43-.85-1.32-1.04-2.07-1.43-.15-.08-.21.09-.18.24"/>
      <path class="cls-1" d="m83.31,158.83c.42-.04.69.27.47.54-.4.48-.47,1.12-.85,1.58-.24.28-.46.27-.82.09-.67-.35-1.43-.34-2.17-.33-.06,0-.13.07-.19.12-.67.65-1.25,1.33-1.38,2.31-.08.6-.3,1.17-.49,1.75"/>
      <path class="cls-1" d="m56.21,141.84c.04.23-.28.25-.26.5.04.43-.28.64-.62.74-1.08.31-2.19.42-3.31.38-.22,0-.42-.13-.56-.31"/>
      <path class="cls-1" d="m134.76,99.83c-.34-.22-.42-.59-.57-.93-.11-.26-.19-.57-.55-.63-.42-.07-.71.06-.81.5"/>
      <path class="cls-1" d="m23.37,131.48c-.33-.02-.68.01-1-.07-.54-.15-.94.04-1.31.39"/>
      <path class="cls-1" d="m74.07,195.91c-.57.27-1.19.37-1.81.36-.48,0-.86.13-1.19.45"/>
      <path class="cls-1" d="m101.48,202.41c.09-.46-.18-.69-.56-.81-.6-.18-1.22-.36-1.81.06"/>
      <path class="cls-1" d="m109.53,206.81c-.63-.13-1.2.18-1.81.24-1.36.14-1.69-.07-1.75-1.4,0-.13-.04-.25-.06-.37"/>
      <path class="cls-1" d="m74.32,195.54c-.05-.54-.28-1.03-.38-1.56-.07-.35-.42-.57-.86-.36-.28.13-.48.15-.69-.02-.24-.19-.1-.41,0-.62"/>
      <path class="cls-1" d="m73.88,163.13c-.37-.61-.79-1.21-.57-2,.04-.14.03-.28-.17-.39-.25-.14-.52-.28-.77-.4-.42-.19-.67-.34-.57-.9.1-.61-.59-1.43-1.16-1.56-.61-.14-1.35.57-1.23,1.25.05.32.04.63.05.94"/>
      <path class="cls-1" d="m26.12,125.05c.6.12.67.53.71,1.06.05.7-.28,1.26-.45,1.88-.03.12-.09.16-.19.19-.71.22-.95.83-1.27,1.42-.27.5-.54,1.12-1.29,1.14"/>
      <path class="cls-1" d="m74.13,163.07c.64-.76.61-1.42-.12-2.12"/>
      <path class="cls-1" d="m65.7,180.74c0,.58-.56,1-.45,1.62.07.37.1.73-.03,1.13-.17.53-.37,1.03-.77,1.43"/>
      <path class="cls-1" d="m77.94,171.88c.04-.29-.08-.52-.25-.75-.51-.73-1.28-1.22-1.81-1.94-.1-.13-.24-.08-.31-.05-.75.29-1.6.25-2.31.68"/>
      <path class="cls-1" d="m70.76,40.57c-.16-.81-.15-1.64-.37-2.44-.05-.19.02-.39.12-.56"/>
      <path class="cls-1" d="m151.3,159.01c-.23-.69-.06-1.44-.3-2.13,0,0,.12-.06.18-.09"/>
      <path class="cls-1" d="m60.96,187.61c.1-.61-.28-1.28-.81-1.44-.27-.08-.41.18-.62.25"/>
      <path class="cls-1" d="m74.63,198.04c.04-.44-.24-.79-.35-1.18-.25-.92-.16-1.2.73-1.62.46-.22.92-.43,1.5-.22.39.14.87.1,1.3-.04"/>
      <path class="cls-1" d="m91.55,146.46c-.46-.87-.99-1.71-1.27-2.68-.14-.48-.32-.97-.54-1.44"/>
      <path class="cls-1" d="m94.11,65.11c.14-.46.61-.53.95-.73,1.22-.74,1.37-1.36.49-2.51-.04-.06-.08-.14-.18-.13"/>
      <path class="cls-1" d="m90.87,205.34c.62.57,1.34.83,2.18.9.39.03.75-.03,1.13-.05.26-.01.43-.31.43-.6,0-.45.01-.91-.25-1.37.41-.44,1.01-.81,1-1.56"/>
      <path class="cls-1" d="m153.74,32.58c-.52-.06-.99-.34-1.57-.08-.66.29-.97.81-.68,1.46.09.2.27.38.25.62"/>
      <path class="cls-1" d="m23.75,138.66c.3-.4.23-.88-.03-1.16-.27-.29-.75-.31-1.16-.08-.1.06-.19.14-.31.12"/>
      <path class="cls-1" d="m40.79,138.1c-.27-.28-.55-.31-.94-.2-.81.22-1.63.02-2.43-.12-.44-.07-.87-.22-1.31-.17-.38.04-.63-.34-1.04-.25-.03.84-.82.93-1.34,1.3"/>
      <path class="cls-1" d="m99.29,60.3c.17.08.33.19.5.24.18.05.25.19.3.32.15.36-.43,1.47-.8,1.63-.55.22-1.1.45-1.69.56-.32.06-.54.26-.69.56-.22.44-.53.6-.93.19"/>
      <path class="cls-1" d="m65.2,186.3c.32.12.62.26.76.62.07.2.25.32.43.45.57.4.82,1.3.57,1.99"/>
      <path class="cls-1" d="m63.14,191.42c-1.08-.35-1.71.37-1.95,1.31-.2.75-.14,1.37.39,1.94.25.27.15.68.32,1"/>
      <path class="cls-1" d="m75.44,171.81c-.92.25-1.01.12-1.46-.74-.45-.86-1.01-1.69-1.79-2.32"/>
      <path class="cls-1" d="m26.31,123.18c-.19.05-.36.15-.56.13-1.26-.14-2.62.58-3.18,1.68"/>
      <path class="cls-1" d="m41.54,142.91c-1.25.06-2.47-.18-3.68-.43-.22-.05-.46-.16-.69,0"/>
      <path class="cls-1" d="m134.82,97.7c-.5-.58-1.13-.94-1.87-1.12"/>
      <path class="cls-1" d="m63.33,193.79c-.6-.08-1.01.2-1.31.69-.08.13-.15.27-.31.31"/>
      <path class="cls-1" d="m70.01,196.6c-.27-.57-.76-.93-1.2-1.36-.52-.5-.97-.96-1.66-1.23-.27-.11-.55-.22-.8-.33-.74-.31-1.61.03-2.27-.52"/>
      <path class="cls-1" d="m147.56,151.21c-.12.37-.16.76-.29,1.13-.08.23-.09.54.17.74"/>
      <path class="cls-1" d="m102.54,160.01c-.16-.26-.42-.36-.69-.44-.42-.11-.8-.26-1-.69"/>
      <path class="cls-1" d="m23.19,134.04c.02.1-.07.14-.13.19-1.02.94-1.23,2.08-.83,3.4-.82-.36-1.66-.51-2.48-.71"/>
      <path class="cls-1" d="m37.23,144.22c0-.07-.01-.18.06-.18.72.04,1.41-.23,2.12-.26.49-.02.8-.24.87-.75"/>
      <path class="cls-1" d="m140.31,162.76c-.19.7-.81,1.15-1.06,1.81"/>
      <path class="cls-1" d="m151.3,38.58c.67-.82.62-1.93,1.12-2.81.08-.14-.05-.29-.12-.43"/>
      <path class="cls-1" d="m139.57,200.53c-.25-.04-.48-.15-.75-.13-.27.01-.62.11-.74-.24-.14-.4-.27-.85,0-1.24.29-.42.51-.88.87-1.25.14-.15.27-.29.12-.5"/>
      <path class="cls-1" d="m18.88,128.86c-.1-.26-.3-.45-.43-.69-.19-.36-.26-.74.12-1.06"/>
      <path class="cls-1" d="m95.3,202.59c-.43-.14-.81-.05-1.19.19-.9.56-1.82.47-2.75.06"/>
      <path class="cls-1" d="m70.39,169.57c-.04-.33.07-.67-.12-1-.23-.39-.72-.7-1.13-.62-.41.07-.58.43-.36.87.13.27.19.48.05.76-.5.99.24,2.26,1.43,2.07.07-.01.17.08.25.12"/>
      <path class="cls-1" d="m80,204.28c0-.32-.04-.64.16-.94-.34-.11-.66-.1-.97-.17-.72-.15-1.19-.52-1.31-1.14-.11-.57.11-.95.81-1.37"/>
      <path class="cls-1" d="m76.01,168.94c.74-1.03.71-1.67-.12-2.56"/>
      <path class="cls-1" d="m62.52,185.52c.35-.52,1.28-.88,1.73-.57.33.22.52.64.76.98.07.1.13.21.19.31-.58.71-1.5.7-2.25,1.05-.58.27-1.16.56-1.87.41-.31-.06-.56.24-.49.6.12.63.28,1.25.44,1.87.05.19.07.38.05.56-.03.4.05.74.44.94"/>
      <path class="cls-1" d="m75.94,178.12c-.53,0-1.04.07-1.56.17-.21.04-.19.13-.18.26"/>
      <path class="cls-1" d="m105.54,160.45c-.23.06-.48-.03-.61-.14-.65-.51-1.38-.22-2.07-.3-.24-.03-.37.1-.5.25-.21.25-.48.36-.81.31"/>
      <path class="cls-1" d="m47.47,142.66c-.09-.07-.19-.14-.31-.12-.5.08-1,.07-1.5-.05-.48-.12-.84.04-.87.61"/>
      <path class="cls-1" d="m143.69,193.23c-.68.77-.76.79-1.56.5"/>
      <path class="cls-1" d="m79.5,201.1c.6-.19,1.21-.37,1.85-.58.05-.36,0-.55-.47-.64-.48-.1-.91-.24-1.38-.03"/>
      <path class="cls-1" d="m84.81,160.76c-.16-.32,0-.6.13-.87.13-.26.33-.5.3-.82"/>
      <path class="cls-1" d="m91.05,203.03c-.98.12-1.88.53-2.8.84-.21.07-.45,0-.63.16"/>
      <path class="cls-1" d="m83.37,201.1c-1.14.51-2.2,1.15-3.12,2"/>
      <path class="cls-1" d="m82.37,175.43c0-.23-.06-.43-.25-.56-.94-.64-3.15-1.22-4.23-.54-.53.33-1.1.44-1.64.66"/>
      <path class="cls-1" d="m48.72,142.09c-.23-.31-.16-.68-.1-1,.05-.27-.02-.44-.15-.63"/>
      <path class="cls-1" d="m92.3,62.61c-.66.33-1.21.85-1.94,1.06"/>
      <path class="cls-1" d="m84.18,199.22c-.09-.94-.73-1.69-.9-2.62-.05-.25-.39-.49-.78-.51-1.4-.1-2.8-.41-4.19.07-.09.03-.21,0-.31,0"/>
      <path class="cls-1" d="m46.97,140.72c-.68-.41-.32-1.02-.31-1.56"/>
      <path class="cls-1" d="m71.76,198.1c-.35.2-.72.3-1.12.25-.13-.01-.32-.07-.31.18"/>
      <path class="cls-1" d="m20.94,128.67c.21-.68.47-1.33.14-2.07-.21-.46-.09-1.01-.36-1.51-.17-.29-.56-.36-.59-.73"/>
      <path class="cls-1" d="m75.38,157.58c-.3.57-.47,1.16-.38,1.81.01.08.03.17-.06.25-.51.44-.88,1.07-1.63,1.18"/>
      <path class="cls-1" d="m118.71,204.03c-.26-.36-.48-.69-.21-1.2.17-.31-.04-.71-.17-1.05"/>
      <path class="cls-1" d="m73.26,193.48c-.15-.34-.4-.54-.74-.7-.51-.23-.99-.53-1.46-.82-.31-.19-.33-.5-.6-.67-.63-.4-1.28-.7-2.06-.94,0-.13-.04-.34.06-.55"/>
      <path class="cls-1" d="m67.95,175.43c-.53-.06-.76-.33-.69-.87.03-.29.05-.6-.14-.91-.52.27-1,.72-1.66.48"/>
      <path class="cls-1" d="m21.94,128.73c-.04-.61.27-1.34-.56-1.69"/>
      <path class="cls-1" d="m89.93,198.91c-.59-.18-1.21-.11-1.81-.18-.47-.06-.86.16-1.25.37-.47.25-.93.43-1.5.26-1.01-.29-1.13-.2-1.81.86"/>
      <path class="cls-1" d="m83.81,203.72c-.69.41-1.45.28-2.18.24-.64-.04-.77.09-.56.7"/>
      <path class="cls-1" d="m76.51,195.48c-.15.2-.02.42-.06.63-.07.44-.17.83-.62,1.07-.31.17-.37.58-.57.86"/>
      <path class="cls-1" d="m78.78,201.16c-.1-.27.02-.54.03-.77-.67-1.2-1.61-1.98-3-2.1"/>
      <path class="cls-1" d="m105.91,66.36c-.21,0-.42.01-.62,0-.52-.04-1.01-.03-1.31.5-.09.16-.27.24-.43.31"/>
      <path class="cls-1" d="m75.38,171.5c-.32-.51-.79-.69-1.37-.62"/>
      <path class="cls-1" d="m138.07,200.41c-.35.43-.32.93-.31,1.44"/>
      <path class="cls-1" d="m83.19,199.91c-.09-.35-.11-.72-.24-1.06-.13-.34-.08-.66.37-.75"/>
      <path class="cls-1" d="m66.83,195.29c-.4-.07-.79-.27-1.19,0-.58-.4-1.33-.23-1.94-.56-.33-.19-.19-.55-.31-.81"/>
      <path class="cls-1" d="m66.83,189.79c-.4.26-.94.02-1.31.37"/>
      <path class="cls-1" d="m69.76,175.31c-.18.19-.35.34-.34.69.02.57-.3,1.08-.6,1.56"/>
      <path class="cls-1" d="m34.99,137.35c-.59-.19-1.35.17-1.75.81"/>
      <path class="cls-1" d="m147.18,144.84c0,.27-.02.51-.37.5-.4-.01-.8,0-1.18-.07-.2-.04-.4-.21-.28-.48.06-.15-.05-.22-.1-.31"/>
      <path class="cls-1" d="m68.14,199.53c-.01-.44.03-.82.42-1.14.22-.18.24-.55.2-.86"/>
      <path class="cls-1" d="m25.18,128.8c-.19-.12-.42-.1-.55.01-.45.38-.98.37-1.51.43"/>
      <path class="cls-1" d="m76.32,196.79c.28-.02.59.07.78-.12.1-.56-.08-1.02-.16-1.5"/>
      <path class="cls-1" d="m67.76,175.5c.1.44-.33.87,0,1.31"/>
      <path class="cls-1" d="m63.21,190.04c-.08.43-.06.87-.06,1.31"/>
      <path class="cls-1" d="m148.31,48.38c-.43-.33-.55-.84-.73-1.32.21-.09.43-.17.67-.05"/>
      <path class="cls-1" d="m137.25,48.57c-.68.23-1.05-.39-1.59-.56"/>
      <path class="cls-1" d="m131.76,82.53c-.41.01-.62-.27-.81-.57-.11-.18-.22-.34-.44-.37"/>
      <path class="cls-1" d="m136.76,110.06c.05.21.38.33.19.63-.24.38.42.95-.25,1.25"/>
      <path class="cls-1" d="m133.38,99.08c-.63-.2-1.2-.51-1.75-.87"/>
      <path class="cls-1" d="m44.85,142.66c-.79-.14-1.59.01-2.37-.12-.3-.05-.48.24-.75.25"/>
      <path class="cls-1" d="m69.82,175.18c.07-.55-.21-1.17.36-1.64.12-.1,0-.38-.12-.48-.47-.38-.41-.84-.24-1.32"/>
      <path class="cls-1" d="m75.57,199.29c-.2-.34-.1-.71-.12-1.06"/>
      <path class="cls-1" d="m84.06,202.28c-.03-.35.06-.71-.06-1.06"/>
      <path class="cls-1" d="m37.11,142.59c-.28-.5-.85-.29-1.25-.49-.33-.16-.77-.22-.5-.76"/>
      <path class="cls-1" d="m78.82,171.19c-.11.42-.15.79-.81.8-.36.01-.74.52-1.18.7-.24.1-.4.09-.57-.13-.26-.34-.76-.48-.78-1"/>
      <path class="cls-1" d="m100.11,64.05c-.47-.11-.42-.5-.36-.81.06-.29,0-.51-.11-.75"/>
      <path class="cls-1" d="m72.76,166.63c-.25.38-.17.83-.27,1.25-.24,1.04-.79,1.28-1.8.88-.1-.04-.21-.04-.31-.06"/>
      <path class="cls-1" d="m86.06,205.4c-.13-.44-.35-.86-.01-1.32.07-.09.04-.29-.05-.43"/>
      <path class="cls-1" d="m110.47,62.43c-.1-.35-.06-.71-.06-1.06"/>
      <path class="cls-1" d="m70.7,191.86c-.59.52-1.36.51-2.06.68-.49.12-1,.18-1.5.26-.35.05-.74.17-.81-.37"/>
      <path class="cls-1" d="m60.52,188.11c-.31.04-.73.34-.75-.31"/>
      <path class="cls-1" d="m69.76,174c-.31-.26-.64-.34-1.06-.27-.49.09-.98-.36-1.5-.05"/>
      <path class="cls-1" d="m77.19,196.54c.97-.35,1.01-.45.72-1.75"/>
      <path class="cls-1" d="m87.06,201.78c-.07.33-.12.67,0,1"/>
      <path class="cls-1" d="m67.26,194.23c-.28.41-.46.83-.13,1.31.16.24.19.5,0,.75"/>
      <path class="cls-1" d="m150.49,151.08c-.37-.31-.78-.22-1.19-.12"/>
      <path class="cls-1" d="m75.82,199.97c-.39-.09-.81-.07-1.19-.08-.96-.03-1.3-.57-1.5-1.35"/>
      <path class="cls-1" d="m92.36,203.03c0-.33-.02-.67.06-1"/>
      <path class="cls-1" d="m105.35,203.53c-.04-.33.1-.69-.12-1"/>
      <path class="cls-1" d="m19.81,128.61c-.4.35-1.09.19-1.38.82.85.67,1.53,1.57,2.31,2.37.48.49.95,1.02,1.58,1.28.51.22,1.03.4,1.49.71.14.09.32.11.43.05.39-.23.76-.07,1.13.01"/>
      <path class="cls-1" d="m91.18,202.16c-.63-.44-1.35-.38-2.06-.37-.29,0-.56-.05-.81-.19"/>
      <path class="cls-1" d="m24.06,139.91c-.31.02-.66.08-.56-.44"/>
      <path class="cls-1" d="m112.22,63.92c-.57,0-1.04-.22-1.44-.62"/>
      <path class="cls-1" d="m78.88,175.06c.12-.3.21-.61.19-.94"/>
      <path class="cls-1" d="m59.71,187.17c-.07-.37-.12-.74-.44-1-.2-.16-.16-.42-.25-.62"/>
      <path class="cls-1" d="m66.52,185.42c-.58-.25-1.17-.5-1.75-.75"/>
      <path class="cls-1" d="m64.95,194.42c-.04-.32-.42-.51-.31-.87"/>
      <path class="cls-1" d="m80.81,165.13c-.34-.07-.66-.06-1,.05-.6.2-1.21,0-1.81-.11"/>
      <path class="cls-1" d="m68.7,199.04c-.36.07-.7-.1-1.06-.07-.28.03-.39-.23-.42-.43-.03-.2-.08-.27-.27-.25"/>
      <path class="cls-1" d="m30.93,140.41c-.23-.25-.53-.18-.81-.19"/>
      <path class="cls-1" d="m85.81,202.28c0-.27-.03-.55.06-.81"/>
      <path class="cls-1" d="m106.41,181.62c.08.04.17.08.25.13.55.29.54.33.2.88-.14.22-.35.36-.51.56"/>
      <path class="cls-1" d="m66.2,195.04v-1.25"/>
      <path class="cls-1" d="m104.35,201.97c.05-.28-.14-.53-.12-.81"/>
      <path class="cls-1" d="m78.94,204.03c.23-.23.19-.53.19-.81"/>
      <path class="cls-1" d="m77.75,201.78c-.23-.05-.39.18-.63.13-.14-.02-.33.05-.36-.14-.03-.17.17-.2.3-.25"/>
      <path class="cls-1" d="m95.17,152.15c-.49-.64-1.1-.57-1.75-.31"/>
      <path class="cls-1" d="m48.97,143.47c0-.27-.03-.55.06-.81"/>
      <path class="cls-1" d="m72.51,196.41c.22.46.12.92,0,1.37"/>
      <path class="cls-1" d="m83.31,153.33c.88.28,1.25.15,1.56-.56"/>
      <path class="cls-1" d="m75.51,59.43c-.17.25.06.5,0,.75"/>
      <path class="cls-1" d="m70.45,195.04c-.27-.2-.21-.48-.19-.75"/>
      <path class="cls-1" d="m68.33,196.29c-.02.2-.22.11-.31.19.05-.12-.23-.14-.07-.32.16-.19.04-.45.07-.68"/>
      <path class="cls-1" d="m93.3,205.15c-.11-.24-.04-.5-.06-.75"/>
      <path class="cls-1" d="m103.41,202.22c-.05-.25.2-.52-.06-.75"/>
      <path class="cls-1" d="m91.43,198.54c-.09.22-.05.48-.19.69"/>
      <path class="cls-1" d="m121.46,206.65c0-.26.02-.51-.22-.69"/>
      <path class="cls-1" d="m84.68,197.29c-.22.35.03.97-.62,1.06"/>
      <path class="cls-1" d="m86.49,198.85c-.09-.22-.24-.43-.19-.69"/>
      <path class="cls-1" d="m91.05,204.84c-.21-.13-.47,0-.77-.18.07.33-.05.59-.1.86"/>
      <path class="cls-1" d="m80.44,201.66c.13-.24-.14-.45-.06-.69"/>
      <path class="cls-1" d="m71.51,199.22c-.17.17-.41.29-.44.56"/>
      <path class="cls-1" d="m92.36,200.16c-.01-.21.04-.42-.06-.62"/>
      <path class="cls-1" d="m86.62,203.84c-.07-.2-.1-.37.05-.57.1-.14.02-.36-.23-.36"/>
      <path class="cls-1" d="m87.68,204.78c-.02-.23-.29-.42-.12-.69"/>
      <path class="cls-1" d="m85.43,203.66c-.26.14-.07.38-.12.56"/>
      <path class="cls-1" d="m93.55,202.28c-.06.21-.13.42,0,.62"/>
      <path class="cls-1" d="m89.24,201.22v-.62"/>
      <path class="cls-1" d="m89.49,180.3c-.31.18-.43-.03-.56-.25"/>
      <path class="cls-1" d="m89.55,202.66c-.15.18-.23.39-.19.62"/>
      <path class="cls-1" d="m69.76,192.23v-1.25"/>
      <path class="cls-1" d="m71.14,192.6c-.09.16-.04.41-.31.44"/>
      <path class="cls-1" d="m80.06,195.29c-.09.18-.06.37-.06.56"/>
      <path class="cls-1" d="m103.17,204.53c.09-.18.06-.37.06-.56"/>
      <path class="cls-1" d="m69.45,198.66c-.28.03-.36-.14-.37-.37"/>
      <path class="cls-1" d="m89.68,205.4c0-.19.03-.38-.06-.56"/>
      <path class="cls-1" d="m19.31,130.92c-.21.21-.39.14-.56-.06"/>
      <path class="cls-1" d="m147.12,36.2c-.13-.34-.42-.12-.62-.19"/>
      <path class="cls-1" d="m71.76,196.23c0-.31-.1-.66.31-.81"/>
      <path class="cls-1" d="m75.57,194.42c-.09.18-.06.37-.06.56"/>
      <path class="cls-1" d="m75.63,165.88c-.12-.17-.13-.37-.19-.56"/>
      <path class="cls-1" d="m115.15,200.53c0-.21,0-.42-.25-.5"/>
      <path class="cls-1" d="m76.13,196.54c.01-.24-.27-.3-.31-.5"/>
      <path class="cls-1" d="m70.57,157.33c-.09.16-.06.33-.06.5"/>
      <path class="cls-1" d="m68.58,176.31c.09-.15.16-.31.12-.5"/>
      <path class="cls-1" d="m61.96,186.42c-.02-.17-.38-.11-.25-.37"/>
      <path class="cls-1" d="m62.08,189.67c0-.2-.03-.37-.25-.44"/>
      <path class="cls-1" d="m89.68,197.66c-.16.06-.33.16-.37-.12"/>
      <path class="cls-1" d="m67.02,197.22c-.14.21-.63.11-.5.56"/>
      <path class="cls-1" d="m91.12,198.35c-.08.17-.17.33-.25.5"/>
      <path class="cls-1" d="m75.38,167.44c-.11-.15-.28-.12-.44-.12"/>
      <path class="cls-1" d="m19.44,137.35h-.44"/>
      <path class="cls-1" d="m92.68,201.66c-.25-.05-.07-.25-.12-.37"/>
      <path class="cls-1" d="m70.82,195.16c0,.16-.27.18-.19.37"/>
      <path class="cls-1" d="m81.5,198.97c-.06.15-.14.28-.31.31"/>
      <path class="cls-1" d="m69.95,176.18c-.14-.09-.29-.06-.44-.06"/>
      <path class="cls-1" d="m69.57,172.44c-.19,0-.32-.07-.37-.25"/>
      <path class="cls-1" d="m90.37,203.97c-.18-.07-.3-.2-.37-.37"/>
      <path class="cls-1" d="m84.43,202.53c.17-.32-.03-.56-.19-.81"/>
      <path class="cls-1" d="m62.52,186.61c-.02.19-.21.21-.31.31.1.08.16.19.19.31"/>
      <path class="cls-1" d="m67.45,196.66c-.15.19-.37.37,0,.56"/>
      <path class="cls-1" d="m62.89,192.35c-.31.19-.62.19-.94,0"/>
      <path class="cls-1" d="m82.62,202.97c-.29-.28-.55-.03-.81.06"/>
      <path class="cls-1" d="m65.33,194.29c-.3.07-.48.23-.44.56"/>
      <path class="cls-1" d="m72.57,194.66c-.2.07-.41.13-.62.12"/>
      <path class="cls-1" d="m61.52,184.3c.37-.38-.19-.57-.19-.87"/>
      <path class="cls-1" d="m61.96,190.42c.19.17-.13.39.06.56"/>
      <path class="cls-1" d="m74.94,193.42c.01.2-.08.34-.17.51-.07.12-.07.38.24.24"/>
      <path class="cls-1" d="m95.74,64.55c-.04-.06-.08-.12-.12-.19"/>
      <path class="cls-1" d="m91.57,98.53c-.28,2.02,1.42,4.66,2.74,5.3.83.4,2.56.34,3.12.27.44-.06,2.89-1.22,3.32-2.57l-2.21-1.43"/>
      <path class="cls-1" d="m99.16,94.92c.3-.95-.38-1.58-.76-2.31-.14-.27-.43-.44-.63-.68-.25-.28-.66-.38-.97-.07-.21.21-.48.25-.71.41-.75.53-1.33,1.17-1.55,2.08-.11.46-.37.84-.69,1.19"/>
      <path class="cls-1" d="m100.76,101.52c.5-.56,1.77-2.82,1.93-3.41.13-.48.16-1.49.17-2.07.03-1.39-.04-2.03-.63-3.25-.2-.41-.62-.72-.56-1.25-1.98-2.96-4.18-3.03-5.68-2.75-1.61,1.24-2.74,2.87-3.64,4.64-.31.61-.64,1.37-.48,2.17.04.2.01.45-.19.55-.49.27-.55.7-.57,1.19-.02.47.25.84.47,1.17.27.4.61.85,1.16.95,1.75.53,3.73.13,3.73.13.09-.41.02-2-.05-2.43"/>
      <path class="cls-1" d="m91.17,97.11c.7.21,1.39.47,2.12.56.88.1,1.76.3,2.62-.12.54-.26.6-.58.12-.87-.71-.43-1.51-.69-2.26-1.02-.51-.22-1.24-.14-1.85.08"/>
      <path class="cls-1" d="m94.42,94.99c.75.09,1.44-.12,2.12-.38.52-.2.99-.51,1.48-.54.34.27.54.64.9.79.45.18.53.69.46.9.23.91.04,1.96.04,2.51,0,0-.98,2.74-3,2.99-2.02.25-2.5-1.46-2.5-1.46"/>
      <path class="cls-1" d="m99.16,96.05c-.66.11-1.09.64-1.69.88-.34.14-.65.42-1.06.25"/>
      <line class="cls-1" x1="96.46" y1="99.61" x2="99.41" y2="98.26"/>
      <path class="cls-1" d="m101.66,91.55c-.61.23-1.3,3.59-2.51,2.28"/>
    </g>
    <path class="cls-2" d="m135.38,81.43c.35-.69.99-1.18,1.25-1.93.23-.67.43-1.35.49-2.06.07-.82-.63-1.72-1.31-1.87"/>
  </g>
</svg>