<?xml version="1.0" encoding="UTF-8"?>
<svg id="Layer_1" data-name="Layer 1" xmlns="http://www.w3.org/2000/svg" viewBox="0 0 65 65">
  <defs>
    <style>
      .cls-1 {
        fill: #fff;
      }
    </style>
  </defs>
  <path class="cls-1" d="m46.05,64.61h-27.1C8.71,64.61.39,56.29.39,46.05v-27.1C.39,8.71,8.71.39,18.95.39h27.1c10.24,0,18.56,8.33,18.56,18.56v27.1c0,10.24-8.33,18.56-18.56,18.56ZM18.95,6.85c-6.67,0-12.1,5.43-12.1,12.1v27.1c0,6.67,5.43,12.1,12.1,12.1h27.1c6.67,0,12.1-5.43,12.1-12.1v-27.1c0-6.67-5.43-12.1-12.1-12.1h-27.1Z"/>
  <path class="cls-1" d="m32.5,48.76c-8.96,0-16.26-7.29-16.26-16.26s7.29-16.26,16.26-16.26,16.26,7.29,16.26,16.26-7.29,16.26-16.26,16.26Zm0-27.11c-5.99,0-10.86,4.87-10.86,10.86s4.87,10.86,10.86,10.86,10.86-4.87,10.86-10.86-4.87-10.86-10.86-10.86Z"/>
  <circle class="cls-1" cx="49.07" cy="15.44" r="3.79"/>
</svg>