<svg width="47" height="48" viewBox="0 0 47 48" fill="none" xmlns="http://www.w3.org/2000/svg">
<path d="M25.4001 47.7999C25.1401 47.7999 24.8701 47.7799 24.5701 47.7599C23.7701 47.6899 22.9901 47.5599 22.2301 47.4299C20.9601 47.2199 19.7601 47.0199 18.5201 47.0599C17.4501 47.0999 16.6801 46.8298 16.2301 46.2498C15.7901 45.6798 15.7001 44.8999 15.9901 43.9199C16.3901 42.5299 16.2601 42.2698 15.5001 41.9898C14.1401 41.4798 13.4201 41.2599 12.6401 42.1799C12.5601 42.2699 12.4801 42.3698 12.4001 42.4698C11.9401 43.0498 11.3701 43.7798 10.2701 43.9698C10.0301 44.0098 9.7901 43.9198 9.6301 43.7398L8.36008 42.2398C7.40008 41.0998 6.43009 39.9599 5.47009 38.7999C3.13009 35.9799 2.92008 35.5099 5.30008 32.6699C5.80008 32.0699 5.77008 31.7699 5.40008 31.0499C5.08008 30.4199 4.68008 30.2499 3.71008 30.3099C3.58008 30.3099 3.40008 30.3998 3.21008 30.4798C2.72008 30.6998 1.97008 31.0298 1.11008 30.4798C0.950076 30.3798 0.850088 30.2199 0.810088 30.0399C0.450088 28.1499 0.720092 26.3298 0.970092 24.5798C1.09009 23.7398 1.22008 22.8699 1.27008 22.0299V21.8099C1.51008 18.0499 1.72008 17.7599 5.18008 16.7699C6.12008 16.4999 6.5101 16.3298 6.6701 16.2198C6.5901 16.0798 6.37008 15.7799 5.74008 15.1599C4.27008 13.7299 4.05008 12.3498 5.08008 11.0798C7.16008 8.5098 9.64008 6.20984 12.4601 4.23984C12.6901 4.07984 13.0001 4.07984 13.2301 4.23984C13.7901 4.61984 14.2901 5.01988 14.7601 5.40988C15.4101 5.93988 16.0301 6.43988 16.6901 6.77988C17.8101 6.26988 18.1901 5.31982 18.4301 3.96982C18.4801 3.69982 18.5801 3.4298 18.6601 3.1998C18.7101 3.0698 18.7801 2.87979 18.7801 2.81979C18.7401 0.869793 20.1201 0.74984 20.9501 0.67984C21.0801 0.66984 21.2201 0.659862 21.3501 0.639862C22.6901 0.469862 23.9401 0.719869 25.1401 0.959869C25.9801 1.12987 26.7801 1.28983 27.5901 1.29983C30.0601 1.35983 30.9501 2.24982 31.0001 4.71982C31.0301 6.39982 31.1001 7.48983 32.1401 8.22983C32.5601 7.94983 32.9201 7.50991 33.2901 7.05991C34.0601 6.12991 35.0101 4.96982 36.8401 4.96982C36.9701 4.96982 37.1001 4.99979 37.2101 5.06979C38.3001 5.72979 39.0801 6.74983 39.8301 7.72983C40.2501 8.27983 40.6901 8.84982 41.1701 9.34982C42.5601 10.7698 43.3601 11.8098 43.3301 12.9498C43.3001 14.0898 42.4701 15.0598 40.9501 16.4498C40.3901 16.9698 40.1001 17.4099 40.1001 17.7599C40.1001 18.1099 40.3901 18.5399 40.9401 19.0299C41.4101 19.4399 42.0201 19.6698 42.8601 19.7298C44.2001 19.8298 45.1401 20.2498 45.6501 20.9798C46.1101 21.6298 46.1901 22.4799 45.9001 23.5099C45.7401 24.0799 45.7301 24.6898 45.7201 25.3298C45.7101 26.3198 45.7001 27.3398 45.1301 28.3598C45.0701 28.4698 45.0801 28.6998 45.0901 28.9498C45.1201 29.5398 45.1601 30.5298 44.0301 31.1998C42.9201 31.8598 41.8801 32.1298 40.6601 32.0798C39.8101 32.0498 39.7301 32.1799 39.6701 32.4299C39.6401 32.5499 39.5401 32.9299 40.0901 33.4299C40.9901 34.2399 41.6101 35.2099 42.1701 36.1299C42.2701 36.2899 42.2901 36.4899 42.2401 36.6799C41.8001 38.1499 40.7901 39.1398 39.8801 39.9598L39.3301 40.4498C38.3801 41.2898 37.4101 42.1598 36.5501 43.0898C35.5101 44.2298 34.6901 45.0299 33.7001 45.0499C32.8001 45.0399 32.0601 44.4799 30.9001 43.3099C30.1501 42.5499 29.8501 42.3899 29.7401 42.4099C29.6301 42.4099 29.3701 42.5998 28.7601 43.4498C28.3201 44.0498 28.0901 44.6098 27.9901 45.2498C27.7001 47.2698 26.8701 47.8099 25.3701 47.8099L25.4001 47.7999ZM18.9001 45.6898C20.1301 45.6898 21.3101 45.8898 22.4501 46.0798C23.1901 46.1998 23.9501 46.3299 24.6901 46.3999C26.3101 46.5499 26.4701 46.4299 26.6701 45.0499C26.7901 44.1899 27.1101 43.4199 27.6801 42.6399C28.2601 41.8399 28.8501 41.1099 29.6601 41.0499C30.4601 40.9899 31.1501 41.5998 31.8901 42.3498C32.6901 43.1598 33.3001 43.6998 33.7001 43.6898C34.1001 43.6898 34.7201 43.0999 35.5701 42.1699C36.4701 41.1899 37.4801 40.2999 38.4501 39.4299L39.0001 38.9398C39.7401 38.2798 40.4901 37.5499 40.8701 36.5599C40.4101 35.8099 39.8901 35.0498 39.2101 34.4398C38.4501 33.7598 38.1601 32.9198 38.3801 32.0698C38.7701 30.6398 40.1501 30.6898 40.7401 30.7198C41.7001 30.7598 42.4801 30.5499 43.3701 30.0299C43.7801 29.7899 43.7901 29.5799 43.7601 29.0099C43.7401 28.6299 43.7201 28.1498 43.9701 27.7098C44.3701 26.9898 44.3801 26.1798 44.3901 25.3198C44.3901 24.6198 44.4001 23.8899 44.6201 23.1399C44.7901 22.5299 44.7701 22.0599 44.5601 21.7599C44.3001 21.3899 43.6901 21.1498 42.7801 21.0898C41.6301 20.9998 40.7601 20.6699 40.0601 20.0499C39.1801 19.2699 38.7701 18.5499 38.7601 17.7799C38.7601 16.9999 39.1601 16.2598 40.0501 15.4498C41.2301 14.3698 41.9701 13.5599 41.9901 12.9099C42.0101 12.3499 41.5101 11.6099 40.2201 10.2999C39.6801 9.7499 39.2201 9.13991 38.7701 8.55991C38.1101 7.68991 37.4801 6.86981 36.6901 6.33981C35.6101 6.39981 35.0501 7.0799 34.3601 7.9299C33.8601 8.5399 33.3401 9.16979 32.5701 9.56979C32.4401 9.63979 32.2901 9.65986 32.1501 9.63986C32.0001 9.65986 31.8401 9.6399 31.7001 9.5499C29.7301 8.3899 29.7001 6.45987 29.6701 4.76987C29.6401 3.01987 29.3301 2.70989 27.5901 2.66989C26.6701 2.64989 25.7701 2.4699 24.9101 2.2999C23.7601 2.0699 22.6701 1.85985 21.5501 1.99985C21.4001 2.01985 21.2401 2.0299 21.0901 2.0499C20.2201 2.1199 20.1501 2.1298 20.1701 2.8298C20.1701 3.1198 20.0701 3.39979 19.9601 3.68979C19.9001 3.85979 19.8201 4.04982 19.7901 4.21982C19.5101 5.75982 18.9601 7.42989 16.9201 8.16989C16.7601 8.22989 16.5801 8.21988 16.4201 8.15988C15.4901 7.75988 14.7301 7.13983 13.9201 6.47983C13.5801 6.19983 13.2301 5.91987 12.8601 5.64987C10.3001 7.47987 8.05011 9.59981 6.14011 11.9598C5.66011 12.5498 5.5901 13.1298 6.7001 14.2098C7.5801 15.0698 8.2401 15.7898 8.0401 16.5798C7.8401 17.3798 6.89008 17.7098 5.58008 18.0898C3.75341 18.6165 2.78344 19.8899 2.6701 21.9099V22.1299C2.6001 23.0299 2.4701 23.9299 2.3501 24.7899C2.1201 26.3899 1.90009 27.9098 2.12009 29.4498C2.26009 29.4498 2.41009 29.3899 2.69009 29.2699C2.97009 29.1499 3.28009 29.0098 3.66009 28.9798C4.73009 28.9098 5.92008 29.0298 6.65008 30.4498C7.08008 31.2898 7.45011 32.2899 6.39011 33.5599C5.23011 34.9466 5.28341 36.3999 6.55008 37.9199C7.52008 39.0899 8.4801 40.2298 9.4501 41.3698L10.4301 42.5299C10.8101 42.3499 11.0801 42.0099 11.3701 41.6399C11.4601 41.5299 11.5501 41.4199 11.6401 41.3099C13.0701 39.6199 14.7601 40.2498 15.9801 40.7098C18.1301 41.5198 17.6101 43.3299 17.3201 44.2999C17.1701 44.8199 17.1701 45.2199 17.3201 45.4199C17.4801 45.6299 17.9001 45.7298 18.4901 45.7098C18.6301 45.7098 18.7801 45.7098 18.9201 45.7098L18.9001 45.6898Z" fill="#041C25"/>
<path d="M24.0601 35.0903C22.7801 35.0903 21.4901 34.9704 20.1801 34.6804C19.6701 34.5604 19.2401 34.3604 18.8201 34.1604C18.3301 33.9304 17.8701 33.7104 17.3401 33.6704C16.7601 33.6204 16.2101 33.3003 15.8201 32.7803C15.3201 32.1003 15.1501 31.1903 15.3701 30.2103C15.6201 29.0603 15.6201 27.8503 15.6201 26.5703C15.6201 25.8603 15.6201 25.1304 15.6601 24.4104C15.7701 22.7004 16.6201 20.5603 20.0501 20.1403C22.8601 19.7903 25.4801 20.1803 27.6701 20.6103C27.8301 20.6403 27.9601 20.7303 28.0601 20.8403C28.2101 20.8903 28.3501 20.9903 28.4401 21.1403C28.7101 21.6003 29.2001 21.8604 29.7701 22.1604C30.2601 22.4204 30.8101 22.7104 31.2801 23.1804C31.4901 23.3904 31.5401 23.7003 31.4101 23.9603C30.4501 25.8803 30.4901 27.9603 30.5401 30.1503C30.5701 31.3903 30.5901 32.6703 30.4301 33.9503C30.3901 34.2503 30.1601 34.4904 29.8601 34.5404C27.9201 34.8404 25.9901 35.1003 24.0601 35.1003V35.0903ZM22.2701 21.3603C21.6001 21.3603 20.9101 21.4003 20.2101 21.4803C18.1101 21.7403 17.1301 22.6703 17.0101 24.4903C16.9701 25.1703 16.9701 25.8804 16.9701 26.5604C16.9701 27.8604 16.9701 29.2003 16.6901 30.4903C16.5201 31.2803 16.7501 31.7503 16.9101 31.9603C17.0601 32.1603 17.2601 32.2904 17.4501 32.3104C18.2301 32.3704 18.8501 32.6704 19.4001 32.9304C19.7701 33.1004 20.1201 33.2703 20.4801 33.3503C23.3401 34.0003 26.2101 33.7003 29.1301 33.2603C29.2201 32.2403 29.1901 31.1904 29.1701 30.1704C29.1301 28.0704 29.0801 25.9103 29.9601 23.8303C29.7101 23.6503 29.4301 23.5103 29.1301 23.3503C28.5001 23.0203 27.7901 22.6504 27.3201 21.9204C25.8101 21.6304 24.0801 21.3503 22.2601 21.3503L22.2701 21.3603Z" fill="#041C25"/>
<path d="M27.75 21.9504C27.67 21.9504 27.58 21.9304 27.5 21.9004C27.15 21.7604 26.9799 21.3704 27.1099 21.0204C27.5899 19.7804 27.5999 18.5504 27.1099 17.2704C26.5599 15.8004 25.96 14.9104 24.48 14.7204C22.59 14.4804 21.36 15.0704 20.83 16.4604L20.69 16.8105C20.24 17.9805 19.78 19.1804 20.31 20.3504C20.47 20.6904 20.31 21.0904 19.97 21.2504C19.63 21.4104 19.23 21.2505 19.07 20.9105C18.3 19.2205 18.92 17.6104 19.42 16.3204L19.55 15.9804C20.3 13.9804 22.11 13.0504 24.64 13.3704C26.91 13.6604 27.78 15.1905 28.37 16.8005C28.97 18.4105 28.96 19.9604 28.35 21.5204C28.25 21.7904 27.99 21.9504 27.72 21.9504H27.75Z" fill="#041C25"/>
</svg>
