<svg width="279" height="276" viewBox="0 0 279 276" fill="none" xmlns="http://www.w3.org/2000/svg">
<g clip-path="url(#clip0_219_702)">
<g opacity="0.4">
<path d="M192.33 251.41C195.06 251.98 199.25 252.08 202.03 252.05C202.25 252.05 202.46 251.87 202.68 251.85C206.32 251.52 207.31 250.72 206.97 247.06C206.48 241.89 207.11 236.86 207.9 231.8C208.37 228.76 208.33 228.87 205.29 228.73C194.76 228.26 184.2 228.37 173.69 227.26C170.59 226.93 167.45 227.08 164.32 227" stroke="#EAE6E1" stroke-miterlimit="10"/>
<path d="M207.47 228.97C208.27 227.04 207.97 225.06 207.68 223.09C207.54 222.13 206.99 221.66 205.95 221.54C201.53 221.01 197.1 221.06 192.66 221.09C185.31 221.14 177.95 221.18 170.64 219.93C169.11 219.67 167.32 219 165.62 220C164.92 220.41 164.36 220.65 164.33 221.57C164.22 224.48 163.8 227.4 164.01 230.28C164.12 231.81 163.86 233.28 163.59 234.62C162.82 238.48 163.09 242.33 163.07 246.19C163.06 249.29 164.76 250.58 167.83 250.6C170.29 250.61 172.82 250.01 175.24 250.99" stroke="#EAE6E1" stroke-miterlimit="10"/>
<path d="M188.729 253.811C192.409 255.441 191.689 258.591 191.639 261.661C191.619 263.091 191.709 264.561 191.789 266.071C189.669 267.671 187.289 266.601 185.029 266.641C183.139 266.681 181.249 266.481 179.369 266.451C176.029 266.401 175.099 265.271 175.669 261.871C176.049 259.561 176.539 257.241 175.859 254.801C179.159 253.181 185.269 253.551 188.749 253.811" stroke="#EAE6E1" stroke-miterlimit="10"/>
<path d="M184.16 261C184.94 260.72 185.67 260.31 185.88 259.47C186.1 258.6 185.719 257.8 185.009 257.32C184.249 256.81 183.51 257.1 182.83 257.72C182.11 258.38 181.979 259.05 182.399 259.92C182.719 260.6 183.17 261 183.94 261" stroke="#EAE6E1" stroke-miterlimit="10"/>
<path d="M190.26 238.12C191.64 238.85 193.02 239.57 194.4 240.3" stroke="#EAE6E1" stroke-miterlimit="10"/>
<path d="M189.819 238.34C188.109 238.78 188.449 238.85 187.209 239.87" stroke="#EAE6E1" stroke-miterlimit="10"/>
<path d="M180.709 237.431C182.229 238.081 182.959 239.861 184.159 240.961" stroke="#EAE6E1" stroke-miterlimit="10"/>
<path d="M171.3 233.55C171.13 234.78 171.7 236.1 170.86 237.25" stroke="#EAE6E1" stroke-miterlimit="10"/>
<path d="M193.96 235.511C192.63 236.201 191.31 236.901 190.12 237.521C189.82 238.711 189.63 239.721 190.04 240.741" stroke="#EAE6E1" stroke-miterlimit="10"/>
<path d="M180.45 233.11C180.54 234.27 180.24 235.46 180.67 236.6" stroke="#EAE6E1" stroke-miterlimit="10"/>
<path d="M199.85 238.561C201.01 239.211 202.17 239.871 203.34 240.521" stroke="#EAE6E1" stroke-miterlimit="10"/>
<path d="M202.679 235.511C202.459 235.661 202.259 235.851 202.019 235.941C199.119 236.971 199.159 239.401 199.189 241.831" stroke="#EAE6E1" stroke-miterlimit="10"/>
<path d="M190.039 233.11C189.819 234.12 190.149 236.6 190.229 237.41C188.849 237.73 188.189 236.47 187.209 235.94" stroke="#EAE6E1" stroke-miterlimit="10"/>
<path d="M167.38 235.07C169.92 236.45 172.89 239.9 173.08 240.74" stroke="#EAE6E1" stroke-miterlimit="10"/>
<path d="M196.979 235.221C197.829 236.181 197.819 237.161 198.979 237.691" stroke="#EAE6E1" stroke-miterlimit="10"/>
<path d="M183.94 235.29C182.73 236.23 182.18 236.71 180.85 237.43C180.81 237.45 180.75 237.46 180.71 237.43C179.81 236.96 177.88 236.43 177.62 235.29" stroke="#EAE6E1" stroke-miterlimit="10"/>
<path d="M199.19 238.34C198.1 238.63 197.36 239.36 196.79 240.3" stroke="#EAE6E1" stroke-miterlimit="10"/>
<path d="M174.79 236.38C173.99 236.89 173.19 237.4 172.39 237.91" stroke="#EAE6E1" stroke-miterlimit="10"/>
<path d="M172.17 238.34C171.01 238.92 169.85 239.5 168.68 240.08" stroke="#EAE6E1" stroke-miterlimit="10"/>
<path d="M177.62 240.741L180.78 237.471" stroke="#EAE6E1" stroke-miterlimit="10"/>
<path d="M180.67 253.581C180.67 250.771 179.53 245.811 183.65 245.811C187.77 245.811 187.63 251.261 187.63 253.581" stroke="#EAE6E1" stroke-miterlimit="10"/>
<path d="M169.04 223.91C169.134 223.91 169.21 223.834 169.21 223.74C169.21 223.646 169.134 223.57 169.04 223.57C168.946 223.57 168.87 223.646 168.87 223.74C168.87 223.834 168.946 223.91 169.04 223.91Z" stroke="#EAE6E1" stroke-miterlimit="10"/>
<path d="M172.59 223.911C172.7 223.911 172.79 223.821 172.79 223.711C172.79 223.6 172.7 223.511 172.59 223.511C172.479 223.511 172.39 223.6 172.39 223.711C172.39 223.821 172.479 223.911 172.59 223.911Z" stroke="#EAE6E1" stroke-miterlimit="10"/>
<path d="M175.51 223.91H176.14" stroke="#EAE6E1" stroke-miterlimit="10"/>
<path d="M185.57 274.99C204.325 274.99 219.53 259.786 219.53 241.03C219.53 222.275 204.325 207.07 185.57 207.07C166.814 207.07 151.61 222.275 151.61 241.03C151.61 259.786 166.814 274.99 185.57 274.99Z" stroke="#EAE6E1" stroke-miterlimit="10"/>
<path d="M53.5201 109.32C72.2757 109.32 87.4801 94.116 87.4801 75.3604C87.4801 56.6048 72.2757 41.4004 53.5201 41.4004C34.7645 41.4004 19.5601 56.6048 19.5601 75.3604C19.5601 94.116 34.7645 109.32 53.5201 109.32Z" stroke="#EAE6E1" stroke-miterlimit="10"/>
<path d="M60.1499 71.7902C62.7299 73.1202 62.5899 75.6502 62.8099 77.9702C62.9499 79.4802 62.7199 81.0302 63.1799 82.5302C58.4699 85.7002 53.1999 85.0002 48.0699 84.8902C46.5299 84.8602 46.0099 83.3402 45.9499 81.9902C45.8399 79.4902 45.8499 76.9802 45.9499 74.4702C45.9999 72.9902 48.2399 70.7902 49.9399 71.0702C53.2499 71.6002 56.6199 71.0102 59.8899 71.7902" stroke="#EAE6E1" stroke-miterlimit="10"/>
<path d="M59.8803 71.5303C60.3503 67.3203 58.7003 64.2203 55.0503 63.9803C51.7203 63.7603 49.8303 65.2403 49.6803 68.5803C49.6503 69.3803 49.6803 70.1903 49.6803 71.0003" stroke="#EAE6E1" stroke-miterlimit="10"/>
<path d="M68.4702 61.3203C70.0302 62.1503 71.5402 62.4903 72.4802 60.5103C73.1502 59.1003 72.8102 57.9203 71.4302 57.0103C69.9002 56.0003 68.5801 56.5503 67.8801 58.3503C67.5501 59.2003 67.8002 59.9903 67.6602 60.7803" stroke="#EAE6E1" stroke-miterlimit="10"/>
<path d="M73.8399 75.8205C75.7199 77.8005 77.9699 78.0605 78.9199 76.3405C79.4399 75.3905 79.4899 74.2006 78.6499 73.4406C77.7999 72.6706 76.5699 72.1206 75.4899 72.9106C74.6299 73.5406 73.5299 74.1806 73.5799 75.5506L67.6699 75.5005" stroke="#EAE6E1" stroke-miterlimit="10"/>
<path d="M52.9001 94.3506C51.4101 94.6506 50.5201 95.5506 50.0801 97.6706C50.4601 97.9406 51.1101 98.4806 51.8301 98.9006C53.1201 99.6606 54.7301 100.091 55.4701 98.5906C55.9701 97.5706 56.3801 95.6806 54.2401 95.1406C53.9501 95.0706 53.7001 94.8006 53.4301 94.6206" stroke="#EAE6E1" stroke-miterlimit="10"/>
<path d="M39.4701 61.5898C39.6501 61.0498 40.0401 60.4798 39.9601 59.9898C39.8101 59.0798 39.9101 58.0098 38.6701 57.5398C36.9001 56.8698 36.3101 58.3898 35.5301 59.2598C35.3001 59.5198 34.6701 60.7198 35.6601 61.6498C36.7601 62.6798 37.6201 62.4598 38.6601 61.8698C38.8301 61.7698 39.0201 61.6898 39.2001 61.5998" stroke="#EAE6E1" stroke-miterlimit="10"/>
<path d="M54.24 51.1201C53.97 51.2101 53.7 51.3701 53.43 51.3801C52.21 51.4001 50.78 51.4001 50.81 53.0001C50.84 54.2401 51.16 55.4801 52.86 56.0301C54.62 56.6001 55.41 55.5701 56.05 54.5701C56.73 53.5001 56.88 52.1301 55.31 51.3901C55.13 51.3001 54.95 51.2101 54.77 51.1201" stroke="#EAE6E1" stroke-miterlimit="10"/>
<path d="M33.3001 76.3597C32.7601 77.3797 32.3901 78.4697 30.8801 78.5397C29.1901 78.6097 27.9101 77.7597 27.7601 76.3497C27.5801 74.6797 29.3001 74.0197 30.6301 73.4497C31.1601 73.2197 31.8701 73.4097 32.4101 73.4097C32.7101 74.3197 33.0101 75.2097 33.3001 76.0897" stroke="#EAE6E1" stroke-miterlimit="10"/>
<path d="M40.0103 75.5501C37.8303 75.3001 35.7203 76.0101 33.5703 76.0901" stroke="#EAE6E1" stroke-miterlimit="10"/>
<path d="M71.4202 87.6298C72.7802 88.3698 73.0402 89.4698 72.5002 90.8498C72.0602 91.9698 71.1402 92.6998 70.0802 92.6598C68.9902 92.6198 67.7802 92.1398 67.4102 90.8498C67.1102 89.8098 67.5602 88.7998 68.4902 88.5098C69.3102 88.2598 69.8402 87.1998 70.8802 87.6298" stroke="#EAE6E1" stroke-miterlimit="10"/>
<path d="M40.5501 88.4399C41.4501 89.6899 42.1501 90.8899 40.5701 92.2199C39.9001 92.7899 39.2701 93.3399 38.4101 92.9799C37.4001 92.5499 36.2401 91.9499 36.0601 90.8399C35.9301 89.9899 36.6001 89.0599 37.5901 88.7099C38.4601 88.3999 39.1801 87.3499 40.2701 88.1699" stroke="#EAE6E1" stroke-miterlimit="10"/>
<path d="M53.97 56.4902C53.92 58.2102 54.12 59.9102 54.51 61.5902" stroke="#EAE6E1" stroke-miterlimit="10"/>
<path d="M66.5901 61.8604C64.9501 62.7904 63.5801 63.9504 63.1001 65.8904" stroke="#EAE6E1" stroke-miterlimit="10"/>
<path d="M64.4399 84.1396C65.6899 85.5696 66.9499 86.9997 68.1999 88.4397" stroke="#EAE6E1" stroke-miterlimit="10"/>
<path d="M53.1703 82.0005C53.3503 80.9305 53.5803 79.8605 53.6903 78.7805C53.7503 78.1805 53.9703 77.3605 52.9003 77.3105C51.9903 76.5005 53.5403 74.2505 54.2403 74.7305C54.9403 75.2105 56.5203 76.0305 55.8803 76.8605C55.2403 77.6905 54.5303 77.5005 54.5303 77.5005L54.8203 82.0105H53.1803L53.1703 82.0005Z" stroke="#EAE6E1" stroke-miterlimit="10"/>
<path d="M52.3604 89.25C53.4904 89.27 53.5004 90.04 53.4304 90.86C53.3404 92.02 53.2504 93.19 53.1604 94.35" stroke="#EAE6E1" stroke-miterlimit="10"/>
<path d="M44.0403 84.6797C43.2803 86.2497 41.5903 86.8897 40.5503 88.1697" stroke="#EAE6E1" stroke-miterlimit="10"/>
<path d="M39.4702 61.8604C40.6302 62.7504 41.8002 63.6504 42.9602 64.5404" stroke="#EAE6E1" stroke-miterlimit="10"/>
<path d="M225.8 112.5C244.555 112.5 259.76 97.2957 259.76 78.5401C259.76 59.7845 244.555 44.5801 225.8 44.5801C207.044 44.5801 191.84 59.7845 191.84 78.5401C191.84 97.2957 207.044 112.5 225.8 112.5Z" stroke="#EAE6E1" stroke-miterlimit="10"/>
<path d="M204.68 61.59C206.93 61.36 206.69 65.88 206.8 67.04C207.11 70.51 207.6 74.06 207.19 77.48C206.6 82.51 208.33 87 209.49 91.65C209.62 92.18 209.81 92.75 210.15 93.17C213.32 97.04 216.49 100.92 220.8 103.66C223.56 105.41 226.01 105.63 228.93 103.72C231.74 101.88 234.61 100.09 237.34 98.14C240.57 95.83 242.15 92.23 243.46 88.6C245.7 82.42 246.8 76.03 246.55 69.43C246.5 68.06 246.8 64.06 246.94 62.7C245.42 61.86 243.77 62.59 242.15 62.33C239.51 61.9 236.91 61.33 234.32 60.72C230.63 60.66 228.49 57.71 227.14 53.21" stroke="#EAE6E1" stroke-miterlimit="10"/>
<path d="M228.64 92.0999C230.58 90.3699 232.41 88.5199 233.63 86.2099C235.03 83.5499 235.05 80.7799 234.1 77.9299C233.06 74.8299 231.96 71.7799 229.28 69.6599C226.44 67.4099 222.37 67.6499 220.61 71.4099C219.74 73.2699 218.75 74.9999 217.52 76.6199" stroke="#EAE6E1" stroke-miterlimit="10"/>
<path d="M223.41 91.0098C225.8 91.0098 227.08 89.0198 228.81 87.8898C230.14 87.0198 231.18 85.5798 232.06 84.2098C232.41 83.6698 232.67 82.8198 232.42 81.8398C231.87 79.6498 231.45 77.4298 230.6 75.3198C229.26 72.0198 226.28 70.4998 223.42 71.6098" stroke="#EAE6E1" stroke-miterlimit="10"/>
<path d="M227.12 53.2197C226.29 56.8997 222.84 58.7497 220.54 59.5297C217.02 60.7197 213.53 62.1897 209.68 62.3397C208.64 62.3797 207.64 61.4997 206.63 62.2497" stroke="#EAE6E1" stroke-miterlimit="10"/>
<path d="M225.81 73.5801C228.19 75.1101 229.3 77.4701 229.45 80.1201C229.56 82.1001 228.64 83.8501 226.93 85.1601C225.75 86.0701 224.62 86.9901 223.21 87.5401C222.74 87.7201 222.04 87.8101 222.11 88.6101" stroke="#EAE6E1" stroke-miterlimit="10"/>
<path d="M221.23 66.6098C218.96 66.9598 216.76 65.5898 214.31 66.4498C214.01 68.5598 213.7 70.7398 213.38 72.9298" stroke="#EAE6E1" stroke-miterlimit="10"/>
<path d="M213.17 85.1299C213.43 86.5999 213.45 88.0099 213 89.4999C212.37 91.6199 213.08 92.3899 215.34 92.7699C216.4 92.9499 216.2 92.9399 218.39 93.2999" stroke="#EAE6E1" stroke-miterlimit="10"/>
<path d="M224.29 77.2803C226.47 77.5603 226.71 77.8503 226.25 79.8903C225.7 82.3403 224.75 84.5503 222.33 85.7703" stroke="#EAE6E1" stroke-miterlimit="10"/>
<path d="M223.2 73.3604C221.71 75.5004 221.82 78.5804 219.28 80.1104" stroke="#EAE6E1" stroke-miterlimit="10"/>
<path d="M232.13 66.3896C234.72 66.8996 237.23 68.0897 239.97 67.2597" stroke="#EAE6E1" stroke-miterlimit="10"/>
<path d="M237.57 87.9902C237.33 90.1302 237.29 92.4702 237.21 93.8502C235.42 93.7902 233.14 94.3002 230.82 94.0702" stroke="#EAE6E1" stroke-miterlimit="10"/>
<path d="M239.32 67.9102C239.82 69.8902 239.34 71.8402 239.1 73.7902" stroke="#EAE6E1" stroke-miterlimit="10"/>
<path d="M223.63 79.9004C223.63 81.9304 222.93 82.7304 220.36 83.6004" stroke="#EAE6E1" stroke-miterlimit="10"/>
<path d="M244.22 202.29C262.975 202.29 278.18 187.086 278.18 168.33C278.18 149.575 262.975 134.37 244.22 134.37C225.464 134.37 210.26 149.575 210.26 168.33C210.26 187.086 225.464 202.29 244.22 202.29Z" stroke="#EAE6E1" stroke-miterlimit="10"/>
<path d="M224 162.23C223.62 160.68 223.9 159.23 224.68 157.86C226.35 154.9 227.97 151.69 231.11 150.22C234.06 148.85 236.68 146.77 239.97 146.05C244.47 145.08 248.78 145.44 252.92 147.43C255.89 148.86 258.64 150.65 260.98 152.98C263.89 155.88 265.76 159.33 266.21 163.48" stroke="#EAE6E1" stroke-miterlimit="10"/>
<path d="M223.66 177.53C224.11 178.37 224.55 179.21 225.01 180.05C226.39 182.59 228.75 184.04 231.03 185.64C232.48 186.66 233.71 187.97 235.42 188.65C238.98 190.07 244.25 191.61 248.88 190.98C250.46 190.73 251.79 189.68 253.27 189.37C257 188.58 259.89 186.35 262.81 184.22C265.24 182.45 266.86 179.96 267.71 177.03" stroke="#EAE6E1" stroke-miterlimit="10"/>
<path d="M226.52 168.28C226.91 163.2 228.87 158.63 232.51 155.28C235.16 152.84 238.63 151.33 242.67 151.54C244.93 151.66 247.17 151.64 249.39 152.13C250.55 152.39 251.61 152.89 252.57 153.51C254.74 154.91 257.25 155.81 258.98 157.86" stroke="#EAE6E1" stroke-miterlimit="10"/>
<path d="M244.72 168.28C247.52 169.87 248.68 170.19 248.72 173.32C248.74 174.98 247.54 175.75 246.34 176.29C245.38 176.72 244.33 177.26 243.17 177.02" stroke="#EAE6E1" stroke-miterlimit="10"/>
<path d="M230.56 179.8C231.69 181.46 233.12 183 235.07 183.98C236.25 184.57 238.11 185.59 239.42 185.6C242.26 186.06 248.72 186.11 251.25 184.78C254.66 183.39 257.13 180.86 259.29 178.02C261.77 174.77 263.62 171.26 262.84 166.94" stroke="#EAE6E1" stroke-miterlimit="10"/>
<path d="M223.32 174.17C225.26 174.55 226.92 175.08 228.27 176.45" stroke="#EAE6E1" stroke-miterlimit="10"/>
<path d="M258.56 161.39C260.04 162.41 261.91 162.48 263.44 163.4C264.31 163.92 265.38 163.4 266.31 163.88C266.68 164.08 266.99 163.53 267.11 163.23C267.86 161.42 268.96 159.77 269.49 157.86" stroke="#EAE6E1" stroke-miterlimit="10"/>
<path d="M223.16 173.49C223.2 174.53 222.89 175.36 222 176.04C221.19 176.66 220.4 177.4 220.31 178.54C220.24 179.41 219.33 179.48 218.96 180.05" stroke="#EAE6E1" stroke-miterlimit="10"/>
<path d="M248.72 162.73C247.65 162.18 246.93 161.11 245.53 161.01C243.51 160.86 241.06 161.97 240.86 163.58C240.67 165.07 241.15 166.85 243.51 167.63C244.82 168.06 245.03 168.39 245.53 170.13C245.96 172.07 244.97 173.05 244.73 174.51C244.59 175.34 244.76 176.22 244.03 176.86L244.2 178.71" stroke="#EAE6E1" stroke-miterlimit="10"/>
<path d="M241.48 174.5C241.1 174.5 240.71 174.42 240.42 174.88C240.66 175.56 241.17 176.14 241.82 176.31C243.18 176.67 243.28 177.59 243.16 178.7" stroke="#EAE6E1" stroke-miterlimit="10"/>
<path d="M245.35 157.521C245.36 158.611 245.44 159.721 244.85 160.721" stroke="#EAE6E1" stroke-miterlimit="10"/>
<path d="M243.17 177.03L244.18 167.78C244.34 165.57 245.34 163.48 245.19 161.22" stroke="#EAE6E1" stroke-miterlimit="10"/>
<path d="M246.79 157.521L245.69 168.951" stroke="#EAE6E1" stroke-miterlimit="10"/>
<path d="M140.08 68.42C158.836 68.42 174.04 53.2156 174.04 34.46C174.04 15.7044 158.836 0.5 140.08 0.5C121.325 0.5 106.12 15.7044 106.12 34.46C106.12 53.2156 121.325 68.42 140.08 68.42Z" stroke="#EAE6E1" stroke-miterlimit="10"/>
<path d="M124.19 28.0802C124.32 25.8502 124.03 23.6202 124.53 21.3802C125.33 17.7702 127.98 14.9702 132.31 14.4502C136.13 14.0002 140.41 18.1302 140.41 21.9502C140.41 22.3902 140.43 22.8302 140.41 23.2702C140.3 25.7102 140.84 25.8602 142.77 25.4402C143.9 21.0202 141.58 15.6302 138.33 13.6702C134.5 11.3502 128.89 11.2802 125.5 14.5802C123.3 16.7302 122.07 19.2502 121.92 22.3202C121.82 24.2702 121.22 26.2002 121.74 28.1702" stroke="#EAE6E1" stroke-miterlimit="10"/>
<path d="M144.75 29.6807C143.67 30.7707 144.11 32.0707 144.41 33.2507C144.69 34.3607 144.32 35.0307 143.43 35.5207C139.76 37.5207 138.31 40.8907 137.56 44.7607C137.22 46.5307 136.99 48.2007 137.91 49.8907C138.06 50.1707 138.28 50.8307 138.39 50.9407C140.77 53.2707 143.07 55.7407 146.45 56.6507C149.86 57.5707 154.18 55.9907 156.25 53.0707C157.03 51.9707 158.21 51.3607 158.98 50.1107C161.19 46.5107 160.33 43.1407 158.64 39.9007C157.1 36.9407 154.4 35.0807 151.15 34.2407C149.37 33.7807 147.51 33.9107 145.69 34.2007C145.39 34.2507 145.01 34.3807 144.75 34.0307" stroke="#EAE6E1" stroke-miterlimit="10"/>
<path d="M144.37 29.6802C144.02 29.2902 143.6 29.0902 143.05 29.1102C139.52 29.2202 136.03 28.5702 132.49 28.7202C129.84 28.8302 127.2 28.7602 124.56 28.2402C123.57 28.0402 122.46 28.5402 121.36 28.4102C120.83 28.3502 120.46 28.8702 120.42 29.5002C120.31 31.2602 120.12 33.0202 120.06 34.7802C119.95 37.9802 119.93 41.1902 119.86 44.4002C119.82 46.3202 120.49 47.1502 122.5 47.4102C126.07 47.8802 129.66 47.5702 133.25 47.6202C134.51 47.6402 135.76 47.7402 137.02 47.8002" stroke="#EAE6E1" stroke-miterlimit="10"/>
<path d="M150.22 48.3505C150.78 47.4805 151.56 46.8005 152.14 45.9205C153.41 44.0405 152.29 42.1005 152.35 40.2305C152.41 38.3305 149.72 37.2905 147.58 37.9705C145.52 38.6205 144.84 40.0005 145.51 42.1205" stroke="#EAE6E1" stroke-miterlimit="10"/>
<path d="M140.98 52.5C142.36 50.25 144.72 49.49 147.02 49.18C150.5 48.7 153.87 49.23 156.25 52.31" stroke="#EAE6E1" stroke-miterlimit="10"/>
<path d="M129.85 36.2897C130.57 36.3297 130.97 36.9297 131.52 37.2697C132.85 37.0797 133.05 35.0897 134.57 35.3697C135.39 35.5197 135.9 36.1197 136.12 37.0797C134.85 38.5897 133.41 40.0097 131.61 41.2297C130.21 40.4697 129.07 39.3397 128.31 37.9297C128.39 36.7697 129.98 36.5797 129.67 35.3597" stroke="#EAE6E1" stroke-miterlimit="10"/>
<path d="M151.92 42.1304C150.47 42.0704 149.03 41.9604 147.58 41.9504C145.2 41.9304 144.18 43.3504 145.17 45.5104C145.64 46.5504 146.52 47.4104 147.21 48.3604" stroke="#EAE6E1" stroke-miterlimit="10"/>
<path d="M93.46 275.35C112.216 275.35 127.42 260.145 127.42 241.39C127.42 222.634 112.216 207.43 93.46 207.43C74.7044 207.43 59.5 222.634 59.5 241.39C59.5 260.145 74.7044 275.35 93.46 275.35Z" stroke="#EAE6E1" stroke-miterlimit="10"/>
<path d="M104.72 261.86C105.48 260.06 105.19 258.12 105.18 256.29C105.15 252.37 105.45 248.48 105.75 244.59C105.96 241.85 105.83 239.12 105.77 236.4C105.69 232.96 106.08 229.57 106.22 226.1C103.11 225.99 100.07 225.48 96.9601 225.38C94.5701 225.3 92.1501 225.38 89.8001 225.08C86.4201 224.64 83.0601 225.05 79.7001 224.81C78.2101 224.7 77.9601 225.08 77.8601 226.62C77.4901 232.12 77.5501 237.63 77.7201 243.14C77.8101 246.07 76.9601 248.98 77.3601 251.92C77.7301 254.61 77.3401 257.28 77.3601 259.96C77.3601 260.44 77.2201 260.96 77.6601 261.5C78.5001 261.14 79.4001 261.6 80.3301 261.6C82.0301 261.6 83.7401 261.6 85.4401 261.56C88.8101 261.47 92.1701 261.75 95.5301 261.88C96.6801 261.93 97.8501 261.98 99.0301 261.84C101.29 261.58 103.57 261.65 105.77 262.42" stroke="#EAE6E1" stroke-miterlimit="10"/>
<path d="M82.0499 229.23C82.2299 230.29 82.3299 231.36 82.2399 232.56C83.0399 232.95 84.1199 232.89 84.9599 232.84C87.5799 232.68 90.1299 233.14 92.7199 233.24C94.0899 233.3 95.4999 233.36 96.8199 233.7C98.2499 234.06 99.5599 233.75 100.9 233.6C100.99 232.92 101.11 232.34 101.13 231.75C101.18 230.42 100.55 229.89 99.3199 229.75C94.9699 229.28 90.5999 229.24 86.2599 228.57C85.0999 228.39 83.7599 228.83 82.4999 228.97C82.0699 229.02 81.6199 229.02 81.1899 229.12" stroke="#EAE6E1" stroke-miterlimit="10"/>
<path d="M105.51 259.34C105.7 259.34 105.9 259.3 106.09 259.32C108.48 259.62 108.93 259.26 109.08 257.02C109.21 255.02 109.18 253.03 109.15 251.03C109.1 247.42 109.33 243.81 109.45 240.2C109.56 236.99 109.41 233.77 109.43 230.56C109.44 228.41 109.47 226.26 109.68 224.13C109.74 223.55 109.34 223.18 109.56 222.79C100.23 222.04 91.0101 221.66 81.7701 220.37C81.2201 221.73 80.8902 223.18 81.3002 224.73" stroke="#EAE6E1" stroke-miterlimit="10"/>
<path d="M87.6001 244.95C87.5201 244.31 87.3901 243.75 87.6101 243.03C88.0201 241.69 87.4001 240.24 87.6401 238.81C87.7601 238.11 87.1501 238.09 86.6201 238.12C85.2701 238.21 83.9701 238.17 82.6501 237.72C81.6601 237.38 81.0301 238.02 80.9501 239.06C80.8401 240.43 80.6501 241.8 80.5301 243.17C80.4601 244.03 80.6001 244.62 81.7401 244.77C83.6501 245.03 85.5301 245.4 87.4501 244.96" stroke="#EAE6E1" stroke-miterlimit="10"/>
<path d="M101.45 256.13C101.48 255.83 101.27 255.64 101.16 255.4C100.88 254.77 101.52 253.81 100.74 253.43C100.12 253.13 99.2903 253.26 98.5603 253.17C96.0303 252.85 93.5003 252.58 90.7403 252.74C91.0103 253.64 90.5603 254.32 90.5903 255.22C92.7303 255.48 94.9103 255.63 97.0503 256.05C98.5303 256.34 99.9503 256.69 101.45 256.29" stroke="#EAE6E1" stroke-miterlimit="10"/>
<path d="M101.93 241.361C100.93 240.351 99.5501 240.661 98.3801 240.541C96.4501 240.331 94.5101 239.981 92.5301 240.221C91.8201 240.301 91.0601 239.941 90.2001 240.431C90.2201 240.921 90.4101 241.571 90.2201 242.081C89.8801 243.001 90.1901 243.281 91.0301 243.391C94.3101 243.791 97.5801 244.241 100.87 244.611C101.46 244.681 101.9 244.291 101.86 243.571C101.81 242.891 101.81 242.211 101.78 241.531" stroke="#EAE6E1" stroke-miterlimit="10"/>
<path d="M84.0201 243.04C83.2201 242.52 83.2001 241.39 82.3501 240.89C82.1001 240.74 81.9001 240.59 81.6001 240.64" stroke="#EAE6E1" stroke-miterlimit="10"/>
<path d="M85.5299 240.351C85.0399 241.541 84.0399 242.521 84.0499 243.911" stroke="#EAE6E1" stroke-miterlimit="10"/>
<path d="M80.9303 250.46C80.8403 250.56 80.6803 250.65 80.6603 250.76C80.1203 253.12 80.0603 255.53 79.8003 258.13C82.3403 257.75 84.6003 258.8 86.9303 258.12C86.7303 256.54 87.0003 254.99 87.3203 253.44C87.6503 251.84 87.3903 251.58 85.7803 251.14C84.2303 250.72 82.7003 250.28 81.0703 250.46" stroke="#EAE6E1" stroke-miterlimit="10"/>
<path d="M34.46 202.51C53.2156 202.51 68.42 187.305 68.42 168.55C68.42 149.794 53.2156 134.59 34.46 134.59C15.7044 134.59 0.5 149.794 0.5 168.55C0.5 187.305 15.7044 202.51 34.46 202.51Z" stroke="#EAE6E1" stroke-miterlimit="10"/>
<path d="M39.79 165.46C40.49 161.72 39.83 158.06 38.63 154.59C37.45 151.18 34.54 149.6 31.08 148.87C28.36 148.3 25.77 148.17 23.45 149.99C20.99 151.92 19.1 154.3 18.47 157.4C18.04 159.51 18.95 161.6 19.08 163.71C19.1 164.11 19.08 164.51 19.08 164.91" stroke="#EAE6E1" stroke-miterlimit="10"/>
<path d="M54.6099 174.83C54.3199 177.44 53.7899 179.63 53.8099 182.24C53.8099 186.06 48.0799 188.56 47.0099 188.37C45.8799 188.16 40.6699 184.88 40.6699 180.06C40.3899 178.57 41.0799 177.17 41.0799 175.49C43.6499 175.62 45.8299 174.67 47.5999 172.91C48.6699 174.72 52.2799 175.58 54.6099 174.62" stroke="#EAE6E1" stroke-miterlimit="10"/>
<path d="M30.42 177.01C31.48 176.36 32.66 175.52 32.08 174.21C31.61 173.15 32.27 171.46 30.21 171.05C28.42 170.69 26.78 170.95 25.66 172.89C24.94 174.14 24.7 175.6 26.28 176.56C27.5 177.3 27.43 178.48 27.35 179.62C27.24 181.08 27.67 182.15 29.27 182.73C30.91 181.14 30.5 179.17 30.2 177.22" stroke="#EAE6E1" stroke-miterlimit="10"/>
<path d="M43.2801 170.91C43.7601 169.92 43.4901 168.87 43.4701 167.86C43.4501 165.86 41.5101 165.95 40.4301 165.77C36.6201 165.13 32.8101 164.53 28.9001 164.48C26.6401 164.45 24.4101 164.43 22.1401 164.5C19.6201 164.58 17.6601 165.97 15.3901 166.57C14.2301 166.88 14.4601 167.91 14.5301 168.73C14.9801 174.03 14.6201 179.34 14.7301 184.64C14.7501 185.37 14.8501 186.12 14.3101 186.8C16.4401 187.74 18.5101 187.89 20.6001 188.21C24.5401 188.81 28.4601 188.29 32.3801 188.59C34.1801 188.73 39.9201 187.97 41.6901 188.12" stroke="#EAE6E1" stroke-miterlimit="10"/>
<path d="M51.3099 178.319C50.4099 180.189 48.4899 181.189 47.5199 182.959C45.9899 182.149 45.0199 180.909 43.8999 179.849" stroke="#EAE6E1" stroke-miterlimit="10"/>
</g>
</g>
<defs>
<clipPath id="clip0_219_702">
<rect width="278.68" height="275.85" fill="white"/>
</clipPath>
</defs>
</svg>
