<?xml version="1.0" encoding="UTF-8"?><svg id="Layer_1" xmlns="http://www.w3.org/2000/svg" viewBox="0 0 50 50"><defs><style>.cls-1{fill:#fff;stroke-width:0px;}</style></defs><path class="cls-1" d="m32.95,48.09h-15.9c-6.01,0-10.89-4.89-10.89-10.89v-15.9c0-6.01,4.89-10.89,10.89-10.89h15.9c6.01,0,10.89,4.89,10.89,10.89v15.9c0,6.01-4.89,10.89-10.89,10.89ZM17.05,14.19c-3.92,0-7.1,3.19-7.1,7.1v15.9c0,3.92,3.19,7.1,7.1,7.1h15.9c3.92,0,7.1-3.19,7.1-7.1v-15.9c0-3.92-3.19-7.1-7.1-7.1h-15.9Z"/><path class="cls-1" d="m25,38.79c-5.26,0-9.54-4.28-9.54-9.54s4.28-9.54,9.54-9.54,9.54,4.28,9.54,9.54-4.28,9.54-9.54,9.54Zm0-15.91c-3.51,0-6.37,2.86-6.37,6.37s2.86,6.37,6.37,6.37,6.37-2.86,6.37-6.37-2.86-6.37-6.37-6.37Z"/><circle class="cls-1" cx="34.73" cy="19.23" r="2.22"/></svg>