<?xml version="1.0" encoding="UTF-8"?>
<svg id="Layer_1" data-name="Layer 1" xmlns="http://www.w3.org/2000/svg" viewBox="0 0 77.39 65">
  <defs>
    <style>
      .cls-1 {
        fill: #fff;
      }
    </style>
  </defs>
  <path class="cls-1" d="m22.68,62.3H.25c-.06-.69-.05-1.27.45-1.86,2.57-3.04,5.08-6.12,7.61-9.19.71-.86,1.01-1.85.87-2.96-.02-.2-.03-.4-.03-.61,0-10.84-.01-21.69.02-32.53,0-1.2-.32-2.14-1.11-3.05-2.15-2.49-4.2-5.07-6.34-7.57-.52-.6-.64-1.19-.51-1.94.15,0,.3-.02.45-.02,6.97,0,13.95,0,20.92-.01.38,0,.54.13.69.46,5.48,12.04,10.97,24.07,16.45,36.1.06.14.13.27.24.49.22-.54.41-1,.6-1.47,4.69-11.71,9.39-23.42,14.08-35.13.1-.25.18-.45.54-.45,6.72.01,13.45.01,20.17.01.09,0,.18.01.3.02.07.67.11,1.25-.5,1.8-1.9,1.73-3.74,3.54-5.6,5.32-.41.39-.6.86-.58,1.42,0,.28.02.56.02.84,0,13.68,0,27.36,0,41.05,0,.3,0,.59-.02.89-.02.56.18,1.03.58,1.42,1.91,1.86,3.81,3.74,5.72,5.59.47.46.17.99.28,1.53h-29.58c-.09-.7-.07-1.28.54-1.84,1.86-1.71,3.64-3.51,5.46-5.26.44-.43.67-.9.67-1.52,0-11.37,0-22.75,0-34.12,0-.05,0-.09-.03-.28-.11.26-.18.4-.24.55-5.49,13.94-10.98,27.88-16.46,41.83-.16.39-.33.57-.77.53-.42-.04-.84-.04-1.26,0-.37.03-.54-.1-.7-.44-1.71-3.76-3.43-7.51-5.15-11.26-4.68-10.21-9.36-20.42-14.04-30.63-.06-.14-.13-.28-.31-.41,0,.19,0,.37,0,.56,0,9.17,0,18.35,0,27.52,0,.7,0,1.41.14,2.08.11.51.4,1.02.74,1.44,2.53,3.11,5.07,6.21,7.66,9.27.49.58.5,1.15.45,1.85Z"/>
</svg>