<?xml version="1.0" encoding="UTF-8"?>
<svg id="Layer_1" data-name="Layer 1" xmlns="http://www.w3.org/2000/svg" viewBox="0 0 210 210">
  <defs>
    <style>
      .cls-1 {
        fill: none;
        stroke: #eae5e1;
        stroke-linecap: round;
        stroke-linejoin: round;
      }

      .cls-2 {
        opacity: .4;
      }
    </style>
  </defs>
  <g class="cls-2">
    <g>
      <path class="cls-1" d="m12.96,178.8c-.22-.56.51-2.92.42-3.51-.11-.72.18-1.36.28-2.04.13-.89.3-1.77.21-2.68-.05-.56.21-1.1.29-1.66.09-.62.16-1.24.18-1.87.02-.84.3-1.64.44-2.46.33-1.96.72-3.9,1.07-5.85.29-1.65.61-3.29.98-4.93.37-1.6.63-3.23.92-4.86.42-2.36.8-4.73,1.04-7.11.13-1.31.38-2.59.47-3.9.14-1.95.34-3.9.57-5.84.21-1.72.43-3.44.77-5.13.18-.89.2-1.78.36-2.66.22-1.13.46-2.26.67-3.39.19-1,.37-2.01.59-3.01.28-1.29.36-2.61.73-3.88.17-.59.25-1.23.31-1.85.13-1.35.35-2.68.55-4.02.26-1.77.36-3.57.68-5.32.26-1.42.3-2.89.77-4.25.61-1.79.71-3.65.89-5.5.08-.81-.07-1.63.13-2.43.27-1.07.13-2.18.29-3.23.38-2.47.44-4.98,1.04-7.43.25-1.02.38-2.09.54-3.14.24-1.5.32-3.03.69-4.51.27-1.06.25-2.16.55-3.21.42-1.47.61-3,.97-4.48.38-1.53.58-3.08.82-4.63.32-2.1.61-4.21.96-6.3.38-2.24.84-4.47,1.2-6.71.21-1.28.26-2.58.61-3.83.58-2.1.86-4.25,1.15-6.41.08-.62.46-1.18.48-1.84.01-.44.23-2.04.13-2.49"/>
      <path class="cls-1" d="m95.19,153.23c-.79-.46-.73-1.25-.6-1.94.15-.8.08-1.59.16-2.37.19-1.83.57-3.63,1.02-5.42.4-1.59.71-3.19,1.09-4.78.35-1.47.46-2.98.84-4.45.36-1.38.57-2.82.83-4.24.21-1.17.64-2.28.99-3.41.4-1.29.77-2.6,1.13-3.9.31-1.13.7-2.23,1.07-3.35.58-1.72,1.14-3.45,1.77-5.15.27-.74.69-1.42.96-2.17.51-1.41,1.37-2.66,1.83-4.09.06-.2.14-.38.26-.53.82-1.12,1.33-2.46,2.4-3.4.6-.52.86-1.25,1.22-1.9.69-1.23,1.66-2.23,2.44-3.38,1.04-1.52,2.08-3.04,3.09-4.58.82-1.25,1.63-2.51,2.43-3.78.81-1.29,1.34-2.7,1.96-4.08.65-1.45,1.22-2.93,1.79-4.41.44-1.16.85-2.36,1.14-3.58.11-.47.29-.94.45-1.4.47-1.4.78-2.84,1.04-4.29.06-.34-.01-.61-.26-.92-.85-1.06-.82-1.87-.05-2.81.2.03.32.19.47.29.73.5.7.47.39,1.24-.19.47-.24,1-.65,1.37"/>
      <path class="cls-1" d="m156.8,115.27c-.33.54-.41,1.18-.47,1.77-.12,1.29-.41,2.56-.68,3.82-.64,2.94-1.01,5.91-1.38,8.9-.21,1.71-.26,3.46-.68,5.13-.28,1.1-.42,2.22-.6,3.33-.07.45-.19.87-.34,1.28-.35.92-.42,1.88-.62,2.82-.18.84-.25,1.7-.37,2.54-.22,1.59-.45,3.17-.61,4.77-.22,2.17-.28,4.39-1.08,6.48-.29.74-.34,1.55-.5,2.33-.28,1.39-.5,2.79-.72,4.19-.12.74-.26,1.48-.4,2.22-.51,2.58-.73,5.19-1.03,7.8-.22,1.92-.46,3.87-.98,5.73-.32,1.16-.42,2.36-.87,3.51-.47,1.21-.36,2.58-.41,3.9-.06,1.42.18,2.91-.59,4.28-.22.39-.39.93-.37,1.45"/>
      <path class="cls-1" d="m3.75,186.89c.02-.23,2.24-22.98,2.29-23.24.35-1.87.73-3.73,1.06-5.6.24-1.34.47-2.68.86-3.99.11-.39.18-.78.23-1.17.08-.73.09-1.48.46-2.15.33-.61.27-1.32.41-1.97.18-.87.42-1.75.42-2.65,0-.47.2-.91.24-1.36.14-1.41.43-2.8.56-4.21.09-1.06.46-2.09.43-3.16-.06-1.87.38-3.69.62-5.52.36-2.77.79-5.52,1.15-8.29.24-1.82.67-3.61,1.01-5.42.02-.1.02-.21.03-.31.19-2.78.68-5.53.97-8.31.18-1.7.67-3.36,1.02-5.04.25-1.2.43-2.42.33-3.67-.02-.28.04-.57.12-.87.25-.86.37-1.75.47-2.65.24-2.03.45-4.06.87-6.06.32-1.54.42-3.1.71-4.63.16-.88.41-1.75.55-2.64.19-1.15.17-2.29.14-3.44-.03-1,.04-2,.06-3,.03-1.2.02-2.42.21-3.62.32-2.02.56-4.05.96-6.05.19-.95.2-1.94.37-2.91.41-2.4.81-4.81,1.08-7.23.13-1.18.38-2.34.42-3.53.05-1.34.46-2.62.59-3.96.17-1.81.58-3.58.95-5.36.02-.1.02-.21.03-.31.2-1.86.37-3.73.62-5.58.16-1.21,2.84-17.8,2.83-17.9"/>
      <path class="cls-1" d="m94.52,27.43c-.38,1.4-.79,2.78-.93,4.24-.16,1.65-.61,3.25-.94,4.86-.1.49.17,1.03.08,1.57-.4,2.24-.4,4.52-.61,6.78-.09,1-.31,1.98-.47,2.96-.09.53-.04,1.08-.16,1.61-.47,2.02-.47,4.09-.74,6.13-.32,2.48-.58,4.97-1.01,7.42-.26,1.5-.39,3.03-.8,4.5-.49,1.72-.69,3.51-1.31,5.21-.21.57-.31,1.17-.38,1.78-.19,1.62-.57,3.2-.8,4.81-.1.74-.27,1.48-.32,2.23-.04.74-.26,1.45-.44,2.15-.18.74-.34,1.48-.42,2.22-.24,1.97-.61,3.91-.91,5.87-.05.33-.15.66-.28.97-.5,1.19-.59,2.44-.62,3.7-.01.43-.11.87-.18,1.3-.09.6-.06,1.21-.12,1.81-.18,1.7-.28,3.41-.58,5.08-.32,1.77-.49,3.57-1,5.3-.21.71-.29,1.44-.38,2.16-.11.87-.33,1.72-.45,2.59-.12.86-.12,1.74-.25,2.61-.31,1.96-.63,3.92-1.1,5.85-.25,1.02-.36,2.06-.61,3.08-.12.49-.2.99-.39,1.47-.33.83-.29,1.73-.49,2.59-.37,1.58-.65,3.19-.87,4.8-.13.93-.35,1.84-.35,2.79,0,.49-.06.99-.23,1.49-.16.46-.1.99-.11,1.49-.03,1.3-.21,2.57-.43,3.85-.15.88-.17,1.79-.13,2.68.02.48-.09.92-.21,1.36-.33,1.21-.15,2.45-.28,3.67-.17,1.69-.54,3.34-.87,5-.11.56-.27,1.14-.2,1.74.11.89-.28,1.73-.41,2.59-.09.61.02,1.21-.14,1.81-.39,1.44-.65,2.91-.97,4.36-.23,1.05-.65,2.11-.56,3.2.06.78.17,1.6.11,2.34-.09,1.05.1,2.14-.3,3.17-.39,1-.35,2.09-.52,3.14-.19,1.18-.13,2.37-.33,3.54-.13.71-.48,1.06-1.17,1.07-1.38.04-2.74-.22-4.1-.34-.1,0-.21-.05-.17-.2"/>
      <path class="cls-1" d="m158.43,105.08c.17.1.36.1.55.12,1.18.08,1.92.86,2.66,1.64.1.1.05.22.03.32-.39,1.54-.68,3.1-.91,4.68-.11.75-.31,1.5-.6,2.19-.36.88-1.34.97-2.07,1.35-.31.16-.69.02-1.05-.13-.29-.12-.32-.25-.26-.49.37-1.42.16-2.91.59-4.34.24-.81-.03-1.72.23-2.54.2-.62.23-1.23.28-1.86.05-.52.43-.88.53-1.39.23-1.21.63-2.4.7-3.63.07-1.32.5-2.55.79-3.81.26-1.12.33-2.28.68-3.39.36-1.12.45-2.29.59-3.45.18-1.49.51-2.96.6-4.46.12-2.18.67-4.28,1-6.42.19-1.25.47-2.51.74-3.75.46-2.06.83-4.13,1.1-6.23.25-1.94.66-3.87,1.06-5.79.26-1.29.38-2.61.65-3.88.45-2.13.56-4.3.94-6.44.23-1.25.48-2.5.7-3.75.09-.52.04-1.08.12-1.62.37-2.39.7-4.78,1.11-7.17.31-1.8.75-3.56,1.14-5.34.36-1.62.47-3.26.73-4.88.32-1.98.46-4,1.17-5.91.11-.29.11-.62.28-.92.11-.19-.34-.55-.62-.56-1.38-.02-2.77,0-4.14.07-1.45.07-2.92-.03-4.35.24-1.96.37-3.95.59-5.92.82-2.27.27-4.56.26-6.85.2-1.29-.03-2.6,0-3.9.06-1.08.04-2.18-.1-3.25,0-1.46.13-2.92.32-4.38.39-1.06.05-2.13.08-3.2.11-1.16.03-2.32.06-3.47.2-.88.11-1.77.17-2.65.18-1.37.02-2.73.17-4.1.26-1.1.07-2.2.18-3.29.26-1.92.13-3.86.13-5.79.2-2.35.09-4.7.19-7.05.31-1.61.09-3.23.03-4.84.1-1.13.05-2.27.07-3.4.17-.27.02-.45-.12-.68-.15"/>
      <path class="cls-1" d="m141.75,177.19c.63-.37.43-1.11.72-1.62.63-1.1.48-2.39.89-3.55.57-1.62.74-3.3.54-5.03-.08-.68.16-1.4.24-2.1.26-2.14.89-4.21,1.24-6.33.3-1.81.46-3.65.88-5.43.26-1.1.44-2.22.76-3.31.09-.29.1-.58.13-.87.2-1.98.53-3.93,1.06-5.86.18-.65.28-1.35.35-2.03.18-1.79.38-3.57.89-5.31.06-.22.08-.45.07-.68-.07-2.04.44-4.02.75-6.01.35-2.21.48-4.43.74-6.64.19-1.59.52-3.14.96-4.67.35-1.21.43-2.47.74-3.69.63-2.43.78-4.94,1.14-7.41.19-1.34.44-2.69.91-3.99.41-1.13.62-2.33.4-3.53-.12-.64.05-1.19.26-1.73.36-.91.52-1.87.71-2.82.34-1.7.54-3.42.93-5.12.16-.71.29-1.42.26-2.17-.02-.4.24-.84.28-1.28.1-1.16.19-2.32.31-3.48.18-1.77.74-3.48.78-5.25.04-1.51.27-2.99.48-4.47.31-2.21.44-4.44.9-6.62.32-1.52.64-3.04,1.04-4.54.15-.58.15-1.2.3-1.79.29-1.1.42-2.23.82-3.31.15-.4.19-.86.25-1.29.13-1,.52-1.95.62-2.95.1-1,.42-1.95.52-2.96.1-1.01.35-2.03.66-3,.28-.86.31-1.74.39-2.6.15-1.76.3-3.53.51-5.28.17-1.43.65-2.81.85-4.24,0-.04.07-.08.07-.12.02-1.53.59-2.99.58-4.52,0-.18.15-.36.05-.56"/>
      <path class="cls-1" d="m172.56,23.88c.35.02.56.29.76.52,1.17,1.4,2.41,2.74,3.61,4.11,1.75,1.99,3.56,3.92,5.26,5.96,1.35,1.62,2.88,3.07,4.25,4.67,1.27,1.48,2.65,2.85,4.03,4.23.48.47.76,1.1,1.28,1.52-.1,1.1-.58,2.11-.83,3.18-.3,1.29-.56,2.58-.83,3.87-.29,1.43-.5,2.88-.73,4.32-.27,1.67-.61,3.33-.99,4.98-.29,1.26-.71,2.49-1.06,3.73-.24.84-.4,1.72-.66,2.56-.35,1.15-.61,2.33-1,3.47-.13.37-.24.73-.27,1.11-.11,1.43-.47,2.81-.85,4.18-.05.18-.05.37-.06.56-.15,2.19-.57,4.34-.93,6.49-.21,1.27-.59,2.53-.63,3.83-.03,1.01-.23,1.99-.39,2.97-.23,1.42-.53,2.84-.85,4.24-.16.72-.17,1.45-.37,2.16-.42,1.47-.62,2.98-.71,4.5-.04.69-.08,1.37-.11,2.06-.06,1.37-.13,2.75-.44,4.09-.16.69-.11,1.42-.38,2.1-.54,1.39-.45,2.88-.69,4.32-.39,2.24-.61,4.5-.97,6.74-.19,1.24-.46,2.47-.78,3.69-.23.86-.32,1.76-.46,2.65-.18,1.13-.31,2.28-.59,3.39-.08.31-.14.61-.15.93-.05,1.4-.49,2.75-.55,4.15-.01.35-.19.69-.28,1.04-.13.55-.2,1.1-.24,1.67-.1,1.38-.48,2.71-.71,4.07-.24,1.44-.4,2.89-.58,4.33-.15,1.19-.38,2.35-.6,3.52-.16.9-.2,1.82-.41,2.72-.46,1.93-.52,3.93-.93,5.86-.42,1.99-.75,3.99-1.17,5.97-.3,1.45-.31,2.94-.51,4.4-.25,1.88-.4,3.77-.81,5.63-.37,1.68-.82,3.35-1.23,5.02-.04.18-.04.37-.06.56-.26,2.8-.63,5.59-1.19,8.35-.32,1.62-.49,3.26-.87,4.87-.21.9-.35,1.81-.5,2.71-.2,1.24-.56,2.45-.82,3.68-.24,1.11-.57,2.2-.81,3.31-.23,1.08-.37,2.18-.59,3.26-.09.45-.36.69-.88.82-1.35.34-2.64-.04-3.94-.18-.87-.1-1.74-.3-2.61-.22-1.01.1-2.01,0-3.01-.09-1.33-.11-2.66-.11-3.99-.23-1.68-.15-3.38-.11-5.07-.14-1-.02-2-.09-2.99-.16-2.61-.19-5.23-.38-7.85-.55-1.06-.07-2.15-.13-3.21.1-.13.03-.26.1-.37-.04,0,0-26-.94-26.18-.93-1.18.07-2.32-.25-3.48-.36-.06,0-6.73-.45-6.79-.48"/>
      <path class="cls-1" d="m30.94,26.01c-.51,1.2-.87,2.41-.89,3.74-.01.84,0,1.7-.21,2.55-.18.73-.02,1.5-.12,2.24-.25,2.05-.53,4.09-.91,6.12-.12.66-.09,1.33-.15,1.99-.2,2.32-.44,4.65-.94,6.93-.37,1.7-.69,3.41-1.05,5.11-.3,1.41-.73,2.83-.7,4.32.02.96-.31,1.89-.49,2.83-.21,1.13-.29,2.27-.52,3.4-.45,2.24-.8,4.51-.95,6.8-.04.64-.05,1.29-.11,1.93-.28,3.28-.84,6.51-1.73,9.67-.06.21-.08.41-.11.62-.23,2.03-.25,4.09-.75,6.07-.44,1.71-.64,3.46-.95,5.18-.25,1.35-.42,2.71-.59,4.08-.24,1.94-.5,3.88-.75,5.82-.27,2.12-.77,4.22-.7,6.39.02.63-.02,1.28-.15,1.93-.16.83-.07,1.72-.24,2.54-.38,1.95-.56,3.92-.73,5.89-.08.93-.01,1.88-.16,2.81-.25,1.52-.39,3.06-.5,4.59-.15,2.08-.35,4.17-.85,6.18-.56,2.27-.82,4.56-.99,6.87-.09,1.24-.54,2.37-.74,3.57-.13.78-.42,1.5-.61,2.26-.04.16-.09.35-.04.49.17.48.07.94-.09,1.37-.37,1-.35,2.06-.56,3.09-.12.58-.04,1.24-.17,1.86-.4,1.95-.71,3.91-1.24,5.84-.25.9-.27,1.85-.42,2.78-.14.89-.43,1.75-.58,2.64-.1.6-.2,1.19-.17,1.8.04.82-1.86,13.53-1.94,14.34"/>
      <path class="cls-1" d="m166.03,29.07c.04-.35-.24-.29-.41-.29-1.88,0-3.75-.37-5.62-.23-1.43.11-2.86-.01-4.27.1-2.22.18-4.46.13-6.65.62-.83.19-1.68.12-2.53.19-1.68.14-3.37.18-5.05.32-.79.07-1.59.04-2.38.02-1.24-.02-2.48.09-3.71.16-1.56.09-3.11.24-4.67.26-1.57.02-3.13.07-4.7.02-1.52-.05-3.05-.06-4.57-.1-1.98-.05-3.97-.08-5.95-.02-1.74.05-3.46.27-5.19.45-1.19.12-2.39.28-3.59.24-.26,0-.48.09-.71.19"/>
      <path class="cls-1" d="m98.49,39.36c-.46-.51-.21-1.1-.14-1.64.2-1.38.33-2.77.4-4.16.05-1,.19-1.99.45-2.97.25-.93.37-1.91.23-2.91-1.58-.31-3.17-.46-4.79-.31-.25.02-.4-.14-.61-.18-.44-.07-.88,0-1.32,0-1.97,0-3.88-.5-5.84-.58-1.77-.07-3.54-.08-5.31-.23-1.01-.08-2.03-.2-3.04-.35-1.63-.24-3.25-.51-4.9-.54-.46,0-.92-.03-1.37-.08-1.49-.18-3-.07-4.5-.2-2.07-.18-4.14-.45-6.22-.54-1.29-.05-2.56-.36-3.84-.48-1.76-.16-3.53-.23-5.3-.35-.17-.01-.33-.03-.5-.05-3.31-.32-6.63-.64-9.95-.87-1.68-.12-3.34-.43-5.01-.66-.49-.07-9.67-1.3-10.15-1.18"/>
      <path class="cls-1" d="m123.94,123.64c.3-.33.23-.78.33-1.16.39-1.42.71-2.85,1.06-4.28.24-1,.45-2.01.71-3,.44-1.69.83-3.39,1.28-5.08.49-1.85,1.11-3.65,1.65-5.49.26-.88.47-1.81.58-2.76.25-2.17.26-4.37.57-6.53.48-3.31.28-6.65.61-9.97.19-1.88.09-3.79.3-5.68.26-2.29.79-4.56.91-6.87,0-.15.14-.27.11-.43"/>
      <path class="cls-1" d="m128.12,51.12c-.85-.13-1.71-.05-2.56-.05-.32,0-.52,0-.67-.38-.17-.42-.62-.66-.94-.99-1.76-1.8-3.59-3.53-5.44-5.24-1.91-1.78-3.66-3.73-5.49-5.6-1.41-1.45-2.83-2.89-4.2-4.38-.97-1.05-1.94-2.1-2.74-3.28-.19-.29-.38-.31-.68-.25-.38.07-.23.32-.25.55-.19,2.01-.35,4.02-.6,6.02-.21,1.69-.34,3.4-.65,5.08-.29,1.58-.26,3.21-.79,4.76-.22.64-.22,1.35-.33,2.03-.19,1.12-.44,2.22-.7,3.32-.11.48-.21.98-.29,1.47-.16,1-.29,2-.67,2.94-.02.06-.02.12-.02.19-.16,2-.54,3.96-.85,5.94-.25,1.63-.51,3.25-.74,4.88-.12.83-.08,1.72-.29,2.47-.26.92-.28,1.88-.63,2.78-.14.37-.13.79-.16,1.17-.08.96-.38,1.88-.43,2.84-.04.74-.23,1.45-.44,2.15-.1.33-.08.71-.05,1.06.07.85-.18,1.66-.27,2.48-.1.93-.04,1.88-.32,2.79-.18.58-.13,1.2-.29,1.79-.14.53.01,1.07-.08,1.62-.26,1.66-.42,3.34-.58,5.02-.08.85-.03,1.71-.14,2.56-.13.99-.29,1.98-.43,2.97-.24,1.71-.55,3.42-.87,5.12-.19.99-.57,1.94-.72,2.94-.23,1.51-.67,2.97-.82,4.5-.04.37-.11.75-.24,1.1-.43,1.2-.42,2.47-.64,3.7-.34,1.81-.48,3.64-.73,5.45-.25,1.76-.72,3.48-.99,5.23-.23,1.47-.61,2.91-.91,4.36-.37,1.76-.59,3.53-.79,5.31-.17,1.47-.61,2.91-.76,4.38-.13,1.24-.54,2.43-.44,3.73.07.86-.13,1.78-.3,2.66-.18.9-.43,1.8-.48,2.71-.04.8-.43,1.49-.5,2.27-.12,1.31-.39,2.61-.71,3.88-.51,2.01-.7,4.08-1.11,6.1-.28,1.38-.2,2.79-.5,4.16-.37,1.73-.81,3.47-.88,5.24-.03.87-.35,1.75-.04,2.63.04.12-.01.27-.1.36-.72.81-.55,1.81-.58,2.77"/>
      <path class="cls-1" d="m136.57,109.14c.06.66.1,1.32.26,1.97.28,1.12.24,2.26.25,3.41,0,.75.07,1.51.02,2.26-.06.93-.29,1.82-.53,2.71-.32,1.22-.39,2.48-.66,3.7-.12.52-.29,1.01-.43,1.52-.47,1.74-.53,3.55-.94,5.3-.33,1.4-.58,2.82-.82,4.24-.24,1.46-.56,2.9-1.12,4.29-.32.8-.61,1.67-.65,2.56-.08,1.89-.6,3.65-1.48,5.31-.31.58-.33,1.23-.47,1.84-.23,1.01-.5,2.01-.84,2.98-.15.43-.21.87-.33,1.29-.34,1.16-.32,2.39-.61,3.57-.22.91-.51,1.79-.78,2.68-.28.91-.38,1.87-.76,2.75-.56,1.27-.91,2.6-1.14,3.96-.11.7-.16,1.4-.27,2.11-.11.75-.32,1.48-.45,2.21-.13.76-.26,1.52-.36,2.28-.23,1.75-.94,3.39-1.04,5.17-.04.68-.53,1.24-.66,1.94-.08.46-.16.96-.35,1.41"/>
      <path class="cls-1" d="m136.03,72.03c-.22,2.34-.59,4.67-.9,7-.11.85-.14,1.74-.15,2.62,0,.5-.08,1-.11,1.5-.08,1.58-.3,3.15-.38,4.73-.09,1.64-.22,3.28-.29,4.93-.07,1.52-.12,3.04-.13,4.56,0,.92.3,1.83.45,2.75.14.86.24,1.73.31,2.6.02.31.18.55.24.84"/>
      <path class="cls-1" d="m50.3,58.77c.33.58-.09,1.17,0,1.76.25,1.46.14,2.96.63,4.39.84,2.41,2.25,4.32,4.54,5.53.35.19.73.27,1.1.34,2.15.42,4.32.48,6.5.2.49-.06.98-.26,1.42-.49.43-.22.87-.43,1.33-.6.83-.31,1.55-.74,2.15-1.42,1.32-1.47,2.63-2.92,3.19-4.9.17-.59.58-1.11.66-1.76.17-1.46-.11-2.87-.54-4.25-.65-2.12-1.9-3.89-3.63-5.22-1.41-1.08-3.11-1.53-4.91-1.58-.69-.02-1.37-.16-2.06-.12-1.54.09-3.02.43-4.38,1.19-.79.44-1.74.56-2.38,1.27-.49.53-1.08.95-1.65,1.4-.4.32-.69.73-.92,1.17-.2.4-.39.77-.66,1.14-.29.38-.5.88-.34,1.39.18.58-.39.64-.6.95"/>
      <path class="cls-1" d="m96.35,49.63c-.61.46-.54,1.19-.67,1.82-.28,1.48-.83,2.91-.91,4.42-.04.75-.35,1.56.28,2.2-.45,1.17-.82,2.42-.65,3.59.23,1.56-.35,2.95-.51,4.42-.03.3-.09.62-.13.93-.06.44,0,.91-.43,1.22-.08.06-.14.19-.15.29-.21,1.85-.79,3.63-1.01,5.48-.14,1.2-.27,2.41-.67,3.58-.15.43-.25.93-.29,1.41-.09,1.15-.35,2.27-.52,3.4-.08.49-.06,1-.09,1.5-.12,1.61-.48,3.18-.82,4.75-.36,1.63-.58,3.29-.88,4.93-.39,2.13-.6,4.3-1.06,6.42-.22,1.02-.25,2.06-.38,3.1-.19,1.62-.6,3.2-.75,4.82-.11,1.12-.46,2.17-.67,3.26-.1.53.19,1.04-.02,1.57-.33.83-.25,1.73-.39,2.59-.47,2.98-.74,5.99-1.3,8.97-.25,1.32-.2,2.7-.38,4.04-.21,1.55-.47,3.1-.9,4.62-.25.89-.33,1.84-.48,2.77-.39,2.32-.72,4.65-1.07,6.98-.01.08.02.17.03.25"/>
      <path class="cls-1" d="m80.89,152.01c.48-.44.65-1.03.71-1.62.16-1.44.56-2.83.79-4.25.14-.86.26-1.73.41-2.59.25-1.36.53-2.72.9-4.05.42-1.5.59-3.04.83-4.56.18-1.13.41-2.26.48-3.4.16-2.46.83-4.85,1-7.3.08-1.24.23-2.49.41-3.72.15-1.05.25-2.11.36-3.16.12-1.18.51-2.32.65-3.51.04-.31.02-.62.06-.94.24-1.71.41-3.43.71-5.13.33-1.83.45-3.67.55-5.53.1-1.76.31-3.52.6-5.27.31-1.85.69-3.69.97-5.55.3-2.02.74-4.03,1.15-6.03.15-.72.15-1.45.27-2.17.25-1.48.33-2.98.62-4.45.12-.59.26-1.18.29-1.79.07-1.22.42-2.39.58-3.58.14-1.07.28-2.15.47-3.21.07-.41.07-.83.24-1.23.11-.27.08-.59-.16-.83"/>
      <path class="cls-1" d="m136.21,107.29c.29-.04.41.18.52.37.47.81.96,1.62,1.39,2.46.52,1.04,1.17,2.01,1.87,2.92.67.88,1.09,1.84,1.34,2.9.36,1.55.88,3.07,1.14,4.64.28,1.74.3,3.52.34,5.29.04,1.63-.1,3.26,0,4.89,0,.06,0,.12-.02.19-.19,1.47-.16,2.95-.33,4.42-.15,1.32-.32,2.65-.47,3.97-.25,2.34-.56,4.67-.75,7.01-.18,2.19-.45,4.39-.71,6.58-.23,1.94-.54,3.88-.77,5.82-.12,1.01-.15,2.03-.4,3.04-.3,1.18-.59,2.36-.9,3.54-.38,1.44-.53,2.92-.7,4.39-.09.78-.34,1.51-.48,2.27-.12.61-.21,1.25-.34,1.86-.15.72-.35,1.43-.54,2.13-.1.37-.13.75-.2,1.11-.12.62.06,1.26-.45,1.87-.29.36-.34,1.1-.22,1.7"/>
      <path class="cls-1" d="m92.55,36.58c-.61.08-1.21-.05-1.81-.12-1.22-.16-2.44-.28-3.66-.42-.48-.05-.95-.06-1.42-.24-.43-.16-.9.14-1.38.06-.23-.04-.5,0-.75-.04-1.98-.28-3.99-.33-5.98-.42-2.11-.09-4.19-.32-6.28-.55-2.36-.25-4.7-.68-7.05-.98-1.46-.18-2.93-.4-4.41-.4-1.14,0-2.28-.24-3.42-.31-2.23-.12-4.46-.15-6.69-.25-1.4-.07-2.79-.03-4.19-.1-1.77-.09-3.52-.36-5.29-.4-1.02-.02-2.05-.16-3.07-.02-.15.02-1.21-.08-1.26.07"/>
      <path class="cls-1" d="m147.77,117.83c-.31.02-.32-.27-.32-.41-.03-.81-.32-1.55-.53-2.31-.19-.7-.27-1.44-.4-2.16-.18-1-.59-1.97-1.18-2.83-.52-.75-1.08-1.48-1.09-2.48,0-.36-.25-.7-.4-1.04-.32-.71-.45-1.44-.52-2.19-.01-.13-.05-.26-.09-.38-.64-1.93-1.02-3.92-1.45-5.9-.3-1.36-.55-2.73-.82-4.1-.28-1.44-.21-2.9-.27-4.35-.08-1.73.2-3.47.09-5.19-.06-1.04.38-1.93.5-2.9.06-.45-.02-.88.02-1.32.19-2.04.48-4.06.98-6.05.11-.44-.08-.81-.14-1.21"/>
      <path class="cls-1" d="m136.1,178.51c1.41.12,2.82.24,4.23.35.9.08,1.57-.8,1.22-1.63-.24-.55-.34-1.08-.14-1.65.13-.38-.03-.75-.02-1.13,0-.6.2-1.16.32-1.72.25-1.2.13-2.41.21-3.62.05-.67.35-1.29.39-1.97.06-.96.09-1.92.03-2.88-.04-.53.23-1.02.27-1.54.18-2.6.57-5.17.92-7.75.21-1.56.13-3.17.41-4.72.27-1.54.47-3.1.9-4.62.21-.73.22-1.52.35-2.28.32-1.88.77-3.73,1.18-5.59.33-1.5.44-3.05.46-4.59.02-1.36.21-2.7.37-4.04.07-.56.06-1.12.12-1.68.13-1.05.25-2.11.27-3.17.03-1.91.17-3.81-.08-5.71-.03-.27-.03-.51.08-.75"/>
      <path class="cls-1" d="m124.09,71.73c-.61.17-1.25.12-1.81-.02-1.04-.25-2.13-.2-3.15-.53-1.04-.34-2.14-.38-3.21-.47-1.53-.13-3.06-.33-4.61-.37-1.9-.05-3.8.04-5.71.04-1.72,0-3.44-.1-5.15.09-.38.04-.75.2-1.14.08"/>
      <path class="cls-1" d="m78.73,173.37l-1.09,16.33,34.24,1.1c.63-.02,1.26-.08,1.89-.06,1,.04,1.99.12,2.99.23,1.93.21,3.88.03,5.81.24.87.09,1.76.18,2.62.11,1.01-.08,2.03-.18,3.03-.13,1.33.06,2.66,0,3.99.22.87.15,1.78-.01,2.66.05.85.06,1.69.09,2.53.04.24-.01.44-.18.7-.12,1.58.34,3.19.34,4.8.31.77-.01,1.53-.09,2.22.61,1.62,1.64,3.5,2.98,5.25,4.48,1.43,1.23,2.93,2.4,4.41,3.58,2.04,1.63,3.83,3.54,5.89,5.15.47.37.99.68,1.39,1.15"/>
      <path class="cls-1" d="m122.74,68.21c-.54.38-1.09,0-1.63,0-1.75-.03-3.49-.16-5.23-.31-.68-.06-1.36-.24-2.04-.24-1.15,0-2.3-.05-3.43-.24-1.26-.21-2.53-.26-3.79-.36-2.28-.18-4.58-.12-6.86-.35"/>
      <path class="cls-1" d="m93.36,32.15c-1.85-.59-3.76-.84-5.68-.92-1.77-.07-3.55.05-5.31-.24-2.47-.41-4.96-.58-7.43-.97-1.93-.3-3.88-.54-5.83-.61-2.59-.09-5.14-.43-7.71-.67-1.56-.15-3.12-.18-4.68-.27-.95-.05-1.91-.19-2.85-.34-1.24-.19-2.47-.33-3.73-.31-.89.01-1.78-.19-2.68-.2-1.31-.02-2.63,0-3.93-.19-2.45-.37-4.92-.51-7.39-.79-1.76-.2-3.51-.48-5.25-.83"/>
      <path class="cls-1" d="m118.15,88.45c-.72-.68-1.39-1.41-2.16-2.02-2.22-1.73-4.19-3.74-6.4-5.49-1.03-.81-1.92-1.81-2.88-2.71-1.6-1.51-3.1-3.12-4.55-4.78-.78-.9-1.64-1.73-2.3-2.73"/>
      <path class="cls-1" d="m121.7,158.16c-.43-.42-1.02-.41-1.55-.51-2.62-.51-5.26-.87-7.92-1.11-1.77-.16-3.54-.07-5.31-.16-.82-.04-1.69.05-2.52.17-.2.03-.33-.08-.5-.07"/>
      <path class="cls-1" d="m163.04,51.79c-.77-.04-1.53-.19-2.3-.17-1.19.04-2.36-.21-3.55-.23-2.64-.05-5.29-.12-7.92-.44-.49-.06-1.01.03-1.51.09-.84.1-1.67-.04-2.49-.19"/>
      <path class="cls-1" d="m117.07,176.27c.03-.66.38-1.24.46-1.9.13-1.03.55-2,.89-2.99.44-1.27.79-2.57,1.04-3.91.38-2.04.65-4.1,1.3-6.09.21-.65.25-1.39.17-2.11"/>
      <path class="cls-1" d="m142.22,72.95c-.79-.52-1.13-1.25-1.26-2.19-.06-.45-.18-.87-.1-1.34.07-.41.41-.67.44-1.08.04-.57.54-.61.94-.79.78-.35,1.59-.49,2.44-.59.79-.09,1.5-.55,2.32-.64,1.38-.14,2.74-.43,4.12-.46.7-.01,1.36-.24,2.04-.37,1.28-.26,2.53-.67,3.84-.83.76-.1,1.54-.07,2.29-.25"/>
      <path class="cls-1" d="m64.5,63.61c.56.76,1.35,1.18,2.24,1.41.13.03.22-.05.33-.08,1.3-.34,1.74-1.33,2.01-2.51.23-.96.04-1.88-.04-2.83-.18-2.15-1.39-3.64-3.06-4.8-.96-.66-2.1-.92-3.27-1.05-.44-.05-.87-.06-1.31-.1-.35-.03-.68-.14-.89-.41-.31-.38-.7-.47-1.15-.48"/>
      <path class="cls-1" d="m94.7,157.01c-.36.49-.42,1.02-.45,1.65-.08,1.89-.06,3.8-.52,5.65-.24.97-.28,1.98-.47,2.96-.41,2.08-.68,4.19-.89,6.31,0,.1-.05.2-.03.31.15.72.49.99,1.18.65.78-.38,1.63-.2,2.4-.53.12-.05.56-.23.62.23"/>
      <path class="cls-1" d="m131.16,36.01c.27-.05-1.16-2.53,4.73-2.68.7.09,7.63-.37,8.18-.22.82.22,1.6.51,2.28,1.04.56.44.54,1.88-.1,2.18-.12.06-.31.03-.5-.01-.74-.16-1.33-.66-2.05-.85-1.36-.35-6.76-.49-9.2-.08-.77.47-1.57.43-2.38.5-1.11.09-1.75.85-2.09,1.75-.48,1.29-.74,2.66-.87,4.05-.04.41-.03.81.13,1.21.22.55.25,1.12.16,1.71-.25,1.57-.17,3.16-.36,4.73-.21,1.74-.48,3.47-.76,5.19-.2,1.24-.55,2.46-.89,3.67-.6,2.11-.87,4.26-1.24,6.4-.13.74-.39,1.46-.33,2.23"/>
      <path class="cls-1" d="m130.28,59.11c-.54-.69-.16-1.43.05-2.06.42-1.27.53-2.59.8-3.88.39-1.9.55-3.83.74-5.76.08-.77.11-1.54.17-2.3.08-.94.27-1.92.03-2.88"/>
      <path class="cls-1" d="m64.59,67.07c-1.29.85-2.75,1.1-4.25,1.14-1.03.03-2.04-.08-3.03-.41-1.33-.44-2.15-1.43-2.8-2.55-.75-1.29-1.05-2.75-1.19-4.24-.02-.24.1-.37.14-.55"/>
      <path class="cls-1" d="m143.23,67.09c.11-1.4.33-2.77.64-4.14.19-.83.14-1.7.34-2.53.21-.84.17-1.7.4-2.54.2-.75.23-1.57.25-2.35.03-1.56.05-3.11.3-4.68.21-1.34.12-2.74.27-4.11.05-.46.13-.91.25-1.36.11-.4-.04-.74-.46-.92-1.18-.5-2.32-1.07-3.41-1.76-.61-.38-1.4-.4-2.04-.69-1.36-.62-2.73-.43-4.12-.31-.42.04-.83.08-1.25,0-1.62-.27-3.07.22-4.44,1.06-.18.11-.35.27-.59.26"/>
      <path class="cls-1" d="m135.42,182.27c-.47.48-.28,1.07-.21,1.61.13.93-.09,1.76-.44,2.6-.1.23-.25.27-.42.33-.61.2-1.32-.07-1.7-.6-.58-.81-1.41-1.36-2.21-1.88-.69-.45-1.44-.85-2.17-1.27-1.08-.62-2.23-1.07-3.37-1.55-.78-.33-1.63-.54-2.44-.7-.88-.18-1.8-.48-2.73-.18-.09.03-.18.05-.26.02-1.53-.57-3.16-.66-4.72-1.1-.12-.03-.26-.12-.37-.08-1.73.6-3.49.11-5.23.13-1.58.03-3.17-.05-4.76-.05-1.58,0-3.18,0-4.73.31-1.52.31-3.1.42-4.57,1.01-.48.19-1,.29-1.48.49-.44.19-.88.05-1.31-.06"/>
      <path class="cls-1" d="m140.76,69.23c-.72-.34-1.41-.77-2.16-1.01-1.73-.55-3.44-1.13-5.25-1.43-1.94-.31-3.87-.31-5.82-.19-.53.03-.99.3-1.53.32-.38,0-.42.42-.45.75-.06.6-.13,1.19-.48,1.71"/>
      <path class="cls-1" d="m98.75,39.26c.55-.2.45-.79.51-1.14.38-2.15,1.27-4.19,1.35-6.39.05-1.62.14-3.25.3-4.86"/>
      <path class="cls-1" d="m119.72,146.8c.16-1.15.53-2.25.76-3.37.33-1.56.74-3.11,1.16-4.65.27-1,.43-2.02.79-3"/>
      <path class="cls-1" d="m125.36,51.16c-.36,2.03-.92,4.03-1.11,6.1-.23,2.44-.68,4.86-.91,7.31-.04.43-.24.86-.35,1.28-.18.7,0,1.45-.21,2.18-.07.24.26.39.5.41.31.03.56.13.78.34"/>
      <path class="cls-1" d="m95.29,172.62c.29-1.14.36-2.33.87-3.44.17-.36-.02-.89.1-1.36.29-1.18.5-2.38.81-3.55.19-.73.35-1.47.44-2.22.06-.42.17-.6.63-.57,1.17.07,1.98-.7,2.89-1.27,1.42-.88,2.07-2.3,2.79-3.69.15-.29.05-.66.09-.99.18-1.51.43-3.03.21-4.56-.16-1.11-.88-1.78-1.91-2.13-.58-.2-1.18-.32-1.78-.42-1.01-.17-1.73.41-2.34,1.09-.12.13-.24.22-.37.32-.43.32-.79.69-.86,1.24-.09.71-.62,1.11-1.04,1.59"/>
      <path class="cls-1" d="m94.99,154.65c-.55.7-.48,1.64-.15,2.2.42.71.97,1.42,1.59,2.05.61.61,1.25.5,1.86.38,1.22-.24,2-1.19,2.83-2.02.07-.07.06-.2.1-.3.24-.64.34-1.35.87-1.86.09-.09.17-.24.16-.35-.1-.85.29-1.64.32-2.48.01-.37-.27-.57-.45-.78-.79-.91-1.17-1.34-2.5-.88-.57.2-1.16.38-1.61.79-.39.35-.8.47-1.3.36"/>
      <path class="cls-1" d="m95.13,58.22c.64.06.9-.09.94-.72.11-1.72.51-3.42.54-5.15,0-.38.06-.79.17-1.17.24-.85-.03-1.63-.28-2.41-.19-.58-.15-1.07.34-1.48"/>
      <path class="cls-1" d="m107.08,119.66c.31.03.28.32.25.46-.22,1.19-.21,2.43-.66,3.57-.72,1.8-1.02,3.71-1.57,5.55-.1.33.06.85-.44,1.03"/>
      <path class="cls-1" d="m141.12,71.96c-.58.22-1.1.03-1.61-.22-1.75-.89-3.59-1.48-5.53-1.81-1.01-.17-2.04-.17-3.03-.47"/>
      <path class="cls-1" d="m105.36,134.6c-.46-.11-.88.11-1.33.13-.22.01-.33.22-.34.4-.02.29-.16.53-.21.8-.21,1.17-.35,2.35-.61,3.51-.37,1.61-.52,3.27-1.01,4.86-.22.71-.21,1.48-.3,2.22"/>
      <path class="cls-1" d="m116.98,175.88c-.69-.13-1.32-.44-2.01-.59-1.21-.27-2.36-.78-3.6-.99-.86-.15-1.72-.45-2.58-.57-1.4-.2-2.83-.28-4.24-.24-1.78.05-3.57.02-5.35.19-.9.08-1.79.16-2.67.38"/>
      <path class="cls-1" d="m100.66,146.68c.06-.04.18.1.19-.04.04-.82.22-1.61.43-2.41.17-.66.17-1.45.13-2.17-.05-.9.31-1.69.51-2.52.34-1.42.64-2.85.74-4.32,0-.06-.07-.13-.1-.2"/>
      <path class="cls-1" d="m81.72,142.94c-.39-.03-.41.36-.41.52.01.72-.43,1.37-.3,2.11.02.14-.04.28-.09.43-.32.9-.4,1.82-.45,2.78-.04.76-.06,1.54-.12,2.31-.03.42-.02.86.45,1.08"/>
      <path class="cls-1" d="m106.58,119.99c-1.04,1.22-1.64,2.64-1.87,4.21-.2,1.36-.33,2.75-.7,4.06-.36,1.26-.69,2.51-.91,3.8-.14.8-.27,1.6-.36,2.41-.03.33-.62.73-1.14.83-.3.06-.44-.06-.53-.31-.01-.03.03-.08.04-.12"/>
      <path class="cls-1" d="m27.99,185.25c-.01-.25-.2-.31-.38-.28-.68.09-1.32-.18-1.99-.21-1.88-.08-3.71-.5-5.58-.67-.33-.03-11.55-1.55-11.86-1.43l4.78-3.86c.63,0,3.89.24,4.5.3,1.45.16,2.79.83,4.34.63,1.37-.17,2.78.19,4.18.12.96-.05,1.9.24,2.86.29.27.01.56-.06.81.01,1.29.39,2.6.63,3.94.75.29.03.61-.06.87.04.78.31,1.61.31,2.41.38,1.45.12,2.9.29,4.35.4.18.01,12.25,1.2,12.19,1.45"/>
      <path class="cls-1" d="m158.88,67.37c-.91.54-1.88.31-2.85.31-1.44,0-2.88.1-4.3.38-.89.17-1.8.06-2.67.35-1.84.62-3.79.8-5.61,1.5-.79.3-1.68.33-2.4.85"/>
      <path class="cls-1" d="m126.58,186.7c-4.39-2.25-15.27-3.04-15.98-3.15-1.24-.19-3.47.06-4.72-.03-1.19-.08-2.39-.08-3.58.02-1.07.08-7.13,1.38-8.11,1.95"/>
      <path class="cls-1" d="m145.62,44.69c.51-.3.43-.83.42-1.27-.03-.78.15-1.54.26-2.3.14-.97.19-1.95.34-2.92.1-.66.04-1.28-.33-1.85"/>
      <path class="cls-1" d="m117,127.91c-.05.81-.2,1.61-.13,2.44.05.57.29,1.04.58,1.48.21.33.53.18.81-.03.97-.76,1.61-1.69,1.55-2.99,0-.1-.04-.23.09-.3"/>
      <path class="cls-1" d="m111.05,127.83c-.85-.32-2.07-.07-2.62.56-.22.25-.24.6-.27.91-.06.56,0,1.11.19,1.66.11.3.25.45.54.42.49-.05.91-.28,1.31-.55.27-.18.26-.46.33-.72.37-.26.74-.12,1.12-.02"/>
      <path class="cls-1" d="m41.86,84.65c.29.13.6.18.92.22.29.04.5-.03.62-.38-.27-.55-.86-.79-1.35-1.14-.39-.27-.76-.58-1.03-.98-.18-.25-.13-.52.02-.75.47-.73,1.4-.92,2.1-.41.12.08.24.15.36.21"/>
      <path class="cls-1" d="m101.05,161.27c-.15,1.92-.92,3.71-1.31,5.58-.33,1.6-.73,3.18-1.01,4.79-.11.65-.02,1.26-.08,1.88"/>
      <path class="cls-1" d="m157.24,87.22c-.52.09-1.05.09-1.57.03-1.76-.19-3.52-.14-5.28.12-.22.03-9.72-.06-9.93-.05"/>
      <path class="cls-1" d="m3.75,186.89c1.43.14,22.87,2.34,24.3,2.51,1.22.14,2.45.22,3.68.22,1.61,0,3.19.27,4.79.38,2.74.19,5.47.49,8.22.54.93.02,1.86.19,2.79.38,1.06.22,2.16.12,3.23.3.69.11,1.42.15,2.1.24.7.1,1.42.21,2.11.17.52-.03.98.37,1.5.12l12.47,1.35c.83.25,1.66.45,2.53.43.37,0,.7.05,1.06.15.56.16,1.14.47,1.75.08.14-.09.42-.01.61.06.21.08.41.13.62.05"/>
      <path class="cls-1" d="m96.92,48.87c.51-.38.48-.9.31-1.41-.09-.29-.1-.52-.05-.83.24-1.57.79-3.08.92-4.67"/>
      <path class="cls-1" d="m132.29,57.86c-.34.45-.86.64-1.34.87-.69.33-.76.43-.68,1.13.05.44-.2.86-.45,1.13-.46.5-.63,1.12-.68,1.71-.1,1.16-.61,2.17-.99,3.22-.12.32-.22.61-.08.94.17.38.03.71-.1,1.06-.16.4-.42.74-.54,1.19-.12.49-.76.49-1.21.64-.27.09-.55.1-.83.11"/>
      <path class="cls-1" d="m106.98,127.74c-.08.88-.26,1.73-.69,2.5-.29.5-.6.97-.47,1.59.02.08-.04.29-.2.28-.2,0-.43,0-.54-.24-.13-.28-.32-.6-.33-.85,0-.83-.53-1.4-.83-2.09"/>
      <path class="cls-1" d="m91.76,181.74c-.74-.14-1.16-.72-1.49-1.29-.86-1.46-2.22-1.9-3.77-1.98-1.08-.06-2.17-.04-3.25-.08-1-.04-1.41.33-1.59,1.35-.09.51-.17,1.03-.24,1.55-.12.84-.16,1.7-.13,2.56.03.82.43,1.15,1.3,1.26.95.12,1.89.35,2.86.23.36-.04.74.11,1.11.15,1.37.12,2.75.04,4.12.15l44.58,1.32"/>
      <path class="cls-1" d="m119.2,136.72c-1.16-.72-2.44-.81-3.75-.74-.29.02-.56.05-.8-.15-.58-.47-.91-.5-1.49-.14-.11.07-.19.17-.33.18"/>
      <path class="cls-1" d="m35.72,32.44c-1.38-1.66-3.55-4.47-4.79-6.23"/>
      <path class="cls-1" d="m141.29,181.91c-1.81-.55-3.62-1.1-5.52-1.23-.41-.03-.72.46-.59,1,.07.3.22.56.55.69,1.23.5,2.29,1.32,3.44,1.97.41.23.51.79.26,1.2-.32.53-.61,1.07-.72,1.69"/>
      <path class="cls-1" d="m133.24,36.01c-.61,1.54-.82,3.17-1.1,4.78-.05.27.02.54-.01.81"/>
      <path class="cls-1" d="m53.37,76.63c-.94-.22-2.09.31-2.49,1.13-.16.34-.11.63.16.89.29.27.61.2.87.01.41-.28.78-.63,1.17-.94"/>
      <path class="cls-1" d="m70.75,134.9c-.04.15-.17.25-.2.42-.18.94-.58,1.21-1.55,1.11-.25-.02-.51,0-.76.05-.31.06-.54.03-.74-.26-.2-.29-.52-.32-.84-.27-.36.05-.69.11-.99-.21-.16-.16-.39.02-.56.12-.54.33-.92.31-1.45-.01-.42-.26-.84-.54-1.26-.78-.64-.36-1.42-.53-2.21-.28-.45.14-.95.21-1.36-.18"/>
      <path class="cls-1" d="m60.56,67.24c0-.71-.49-1.16-.93-1.57-.32-.31-.62-.83-1.24-.66-.04.01-.2-.1-.29-.19-1.14-1.11-2.5-1.92-3.79-2.82-.24-.17-.51-.23-.8-.14"/>
      <path class="cls-1" d="m88.16,175.68c0,.26-.16.25-.34.22-.35-.06-.71-.08-1.05-.17-1.23-.31-2.5-.11-3.73-.3"/>
      <path class="cls-1" d="m59.19,86.61c-.06-.31.07-.59.18-.86.14-.32.36-.69.01-.92-.37-.25-.94-.32-1.28-.06-.58.43-.88,1.16-1.49,1.59-.06.04.11.16,0,.25"/>
      <path class="cls-1" d="m47.28,138.55c-.39.29-1.14.28-1.42-.09-.36-.48-.72-.79-1.34-.5-.06.03-.16-.03-.24-.07-.67-.34-1.32-.19-1.95.11-.52.25-1.17.13-1.67-.29-.27-.22-.61-.29-.92-.09-.35.23-.69.32-1.08.14"/>
      <path class="cls-1" d="m32.29,123.97c-.58.19-1.17.49-1.76.01-.27-.22-.3-.48-.18-.83.3-.9,1.04-1.2,1.84-.69"/>
      <path class="cls-1" d="m60.66,53.52c-.43.52-1.09.33-1.62.52-.9.31-1.87.47-2.55,1.21-.43.48-1.11.5-1.55.96-.44.46-.47.59.04.95,1.08.75,1.78,1.85,2.67,2.77"/>
      <path class="cls-1" d="m64.42,130.08c-.33,1.19-1.48,1.39-2.52.81-.44-.25-.87-.1-1.31-.17-.46-.07-.95-.21-1.34.23-.17.2-.35.11-.56-.04-.5-.37-.98-.61-1.63-.13-.48.36-1.03.11-1.43-.87"/>
      <path class="cls-1" d="m55.73,84.51c-.16-.04-.33-.07-.52-.12-.2.29-.45.57-.61.89-.12.25-.3.43-.52.56-.13.08-.34.17-.5.08-.16-.1-.23-.28-.22-.51.02-.52.27-.94.46-1.4"/>
      <path class="cls-1" d="m57.64,61.31c-.12-.39-.44-.58-.72-.84-.76-.69-1.63-1.22-2.46-1.8-.3-.21-.59-.4-.97-.41"/>
      <path class="cls-1" d="m72.37,127.69c-.2.01-.37.02-.56-.14-.46-.38-.96-.38-1.49-.1-.18.1-.42.11-.64.13-.59.05-1.07-.32-1.34-1.01"/>
      <path class="cls-1" d="m46.55,125.56c-.05-.66-.88-1.06-1.49-.71-.25.15-.48.35-.68.56-.25.25-.54.29-.84.22-.35-.08-.33-.37-.32-.65,0-.11-.1-.21-.16-.33-.35-.02-.42.26-.53.51"/>
      <path class="cls-1" d="m70.45,131.92c-.79-.31-1.59-.48-2.37-.04-.49.27-.97.12-1.46.1-.23,0-.52-.15-.56.26"/>
      <path class="cls-1" d="m34.64,166.41c-.08.59-.04,1.18.03,1.76.07.58.71.83,1.19.49.23-.16.4-.4.63-.55.38-.25.48-.56.34-.98"/>
      <path class="cls-1" d="m71.57,75.85c-.32.64-.19,1.36-.37,2.04-.1.36-.14.68-.59.76-.28.05-.45.33-.68.49-.41.28-.92.23-1.38-.07-.44-.29-.64-.65-.51-1.18.08-.3.29-.44.56-.5.2-.05.22.13.25.27"/>
      <path class="cls-1" d="m43.9,159.6c.07.09.15.18.25.31-.49.42-1.03.55-1.63.3-.14-.06-.29-.07-.43-.14-.55-.27-1.05-.18-1.41.3-.26-.04-.29-.25-.39-.37-.38-.48-.68-.55-1.17-.23-.36.23-.73.46-1.02.78-.15.17-.33.17-.52.13"/>
      <path class="cls-1" d="m58.78,67.57c-1.01-1.26-2.38-2.05-3.74-2.86-.11-.07-.19-.15-.28-.23"/>
      <path class="cls-1" d="m42.81,116.16c-.69.26-1.46.45-2.14.37-.96-.11-1.88-.11-2.82.02-.61.08-.67.02-.5-.61"/>
      <path class="cls-1" d="m75.21,76.46c-.45.33-.44.88-.54,1.33-.14.66-.44,1.27-.51,1.95-.03.3-.03.55.08.82.37-.02.51-.34.74-.55.64-.6.95-.59,1.56.03.46.46.93.51,1.55.15"/>
      <path class="cls-1" d="m54.91,78.85c-.18-.35.08-.65.18-.92.38-1.02.51-2.08.72-3.13"/>
      <path class="cls-1" d="m58.91,64.95c.23-.54-.48-1.04-.09-1.57.33-.45.28-.98.32-1.48.05-.6-.03-1.18-.63-1.53.23-.29.22-.6.25-.89.08-.84.51-1.21,1.37-1.18.17,0,.38.1.33-.22"/>
      <path class="cls-1" d="m74.84,110.85c-.65,0-1.29-.45-1.9-.28-.61.17-1.11.33-1.64-.12-.09-.08-.28-.04-.43-.05"/>
      <path class="cls-1" d="m56.48,62.26c.42-.31.21-.65-.05-.87-.9-.78-1.8-1.56-2.93-1.99"/>
      <path class="cls-1" d="m131.61,56.48c-.02-.5.22-.99.53-1.24.64-.52.47-1.08.31-1.74.43-.18.51-.53.44-.98-.03-.15-.03-.34.1-.49.33-.39.29-.82.06-1.25"/>
      <path class="cls-1" d="m46.9,85.09c-.46.8-1.16,1.44-1.61,2.26,1.17.54,1.76.25,2.05-.9.11-.44.22-.86.07-1.31-.1-.31.21-.55.2-.86"/>
      <path class="cls-1" d="m94.74,62.2c.27-.21.4-.48.47-.83.16-.72.41-1.41.45-2.15.02-.31.01-.6-.11-.89"/>
      <path class="cls-1" d="m140.65,187.74c-.91.04-1.73-.43-2.66-.41-.91.02-1.8-.34-2.72-.37-.21,0-.35-.2-.53-.3"/>
      <path class="cls-1" d="m44.13,108.14c-.24-.05-.49.02-.67-.25-.31-.45-.72-.3-1.11-.12-.33.15-.6.42-.99.47-.45-.27-.07-.87-.45-1.17"/>
      <path class="cls-1" d="m106.25,168.93c-.52.16-1.04.27-1.57-.02-.17-.1-.33.07-.51.07-.19,0-.45.09-.55,0-.5-.46-1.14-.09-1.68-.32-.26-.11-.57.02-.76.23-.21.23-.46.33-.74.42"/>
      <path class="cls-1" d="m58.04,66.11c0-.11.05-.21-.09-.33-.96-.86-2.03-1.56-3.18-2.12"/>
      <path class="cls-1" d="m35.49,76.69c-.11-.16-.24-.29-.28-.52-.19-1.07-.44-2.14-.67-3.21"/>
      <path class="cls-1" d="m34.89,128.11c-1.03.33-1.93.2-2.71-.63-.22-.23-.58-.32-.88-.48"/>
      <path class="cls-1" d="m79.3,160.51c-.43.78-.53,1.66-.74,2.5-.48,1.91-.42,3.91-.96,5.8-.35,1.24-.58,2.48-.55,3.77.01.56.19,1.02.64,1.43.7-.43,1.06-.97,1.19-1.82.23-1.59.24-3.2.67-4.77.18-.68.33-1.38.42-2.09.14-1.14.24-2.28.41-3.41.11-.72.04-1.36-.45-1.93"/>
      <path class="cls-1" d="m114.91,131.22c.16-.12.29-.25.3-.47.04-.91.24-1.78.5-2.65.05-.17.09-.38-.07-.54"/>
      <path class="cls-1" d="m132.61,50.12c.39-.22.89-.26,1.12-.73.04,0,.02-.05-.03-.1-.79-.86-.79-1.01.28-1.61.6-.34.64-.59.24-1.16"/>
      <path class="cls-1" d="m59.48,158.03c-.62-.13-1.21-.09-1.83.08-.88.24-1.4-.3-1.31-1.24.04-.43.11-.87-.39-1.1"/>
      <path class="cls-1" d="m65.04,60.03c.67.48,1.33.97,1.92,1.56.23.23.53.37.81.02.21-.26.04-.45-.12-.64-.75-.87-1.72-1.49-2.61-2.2"/>
      <path class="cls-1" d="m51.44,134.57c-.02-.48-.32-.69-.74-.76-.59-.1-1.17-.09-1.72.2-.15.08-.32.15-.51.14-.38,0-.57.2-.69.55-.15.42-.42.78-.78,1.05"/>
      <path class="cls-1" d="m40.47,124.96c-.96-.21-2.02.21-2.91-.52-.13-.11-.45,0-.68.04-.83.12-1.59-.37-2.42-.25-.25.04-.39-.19-.53-.36"/>
      <path class="cls-1" d="m34.13,102.71c-.16-.44-.12-.93-.61-1.28-.38-.28-.73-.35-1.12-.26-.48.12-.43.57-.47.95-.01.1,0,.21.01.32.06.29-.21.71.13.86.39.17.87.09,1.25-.11.4-.21.78-.47,1.25-.49"/>
      <path class="cls-1" d="m54.08,104.48c-.45-.07-.92-.04-1.36-.19-.17-.06-.36-.07-.52.12-.19.23-.49.35-.78.36-.29,0-.52-.13-.65-.43-.14-.32.16-.36.28-.51"/>
      <path class="cls-1" d="m114.98,131.47c-.87-.95-1.34-2.18-2.17-3.16-.14-.17-.27-.47-.52-.35-.26.12-.58.41-.49.68.27.79-.13,1.46-.24,2.18-.02.16.04.35-.11.49"/>
      <path class="cls-1" d="m104.69,131.21c-.52.28-.3.86-.47,1.28-.21.52-.12,1.15-.32,1.71-.05.14-.06.32.08.44"/>
      <path class="cls-1" d="m59.52,109.09c-.68-.28-1.23-.09-1.67.51.01.43.27.65.74.65.44,0,.96-.38,1.01-.78.07-.6.24-1.19.25-1.79"/>
      <path class="cls-1" d="m33.51,131.93c-.12-.15-.33-.14-.42-.09-.75.41-1.56.39-2.37.45-.26.02-.51.11-.77.17"/>
      <path class="cls-1" d="m130.98,69.27c0,.11-.03.25-.15.23-.99-.16-2-.11-2.99-.16-.13,0-.25-.04-.37-.1"/>
      <path class="cls-1" d="m45.42,129.4c-.82-.31-1.64-.37-2.5-.13-.4.11-.73-.1-.88-.51-.23-.03-.47,0-.64.13-.7.55-1.56.2-2.31.44-.13.04-.32-.13-.35-.39-.02-.25-.15-.52-.51-.37"/>
      <path class="cls-1" d="m62.17,86.65c.42.08.82.03,1.2-.14.3-.13.5-.41.43-.7-.07-.3-.29-.57-.68-.57-.19,0-.38,0-.57,0"/>
      <path class="cls-1" d="m121.29,128.9c-.53.46-.65,1.11-.79,1.74-.11.51-.11,1.03-.16,1.55"/>
      <path class="cls-1" d="m50.05,108.47c-.33-.45-.81-.19-1.17-.15-.68.08-1.35-.1-2.02.08-.24.06-.4-.12-.53-.3"/>
      <path class="cls-1" d="m58.04,118.48c-.39,0-.74.02-1.12-.21-.32-.19-.74.04-1.18.06-.13-.35-.23-.76-.73-.85-.26-.05-.09-.31-.1-.49-.02-.28.01-.51.16-.74"/>
      <path class="cls-1" d="m74.84,85.95c-.44-.67-1.11-.79-1.85-.3-.44.29-.79.68-1.06,1.16.47,1.02,1.36,1.28,2.39,1.28"/>
      <path class="cls-1" d="m114.75,169.2c-.88-.29-1.75-.44-2.58.12-.24.16-.45-.06-.68-.07"/>
      <path class="cls-1" d="m141.58,178.93c.51.5.36,1.14.31,1.72-.03.4-.06.86-.46,1.15-.14.1-.08.28-.11.42-.11.62.05,1.25-.09,1.88-.05.22-.09.46-.17.67-.34.92-.67,1.83-.77,2.81"/>
      <path class="cls-1" d="m61.52,86.27c-.2-.55-.05-1.09.1-1.62.15-.54.27-1.08.04-1.63"/>
      <path class="cls-1" d="m68.62,87.35c.33-.71.25-1.02-.32-1.22-.65-.23-1.26.1-1.46.8"/>
      <path class="cls-1" d="m110.03,169.43c-.71-.28-1.35-.73-2.1-.9-.35-.08-.68-.1-1.01.03"/>
      <path class="cls-1" d="m45.97,104.12c.04-.52.34-.55.72-.36.4.19.78.45,1.2.61.76.28,1.04.14,1.44-.6-.32-.13-.65-.13-.99-.16"/>
      <path class="cls-1" d="m35.64,163.24c-.03.27-.05.54-.14.8-.11.35-.03.72.29.89.25.13.57.02.82-.15.07-.05.13-.12.21-.16.27-.14.3-.68.55-.61.73.22,1.59-.19,2.21.45.22.22.47.23.73.25.58.06,1.14-.12,1.76-.09-.07-.44.02-.81.15-1.17"/>
      <path class="cls-1" d="m66.27,86.99c-.17.05-.34.13-.52.13-.3,0-.45-.07-.41-.47.06-.77.41-1.45.51-2.21.06-.44-.23-.83-.08-1.26"/>
      <path class="cls-1" d="m64.81,127.36c-.15.05-.3.1-.45.14-.28.08-.48.07-.55-.3-.04-.23-.19-.45-.3-.66-.35-.65-.76-.75-1.34-.32-.1.07-.2.14-.33.15"/>
      <path class="cls-1" d="m65.52,106.11c-.43.11-.83.26-1.28.34-.75.13-1.23-.12-1.6-.74.1-.29.21-.64.32-.98"/>
      <path class="cls-1" d="m57.23,63.53c-.28-.54-.63-1.01-1.19-1.31-.74-.41-1.31-1.04-2.05-1.46-.5-.28-.82-.62-.56-1.31.15-.4-.22-.86.1-1.38.29-.48.6-.87,1.03-1.2"/>
      <path class="cls-1" d="m46.12,160.57c.73-.2.93-.12,1.39.51.13.18.31.27.53.31.54.09,1.07.2,1.59.4.45.17,1.17-.16,1.31-.55"/>
      <path class="cls-1" d="m48.8,77.25c-.67.05-1.07.61-1.65.87-.57-.31-.08-.99-.5-1.33"/>
      <path class="cls-1" d="m81.57,76.83c-.07,1.02-.35,1.98-.65,2.95-.16.52.04,1.06.29,1.52.17.31.4.67.88.47"/>
      <path class="cls-1" d="m99.2,168.61c-.68-.08-1.31.14-1.91.4-.37.16-.7.31-1.1.25"/>
      <path class="cls-1" d="m68.13,60.46c-.2-.87-.89-1.4-1.43-2.02-.27-.31-.49-.67-.92-.78"/>
      <path class="cls-1" d="m37.1,132.75c-.43.08-.83.23-1.23-.18-.11-.11-.61-.06-.93.11-.27.15-.62.14-.94.11-.54-.04-.6-.2-.44-.74.08-.26.39-.4.34-.72"/>
      <path class="cls-1" d="m34.79,116.38c.08-.22.25-.42.11-.72-.25-.07-.51-.04-.79.02-.9.19-1.77.53-2.73.32-.27-.06-.52-.18-.79-.24-.25-.06-.39-.31-.33-.64.11-.59.17-1.2.25-1.79"/>
      <path class="cls-1" d="m64.02,56.35c-.51-.18-1-.39-1.52-.51-.32-.08-.69-.17-1.01.07-.06.04-.15.12-.19.1-.87-.42-1.29.39-1.89.7"/>
      <path class="cls-1" d="m158.96,113.1c.17-.78.46-1.49.29-2.37-.1-.53.13-1.23.26-1.84.19-.88.36-1.16-.88-1.39-.27-.05-.45-.28-.73-.27"/>
      <path class="cls-1" d="m65.58,184c-.58.19-1.1-.19-1.68-.17-1.11.04-2.21.06-3.32-.07"/>
      <path class="cls-1" d="m41.13,132.93c-.52-.67-1.16-.81-1.84-.36-.29.19-.62.36-.82.67"/>
      <path class="cls-1" d="m59.55,138.5c-.96.36-1.92.67-2.94.28"/>
      <path class="cls-1" d="m124.4,132.96c.04-.94.02-1.88-.04-2.83"/>
      <path class="cls-1" d="m67.87,63.73c-.54-.49-.91-1.15-1.54-1.57-.44-.3-.86-.62-1.29-.94"/>
      <path class="cls-1" d="m48.36,111.94c-.07.08-.03.23-.24.24-.89.04-1.75.34-2.66.23"/>
      <path class="cls-1" d="m39.96,73.99c-.53.63-1.01,1.3-1.56,1.92-.2.22-.42.43-.67.35-.35-.12-.4-.5-.42-.84-.03-.49.28-.92.26-1.42"/>
      <path class="cls-1" d="m52.14,85.35c-.38-.03-.48-.24-.52-.61-.09-.85-.12-.85-.99-.6-.13.04-.26.06-.38.09"/>
      <path class="cls-1" d="m67.14,64.81c.13-.68-.43-.93-.82-1.27-.37-.31-.79-.56-1.16-.88-.31-.27-.63-.32-.99-.15"/>
      <path class="cls-1" d="m65.12,119.17c.42-.49-.03-.77-.27-1.09-.28-.36-.63-.09-.8.06-.63.55-1.42.54-2.15.72-.2.05-.39.02-.57-.01-.56-.09-.67-.38-.36-.85.11-.17.34-.28.31-.53"/>
      <path class="cls-1" d="m75.01,119.33c-.27-.04-.53-.07-.8-.19-.7-.3-1.42-.26-2.08.16-.63.4-.62.42-1.25-.12-.06-.05-.16-.06-.24-.09"/>
      <path class="cls-1" d="m52.65,118.39c.1-.91,0-1.84.27-2.73"/>
      <path class="cls-1" d="m58.04,58.46c.01-.81-.64-1.21-1.09-1.74-.3-.35-.7-.6-.97-.98"/>
      <path class="cls-1" d="m59.6,105.15c-.44-.08-.87-.11-1.32-.01-.22.05-.5.16-.67-.12-.19-.31.16-.44.25-.66"/>
      <path class="cls-1" d="m116.54,161.29c-.74-.28-1.53-.2-2.29-.3-.29-.04-.54.02-.73-.25-.13-.19-.31-.29-.54-.3"/>
      <path class="cls-1" d="m42.22,123.13c-.12.35-.44.38-.73.5-.64.26-1.33.45-1.68,1.14"/>
      <path class="cls-1" d="m44.74,103.87c-.81-.49-1.71-.61-2.63-.7"/>
      <path class="cls-1" d="m64.32,60.96c-.5-.13-.61-.7-1.04-.88.05-.61.65-.7.97-1.09-.35-.52-.77-.87-1.4-.94.02-.16-.13-.32.1-.57-.54.03-.93-.16-1.33-.29"/>
      <path class="cls-1" d="m57.6,126.77c-.68.26-.93.16-1.45-.58-.36.02-.69.16-1.03.27-.26.08-.62.32-.79-.02-.15-.3.09-.58.37-.77"/>
      <path class="cls-1" d="m43.78,133.32c-.64.26-1.23.37-1.82-.22-.2-.19-.61-.29-1.01.04-.51.42-1.23.44-1.86.65"/>
      <path class="cls-1" d="m122.73,131.42c.03-1.04-.65-1.74-1.21-2.49-.15-.2-.23-.38-.27-.61"/>
      <path class="cls-1" d="m80.71,152.56c.54.79.33,1.68.3,2.54-.02.66-.18,1.32-.24,1.98-.03.33-.31.47-.45.71"/>
      <path class="cls-1" d="m65.25,114.61c-.05-.75-.1-.75-.79-.84-.82-.12-1.55.07-2.3.36-.46.18-.74-.27-1-.61"/>
      <path class="cls-1" d="m37.51,155.02c.04.6-.39.87-.85.96-.45.09-1.02-.01-1.24-.43-.25-.48-.48-1.05-.24-1.64"/>
      <path class="cls-1" d="m55.68,130.35c-.68.42-1.25.02-1.78-.31-.49-.31-.87-.4-1.28.13-.35.46-.81.09-1.18,0-.45-.12-.88-.05-1.32-.04"/>
      <path class="cls-1" d="m64.17,77.75c0-.17.24-.39-.08-.51-.44-.17-.85-.41-1.36-.2-.48.2-.52.28-.25.68.25.36.64.48,1.01.66.33.15.66.28.88.59"/>
      <path class="cls-1" d="m65.83,188.47c0-.3.12-.34.4-.22.82.36,1.75.18,2.58.5.12.05.28.08.44,0,.32-.18.68-.11,1-.02,1.18.33,2.41.26,3.59.53l2.29.52,1.55-15.76"/>
      <path class="cls-1" d="m35.95,107.15c.1-.26.15-.45-.1-.72-.37-.38-.76-.14-1.13-.14-.16,0-.29.28-.53.24"/>
      <path class="cls-1" d="m113.5,135.4c-.35-.66-.7-.83-1.32-.49-.49.27-.94.31-1.39.09-.46-.23-.79.23-1.21.14"/>
      <path class="cls-1" d="m47.38,117.11c-.59.07-1.18.01-1.78.1-.72.1-1.51.14-2.23-.12-.37-.13-.49-.47-.61-.81"/>
      <path class="cls-1" d="m43.71,156.39c-.33.36-.58-.03-.91-.07-.57.39-1.23.59-1.92.28-.46-.2-.81.04-1.26.17-.14-.28-.5-.43-.44-.83"/>
      <path class="cls-1" d="m37.66,115.85c-.56-.07-1.1.04-1.64.16-.39.09-.7-.15-1.04-.23"/>
      <path class="cls-1" d="m51.23,125.83c-.14.15-.32.2-.52.2-.48,0-.52-.13-.39-.61.09-.33.21-.61.47-.83"/>
      <path class="cls-1" d="m97.45,41.64c.24.09.48.19.75.29.18-.83.14-1.65.34-2.44"/>
      <path class="cls-1" d="m71.66,106.83c-.25.11-.51.01-.75-.02-.22-.03-.42-.18-.45-.41-.03-.24.18-.35.35-.46.08-.05.17-.09.26-.13"/>
      <path class="cls-1" d="m37.53,111.13c-.17.31-.5.22-.58.06-.39-.79-.92-.15-1.38-.18-.11,0-.18.21-.33.21"/>
      <path class="cls-1" d="m79.65,81.03c-.45-.04-.27-.37-.25-.59.06-.54,0-1.07-.17-1.58"/>
      <path class="cls-1" d="m53.06,157.62c-.2-.06-.36-.17-.62-.14-.75.1-1.52-.1-2.28.16-.38.13-.94-.48-.96-.96,0-.12.02-.25.03-.37"/>
      <path class="cls-1" d="m91.62,177.4c-.16-.1-.34-.17-.47-.3-.76-.8-1.73-1.05-2.78-1.15-.08,0-.16-.05-.24-.08"/>
      <path class="cls-1" d="m45.4,169.16c-.42-.03-.83-.14-1.26,0-.33.1-.68-.07-.76-.38-.17-.68-.62-.52-.98-.33-.69.36-1.36.12-2.01.01-.4-.07-.79-.25-1.12.05-.2.18-.38.06-.44,0-.1-.12-.24-.26-.11-.5.15-.27.2-.6.29-.91"/>
      <path class="cls-1" d="m56.93,74.91c-.44,1.13-.63,2.32-.9,3.49-.05.2-.11.44.06.63"/>
      <path class="cls-1" d="m50.29,138.6c-.06-.03-.12-.07-.18-.08-.69-.04-1.31-.26-1.88-.63"/>
      <path class="cls-1" d="m77.92,107.58c.05-.41-.37-1.09-.77-1.13-.51-.05-.85.21-1.01.7"/>
      <path class="cls-1" d="m57.26,109.81c-.2.1-.42,0-.65.1-.2.09-.49-.02-.73-.05-.35-.05-.39-.29-.4-.6,0-.16-.21-.25-.4-.23"/>
      <path class="cls-1" d="m49.12,156.85c-.49.42-1,.65-1.69.54-.42-.07-.68-.28-.95-.55"/>
      <path class="cls-1" d="m61.85,126.56c-.06-.37-.41-.45-.61-.35-.52.26-1.08.19-1.61.32"/>
      <path class="cls-1" d="m53.34,77.57c.26-.25.18-.54.17-.86-.03-.79.06-1.59.35-2.34.07-.17.05-.33.1-.5"/>
      <path class="cls-1" d="m29.94,132.58c-.4-.74-.59-1.49-.09-2.27"/>
      <path class="cls-1" d="m65.98,132.05c-.46-.45-1.06-.27-1.6-.33-.38-.05-.68-.15-.83-.53"/>
      <path class="cls-1" d="m65.7,65.99c-.48-.55-1.12-.84-1.77-1.11"/>
      <path class="cls-1" d="m39.08,156.24c-.27.1-.54.15-.83.18-.54.07-.9-.03-1.01-.62"/>
      <path class="cls-1" d="m59.26,79.21c-.95.14-1.42-.11-1.79-.93"/>
      <path class="cls-1" d="m160.24,105.82c-.21.31-.27.67-.29,1.04-.01.36-.21.63-.4.9"/>
      <path class="cls-1" d="m60.59,183.76c-.83-.04-4.95-.61-5.79-.44-.47.09-.91-.1-1.38-.14"/>
      <path class="cls-1" d="m80.45,152.6c-.5.34-.45.89-.51,1.39-.11.91-.49,1.77-.4,2.72.04.42.13.79.41,1.1l-.54,2.33c-.38.04-.77.04-1.14.14"/>
      <path class="cls-1" d="m63.59,65.15c-.08.3-.4.5-.19.94.16.33-.35.63-.6.64-.42.01-.93.12-1.28-.28"/>
      <path class="cls-1" d="m61.88,112.52c-.36,1.09-1.28,1.07-2.17,1.07-.21,0-.42-.02-.62-.03"/>
      <path class="cls-1" d="m54.74,162.24c.07-.32-.18-.29-.35-.28-.55.05-1.08-.08-1.62-.1"/>
      <path class="cls-1" d="m67.54,126.37c-.6.56-.67.6-1.25.11-.24-.2-.43-.02-.63-.11"/>
      <path class="cls-1" d="m45,108.23c.54-.53.88-1.18,1.06-1.9"/>
      <path class="cls-1" d="m52.89,138.91q-.53-.12-1.09.21c-.58.34-1.02.25-1.49-.36.27-.37.51-.77,1.09-.62"/>
      <path class="cls-1" d="m47.28,85c-.82,0-1.41-.91-1.02-1.6.07-.12.18-.3.45-.17.21.09.31.25.46.38"/>
      <path class="cls-1" d="m44.68,84.62c.18-.65-.03-1.27-.13-1.89"/>
      <path class="cls-1" d="m40.09,112.2c-.65.18-1.29.31-1.71-.42"/>
      <path class="cls-1" d="m54.5,165.97c-.46.12-.91.19-1.38,0-.2-.08-.46-.05-.68,0-.34.07-.65,0-.92-.17-.29-.18-.59-.23-.92-.22-.16,0-.34.02-.49-.1-.23-.18-.48-.23-.79-.23-.73,0-.88-.23-.73-.93.07-.3-.1-.64.1-.93"/>
      <path class="cls-1" d="m53.87,108.53c-.73-.42-1.12-.39-1.77.14-.02.02-.08,0-.12,0"/>
      <path class="cls-1" d="m50.94,112.82c-.73-.08-.75-.09-1.33-.72-.48.2-1.02.32-1.23.9"/>
      <path class="cls-1" d="m105.59,134.25c-.03.34-.46.71.09,1.01.36.2.83.02,1.04-.4"/>
      <path class="cls-1" d="m61.35,60.54c-.41.02-.78-.12-.87-.53-.08-.35.11-.63.49-.73"/>
      <path class="cls-1" d="m131.71,62.13c-.45-.51-1.22-.57-1.61-1.16"/>
      <path class="cls-1" d="m60.49,55.88c-.36-.6-.91-.9-1.6-.97"/>
      <path class="cls-1" d="m58.74,126.6c.2-.6.26-1.19-.01-1.79"/>
      <path class="cls-1" d="m38.13,106.99c-.47.61-1.18.63-1.75.42-.61-.23-1.17-.1-1.75-.12-.18,0-.38,0-.56,0"/>
      <path class="cls-1" d="m52.72,126.01c-.48.02-.89-.26-1.35-.29.01-.15.03-.29.04-.44"/>
      <path class="cls-1" d="m61.09,60.58c0,.21.08.39.18.59.24.49.38,1.01.18,1.58-.21.61-.28.67-.86.41"/>
      <path class="cls-1" d="m65.61,106.49c-.04-.38.12-.65.39-.91.32-.31.65-.67.5-1.2"/>
      <path class="cls-1" d="m51.08,129.96l.05-.46c-.42-.35-.86-.2-1.31-.1"/>
      <path class="cls-1" d="m59.28,77.71c-.59-.1-1.17-.1-1.6.41-.22.26-.59.02-.79.3"/>
      <path class="cls-1" d="m37.11,128.52c-.37-.07-.76.11-1.12-.12-.11-.2.05-.43-.06-.63"/>
      <path class="cls-1" d="m160.07,113.9c-.16-.08-.35-.13-.47-.24-.66-.6-1.35-.45-2.06-.13-.17.08-.35-.02-.51.07"/>
      <path class="cls-1" d="m136.94,66.6c.4-.5.27-1.15.48-1.71"/>
      <path class="cls-1" d="m34.71,110.85c.44.06.69.41.47.72-.45.63-.21,1.41-.61,2.02"/>
      <path class="cls-1" d="m71.49,115.6c.28.13.4-.05.42-.27.02-.13.03-.31-.17-.4-.29-.13-.59-.23-.91-.28-.45-.08-.46.34-.68.51"/>
      <path class="cls-1" d="m30.99,126.92c-.28-.16-.39-.39-.45-.73-.05-.31.2-.53.1-.81"/>
      <path class="cls-1" d="m42.02,76.01c-.7-.15-1.23.19-1.75.58"/>
      <path class="cls-1" d="m37.39,163.92c-.08-.72-.74-1.16-1.47-.88-.29.11-.54.19-.84.15"/>
      <path class="cls-1" d="m38.06,158.97c-.48.58-.42,1.34-.67,2"/>
      <path class="cls-1" d="m133.49,56.41c-.38-.02-.73-.1-1.04-.34-.16-.13-.38-.2-.6-.19"/>
      <path class="cls-1" d="m41.69,116.37c-.16-.6-.06-1.15.29-1.66"/>
      <path class="cls-1" d="m110.16,160.47c-.32-.34-.66-.43-1.17-.33-.6.11-1.24,0-1.87-.03"/>
      <path class="cls-1" d="m44.96,107.97c-.35-.53-.31-1.19-.58-1.75"/>
      <path class="cls-1" d="m53.69,109.14c-.69.52-1.14.4-1.5-.4"/>
      <path class="cls-1" d="m47.9,134.22c-.45-.34-.89-.58-1.44-.15-.21.17-.46.16-.68-.11-.18-.22-.43-.37-.78-.28-1.03.26-1.1.2-1.17-.86"/>
      <path class="cls-1" d="m56.49,138.64c-.11.37-.66.56-.97.34-.22-.16-.33-.42-.5-.61"/>
      <path class="cls-1" d="m70.66,118.9c-.71.69-1.07.71-1.7.08"/>
      <path class="cls-1" d="m41.77,77.31c-.57-.06-1.18,0-1.51-.65-.14-.28-.43-.16-.67-.13"/>
      <path class="cls-1" d="m131.94,60.71c-.56-.12-.98-.58-1.57-.66"/>
      <path class="cls-1" d="m67.84,55.16c-.15-.56-.36-1.08-.93-1.35"/>
      <path class="cls-1" d="m36.46,75.15c-.2.65-.73,1.13-.93,1.79"/>
      <path class="cls-1" d="m63.49,66.15c.47.02.75.31,1,.66.28.39.63.39.81-.05.21-.52.5-.86,1.1-.9.47-.03.43-.43.45-.76"/>
      <path class="cls-1" d="m54.84,157.35c.49-.36.61-.96.95-1.41"/>
      <path class="cls-1" d="m71.87,86.85c-.31-.02-.58.04-.84.22-.22.15-.49.14-.75.06"/>
      <path class="cls-1" d="m36.85,111.31c-.49.35-1.02.43-1.59.22"/>
      <path class="cls-1" d="m38.61,133c-.29-.5-.16-1.06-.22-1.59"/>
      <path class="cls-1" d="m51.37,116.75c.47-.37.47-.93.58-1.45"/>
      <path class="cls-1" d="m57.4,58.65c-.25-.21-.5-.43-.75-.64-.2-.15-.42-.25-.68-.13"/>
      <path class="cls-1" d="m69.81,87.65c.61-.85.67-1.39.23-2.05"/>
      <path class="cls-1" d="m70.42,106.02c-.32-.47-.62-.65-1.24-.34-.64.33-1.4.43-2.11.63"/>
      <path class="cls-1" d="m70.14,117.85c-.52-.01-.83.35-.99.73-.2.5-.56.54-.95.52-.45-.03-.97,0-1.13-.62-.21.03-.42.05-.63.08"/>
      <path class="cls-1" d="m55.66,104.07c-.01.29-.21.46-.4.66-.19.2-.4.47-.66.34-.23-.12-.49-.36-.44-.71.03-.2-.1-.34-.14-.52"/>
      <path class="cls-1" d="m66.17,78.45c-.54.06-1.05.19-1.44.61"/>
      <path class="cls-1" d="m122.78,130.99c.66-.42,1.38-.76,1.89-1.38.2-.25.17-.63.46-.83"/>
      <path class="cls-1" d="m58.55,115.2c.19-.71.4-1.42.52-2.14"/>
      <path class="cls-1" d="m41.3,112.63c.02-.35.11-.67.46-.83.14-.06.32-.12.43.04.24.36.64.29.97.34.34.05.64.09.91.34.26.24.54.3.64-.18"/>
      <path class="cls-1" d="m54.33,187.4c-1.14.07-25.24-1.96-26.35-2.15"/>
      <path class="cls-1" d="m47.26,156.67c-.39-.3-.88-.06-1.29-.25"/>
      <path class="cls-1" d="m50.66,104.21c-.37-.17-.84-.05-1.16-.41-.1-.12-.1-.16-.06-.27"/>
      <path class="cls-1" d="m56.76,86.12c-.31-.47-.17-.96-.05-1.45"/>
      <path class="cls-1" d="m55.37,171.08c-.25-.47-.69-.67-1.18-.81"/>
      <path class="cls-1" d="m61.67,110.24c-.39-.27-.78-.54-1.29-.31"/>
      <path class="cls-1" d="m50.94,170.2c-.43.11-.84.25-.98-.4-.04-.21-.94-.22-1.23,0-.41.32-.96.5-1.12,1.07"/>
      <path class="cls-1" d="m36.51,102.69c-.27.18-.53.37-.81.55-.5.32-1.03.03-1.07-.61,0-.14.03-.29.04-.43"/>
      <path class="cls-1" d="m38.4,138.31c.22-.92.37-1.84.31-2.79"/>
      <path class="cls-1" d="m68.42,114.92c-.1.11-.21.02-.32.03q-1.14.14-1.03-.98l.02-.19"/>
      <path class="cls-1" d="m65.79,188.22c-.14-.15-.34-.13-.49-.1-1.03.17-2.05-.09-3.06-.16-.65-.05-1.33,0-1.99-.25-.42-.16-.96-.07-1.43.03-.85.17-1.65.16-2.51-.03-.56-.13-1.14-.27-1.72-.33"/>
      <path class="cls-1" d="m48.6,117.49c-.25.11-.51.03-.75-.02-.28-.06-.55-.21-.32-.58"/>
      <path class="cls-1" d="m48.84,129.05c-.33-.04-.59.18-.9.24-.41.07-.15.49-.29.71"/>
      <path class="cls-1" d="m58.88,134.49c-.4.27-.81.5-1.32.38-.14-.03-.05.11-.05.17"/>
      <path class="cls-1" d="m53.2,133.87c-.3-.38-.15-.89-.37-1.29"/>
      <path class="cls-1" d="m97.08,159.5c-.16.43-.5.76-.7,1.17.22.56.84.53,1.19.88"/>
      <path class="cls-1" d="m133.97,55.39c.27-.07.48-.3.35-.52-.26-.43-.09-.8,0-1.2"/>
      <path class="cls-1" d="m41.96,164.68c-.15.38-.31.75-.36,1.16"/>
      <path class="cls-1" d="m134.4,60.58c.17-.56-.31-.79-.58-1.12.27-.64.08-1.29.07-1.94"/>
      <path class="cls-1" d="m55.19,137.82c.04.5-.34.54-.69.62-.23.06-.46.01-.69,0"/>
      <path class="cls-1" d="m64.99,109.25c-.06.18.06.36-.01.57-.13.34-.37.36-.58.18-.24-.2-.42-.49-.62-.74"/>
      <path class="cls-1" d="m45.58,76.74c-.38-.04-.75-.1-1.13.01"/>
      <path class="cls-1" d="m60.93,138.76c-.49.55-.88.53-1.43-.08"/>
      <path class="cls-1" d="m63.85,108.45c.05.81-.52,1.33-.94,1.91"/>
      <path class="cls-1" d="m74.65,192.54c-.25.35-.04.75-.11,1.12"/>
      <path class="cls-1" d="m71.76,131.68c-.05-.08,0-.19-.14-.29-.42.31-1.1.33-1.28,1.03"/>
      <path class="cls-1" d="m33.94,123.69c-.31.36-.74.43-1.16.37-.23-.03-.42-.22-.33-.52"/>
      <path class="cls-1" d="m54.34,133.79c-.29.06-.41.42-.73.43-.14,0-.33.03-.32-.22"/>
      <path class="cls-1" d="m137.14,107.38c-.25-.31-.29-.78-.72-.95"/>
      <path class="cls-1" d="m61.42,57.23c.47-.36.35-.74.05-1.12"/>
      <path class="cls-1" d="m73.97,106.94c-.33.1-.64.07-.92-.16-.02-.28.15-.49.29-.72"/>
      <path class="cls-1" d="m59.31,69.75c-.35,0-.66.2-1.02.15"/>
      <path class="cls-1" d="m66.94,68.74c-.77-.17-.99-.45-1.06-1.36"/>
      <path class="cls-1" d="m48.09,167.98c-.29.71-.25,1.44-.15,2.18"/>
      <path class="cls-1" d="m64.01,60.93c-.1.24-.41.26-.46.62.41.53.91,1.16.21,1.93"/>
      <path class="cls-1" d="m159.13,110.73c-.57-.03-1.13-.12-1.66-.35"/>
      <path class="cls-1" d="m57.56,114.1c-.06-.15-.07-.35-.18-.45-.5-.46-.65-.98-.34-1.61"/>
      <path class="cls-1" d="m57.24,134.26c-.44.12-.89.22-1.31-.02-.19-.11-.33-.04-.44.04-.51.39-.74.16-.92-.34-.06-.15-.19-.27-.13-.46"/>
      <path class="cls-1" d="m58.78,172.79c.11-.43-.25-.48-.5-.61"/>
      <path class="cls-1" d="m51.96,62.94c-.54-.18-.59-.3-.46-1.11"/>
      <path class="cls-1" d="m63.44,69.91c-.48-.34-.96-.24-1.44-.02"/>
      <path class="cls-1" d="m74.44,106.64c.6.04.62.02.7-.72"/>
      <path class="cls-1" d="m54.04,113.19c-.49-.08-.95-.3-1.5-.18-.21.05-.44-.32-.62-.54-.16-.19-.02-.38.11-.55"/>
      <path class="cls-1" d="m46,103.75c-.16-.14-.35-.22-.64-.28-.28.12-.62.32-.67.78-.02.22-.24.17-.34.28"/>
      <path class="cls-1" d="m55.79,154.69c-.02.25-.33.47-.07.75"/>
      <path class="cls-1" d="m134.8,52.09c.29.42-.16.73-.17,1.11"/>
      <path class="cls-1" d="m53.96,156.77c-.01.54-.1,1.02-.84.86,0,.06,0,.13.01.19"/>
      <path class="cls-1" d="m68.65,110.68c-.11-.24-.33-.26-.54-.24-.64.08-.79-.02-.94-.66"/>
      <path class="cls-1" d="m55.93,166.68c-.23-.03-.48,0-.67-.19"/>
      <path class="cls-1" d="m33.89,107.64c.25-.61.11-1.24.12-1.87"/>
      <path class="cls-1" d="m54.41,106.89c-.2.68-.36,1.38-.46,2.09"/>
      <path class="cls-1" d="m51.8,170.41c-.12-.06-.25-.14-.36-.09-.33.14-.3-.11-.35-.29"/>
      <path class="cls-1" d="m136.15,106.59c.31-.08.32-.29.24-.54"/>
    </g>
    <path class="cls-1" d="m92.02,175.24l-.67,7.41s-.67,2.98.56,2.61"/>
    <line class="cls-1" x1="77.5" y1="191.12" x2="92.8" y2="203.67"/>
  </g>
</svg>