<svg width="10" height="8" viewBox="0 0 10 8" fill="none" xmlns="http://www.w3.org/2000/svg">
<path d="M8.90985 4.23047H1.12988C0.859883 4.23047 0.629883 4.01047 0.629883 3.73047C0.629883 3.45047 0.849883 3.23047 1.12988 3.23047H8.90985C9.17985 3.23047 9.40985 3.45047 9.40985 3.73047C9.40985 4.01047 9.18985 4.23047 8.90985 4.23047Z" fill="white"/>
<path d="M4.26994 7.38038C4.13994 7.38038 4.0199 7.33039 3.9199 7.23039L0.769941 4.08037C0.579941 3.89037 0.579941 3.57038 0.769941 3.38038L3.9199 0.230391C4.1099 0.0403906 4.42992 0.0403906 4.61992 0.230391C4.80992 0.420391 4.80992 0.740372 4.61992 0.930372L1.81993 3.73039L4.61992 6.53038C4.80992 6.72038 4.80992 7.04039 4.61992 7.23039C4.51992 7.33039 4.39994 7.38038 4.26994 7.38038Z" fill="white"/>
</svg>
