<?xml version="1.0" encoding="UTF-8"?>
<svg id="Layer_1" data-name="Layer 1" xmlns="http://www.w3.org/2000/svg" viewBox="0 0 402.76 470.83">
  <defs>
    <style>
      .cls-1 {
        opacity: .4;
      }

      .cls-1, .cls-2 {
        fill: none;
        stroke: #eae5e1;
        stroke-miterlimit: 10;
      }

      .cls-3 {
        opacity: .14;
      }
    </style>
  </defs>
  <g class="cls-3">
    <g>
      <g>
        <path class="cls-2" d="m291.86,279.43c-1.01.18-.57,1.29-1.32,1.7-2.37.23-4.66-.93-7.08-1.42-2.42-.49-4.85-.88-7.27-1.35-2.88-.56-5.79-.89-8.65-1.6-2.39-.59-4.82-1.12-7.26-1.49-2.34-.36-4.71-.61-7.03-1.09-2.29-.47-4.63-.61-6.93-1-.29-.05-.6,0-.91,0-3.3,0-6.59-.27-9.88-.51-1.9-.14-3.81-.57-5.7-1.02-1.3-.31-2.71-.48-4.07-.5-2.71-.02-5.37-.52-8.06-.73-3.65-.28-7.3-.62-10.9-1.26-2.38-.43-4.77-.81-7.16-1.19-.96-.16-1.97-.1-2.95-.13-3.18-.12-6.06-1.57-9.19-1.98-1.74-.23-3.48-.56-5.23-.59-1.86-.03-3.7-.29-5.56-.27-2.42.02-4.84.02-7.27,0-1.53-.01-3.04-.29-4.53-.51-1.06-.16-2.13-.19-3.2-.35-2.87-.42-5.73-.84-8.5-1.66-1.5-.44-3.04-.6-4.55-.85-1.6-.27-3.15-.74-4.76-.95-1.74-.22-3.5-.37-5.22-.7-1.87-.37-3.81-.49-5.57-1.34-.86-.41-1.84-.3-2.72-.58-1.62-.5-3.06-1.45-4.16-2.65-1.54-1.68-3.14-3.3-4.69-4.97-1.63-1.75-2.65-3.87-3.43-6.12-.23-.67-.45-1.36-.9-1.93"/>
        <path class="cls-2" d="m346.14,199.03c.31,2.19.47,4.38.22,6.59-.11.99.03,1.99.16,2.95.27,1.94.28,3.89.12,5.79-.24,2.84-.33,5.69-.23,8.52.08,2.31-.06,4.62.23,6.94.13,1.05.16,2.18-.03,3.29-.26,1.51.2,3.02.22,4.54.05,3.03-.61,5.98-.8,8.97-.19,3.02-.5,6.04-.37,9.08.12,2.84.24,5.68-.17,8.52-.13.93-.1,1.91-.29,2.83-.97,4.7-3.09,8.82-6.32,12.4-1.35,1.5-2.69,3.03-4.35,4.16-1.93,1.32-3.94,2.66-6.45,2.39-1.31-.14-2.54-.71-3.86-.9-2.6-.38-5.14-1.17-7.73-1.52-1.71-.23-3.47-.39-5.22-.37-1.54.01-3.03-.35-4.54-.52-.34-.04-.61.09-.91.04"/>
        <path class="cls-2" d="m250.42,186.32c-.14.42-.22.84,0,1.25.22.4.19.87.09,1.24-.45,1.63-.23,3.25-.13,4.89.09,1.5.16,3.03-.16,4.55-.21.99.15,2.02,0,3.06-.18,1.28-.18,2.58-.45,3.86-.27,1.29.29,2.66-.15,3.97-.14.41,0,.86-.13,1.24-.73,2.23-1.01,4.61-2.16,6.69-.43.77-.38,1.64-.84,2.42-.64,1.09-1.25,2.22-2.11,3.14-3.41,3.64-7.12,6.92-11.68,9.1-1.76.84-3.63,1.04-5.56,1.03-1.6,0-3.17.37-4.77.49-.63.05-1.25.01-1.81-.08-1.89-.33-3.79-.24-5.68-.32-2.31-.09-4.62-.33-6.93-.53-3.92-.34-7.74-1.22-11.57-1.99-2.01-.4-3.93-1.22-5.58-2.56-2.09-1.69-4.5-2.95-6.57-4.68-2.87-2.4-5.49-5.09-6.99-8.53-1.64-3.77-3.26-7.58-4.06-11.67-.34-1.71-.25-3.42-.26-5.12-.03-4.13-.14-8.25-.29-12.38-.03-.76-.16-1.53-.34-2.27-.45-1.87-.68-3.74-.6-5.68.04-.94-.34-1.89-.53-2.84"/>
        <path class="cls-2" d="m346.71,257.97c1.55.23,3.1.46,4.66.01.28-.08.61-.05.9,0,2.27.39,4.55.27,6.81-.02,1.64-.21,3.26-.06,4.88.03,1.2.07,2.22-.23,3.19-.92,1.35-.96,2.77-1.81,4.42-2.17.52-.12.99-.49,1.34-.82,2.37-2.24,4.33-4.89,5.06-8.05.92-3.99,1.56-8.06,1.05-12.25-.32-2.62-.68-5.26-.58-7.94.07-1.96-.33-3.95-.64-5.9-.45-2.82-1.06-5.62-1.61-8.42-.56-2.89-.97-5.86-1-8.84-.03-2.63-.39-5.23-.7-7.83-.38-3.31-.93-6.59-1.46-9.88-.33-2.09-.83-4.16-1.09-6.25-.12-.93-.08-1.9-.27-2.83-.53-2.59-.64-5.24-1.06-7.85-.25-1.52-.47-3.08-.58-4.64-.09-1.24-.47-2.48-.65-3.75-.26-1.82-.34-3.67-.87-5.46-.6-2-.81-4.09-1.08-6.14-.23-1.7-.52-3.4-.79-5.09-.42-2.58-.79-5.18-1.37-7.74-.48-2.13-1.05-4.26-1.38-6.45-.26-1.75-.49-3.58-1.22-5.22-.64-1.46-.55-2.96-.77-4.44-.16-1.08-.55-2.12-.84-3.17-.34-1.27-.45-2.44.06-3.65.26-.62,0-1.21-.11-1.82-.34-1.91-1.25-3.63-1.8-5.46-.4-1.34-.99-2.55-1.71-3.75-1.2-2.01-3.07-2.98-5.14-3.73-1.76-.64-3.55-1.11-5.45-1.16-.75-.02-1.36.17-1.93.6-.62.47-1.2,1-1.82,1.47-1.16.86-2.25,1.86-3.74,2.18-.4.09-.84.28-1.13.57-1.59,1.61-3.18,3.19-4.39,5.17-.82,1.34-1.25,2.87-2.18,4.14-.3.42-.36,1.04-.53,1.56-1.21,3.7-1.62,7.51-1.78,11.37-.12,2.96-.54,5.9-.71,8.86-.14,2.47-.63,4.92-.99,7.38-.27,1.89-.52,3.79-.83,5.67-.27,1.63-.49,3.26-.74,4.89-.42,2.79-.91,5.58-1.15,8.4-.37,4.29-.78,8.57-1.37,12.83-.37,2.72-1.12,5.36-2.05,7.95-.54,1.51-.95,3.11-1.92,4.43-2.09,2.83-4.6,4.88-8.26,5.55-1.81.33-3.59,1-5.47,1.16-2.35.2-4.71.32-7.04-.03-2.87-.43-5.64-1.27-8.3-2.46-.48-.22-1.05-.28-1.58-.35-2.19-.27-4.12-1.27-6.14-2.03-.33-.13-.25-.52-.56-.59"/>
        <path class="cls-2" d="m269.15,190.52c-1.87-1.89-2.64-4.27-3.08-6.81-.16-.93-.13-1.77-1.41-2.38-1.58-.76-3.29-.87-4.82-1.59-.55-.26-1.13-.46-1.7-.69-2.24-.88-4.63-1.26-6.93-1.92-1.53-.44-3.02-1.04-4.55-1.45-2.39-.64-4.75-1.41-7.25-1.69-1.32-.15-2.62-.82-3.98-.93-1.78-.14-3.51-.68-5.34-.54-.85.06-1.73-.49-2.61-.73-.52-.14-1.03-.3-1.59-.24-1.05.11-2.07-.07-3.07-.44-1.51-.57-3.11-.3-4.65-.49-3.2-.4-6.38-.89-9.56-1.47-2.21-.4-4.5-.81-6.8-.76-3.11.06-6.22,0-9.31-.26-4.09-.35-8.18-.01-12.26-.22-3.14-.16-6.29-.08-9.43-.43-4.28-.47-8.55.02-12.83,0-4.86-.02-9.7.18-14.54.66-1.24.12-2.5.06-3.75,0-2.37-.09-4.68.66-7.04.45-2.61-.24-5.23-.24-7.84-.62-3.41-.49-6.78-1.06-10.11-1.95-.27-.07-.65-.15-.76-.28-1.47-1.55-3.33-2.8-3.98-4.98-.29-.96-.49-1.98-.53-2.95-.11-2.32-.68-4.61-.6-6.92.14-3.64.1-7.29.75-10.91.61-3.38,1.38-6.73,2.08-10.1.36-1.73.54-3.48.75-5.23.2-1.65.65-3.21,1.17-4.77.6-1.81.55-3.71.77-5.57.31-2.64.29-5.32.81-7.95.27-1.38.94-2.63,1.1-4.08.11-1.02.29-2.06.36-3.07.31-4.23.94-8.39,2.77-12.25,1.07-2.25,2.48-4.25,4.51-5.82,2.11-1.63,4.23-3.25,6.52-4.58,1.28-.74,2.38-2.1,4.17-1.77,1.2.22,2.42.42,3.63.45,3.23.07,6.29,1.01,9.42,1.61"/>
        <path class="cls-2" d="m132.44,75.03c-1.43-.79-3.05-.58-4.54-.6-1.53-.02-3.11.1-4.66.35-1.14.19-2.29.25-3.18,1.15-.68.69-1.65.94-2.4,1.57-2.13,1.8-4.01,3.8-5.66,6.04-.63.85-.95,1.81-1.14,2.84-.34,1.83-1.09,3.56-1.54,5.35-.61,2.44-1.29,4.87-1.65,7.37-.48,3.34-1.2,6.63-2.11,9.89-.75,2.68-1.21,5.45-1.85,8.17-.65,2.77-1.19,5.54-1.41,8.4-.19,2.43-.53,4.87-1.05,7.28-.17.77-.16,1.59-.22,2.38-.39,5.59-.23,11.2-.27,16.8-.02,3.31.56,6.55,1.2,9.75.47,2.36,1.2,4.74,3.23,6.38.14.11.3.22.35.45.48,1.95,1.95,2.66,3.72,3.23,1.41.46,2.75,1.18,4.22,1.55.31.08.61.26.57.67-.27,2.99.29,5.97-.05,8.98-.2,1.85.12,3.8.42,5.66.29,1.82.33,3.64.4,5.46.09,2.53-.11,5.08.06,7.6.17,2.57.3,5.15.43,7.72.09,1.77-.48,3.46-.55,5.22-.05,1.24-.06,2.5-.17,3.75-.15,1.86-.19,3.72-.07,5.56.28,4.07.36,8.17,1.44,12.16.23.84.13,1.74.13,2.61"/>
        <path class="cls-2" d="m279.49,261.83c-1.33.17-2.38-.75-3.63-.93-1.72-.25-3.41-.67-5.11-.99-.82-.16-1.53-.59-2.38-.71-2.31-.34-4.64-.42-6.93-.88-3.63-.73-7.31-1.21-10.9-2.17-1.49-.4-3.02-.42-4.54-.58-3.06-.32-6.09-.88-9.2-.96-1.31-.03-2.66.02-3.97-.18-2.41-.36-4.86-.22-7.28-.63-1.37-.23-2.79.03-4.2-.13-2.16-.25-4.32-.51-6.48-.76-2.12-.24-4.2-.68-6.35-.79-2.73-.15-5.46-.45-8.19-.78-2.44-.3-4.93-.45-7.37-.79-2.69-.37-5.4-.64-8.07-1.18-2.09-.42-4.24-.53-6.35-.83-3.56-.5-7.15-.65-10.68-1.44-3.8-.85-7.56-1.89-11.35-2.73-3.27-.73-6.57-1.3-9.87-1.87-3.56-.62-7.14-1.02-10.69-1.71-1.66-.32-3.3-.74-4.98-1.01-.54-.09-1.06-.07-1.59-.09"/>
        <path class="cls-2" d="m276.76,187.56c2.34.51,3.67,2.1,4.55,4.2.48,1.15.88,1.3,2.27,1.27.81-.02,1.59-.2,2.38-.23,1.27-.05,2.49.38,3.75.55,1.99.27,3.68,1.38,5.56,1.94,1.52.46,3.03.87,4.66.83.94-.02,1.86.3,2.75.82,1.14.66,2.55.22,3.84.46,2.47.47,5.01.53,7.48,0,1.42-.3,2.87-.53,4.22-1.19,1.35-.66,1.56-.35,1.72,1.1.26,2.25-.31,4.46-.15,6.7.34,4.82-.5,9.6-.36,14.42.08,2.84.23,5.67.27,8.52.05,3.83-.25,7.64-.23,11.47.01,3.33.15,6.67-.24,9.99-.33,2.83-.31,5.7-.73,8.51-.29,1.97-.55,3.96-.91,5.92-.27,1.5.01,3.09.05,4.64"/>
        <path class="cls-2" d="m166.05,78.21c.51-1.17.23-2.38-.03-3.51-.91-4.04-2.52-7.71-6.23-9.97-1.35-.83-3.48-1.11-5.22.19-2.05,1.52-3.24,3.57-4.1,5.91-.45,1.22-1.1,2.36-1.69,3.53-.86,1.68-1.01,3.54-1.35,5.34-.36,1.94-1.06,3.81-1.29,5.79-.06.51-.05.99.03,1.48"/>
        <path class="cls-2" d="m294.48,120.68c-1.67.84-3.37,1.61-4.67,3.05-1.15,1.27-1.89,2.71-2.38,4.33-.29.94-.73,1.8-.75,2.84,0,.34-.07.78-.01,1.13.09.58.14,1.14-.02,1.71-1.18.18-2.18.75-2.82,1.72-1.18,1.78-2.7,3.37-3.21,5.55-.24,1.05-.47,2.1-.44,3.18.01.41-.08.86-.46,1-1.33.5-2.13,1.61-2.92,2.65-1.4,1.84-2.92,3.63-3.44,5.99-.53,2.36-.72,4.68,0,7.05.42,1.4.8,2.79,1.69,3.96-1.19,1.01-1.95,2.39-2.02,3.65-.09,1.85-.8,3.53-.89,5.33-.02.46-.14.83-.47,1.13"/>
        <path class="cls-2" d="m291.86,89.8c-1.6-.35-3.12-.98-4.77-1.17-.57-.07-1.16-.15-1.71-.16-3.52-.04-7.03-.41-10.56-.3-3.11.1-6.21-.21-9.32-.59-2.04-.25-4.1-.37-6.12-.74-3.31-.61-6.7-.25-9.98-.75-3.86-.59-7.75-.52-11.6-1-3.12-.39-6.21-.92-9.31-1.37-1.63-.24-3.33.05-4.99-.06-3.71-.26-7.45-.2-11.13-.87-.77-.14-1.59-.04-2.38-.02-3.08.1-6.14-.24-9.2-.56-2.84-.29-5.66-.66-8.51-.84-3.46-.21-6.93-.37-10.34-1.2-2.26-.55-4.61-.51-6.92-.72-2.04-.18-4.11-.11-6.13-.46-.33-.06-.61-.01-.91,0-.41.02-.95.22-1.23-.11-.59-.71-1.33-.54-2.06-.55-2.41-.03-4.78-.44-7.15-.8-1.41-.21-2.75-.68-4.09-1.13"/>
        <path class="cls-2" d="m291.07,99.33c-.98.16-1.71-.18-2.28-1.01-.92-1.33-2.15-2.06-3.85-2.22-1.36-.13-2.68-.31-3.98.17-4.6,1.71-8.52,4.43-11.92,7.94-.23.24-.43.47-.8.45-2.17-.09-3.99,1.12-6.01,1.63-1.05.26-1.73,1.26-2.39,2.12-1.12,1.44-2.35,2.81-3.09,4.53-.24.56-.33,1.01-.22,1.61.24,1.29-.43,2.49-.53,3.74-.04.49-.1.99.2,1.48.55.93.59,2.04.52,3.05-.05.65.02,1.32.22,1.8,1.08,2.55,1.06,5.18.86,7.85-.1,1.37-1.63,3.22-2.96,3.51-.37.08-.78.07-1.14-.2-.35-.27-.74-.48-1.13-.69-.94-.49-1.77-.38-2.62.32-1.98,1.65-4.08,3.14-6.24,4.55-2.29,1.5-4.79,2.01-7.49,1.37"/>
        <path class="cls-2" d="m154.81,100.92c.23-.29.55.2.8-.11,1.36-1.71,3.35-1.58,5.22-1.68.66-.03,1.26-.33,1.93-.26,1.69.17,2.91,1.24,4.2,2.17,1.47,1.05,2.72,2.37,3.94,3.66,1.35,1.43,2.04,3.25,1.86,5.3-.13,1.53-1.4,2.07-2.41,2.81-.24.17-.56-.1-.8-.42-.68-.89-1.21-1.78-1.25-2.97-.05-1.44-1.1-2.42-2.06-3.26-1.68-1.49-3.56-2.74-5.63-3.7-.94-.43-1.91-.47-2.86-.61-.86-.13-1.54-.36-2.04-1.07"/>
        <path class="cls-2" d="m208.18,195.29c.37-.76,1.18-.8,1.83-.98.59-.17,1.22-.3,1.8-.52,1.14-.42,2.17-.24,3.05.5.37.31.71.45,1.15.43,1.22-.04,1.95.93,2.81,1.52,1.29.89,2.48,1.97,3.46,3.28,1.17-.43,2.22-1.09,3.27-1.74.71-.44.84-1.04.47-1.82-.72-1.5-1.61-2.78-2.92-3.91-1.8-1.56-3.71-2.95-5.81-3.98-1.31-.64-2.69-1.56-4.34-1.08-.89.26-1.84-.06-2.74.31-.28.12-.18.23-.21.37"/>
        <path class="cls-2" d="m128.35,239.57c-.34-1.69-.18-3.42-.45-5.11-.51-3.2-.41-6.44-.75-9.66-.19-1.8-.33-3.63-.38-5.45-.1-4.2-.17-8.41-.47-12.6-.21-2.99.06-5.99-.23-8.97-.33-3.29-.48-6.59-.65-9.88-.1-2.04-.08-4.09-.25-6.13-.13-1.65-.21-3.31-.79-4.88-.04-.11-.03-.26.11-.34"/>
        <path class="cls-2" d="m178.88,129.54c-.04-.26-.1-.53-.11-.79-.03-1.5-.32-1.89-1.82-1.91-2.09-.03-4.17-.64-6.24-.42-1.75.19-3.52-.31-5.23.29-2.62.91-4.65-.35-6.45-1.95-2.1-1.87-3.23-4.42-4.48-6.89-1.37-2.69-2.21-5.55-3.02-8.42-.11-.4-.09-.83-.12-1.25"/>
        <path class="cls-2" d="m242.01,184.73c-.15,2.42-.34,4.84-.43,7.27-.04,1.02-.06,2.08-.52,2.92-.55,1,.09,1.84.02,2.76-.08,1.04-.07,2.11-.18,3.17-.26,2.51-.55,5.02-1.05,7.49-.64,3.15-1.26,6.36-2.87,9.17-1.27,2.21-3.02,4.12-5.17,5.6-2.3,1.58-4.97,2.05-7.62,2.46-2.96.46-5.97.53-8.97.24-.82-.08-1.6.16-2.38.26-2.05.26-4.09-.22-6.14.07-.75.11-1.44-.39-2.16-.53-3.23-.65-6.33-1.79-9.52-2.59-1.86-.47-3.6-1.54-5.25-2.64-1.76-1.16-2.65-3.03-3.94-4.58-.6-.72-1.43-1.22-1.86-2.13-.87-1.88-1.62-3.78-2.19-5.78-.53-1.85-.73-3.73-.8-5.58-.1-2.58,0-5.18-.46-7.71-.29-1.61-.49-3.22-.23-4.77.42-2.51-.04-5,.21-7.51.25-2.5.63-5.06.19-7.6"/>
        <path class="cls-2" d="m332.86,175.64c-.63-.14-.53.49-.53.68-.06,1.18-.5,2.28-.76,3.39-.58,2.45-1.58,4.8-2.94,6.92-1.41,2.2-2.81,4.43-4.72,6.28-1.09,1.06-2.19,2.01-3.65,2.48-.28.09-.47.28-.57.57"/>
        <path class="cls-2" d="m244.4,122.73c-1.55-.47-3.06-1.09-4.66-1.34-.63-.1-1.19-.37-1.81-.5-1.8-.4-3.46-.24-5.01.81-.73.5-1.57.79-2.37,1.17-1.39.66-1.83,2.14-2.5,3.39-.73,1.34-1.23,2.77-1.39,4.31-.03.31-.33.56-.33.91"/>
        <path class="cls-2" d="m361.24,117.62c-1.21,1.26-2.66,1.14-4.21.81-2.36-.5-4.76-.35-7.15-.38-2.49-.04-4.94.23-7.38.6-.65.1-1.29.15-1.93,0"/>
        <path class="cls-2" d="m201.09,145.74c-1.23-.35-13.37-.02-14.61-.4-4-1.24-7.45-3.42-10.67-6.03-2.06-1.67-4.03-3.41-5.45-5.68-.11-.18-.28-.41-.45-.44-.55-.1-.86-.33-.79-.93.07-.61.56-.96,1.02-.99,1.75-.12,3.45-.7,5.22-.59.88.05,1.69-.07,2.51-.44,1.66-.75,3.5-.91,5.22-1.48,1.65-.55,3.34-.9,5.11-.59.35.06.71-.02,1.02-.22"/>
        <path class="cls-2" d="m189.21,286.92c-.43-.23-.89-.26-1.36-.23-1.52.09-3.03-.03-4.54-.14-1.37-.09-2.54-.84-3.76-1.43-2.29-1.11-4.39-2.51-6.61-4.12-.13-.32.05-.89.29-1.33.6-1.09.57-2.08-.17-3.01-1.83.12-2.35,2.28-4.04,2.73-.3-.27-.6-.53-.97-.86.68-1.34.44-3.17,1.98-4.21.31-.21.27-.62.46-.9"/>
        <path class="cls-2" d="m148.9,109.1c-2.02.26-3.84-.41-5.43-1.51-1.76-1.22-3.44-2.59-4.67-4.4-.32-.48-.53-.98-.59-1.59-.19-1.99-.17-3.93.94-5.67.78-1.22,1.91-1.82,3.4-1.6"/>
        <path class="cls-2" d="m192.28,144.76c.94-.65,1.45-1.71,2.35-2.43.49-.4,1.02-.71,1.59-1.13-.62-2.08-2.06-3.5-3.83-4.61-1.68-1.05-3.42-1.98-5.44-2.32-.6-.1-1.17-.53-1.7-.88-1.9-1.27-4.08-1.69-6.26-2.12-.37-.07-.55-.28-.79-.48"/>
        <path class="cls-2" d="m285.85,389.35c.34,1.02-.03,1.63-1.01,2.07-.65.29-1.28.65-1.95.87-1.06.34-1.39.84-1.13,1.94.26,1.12-.29,2.47-1.25,3.07-1.15.72-2.24,1.63-3.64,1.79-1.16.13-2.34.04-3.52.13-3.35.25-6.62-.4-9.88-1.08-.42-.09-.83-.06-1.25-.05"/>
        <path class="cls-2" d="m224.64,213.8c-1.71-.93-3.79-1.13-5.26-2.52.67-1.46,1.81-1.91,3.22-1.33.8.33,1.6.66,2.38,1.02,1.02.47,1.02.74.59,1.71-1.14,2.59-3.42,3.88-5.69,5.23-1.2.72-2.51,1.13-3.77,1.67-2.5,1.06-4.92.78-7.13-.79-.77-.55-1.83-.71-2.28-1.69"/>
        <path class="cls-2" d="m212.15,213.23c-1.96.61-3.17,2.31-4.87,3.32-.66.39-1.26.71-2.05.81-1.03.13-2.04.47-3.06.71-1.89.45-3.28-.47-4.78-1.2-2.39-1.17-3.82-3.37-5.55-5.24-.73-.78-1.4-1.63-2.18-2.36-.55-.51-.36-.89.12-1.26,1.16-.88,2.41-1.6,3.75-2.16"/>
        <path class="cls-2" d="m279.71,110.35c-.78,2.41-2.93,3.36-4.9,4.4-2.25,1.18-4.29,2.65-6.35,4.11-2.38,1.69-4.78,3.34-6.92,5.35-.28.26-.6.21-.91.22"/>
        <path class="cls-2" d="m277.67,357.1c-.96-1.01-2.3-1.17-3.53-1.43-1.17-.25-2.32-.6-3.51-.73-.24-.03-.51-.04-.68-.23-1.39-1.58-3.48-1.5-5.25-2.08-1.97-.64-4.13-.66-6.22-.18-1.68.39-3.19,1.17-4.64,2.06-.52.32-.75.92-.82,1.57-.14,1.26-.68,2.4-1.24,3.52"/>
        <path class="cls-2" d="m360.68,112.96c-1.41-.85-1.53-2.45-2.16-3.75-1.9-3.9-4.81-6-9.31-5.53-1.87.2-3.24,1.33-4.35,2.9-1.03,1.45-1.51,3.12-2.2,4.7-1.01,2.31-1.74,4.73-2.09,7.25-.07.5-.28.99-.44,1.48-.59,1.81-.67,3.7-.89,5.57-.11.94-.5,1.27-1.38,1.13"/>
        <path class="cls-2" d="m282.89,164.29c.06-.38-.02-.75.1-1.14.48-1.57-.31-2.68-1.91-2.58-1.65.11-2.05-1.18-2.58-2.2-.89-1.68-.7-3.48-.02-5.21.59-1.5,1.05-3.07,2.3-4.23.18-.17.15-.68.06-.99-.25-.88-.59-1.75-.89-2.62"/>
        <path class="cls-2" d="m297.54,320.08c-.54,1.77-1.63,3.23-2.88,4.5-.84.85-2.18,1-3.37,1.16-1.71.23-3.38-.13-4.99-.68-1.36-.46-2.26-.43-2.92.71-1.21,2.09-3.37,2.94-5.15,4.29-.22.17-.46.3-.68.46-2.08,1.45-3.06.95-4.87-.02-1.25-.67-2.07-1.86-2.95-2.94-.07-.09,0-.29,0-.45"/>
        <path class="cls-2" d="m250.42,130.56c-.22.08-.45.19-.68.11-1.59-.55-3.07-.04-4.54.46-.93.32-1.9.45-2.83.7-1.36.37-2.4,1.4-3.64,2.01-1.59.78-3.28,1.27-4.99,1.73-.43.12-.97.21-1.16.97,1.85.52,3.59,1.5,5.72.54.94-.42,2.06-.5,3.05-.95,2.05-.93,3.93-2.08,5.44-3.76.56-.63,1.31-1.03,1.93-1.59"/>
        <path class="cls-2" d="m213.06,212.55c.91-1.02,1.84-2.03,2.72-3.07.68-.8,1.25-1.63,1.53-2.71.23-.88.88-1.57.9-2.62.06-2.53-.66-4.82-1.75-7.04-.36-.75-1.13-1.31-1.03-2.27"/>
        <path class="cls-2" d="m301.74,283.86c-.68-1.44-.69-3.03-.99-4.55-.08-.41-.28-.8-.27-1.24.02-.67.13-1.22.68-1.72.73-.68.9-1.47.77-2.6-.45-3.9-3.06-6.12-5.86-8.28-1.75-1.35-3.72-1.98-5.9-1.44-1.02.25-1.74,1.27-2.85,1.44"/>
        <path class="cls-2" d="m280.74,113.64c.05.97-.43,1.6-1.11,2.3-2.4,2.48-5.35,4.12-8.31,5.78-2.32,1.3-4.32,3.07-6.37,4.75-.41.34-.8.7-1.19,0"/>
        <path class="cls-2" d="m189.67,285.11c-.87-.31-1.74.1-2.61,0-1.41-.15-2.71-.84-4.09-.99-2.83-.3-4.5-2.12-6.14-4.11-.75-.91-1.72-1.61-2.94-1.83"/>
        <path class="cls-2" d="m218.05,131.36c-2.49-2.49-5.54-2.56-8.75-2.06-.59.09-1.22.1-1.81.1-1.64-.01-2.91.75-4.08,1.74-.69.59-1.21,1.35-1.92,1.94-.61.5-.31,1.25-.24,1.91"/>
        <path class="cls-2" d="m166.73,125.22c-.27-1.11-1.17-1.81-1.86-2.58-1.61-1.8-3.26-3.57-4.72-5.5-1.86-2.48-3.54-5.08-4.79-7.93-.11-.26-.17-.46,0-.69"/>
        <path class="cls-2" d="m286.07,390.03c1.07-.14,2.09-.57,3.18-.56.57,0,.56-.53.77-.82.91-1.21,2.16-2.13,2.86-3.51.97-1.92,1.16-4.04,1.31-6.13.03-.44.04-.79.4-.89,2.03-.53,2.78-2.22,3.48-3.89.19-.46.28-.8.83-.78.41.02.46-.29.57-.57.09-.24.19-.46.32-.69,2.05-3.58.79-4.22-2.26-5.3-1.24-.44-2.72-.46-3.81.06-1.3.62-2.49,1.72-2.88,3.32"/>
        <path class="cls-2" d="m311.51,82.53c-1.46-1.63-3.46-2.24-5.46-2.69-3.06-.7-5.9-.06-8.52,1.77-2.65,1.85-4.07,4.42-5.14,7.39-1.29,3.59-.63,6.96.6,10.35.15.41.42.5.8.45"/>
        <path class="cls-2" d="m242.35,318.49c-1.28-1.09-2.92-1.14-4.43-1.32-1.79-.21-3.62-.24-5.45.05-2.4.38-4.4,1.57-5.72,3.47-.92,1.33-1.8,2.51-3.24,3.26-.57.3-1.2.02-1.7.24-1.6.68-3,.21-4.44-.47-1.43-.68-3.04-.78-4.55-1.21-1.52-.43-2.87-1.18-4.3-1.76-.99-.4-1.81-1.2-2.95-1.25"/>
        <path class="cls-2" d="m245.08,316.11c-.15-.23-.3-.43-.56-.58-2.17-1.17-4.5-1.5-6.93-1.61-2.58-.12-4.79.64-7.08,1.77-1.71.84-3.21,1.72-4.26,3.27-.57.85-1,1.81-1.49,2.72"/>
        <path class="cls-2" d="m280.17,225.04c-.41.12-.83.25-1.34.4-.12,1.14-.54,2.21-1.73,2.78-.54.26-1.11.36-1.7.34-.18,0-.33.01-.47-.22-1.9-3.07-2.96-6.38-3.04-10,0-.08.1-.21.1-.34"/>
        <path class="cls-2" d="m346.48,198.47c-.27-.04-.34-.2-.34-.45-.03-2.42-.26-4.84-.23-7.27.04-3.75-.21-7.5-.14-11.24.06-3.6-.16-7.19-.05-10.79.09-2.89.21-5.82-.2-8.75-.28-1.97-.01-4,.04-6.01.07-2.38.01-4.77.02-7.15.01-4.09.03-8.18.05-12.26,0-1.88.12-3.78,0-5.68-.11-1.83-1.18-2.15-2.44-2.27-1.37-.14-2.73.33-4.09,0"/>
        <path class="cls-2" d="m309.69,297.14c-.19-1.14-.36-2.27-.57-3.41-.3-1.64-1.45-2.7-2.61-3.74-1.86-1.66-4.01-2.72-6.47-3.2-.44-.09-.84-.36-1.25-.55"/>
        <path class="cls-2" d="m275.17,242.98c-1.86-.62-2.86-2.14-3.59-3.77-.49-1.11-1.09-2.18-1.44-3.38-.75-2.54-.6-4.91.83-7.16"/>
        <path class="cls-2" d="m319.68,85.25c1.03-.11,2.84.94,3.27,2.05.39,1,.03,1.93-.66,2.71-.28.32-.58.64-.91.91-.81.66-1.93,1.08-1.92,2.39,0,.35-.29.44-.47.55-1.46.89-1.91,2.28-2.05,3.87-.13,1.47-1.07,2.65-1.62,3.96-.74,1.76-1.63,3.46-2.36,5.23-.51,1.23-.6,1.22-1.58.69"/>
        <path class="cls-2" d="m268.93,351.99c-1.45-1.56-3.39-2.19-5.34-2.7-2-.52-4.07-.68-6.12-.34-1.45.24-2.87.6-3.89,1.89-.62.79-1.49,1.38-2.25,2.06-2.23,2.02-2.45,3.19-1.14,5.91.05.11.08.23.12.34"/>
        <path class="cls-2" d="m163.66,108.87c.05-1.62-1.01-2.48-2.13-3.44-1.55-1.33-3.53-1.19-5.25-1.89-1.81-.74-3.66-1.35-5.56-1.82-.89-.22-1.73-.42-2.52-.99-.7-.5-1.75-.32-2.48-.93-.13-.11-.44-.02-.7-.02-.54,1.17-.74,2.36-.33,3.64.07.23.3.52.02.79"/>
        <path class="cls-2" d="m262.68,317.58c.55.23,1.15.15,1.7.1,2.16-.22,3.07.36,3.15,2.4.07,1.64.64,3.09,1.28,4.54.34.77.83,1.49.61,2.57,1.72-.91,3.36-.52,4.95-.51,2.84.01,5.16-.7,6.76-3.39.99-1.68,1.42-3.57,2.44-5.2"/>
        <path class="cls-2" d="m269.27,327.92c-1.2.78-2.33,1.66-3.43,2.58-1.31,1.09-2.91,1.29-4.63.97-2.4-.44-4.55-1.28-6.24-3.09"/>
        <path class="cls-2" d="m289.82,379.7c-.76,0-1.56-.16-2.26.03-1.34.36-2.73.57-3.99,1.21-.65.33-1.24.68-1.59,1.37-.85,1.64-2.26,2.83-3.66,3.93-1.07.84-2.63.87-3.74,1.83-.31.27-.87-.24-1.21-.54-.76-.67-1.57-.94-2.5-.44-.84.46-1.66,2.21-1.47,3.06.03.13.22.23.33.34"/>
        <path class="cls-2" d="m205.34,318.49c.32.85-.11,1.49-.56,2.16-1.47,2.2-3.23,4.05-5.92,4.63-1.67.36-3.33.93-5.11.61-.69-.12-1.08-.39-1.3-1.12.62-.41,1.09-.94,1.44-1.62.43-.82,1.04-1.3,2.15-1.07,1.4.29,1.69.03,2.26-1.22.03-.06-.02-.21,0-.22,1.66-.68,1.5-2.36,1.87-3.66.32-1.14,1.11-1.93,1.84-2.5.65-.52,1.07-1.23,1.74-1.68"/>
        <path class="cls-2" d="m290.27,390.03c.94-.46,1.99-.1,2.96-.44,2.42-.87,4.54-2.63,4.88-5.57.15-1.27.25-2.54,1.24-3.53.2-.2.37-.54.13-.9-.27-.42-.1-.9-.11-1.36-.06-1.87.89-3.29,2.02-4.67,1.11-1.36,1.52-3.06,1.82-4.76.15-.83,0-1.59-.77-2.17-1.63-1.23-3.46-1.86-5.46-2.02-.61-.05-1.02-.13-1.4-.78-1.1-1.92-3.06-2.58-5.08-2.93-.67-.12-1.2-.31-1.7-.72"/>
        <path class="cls-2" d="m338.76,126.93c-.68,2.26-.68,4.64-1.25,6.93-.58,2.35-.82,4.78-1.16,7.17-.2,1.41-.54,2.84-.59,4.3-.04,1.33-.51,2.63-.68,3.97-.25,1.93-.5,3.85-.7,5.79-.28,2.69-.13,5.44-1.03,8.09-.35,1.02.03,2.26-.07,3.39-.25,2.88-.59,5.75-.89,8.63-.01.15.07.3.11.45"/>
        <path class="cls-2" d="m169,279.43c-.57,1.32-1.39,1.86-2.73,1.82-.68-.02-1.37-.08-2.04.11-.15.04-.32.14-.45.1-2.57-.8-5.06.34-7.61.29-2.1-.04-4.14-.2-6.13-.85-.52-.17-1.05-.33-1.65-.51-.97,1.07-2.1,1.97-3.02,3.11-.74.92-1.57,1.85-2.93,1.83-.33,0-.38.19-.34.46"/>
        <path class="cls-2" d="m212.26,357.78c-.36,1.17-1.44.96-2.28,1.11-.75.13-1.46.25-2.16.58-1.21.56-2.5.24-3.74.1-1.97-.21-3.75-.96-5.23-2.35-.69-.65-.77-1.38-.11-2.05.54-.55.74-1.25,1.04-1.92.81-1.8,1.45-3.71,2.93-5.11.59-.56,1.41-.71,2.14-.54,1.1.25,2.2.14,3.3.2.38.02.94-.19.85.56"/>
        <path class="cls-2" d="m297.65,364.48c.61-1.14.33-2.14-.32-3.19-1.02-1.65-2.37-2.71-4.33-2.81-.86-.05-1.45-.31-1.84-1.14-.33-.71-1.1-1.09-1.8-1.23-3.87-.8-7.69-.76-11.35,1-.11.05-.2.09-.22.11-.41.36-.61.86-.8,1.35q-.8,2.05-.6,2.86c.87-.21,1.78-.14,2.13-1.36.19-.66,1.19-.74,1.78-.86,1.52-.31,3.04-.92,4.64-.62.92.18,1.93,0,2.73.67"/>
        <path class="cls-2" d="m293.68,262.74c-.05-1.29.03-2.57-.09-3.86-.1-1.1-.48-2.08-1.07-2.93-.86-1.23-2.03-2.2-3.16-3.2-.02-.02-.07,0-.11,0-1.36,0-1.48-1.03-2-2-1.25-2.31-2.16-4.86-4.12-6.74-1.64-1.58-3.39-1.92-5.57-1.02-.47.19-.89.17-1.37-.09-.48-.26-1.02-.06-.99.55.19,3.68.14,7.4,2.57,10.58,1.15,1.51,2.69,2.42,4.24,3.37.54.33,1.2.07,1.81.13"/>
        <path class="cls-2" d="m299.59,275.91c-.03-2.68-1.35-4.68-3.41-6.24-1.04-.79-2-1.73-3.4-1.95-1.82-.28-2.9-.31-3.75,1.03"/>
        <path class="cls-2" d="m308.56,118.75c3.31.83,6.92-1.35,7.55-4.3.4-1.89-.36-3.45-.78-5.11-.11-.43-.2-1.02-.63-1.37"/>
        <path class="cls-2" d="m150.49,101.38c.2-.49.24-.93.03-1.49-.38-1-.41-2.12-.65-3.16-.39-1.75-1-3.46-2.33-4.78-.17-.17-.37-.31-.57-.21-1.08.53-2.3.3-3.41.62-.09.02-.15.11-.23.17"/>
        <path class="cls-2" d="m251.21,400.7c.29.73.91,1.09,1.59,1.36,2.48.96,5,.91,7.49.09,1.44-.47,2.36-2.72,1.81-4.17-.27-.72-.89-.96-1.69-.81-1.24.22-2.44.1-3.52-.67-.66-.47-1.17-.34-1.58.46-.42.83-1.35,1.27-1.6,2.21"/>
        <path class="cls-2" d="m288.8,151.91c1.29-.32,1.76-1.52,2.47-2.41,1.16-1.43,2.29-2.93,3.16-4.55.58-1.09,1.1-2.33.76-3.73-.18-.75-.03-1.58-.03-2.38"/>
        <path class="cls-2" d="m295.38,134.2c.63-1.25,1.8-2.15,2.28-3.52.43-1.22.79-2.46.89-3.75.12-1.49-1.15-3.13-2.37-3.4-.23-.05-.44-.12-.57-.34,1.15-2.08,2.08-4.26,3.4-6.25.58-.88,1.2-1.74,1.95-2.48.37-.36.84-.42,1.46-.45,2.35-.11,4.73.51,7.04-.15,2.11-.61,3.72-1.75,2.74-4.65-.11-.34-.02-.75-.02-1.13"/>
        <path class="cls-2" d="m241.33,327.69c-.22,1.12-1,1.58-2.04,1.58-3.57,0-6.67-1.12-9.09-3.85-.52-.58-1.06-1.14-1.59-1.71"/>
        <path class="cls-2" d="m280.62,354.6c-.08,0-.2.03-.22,0-1.21-1.93-3.21-2.44-5.23-2.81-1.61-.29-3.25-.49-4.88-.02-1.36.39-1.39.42-1.48,1.93"/>
        <path class="cls-2" d="m298.11,105.24c-.34,1.78-1.53,3.13-2.53,4.52-2.29,3.2-5.61,5.12-9.2,6.42-1.92.69-4.18.98-5.88-.95"/>
        <path class="cls-2" d="m296.97,321.78c.36.54.72,1.08,1.14,1.71,2.59-1.35,5.14-2.65,7.14-4.78.48-.51.36-1.19.34-1.81-.04-1.35.41-2.14,1.72-2.47.75-.19,1.34-.58,1.78-1.07.84-.94,1.62-1.94,2.44-2.9,1.04-1.22.4-2.49.24-3.65-.17-1.23.07-2.72-1.18-3.65-.02-.01,0-.07,0-.11.34-1.97-1.33-2.83-2.29-4.03.45-.99.89-1.91,2.17-1.9.19,0,.39-.34.57-.54,1.27-1.39,1.59-3.85.67-5.56-.46-.85-.85-1.75-1.2-2.63-.92-2.32-2.81-3.66-4.85-4.67-.84-.42-2.23-.39-3.23.07-1.43.66-2.83,1.44-3.97,2.66-1.1-.31-2.31-.56-3.55-.66"/>
        <path class="cls-2" d="m320.14,268.07c-2.38-.34-4.79-.37-7.17-.84-1.35-.27-2.76-.54-4.19-.56-1.71-.03-3.38-.58-5.11-.53-.88.03-1.56-.95-2.65-.29-.75.46-1.77-.24-2.69-.17"/>
        <path class="cls-2" d="m159.12,271.37c-1.71-1.28-3.58-1.59-5.56-.78-.75.31-1.47.53-2.28.56-1.42.05-2.64.75-3.85,1.38-.72.38-1.17.27-1.72-.25-1.86-1.74-3.93-1.99-6.25-.94-.92.41-1.97.52-2.94.83-1.13.36-2.26.75-2.5,2.15"/>
        <path class="cls-2" d="m319.68,91.95c-.8-1.01-.97-2.3-1.56-3.42-.9-1.71-2.49-2.15-4.12-2.58-.51-.13-1.05.03-1.47.34-.91.68-2.01,1.05-2.77,2-.41.51-.98.98-1.76,1.23-1.1.35-1.67,1.56-2.63,2.21"/>
        <path class="cls-2" d="m229.75,315.88c-.94-2.53-3.01-3.9-5.36-4.71-1.77-.62-3.67-.27-5.44.5-.56.25-1.09.52-1.52-.42-.38-.83-1.34-1.29-2.11-1.83-.79-.56-1.65-.33-2.5-.12-1.35.34-2.75.29-4.1.76-1.75.61-3.25,1.61-4.81,2.54"/>
        <path class="cls-2" d="m241.33,357.1c.06.97-.2,1.6-1.36,1.5-.24-.02-.54.15-.82.4-1.56,1.42-3.27,2.71-5.54,2.51-3.08-.27-6.02-1.06-8.57-2.99-2.15,2.34-4.77,2.4-7.55,1.65-.84-.23-1.72-.39-2.49-.81-.41-.22-1-.29-1.06-1-.03-.4-.52-.58-.88-.67-1.68-.44-3.3-.94-5.1-.99-2.69-.08-5.4-.49-7.84-1.86-.25-.14-.52-.19-.8-.22"/>
        <path class="cls-2" d="m267,190.97c-1.82-.81-3.68-1.52-5.57-2.15-3.05-1.02-6.16-1.88-9.32-2.45-2.41-.43-4.76-1.03-7.15-1.5-1.35-.27-2.8-.12-3.97-1.06-2.26.09-4.34-.76-6.46-1.29-3.12-.77-6.34-.88-9.43-1.69-2.33-.61-4.71-1.03-7.06-1.49-1.54-.3-3.16-.48-4.75-.52-1.98-.05-3.85-.81-5.79-.87-1.2-.04-2.39-.21-3.5-.46-1.59-.36-3.21-.57-4.78-.97-1.72-.43-3.49-.4-5.23-.66-2.45-.37-4.93-.52-7.38-.88-1.83-.27-3.71-.22-5.56-.38-2.53-.22-5.07-.1-7.61-.28-2.56-.19-5.16.02-7.71.24-4.35.38-8.71.77-13.07,1.15-1.26.11-2.57-.06-3.86-.07-1.53,0-3.04.13-4.55.43-.58.12-1.21,0-1.81.02-5.52.31-11.05.21-16.58.22-.34,0-.68,0-1.03.1-.4.11-.76,0-.68-.55"/>
        <path class="cls-2" d="m264.5,363.46c-.67-1.04-1.87-1.01-2.85-1.2-1.51-.3-2.81-1.21-4.31-1.39-1.79-.21-2.85-1.37-3.84-2.65-.2-.26-.38-.47-.69-.56"/>
        <path class="cls-2" d="m303.11,299.41c-1.73.39-2.89-.66-3.95-1.72-.79-.8-1.42-1.77-2.06-2.71-.77-1.13-1.23-2.32-.72-3.75.21-.58-.05-1.29.14-1.92"/>
        <path class="cls-2" d="m113.36,231.79c-1.07-.13-2.05.03-3.09.46-1.18.5-2.52.48-3.75,1.02-.78.34-1.46.7-2.02,1.3-1.13,1.22-2.21,2.49-3.64,3.4"/>
        <path class="cls-2" d="m197.05,133.85c-1.29-1.3-2.8-2.36-4.24-3.47-1.98-1.54-3.92-3.1-5.64-4.93-.75-.8-.82-1.96-1.68-2.75-1.57-1.47-3.13-2.7-5.48-2.15-.62.15-1.24-.13-1.82-.44.17-.38.35-.74.81-.85"/>
        <path class="cls-2" d="m206.47,283.4c.89-1.31.42-2.51-.47-3.5-1.48-1.64-3.19-3.04-5.43-3.53-1.02-.22-2.11-.46-2.84.67"/>
        <path class="cls-2" d="m282.89,238.89c.84-2.27,1.39-4.62,1.22-7.04-.16-2.13-1.28-3.91-2.59-5.56-.06-.08-.22-.08-.33-.12"/>
        <path class="cls-2" d="m172.07,273.3c-1.55.23-3-.43-4.54-.5-2.09-.1-4.09.14-6.01.88-1.05.41-2.04.39-3.08.2"/>
        <path class="cls-2" d="m281.02,397.07c1.16.5,2.28.2,3.35-.24,1.98-.81,3.78-1.95,5.33-3.41,1.17-1.11,1.12-2.54.01-3.96"/>
        <path class="cls-2" d="m298.22,309.86c-1.07.35-2.19.36-3.29.45-1.51.12-2.87.8-4.32,1.14-1.85.42-3.04,1.88-4.54,2.85-.47.31-1,.58-1.02,1.25,0,.15-.07.38,0,.44,1.15,1,.87,2.54,1.45,3.77.6,1.27,1.01,1.59,2.29,1.23,1.28-.36,2.57-.19,3.86-.21.73-.01,1.38-.13,2.06-.43.87-.39,1.75-.62,2.84-.48.97.12,2.2-.41,3.04-1.16,1.34-1.21,3.07-1.8,4.45-2.93.09-.07.29,0,.45,0"/>
        <path class="cls-2" d="m198.41,356.99c-1.13.99-2.06,2.25-3.63,2.61-.91.21-1.81.52-2.73.66-1.13.18-3.48-1.16-3.83-2.26-.4-1.26-1.46-1.69-2.43-2.24-.31-.18-.67-.34-1.01-.47-.97-.37-1.78-.58-2.88.15-1.55,1.03-3.3.32-4.69-.67-.64-.46-1.41-.63-1.97-1.19-1.43-1.41-2.79-2.87-3.75-4.65-.08-.15-.2-.35-.44-.35"/>
        <path class="cls-2" d="m278.81,214.7c.2-.88.99-1.37,1.4-2.14,1.04-1.97.53-3.83-.17-5.69-.33-.88-.79-1.72-1.31-2.53-.52-.8-.71-1.64-.19-2.73,1.33-2.8,1.42-5.65-.77-8.13-.82-.93-1.46-2.11-2.8-2.56-.41-.14-.64-.9-.43-1.3.24-.46.2-1.1.75-1.38"/>
        <path class="cls-2" d="m283.12,105.13c-.62-.4-1.34-.2-1.92-.08-2.28.49-4.57,1.04-6.15,3.02-.33.42-.85.69-1.21,1.06-1.8,1.79-3.16,3.87-3.89,6.33"/>
        <path class="cls-2" d="m275.28,214.82c1.09-.65,3-.41,3.86.45,2.49,2.5,2.83,5.58,2.38,8.86-.08.56-.57.78-1.07,1.07-.24-.62-.4-1.22-.41-1.87-.04-2.59-.6-4.39-3.74-5.45-.84-.28-1.61-.6-2.53.07-.71.52-1.68.08-2.33-.34-.61-.4-1.2-.88-1.86-1.18-1.72-.79-2.55-2.27-3.15-3.89-.89-2.42-1.07-4.95-.67-7.48.18-1.14.83-2.15,1.8-2.83.71-.5,1.13-1.44,2.15-1.49"/>
        <path class="cls-2" d="m173.31,276.25c.68-.8,1.68-1.15,2.52-1.73.28-.2.77-.39,1.17-.08.89.68,1.99.84,3.02.97,1.04.13,2.09.36,3.17.3,1.2-.08,1.61-.33,1.69-1.49.04-.63-.04-1.26.57-1.67-2.52-2.25-4.76-2.75-7.37-1.85-1.17.4-2.35.75-3.52,1.15-.41.14-.78.16-1.02-.24-.48-.79-1.23-1.27-2.06-1.44-1.77-.37-3.48-1.07-5.33-1.05-.19,0-.42-.07-.56.01-1.9,1.17-4.18,1.31-6.12,2.3-.79.4-1.16,1.36-1.16,2.34"/>
        <path class="cls-2" d="m226.23,131.58c.36,1.29-.03,2.58-.05,3.86-.02,1.28-.44,2.55-.18,3.86.07.36-.03.85-.34.88-1.6.13-2.83,1.57-4.54,1.28-.3-.05-.69.03-.89-.13-.7-.55-1.48-.42-2.16-.18-1.19.43-2.4.59-3.64.53-.29-.01-.4.06-.34.35"/>
        <path class="cls-2" d="m254.05,349.94c-.25-.79-.93-1.09-1.59-1.35-2.07-.83-4.28-.93-6.47-1-.7-.02-1.4.2-1.96.85-.47.55-1.33.45-2.02.57-.68.12-1.24.02-1.86-.62-1.53-1.58-3.58-2.04-5.75-1.98-1.83.05-3.58.34-5.23,1.23-2.05,1.11-3.87,2.48-5.06,4.47-.61,1.01-1.18,2.19-.72,3.5"/>
        <path class="cls-2" d="m241.11,358.35c1.06,1.1,2.43,1.15,3.86,1.3,1.56.17,3.03-.23,4.55-.27.24,0,.46-.1.68-.11.93-.02,2.06.61,2.27,1.24.19.56-.63,2.36-1.25,2.72-.15.09-.3.22-.45.22-3,.05-5.78-.49-7.81-2.96-.11-.14-.51-.45-.14-.78"/>
        <path class="cls-2" d="m295.27,138.62c.7-.98,1.89-1.33,2.75-2.14,1.95-1.85,2.86-4.16,3.42-6.71.27-1.24-.14-2.44.08-3.64"/>
        <path class="cls-2" d="m209.42,187.11c-.95-1.22-2.48-1.38-3.77-1.75-2.41-.7-4.97-.62-7.47-.39-2.59.24-4.84,1.25-6.48,3.38-.08.1-.09.19-.12.22q-1.14,1.51-1.37,3.53c1.41.77,2.3,2.25,3.76,3.06"/>
        <path class="cls-2" d="m193.19,297.82c-1.01.21-2.05.12-3.06.24-2.86.34-4.77,2.08-6.25,4.41-.06.09-.21.15-.22.23-.23,2.07-1.8,1.79-3.19,1.82-.3,0-.61,0-.91,0"/>
        <path class="cls-2" d="m288.46,152.25c.43,1.34.48,2.67.26,4.09-.44,2.89-1.79,5.2-3.89,7.15-.56.52-1.21.78-1.93.9"/>
        <path class="cls-2" d="m272.33,111.48c.58.22,1.33.1,1.67-.16,1.24-.95,2.72-1.2,4.13-1.64,1.28-.4,2.18-1.27,3.06-2.18.7-.74,1.37-1.51,2.05-2.27.41-.46.96-.32,1.48-.34"/>
        <path class="cls-2" d="m307.08,86.5c-1.85-.26-3.69-.28-5.57-.15-2.37.17-3.86,2.39-3.33,4.59.32,1.35.13,2.81.72,4.13"/>
        <path class="cls-2" d="m166.84,99.11c.86-1.11.5-2.36.07-3.39-1.03-2.46-2.81-4.38-5.08-5.79-.58-.36-1.28-.84-2.03-.25"/>
        <path class="cls-2" d="m225.66,140.33c.45.63.39,1.35.33,2.04-.15,1.63.07,3.26.02,4.88-.02.76-.22,1.46-.46,2.16-.56,1.6-2.39,1.67-3.4,1-.54-.36-1.15-.63-1.6-1.12"/>
        <path class="cls-2" d="m224.75,148.16c-1.34.23-2.73.25-3.97.91-.18.1-.37.12-.57.11-3.22-.08-6.43.44-9.65.22-2.33-.16-4.64-.31-6.94-.85-1.26-.3-2.41-.8-3.62-1.2-.19-.06-.31-.16-.46.02"/>
        <path class="cls-2" d="m289.37,252.63c.88-2.31,1.22-4.63.36-7.05-.25-.71-.58-1.38-1.06-1.9-1.2-1.3-2.37-2.66-3.85-3.63-1.05-.69-2.2-1.24-3.51-1.39-2.33-.28-5,1.67-5.34,3.99"/>
        <path class="cls-2" d="m170.82,339.38c-1.47.94-2.46,2.38-3.7,3.57-1.09,1.04-2.39,2.05-2.56,3.81-.13,1.4.12,1.9,1.5,2.21.28.06.51.17.68.4"/>
        <path class="cls-2" d="m301.97,98.43c-.03-.51.34-1.02-.15-1.59-.38-.2-.81.16-1.2.36-2.44,1.28-3.77,3.42-4.41,6.01-.18.72-.48,1.2-1.05,1.58"/>
        <path class="cls-2" d="m268.81,104.67c.43.24.78.59,1.24.81,1.55.72,1.78,1.52.79,2.93-.63.91-1.31,1.79-2.37,2.29-1.82.86-3.24,2.41-5.12,3.15-2.24.89-2.54,2.83-2.81,4.79-.16,1.12-.23,2.31-.17,3.4.13,2.16-.14,4.31.07,6.48.25,2.66.78,5.38.06,8.05-.52,1.94-1.31,2.98-3.73,3-1.91.01-3.33-.98-4.73-1.92-.82-.55-.76-1.77-.72-2.78"/>
        <path class="cls-2" d="m254.39,328.48c-.7.57-1.38,1.17-2.27,1.49-1.81.64-3.54.09-5.21-.41-1.08-.32-2.38-.65-2.86-1.99"/>
        <path class="cls-2" d="m174.79,121.25c-1.04-1.26-2.29-2.32-3.41-3.52-1.98-2.13-3.81-4.38-5.55-6.71-.46-.61-1.08-1.04-1.53-1.66-.1-.14-.52-.35-.99-.31-1.05.07-2.16-.02-3.16-.33-.7-.22-1.37-.33-2.06-.27-1.89.16-3.55-.47-5.24-1.23-1.83-.82-3.65-1.85-5.78-1.74-.08,0-.17.03-.22,0-2.08-1.11-4.53-1.55-6.15-3.5-.53-.64-.57-1.33-.55-2.06.06-1.63.29-3.25.22-4.88"/>
        <path class="cls-2" d="m289.71,371.18c-.25-.56-.56-.92-1.23-1.18-1.96-.78-4.04-1.31-5.82-2.55-1.5-1.05-2.87-2.2-3.85-3.76"/>
        <path class="cls-2" d="m283.23,318.15c-2.26-1.11-4.73-1.55-7.16-2.01-1.33-.25-2.73-.43-4.09.17-.53.23-.72.52-.67,1.04"/>
        <path class="cls-2" d="m276.19,386.85c-.78-.94-1.6-1.81-2.72-2.4-.76-.4-1.33-.46-2.07.11-1.61,1.26-3.29,2.43-4.76,3.87-.3.29-.65.25-1.13.18-2.44-.33-4.86-1.22-7.37-.62-1.9.46-3.8.94-5.68,1.48-1.03.3-2.09.48-3.09.96-.64.31-1.3.54-1.79,1.07-.51.54-1.14.68-1.69.21-1.33-1.13-3.02-1.51-4.57-1.7-1.75-.21-3.59.12-5.35.87-1.46.62-2.55,1.61-3.72,2.55"/>
        <path class="cls-2" d="m283.23,386.74c1.64.71,3.26.28,4.44-1.01,1.06-1.15,1.93-2.37,2.38-3.87.1-.34.18-.7.09-1.02-.24-.88-.03-1.75.03-2.61.18-2.39-1.7-4.24-3.53-4.55-1.02-.17-1.76-.84-2.49-1.48-.73-.65-1.47-1.26-2.27-1.82-1.3-.91-2.24-2.23-3.52-3.18-.61-.46-.52-1.35-.81-2.02"/>
        <path class="cls-2" d="m312.08,109.33c-1.51,1.3-2.89.16-4.32-.22-2.27-.6-3.78-2.02-4.78-4.09-.09-.18-.29-.31-.45-.46"/>
        <path class="cls-2" d="m172.86,281.36c-.7.82-1.17,1.83-2.04,2.5-1.61,1.23-2.45,1.31-4.08.45-1.23-.65-2.43-1.35-2.84-2.83"/>
        <path class="cls-2" d="m290.84,263.64c-.16-1.98-.48-3.91-1.47-5.68-.36-.65-.71-1.3-1.26-1.81-.45-.43-.97-.68-1.59-.45-1.71.64-3.15.03-4.42-1.04-1.33-1.11-2-2.65-2.39-4.3-.35-1.49-.62-2.98-.37-4.54.12-.74.41-1.38.71-2.04"/>
        <path class="cls-2" d="m278.58,237.19c-2.68-1.16-4.08-3.4-4.99-6.02-.32-.91-.68-1.61-1.68-2.1-1.44-.69-2-2.26-2.37-3.7-.41-1.61-.58-3.29-.64-4.98-.04-1.33.15-2.51,1.05-3.52"/>
        <path class="cls-2" d="m255.19,318.26c-.51-.88-1.31-1.35-2.27-1.59-1.59-.39-3.17-.82-4.77-1.11-.82-.15-1.68.06-2.49.32-.32.11-.62.21-.7.67-.15.88-.92,1.28-1.58,1.69-.96.59-1.39,1.24-1.23,2.29.17,1.15.51,2.24,1.01,3.3.53,1.11,1,2.25,1.03,3.52"/>
        <path class="cls-2" d="m85.08,251.95c-.37-.49-.7-1.02-.89-1.6-.1-.32-.11-.74.21-1.01.36-.3.69-.05,1.02.11.12.06.24.16.33.24,1.11.96,1.24.98,2.51.21.91-.55,1.82-1.09,2.95-.8,1.4-1.06,3.42-.79,4.67-2.26,1.1-1.29,1.46-2.91,2.2-4.36.35-.69-.36-1.51-.86-2.12-1.13-1.39-1.21-2.45-.22-3.98.33-.51,1.25-.6,1.92-.11,1.43,1.03,2.36,2.38,2.51,4.19.07.87.35,1.68.64,2.51.23.67-.07,1.44-.29,2.15-.7,2.19-1.92,4.04-3.64,5.56-.66.59-1.16,1.36-2.04,1.71-1.38.55-2.62.37-3.75-.58-.32-.27-.53-.66-.97-.79"/>
        <path class="cls-2" d="m282.33,320.31c-.65-.56-1.51-.59-2.28-.76-1.8-.42-3.46-1.29-5.33-1.53-1.36-.17-2.62-.64-4.11-.31-1.08.24-2.33.1-3.5.33-.04,0-.08.07-.11.11"/>
        <path class="cls-2" d="m312.3,308.73c1.37-.67,1.59-1.96,1.84-3.29.39-2.1.88-4.18-.03-6.24-.56-1.26-1.26-2.45-2.6-3.07"/>
        <path class="cls-2" d="m179.45,117.96c-.32-1.01-1.33-1.55-2.06-1.73-1.75-.42-3.44-1.23-5.32-1.12-.78.04-1.51.12-2.16.59"/>
        <path class="cls-2" d="m94.62,274.55c-.7-.93-1.58-1.68-2.5-2.39-.57-.44-1.33-.49-1.95-.61-1.55-.31-3.15-.97-4.74-.27-.39.17-.66-.14-1.05.06-.91.48-1.58,1.07-1.58,2.18"/>
        <path class="cls-2" d="m195.8,277.95c-1.52-.2-2.88-.91-4.31-1.36-1.33-.42-2.75-.15-4.11-.62-.86-.3-1.83-.39-2.71-.74"/>
        <path class="cls-2" d="m127.78,274.66c-.76-1.02-3.65-1.97-4.77-1.6-.16.05-.25.14-.33.24-.75.99-1.83,1.43-2.96,1.82-1.06.36-1.72,1.16-2.16,2.15-.32.72-.72.87-1.49.47-2.78-1.43-5.76-1.8-8.85-1.37-.34.05-.77-.26-1.02.22"/>
        <path class="cls-2" d="m158.55,348.7c-.81.05-1.42-.66-2.41-.3-1.04.38-1.49,1.05-1.9,1.89-.21.43-.14,1.12-.91,1.01-.61-.08-.99-.4-1.27-1-.6-1.28-.6-2.69-1.08-4-.21-.58.19-1.19.55-1.69.56-.79.86-1.64.79-2.62"/>
        <path class="cls-2" d="m261.66,398.55c-.96,1.14-2.33,1.15-3.63,1.23-1.02.07-2.04.28-3.07.02-.22-.05-.5.06-.67-.13-.9-.95-1.76-.26-2.35.27-.73.66-1.51,1.04-2.42,1.19-.63.11-.86.68-1.36.93-2.3,1.15-4.73,1.98-7.25,1.18-1.65-.53-3.34-1.15-4.79-2.2-.74-.53-1.49-1.07-2.49-.8-.43.12-.55-.26-.8-.45-.41-.3-.54-1.04-1.36-.72-.74.29-1.11.76-1.24,1.5-.03.15-.07.3-.11.45"/>
        <path class="cls-2" d="m224.98,355.62c-.87-.05-1.66.03-2.4.66-1.08.91-2.41,1.14-3.84,1.21-1.29.06-2.57.19-3.86.17-.42,0-.71.26-1.08.35"/>
        <path class="cls-2" d="m224.13,349.49c-.21-.51-.69-.37-1.08-.46-1.98-.45-4.05-.05-6.02-.57-1.28-.34-2.69-.06-3.88-.88-.23-.16-.67-.02-1.01-.02"/>
        <path class="cls-2" d="m148.33,280.34c-.19-.38-.37-.76-.57-1.13-.6-1.12-.95-1.15-2.06-.49-.3.18-.47.4-.65.61q-1.74,2.05-4.21,2.95c-.31.11-.61.12-.91.1-.92-.06-1.75.15-2.5.69"/>
        <path class="cls-2" d="m149.58,338.7c.61.94.77,2.07,1.18,3.09.17.42-.64.98-1.19,1.2-1.18.48-2.18,1.28-3.37,1.8-1.79.78-2.66,2.39-2.19,4.47"/>
        <path class="cls-2" d="m286.41,313.84c-.4-1.06-1.27-1.58-2.27-1.93-1.18-.41-1.96.13-2.17,1.36-.23,1.28-.14,2.61-.55,3.86"/>
        <path class="cls-2" d="m296.07,288.63c-1.12-.08-2.16-.49-3.18-.92-1.28-.54-1.94-1.55-1.93-2.94,0-.79-.15-1.61.11-2.38.19-.54-.36-.74-.46-1.14"/>
        <path class="cls-2" d="m215.22,146.8c0-.74-.6-.48-.91-.44-2.72.38-5.46.51-8.17.17-1.78-.22-3.54-.73-4.77-2.23"/>
        <path class="cls-2" d="m182.4,137.94c-.61.56-1.23.1-1.81-.02-2.78-.55-4.97-2.12-6.93-4.07-.08-.08-.08-.22-.12-.34"/>
        <path class="cls-2" d="m297.65,124.43c.53-.73,1.31-.77,2.04-.55,1.38.43,2.47.07,3.29-1.05,1.52-2.06,2.42-4.4,2.85-6.92"/>
        <path class="cls-2" d="m262.68,316.9c.07.9-.37,1.29-1.25,1.38-.71.07-1.46.11-2.06.65-.13.11-.34.39-.68.15-.18-.12-.56-.11-.77.1-.89.86-1.91,1.68-2.35,2.85-.35.94-.65,1.92-.87,2.93-.5,2.32-2.92,3.54-5.08,2.74-.85-.31-1.75-.52-2.48-1.05-.71-.52-1.36-.19-1.93.07-.35.16-.75.43-1.04.75"/>
        <path class="cls-2" d="m274.04,214.7c-.94,0-1.43-.71-1.79-1.37-1.3-2.35-2.3-4.8-1.85-7.6.1-.61.32-1.17.6-1.69.29-.57.31-1-.12-1.49-.76-.87-1.16-1.96-1-3.05.4-2.66.4-5.4,1.44-7.96.23-.58.68-1.12.46-1.81"/>
        <path class="cls-2" d="m84.74,282.95c-1.12.29-2.24.46-3.41.18-1.16-.28-2.34-.52-3.52-.74-.8-.15-1.37-.67-1.79-1.27-.36-.52-.56-1.1-.07-1.83.41-.61-.55-1.98-1.32-1.99-.45,0-.97-.26-1.36.21"/>
        <path class="cls-2" d="m286.53,269.1c-.99-.75-2.26-.91-3.31-1.57-1.88-1.19-2.8-2.92-3.31-5.01-.28-1.13-.42-2.3-.77-3.41-.34-1.1-.71-2.19,0-3.29"/>
        <path class="cls-2" d="m196.71,355.05c-.77,1.19-2,1.45-3.29,1.73-1.86.41-3.71.18-5.57.2"/>
        <path class="cls-2" d="m203.18,294.64c-.04,2.12-.2,4.23.18,6.37.22,1.25-.23,2.4-1.63,3.1-1.54.76-2.97,1.73-4.79,1.67-.61-.02-1.19-.36-1.82-.23"/>
        <path class="cls-2" d="m302.08,308.55c-.04-.48-.34-.82-.69-1.07-.88-.62-1.01-1.67-1.43-2.53-.22-.44.09-1.01.41-1.46.63-.89,1.5-1.54,2.29-2.25,1.01-.92,1.13-1.4.32-2.39-.34-.41-.74-.78-1.13-1.14-1.52-1.37-1.94-3.16-2.06-5.11-.07-1.07.22-2.22-.55-3.18"/>
        <path class="cls-2" d="m162.53,76.62c-.05-1.9-.9-3.58-1.49-5.33-.25-.73-1.3-1.04-2.25-.8-1.89.47-3.28,1.9-3.37,3.86-.08,1.75-.81,3.31-1.08,4.99-.32,2-.62,3.99-.55,6.02.03.89.68.84,1.25.78,1.65-.16,3.76.62,4.16,1.84.4,1.23.81,2.49.74,3.85-.03.61.18,1.1.73,1.64,1.44,1.44,2.76,3.05,2.77,5.29"/>
        <path class="cls-2" d="m287.44,266.48c.09-1.38-1.09-1.6-1.93-2.16-2.18-1.46-3.89-3.87-3.41-6.81"/>
        <path class="cls-2" d="m306.74,95.25c.91,0,.39.62.32.9-.49,1.95-1.37,3.7-2.69,5.24-.77.89-1.55,1.79-1.94,2.94"/>
        <path class="cls-2" d="m253.48,319.97c-.44-.63-1.14-.81-1.82-1.02-1.94-.59-3.84-1.36-5.9-1.49-.34-.02-.63-.24-.91-.44"/>
        <path class="cls-2" d="m247.35,396.73c-.51.71-1.2.56-1.93.47-2.04-.26-4.06-.57-6.02-1.24-.56-.19-1.03-.43-1.35-.81-.04-.61.42-.85.58-1.25.53-1.34.9-1.52,2.25-1.02,1.49.56,2.97,1.16,4.42,1.82.57.26,1.12.33,1.71.32"/>
        <path class="cls-2" d="m309.01,116.37c.33.82-.24,1.48-.49,2.14-.34.88-.72,1.77-1.13,2.61-1.16,2.33-3.29,3.64-5.53,4.78-.38.19-.62.02-.56-.45"/>
        <path class="cls-2" d="m65.89,263.42c-.27,2.53-.88,5.03-.7,7.61.11,1.52.77,2.48,2.29,2.77.15.03.11.18.29.17-.46.88-.72,1.76.16,2.5.91.76,2.71.9,3.63.35.56-.33.59-.83.56-1.37"/>
        <path class="cls-2" d="m204.88,302.82c-.03-.46.13-.8.56-1.03,1.26-.67,2.07-1.81,2.82-2.96.74-1.13.03-3.51-1.46-3.62"/>
        <path class="cls-2" d="m345.57,96.27c-.98-.61-2.11-.61-3.18-.65-1.86-.06-3.66-.36-5.45-.81-1.18-.3-2.43.04-3.63-.24-2.88-.66-5.82-.87-8.74-1.12-1.28-.11-2.56.36-3.86.21-.42-.05-.85.11-1.25-.11"/>
        <path class="cls-2" d="m244.74,124.09c-1.3-.12-2.51.33-3.61.84-1.67.77-3.16,1.92-4.9,2.57-.12.05-.28.12-.34.23-1.35,2.38-3.66,4.19-4.47,6.83-.41,1.32-.9,2.78-.56,4.3.17.77-.04,1.63-.16,2.37-.37,2.24-.3,4.48-.23,6.71.06,1.9-.3,3.65-1.07,5.33-.3.66-.87,1.13-1.58,1.24-1.7.26-3.35.28-4.78-.99-1.08-.96-2.34-1.72-3.3-2.84-.4-.47-.42-.88-.21-1.38"/>
        <path class="cls-2" d="m205.34,283.06c-.84-1.17-1.3-2.56-2.47-3.55-1.2-1-2.51-1.59-4-1.9-.07-.02-.18.03-.22,0-1.01-.88-1.8-.19-2.62.35"/>
        <path class="cls-2" d="m111.43,245.02c2.11-.51,3.68-2.02,5.63-2.99-.6-.96.26-2.3-.82-3.09-1.75.1-3.45.25-5.16.27-1.14.01-2.21.23-3.05.95-1.5,1.28-2.98,2.54-4.9,3.17-.2.07-.09.29-.12.45"/>
        <path class="cls-2" d="m96.21,241.39c-2.15-.29-4.32-.31-6.47-.42-1.78-.09-3.3.86-4.77,1.78"/>
        <path class="cls-2" d="m234.86,357.89c-.9,1.23-2.29,1.13-3.52,1.09-1.69-.05-3.26-.63-4.32-2.11-.06-.08-.22-.08-.33-.12"/>
        <path class="cls-2" d="m171.84,334.5c.78-.32,1.15-1.39,1.93-1.41.67-.02,1.33.07,2.05-.02,1.33-.17,2.36-.63,2.94-1.87.34-.73,1.02-1.23,1.27-2.04.17-.55.12-1.2-.17-1.44-.74-.61-.77-1.4-.87-2.13,1.92-2.22,4.67-3.68,5.94-6.35.78-1.63,1.96-1.88,3.37-2.12.23-.04.55,0,.66-.13.64-.76,1.5-.95,2.4-1,1.73-.09,3.02-1.42,4.66-1.68,1.88-.3,3.8-.68,5.67.09"/>
        <path class="cls-2" d="m282.21,236.96c.01-.46.01-.91.1-1.36.52-2.55.03-4.9-1.47-7.04"/>
        <path class="cls-2" d="m179.56,307.36c-.72.77-.61,1.82-.75,2.73-.19,1.19-.57,2.17-1.38,3.08-.64.72-1.48,1.34-1.78,2.46.77.29,1.33.83,1.64,1.61"/>
        <path class="cls-2" d="m206.59,294.19c-.64-.95-.42-1.97.03-2.82,1.12-2.15.63-3.9-1.05-5.47"/>
        <path class="cls-2" d="m287.66,148.84c-.16,1.19.95,1.95.99,3.09-2.44,1.68-6.23.29-7.35-1.95-.16-.32-.29-.66-.57-.91"/>
        <path class="cls-2" d="m110.86,241.96c-.43,2.13-1.6,3.56-3.74,4.22-1.39.43-2.66,1.22-4.09,1.57-.75.18-1.48.23-2.16-.23"/>
        <path class="cls-2" d="m210.9,200.96c.54-1.72-.7-2.87-1.38-4.19-.25-.49-.78-.8-1.15-1.23-.45-.51-1.2-.69-1.77-.12-.38.38-.88.45-1.29.75-1.36.97-2.41,2.12-2.82,3.78-.21.84-.67,1.54-1.25,2.16"/>
        <path class="cls-2" d="m158.1,273.64c-2.32-.4-4.63-.83-6.94.19-.66.29-1.19.73-1.79,1.08-1.55.91-2.95,2.07-4.77,2.51-.86.21-1.62.32-2.39-.08-.06-.63.26-1.09.69-1.29,1.32-.6,1.86-2.04,3.05-2.76.12-.07.16-.29.23-.44"/>
        <path class="cls-2" d="m133.46,283.86c-2.74-.53-5.41-.1-8.06.57"/>
        <path class="cls-2" d="m120.17,283.63c-.97.3-1.63.86-2.21,1.78-.81,1.31-2.03,2.11-3.81,2.01-1.8-.1-3.56-.18-5.22-.96-.92-.43-1.53-1.02-1.26-2.16.06-.25.06-.55-.1-.79"/>
        <path class="cls-2" d="m147.99,100.36c.12-.51-.04-.95-.34-1.37-1.09-1.52-2.06-3.14-3.32-4.52-.81-.89-1.26-1.99-1.71-3.01-.39-.88.44-1.85,1.16-2.57,1.38-1.4,2.85-2.52,5-1.71.49.19,1-.1,1.47-.24,1.17-.34,2.42-.32,3.53-.89"/>
        <path class="cls-2" d="m290.16,281.02c-.78-1.55-2.07-2.7-3.08-4.08-.95-1.3-1.74-2.64-1.45-4.32.18-1.05.76-1.99.9-3.07.06-.48.57-.51.9-.55.5-.05.99-.1,1.56-.28.3,1.34.62,2.66.87,4,.22,1.17.52,2.27,1.17,3.31.44.72.55,1.66.78,2.49.26.93.58,1.82,1.09,2.58.92,1.37.91,3.11,1.88,4.47.33.46-.02,1.21.26,1.8"/>
        <path class="cls-2" d="m279.15,188.02c.65-.75,1.57-1.16,2.21-2.01.91-1.2,1.2-2.54,1.27-3.9.09-1.63-.1-3.28-.52-4.88-.12-.45-.3-.85-.68-1.14"/>
        <path class="cls-2" d="m282.04,176.21c.65-.75,1.57-1.16,2.21-2.01.91-1.2,1.2-2.54,1.27-3.9.09-1.63-.1-3.28-.52-4.88-.12-.45-.3-.85-.68-1.14"/>
        <path class="cls-2" d="m215.33,146.57c1.03-.94,2.36-.39,3.52-.66.45-.11.92-.07,1.24-.47-.63-.82-1.57-.96-2.49-1.29-2.36-.83-4.66-.95-7.06-.22-1.05.32-2.18.5-3.28.46-1.48-.05-3.06.38-4.34-.87-.19-.19-.74-.06-.99.21-.38.42-.8.64-1.37.56"/>
        <path class="cls-2" d="m209.88,187.22c-1.71.65-3.32,1.5-4.77,2.61-2.92,2.25-4.99,5.22-6.63,8.44-.57,1.12-1.16,2.49-.88,3.94.07.37.03.81-.34,1.01-.89.49-1,1.28-1.03,2.17-.03.85.45,1.53.86,2.13.49.73,1.11,1.55,2.11,1.72.5.09.68.4.79.81.1.34-.05.7-.34.77-.36.09-.75.11-1.14-.19-1.11-.86-2.26-1.64-3.07-2.84-.51-.75-1.21-1.36-1.8-2.01,0-.41.3-.7.23-1.07"/>
        <path class="cls-2" d="m69.98,255.01c-.97-.41-1.94-.4-2.96-.14-.65.17-1.13.39-1.24,1.1,1.08.54,1.83,1.4,2.14,2.56.13.49.51.64.82.65,1.14.04,2.02.64,2.96,1.15.46.25.97.4,1.52.62.92-.72.77-1.83.95-2.77.34-1.9-.07-3.68-1.1-5.34-.7-1.12-2.72-1.64-3.87-.9"/>
        <path class="cls-2" d="m197.84,291.12c-.86.57-1.17,1.35-1.04,2.39.06.52.19,1.1-.21,1.59-.31.38-.1.8.02,1.13.58,1.69.23,3.33-.1,5.01-.3,1.5-1.47,2.45-2.07,3.74"/>
        <path class="cls-2" d="m80.2,249.22c-.52-.12-.28-.61-.45-.91-.86-1.51-2.19-1.88-3.75-1.02-1.18.65-1.83,2-1.48,3.07"/>
        <path class="cls-2" d="m265.75,181.55c.61-.78.34-1.75.55-2.62.41-1.66,1.01-3.28,1.21-4.99"/>
        <path class="cls-2" d="m118.36,275.57c-2.09-1.47-4.5-1.6-6.93-1.71-1.15-.05-2.26.31-3.41.24-.84-.05-1.36.55-1.93,1.02"/>
        <path class="cls-2" d="m302.2,103.99c-1.34-.41-2.68.59-2.72,2.04-.05,1.53.49,2.96.73,4.53-1.35.57-2.88.98-4.05,2.15-.98.98-1.51,2.14-1.65,3.43-.21,1.93.03,3.87.33,5.78.06.39.28.79.66,1.02"/>
        <path class="cls-2" d="m295.61,123.52c-.67,1.02-1.68,1.73-2.41,2.71-1.08,1.45-1.51,3.09-1.77,4.79-.13.85.04,1.74-.13,2.61"/>
        <path class="cls-2" d="m124.03,176.21c-2.84-.33-5.59-1.01-8.29-1.91-.5-.17-1.01-.44-1.58-.36"/>
        <path class="cls-2" d="m204.2,285.45c-.84-1.23-1.67-2.46-2.84-3.4-1.43-1.15-2.87-2.27-4.31-3.41"/>
        <path class="cls-2" d="m295.61,364.25c-1.15.87-2.6,1.09-3.79,1.99-1.21.91-2.06,1.84-2.24,3.35-.02.2-.21.38-.33.57"/>
        <path class="cls-2" d="m268.7,391.16c-2.1,1.51-3.89,3.39-5.91,4.99-.41.32-.84.62-1.02,1.14"/>
        <path class="cls-2" d="m84.97,281.81c-.6-.86-1.59-.62-2.39-.75-1.7-.28-3.3-.72-4.76-1.63-.52-.33-1.07-.54-1.7-.45"/>
        <path class="cls-2" d="m279.6,361.64c0,.34.08.72-.12,1.02-1.42,2.06-3.27,3.52-5.79,3.97-1.37.24-2.11-.17-2.71-1.47-.29-.63-.72-.85-1.37-.92-1.3-.12-2.65.04-3.87-.65-.46-.26-1.06-.28-1.34.33-.26.57.17.96.56,1.23,1.19.83,2.59,1.08,3.97,1.37.84.18,1.07-.66,1.59-1.02"/>
        <path class="cls-2" d="m282.04,193.02c-.22.98.02,1.97-.03,2.95-.1,1.67-.43,3.33-1.23,4.72-.51.9-.97,2.33-2.54,2.2"/>
        <path class="cls-2" d="m169,132.15c-.88-.27-1.74-.12-2.61.1-1.97.49-3.1.16-4.64-1.23.32-1.13,1.15-1.9,2.06-2.47.68-.43.58-.77.32-1.29"/>
        <path class="cls-2" d="m277.44,205.62c-.67,2.19-.26,4.47-.54,6.7-.07.57-.29,1.12-.26,1.7"/>
        <path class="cls-2" d="m251.33,351.19c-1.97-.75-3.86-1.72-6.02-1.9-.38-.03-.84-.24-1.14-.6"/>
        <path class="cls-2" d="m196.37,295.1c-.77-.11-1.06-.83-1.59-1.25-.78-.63-1.11-.42-1.5.56-.64,1.58,0,3.02.42,4.42.4,1.34.05,2.22-.96,2.96-1.03.74-2.13,1.4-2.83,2.51"/>
        <path class="cls-2" d="m215.22,313.15c-1.66-1.61-3.52-2.13-5.81-1.42-.88.28-1,1.1-1.74,1.52-1.18.66-2.15,1.79-2.94,3.05-.91,1.46-2.11,2.71-2.84,4.32-.42.92-2.57,1.25-3.7.81"/>
        <path class="cls-2" d="m262.34,317.47c-1.26-1.04-2.72-.76-4.08-.43-2.24.55-3.88,1.99-5.25,3.82-.51.68-.59,1.46-.85,2.19-.16.45.1,1.03.76,1.12,1.14.16,2.27.54,3.42-.08.23-.12.73-.33,1,.09.24.38.15.75-.1,1.14-.64.98-1.48,1.77-2.39,2.49"/>
        <path class="cls-2" d="m225.32,348.24c-.72-.49-1.5-.92-2.15-1.49-2.26-2-4.8-1.78-7.38-.99-.99.31-2.19.44-2.62,1.68"/>
        <path class="cls-2" d="m288.34,137.15c-2.03,1.87-3.19,4.18-3.39,6.93-.1,1.31.15,2.54,1,3.64,1.08,1.4,1.92,1.21,3.06.42,2.13-1.46,3.22-4.96,2.65-7.59-.31-1.44-.93-2.63-2.31-3.14-1.4-.53-1.77-1.67-2.12-2.88-.08-.26-.23-.38-.36-.56"/>
        <path class="cls-2" d="m154.12,368.45c1.06-.54,1.57-1.76,1-2.71-.47-.79-.73-1.72-1.56-2.3-.51-.36-.75-.87-.38-1.58.55-1.06.83-2.25,1.94-2.96.52-.33.29-1.01.3-1.46.02-1.1.09-2.22-.03-3.28-.12-1.06-.87-2.04-1.51-2.96"/>
        <path class="cls-2" d="m181.72,318.38c-.5,1.47-1.84,2.12-2.98,2.91-.62.43-1.4.75-1.99,1.21-.84.65-1.58.47-2.41.19"/>
        <path class="cls-2" d="m262.57,390.94c-.64-.82-1.48-.31-2.15-.19-1.35.24-2.67.67-3.98,1.11-1.01.34-1.75,1.01-1.94,2.14"/>
        <path class="cls-2" d="m172.86,312.93c1.71-.85,3.2-1.95,3.49-3.98.16-1.08,0-2.19.03-3.29.03-1.22.56-1.97,1.47-2.16,1.12-.23,1.58.13,1.59,1.25,0,.53.01,1.06,0,1.59-.01.42.03.8.49.99,2.07-.43,4.47-.15,5.88-2.34-.15-.26-.11-.59-.35-.8"/>
        <path class="cls-2" d="m192.85,280.68c-.01.74-.52,1.21-1.03,1.57-1.57,1.13-2.09,2.81-2.48,4.56-.08.38.13.67.44.91.4.31,1.01.37,1.22.09,1.44-1.94,3.55-3.21,5-5.11.39-.52.67-1.21.3-2.04-.33-.74-.42-1.62-.39-2.48.03-.93-.21-1.79-.89-2.5-1.35-1.42-2.7-2.84-4.77-3.17"/>
        <path class="cls-2" d="m200.79,129.54c-1.87-.52-3.75-.6-5.68-.26-.8.14-1.27.49-1.58,1.17"/>
        <path class="cls-2" d="m84.74,271.14c-.97-1.74-2.75-2-4.43-2.36-.73-.16-1.51-.1-2.27-.13"/>
        <path class="cls-2" d="m227.82,396.39c-.58,1.34-1.92,1.61-3.08,1.86-.73.16-1.56-.07-2.38.13-.59.14-.96.28-1.25.83-.68,1.3-1.74,1.97-3.28,1.84-1.05-.09-2.13.19-3.18-.13-1.98-.6-3.95-1.13-5.6-2.57-1.27-1.11-2.58-2.2-3.94-3.21"/>
        <path class="cls-2" d="m140.95,359.94c-.43-1.31.17-2.44.54-3.64.34-1.1,1.28-2.01,1.05-3.29"/>
        <path class="cls-2" d="m83.67,274.89c-.21-1.4-1.56-1.58-2.47-2.12-1.32-.78-2.85-1.09-4.4-1.32-1.83-.27-2.99.44-3.17,2.31-.04.36-.26.66-.24,1.02"/>
        <path class="cls-2" d="m215.56,313.38c-.46.93-1.2,1.31-2.49.88-1.51-.51-3.08-.83-4.55-1.44"/>
        <path class="cls-2" d="m305.6,283.4c.11-1.83-.24-3.46-1.93-4.55-.97-.63-1.6-1.67-2.62-2.26"/>
        <path class="cls-2" d="m165.37,284.08c-.48.59-1.16.68-1.81.55-2.42-.48-4.84-.53-7.27-.1-2.07.37-4.05-.13-6.01-.69-.42-.12-.84-.15-1.26-.32-1-.41-.96-1.42-1.36-2.17"/>
        <path class="cls-2" d="m176.15,308.04c-1.65-.34-3.27-.92-5-.68-.95.13-1.79.4-2.52,1.12-.76.75-.23,1.62-.44,2.4"/>
        <path class="cls-2" d="m192.39,324.62c-.67-.39-1.43-.39-2.16-.44-2.32-.14-4.63.08-6.92.37-1.13.14-2.22.69-3.41.41"/>
        <path class="cls-2" d="m282.67,387.08c-1.24.35-2.17,1.21-3.05,2.06-1.3,1.26-2.92,1.72-4.55,2.27-1.37.46-2.66-.05-3.98-.13-.49-.03-.81-.36-1.14-.68"/>
        <path class="cls-2" d="m162.87,326.78c.03-.67-.23-1.24-.69-1.7-1.03-1.02-1.79-2.3-3.16-2.98-.37-.19-.8-.55-.81-1.11"/>
        <path class="cls-2" d="m227.93,316.9c-.5-.7-1.18-1.01-2.04-1.03-.67-.01-1.27-.35-1.93-.47-.85-.16-1.57-.1-2.16.59"/>
        <path class="cls-2" d="m299.47,90.7c.48-.37.95-.18,1.48-.08,1.14.2,2.22.64,3.4.68.66.02,1.28.13.84,1.24-.72,1.79-.72,3.75-.84,5.66"/>
        <path class="cls-2" d="m237.93,395.14c-2.01.08-3.4,1.19-4.54,2.73-.34.46-1.05.52-1.25,1.14"/>
        <path class="cls-2" d="m273.24,188.47c-2.57-1.89-3.57-4.51-3.91-7.6-.24-2.21.73-3.85,1.75-5.57"/>
        <path class="cls-2" d="m183.19,273.52c-.3-.06-.59.03-.91-.1-1.56-.63-3.11-.07-4.65.18-.25.04-.46.39-.69.6"/>
        <path class="cls-2" d="m193.19,305.77c.37-.4.74-.85,1.36-.67.69.19.6.88.66,1.36.21,1.58.28,3.23-.8,4.52-1.05,1.26-2.3,2.36-3.82,3.11-1.21.6-1.23.85-.69,2.14"/>
        <path class="cls-2" d="m269.38,326.89c-.92-.28-1.8-.11-2.73.07-1.1.2-2.29.21-3.39.01-1.82-.33-3.64-.24-5.46-.36"/>
        <path class="cls-2" d="m255.64,119.43c-.85,1.47-2.14,1.4-3.52,1.02-1.11-.31-2.16-.37-3.19.33-.66.44-1.51.44-2.27.67-1.27.39-2.08,1.12-2.38,2.41"/>
        <path class="cls-2" d="m80.43,251.49c1.77.19,2.33-1.15,2.81-2.4.37-.95.71-1.92,1.18-2.82.53-1.02.12-2.15.52-3.2.18-.46-.81-.94-1.2-.54-1.27,1.28-2.67,2.51-2.06,4.64.15.52.16.98-.43,1.38-1.09.74-1.48,1.76-.83,3.06.15.3.05.76-.09,1.12"/>
        <path class="cls-2" d="m293.45,376.29c.78-1.02,1.52-2.07,2.15-3.18.35-.62.57-1.29.1-1.92-.47-.63-1.13-.15-1.69-.1-.63.05-1.1.54-1.58.91-.32.25-.19.6.21.77"/>
        <path class="cls-2" d="m203.07,294.42c.39-.65.95-1.19,1.35-1.83.73-1.19,1.02-2.49.46-3.85-.29-.72-.27-1.58-.9-2.16"/>
        <path class="cls-2" d="m234.41,391.28c-.31-.52-.69-.83-1.36-.93-2.63-.39-5.19-.38-7.74.55-.66.24-1.4.49-2.14.49-.49,0-.84.22-1.14.57"/>
        <path class="cls-2" d="m193.53,298.85c-1.4,1.01-3.14,1.35-4.56,2.36-.75.54-1.43,1.23-2.37,1.5-.27.08-.53.23-.8,0"/>
        <path class="cls-2" d="m204.54,288.4c-1.63,1.04-3.63,1.39-5.11,2.72-1.62,1.46-1.72,1.92-.68,3.75"/>
        <path class="cls-2" d="m181.49,355.17c-.4-.88-1.29-.9-2.04-1.21-1.69-.71-3.13-1.83-4.59-2.94-1.04-.8-1.06-1.96-1.67-2.86.11-.77,1.14-.82,1.2-1.61"/>
        <path class="cls-2" d="m99.51,287.15c-1.02-.23-2.04-.45-3.07-.68-1.41-.32-2.75-.93-3.59-2.08-.69-.94-1.36-.83-2.08-.4-1.08.64-2.34.82-3.43,1.43-.68.38-2.28-.49-2.49-1.23-.28-.98.21-1.81,1.25-2.16.89-.3,1.91-.32,2.51-1.24.22-.34.72.05,1.01-.23"/>
        <path class="cls-2" d="m295.04,138.62c-.4-.32-.45-.8-.57-1.25-.41-1.65-1.56-2.86-2.51-4.19-.06-.09-.33.06-.44-.12"/>
        <path class="cls-2" d="m310.49,303.5c-1.42,1.6-2.64,3.39-4.42,4.67-.41.29-.57.76-.13,1.24.22.24.38.53.57.79"/>
        <path class="cls-2" d="m264.16,364.25c-3.86.67-7.3-.24-10.34-2.72-.34-.28-.75-.46-1.13-.69"/>
        <path class="cls-2" d="m165.14,344.49c-.63-.69-1.59-.86-2.28-1.47-.46-.41-1.05-.68-1.35-1.26-.39-.73-1.03-1.05-1.82-1.14"/>
        <path class="cls-2" d="m165.93,323.03c-1.06.13-1.69-.57-2.26-1.26-.91-1.1-1.91-2.03-3.42-2.13-.29-.02-.32-.23-.44-.36-.41-.44-.83-.77-1.49-.8-.87-.04-1.38-.7-1.79-1.36-.16-.25-.08-.7.2-1.01.46-.52,1.61-.81,2.27-.44,1.08.61,2.18.52,3.3.21"/>
        <path class="cls-2" d="m219.3,211.18c-.27.19-.66-.01-.91.23-1.7,1.71-3.8,1.87-6.02,1.59"/>
        <path class="cls-2" d="m91.44,249.22c.31,1.62.14,1.92-1.82,2.71-.79.32-1.61.63-2.35.98-.95.46-1.44,1.57-2.08,2.43-.64.85-1.02,1.86-1.79,2.63-1.01,1.02-1.85,1.19-3.08.44"/>
        <path class="cls-2" d="m84.4,251.27c-1.19.47-1.62,1.48-1.94,2.61-.26.93-.3,2.09-1.69,2.16"/>
        <path class="cls-2" d="m278.92,180.75c-1.36.41-2.52-.37-3.74-.7-1.1-.3-2.36-.21-3.18-1.23"/>
        <path class="cls-2" d="m275.46,174.62c-.75-1.05,1.73-.48,4.63,2.05"/>
        <path class="cls-2" d="m185.92,344.72c.35-1.29-.74-1.99-1.41-2.56-2.27-1.93-4.81-3.51-7.67-4.5-.61-.21-1.25.12-1.82-.21"/>
        <path class="cls-2" d="m178.08,120.11c-.23,0-.49-.08-.68.01-2.53,1.22-4.73,2.88-6.71,4.86-.37.37-.47.78-.45,1.26"/>
        <path class="cls-2" d="m148.11,352.78c-.47.49-.96.47-1.6.25-1.61-.56-3.28-.98-4.19-2.63"/>
        <path class="cls-2" d="m203.63,312.25c-1.51-1.63-3.49-1.56-5.45-1.46-.72.03-1.5.07-2.14.37-.62.28-1.02.07-1.49-.15"/>
        <path class="cls-2" d="m89.85,280.22c1.11-.45,1.93-1.34,2.94-1.95.62-.37.48-1.59-.22-1.76-1.51-.36-2.69-1.44-4.19-1.74-1.65-.33-3.24-1.09-5-.68"/>
        <path class="cls-2" d="m206.36,294.64c.77,1.7-.04,3.09-.93,4.42-.38.57-.97,1-1.46,1.49"/>
        <path class="cls-2" d="m217.94,131.7c-.27.46-.73.3-1.14.34-1.61.18-3.01.79-3.97,2.16-.49.69-1.03,1.03-1.94.93-.89-.1-1.6.65-2.49.79-.61.1-1.21.35-1.82.4-.28.02-.58.13-.66.27-.96,1.54-2.58,1.24-4,1.44-.68.1-1.32.19-1.81.7"/>
        <path class="cls-2" d="m240.77,349.15c-.61,1.58-.83,1.72-2.26.89-1.91-1.1-3.94-1.33-6.02-.87-1.85.4-3.53,1.29-4.98,2.5-.83.7-1.78,1.29-2.34,2.33-.29.54-1.02.28-1.55.02"/>
        <path class="cls-2" d="m169.91,350.06c.06-1.14,1-1.83,1.42-2.81.58-1.35.94-2.66.85-4.11"/>
        <path class="cls-2" d="m265.86,388.89c-.12.89-.91,1.45-1.5,1.64-2.4.79-4.15,2.6-6.33,3.71-.76.38-1.01,1.26-1.48,1.92"/>
        <path class="cls-2" d="m206.47,391.39c-1.27-1-2.66-1.59-4.3-1.88-2.13-.37-4.11-.16-6.15.37-.63.16-1.35-.07-2.04-.08-.82-.01-1.38.2-1.39,1.24-.01,1.08-1.32,1.55-2.35.9-.35-.22-.61-.59-.92-.9"/>
        <path class="cls-2" d="m186.6,313.04q1.87.25,2.61-1.36c.24-.51.62-.85,1.12-1.16,1.47-.92,2.65-2.1,2.85-3.95.09-.87-.13-1.1-.9-.78-.84.35-1.56.26-2.28-.24"/>
        <path class="cls-2" d="m196.37,204.94c1.27.39,2.53.86,3.86,1.01,1.59.18,3.21.55,4.77-.21.98-.48,1.09-1.06.22-1.58-1.29-.77-2.75-1.25-4.12-1.85-.93-.41-2.25-.25-3.37.14"/>
        <path class="cls-2" d="m254.28,394.12c-1.1.45-2.29.76-3.27,1.4-1.07.71-2.26.63-3.38.98"/>
        <path class="cls-2" d="m144.25,274.43c-1.69-1.11-3.61-1.14-5.44-.74-1.51.33-2.97.86-4.55.74-.15-.01-.29,0-.46.1-1.4.84-2.91.9-4.42.45-1.76-.53-3.25.52-4.88.76-.41.06-.94.16-1.37.39"/>
        <path class="cls-2" d="m95.19,276.25c1.37,1.67-.09,5.02-2.51,5.53-.62.13-1.24-.45-1.92-.55-.95-.14-1.06-.89-1.03-1.69,0-.23-.07-.45-.11-.71.64-.77,1.29-1.56,1.94-2.35"/>
        <path class="cls-2" d="m287.32,251.95c-.78.35-1.57-.09-2.39.08-1.29.27-2.53.53-3.4,1.62"/>
        <path class="cls-2" d="m276.19,361.53c-.3.3-.63.59-.9.91-.82.95-1.82,1.62-3.07,1.8-.47.07-.76.39-1.13.58"/>
        <path class="cls-2" d="m187.79,302.25c.94.52,1.33,1.49,1.85,2.34.24.39.3.88.16,1.41-.43,1.55-.38,3.11.09,4.65"/>
        <path class="cls-2" d="m209.08,348.01c.93-.55,2.01.1,3.16-.39-.74-1.3-1.88-2.02-3.17-2.17-2.21-.25-4.46-.41-6.69-.25-.46.03-.93.26-1.39.49-1.5.74-2.86,1.65-4.17,2.67"/>
        <path class="cls-2" d="m255.75,130.22c.16-.45.35-.82-.45-.81-1.17,0-2.34-.21-3.52-.11-.97.08-1.84.24-2.38,1.15"/>
        <path class="cls-2" d="m187.96,396.73c-1.28.14-2.24-.69-3.27-1.19-.6-.29-.71-1.23-.9-1.89-.32-1.11-.2-2.25.42-3.28"/>
        <path class="cls-2" d="m164.12,327.46c-.94-.6-2.05-.43-3.07-.65-1.68-.36-3.5.67-4.18,2.25-.24.55-.46,1.17.1,1.7"/>
        <path class="cls-2" d="m156.62,334.62c-1.77.63-3.08,1.86-4.18,3.31-.4.53-.77.42-1.15.25-.7-.31-1.16-.14-1.48.53"/>
        <path class="cls-2" d="m299.81,304.98c-1.02.66-1.54,1.78-2.39,2.61-.19.18-.12.39-.1.57.11.85,1.47,1.89,2.26,1.69.66-.17,1.41-.3,1.9-.7.7-.57,1.34-.5,2.07-.31"/>
        <path class="cls-2" d="m170.82,325.64c-.28-1.24-.26-2.51-.51-3.76-.17-.86.21-1.85.98-2.47.59-.48,1.1-1.06,1.8-1.38.74-.34.96-1.09.75-1.69-.38-1.1-.4-2.29-1.05-3.33-.3-.47-.65-.72-1.07-.81-2.04-.41-3.93-1.11-5.57-2.44-.57-.46-1.93-.05-2.1.68-.15.63-.59.62-.95.84"/>
        <path class="cls-2" d="m193.75,344.66c-.72-.13-1.44-.13-2.16-.25-.97-.16-1.92.1-2.72.76"/>
        <path class="cls-2" d="m274.83,191.08c-.7.66-1.59.92-2.5,1.15-.72.18-1.16-.35-1.69-.61-.41-.2-.7-.66-1.17-.9-.22.27-.42.56-.66.81-2.13,2.24-2.53,5.09-2.53,7.95,0,.97-.13,2.16.61,3.07"/>
        <path class="cls-2" d="m105.07,275.57c-.59-1.3-1.87-1.78-3.02-2.23-1.92-.74-3.69.08-5.38.98"/>
        <path class="cls-2" d="m159.57,337.23c.02-.53.28-.95.57-1.36.69-1,1.24-2.06,1.36-3.29"/>
        <path class="cls-2" d="m141.97,285.39c-1.08-.49-2.32-.55-3.36-1.17-.14-.08-.44-.2-.47-.26-.72-1.33-1.97-1.07-3.09-.97-.44.04-.8,0-1.01-.28-.46-.6-1.06-.62-1.72-.68-1.05-.09-1.8.22-2.16,1.26"/>
        <path class="cls-2" d="m116.54,240.71c-1.02-.06-1.96.11-2.97.38-1.19.32-2.4.97-3.73.64"/>
        <path class="cls-2" d="m183.31,315.99c-2.2-.41-4.4-.53-6.59.11"/>
        <path class="cls-2" d="m166.96,316.33c-.6-2.02-1.39-3.93-3.07-5.34"/>
        <path class="cls-2" d="m77.93,268.41c.21-.54.13-.98-.34-1.37-.76-.64-1.33-1.48-2.26-1.95-.58-.29-1.05-.79-.69-1.57.24-.52.09-.9-.34-1.26-.42-.36-.73-.82-.92-1.35"/>
        <path class="cls-2" d="m228.05,392.87c-1.57.01-3.08.57-4.66.57"/>
        <path class="cls-2" d="m153.22,351.42c-.08.94-.98,1.35-1.39,2.09-.04.07-.35.27-.67.09-.72-.43-1.54-.6-2.37-.72-.34-.05-.58-.29-.84-.64-.97-1.31-2.65-1.76-3.83-2.85-.37-.34-.77-.02-1.13.21-.38.23-.48.92-1.13.69"/>
        <path class="cls-2" d="m166.5,322.01c-.39,1.07-.76,2.12-.83,3.29-.04.65-.22,1.36-.98,1.72-.76.36-.53.85,0,1.22.16.11.27.28.44.35,1.02.43,1.27,1.3,1.36,2.28"/>
        <path class="cls-2" d="m239.18,358.69c-.43-.56-1.12-.69-1.7-.65-2.08.12-3.77-1.06-5.68-1.52-.54-.13-1.06-.08-1.59-.1"/>
        <path class="cls-2" d="m228.22,393.09c-.03-.79.67-.69,1.08-.77.8-.14,1.59.14,2.25.56.66.41.92,1,.37,1.81-.52.78-.91,1.62-2.06,1.46-.83-.11-1.59.33-2.55-.27-1.22-.77-2.83-.64-4.26-.38-.76.14-1.48.43-2.28.42-2.21-.02-4.4.13-6.59.45-.22.03-.46.03-.68,0-1.11-.17-1.7-1.26-2.93-1.47-1.06-.18-1.81-1.44-1.95-2.73"/>
        <path class="cls-2" d="m190.23,272.16v.23c-1.59-.02-3.16.69-4.77.11"/>
        <path class="cls-2" d="m146.97,365.27c-.52-.74-1.19-1.4-1.25-2.38-.04-.67-.7-.5-1.03-.79-.67-.58-1.28-1.23-2.03-1.72-.94-.61-1.93-.33-2.83-.06-.58.17-.69.95-.56,1.54.1.43.17.67-.37.69"/>
        <path class="cls-2" d="m178.99,327.12c-.81,1.45-2.47,1.75-3.67,2.68-.99.76-1.46,1.58-1.44,2.77,0,.13.02.26-.11.34"/>
        <path class="cls-2" d="m193.3,277.73c-.39.55-1.06.47-1.59.67-1.34.51-1.81,1.52-1.22,2.78.74-.36,1.47-.8,2.37-.63.4.08.73-.26.89-.56.36-.69.98-1.01,1.61-1.35"/>
        <path class="cls-2" d="m198.3,355.4c-1.18-.39-2.22-.99-3.08-1.92-.56-.6-.56-1.16-.22-1.83.41-.81,1-1.5,1.49-2.26.19-.29.43-.54.44-.91"/>
        <path class="cls-2" d="m320.25,85.03c-.07-.51.09-.99.25-1.46-1.21-1.42-2.71-1.7-4.46-1.41-.92.15-1.92.17-2.83-.01-1.03-.2-1.58.2-1.79,1.07-.09.38-.6.47-.49.9"/>
        <path class="cls-2" d="m298.56,373.34c-.55-.59.03-1.28-.2-1.94-.45-1.27-.51-1.37-2.07-1.35"/>
        <path class="cls-2" d="m272.11,169.28c-.35.32-.58.71-.82,1.12-.61,1.05-1.33,2.03-2.7,2.17"/>
        <path class="cls-2" d="m299.59,379.81c2.19-1.14,2.42-2.58.45-3.97"/>
        <path class="cls-2" d="m123.01,275.57c.04.52,0,1.05-.46,1.35-1.32.86-1.55,2.42-2.4,3.48-1.23.34-2.6.24-3.3,1.74-.36.77-1.36,1.04-1.79,1.83"/>
        <path class="cls-2" d="m210.9,207.21c-1.05,1.01-1.97,2.19-3.4,2.73-.1.04-.16.14-.23.1-.69,2.18-2.65,1.65-4.21,1.91-1.24.21-2.36-.18-3.18-1.23"/>
        <path class="cls-2" d="m255.64,130.45c-.64.22-1.14.69-1.57,1.15-.78.85-1.6,1.66-2.41,2.48"/>
        <path class="cls-2" d="m174.56,330.07c-1.06-1.12-1.05-2.46-.81-3.86.08-.49.13-1.04-.49-1.37-1.39.54-2.79.95-3.66,2.52-.4.72-1.38,1.15-1.65,2.14-.13.48-.14.92.15,1.24.5.54.72,1.24,1.12,1.83"/>
        <path class="cls-2" d="m197.96,347.22c-.78-1.54-2.4-1.88-3.76-2.59-.26-.14-.37.17-.33.44"/>
        <path class="cls-2" d="m183.42,313.95c.77-.07,1.26.5.86.98-.73.88-.85,2.03-1.55,2.88-.43.52-.84.49-1.49.15-1.21-.63-2.6-.62-3.95-.59-.11,0-.24.13-.34.22-1.21,1.17-2.26,2.43-2.51,4.2-.15,1.09-.54,2.14-.89,3.18"/>
        <path class="cls-2" d="m134.14,283.06c.07.41-.51.46-.47.91.08.79-.52,1.17-1.13,1.34-1.96.56-3.98.77-6.01.69-.4-.02-.76-.23-1.02-.56"/>
        <path class="cls-2" d="m276.99,206.64c-.62-.4-.77-1.08-1.03-1.7-.2-.47-.35-1.04-1.01-1.14-.76-.12-1.29.11-1.48.91"/>
        <path class="cls-2" d="m74.41,264.21c-.61-.04-1.24.02-1.81-.13-.98-.26-1.71.07-2.39.7"/>
        <path class="cls-2" d="m166.62,381.4c-1.04.49-2.16.68-3.29.66-.87-.01-1.56.23-2.16.82"/>
        <path class="cls-2" d="m216.46,393.21c.16-.84-.33-1.26-1.02-1.47-1.1-.33-2.22-.65-3.29.1"/>
        <path class="cls-2" d="m231.11,401.21c-1.14-.24-2.18.32-3.29.44-2.47.26-3.07-.13-3.19-2.54-.01-.23-.07-.45-.11-.68"/>
        <path class="cls-2" d="m211.35,207.04c-.55.24-.38-.28-.32-.39.63-1.35-.22-2.78.26-4.18.13-.39-.01-1.31-.83-1.64-.66-.26-1.01-.95-1.63-1.43-.9.06-1.76.63-2.7.99-1.24.47-2.5.86-3.86.69"/>
        <path class="cls-2" d="m167.07,380.72c-.08-.98-.51-1.88-.7-2.84-.12-.63-.77-1.03-1.56-.65-.5.24-.87.27-1.26-.04-.44-.35-.18-.75,0-1.13"/>
        <path class="cls-2" d="m166.27,321.78c-.67-1.12-1.43-2.2-1.03-3.64.07-.25.05-.5-.31-.71-.46-.26-.94-.52-1.4-.73-.77-.35-1.22-.62-1.04-1.64.19-1.11-1.07-2.6-2.12-2.83-1.12-.25-2.45,1.03-2.25,2.27.09.58.07,1.14.09,1.71"/>
        <path class="cls-2" d="m79.41,252.52c1.09.21,1.21.96,1.29,1.93.09,1.27-.51,2.29-.82,3.41-.06.22-.16.28-.35.34-1.29.4-1.72,1.51-2.31,2.59-.5.91-.99,2.04-2.34,2.07"/>
        <path class="cls-2" d="m166.73,321.67c1.17-1.39,1.1-2.58-.23-3.86"/>
        <path class="cls-2" d="m210.9,203.01c-1.2.19-1.99,1.16-3.06,1.59-.62.25-1.18.76-1.93.45"/>
        <path class="cls-2" d="m151.4,353.81c0,1.06-1.02,1.82-.81,2.96.12.67.18,1.33-.06,2.05-.32.97-.68,1.87-1.4,2.6"/>
        <path class="cls-2" d="m173.66,337.68c.08-.53-.15-.95-.45-1.37-.93-1.33-2.34-2.22-3.29-3.52-.18-.24-.43-.14-.57-.09-1.37.52-2.92.45-4.21,1.23"/>
        <path class="cls-2" d="m160.6,98.88c-.29-1.47-.28-2.98-.67-4.43-.1-.35.04-.7.22-1.02"/>
        <path class="cls-2" d="m307.08,314.29c-.43-1.25-.11-2.61-.55-3.87,0-.01.21-.11.33-.17"/>
        <path class="cls-2" d="m142.77,366.3c.18-1.11-.5-2.33-1.48-2.61-.49-.14-.74.34-1.14.45"/>
        <path class="cls-2" d="m167.64,385.26c.07-.8-.44-1.43-.64-2.15-.45-1.67-.28-2.18,1.33-2.94.84-.4,1.68-.78,2.74-.41.7.25,1.58.17,2.37-.06"/>
        <path class="cls-2" d="m201.93,192.45c-.17-.41-.64-.44-.91-.43-2.35.12-4.76.18-6.23,2.48-.21.33-.76.38-.7.89"/>
        <path class="cls-2" d="m198.41,291.47c-.84-1.59-1.8-3.11-2.31-4.87-.26-.88-.59-1.77-.98-2.62"/>
        <path class="cls-2" d="m203.07,143.51c.26-.84,1.12-.97,1.72-1.33,2.22-1.34,2.49-2.48.89-4.57-.08-.1-.15-.26-.34-.23"/>
        <path class="cls-2" d="m197.16,398.55c1.12,1.03,2.44,1.51,3.97,1.64.71.06,1.37-.06,2.05-.09.47-.02.79-.56.79-1.09,0-.82.02-1.65-.45-2.49.74-.79,1.83-1.48,1.82-2.84"/>
        <path class="cls-2" d="m311.51,84.35c-.94-.12-1.8-.62-2.86-.15-1.21.54-1.77,1.48-1.23,2.65.17.37.49.68.46,1.13"/>
        <path class="cls-2" d="m75.09,277.27c.54-.72.42-1.6-.05-2.11-.48-.53-1.37-.56-2.11-.15-.18.1-.34.25-.57.22"/>
        <path class="cls-2" d="m106.09,276.25c-.49-.52-1-.56-1.71-.37-1.47.39-2.96.04-4.42-.21-.79-.13-1.58-.4-2.39-.31-.69.08-1.14-.62-1.89-.45-.05,1.52-1.49,1.68-2.43,2.36"/>
        <path class="cls-2" d="m212.49,134.76c.3.15.59.35.91.44.32.1.45.35.55.58.28.66-.79,2.68-1.46,2.96-1,.41-2,.82-3.07,1.02-.58.11-.98.46-1.26,1.01-.4.8-.96,1.08-1.7.34"/>
        <path class="cls-2" d="m150.49,363.91c.58.22,1.13.47,1.37,1.13.13.36.45.58.78.81,1.04.74,1.49,2.37,1.03,3.62"/>
        <path class="cls-2" d="m146.74,373.22c-1.97-.63-3.11.67-3.55,2.38-.35,1.36-.25,2.49.71,3.54.45.5.27,1.24.58,1.81"/>
        <path class="cls-2" d="m169.11,337.57c-1.68.45-1.84.21-2.65-1.34-.82-1.57-1.84-3.07-3.25-4.22"/>
        <path class="cls-2" d="m79.75,249.11c-.34.08-.65.27-1.02.23-2.29-.26-4.77,1.05-5.79,3.06"/>
        <path class="cls-2" d="m107.45,284.99c-2.28.1-4.49-.33-6.7-.78-.4-.08-.83-.28-1.25-.01"/>
        <path class="cls-2" d="m277.1,202.78c-.91-1.06-2.06-1.71-3.41-2.04"/>
        <path class="cls-2" d="m147.08,377.54c-1.09-.14-1.83.37-2.38,1.25-.15.23-.27.48-.57.57"/>
        <path class="cls-2" d="m159.23,382.65c-.5-1.04-1.39-1.69-2.19-2.47-.94-.91-1.76-1.75-3.01-2.24-.49-.19-.99-.4-1.46-.59-1.35-.56-2.92.05-4.12-.94"/>
        <path class="cls-2" d="m300.27,300.1c-.22.67-.29,1.38-.54,2.06-.15.41-.16.99.31,1.35"/>
        <path class="cls-2" d="m218.4,316.11c-.29-.47-.76-.66-1.25-.79-.76-.2-1.45-.48-1.82-1.25"/>
        <path class="cls-2" d="m74.07,268.87c.03.18-.13.25-.23.34-1.86,1.7-2.24,3.78-1.51,6.18-1.5-.65-3.02-.93-4.51-1.29"/>
        <path class="cls-2" d="m99.62,287.38c0-.13-.02-.34.11-.33,1.32.07,2.56-.42,3.86-.47.89-.03,1.46-.44,1.59-1.36"/>
        <path class="cls-2" d="m287.09,321.1c-.34,1.27-1.48,2.08-1.93,3.29"/>
        <path class="cls-2" d="m307.08,95.25c1.22-1.49,1.12-3.5,2.03-5.12.14-.25-.09-.54-.21-.79"/>
        <path class="cls-2" d="m285.73,389.8c-.45-.07-.88-.27-1.36-.24-.49.03-1.12.21-1.35-.45-.25-.73-.49-1.55,0-2.25.53-.76.93-1.61,1.58-2.28.26-.27.48-.52.23-.91"/>
        <path class="cls-2" d="m66.23,259.44c-.19-.47-.55-.83-.78-1.26-.35-.66-.48-1.35.21-1.92"/>
        <path class="cls-2" d="m205.22,393.55c-.78-.25-1.48-.08-2.16.34-1.64,1.01-3.31.85-4.99.12"/>
        <path class="cls-2" d="m159.92,333.48c-.07-.61.14-1.22-.21-1.82-.41-.71-1.31-1.26-2.06-1.13-.74.14-1.06.79-.66,1.58.25.48.35.87.1,1.38-.91,1.79.44,4.1,2.61,3.76.14-.02.3.14.45.21"/>
        <path class="cls-2" d="m177.4,396.61c0-.58-.07-1.16.29-1.72-.61-.2-1.2-.19-1.77-.31-1.3-.26-2.17-.95-2.38-2.06-.2-1.05.2-1.73,1.48-2.5"/>
        <path class="cls-2" d="m170.14,332.34c1.35-1.88,1.29-3.04-.23-4.66"/>
        <path class="cls-2" d="m145.61,362.49c.65-.94,2.33-1.6,3.15-1.04.59.4.94,1.17,1.39,1.78.13.18.23.38.34.57-1.05,1.3-2.73,1.28-4.1,1.91-1.06.48-2.12,1.01-3.41.75-.56-.12-1.01.44-.89,1.09.22,1.14.5,2.28.79,3.41.09.34.12.68.1,1.02-.05.72.09,1.34.8,1.7"/>
        <path class="cls-2" d="m170.02,349.04c-.96,0-1.9.14-2.84.32-.38.07-.34.24-.34.48"/>
        <path class="cls-2" d="m223.85,316.9c-.41.1-.87-.06-1.11-.25-1.18-.93-2.51-.4-3.77-.55-.44-.05-.67.18-.91.46-.39.46-.88.65-1.48.57"/>
        <path class="cls-2" d="m118.24,284.54c-.17-.12-.34-.26-.57-.23-.92.14-1.81.13-2.73-.1-.88-.22-1.53.07-1.59,1.12"/>
        <path class="cls-2" d="m293.23,376.52c-1.23,1.4-1.38,1.44-2.84.91"/>
        <path class="cls-2" d="m176.49,390.82c1.1-.34,2.2-.68,3.37-1.05.09-.66.02-.99-.86-1.17-.87-.18-1.66-.43-2.51-.05"/>
        <path class="cls-2" d="m186.15,317.47c-.29-.58,0-1.1.24-1.58.24-.48.6-.9.55-1.48"/>
        <path class="cls-2" d="m197.5,394.34c-1.78.22-3.41.97-5.09,1.52-.38.13-.83,0-1.15.29"/>
        <path class="cls-2" d="m183.53,390.82c-2.08.92-4,2.09-5.68,3.63"/>
        <path class="cls-2" d="m181.72,344.15c.01-.41-.11-.78-.46-1.02-1.7-1.16-5.72-2.23-7.69-.98-.96.61-1.99.8-2.98,1.21"/>
        <path class="cls-2" d="m120.51,283.52c-.42-.56-.29-1.23-.19-1.81.08-.48-.04-.79-.27-1.14"/>
        <path class="cls-2" d="m199.77,138.96c-1.2.6-2.21,1.54-3.52,1.93"/>
        <path class="cls-2" d="m185.01,387.42c-.16-1.71-1.32-3.08-1.64-4.76-.09-.46-.72-.89-1.42-.93-2.54-.18-5.08-.75-7.61.12-.17.06-.38,0-.57,0"/>
        <path class="cls-2" d="m117.33,281.02c-1.23-.74-.57-1.85-.57-2.84"/>
        <path class="cls-2" d="m162.41,385.37c-.64.36-1.3.55-2.04.46-.24-.03-.58-.12-.57.33"/>
        <path class="cls-2" d="m69.98,259.1c.38-1.23.86-2.41.26-3.76-.37-.84-.16-1.84-.66-2.74-.3-.54-1.02-.66-1.07-1.33"/>
        <path class="cls-2" d="m169,311.68c-.55,1.03-.86,2.11-.69,3.29.02.15.06.32-.1.46-.92.81-1.6,1.94-2.96,2.15"/>
        <path class="cls-2" d="m247.81,396.16c-.48-.66-.88-1.26-.38-2.18.3-.56-.07-1.29-.3-1.91"/>
        <path class="cls-2" d="m165.14,376.97c-.27-.62-.72-.99-1.35-1.27-.93-.41-1.79-.97-2.66-1.5-.56-.34-.6-.91-1.08-1.22-1.14-.72-2.33-1.28-3.75-1.71.02-.24-.08-.62.11-.99"/>
        <path class="cls-2" d="m155.49,344.15c-.96-.11-1.38-.6-1.26-1.59.06-.53.08-1.09-.25-1.66-.94.49-1.82,1.32-3.03.87"/>
        <path class="cls-2" d="m71.8,259.22c-.07-1.11.49-2.44-1.02-3.07"/>
        <path class="cls-2" d="m195.46,386.85c-1.07-.34-2.2-.19-3.29-.34-.85-.11-1.56.3-2.27.68-.86.46-1.69.77-2.73.48-1.84-.53-2.05-.37-3.29,1.57"/>
        <path class="cls-2" d="m184.33,395.59c-1.26.74-2.64.51-3.97.43-1.16-.06-1.4.16-1.02,1.27"/>
        <path class="cls-2" d="m171.04,380.6c-.28.35-.04.76-.1,1.14-.13.8-.31,1.51-1.13,1.95-.57.31-.68,1.05-1.03,1.57"/>
        <path class="cls-2" d="m175.19,390.94c-.18-.5.03-.98.06-1.4-1.23-2.19-2.93-3.6-5.46-3.82"/>
        <path class="cls-2" d="m224.53,145.78c-.38,0-.76.03-1.14,0-.95-.08-1.84-.06-2.39.91-.17.3-.49.43-.79.57"/>
        <path class="cls-2" d="m169,337c-.58-.93-1.44-1.25-2.5-1.14"/>
        <path class="cls-2" d="m283.01,389.57c-.63.78-.59,1.7-.57,2.61"/>
        <path class="cls-2" d="m183.19,388.67c-.17-.64-.2-1.3-.44-1.94-.23-.62-.14-1.19.67-1.36"/>
        <path class="cls-2" d="m153.44,380.26c-.72-.12-1.44-.49-2.16,0-1.06-.73-2.42-.41-3.52-1.02-.61-.34-.34-1-.57-1.48"/>
        <path class="cls-2" d="m153.44,370.27c-.73.47-1.71.03-2.38.68"/>
        <path class="cls-2" d="m158.78,343.93c-.33.35-.64.61-.62,1.25.04,1.03-.54,1.96-1.09,2.84"/>
        <path class="cls-2" d="m95.53,274.89c-1.06-.34-2.46.3-3.18,1.48"/>
        <path class="cls-2" d="m299.59,288.51c.01.48-.04.93-.68.91-.72-.03-1.45-.01-2.15-.14-.36-.06-.72-.38-.51-.88.11-.26-.08-.39-.18-.57"/>
        <path class="cls-2" d="m155.83,387.98c-.03-.79.06-1.49.77-2.07.41-.33.43-.99.36-1.56"/>
        <path class="cls-2" d="m77.7,259.33c-.34-.22-.77-.18-1.01.02-.81.68-1.79.66-2.74.78"/>
        <path class="cls-2" d="m170.7,382.99c.51-.03,1.07.13,1.42-.22.18-1.02-.15-1.86-.29-2.73"/>
        <path class="cls-2" d="m155.15,344.27c.18.79-.6,1.59,0,2.38"/>
        <path class="cls-2" d="m146.86,370.72c-.15.79-.11,1.59-.11,2.38"/>
        <path class="cls-2" d="m301.63,113.07c-.79-.6-1.01-1.53-1.33-2.41.37-.17.78-.32,1.22-.09"/>
        <path class="cls-2" d="m205,210.16c-1.6-.73-3.22-.84-4.88-.23"/>
        <path class="cls-2" d="m206.02,209.48c.16-.75.47-1.48.34-2.27"/>
        <path class="cls-2" d="m281.53,113.41c-1.23.42-1.92-.72-2.9-1.02"/>
        <path class="cls-2" d="m271.54,175.19c-.74.02-1.13-.5-1.47-1.03-.21-.33-.4-.62-.81-.67"/>
        <path class="cls-2" d="m280.62,225.26c.09.39.69.6.35,1.14-.44.69.76,1.72-.46,2.27"/>
        <path class="cls-2" d="m274.49,205.28c-1.14-.36-2.19-.93-3.18-1.59"/>
        <path class="cls-2" d="m113.47,284.54c-1.43-.26-2.89.02-4.31-.23-.54-.09-.86.44-1.36.45"/>
        <path class="cls-2" d="m158.89,343.7c.12-1.01-.38-2.14.66-2.98.22-.17-.01-.69-.22-.87-.85-.7-.74-1.52-.44-2.4"/>
        <path class="cls-2" d="m169.34,387.53c-.36-.61-.19-1.28-.23-1.93"/>
        <path class="cls-2" d="m184.78,392.98c-.05-.64.11-1.3-.11-1.93"/>
        <path class="cls-2" d="m99.39,284.42c-.52-.91-1.54-.53-2.28-.9-.6-.3-1.39-.39-.9-1.38"/>
        <path class="cls-2" d="m175.25,336.43c-.2.77-.28,1.43-1.47,1.46-.65.02-1.35.94-2.16,1.27-.45.18-.73.17-1.04-.23-.47-.61-1.39-.87-1.41-1.82"/>
        <path class="cls-2" d="m213.97,141.58c-.86-.2-.77-.92-.65-1.47.11-.53,0-.93-.2-1.37"/>
        <path class="cls-2" d="m164.23,328.14c-.46.7-.31,1.52-.48,2.26-.44,1.9-1.43,2.33-3.27,1.6-.18-.07-.38-.08-.57-.12"/>
        <path class="cls-2" d="m188.42,398.66c-.23-.79-.63-1.57-.02-2.4.12-.17.07-.53-.09-.78"/>
        <path class="cls-2" d="m232.82,138.62c-.18-.64-.1-1.29-.11-1.93"/>
        <path class="cls-2" d="m160.48,374.02c-1.08.94-2.47.92-3.75,1.24-.89.22-1.81.32-2.72.46-.63.1-1.34.31-1.48-.68"/>
        <path class="cls-2" d="m141.97,367.2c-.57.08-1.32.62-1.36-.57"/>
        <path class="cls-2" d="m158.78,341.54c-.57-.47-1.17-.62-1.94-.48-.89.16-1.79-.65-2.72-.08"/>
        <path class="cls-2" d="m172.29,382.53c1.77-.63,1.84-.81,1.31-3.18"/>
        <path class="cls-2" d="m190.23,392.07c-.13.61-.21,1.21,0,1.82"/>
        <path class="cls-2" d="m154.24,378.33c-.52.75-.84,1.51-.23,2.39.3.43.35.9,0,1.36"/>
        <path class="cls-2" d="m305.6,299.87c-.67-.57-1.41-.4-2.16-.23"/>
        <path class="cls-2" d="m169.79,388.78c-.71-.17-1.47-.13-2.16-.15-1.75-.05-2.36-1.04-2.72-2.46"/>
        <path class="cls-2" d="m199.89,394.34c.01-.61-.04-1.22.11-1.82"/>
        <path class="cls-2" d="m223.51,395.25c-.07-.61.19-1.25-.23-1.82"/>
        <path class="cls-2" d="m67.94,258.99c-.74.63-1.98.34-2.51,1.5,1.55,1.21,2.77,2.85,4.2,4.31.88.89,1.73,1.85,2.87,2.33.92.4,1.87.73,2.71,1.29.25.16.59.21.78.09.71-.41,1.37-.13,2.06.02"/>
        <path class="cls-2" d="m197.73,392.75c-1.15-.8-2.46-.69-3.75-.67-.53,0-1.02-.1-1.48-.35"/>
        <path class="cls-2" d="m75.66,279.54c-.57.03-1.2.14-1.02-.79"/>
        <path class="cls-2" d="m236,141.35c-1.03,0-1.9-.4-2.61-1.14"/>
        <path class="cls-2" d="m175.36,343.47c.21-.55.38-1.11.34-1.7"/>
        <path class="cls-2" d="m140.5,365.5c-.13-.67-.22-1.35-.8-1.82-.36-.3-.29-.76-.45-1.14"/>
        <path class="cls-2" d="m152.88,362.32c-1.06-.45-2.12-.91-3.18-1.36"/>
        <path class="cls-2" d="m150.04,378.67c-.07-.57-.76-.92-.57-1.59"/>
        <path class="cls-2" d="m178.88,325.42c-.62-.13-1.2-.11-1.82.09-1.1.36-2.2.01-3.29-.21"/>
        <path class="cls-2" d="m156.85,387.08c-.65.13-1.27-.19-1.93-.13-.51.05-.71-.42-.77-.79-.06-.36-.15-.48-.48-.45"/>
        <path class="cls-2" d="m88.15,280.45c-.41-.45-.96-.33-1.48-.34"/>
        <path class="cls-2" d="m187.96,392.98c0-.49-.05-.99.11-1.48"/>
        <path class="cls-2" d="m225.44,355.4c.15.08.3.15.45.23,1,.53.99.6.36,1.6-.26.4-.64.65-.92,1.01"/>
        <path class="cls-2" d="m152.31,379.81v-2.27"/>
        <path class="cls-2" d="m221.69,392.41c.08-.52-.25-.97-.23-1.48"/>
        <path class="cls-2" d="m175.47,396.16c.42-.42.34-.96.34-1.48"/>
        <path class="cls-2" d="m173.31,392.07c-.41-.09-.71.32-1.14.24-.25-.05-.6.1-.66-.25-.05-.31.31-.36.55-.45"/>
        <path class="cls-2" d="m205,301.8c-.89-1.17-2-1.04-3.18-.57"/>
        <path class="cls-2" d="m120.97,286.01c0-.49-.05-.99.11-1.48"/>
        <path class="cls-2" d="m163.78,382.31c.41.83.22,1.67,0,2.5"/>
        <path class="cls-2" d="m183.42,303.96c1.6.51,2.27.27,2.84-1.02"/>
        <path class="cls-2" d="m169.23,133.17c-.31.45.1.91,0,1.36"/>
        <path class="cls-2" d="m160.03,379.81c-.5-.36-.37-.87-.34-1.36"/>
        <path class="cls-2" d="m156.17,382.08c-.04.37-.4.19-.57.34.1-.22-.42-.25-.13-.58.3-.34.07-.82.13-1.24"/>
        <path class="cls-2" d="m201.59,398.2c-.2-.44-.08-.91-.11-1.36"/>
        <path class="cls-2" d="m219.98,392.87c-.1-.45.37-.95-.11-1.36"/>
        <path class="cls-2" d="m198.18,386.17c-.17.4-.09.87-.34,1.25"/>
        <path class="cls-2" d="m252.8,400.93c.02-.46.03-.93-.4-1.25"/>
        <path class="cls-2" d="m185.92,383.9c-.4.63.06,1.77-1.14,1.93"/>
        <path class="cls-2" d="m189.21,386.74c-.16-.4-.44-.78-.34-1.25"/>
        <path class="cls-2" d="m197.5,397.64c-.39-.24-.86.01-1.4-.32.13.61-.09,1.07-.19,1.57"/>
        <path class="cls-2" d="m178.2,391.85c.24-.44-.25-.82-.11-1.25"/>
        <path class="cls-2" d="m161.96,387.42c-.3.31-.74.52-.79,1.02"/>
        <path class="cls-2" d="m199.89,389.12c-.02-.38.07-.77-.11-1.14"/>
        <path class="cls-2" d="m189.44,395.82c-.13-.36-.18-.66.09-1.04.18-.25.04-.65-.43-.66"/>
        <path class="cls-2" d="m191.37,397.52c-.04-.42-.53-.76-.23-1.25"/>
        <path class="cls-2" d="m187.28,395.48c-.48.25-.12.69-.23,1.02"/>
        <path class="cls-2" d="m202.04,392.98c-.11.38-.23.76,0,1.14"/>
        <path class="cls-2" d="m194.21,391.05v-1.14"/>
        <path class="cls-2" d="m194.66,353.01c-.56.33-.79-.06-1.02-.45"/>
        <path class="cls-2" d="m194.78,393.66c-.28.33-.41.7-.34,1.14"/>
        <path class="cls-2" d="m158.78,374.7v-2.27"/>
        <path class="cls-2" d="m161.28,375.38c-.16.29-.08.74-.57.79"/>
        <path class="cls-2" d="m177.52,380.26c-.17.33-.1.68-.11,1.02"/>
        <path class="cls-2" d="m219.53,397.07c.17-.33.1-.68.11-1.02"/>
        <path class="cls-2" d="m158.21,386.4c-.52.06-.65-.26-.68-.68"/>
        <path class="cls-2" d="m195,398.66c-.01-.34.06-.7-.11-1.02"/>
        <path class="cls-2" d="m67.03,263.19c-.39.37-.72.25-1.02-.11"/>
        <path class="cls-2" d="m299.47,90.93c-.23-.62-.76-.22-1.14-.34"/>
        <path class="cls-2" d="m162.41,381.97c.02-.56-.18-1.2.57-1.48"/>
        <path class="cls-2" d="m169.34,378.67c-.17.33-.1.68-.11,1.02"/>
        <path class="cls-2" d="m169.45,326.78c-.22-.31-.23-.68-.34-1.02"/>
        <path class="cls-2" d="m241.33,389.8c0-.38.01-.76-.45-.91"/>
        <path class="cls-2" d="m170.36,382.53c.02-.44-.49-.54-.57-.91"/>
        <path class="cls-2" d="m160.26,311.22c-.16.29-.11.6-.11.91"/>
        <path class="cls-2" d="m156.62,345.74c.16-.28.28-.57.23-.91"/>
        <path class="cls-2" d="m144.59,364.14c-.03-.31-.68-.2-.45-.68"/>
        <path class="cls-2" d="m144.81,370.04c0-.36-.05-.67-.45-.79"/>
        <path class="cls-2" d="m195,384.58c-.29.1-.6.29-.68-.23"/>
        <path class="cls-2" d="m153.78,383.78c-.26.38-1.14.2-.91,1.02"/>
        <path class="cls-2" d="m197.62,385.83c-.15.3-.3.61-.45.91"/>
        <path class="cls-2" d="m169,329.62c-.21-.27-.51-.23-.79-.23"/>
        <path class="cls-2" d="m67.26,274.89h-.79"/>
        <path class="cls-2" d="m200.45,391.85c-.46-.1-.13-.46-.23-.68"/>
        <path class="cls-2" d="m160.71,380.04c.02.29-.48.33-.34.68"/>
        <path class="cls-2" d="m180.13,386.96c-.11.26-.25.51-.57.57"/>
        <path class="cls-2" d="m159.12,345.52c-.25-.16-.53-.1-.79-.11"/>
        <path class="cls-2" d="m158.44,338.7c-.34.02-.58-.12-.68-.45"/>
        <path class="cls-2" d="m196.25,396.05c-.33-.13-.55-.35-.68-.68"/>
        <path class="cls-2" d="m185.46,393.44c.3-.59-.05-1.02-.34-1.48"/>
        <path class="cls-2" d="m145.61,364.48c-.04.34-.38.38-.57.57.18.15.29.34.34.57"/>
        <path class="cls-2" d="m154.58,382.76c-.27.34-.68.68,0,1.02"/>
        <path class="cls-2" d="m146.29,374.93c-.57.34-1.14.34-1.7,0"/>
        <path class="cls-2" d="m182.17,394.23c-.53-.5-.99-.06-1.48.11"/>
        <path class="cls-2" d="m150.72,378.45c-.54.13-.88.41-.79,1.02"/>
        <path class="cls-2" d="m163.89,379.13c-.37.14-.74.24-1.14.23"/>
        <path class="cls-2" d="m143.79,360.28c.67-.7-.35-1.03-.34-1.59"/>
        <path class="cls-2" d="m144.59,371.41c.34.31-.23.72.11,1.02"/>
        <path class="cls-2" d="m168.2,376.86c.03.36-.14.62-.31.92-.12.21-.12.69.43.44"/>
        <path class="cls-2" d="m206.02,142.48c-.08-.11-.15-.23-.23-.34"/>
      </g>
      <path class="cls-1" d="m278.13,173.18c.63-1.25,1.8-2.15,2.28-3.52.43-1.22.79-2.46.89-3.75.12-1.49-1.15-3.13-2.37-3.4"/>
    </g>
  </g>
</svg>