<svg width="171" height="168" viewBox="0 0 171 168" fill="none" xmlns="http://www.w3.org/2000/svg">
<g opacity="0.4">
<path d="M91.6301 167.05C89.9801 167.05 88.33 167.03 86.68 166.98C76.16 166.7 66.13 165.51 57.68 163.55C54.97 162.92 52.5301 162.24 50.2101 161.47C47.7901 160.67 45.6801 159.83 43.7701 158.91C42.2001 158.16 40.84 157.39 39.62 156.56C38.4 155.73 37.3601 154.87 36.5301 153.98C35.6801 153.09 35.0301 152.16 34.5901 151.23C34.1801 150.37 33.9501 149.49 33.8901 148.61C24.1801 146.26 15.4201 143.63 7.85006 140.78C6.40006 140.24 5.22004 139.52 4.36004 138.64C3.30004 137.56 2.70007 136.24 2.64007 134.82C2.64007 134.82 2.64007 134.8 2.64007 134.79C2.64007 134.79 2.64007 134.78 2.64007 134.77L1.78005 112.02C1.72005 110.47 2.32005 109.02 3.50005 107.78C2.24005 106.51 1.52007 104.9 1.45007 103.22C1.45007 103.22 1.45007 103.21 1.45007 103.2L0.830041 86.8596C0.830041 86.8596 0.830041 86.8296 0.830041 86.8196C0.770041 84.8296 1.51005 82.9097 2.93005 81.3997C4.40005 79.8397 6.37005 79.0296 7.93005 78.4896C8.21005 78.3896 8.51004 78.5396 8.61004 78.8196C8.71004 79.0996 8.56005 79.3996 8.28005 79.4996C6.84005 79.9996 5.02005 80.7396 3.71005 82.1296C2.48005 83.4296 1.83005 85.0897 1.90005 86.8097C1.90005 86.8297 1.90005 86.8396 1.90005 86.8596L2.52004 103.16C2.52004 103.16 2.52004 103.16 2.52004 103.17C2.52004 103.17 2.52004 103.18 2.52004 103.19C2.52004 103.19 2.52004 103.26 2.52004 103.29C2.60004 104.72 3.26006 106.09 4.38006 107.16C5.37006 108.11 6.70006 108.83 8.44006 109.34C21.9001 113.42 38.14 116.92 56.72 119.74C61.75 120.5 66.97 121.22 72.23 121.87C74.82 122.19 77.4101 122.49 80.0101 122.78C82.6001 123.07 85.2 123.34 87.8 123.59C97.88 124.58 108.39 125.37 119.03 125.95C120.55 126.04 122.08 126.05 123.71 125.98C125.29 125.91 126.86 125.77 128.37 125.54C130.87 125.18 134.43 124.44 137.24 122.96C137.3 122.91 137.36 122.88 137.43 122.86L140.38 121.29C140.5 121.23 140.63 121.21 140.76 121.24L140.93 94.1697L140.05 94.6196C139.24 95.0396 138.33 95.1996 137.42 95.0896C137.41 95.0896 137.39 95.0896 137.38 95.0896C136.77 94.9696 136.15 94.8396 135.54 94.6996C135.23 94.6296 134.92 94.5596 134.61 94.4696C134.39 94.4096 134.16 94.3496 133.94 94.2496C133.8 94.1896 133.68 94.1197 133.57 94.0397C133.34 93.8797 133.14 93.6996 132.95 93.4996C130.93 93.9396 128.93 93.9696 127.4 93.9496C125.34 93.9196 123.2 93.7396 121.52 92.6396C121.18 92.4196 120.85 92.1496 120.5 91.8196C116.71 91.3296 112.6 90.7496 107.59 90.0096C105.42 89.6896 103.24 89.3597 101.07 89.0297L94.05 87.9696C92.04 87.6696 90.0301 87.3696 88.0201 87.0696C85.8401 86.7496 83.67 86.4296 81.49 86.1196C76.82 85.4596 72.54 84.8796 68.42 84.3596C65.82 84.0296 63.1801 83.7197 60.5301 83.4097C60.5301 83.4097 60.5301 83.4097 60.5201 83.4097C60.3901 83.3897 60.26 83.3796 60.12 83.3596C59.4 83.2796 58.6701 83.1996 57.9501 83.1196C56.2001 82.9296 54.4601 82.7397 52.7101 82.5597C50.9601 82.3797 49.2101 82.1997 47.4601 82.0297C45.4001 81.8297 43.35 81.6296 41.29 81.4396H41.2701C41.1901 81.4396 41.12 81.4297 41.04 81.4197L36.97 81.0297C33.8 80.7297 30.12 80.3696 26.49 79.9396C26.12 80.0096 25.7401 80.0797 25.3701 80.1396C23.7801 80.3896 22.43 80.4996 21.22 80.4596C19.97 80.4196 18.7101 80.2396 17.0001 79.8496C16.4401 79.7196 15.68 79.5496 15.21 78.9896C15.04 78.7896 14.9201 78.5596 14.8401 78.3396L13.3401 78.8696C13.2501 78.8996 13.15 78.9096 13.05 78.8896C12.88 78.8496 12.7301 78.7297 12.6601 78.5497C12.5901 78.3597 12.64 78.1496 12.77 78.0096C12.82 77.9596 12.8901 77.9096 12.9701 77.8796C13.6501 77.6296 14.1501 76.9796 14.3201 76.1196L14.21 72.9197C14.21 72.9197 14.21 72.8796 14.21 72.8596L14.11 69.8796C14.11 69.8796 14.11 69.8396 14.11 69.8296L13.9401 64.7897C13.9401 64.7897 13.9401 64.7596 13.9401 64.7496L13.7001 57.5196C13.6301 55.4897 13.7301 53.4196 14.0001 51.3696C14.0001 51.3196 14 51.2796 14.02 51.2296C14.39 48.4196 15.0601 45.6596 16.0101 43.1296C16.0101 43.1296 16.0101 43.1296 16.0101 43.1196C16.9201 40.6896 18.0601 38.4996 19.4001 36.6096C20.9301 34.4396 22.7001 32.6997 24.6501 31.4197L33.7101 25.4996C33.7101 25.4996 33.7401 25.4796 33.7501 25.4696L38.7701 22.1896C38.7701 22.1896 38.79 22.1797 38.8 22.1697L41.29 20.5397C44.41 18.4297 48.08 16.4396 52.23 14.5896C52.23 14.5896 52.2401 14.5896 52.2501 14.5896C53.1901 14.1696 54.1601 13.7596 55.1401 13.3596C56.0101 12.9996 56.9001 12.6497 57.8101 12.3097C57.8301 12.3097 57.85 12.2897 57.87 12.2897C59.3 11.7497 60.7701 11.2296 62.2701 10.7296C62.6701 10.5896 63.08 10.4596 63.49 10.3296C63.52 10.3196 63.5401 10.3097 63.5701 10.2997C64.3901 10.0397 65.22 9.77966 66.04 9.52966C67.29 9.14966 68.5501 8.78958 69.8201 8.44958C69.8501 8.44958 69.8701 8.42968 69.9001 8.42968C69.9101 8.42968 69.92 8.42968 69.93 8.42968C72.03 7.85968 74.2001 7.31959 76.4001 6.82959C76.4201 6.82959 76.44 6.81958 76.47 6.81958C76.78 6.74958 77.1 6.67962 77.41 6.60962C79.97 6.04962 82.5701 5.54962 85.1401 5.10962C87.6601 4.67962 90.2601 4.2996 92.8401 3.9696C95.0001 3.6996 97.1701 3.46967 99.3101 3.28967C99.3201 3.28967 99.3301 3.28967 99.3401 3.28967C99.7601 3.24967 100.17 3.21957 100.59 3.18957C101.76 3.09957 102.93 3.01958 104.09 2.94958C104.11 2.94958 104.13 2.94958 104.14 2.94958C106.34 2.81958 108.52 2.73958 110.67 2.69958C110.7 2.69958 110.73 2.69958 110.77 2.69958C114.26 2.63958 117.66 2.69965 120.94 2.88965C120.96 2.88965 120.97 2.88965 120.99 2.88965C121 2.88965 121.01 2.88965 121.02 2.88965C124.13 3.05965 127.13 3.33961 129.99 3.72961C130.01 3.72961 130.04 3.72962 130.06 3.73962C130.61 3.81962 131.16 3.88961 131.7 3.97961C132.14 4.04961 132.58 4.11957 133.01 4.18957H133.03C135.4 4.58957 137.61 5.05962 139.73 5.60962C142.32 6.27962 144.63 7.04957 146.81 7.93957C147.55 8.23957 148.26 8.55965 148.95 8.88965C148.97 8.88965 148.99 8.90967 149 8.91967C150.42 9.59968 151.74 10.3396 152.94 11.1296C152.95 11.1296 152.96 11.1397 152.97 11.1497C153.3 11.3697 153.62 11.5897 153.92 11.8097C155.02 12.6097 155.99 13.4297 156.87 14.3097C157.33 14.7697 157.76 15.2496 158.16 15.7396C158.36 15.9796 158.56 16.2396 158.75 16.4996C158.9 16.6996 159.17 17.0897 159.3 17.2997C159.52 17.6397 159.73 17.9996 159.92 18.3696C160.16 18.8496 160.36 19.3296 160.52 19.8296C160.52 19.8496 160.53 19.8696 160.54 19.8896C160.83 20.8196 160.97 21.7796 160.96 22.7496C160.96 22.9196 160.95 23.0896 160.93 23.2696C160.93 23.2997 160.93 23.3296 160.92 23.3596C160.76 24.6696 160.16 26.0597 159.13 27.5196C158.27 28.7197 157.14 29.9497 155.75 31.1697L154.08 32.6296C154.08 32.6296 154.07 32.6397 154.06 32.6497L145.66 40.0096C145.66 40.0096 145.66 40.0097 145.65 40.0196L141.89 43.3097C141.37 43.7697 140.86 44.2896 140.37 44.8596C140.36 44.8796 140.35 44.8897 140.33 44.8997C139.54 45.8397 138.79 46.9297 138.09 48.1797C138.09 48.1997 138.07 48.2096 138.07 48.2196C137.9 48.5296 137.72 48.8497 137.56 49.1797C137.24 49.7997 136.94 50.4396 136.65 51.1196C136.65 51.1196 136.65 51.1397 136.64 51.1497C136.64 51.1597 136.64 51.1697 136.62 51.1797C136.13 52.3197 135.68 53.5396 135.27 54.8296C135.27 54.8496 135.26 54.8696 135.25 54.8896C135.12 55.2996 135 55.7096 134.88 56.1296C134.48 57.5096 134.15 58.9096 133.86 60.3496C133.86 60.3696 133.86 60.3897 133.85 60.4197C133.66 61.3997 133.49 62.3997 133.35 63.4297C133.3 63.7897 133.26 64.1396 133.21 64.4896C133.21 64.5096 133.21 64.5297 133.21 64.5497C132.97 66.5597 132.84 68.5297 132.83 70.5297C132.83 70.5497 132.83 70.5696 132.83 70.5896C132.83 70.6896 132.83 70.7796 132.83 70.8796L132.78 86.5996C132.78 86.6096 132.78 86.6296 132.78 86.6396V90.3496C132.81 90.4596 132.81 90.5697 132.78 90.6697C132.83 91.3597 133.09 92.0197 133.52 92.5597C133.54 92.5797 133.55 92.5896 133.56 92.6096C133.74 92.8296 133.95 93.0196 134.18 93.1896C134.23 93.2296 134.28 93.2597 134.35 93.2897C134.51 93.3597 134.69 93.4096 134.87 93.4596C135.17 93.5396 135.46 93.6097 135.76 93.6797C136.36 93.8097 136.96 93.9397 137.56 94.0597C138.25 94.1397 138.94 94.0196 139.56 93.6996L140.56 93.1797C140.68 93.1197 140.81 93.1096 140.93 93.1396L141.04 75.2196C141.04 75.2196 141.04 75.2196 141.04 75.2096C141.04 74.1396 141.08 73.0396 141.15 71.9596V71.5096C141.16 69.2796 141.32 66.9996 141.62 64.7396C141.92 62.4196 142.35 60.2396 142.93 58.0796C143.56 55.7196 144.34 53.5697 145.23 51.6697C146.4 49.1897 147.72 47.2796 149.14 45.9996L162.77 33.6996C166.86 30.1096 169.04 26.4096 169.09 22.9996C169.1 22.0796 169.01 21.1697 168.82 20.2897C168.82 20.2597 168.81 20.2296 168.8 20.2096C168.79 20.1796 168.78 20.1396 168.78 20.1096C168.37 18.3496 167.56 16.6696 166.35 15.0896C164.67 12.8796 162.21 10.8797 159.05 9.14966C156.8 7.91966 154.16 6.7996 151.2 5.8396C148.27 4.8796 145.13 4.08967 141.6 3.41967C128.3 0.889675 114.17 1.03961 104.66 1.59961C98.55 1.95961 92.3401 2.60966 86.2101 3.52966C83.1301 3.98966 80.02 4.52964 76.97 5.12964C73.97 5.71964 70.9601 6.38962 68.0201 7.10962C64.8301 7.89962 61.7401 8.75965 58.8401 9.64966C55.8901 10.5597 53.0201 11.5396 50.3201 12.5696C47.0901 13.7896 44.16 15.0497 41.36 16.4097C38.53 17.7897 36.03 19.1797 33.72 20.6597L16.91 31.4496C15.09 32.6096 13.43 34.2897 11.96 36.4297C10.7 38.2797 9.62004 40.4297 8.77004 42.8097C7.98004 44.9997 7.39005 47.3396 7.03005 49.7696C6.67005 52.1396 6.53005 54.5497 6.62005 56.9297L7.27004 74.9297C7.32004 76.4497 8.47006 77.6997 10.0001 77.8997C10.0501 77.8997 10.1 77.9196 10.15 77.9396C10.22 77.9696 10.2901 78.0196 10.3401 78.0796C10.3901 78.1396 10.4201 78.1997 10.4501 78.2697C10.4701 78.3297 10.4801 78.3996 10.4701 78.4596C10.4701 78.5196 10.45 78.5796 10.43 78.6296C10.4 78.6996 10.35 78.7596 10.3 78.8196C10.24 78.8696 10.1701 78.9196 10.0901 78.9396C10.0401 78.9496 9.98007 78.9596 9.92007 78.9596C9.90007 78.9596 9.89005 78.9596 9.87005 78.9596C7.82005 78.6896 6.29006 77.0196 6.22006 74.9796L5.57006 56.9696C5.48006 54.5296 5.63004 52.0596 5.99005 49.6196C6.37005 47.1296 6.97005 44.7196 7.78005 42.4596C8.67005 39.9996 9.78006 37.7696 11.1001 35.8496C12.6401 33.5896 14.41 31.8096 16.35 30.5696L33.17 19.7797C35.51 18.2797 38.05 16.8696 40.92 15.4696C43.74 14.0996 46.7001 12.8296 49.9601 11.5896C52.6901 10.5596 55.58 9.56966 58.55 8.64966C61.47 7.74966 64.58 6.8896 67.79 6.0896C70.75 5.3596 73.77 4.68961 76.79 4.09961C79.85 3.49961 82.9801 2.95962 86.0801 2.48962C92.2501 1.56962 98.4901 0.90968 104.63 0.54968C114.2 -0.0203204 128.42 -0.160355 141.83 2.38965C145.4 3.06965 148.58 3.8696 151.56 4.8396C154.58 5.8296 157.29 6.96961 159.59 8.22961C162.88 10.0296 165.45 12.1296 167.23 14.4496C168.55 16.1796 169.43 18.0196 169.87 19.9396C170.06 20.5096 170.19 21.0996 170.28 21.6896C170.36 22.2596 170.39 22.8297 170.37 23.4097L168.78 128.8C168.78 129.06 168.76 129.32 168.73 129.57C168.66 130.16 168.51 130.74 168.29 131.33C167.44 134.7 164.93 137.83 160.83 140.62C160.82 140.62 160.81 140.64 160.79 140.64L153.77 145.41L153.75 146.95C153.73 149.23 152.54 151.46 150.23 153.6C148.66 155.05 146.58 156.43 144.05 157.73C142.23 158.66 140.24 159.51 137.96 160.34C135.58 161.21 133.06 161.98 130.26 162.7C125.87 163.83 121.05 164.77 115.91 165.48C108.23 166.55 99.9401 167.1 91.6901 167.1L91.6301 167.05ZM34.98 148.88C35.06 149.52 35.25 150.15 35.55 150.79C35.94 151.62 36.53 152.45 37.3 153.26C38.08 154.09 39.07 154.9 40.22 155.69C41.4 156.49 42.71 157.23 44.23 157.96C46.1 158.86 48.17 159.68 50.55 160.47C52.83 161.23 55.24 161.9 57.92 162.52C66.3 164.47 76.2601 165.64 86.7101 165.93C96.5101 166.19 106.54 165.66 115.7 164.39C120.8 163.68 125.59 162.75 129.93 161.63C132.7 160.91 135.19 160.15 137.54 159.3C139.77 158.49 141.72 157.65 143.5 156.75C145.95 155.5 147.95 154.17 149.45 152.79C151.54 150.86 152.61 148.88 152.63 146.91V146.11L141.6 153.61L141.37 153.77C141.37 153.77 141.34 153.79 141.33 153.8L138.42 155.78C135.52 157.75 131.6 158.76 128.82 159.26C125.56 159.84 122.06 160.06 118.68 159.89C98.98 158.92 80.1001 157.03 62.5701 154.27C52.7901 152.73 43.5 150.92 34.98 148.89V148.88ZM118.74 158.82C122.04 158.98 125.46 158.77 128.63 158.21C131.3 157.73 135.07 156.77 137.82 154.9L140.52 153.06L140.71 122.31L137.76 123.88C137.76 123.88 137.74 123.89 137.73 123.89C134.78 125.45 131.08 126.22 128.5 126.6C126.95 126.82 125.34 126.97 123.73 127.04C122.06 127.11 120.5 127.1 118.94 127.01C108.29 126.43 97.76 125.64 87.67 124.65C85.07 124.39 82.47 124.12 79.87 123.84C77.2701 123.55 74.6701 123.25 72.0801 122.93C66.8101 122.28 61.59 121.56 56.54 120.8C37.91 117.97 21.62 114.45 8.11004 110.36C6.56004 109.9 5.30005 109.28 4.28005 108.49C3.52005 109.27 2.77004 110.45 2.83004 111.99L3.69006 134.74C3.69006 134.74 3.69006 134.75 3.69006 134.76C3.69006 134.76 3.69006 134.76 3.69006 134.77C3.74006 135.92 4.23004 137 5.11004 137.89C5.86004 138.65 6.91006 139.29 8.22006 139.78C16.0101 142.71 25.0701 145.41 35.1301 147.81C43.6501 149.84 52.94 151.65 62.73 153.19C80.22 155.95 99.06 157.83 118.73 158.8L118.74 158.82ZM142.34 75.3296L141.85 152.15L152.87 144.66C152.87 144.66 152.9 144.64 152.91 144.63L160.16 139.7C164.04 137.06 166.41 134.14 167.19 131.03C167.19 131.01 167.19 130.99 167.21 130.97C167.21 130.96 167.21 130.95 167.21 130.94C167.21 130.93 167.21 130.91 167.22 130.9C167.22 130.89 167.22 130.88 167.23 130.86C167.42 130.37 167.54 129.9 167.6 129.42C167.63 129.22 167.64 129.02 167.65 128.81C167.65 128.81 167.65 128.79 167.65 128.78C167.65 128.76 167.65 128.75 167.65 128.73L169.17 27.8696C169.09 28.0396 169.01 28.2096 168.92 28.3796C167.81 30.5796 166.02 32.7996 163.61 34.9796L151.31 46.1096C151.31 46.1096 151.3 46.1196 151.29 46.1296C150.84 46.5296 150.46 46.9097 150.03 47.3997C149.61 47.8897 149.21 48.4096 148.82 48.9996C148.15 49.9996 147.54 51.0996 146.95 52.3796C146.44 53.4796 145.98 54.6596 145.52 55.9996C145.12 57.1696 144.69 58.5696 144.36 59.7396C144 61.0096 143.69 62.2897 143.44 63.5397C143.18 64.8097 142.97 66.0996 142.79 67.3896C142.62 68.6996 142.49 70.0097 142.41 71.2797C142.33 72.6297 142.33 73.4196 142.32 74.6096V74.9696C142.37 75.0896 142.36 75.2196 142.32 75.3396L142.34 75.3296ZM121.1 90.9696C121.44 91.2996 121.75 91.5496 122.06 91.7596C123.58 92.7596 125.6 92.8697 127.37 92.8997C129.31 92.9297 130.84 92.8296 132.22 92.5696C131.86 91.9096 131.67 91.1697 131.67 90.4097L131.68 87.2897C127.89 88.0997 123.93 87.4797 120.59 85.5497V89.3796C120.59 89.9496 120.77 90.4996 121.1 90.9696ZM105.21 88.5896C106.04 88.7096 106.87 88.8396 107.7 88.9596C112.33 89.6496 116.2 90.1897 119.75 90.6597C119.72 90.5797 119.7 90.4997 119.67 90.4297C119.67 90.4097 119.65 90.3796 119.65 90.3596C119.57 90.0496 119.52 89.7197 119.52 89.3896V84.6296C119.52 84.6096 119.52 84.5896 119.52 84.5796V78.1697C119.52 78.1697 119.52 78.1296 119.52 78.1096V69.0896C119.52 69.0896 119.52 69.0196 119.52 68.9896C117.3 68.7196 115.09 68.4696 112.87 68.2196L112.44 68.1697C112.34 68.1597 112.25 68.1196 112.18 68.0696C110.67 67.8896 109.2 67.7296 107.83 67.5796C103.63 67.1296 99.8701 66.7896 95.6401 66.4696C95.6301 66.4696 95.62 66.4696 95.61 66.4696C94.43 66.3796 93.31 66.3096 92.24 66.2496C91.33 66.1996 90.4401 66.1596 89.5701 66.1296C87.4301 66.0596 85.4501 66.0496 83.5001 66.0996C79.0101 66.2196 74.8701 66.6996 71.5201 67.4896C71.5201 67.4896 71.5101 67.4896 71.5001 67.4896C71.1001 67.5796 70.7 67.6797 70.3 67.7797C70.29 67.7797 70.2701 67.7797 70.2601 67.7897C65.1501 69.0397 59.76 70.6696 54.66 72.2396L52.3 72.9696C47.58 74.4296 42.6901 75.9396 37.8301 77.2396C37.8201 77.2396 37.8001 77.2396 37.7801 77.2496C37.7601 77.2496 37.74 77.2496 37.73 77.2496C36.79 77.3496 35.87 77.5096 34.93 77.7396C34.92 77.7396 34.9001 77.7396 34.8901 77.7496C34.8901 77.7496 34.8901 77.7496 34.8801 77.7496C34.8001 77.7696 34.71 77.7897 34.62 77.8097C34.62 77.8097 34.61 77.8097 34.6 77.8097L28.7701 79.1296C31.6601 79.4496 34.5101 79.7196 37.0301 79.9696L41.1 80.3596C41.1 80.3596 41.1601 80.3596 41.1901 80.3596C41.2101 80.3596 41.22 80.3596 41.24 80.3596C41.24 80.3596 41.2601 80.3596 41.2701 80.3596C44.4901 80.6696 47.7201 80.9797 50.9401 81.3097C54.0201 81.6197 57.09 81.9497 60.16 82.2997C62.96 82.6197 65.7601 82.9497 68.5101 83.2997C68.5201 83.2997 68.54 83.2997 68.55 83.2997C68.55 83.2997 68.55 83.2997 68.5601 83.2997C71.6101 83.6797 74.6601 84.0896 77.7001 84.4996C79.2201 84.7096 80.7401 84.9196 82.2701 85.1396C83.7901 85.3596 85.3101 85.5797 86.8301 85.7997L95.9501 87.1597C98.9901 87.6197 102.02 88.0697 105.06 88.5197C105.12 88.5197 105.17 88.5496 105.22 88.5696L105.21 88.5896ZM120.59 84.3097C123.88 86.3997 127.89 87.0796 131.69 86.1996L131.71 81.5696C129.81 82.5596 127.65 82.8696 125.53 82.4396C123.61 82.0496 121.9 81.0797 120.6 79.6797V84.3196L120.59 84.3097ZM120.59 77.9796C121.8 79.7496 123.63 80.9597 125.74 81.3997C127.81 81.8197 129.92 81.4496 131.71 80.3496L131.73 75.6996C127.9 76.4496 123.92 75.7296 120.59 73.6996V77.9796ZM15.71 77.6797C15.76 77.9497 15.8501 78.1697 15.9701 78.3097C16.2201 78.5997 16.7501 78.7196 17.1901 78.8196C18.8301 79.1996 20.0301 79.3697 21.2101 79.4097C22.3401 79.4397 23.64 79.3396 25.16 79.0996C25.62 79.0296 26.0701 78.9496 26.5201 78.8496C27.5801 78.4896 28.2601 77.9997 28.6501 77.3097C28.7201 77.1897 28.7701 77.0696 28.8201 76.9396C24.6101 78.7996 19.89 78.9496 15.58 77.3496C15.58 77.3696 15.6 77.3897 15.61 77.4097C15.62 77.4297 15.6301 77.4596 15.6401 77.4796C15.6601 77.5096 15.6801 77.5496 15.6901 77.5796C15.7001 77.6096 15.7101 77.6497 15.7201 77.6797H15.71ZM29.5801 77.8296C29.5701 77.8496 29.56 77.8696 29.55 77.8796L34.37 76.7897C34.47 76.7597 34.58 76.7396 34.68 76.7096C40.54 75.2896 46.4001 73.4997 52.0601 71.7797L52.62 71.6096C58.34 69.8696 64.73 67.9297 70.62 66.5497C70.6301 66.5497 70.65 66.5497 70.66 66.5497C70.68 66.5497 70.7 66.5497 70.72 66.5397C74.15 65.7397 78.1101 65.2496 82.5201 65.0896C88.4401 50.7396 88.71 34.8796 83.3 20.3396C81.79 20.6496 80.3001 20.9796 78.8401 21.3196C77.1301 21.7296 75.44 22.1596 73.8101 22.6196C73.7901 22.6196 73.76 22.6396 73.73 22.6396C73.42 22.7296 73.11 22.8097 72.8 22.8997C71.23 23.3497 69.69 23.8296 68.18 24.3296C68.16 24.3296 68.13 24.3496 68.11 24.3496C67.59 24.5196 67.0801 24.6996 66.5701 24.8796C64.5401 25.5896 62.68 26.3096 60.87 27.0796C58.64 28.0296 56.63 28.9796 54.74 30.0096C54.56 30.1096 54.39 30.1997 54.22 30.2997C54.21 30.2997 54.2 30.3096 54.18 30.3196C52.55 31.2296 51.1201 32.1197 49.8101 33.0497C49.8101 33.0497 49.8 33.0497 49.79 33.0597C49.78 33.0697 49.7601 33.0796 49.7501 33.0896L47.4001 34.7096C47.4001 34.7096 47.3501 34.7496 47.3201 34.7696L45.97 35.6996C45.97 35.6996 45.94 35.7196 45.93 35.7296L43.6401 37.3097C43.6401 37.3097 43.59 37.3496 43.5601 37.3596L37.8301 41.2997C37.8301 41.2997 37.7901 41.3296 37.7701 41.3396L33.42 44.3396C33.42 44.3396 33.4101 44.3396 33.4001 44.3496C33.2801 44.4296 33.1601 44.5396 33.0101 44.6896C32.7801 44.9296 32.5601 45.1996 32.3401 45.5196C32.2301 45.6796 32.1201 45.8497 32.0101 46.0196C32.0101 46.0396 31.99 46.0596 31.98 46.0696C31.81 46.3496 31.64 46.6596 31.48 46.9896C31.35 47.2396 31.2301 47.4996 31.1201 47.7696C31.1201 47.7896 31.11 47.7996 31.1 47.8196C31.01 48.0196 30.93 48.2197 30.85 48.4297V48.4496C30.85 48.4596 30.8501 48.4796 30.8301 48.4896C30.6201 49.0396 30.4401 49.6096 30.2701 50.2196C29.9601 51.3296 29.75 52.4496 29.6 53.6396C29.52 54.2896 29.4701 54.9297 29.4501 55.5497C29.4501 55.5697 29.4501 55.5996 29.4501 55.6196C29.4401 55.8896 29.4401 56.1696 29.4401 56.4396C29.4401 56.4596 29.4401 56.4696 29.4401 56.4896C29.4401 56.6996 29.4401 56.9096 29.4401 57.1096L29.5701 61.5696C29.5701 61.5696 29.5701 61.5796 29.5701 61.5896L29.6501 64.2997C29.6501 64.2997 29.6501 64.3396 29.6501 64.3596L29.9001 72.8596C29.9001 72.8596 29.9001 72.8796 29.9001 72.8896L29.99 76.0096V76.0297C30 76.6597 29.85 77.2796 29.54 77.8296H29.5801ZM15.3701 76.1296C19.7701 77.9496 24.6801 77.7996 28.9601 75.7096L28.9001 73.7596C24.6301 75.9196 19.5601 75.9297 15.2901 73.7897L15.3701 76.1196V76.1296ZM120.6 72.4396C123.87 74.6396 127.89 75.4296 131.74 74.6196V71.1597C129.97 71.3697 127.89 71.4197 125.92 71.3097C124.68 71.2397 123.65 71.1196 122.7 70.9396C122.05 70.8096 121.55 70.6897 121.09 70.5197C120.94 70.4697 120.77 70.3996 120.6 70.3196V72.4396ZM15.2501 72.5696C19.4801 74.9096 24.6401 74.9096 28.8701 72.5796L28.7801 69.5397C24.4901 71.4797 19.72 71.8496 15.18 70.5696L15.2501 72.5696ZM120.6 69.0597C120.6 69.0597 120.64 69.1097 120.71 69.1597C120.92 69.3197 121.23 69.4396 121.45 69.5096C121.86 69.6496 122.31 69.7696 122.91 69.8796C123.82 70.0496 124.8 70.1696 125.99 70.2396C127.95 70.3496 130.02 70.2996 131.77 70.0796C131.8 68.3996 131.9 66.7297 132.08 65.0397C128.32 65.3997 124.47 64.9396 120.89 63.7096C120.69 65.4996 120.6 67.2597 120.6 69.0497V69.0597ZM15.15 69.4496C19.68 70.8096 24.4801 70.4296 28.7501 68.3796L28.66 65.1597C24.34 67.0397 19.45 67.1797 15.02 65.5597L15.15 69.4596V69.4496ZM95.7701 65.4197C100 65.7397 103.76 66.0797 107.96 66.5297C111.51 66.9097 115.8 67.4197 119.55 67.9197C119.59 66.2597 119.71 64.6196 119.91 62.9496C119.91 62.9396 119.91 62.9297 119.91 62.9097C119.96 62.5097 120.01 62.1096 120.07 61.7096C120.44 59.1596 120.98 56.7996 121.69 54.4896C122.17 52.9396 122.82 51.1596 123.69 49.3596C123.7 49.3196 123.72 49.2796 123.74 49.2496C124.62 47.4296 125.73 45.5996 127.09 43.9696C127.1 43.9496 127.11 43.9397 127.13 43.9297C127.77 43.1697 128.47 42.4497 129.24 41.8097L130.71 40.5696C134.26 34.1596 138.87 28.4996 144.42 23.7296C144.01 23.4396 143.54 23.1496 143.02 22.8496C142.04 22.2996 140.96 21.7897 139.7 21.2997C138.64 20.8797 137.51 20.4997 136.27 20.1497C136.25 20.1497 136.24 20.1496 136.22 20.1396C135.94 20.0596 135.66 19.9797 135.38 19.8997C134.62 19.6897 133.83 19.4996 133.03 19.3196C133.01 19.3196 133 19.3197 132.98 19.3097C132.2 19.1397 131.4 18.9696 130.57 18.8196C130.56 18.8196 130.54 18.8196 130.53 18.8196C130.22 18.7596 129.9 18.7097 129.58 18.6497C128.24 18.4197 126.88 18.2297 125.45 18.0597C125.43 18.0597 125.41 18.0597 125.39 18.0597C124.64 17.9697 123.87 17.8896 123.09 17.8196C123.07 17.8196 123.05 17.8196 123.03 17.8196C123.01 17.8196 122.99 17.8196 122.97 17.8196C120.93 17.6296 118.83 17.4997 116.66 17.4297C116.64 17.4297 116.61 17.4297 116.59 17.4297C115.04 17.3797 113.46 17.3596 111.85 17.3696C111.84 17.3696 111.83 17.3696 111.81 17.3696C111.32 17.3696 110.83 17.3696 110.33 17.3896C109.51 17.3996 108.69 17.4196 107.86 17.4496C107.84 17.4496 107.83 17.4496 107.81 17.4496C106.57 17.4896 105.31 17.5496 104.06 17.6296C101.97 17.7596 99.8301 17.9397 97.6901 18.1597C97.1801 18.2097 96.67 18.2696 96.16 18.3296C96.14 18.3296 96.12 18.3296 96.1 18.3296C93.94 18.5796 91.7801 18.8796 89.6301 19.2196C89.6301 19.2196 89.6301 19.2196 89.62 19.2196C88.1301 19.4596 86.64 19.7196 85.16 19.9996C84.9 20.0496 84.6501 20.0997 84.3901 20.1497C89.7801 34.7497 89.54 50.6496 83.72 65.0796C85.56 65.0396 87.45 65.0496 89.49 65.1096C90.41 65.1396 91.3501 65.1796 92.3301 65.2296C93.4201 65.2896 94.5601 65.3596 95.7501 65.4496C95.7601 65.4496 95.7701 65.4496 95.7801 65.4496L95.7701 65.4197ZM16.73 64.9896C20.08 65.9196 23.63 65.8196 26.92 64.6996C23.52 64.4996 20.11 64.5996 16.73 64.9896ZM14.7901 58.5896L14.9801 64.1396C19.4901 63.4796 24.0801 63.3496 28.6301 63.7396L28.5901 62.2296C23.6801 63.2396 18.55 61.8796 14.8 58.5796L14.7901 58.5896ZM121.03 62.6396C124.6 63.8996 128.45 64.3596 132.21 63.9696C132.24 63.7396 132.27 63.5097 132.3 63.2797C132.42 62.3897 132.56 61.5197 132.72 60.6697C129.11 59.7697 125.42 59.0496 121.74 58.5196C121.5 59.6096 121.3 60.7196 121.13 61.8796C121.09 62.1396 121.06 62.3997 121.02 62.6497L121.03 62.6396ZM14.74 57.0896C18.33 60.7196 23.57 62.2597 28.54 61.1697L28.42 57.1296C28.42 57.1296 28.42 57.0797 28.42 57.0497C23.48 57.5597 18.5401 55.9097 14.9201 52.5297C14.7701 54.0497 14.7 55.5796 14.74 57.0896ZM121.98 57.4696C125.65 57.9996 129.32 58.7196 132.92 59.6096C133.19 58.3196 133.5 57.0597 133.85 55.8097C133.92 55.5697 133.99 55.3296 134.06 55.0896C130.33 54.4396 126.53 54.2796 122.76 54.6096C122.74 54.6696 122.72 54.7297 122.7 54.7897C122.43 55.6697 122.18 56.5496 121.96 57.4596L121.98 57.4696ZM17.6201 53.3196C20.7101 55.3996 24.46 56.3696 28.22 55.9996C24.58 55.5496 21.0201 54.6496 17.6201 53.3196ZM15.0901 51.0696C19.3201 53.0896 23.8101 54.3996 28.4501 54.9596C28.4801 54.4796 28.5201 53.9896 28.5801 53.4996C28.6501 52.8896 28.74 52.2996 28.86 51.7096C26.22 52.1196 23.5301 51.6096 21.2101 50.2396C19.1001 48.9896 17.46 47.1297 16.49 44.9097C15.85 46.8697 15.3801 48.9496 15.0901 51.0696ZM126.6 53.3896C129.21 53.3896 131.82 53.6196 134.39 54.0796C134.72 53.0896 135.07 52.1296 135.45 51.2196C131.99 49.8496 128.24 49.4396 124.57 50.0196C124 51.2197 123.53 52.4197 123.14 53.5297C124.29 53.4397 125.45 53.3997 126.6 53.3997V53.3896ZM17.05 43.3496C17.82 45.8696 19.4801 47.9796 21.7501 49.3296C23.9801 50.6496 26.58 51.0896 29.11 50.5996C29.16 50.3796 29.2201 50.1597 29.2801 49.9297C29.4101 49.4597 29.5501 49.0096 29.7001 48.5796C25.3201 46.9296 21.3501 44.5096 17.8901 41.3696C17.5901 42.0096 17.31 42.6696 17.05 43.3596V43.3496ZM127.82 48.6996C130.57 48.6996 133.29 49.2196 135.87 50.2396C136.11 49.6996 136.36 49.1896 136.62 48.6896C136.74 48.4496 136.86 48.2196 136.99 47.9996C134.72 45.3596 131.26 44.1397 127.82 44.7797C126.77 46.0497 125.89 47.4496 125.14 48.8696C126.03 48.7596 126.93 48.6996 127.82 48.6996ZM19.72 41.5497C22.74 44.0697 26.12 46.0596 29.8 47.4796C26.94 44.7296 23.5 42.7097 19.72 41.5497ZM129.64 43.5497C132.63 43.5497 135.48 44.7897 137.54 47.0297C138.09 46.1097 138.67 45.2797 139.28 44.5297C138.3 43.3097 137 42.3696 135.61 41.8696C133.93 41.2596 132.25 41.3096 130.87 42.0096C130.54 42.1796 130.24 42.3796 129.95 42.6196C129.95 42.6196 129.93 42.6296 129.92 42.6396C129.57 42.9396 129.24 43.2496 128.92 43.5696C129.16 43.5496 129.41 43.5497 129.65 43.5497H129.64ZM18.5001 40.1196C23.0201 41.2096 27.13 43.4497 30.49 46.6597C30.52 46.6097 30.5401 46.5596 30.5701 46.5096C30.7101 46.2196 30.8601 45.9496 31.0101 45.6896C30.3101 43.2496 28.7401 41.1896 26.5701 39.8696C24.3901 38.5496 21.84 38.1096 19.36 38.6196C19.06 39.0996 18.7801 39.6096 18.5101 40.1296L18.5001 40.1196ZM21.3801 37.3496C23.3901 37.3496 25.3601 37.8996 27.1201 38.9596C29.2701 40.2696 30.8901 42.2297 31.7601 44.5597C31.9101 44.3697 32.0601 44.1897 32.2101 44.0297C32.6301 41.3797 31.7501 38.6897 29.8401 36.7997C27.9401 34.9097 25.2401 34.0496 22.5901 34.4796C21.7601 35.2996 20.9901 36.2196 20.2601 37.2496C20.2201 37.3096 20.1801 37.3597 20.1401 37.4197C20.5501 37.3697 20.9701 37.3496 21.3801 37.3496ZM133.3 40.3796C134.17 40.3796 135.07 40.5396 135.97 40.8596C137.49 41.4096 138.89 42.4096 139.98 43.6996C140.38 43.2596 140.79 42.8596 141.2 42.4996L142.11 41.6996C141.92 40.2296 141.06 38.9297 139.76 38.1797C138.41 37.3997 136.77 37.3396 135.36 37.9996L132.52 40.4097C132.77 40.3797 133.03 40.3696 133.29 40.3696L133.3 40.3796ZM23.9401 33.3097C26.4101 33.3097 28.8001 34.2797 30.5801 36.0497C32.4501 37.8997 33.44 40.4397 33.36 43.0297C33.81 42.5797 34.15 41.9996 34.35 41.3296C34.7 40.2196 34.6701 38.8797 34.2701 37.5597C33.9001 36.3297 33.23 35.1696 32.35 34.1896C31.43 33.1696 30.33 32.4297 29.18 32.0297C27.88 31.5797 26.5901 31.6196 25.5701 32.1396C25.4501 32.1996 25.34 32.2596 25.23 32.3296C24.77 32.6296 24.3301 32.9497 23.9001 33.2997C23.9201 33.2997 23.9301 33.2997 23.9501 33.2997L23.9401 33.3097ZM35.3801 41.6396C35.3701 41.6696 35.36 41.7096 35.35 41.7396L37.05 40.5696C37.38 38.1196 36.8001 35.6496 35.3901 33.6096C33.9801 31.5596 31.88 30.1296 29.47 29.5696L27.79 30.6697C28.36 30.7097 28.9501 30.8197 29.5301 31.0297C30.8501 31.4897 32.1001 32.3396 33.1401 33.4796C34.1301 34.5696 34.87 35.8796 35.29 37.2496C35.62 38.3296 35.89 39.9596 35.37 41.6396H35.3801ZM137.41 36.4996C138.41 36.4996 139.41 36.7597 140.3 37.2696C141.68 38.0597 142.66 39.3797 143.04 40.8997L144.76 39.3896C144.57 38.0296 143.84 36.8096 142.72 35.9996C141.56 35.1696 140.12 34.8697 138.72 35.1697L137.15 36.5096C137.23 36.5096 137.31 36.5096 137.4 36.5096L137.41 36.4996ZM32.6501 29.6797C34.0801 30.4897 35.3101 31.6196 36.2701 32.9996C37.6501 35.0096 38.3201 37.3797 38.2001 39.7797L38.7101 39.4297C39.2801 36.8197 38.5601 34.0996 36.7501 32.1196C35.6401 30.8996 34.21 30.0597 32.66 29.6797H32.6501ZM31.2701 28.3896C33.6401 28.5396 35.8901 29.6097 37.5301 31.4097C39.3301 33.3797 40.17 35.9996 39.91 38.6096L42.87 36.5696C43.43 34.0296 42.7701 31.3596 41.0901 29.3796C39.3901 27.3796 36.8201 26.3096 34.2001 26.4796L31.2601 28.3997L31.2701 28.3896ZM140.12 33.9896C141.28 34.0496 142.4 34.4396 143.36 35.1296C144.53 35.9696 145.35 37.1896 145.7 38.5696L147.79 36.7396C146.19 34.5096 143.57 33.2497 140.81 33.3997L140.12 33.9896ZM145.3 24.3997C140.53 28.4597 136.47 33.1896 133.18 38.4896L138.14 34.2797C138.14 34.2797 138.16 34.2596 138.17 34.2496L140.26 32.4796H140.27L141.93 31.0696C141.93 31.0696 141.94 31.0597 141.95 31.0497L143.39 29.8196C143.39 29.8196 143.41 29.7997 143.42 29.7997C144.28 29.0497 144.98 28.3096 145.51 27.6096C145.51 27.6096 145.51 27.6096 145.52 27.5996C145.71 27.3496 145.88 27.0996 146.02 26.8596C146.02 26.8396 146.04 26.8297 146.05 26.8097C146.14 26.6597 146.21 26.5096 146.27 26.3696C146.33 26.2396 146.38 26.0996 146.41 25.9496C146.41 25.9196 146.43 25.8696 146.43 25.8196C146.39 25.6596 146.32 25.5397 146.23 25.4097C146.23 25.4097 146.23 25.3996 146.22 25.3896C146.11 25.2296 145.99 25.0797 145.86 24.9297C145.69 24.7397 145.5 24.5596 145.3 24.3896V24.3997ZM142.05 32.3596C144.65 32.5796 147.04 33.9097 148.6 36.0397L150.71 34.1896C148.37 32.4296 145.42 31.6296 142.5 31.9796L142.04 32.3696L142.05 32.3596ZM35.7801 25.4396C38.1401 25.6996 40.3401 26.8397 41.9001 28.6697C43.5701 30.6297 44.3501 33.1896 44.0901 35.7196L45.18 34.9696C45.37 30.2596 43.0601 25.8196 39.0901 23.2696L35.7701 25.4396H35.7801ZM41.4001 23.6896C44.4201 26.3496 46.1901 30.1696 46.2501 34.2296L46.6501 33.9596C47.3101 31.5196 46.8801 28.9396 45.4401 26.8496C44.4301 25.3896 43.0201 24.2996 41.4001 23.6896ZM143.85 30.8296C146.62 30.8296 149.33 31.7596 151.52 33.4696L153.01 32.1597C151.92 30.8997 150.51 30.0096 148.99 29.6296C147.15 29.1696 145.38 29.5196 144.11 30.5996L143.85 30.8196V30.8296ZM40.54 22.3296C42.88 22.8596 44.93 24.2396 46.3101 26.2496C47.7001 28.2696 48.26 30.6996 47.91 33.0896L49.1901 32.2096C49.8901 31.7296 50.4201 30.9996 50.7001 30.1096C51.1901 28.5996 50.97 26.7497 50.1 25.0497C49.34 23.5497 48.1501 22.2997 46.7501 21.5497C45.1601 20.6997 43.51 20.5896 42.22 21.2496C42.1 21.3096 41.9901 21.3696 41.8801 21.4496L40.54 22.3296ZM147.44 28.3796C148.03 28.3796 148.64 28.4596 149.26 28.6096C150.99 29.0396 152.59 30.0496 153.82 31.4696L155.08 30.3596C155.39 30.0896 155.69 29.8097 155.98 29.5397C153.15 27.5797 149.5 27.1296 146.27 28.3596C146.24 28.3996 146.2 28.4496 146.16 28.4896C146.57 28.4096 147 28.3696 147.43 28.3696L147.44 28.3796ZM51.72 30.4396C51.72 30.4396 51.69 30.5296 51.68 30.5696C52.3 30.1896 52.94 29.8097 53.62 29.4297C55.05 27.1597 55.1301 24.2996 53.8301 21.9496C52.5201 19.5896 50.06 18.1097 47.37 18.1697C46.39 18.6897 45.4401 19.2296 44.5301 19.7696C45.4301 19.8396 46.3701 20.1196 47.2701 20.6096C48.8601 21.4596 50.2001 22.8697 51.0601 24.5597C52.0601 26.5097 52.3 28.6497 51.72 30.4297V30.4396ZM150 26.6196C152.39 26.6196 154.76 27.3597 156.74 28.7797C157.18 28.3097 157.59 27.8496 157.94 27.3796C155.09 25.9596 151.85 25.7197 148.86 26.6697C149.24 26.6297 149.62 26.6096 150 26.6096V26.6196ZM49.0901 17.2897C51.4701 17.7697 53.5401 19.2696 54.7601 21.4496C55.9901 23.6596 56.1501 26.2696 55.2501 28.5696C56.1101 28.1196 57.01 27.6796 57.93 27.2496C59.34 25.0896 59.5501 22.3096 58.4601 19.9596C57.3701 17.6096 55.12 15.9697 52.55 15.6497C51.36 16.1797 50.2001 16.7297 49.0901 17.2897ZM54.2001 14.9297C56.4801 15.6497 58.4 17.3096 59.42 19.5096C60.45 21.7396 60.4601 24.3097 59.5101 26.5297C59.8401 26.3897 60.1701 26.2396 60.5001 26.0996C61.2401 25.7896 61.9901 25.4797 62.7501 25.1797C64.6701 23.2197 65.2701 20.3296 64.2701 17.7696C63.2701 15.2097 60.8601 13.4896 58.12 13.3596C57.24 13.6896 56.38 14.0296 55.54 14.3696C55.08 14.5596 54.6301 14.7397 54.1901 14.9297H54.2001ZM152.52 25.0497C154.59 25.0497 156.66 25.5396 158.56 26.5196C159.22 25.5196 159.64 24.5697 159.83 23.6797C155.69 22.9297 151.36 23.7396 147.78 25.9396C149.31 25.3496 150.92 25.0597 152.52 25.0597V25.0497ZM156.81 20.0896C153.16 20.0896 149.64 21.8496 147.47 24.8796C151.2 22.6796 155.67 21.8596 159.94 22.6096C159.94 21.8796 159.84 21.1496 159.64 20.4396C158.7 20.1996 157.75 20.0796 156.81 20.0796V20.0896ZM60.11 12.6296C62.43 13.3296 64.3501 15.0596 65.2601 17.3896C66.1801 19.7496 65.9301 22.3596 64.6501 24.4696C65.1801 24.2696 65.7201 24.0796 66.2701 23.8896C66.7501 23.7196 67.2301 23.5597 67.7101 23.3997C69.2901 21.3897 69.7501 18.7596 68.9401 16.3296C68.1301 13.8996 66.1801 12.0697 63.7101 11.4097C63.3401 11.5297 62.97 11.6497 62.61 11.7697C61.77 12.0497 60.93 12.3396 60.11 12.6296ZM145.98 23.5896C146.21 23.7896 146.43 23.9996 146.63 24.2196C149.47 20.2596 154.44 18.3096 159.2 19.2596C159.14 19.1196 159.07 18.9796 159 18.8496C158.83 18.5096 158.64 18.1896 158.44 17.8896C158.44 17.8896 158.44 17.8896 158.44 17.8796C158.32 17.6896 158.06 17.3196 157.92 17.1396C157.74 16.8996 157.55 16.6597 157.36 16.4297C156.98 15.9697 156.57 15.5096 156.14 15.0796C155.77 14.6996 155.38 14.3396 154.96 13.9796C151.27 16.4396 148.18 19.7496 145.98 23.5996V23.5896ZM142.52 21.3696C142.89 21.5496 143.24 21.7397 143.58 21.9297C144.17 22.2597 144.68 22.5897 145.14 22.9197C147.36 19.0797 150.44 15.7596 154.11 13.2596C153.86 13.0596 153.6 12.8697 153.33 12.6697C153.1 12.4997 152.87 12.3397 152.63 12.1797C148.28 13.9697 144.72 17.2196 142.53 21.3696H142.52ZM65.3901 10.8696C67.5401 11.8496 69.1901 13.6796 69.9601 15.9796C70.7301 18.2996 70.4901 20.7696 69.3401 22.8596C69.9401 22.6696 70.55 22.4797 71.16 22.2997C72.27 18.0197 71.77 13.5396 69.74 9.60962C68.61 9.91962 67.48 10.2396 66.36 10.5796C66.04 10.6796 65.7101 10.7796 65.3901 10.8796V10.8696ZM71.3101 10.4596C72.84 14.0896 73.2001 18.0796 72.3301 21.9396C72.4101 21.9196 72.48 21.8996 72.5601 21.8696C72.8201 21.7996 73.0701 21.7197 73.3301 21.6497C74.5201 19.6097 74.8401 17.1496 74.2101 14.8796C73.7201 13.1296 72.7001 11.5896 71.3101 10.4596ZM71.36 9.16967C73.23 10.4597 74.62 12.3896 75.24 14.5996C75.86 16.8196 75.67 19.1897 74.73 21.2797C75.68 21.0297 76.64 20.7797 77.6 20.5397C78.97 18.6397 79.59 16.3096 79.36 13.9796C79.13 11.6696 78.09 9.53958 76.41 7.94958C74.7 8.33958 73.01 8.74968 71.36 9.17968V9.16967ZM139.1 19.9396C139.45 20.0596 139.79 20.1896 140.12 20.3196C140.63 20.5196 141.1 20.7197 141.56 20.9197C143.75 16.7397 147.26 13.4396 151.54 11.4896C150.68 10.9596 149.76 10.4596 148.78 9.98962C144.7 12.3696 141.37 15.7996 139.09 19.9396H139.1ZM77.6301 7.66967C79.2101 9.36967 80.19 11.5396 80.42 13.8696C80.64 16.0796 80.1701 18.2697 79.0901 20.1797C79.8801 19.9997 80.68 19.8196 81.48 19.6396C83.67 15.6796 83.69 10.8396 81.55 6.85962C80.24 7.10962 78.9401 7.37966 77.6501 7.65967C77.6501 7.65967 77.6501 7.65967 77.6401 7.65967L77.6301 7.66967ZM137.02 19.2596C137.38 19.3696 137.74 19.4796 138.08 19.5896C140.33 15.4196 143.61 11.9396 147.63 9.44958C147.24 9.26958 146.84 9.09968 146.43 8.92968C145.56 8.56968 144.66 8.23967 143.74 7.91967C140.16 10.6897 137.73 14.7896 137.02 19.2596ZM83.04 7.50964C84.66 11.2896 84.5901 15.6296 82.8201 19.3596C83.0301 19.3196 83.2401 19.2696 83.4601 19.2296C85.4801 17.6396 86.51 15.0797 86.16 12.5297C85.88 10.4697 84.73 8.65964 83.05 7.50964H83.04ZM133.77 18.3997C134.43 18.5497 135.06 18.7096 135.69 18.8796C135.79 18.9096 135.89 18.9296 135.99 18.9596C136.73 14.5096 139.07 10.4097 142.53 7.51965C141.56 7.20965 140.54 6.91966 139.48 6.64966C139.17 6.56966 138.86 6.48967 138.55 6.40967C136.22 10.0897 134.61 14.1196 133.76 18.3896L133.77 18.3997ZM83.4501 6.50964C85.4801 7.80964 86.8701 9.94965 87.2101 12.3896C87.5301 14.7396 86.84 17.0896 85.35 18.8696C86.65 18.6296 87.9501 18.3996 89.2501 18.1896C91.8901 14.3896 91.91 9.36968 89.3101 5.54968C87.9701 5.74968 86.6401 5.95968 85.3301 6.17968C84.7001 6.28968 84.0701 6.39964 83.4401 6.50964H83.4501ZM131.37 17.8896C131.84 17.9796 132.29 18.0697 132.74 18.1697C133.59 13.8997 135.18 9.85966 137.47 6.15967C136.19 5.86967 134.86 5.59962 133.48 5.35962C133.38 9.61962 132.67 13.8296 131.37 17.8896ZM90.47 5.37964C92.86 9.22964 92.9301 14.0696 90.6501 17.9696C92.3501 17.7096 94.0601 17.4797 95.7701 17.2797C98.1101 13.2797 97.5301 8.24965 94.3401 4.88965C93.8901 4.93965 93.4401 4.99968 93.0001 5.04968C92.1601 5.14968 91.32 5.26964 90.48 5.37964H90.47ZM126.6 17.1196C127.69 17.2596 128.75 17.4196 129.79 17.5996C129.97 17.6296 130.14 17.6596 130.32 17.6896C131.63 13.6396 132.34 9.42968 132.43 5.16967C132.15 5.11967 131.86 5.07966 131.58 5.02966C131.25 4.97966 130.92 4.92964 130.59 4.87964C130.97 9.34964 129.54 13.7196 126.61 17.1096L126.6 17.1196ZM95.6301 4.73962C98.5201 8.22962 99.08 13.0696 97.0601 17.1296C97.2401 17.1096 97.42 17.0896 97.61 17.0696C98.48 16.9796 99.35 16.8996 100.22 16.8196C102.19 12.8196 101.78 7.99965 99.16 4.38965C97.99 4.48965 96.8101 4.60962 95.6401 4.73962H95.6301ZM124.06 16.8296C124.48 16.8696 124.9 16.9196 125.32 16.9696C128.44 13.6796 129.95 9.25963 129.51 4.74963C127.26 4.44963 124.93 4.21969 122.52 4.05969C124.06 5.61969 125.08 7.61959 125.42 9.82959C125.8 12.2696 125.32 14.7296 124.06 16.8296ZM100.37 4.28967C102.78 7.97967 103.18 12.6796 101.43 16.7196C102.25 16.6496 103.08 16.5997 103.89 16.5497C106.42 12.7797 106.43 7.81967 103.91 4.03967C102.85 4.09967 101.78 4.17964 100.7 4.25964C100.59 4.25964 100.48 4.27967 100.36 4.28967H100.37ZM121.07 16.5696C121.68 16.6096 122.28 16.6596 122.87 16.7196C124.2 14.7396 124.73 12.3596 124.36 9.99963C124.11 8.38963 123.46 6.89965 122.48 5.63965C123.6 9.27965 123.1 13.2996 121.06 16.5696H121.07ZM117.49 16.3696C118.29 16.3996 119.08 16.4396 119.86 16.4896C122.41 12.7996 122.72 7.93958 120.66 3.94958C118.28 3.81958 115.83 3.75964 113.33 3.75964C115.15 4.82964 116.6 6.44957 117.46 8.43957C118.56 10.9996 118.57 13.8396 117.49 16.3796V16.3696ZM106.36 6.81958C107.29 10.0196 106.9 13.5296 105.19 16.4696C105.95 16.4296 106.71 16.3896 107.46 16.3696C108.52 13.1296 108.07 9.63958 106.37 6.81958H106.36ZM105.47 3.95959C108.66 7.19959 109.87 11.9496 108.58 16.3396C109.17 16.3196 109.76 16.3097 110.34 16.2997C110.77 16.2997 111.2 16.2897 111.63 16.2797C113.29 14.5597 114.13 12.2096 113.94 9.81958C113.75 7.40958 112.53 5.21967 110.6 3.78967C108.91 3.81967 107.2 3.87959 105.48 3.95959H105.47ZM113.03 16.2797C114.14 16.2797 115.25 16.2996 116.34 16.3396C117.47 13.9796 117.52 11.2796 116.48 8.86963C115.78 7.25963 114.65 5.9096 113.23 4.9696C114.23 6.3496 114.85 7.99962 114.99 9.73962C115.18 12.1096 114.47 14.4397 113.03 16.2897V16.2797ZM162.2 137.84C162.08 137.84 161.97 137.8 161.88 137.73C161.66 137.54 161.6 137.24 161.79 137.02L161.86 136.93C162.05 136.71 162.39 136.69 162.61 136.88C162.83 137.07 162.85 137.41 162.66 137.63C162.55 137.76 162.37 137.84 162.2 137.84Z" fill="#EAE6E1"/>
<path d="M119.17 127.28C119.17 127.28 119.15 127.28 119.14 127.28C118.95 127.27 118.68 127.17 118.49 126.79C118.36 126.53 118.46 126.21 118.72 126.08C118.97 125.95 119.28 126.04 119.42 126.29C119.6 126.38 119.72 126.58 119.7 126.79C119.68 127.07 119.45 127.29 119.17 127.29V127.28ZM128.14 92.1098C127.44 92.1098 126.74 92.0899 126.05 92.0399C124.81 91.9599 123.78 91.8198 122.81 91.6098C122.16 91.4698 121.66 91.3198 121.2 91.1398C120.92 91.0298 120.52 90.8498 120.2 90.5698C119.89 90.2898 119.73 89.9899 119.73 89.6499C119.73 89.3599 119.97 89.1198 120.26 89.1198C120.55 89.1198 120.79 89.3498 120.79 89.6398C120.79 89.6498 120.82 89.6898 120.9 89.7698C121.1 89.9398 121.39 90.0699 121.6 90.1599C122.01 90.3199 122.45 90.4498 123.04 90.5798C123.96 90.7798 124.93 90.9098 126.12 90.9898C128.26 91.1298 130.53 91.0398 132.36 90.7398C132.65 90.6998 132.92 90.8899 132.97 91.1799C133.02 91.4699 132.82 91.7399 132.53 91.7899C131.22 91.9999 129.69 92.1098 128.14 92.1098ZM85.12 86.9099C84.88 86.9099 84.7001 86.7398 84.6401 86.4898C84.5801 86.1998 84.8001 85.9098 85.0901 85.8498C85.4101 85.7798 85.76 86.0398 85.76 86.3698C85.76 86.6598 85.52 86.8999 85.23 86.8999C85.19 86.8999 85.15 86.9099 85.12 86.9099ZM45.0301 82.0399C44.7901 82.0399 44.57 81.8899 44.5 81.6599C44.42 81.3799 44.5601 81.0898 44.8401 81.0098C44.8501 81.0098 44.8701 81.0098 44.8901 80.9998C45.1701 80.8998 45.4401 81.0598 45.5301 81.3298C45.6301 81.6098 45.45 81.9198 45.17 82.0198C45.12 82.0298 45.0701 82.0399 45.0201 82.0399H45.0301ZM7.58003 80.0499C7.30003 80.0499 7.06003 79.8199 7.05003 79.5399L6.96003 77.0198C6.95003 76.7298 7.18004 76.4798 7.47004 76.4698C7.69004 76.4498 7.88004 76.5798 7.97004 76.7698C8.05004 76.8598 8.10005 76.9798 8.10005 77.0998V77.1298C8.27005 77.1498 8.41003 77.2498 8.49003 77.3898C8.68003 77.4698 8.82003 77.6498 8.83003 77.8698L8.88004 79.2298C8.89004 79.5198 8.67005 79.7599 8.39005 79.7799C8.31005 79.8299 8.21002 79.8698 8.11002 79.8698C8.08002 79.8698 8.06004 79.8698 8.03004 79.8698C7.97004 79.9298 7.90004 79.9798 7.81004 80.0098C7.74004 80.0398 7.67004 80.0598 7.59004 80.0698C7.59004 80.0698 7.58005 80.0698 7.57005 80.0698L7.58003 80.0499ZM11.72 79.3598C11.72 79.3598 11.63 79.3598 11.59 79.3598C11.06 79.3498 10.52 79.2799 9.99003 79.1599C9.70003 79.0899 9.53005 78.8098 9.60005 78.5198C9.67005 78.2298 9.95003 78.0598 10.24 78.1198C10.69 78.2298 11.15 78.2899 11.61 78.2899C12.15 78.2999 12.68 78.2398 13.22 78.1198C13.51 78.0598 13.79 78.2298 13.86 78.5198C13.93 78.8098 13.75 79.0899 13.46 79.1599C12.88 79.2899 12.3 79.3598 11.72 79.3598ZM132.45 79.0599C132.39 79.0599 132.33 79.0599 132.27 79.0299L132.37 78.4998L132.63 78.0299C132.91 78.1299 133.05 78.4298 132.95 78.7098C132.87 78.9298 132.67 79.0599 132.45 79.0599Z" fill="#EAE6E1"/>
</g>
</svg>
