<?xml version="1.0" encoding="UTF-8"?>
<svg id="Layer_1" data-name="Layer 1" xmlns="http://www.w3.org/2000/svg" viewBox="0 0 402.76 470.83">
  <defs>
    <style>
      .cls-1 {
        fill: none;
        stroke: #eae5e1;
        stroke-miterlimit: 10;
      }

      .cls-2 {
        opacity: .14;
      }
    </style>
  </defs>
  <g class="cls-2">
    <path class="cls-1" d="m375.89,415.79c-.42-.02-.75-.32-1.28-.07-.95.47-2,.23-3.03.08-1.21-.18-2.43-.36-3.66-.47-3.25-.29-6.5-.44-9.74-.71-4.3-.36-8.6-.33-12.9-.46-1.65-.05-3.29.01-4.93.02-2.98.01-5.95.2-8.93.13-2.27-.06-4.55-.12-6.81-.28-3.53-.24-7.01.01-10.51.42-1.97.23-3.99.2-5.98.17-3.71-.06-7.42-.1-11.12-.09-2.03,0-4.06-.08-6.09-.08-3.85,0-7.69-.12-11.54-.2-2.45-.05-4.89-.19-7.34-.19-3.43,0-6.87.27-10.3.3-2.9.02-5.81-.05-8.7-.3-2.58-.22-5.17-.28-7.75-.45-3.26-.21-6.51.08-9.76.04-3.37-.04-6.72-.3-10.06-.73-1.09-.14-2.34,0-3.45-.06-1.03-.06-2.13.19-3.15-.19"/>
    <path class="cls-1" d="m143.55,409.4c-.32-2.47.26-4.89.37-7.34.12-2.58-.01-5.18.02-7.77,0-.18-.06-.42-.05-.63.09-6.72.08-13.43.33-20.15.07-1.82-.11-3.64-.02-5.46.12-2.55.34-5.1.28-7.65-.11-4.83.19-9.66-.02-14.49-.17-3.92-.11-7.84-.09-11.76.01-2.48-.07-4.98-.1-7.46-.03-1.94-.08-3.91.15-5.87.18-1.55-.08-3.16.09-4.72.33-2.97.26-5.94.45-8.91.06-.91.03-1.82.05-2.73.09-3.39.15-6.79.23-10.18.05-2.03.02-4.06.03-6.09.02-3.71.12-7.41.19-11.12"/>
    <path class="cls-1" d="m218.51,412.86c-1.3-.06-2.59-.04-3.89.09-.95.1-1.88-.15-2.83-.18-3.71-.1-7.42-.15-11.12-.33-3.81-.18-7.63-.14-11.43-.45-3.4-.28-6.83-.17-10.22-.63-.47-.06-1,.17-1.52.15-3.56-.18-7.13-.37-10.69-.51-3.08-.12-6.16-.09-9.23-.3-2.23-.15-4.47-.38-6.7-.63-1.54-.17-3.02.22-4.52.13-.89-.05-1.85.1-2.61-.59"/>
    <path class="cls-1" d="m376.17,67.62c.52-.02,1.04.3,1.23.86.28.82.36,1.64.17,2.52-.33,1.55-.85,3.08-.39,4.72.16.58-.04,1.25-.02,1.88.07,1.86.29,3.73.3,5.57,0,3.12.36,6.23.39,9.35.03,3.18.19,6.38.03,9.55-.13,2.72-.16,5.46-.32,8.18-.11,2.01.1,4.06-.04,6.08-.15,2.17-.28,4.33-.39,6.5-.06,1.17.09,2.32.18,3.46.07.9.05,1.74-.08,2.63-.11.74.02,1.56.14,2.3.23,1.45.08,2.88.05,4.31-.04,1.71.07,3.45-.18,5.13-.51,3.39-.2,6.79-.38,10.18-.14,2.75-.35,5.51-.34,8.28.01,3.92-.07,7.84-.34,11.75-.18,2.56-.01,5.11-.15,7.66-.18,3.35-.33,6.71-.27,10.07.06,3.08.14,6.17.06,9.24-.05,1.95-.04,3.92-.14,5.88-.11,2.01-.06,4.06,0,6.09.04,1.4,0,2.8-.03,4.2-.02.95-.06,1.89.01,2.84.12,1.75.1,3.5.19,5.25.13,2.53-.32,5.03-.3,7.55.02,1.96.06,3.93-.13,5.87-.21,2.24-.07,4.48-.19,6.72-.09,1.73-.05,3.51-.15,5.24-.25,4.26-.32,8.53-.71,12.79-.09.94-.29,1.87-.32,2.82"/>
    <path class="cls-1" d="m240.78,66.86c3.08-.2,132.31.66,135.4.76"/>
    <path class="cls-1" d="m147.95,67.83c-.19,3.89-.18,7.78.2,11.66,0,0-.02,32.4-.1,33.9-.19,3.53.04,7.07-.1,10.6-.14,3.43.12,6.86.16,10.29.03,2.42.18,4.86.48,7.25.36,2.92.27,5.85.21,8.73-.07,3.5,0,7-.11,10.49-.03.78.08,1.54.07,2.31-.04,2.69-.14,5.39-.17,8.08-.02,1.57-.22,3.16-.15,4.72.13,2.87.26,5.74.12,8.61-.07,1.33.01,2.66.03,3.99.05,4.52.15,9.03.24,13.55l.24,6.52c-.02.67-.16,1.34-.13,1.99.14,3.26.04,6.51.04,9.76,0,2.84-.08,5.67-.16,8.5-.09,3.36-.18,6.71-.28,10.07-.02.73-.06,1.5,0,2.2.2,2.49,0,4.97-.05,7.46-.02,1.19-.05,2.38-.01,3.57.04,1.4-.01,2.8-.03,4.2-.02,1.12-.38,2.21-.2,3.36.17,1.09.11,2.26,0,3.35-.21,1.96-.25,3.93-.25,5.87,0,2.34.06,4.7.09,7.04.06,3.98-.14,7.97-.05,11.96.02.77-.14,1.53-.11,2.31.08,1.75-.05,3.49.06,5.25.1,1.63-.09,3.28-.18,4.93-.17,3.01.19,6.01.08,9.03-.05,1.32-.12,2.66-.06,3.99.19,4.27-.29,8.53-.15,12.8.06,1.75-.16,3.51-.08,5.24.14,3.05.05,6.1.27,9.15.25,3.56.17,7.14.28,10.71.07,2.17-.18,4.35-.05,6.5.13,2.04-.03,4.06,0,6.09.04,2.49.06,4.97.11,7.46.09,3.99.18,7.98.3,11.98.05,1.79-.1,3.57-.03,5.35.15,3.89.1,7.77.06,11.66-.03,2.62-.04,4.51.02,7.14"/>
    <path class="cls-1" d="m323.11,64.65c-2.52-.04-141.34-.75-143.88-.6-5.53.33-11.04,1.3-16.6.73-2.52-.26-5.05-.05-7.56.05-3.19.13-7.69.22-10.88.38"/>
    <path class="cls-1" d="m375.27,415.46c-.31-.84-.06-1.68-.05-2.52,0-1.69.26-3.35.36-5.03.14-2.48.11-4.97.32-7.44.24-2.79.02-5.59.18-8.39.11-1.87.14-3.79-.04-5.66-.18-1.87.12-3.72-.09-5.58-.06-.5.26-1.02.24-1.57-.09-2.06-.08-4.13-.08-6.19,0-1.04-.39-2.08-.3-3.16.21-2.62.46-5.24.75-7.85.02-.14.04-.29,0-.42-.44-1.64.01-3.29-.07-4.94-.06-1.16.13-2.31.21-3.46.12-1.64.32-3.29.11-4.93-.2-1.57.25-3.07.37-4.61.04-.52.12-1.04.14-1.57.05-2.38.32-4.75.11-7.14-.18-2.1-.5-4.2-.45-6.31.05-2-.13-4-.22-5.98-.1-2-.3-4-.37-6-.08-2.34-.04-4.7.2-7.02.27-2.56.25-5.1.19-7.66-.03-1.33.06-2.66.1-3.99"/>
    <path class="cls-1" d="m145.71,117.95c-.4-2.16-.2-4.35-.19-6.51,0-2.14-.1-4.27-.16-6.41-.06-2-.27-3.99-.29-5.99-.02-1.72-.2-3.44-.39-5.15-.04-.36-.05-.71-.04-1.05.06-2.62-.06-5.26.06-7.87.1-2.2-.63-17.57-.5-19.75"/>
    <path class="cls-1" d="m348.99,405.28c.46-.65,1.03-.37,1.58-.16.71.26,1.43.38,1.99-.27.44-.51.86.02,1.27-.07.85-.18,1.68-.03,2.64.11-.16-2.03,1.16-3.95.32-6.29-1.82,1.78-2.41,4.05-3.69,5.85"/>
    <path class="cls-1" d="m145.69,118.58c.36,2.09.07,4.22.23,6.3.22,2.85.12,5.68.07,8.52-.04,2.66-.21,5.31-.31,7.97-.06,1.57-.24,3.16-.17,4.71.06,1.15.02,2.32.2,3.48.18,1.19,0,2.45-.18,3.66-.18,1.21-.12,2.43.08,3.56.51,2.87-.08,5.68-.08,8.51,0,1.65-.02,3.29.08,4.93.13,2.21.06,4.41.09,6.62.04,3.08.04,6.16.07,9.24.02,1.71-.08,3.43-.13,5.14"/>
    <path class="cls-1" d="m381.51,90.63c-.27-1.26-.09-2.54.05-3.77.16-1.4-.02-2.8.11-4.2.07-.83.28-1.66.25-2.51-.12-2.87-.16-5.75-.31-8.61-.07-1.26-.04-2.54-.28-3.79-.06-.32-.05-.63-.17-.96-.58-1.52-.55-1.42-2.19-1.36-.69.02-55.16-.27-55.85-.78"/>
    <path class="cls-1" d="m380.96,91.56c.4,1.14.09,2.31.09,3.47,0,2.87-.51,5.71-.39,8.6.07,1.58-.4,3.2-.48,4.81-.12,2.31-.53,4.59-.43,6.92.04.87-.2,1.73-.23,2.62-.03,1-.16,2.04-.18,3.04-.03,1.4-.09,2.8-.06,4.2"/>
    <path class="cls-1" d="m343.14,396.88c.48.33.5.34.28,1-.33,1.01-.71,2-1.02,3.02-.39,1.29-.92,2.57-.75,3.97"/>
    <path class="cls-1" d="m342.92,397.13c-.55.59-.65,1.38-.87,2.08-.52,1.68-1.27,3.26-1.95,4.87-.27.64-.29,1.15.6,1.16.28,0,.35.22.52.34-.15.99-.29,1.98.01,3.09,2.26-1.63,2.29-4.5,4.04-6.28,1.05.67.46,1.66.59,2.48"/>
    <path class="cls-1" d="m148.54,407.44c1.94.38,3.87.72,5.86.82.81.04,1.63-.2,2.41-.04,2.67.54,5.39.18,8.08.57.93.13,1.96.23,2.92.11,1.03-.13,2.04.78,3.05.01,0,0,61.77.03,62.14-.07,1.3-.36,10.94.59,14.47.83,2.75.19,5.52.17,8.29.25,3.15.09,6.29.24,9.44.33,2.8.07,5.59.21,8.39.34,4.96.24,9.93.43,14.88.77,1.99.14,3.99,0,5.98.08,3.85.14,7.7.1,11.54.18,1.29.03,2.6-.02,3.88-.12,3.47-.27,6.94-.34,10.4-.26,2.65.06,5.28-.09,7.88-.4,4.05-.49,8.06-.08,12.07.19,3.43.23,6.85.55,10.26.92,1.79.19,3.57.09,5.35.13,4.69.09,9.36.57,14.05.71,1.61.05,1.71-.4,1.95-1.84.1-.59-.2-1.12-.17-1.68.19-3,.45-6,.61-9.01.09-1.58.14-3.14.11-4.72-.04-2.41-.04-4.83,0-7.24.01-.81-.46-1.52-.28-2.32.31-1.35.25-2.71.24-4.09-.01-1.68.15-3.35.22-5.03.05-1.12.18-2.24.17-3.35,0-2.1-.09-4.2,0-6.3.03-.77.17-1.52.19-2.3.13-4.93-.07-9.87.04-14.8.05-2.31.01-4.62.18-6.93.07-.9.03-1.81.09-2.73.14-2.27.12-4.54.3-6.81.09-1.11-.1-2.25.03-3.36.23-1.99.16-3.99.23-5.98.1-3.04.14-6.09.03-9.13-.06-1.65.2-3.28.09-4.94-.09-1.36-.25-2.73-.1-4.09.13-1.15.39-2.31.27-3.46-.27-2.49.08-4.97,0-7.45-.08-2.77.13-5.53.34-8.28.11-1.53.25-3.09.1-4.61-.15-1.59-.05-3.15.04-4.73.05-.83.06-1.67-.04-2.53-.1-.87-.41-1.68-.5-2.53-.25-2.44-.14-4.9-.03-7.35.01-.33.09-.67-.18-.95"/>
    <path class="cls-1" d="m376.87,298.04c-.45-1.63,2.66-142.62,2.68-144.27.02-1.96.11-3.92.15-5.87.05-2.07-.29-4.12-.18-6.2.06-1-.04-2.08-.18-3.03-.23-1.54.1-3.03-.09-4.53-.24-1.86.2-3.7.06-5.56-.08-1.04-.02-2.1-.03-3.15"/>
    <path class="cls-1" d="m368.1,405.18c-1.89-.02-3.78-.03-5.67-.06-.29,0-.53.02-.38.41"/>
    <path class="cls-1" d="m339.87,405.02c-.59.4-1.13.79-1.91.29-.45-.29-1.05-.01-1.56.07-.95.15-1.93-.04-2.85.31"/>
    <path class="cls-1" d="m206.36,66.42c-2.87.2-5.74-.02-8.61-.04-2.27-.02-4.55-.12-6.82-.18-.66-.02-1.32-.28-2-.07-.22.07-.38-.07-.41-.32"/>
    <path class="cls-1" d="m361.07,405.2c-.68.89-1.69.89-2.65.96-.76.06-.55-.65-.7-1.06"/>
    <path class="cls-1" d="m240.35,66.95c-3.18.18-6.37.11-9.56.14-2.06.02-4.13-.28-6.18-.32-2.48-.05-4.96-.31-7.45-.33-2.13-.01-4.27.06-6.4-.11"/>
    <path class="cls-1" d="m361.91,405.22c-1.13-.31-2.26-.63-3.45-.51-.64.07-1.27.38-1.89-.06"/>
    <path class="cls-1" d="m187.89,66.12c-2.24-.06-4.48-.13-6.71-.19"/>
    <path class="cls-1" d="m210.14,66.21c-1.22.43-2.45.16-3.67,0"/>
    <path class="cls-1" d="m356.35,404.96c-.09.85-.48,1.57-.9,2.28"/>
    <path class="cls-1" d="m348.78,405.54c-.25.01-.51.09-.73.02-1.33-.43-2.7-.57-4.08-.63"/>
    <path class="cls-1" d="m145.65,191.64l-.06,1.99.36,13.55c-.02.66-.11,1.34-.04,1.99.22,1.99.16,4,.23,5.99.07,1.82.07,3.65.27,5.47l-.26,9.23c-.18.33-.13.7-.13,1.05.04,2.87.16,5.74.07,8.61-.13,4.27-.25,8.53-.36,12.8-.07,2.97.23,5.95.06,8.92-.03.49-.14.98-.14,1.47.02,2.59.2,5.19.05,7.77-.12,2.06-.14,4.13-.23,6.19"/>
    <path class="cls-1" d="m343.33,405.23c-.74,0-1.52-.62-2.21.15"/>
    <path class="cls-1" d="m180.76,65.81c-.68.3-32.11,1.94-32.81,2.02"/>
    <g id="zjU742">
      <g>
        <path class="cls-1" d="m282.33,92.98c-.9-.53-1.9-.62-2.9-.64-4.32-.11-8.62-.81-12.93.72-2.18.78-4.73.47-7.06.93-5.04.98-10.01,2.3-15.01,3.45-5.78,1.32-11.3,3.29-16.57,5.9-5.8,2.87-11.23,6.39-16.63,9.95-2.74,1.81-5.62,3.47-8.01,5.7-4.39,4.08-8.49,8.53-10.13,14.48-1.06,3.85-2,7.84-1.49,11.91.58,4.58,2.75,8.41,6.62,10.91,4.21,2.73,8.56,5.27,13.33,7.02,3.14,1.15,6.33,2.08,9.52,3.03"/>
        <path class="cls-1" d="m292.81,87.9c-5-.24-9.98-.65-14.99-.57-4.78.07-9.56-.3-14.35,0-3.92.25-7.84.44-11.77.65"/>
        <path class="cls-1" d="m274.92,121.99c-.69,1.14-.75,2.48-.91,3.71-.35,2.67-1.89,4.69-3.03,6.97-1.17,2.36-2.76,4.48-3.78,6.89-.78,1.83-1.99,3.39-3.12,4.96-3.27,4.51-7.1,8.54-11.06,12.47-3.03,3.01-6.73,4.77-10.67,6.07-4.41,1.46-9,2.26-13.54,3.19-1.8.37-3.78.31-5.62.51-5.48.58-10.98-.21-16.48.72-3.39.57-6.72,1.04-9.98,2.19-4,1.42-7.69,3.44-11.41,5.41-3.13,1.66-4.78,4.82-6.6,7.71-.54.86-.99,1.79-1.66,2.55-1.87,2.11-2.83,4.66-3.7,7.27"/>
        <path class="cls-1" d="m319.08,353.15c-2.42.17-4.83.36-7.26-.12-1.24-.24-2.57-.05-3.86-.04-4.27.02-8.5-.48-12.74-.94-3.1-.34-6.23-.67-9.35-.62-6.56.1-13.12-.65-19.66-.31-4.73.24-9.47.46-14.19.21-7.58-.41-15.15-.48-22.73-.66-3.38-.08-6.75-.73-10.16-.55-2.96.15-5.88.84-8.87.62-2.21-.17-4.41-.42-6.61-.64"/>
        <path class="cls-1" d="m261.56,409.41c-.17-2.42-.36-4.83.12-7.26.24-1.24.05-2.57.04-3.86-.02-4.27.48-8.5.94-12.74.34-3.1.67-6.23.62-9.35-.1-6.56.65-17.75.31-24.3"/>
        <path class="cls-1" d="m234.26,404.65c0-1.46.04-2.92.11-4.38.41-7.58.48-15.15.66-22.73.08-3.38.73-6.75.55-10.16-.15-2.96-.84-5.88-.62-8.87.17-2.21.42-4.41.64-6.61"/>
        <path class="cls-1" d="m247.13,409.62c-.17-2.42-.36-4.83.12-7.26.24-1.24.05-2.57.04-3.86-.02-4.27.48-8.5.94-12.74.34-3.1.67-6.23.62-9.35-.1-6.56.65-13.12.31-19.66-.17-3.27-.32-6.54-.32-9.81"/>
        <path class="cls-1" d="m197.8,353.63c-.41,7.58-.48,22.58-.66,30.15-.08,3.38-.73,6.75-.55,10.16.15,2.96.84,5.88.62,8.87-.17,2.21-.42,4.41-.64,6.61"/>
        <path class="cls-1" d="m171.91,409.41c-.17-2.42-.36-4.83.12-7.26.24-1.24.05-2.57.04-3.86-.02-4.27.48-8.5.94-12.74.34-3.1.67-6.23.62-9.35-.05-3.63.15-9.14.29-12.76"/>
        <path class="cls-1" d="m220.28,350.96c.17,2.42.36,4.83-.12,7.26-.24,1.24-.05,2.57-.04,3.86.02,4.27-.48,8.5-.94,12.74-.34,3.1-.67,6.23-.62,9.35.1,6.56-.65,13.12-.31,19.66.1,1.86.19,3.71.25,5.57"/>
        <path class="cls-1" d="m282.51,409.41c-.17-2.42-.36-4.83.12-7.26.24-1.24.05-2.57.04-3.86-.02-4.27.48-8.5.94-12.74.34-3.1.67-6.23.62-9.35-.1-6.56.65-13.12.31-19.66"/>
        <path class="cls-1" d="m318.85,409.63c.08-7.37.73-14.75.55-22.19-.15-6.46-.84-12.85-.62-19.37.17-4.82.42-9.63.64-14.44"/>
        <path class="cls-1" d="m305.56,409.41c-.17-2.42-.36-4.83.12-7.26.24-1.24.05-2.57.04-3.86-.02-4.27.48-8.5.94-12.74.34-3.1.67-6.23.62-9.35-.1-6.56.65-18.74.31-25.29"/>
        <path class="cls-1" d="m332.75,366.66c-.09,3.78-.15,13.34-.25,17.12-.08,3.38-.73,6.75-.55,10.16.15,2.96.84,5.88.62,8.87-.17,2.21-.42,4.41-.64,6.61"/>
        <path class="cls-1" d="m265.24,268.04c-.39,5.71-2,11.09-4.34,16.29-2.1,4.66-4.44,9.19-7.14,13.52-2.75,4.41-5.31,8.95-8.51,13.08-4.32,5.58-8.46,11.29-13.67,16.15-6.33,5.9-12.18,12.38-19.58,16.99-4.1,2.56-8.14,5.24-12.13,7.92-5.84,3.92-12.44,5.81-18.78,8.42-1.49.62-31.41,10.33-32.91,10.92"/>
        <path class="cls-1" d="m268.79,269.17c-.8.87-.25,1.89-.11,2.73.79,4.63,3.03,8.68,5.21,12.78,1.12,2.11,1.98,4.38,2.95,6.58,1.7,3.85,3.99,7.37,6.16,10.94,4.97,8.13,10.13,16.14,15.03,24.32,3.07,5.12,7.01,9.67,10.89,14.23,2.74,3.23,5.33,6.59,8.09,9.81,2.06,2.39,4.32,4.6,6.42,6.96,4,4.5,8.64,8.34,12.9,12.57,12.93,12.93,35.44,25.07,36.06,25.45"/>
        <path class="cls-1" d="m166.59,205.49c-2.38,5.03-3.86,10.31-4.91,15.78-.8,4.19-1.82,8.37-2.26,12.6-.36,3.5-.45,7.05.1,10.65.46,2.99.62,6.1.76,9.17.25,5.23,1.05,10.36,2.06,15.49.61,3.13,1.37,6.22,2,9.34.71,3.55,2.62,6.65,3.86,10,1.69,4.55,4.29,8.62,6.8,12.72,1.67,2.73,3.59,5.31,5.47,7.91.94,1.31,1.77,2.69,2.81,3.94.65.77,1.2.94,2.01.9,4.57-.19,9.12-.61,13.7-.7,1.54-.03,3.1-.48,4.83-.62.1-1.67.25-3.56.32-5.44.14-3.89.38-7.75.93-11.61.37-2.62.56-5.28,1.01-7.89.35-1.98.64-3.98.97-5.96.69-4.03,1.31-8.08,2.11-12.09,1.29-6.44,2.73-12.85,5.48-18.85.85-1.86,1.5-3.94,3.52-5.01"/>
        <path class="cls-1" d="m278.62,114.25c1.91,3.23,3.54,6.61,5.17,9.99,1.32,2.74,2.99,5.28,4.48,7.92,3.27,5.77,7,11.24,10.67,16.75.19.29.41.56.64.81,2.89,2.97,5.18,6.52,8.4,9.17,3.12,2.57,6.32,5.04,9.8,7.15,3.25,1.97,6.79,3.21,10.32,4.53,1.88.7,3.61,1.79,5.65,2.1.38.06.79.17,1.13.1,5.09-1.01,10.14-2.11,14.02-5.95.3-.29.64-.6.79-.97.98-2.44,2.75-4.42,3.9-6.76,1.16-2.36,1.61-4.88,2.09-7.42.4-2.14.39-4.3.29-6.45-.36-8.04-2.62-15.35-8.18-21.46-4.03-4.42-8.55-8.17-13.53-11.47-3.11-2.06-6.39-3.76-9.7-5.43"/>
        <path class="cls-1" d="m268.63,185.18c-1.67,4.67-3.15,9.43-5.06,14-1.51,3.62-3.03,7.24-4.66,10.81-2.82,6.16-5.45,12.41-8.61,18.42-2.02,3.85-4.5,7.4-6.54,11.24-2.32,4.38-4.92,8.61-7.43,12.89-2.38,4.06-4.84,8.1-8,11.64-.43.49-3.66,4.61-4.04,5.15"/>
        <path class="cls-1" d="m282.33,125.86c1.45,3.98,2.89,7.96,4.36,11.93,2.03,5.48,3.69,11.07,4.99,16.77,1.32,5.79,2.1,11.67,2.78,17.57.4,3.44.41,6.9.37,10.32-.06,5.86.05,11.75-1.01,17.58-.28,1.52-.22,3.12-.31,4.67-.51,8.84-3.29,16.96-7.47,24.66-5.32,9.79-12.58,17.89-21.24,24.87-4.73,3.81-9.54,7.5-14.56,10.89-5.58,3.77-11.58,6.82-17.89,9.17-2.86,1.07-5.82,1.98-9.01,1.71-1.48-.13-3.01.25-4.51.44-.71.09-.87.68-.97,1.28"/>
        <path class="cls-1" d="m196.73,177.28c1.92,1.18,2.09,3.38,2.87,5.17,1.89,4.36,3.33,8.88,4.41,13.52.55,2.35,1.4,4.62,2.06,6.94,1.1,3.81,2.17,7.62,3.23,11.44,1.68,6.12,3.44,12.22,4.96,18.39.93,3.78,2.09,7.52,2.48,11.43.05.55.41,1.08.62,1.61"/>
        <path class="cls-1" d="m240.74,205.17c.75-.25,1.26-.11,1.97.44,2.38,1.84,5.15,2.41,8.19,2.37,2.39-.03,4.41-.64,5.76-2.51,1.49-2.06,2.53-4.37,2.33-7.07-.05-.76-.37-1.53-.74-1.87-.74-.68-1.14-1.58-1.49-2.35-1.62-3.59-4.81-4.97-8.12-6.26-2.78-1.08-5.28.05-7.54,1.35-2.51,1.44-4.29,6.34-3.36,9.11.65,1.93,1.99,3.59,3.32,5.19.34.41.98.61.98,1.28"/>
        <path class="cls-1" d="m231.39,204.69c.33-2.2-.18-4.33-.67-6.44-.35-1.52-1.14-2.92-1.28-4.52-.05-.55-.36-.99-.93-1.31-1.6-.89-3.09-1.96-4.85-2.57-3.05-1.05-6.13.08-7.57,2.92-2.61,5.15-2.07,10.21.65,15.14.41.74,1.04,1.36,1.42,2.11.9,1.78,2.55,1.9,4.21,2.09,5.66.66,7.48-3.12,9.02-6.94.03-.07-.1-.21-.15-.32"/>
        <path class="cls-1" d="m277.98,115.87c-.43.59-.32,1.27-.32,1.93.03,5.56-.44,11.08-.96,16.6-.67,7.14-1.23,14.3-1.96,21.44-.45,4.41-.75,8.85-1.59,13.22-.91,4.72-1.95,9.42-3.85,13.87-.24.56-.33,1.18-.49,1.77"/>
        <path class="cls-1" d="m190.45,200.34c0,1.16-.73,2.08-1.18,3.04-2.47,5.22-3.95,10.76-5.42,16.31-1.01,3.8-2.06,7.6-2.88,11.45-.7,3.3-1.09,6.66-1.65,9.99-.71,4.27-.66,8.59-.82,12.9-.31,8.62-.23,17.23.85,25.79.67,5.34,1.52,10.65,2.43,15.96.32,1.86,1.04,3.66,1.58,5.49"/>
        <path class="cls-1" d="m164.58,320.91c1.02,5.03,2.53,9.93,4.03,14.83"/>
        <path class="cls-1" d="m291.36,229.67c1.78,3.81,2.4,7.97,3.71,11.93,2.15,6.52,3.76,13.19,5.51,19.82.7,2.65,1.66,5.21,2.26,7.9.73,3.24,1.68,6.43,2.54,9.66-.8.31-1.47.23-2.09,0-4.19-1.57-8.63-2.14-12.92-3.28-4.32-1.16-8.5-2.68-12.72-4.09-2.87-.96-5.7-2.02-8.69-2.65-2.19-.46-4.21-1.53-6.31-2.34-2.95-1.14-5.97-2.09-8.69-3.74"/>
        <path class="cls-1" d="m335.85,208.4c-3.82,2.2-7.56,4.54-11.47,6.56-2.56,1.32-5.4,2.09-8.02,3.3-4.24,1.95-8.46,3.9-12.61,6.06-3.92,2.04-8.04,3.7-12.07,5.53"/>
        <path class="cls-1" d="m199.15,226.45c-.73,1.54-.68,3.22-.77,4.84-.14,2.47-.63,4.87-1.18,7.25-.96,4.09-1.2,8.29-1.91,12.42-1.45,8.38-1.41,16.84-1.47,25.31-.02,3.28-.15,6.56-.32,9.83-.25,4.63-1.01,9.22-.95,13.86"/>
        <path class="cls-1" d="m254.93,198.08c.43-1.3-.03-2.2-.92-3.27-1.91-2.29-4.22-3.62-7.14-3.99-2.8-.35-4.65,1.26-6.08,3.26-1.18,1.65-.4,3.37.57,4.98.65,1.07,1.39,2.08,1.99,3.19,1.04,1.9,3.04,2.41,4.97,2.73,3.28.55,5.36-.65,6.4-3.69.32-.93.15-2.03.2-3.05"/>
        <path class="cls-1" d="m198.19,177.61c2.47-.16,4.94-.31,7.41-.49,2.15-.15,4.3-.5,6.45-.44,3.93.12,7.84-.43,11.77-.24,2.3.11,4.62-.18,6.93-.28.55-.02,1.07.04,1.63.28,1.68.72,3.53.6,5.31.84,5.2.69,10.26,2.03,15.32,3.37,4.88,1.29,9.8,2.4,14.66,3.74,5.86,1.62,11.8,2.98,17.54,4.92,5.92,2,11.98,3.6,17.78,6,3.26,1.35,6.71,2.21,10.01,3.49,3.31,1.28,6.54,2.74,9.79,4.13,4.05,1.73,7.97,3.75,12.1,5.3"/>
        <path class="cls-1" d="m228.01,205.49c-.33-.63.16-1.1.34-1.6.43-1.21.45-2.31.01-3.57-.96-2.74-2.26-5.05-5.19-6.13-2.31-.86-5.63.19-6.16,3.4-.46,2.72-.48,5.27,1.29,7.6.43.57.24,1.47.82,2.09,2.89,3.09,6.7,2.41,8.88-1.62"/>
        <path class="cls-1" d="m250.25,234.99c4.48,1.37,9.03,2.36,13.62,2.98.39-1.49-.77-2.02-1.4-2.26-3.17-1.24-5.97-3.31-9.32-4.11-.97-.23-1.96-.37-2.55.52-.55.82-1.3,1.76-.52,2.88"/>
        <path class="cls-1" d="m226.88,203.72c.05-.48-.02-1.03.18-1.44.71-1.39.13-2.49-.67-3.55-1.08-1.44-2.44-2.59-4.19-3.03-1.46-.37-3.46,1.16-3.5,2.71-.05,2.32-.11,4.57,1.15,6.83,1.01,1.8,2.37,2.39,3.97,2.28,1.68-.11,2.68-1.46,3.07-3.14.04-.16.11-.32.16-.48"/>
        <path class="cls-1" d="m242.68,197.11c1.01,3.11,4.44,5.31,7.74,5.17.91-.04,1.62-.17,1.82-1.29.06-.35.27-.78.46-1.12.62-1.12,1.05-2.33.73-3.55-.21-.81-.94-1.47-1.72-1.95-2.88-1.78-6.26-1.73-8.05.17-.62.65-.67,1.6-.98,2.41"/>
        <path class="cls-1" d="m365.05,332.84v6.77"/>
        <path class="cls-1" d="m365.05,141.5v6.61"/>
        <path class="cls-1" d="m168.45,152.78c-1.29,4.19-2.58,8.38-3.86,12.58-.05.15,0,.32,0,.48"/>
        <path class="cls-1" d="m321.34,104.91c-3.41-1.75-6.87-3.4-10.48-4.66-3.95-1.37-7.97-2.5-12.09-3.23-1.4-.25-2.71-.99-4.19-.82"/>
        <path class="cls-1" d="m272.5,170.19c-3.58,1.71-7.42,2.63-11.29,3.17-5.2.73-10.39,1.5-15.62,2.03-2.91.29-5.81.2-8.71.27-1.51.03-3.03-.08-4.51.33"/>
        <path class="cls-1" d="m217.37,247.08c.71,3.43,1.64,6.81,1.93,10.32.06.71.58.71,1.13.82,3.5.73,7.06,1.15,10.48,2.24"/>
        <path class="cls-1" d="m277.01,111.35c.94,1.13.65,2.64,1.09,3.82.68,1.84,1.23,3.76,2.11,5.54.65,1.32,1.32,2.67,1.48,4.18"/>
        <path class="cls-1" d="m189.8,108.77c-2.79-.21-5.59-.43-8.38-.64"/>
        <path class="cls-1" d="m329.84,250.84c2.69.86,5.5.24,8.22.64"/>
        <path class="cls-1" d="m224.3,269.33c-1.5,2.62-3.99,4.43-5.64,6.93"/>
        <path class="cls-1" d="m187.87,111.35h-8.06"/>
        <path class="cls-1" d="m277.33,114.09c-.66.52-.4,1.26-.49,1.93-.18,1.24-.42,2.47-.63,3.71"/>
        <path class="cls-1" d="m171.1,196.47c-.59,1.59-2.11,2.71-2.26,4.51"/>
        <path class="cls-1" d="m330.97,256.33c-.84.21-1.29-.53-1.93-.81"/>
        <path class="cls-1" d="m321.22,179.76c1.26,3.23,2.53,6.46,3.79,9.7"/>
      </g>
    </g>
  </g>
</svg>