<?xml version="1.0" encoding="UTF-8"?>
<svg id="Layer_1" data-name="Layer 1" xmlns="http://www.w3.org/2000/svg" viewBox="0 0 402.76 470.83">
  <defs>
    <style>
      .cls-1 {
        fill: none;
        stroke: #eae5e1;
        stroke-miterlimit: 10;
      }

      .cls-2 {
        opacity: .14;
      }
    </style>
  </defs>
  <g class="cls-2">
    <g>
      <path class="cls-1" d="m63.99,352.2c-.41-1.02.93-5.34.76-6.42-.2-1.31.33-2.49.51-3.73.24-1.63.54-3.23.38-4.9-.1-1.02.39-2.01.53-3.03.16-1.14.29-2.26.32-3.41.04-1.53.54-3,.8-4.5.6-3.57,1.32-7.13,1.96-10.69.54-3.01,1.11-6.01,1.8-9,.67-2.92,1.16-5.91,1.69-8.87.77-4.31,1.47-8.64,1.9-12.99.24-2.39.7-4.74.87-7.13.25-3.56.62-7.12,1.04-10.67.38-3.13.78-6.28,1.41-9.37.33-1.62.36-3.26.67-4.87.39-2.07.84-4.13,1.22-6.19.34-1.84.68-3.68,1.07-5.5.5-2.35.66-4.76,1.34-7.1.31-1.08.46-2.25.57-3.37.23-2.47.64-4.9,1.01-7.35.48-3.24.65-6.52,1.24-9.73.47-2.59.56-5.27,1.41-7.77,1.12-3.27,1.3-6.67,1.62-10.05.14-1.47-.13-2.98.23-4.45.48-1.95.23-3.97.53-5.9.7-4.51.81-9.11,1.9-13.57.46-1.87.69-3.82,1-5.74.44-2.74.59-5.54,1.26-8.24.49-1.94.45-3.95,1-5.87.77-2.69,1.11-5.48,1.78-8.18.69-2.8,1.07-5.62,1.5-8.45.58-3.84,1.11-7.69,1.76-11.52.69-4.1,1.53-8.17,2.2-12.27.38-2.33.47-4.71,1.11-7,1.06-3.84,1.57-7.77,2.09-11.71.15-1.13.84-2.16.87-3.35.02-.8.42-3.73.24-4.56"/>
      <path class="cls-1" d="m214.25,305.48c-1.44-.84-1.33-2.28-1.09-3.54.28-1.45.14-2.9.29-4.33.35-3.34,1.04-6.64,1.86-9.9.73-2.9,1.3-5.83,1.99-8.73.64-2.69.84-5.44,1.53-8.13.65-2.53,1.04-5.16,1.51-7.75.39-2.15,1.17-4.17,1.82-6.23.74-2.37,1.41-4.74,2.06-7.13.56-2.06,1.28-4.08,1.96-6.11,1.06-3.15,2.09-6.3,3.24-9.42.5-1.35,1.25-2.59,1.75-3.96.93-2.57,2.51-4.86,3.34-7.47.12-.36.26-.69.47-.98,1.5-2.05,2.43-4.5,4.39-6.21,1.09-.95,1.57-2.29,2.23-3.48,1.26-2.24,3.03-4.08,4.46-6.18,1.89-2.79,3.8-5.56,5.65-8.38,1.5-2.29,2.98-4.59,4.44-6.91,1.49-2.35,2.45-4.94,3.58-7.45,1.19-2.64,2.24-5.35,3.27-8.06.81-2.13,1.55-4.31,2.08-6.54.21-.87.53-1.71.82-2.56.87-2.56,1.43-5.19,1.91-7.83.11-.62-.02-1.11-.48-1.68-1.54-1.94-1.5-3.42-.09-5.14.36.06.58.35.87.54,1.34.91,1.28.86.71,2.27-.35.87-.45,1.83-1.19,2.51"/>
      <path class="cls-1" d="m326.83,236.11c-.6.99-.75,2.15-.85,3.24-.22,2.37-.74,4.68-1.24,6.98-1.17,5.38-1.85,10.81-2.53,16.26-.39,3.13-.47,6.32-1.25,9.38-.51,2.02-.77,4.06-1.09,6.09-.13.81-.35,1.6-.63,2.34-.65,1.68-.77,3.44-1.13,5.16-.32,1.54-.46,3.1-.67,4.64-.4,2.9-.81,5.79-1.11,8.71-.4,3.97-.5,8.03-1.98,11.84-.52,1.35-.63,2.83-.91,4.26-.5,2.54-.92,5.1-1.32,7.66-.21,1.36-.47,2.71-.74,4.05-.93,4.71-1.34,9.49-1.89,14.25-.41,3.51-.84,7.07-1.79,10.46-.59,2.12-.77,4.32-1.59,6.42-.87,2.22-.65,4.72-.75,7.12-.11,2.6.32,5.32-1.08,7.82-.41.72-.72,1.7-.67,2.66"/>
      <path class="cls-1" d="m47.17,366.99c.04-.42,4.09-41.99,4.18-42.46.64-3.41,1.33-6.82,1.94-10.24.43-2.45.87-4.9,1.57-7.29.21-.71.33-1.42.41-2.14.14-1.34.17-2.7.84-3.93.6-1.11.5-2.4.75-3.6.33-1.59.77-3.19.78-4.84,0-.85.36-1.65.44-2.48.25-2.58.79-5.11,1.02-7.69.17-1.93.84-3.81.78-5.77-.11-3.42.7-6.73,1.13-10.09.65-5.06,1.44-10.09,2.09-15.15.43-3.32,1.22-6.6,1.85-9.9.04-.19.04-.38.06-.57.35-5.09,1.24-10.11,1.77-15.18.33-3.11,1.22-6.15,1.86-9.22.46-2.2.78-4.43.59-6.7-.04-.51.07-1.05.22-1.58.46-1.58.67-3.2.87-4.84.44-3.7.82-7.43,1.58-11.07.59-2.82.77-5.67,1.29-8.47.3-1.61.74-3.2,1.01-4.83.34-2.09.32-4.18.26-6.28-.05-1.83.06-3.66.11-5.49.05-2.2.03-4.42.38-6.61.59-3.69,1.02-7.39,1.75-11.06.34-1.74.37-3.55.67-5.32.76-4.39,1.49-8.78,1.98-13.21.24-2.15.7-4.28.77-6.46.08-2.44.84-4.79,1.07-7.23.31-3.3,1.05-6.55,1.73-9.8.04-.19.04-.38.06-.57.37-3.4.68-6.81,1.14-10.2.3-2.21,5.2-32.52,5.18-32.71"/>
      <path class="cls-1" d="m213.01,75.62c-.7,2.55-1.44,5.08-1.7,7.74-.3,3.01-1.11,5.93-1.72,8.89-.18.9.31,1.89.14,2.87-.73,4.09-.74,8.25-1.11,12.38-.17,1.82-.56,3.61-.86,5.42-.16.97-.06,1.97-.3,2.95-.87,3.68-.87,7.48-1.35,11.21-.59,4.53-1.05,9.07-1.84,13.56-.48,2.74-.71,5.54-1.46,8.22-.89,3.15-1.26,6.42-2.39,9.51-.38,1.04-.57,2.14-.7,3.25-.35,2.95-1.05,5.85-1.46,8.79-.19,1.35-.5,2.7-.58,4.07-.07,1.35-.48,2.64-.8,3.92-.34,1.35-.61,2.7-.78,4.06-.43,3.59-1.12,7.15-1.67,10.72-.09.61-.28,1.21-.52,1.78-.92,2.17-1.07,4.46-1.13,6.77-.02.79-.21,1.58-.33,2.37-.17,1.09-.1,2.21-.22,3.3-.32,3.1-.52,6.23-1.07,9.29-.58,3.23-.9,6.51-1.83,9.68-.38,1.29-.53,2.62-.7,3.94-.2,1.6-.6,3.15-.82,4.73-.22,1.58-.21,3.18-.46,4.77-.57,3.58-1.16,7.16-2.01,10.68-.45,1.86-.65,3.77-1.11,5.62-.22.9-.36,1.81-.71,2.68-.6,1.51-.52,3.16-.89,4.73-.67,2.89-1.19,5.83-1.6,8.78-.23,1.7-.64,3.36-.64,5.1,0,.9-.1,1.81-.41,2.72-.28.83-.18,1.81-.2,2.72-.05,2.37-.39,4.7-.79,7.03-.28,1.61-.31,3.26-.24,4.9.03.88-.16,1.67-.39,2.49-.6,2.2-.28,4.47-.5,6.71-.31,3.09-.98,6.1-1.59,9.13-.21,1.03-.49,2.08-.36,3.17.2,1.63-.5,3.16-.75,4.73-.17,1.11.04,2.22-.25,3.3-.71,2.63-1.19,5.31-1.76,7.97-.42,1.93-1.18,3.86-1.03,5.84.11,1.42.32,2.93.21,4.27-.16,1.92.19,3.9-.54,5.79-.71,1.83-.64,3.83-.95,5.74-.35,2.15-.23,4.33-.61,6.47-.23,1.31-.87,1.93-2.14,1.96-2.52.07-5-.41-7.5-.62-.18-.02-.38-.1-.31-.37"/>
      <path class="cls-1" d="m329.8,217.5c.31.18.67.19,1.01.21,2.15.14,3.5,1.58,4.86,3,.18.19.09.4.05.58-.71,2.82-1.25,5.67-1.66,8.54-.2,1.36-.56,2.74-1.09,4.01-.66,1.6-2.44,1.77-3.78,2.47-.57.3-1.26.03-1.92-.23-.53-.21-.58-.46-.47-.89.68-2.59.3-5.32,1.07-7.93.44-1.47-.06-3.15.43-4.64.37-1.13.41-2.26.52-3.39.09-.94.79-1.61.97-2.54.43-2.21,1.16-4.38,1.28-6.64.14-2.4.92-4.66,1.45-6.96.48-2.05.6-4.17,1.25-6.19.66-2.05.82-4.19,1.09-6.31.34-2.72.94-5.42,1.09-8.14.22-3.98,1.23-7.82,1.83-11.74.35-2.29.86-4.58,1.36-6.85.84-3.77,1.52-7.55,2.02-11.38.46-3.55,1.21-7.07,1.93-10.58.48-2.36.69-4.76,1.19-7.1.83-3.89,1.02-7.86,1.72-11.76.41-2.29.88-4.57,1.28-6.86.17-.96.07-1.98.22-2.95.68-4.36,1.29-8.74,2.03-13.1.56-3.29,1.36-6.51,2.08-9.76.65-2.96.86-5.96,1.33-8.92.58-3.62.83-7.31,2.15-10.8.2-.53.21-1.13.5-1.68.19-.36-.62-1.01-1.13-1.02-2.52-.03-5.06,0-7.57.13-2.65.12-5.33-.06-7.95.43-3.58.67-7.21,1.07-10.82,1.5-4.14.49-8.33.48-12.51.36-2.36-.06-4.75,0-7.13.1-1.97.08-3.98-.19-5.94,0-2.66.25-5.33.59-7.99.71-1.94.09-3.9.15-5.85.2-2.11.05-4.23.1-6.35.36-1.6.2-3.23.31-4.84.33-2.5.03-4.99.31-7.48.48-2,.13-4.01.33-6.02.47-3.52.23-7.05.24-10.57.37-4.3.17-8.59.34-12.89.57-2.95.16-5.9.06-8.84.19-2.07.09-4.15.12-6.22.3-.49.04-.82-.22-1.24-.27"/>
      <path class="cls-1" d="m299.32,349.25c1.15-.67.78-2.02,1.32-2.96,1.15-2.01.88-4.37,1.63-6.49,1.05-2.96,1.35-6.02.99-9.19-.14-1.25.29-2.56.44-3.84.47-3.91,1.62-7.69,2.26-11.57.55-3.31.84-6.66,1.6-9.93.47-2.02.81-4.06,1.39-6.05.16-.53.19-1.06.24-1.59.37-3.62.97-7.18,1.93-10.7.32-1.19.51-2.46.63-3.71.33-3.27.7-6.53,1.64-9.7.12-.39.14-.83.13-1.25-.13-3.73.8-7.34,1.37-10.98.64-4.03.87-8.09,1.35-12.13.35-2.9.94-5.74,1.76-8.54.64-2.2.79-4.52,1.36-6.74,1.14-4.45,1.43-9.02,2.08-13.54.35-2.45.81-4.92,1.67-7.29.75-2.07,1.13-4.26.73-6.44-.21-1.17.08-2.17.48-3.17.67-1.66.95-3.41,1.3-5.15.62-3.11.98-6.26,1.69-9.35.3-1.29.53-2.6.48-3.97-.03-.73.44-1.53.52-2.35.19-2.12.35-4.24.57-6.36.33-3.23,1.35-6.35,1.43-9.6.07-2.75.49-5.46.87-8.16.57-4.03.81-8.11,1.64-12.1.58-2.77,1.17-5.55,1.9-8.3.28-1.06.27-2.18.56-3.27.53-2,.78-4.08,1.5-6.05.27-.73.35-1.57.46-2.35.24-1.83.94-3.56,1.12-5.39.18-1.83.77-3.57.94-5.41.17-1.85.64-3.71,1.21-5.49.51-1.57.57-3.18.71-4.75.27-3.22.55-6.44.93-9.65.31-2.61,1.19-5.14,1.55-7.75.01-.08.12-.14.13-.22.04-2.79,1.07-5.46,1.05-8.26,0-.33.27-.66.09-1.02"/>
      <path class="cls-1" d="m355.62,69.13c.65.04,1.03.53,1.38.95,2.15,2.55,4.4,5.01,6.6,7.52,3.19,3.64,6.51,7.17,9.6,10.9,2.46,2.96,5.26,5.62,7.77,8.54,2.32,2.7,4.85,5.21,7.37,7.72.87.87,1.38,2.01,2.34,2.77-.19,2.02-1.06,3.86-1.51,5.81-.54,2.35-1.03,4.71-1.51,7.07-.54,2.62-.91,5.26-1.34,7.89-.49,3.05-1.11,6.09-1.81,9.1-.54,2.3-1.31,4.55-1.94,6.82-.43,1.54-.74,3.13-1.21,4.68-.64,2.1-1.11,4.26-1.83,6.34-.24.68-.43,1.33-.48,2.03-.19,2.62-.87,5.13-1.55,7.64-.09.33-.08.68-.11,1.02-.27,4-1.04,7.93-1.7,11.86-.39,2.33-1.08,4.63-1.15,6.99-.05,1.85-.42,3.63-.71,5.43-.43,2.6-.97,5.18-1.56,7.75-.3,1.31-.3,2.65-.68,3.95-.77,2.68-1.13,5.44-1.3,8.23-.08,1.26-.14,2.51-.2,3.76-.11,2.5-.25,5.02-.81,7.48-.29,1.27-.2,2.59-.69,3.83-.99,2.53-.81,5.27-1.27,7.89-.7,4.09-1.12,8.22-1.76,12.32-.36,2.27-.84,4.51-1.43,6.74-.42,1.58-.59,3.22-.85,4.84-.33,2.07-.57,4.16-1.08,6.2-.14.56-.25,1.12-.27,1.69-.09,2.56-.89,5.02-1,7.58-.03.64-.35,1.26-.5,1.9-.24,1-.37,2.02-.44,3.05-.19,2.51-.87,4.95-1.29,7.43-.45,2.63-.73,5.28-1.07,7.92-.27,2.17-.7,4.29-1.09,6.43-.3,1.64-.37,3.32-.75,4.97-.83,3.53-.96,7.18-1.7,10.71-.77,3.63-1.38,7.28-2.13,10.91-.55,2.65-.58,5.37-.93,8.04-.46,3.43-.73,6.9-1.48,10.28-.68,3.08-1.5,6.12-2.25,9.18-.08.33-.07.68-.11,1.02-.48,5.12-1.16,10.21-2.17,15.26-.59,2.95-.9,5.96-1.59,8.89-.39,1.64-.64,3.3-.91,4.96-.37,2.27-1.02,4.48-1.5,6.72-.43,2.03-1.05,4.02-1.48,6.05-.42,1.97-.68,3.98-1.08,5.96-.16.82-.65,1.26-1.6,1.5-2.47.63-4.82-.07-7.2-.34-1.59-.18-3.18-.55-4.77-.39-1.85.18-3.68-.01-5.49-.16-2.43-.2-4.86-.2-7.29-.42-3.08-.28-6.17-.19-9.26-.26-1.82-.04-3.65-.17-5.47-.3-4.78-.35-9.56-.69-14.34-1.01-1.93-.13-3.92-.23-5.86.18-.25.05-.48.18-.68-.07,0,0-47.51-1.72-47.84-1.7-2.16.14-4.24-.45-6.36-.65-.11-.01-12.29-.82-12.4-.87"/>
      <path class="cls-1" d="m96.85,73.02c-.92,2.19-1.6,4.4-1.63,6.83-.02,1.54-.01,3.11-.39,4.66-.32,1.33-.04,2.74-.21,4.1-.46,3.74-.97,7.47-1.66,11.18-.22,1.2-.16,2.43-.27,3.64-.37,4.25-.8,8.49-1.71,12.66-.67,3.1-1.26,6.23-1.92,9.34-.55,2.57-1.33,5.17-1.27,7.89.04,1.75-.57,3.46-.89,5.17-.39,2.06-.54,4.16-.95,6.22-.82,4.1-1.46,8.24-1.74,12.43-.08,1.18-.09,2.35-.19,3.53-.51,5.99-1.53,11.89-3.17,17.67-.11.38-.15.75-.2,1.13-.41,3.7-.45,7.47-1.38,11.09-.8,3.13-1.16,6.31-1.74,9.47-.45,2.46-.77,4.96-1.07,7.45-.43,3.55-.91,7.1-1.37,10.64-.49,3.87-1.41,7.72-1.27,11.68.04,1.16-.04,2.34-.27,3.52-.3,1.52-.13,3.14-.43,4.65-.7,3.56-1.02,7.16-1.33,10.76-.15,1.7-.03,3.43-.3,5.13-.45,2.78-.71,5.59-.91,8.39-.27,3.8-.64,7.62-1.55,11.29-1.03,4.15-1.5,8.34-1.8,12.55-.16,2.26-.98,4.33-1.34,6.52-.24,1.43-.77,2.75-1.11,4.13-.07.29-.17.64-.08.9.31.87.12,1.72-.17,2.51-.68,1.82-.64,3.77-1.02,5.64-.22,1.07-.08,2.27-.31,3.4-.73,3.56-1.3,7.15-2.27,10.67-.45,1.64-.5,3.38-.77,5.07-.26,1.62-.78,3.2-1.06,4.82-.19,1.1-.36,2.18-.3,3.29.08,1.49-3.4,24.73-3.54,26.21"/>
      <path class="cls-1" d="m343.69,78.61c.08-.64-.43-.52-.75-.52-3.43,0-6.84-.68-10.27-.41-2.61.2-5.23-.02-7.8.18-4.05.32-8.15.24-12.16,1.14-1.52.34-3.08.21-4.62.34-3.07.25-6.15.33-9.22.58-1.44.12-2.9.07-4.36.04-2.27-.04-4.53.17-6.78.3-2.84.16-5.69.44-8.53.48-2.86.03-5.72.13-8.59.03-2.78-.09-5.57-.11-8.35-.17-3.63-.09-7.26-.14-10.88-.03-3.17.1-6.33.5-9.49.82-2.17.22-4.36.5-6.56.43-.48-.02-.88.16-1.29.34"/>
      <path class="cls-1" d="m220.27,97.42c-.85-.93-.39-2.02-.25-3,.36-2.53.6-5.06.74-7.61.1-1.83.35-3.63.82-5.42.45-1.71.67-3.49.43-5.32-2.88-.57-5.8-.84-8.75-.58-.45.04-.72-.26-1.12-.32-.81-.13-1.61.02-2.41.02-3.59,0-7.09-.91-10.67-1.05-3.23-.13-6.48-.15-9.7-.42-1.85-.15-3.71-.36-5.55-.63-2.97-.44-5.94-.93-8.96-.99-.84-.02-1.68-.05-2.5-.15-2.73-.32-5.47-.13-8.21-.37-3.78-.33-7.56-.82-11.36-.98-2.35-.1-4.67-.66-7.02-.87-3.22-.3-6.45-.43-9.68-.63-.3-.02-.61-.06-.91-.09-6.05-.59-12.11-1.17-18.18-1.59-3.07-.21-6.11-.79-9.16-1.21-.89-.12-17.67-2.38-18.54-2.15"/>
      <path class="cls-1" d="m266.77,251.4c.55-.6.42-1.43.61-2.13.71-2.59,1.3-5.21,1.93-7.83.44-1.82.82-3.66,1.29-5.48.8-3.09,1.52-6.2,2.34-9.29.89-3.38,2.04-6.68,3.01-10.02.47-1.62.86-3.31,1.06-5.04.46-3.97.47-7.98,1.05-11.93.88-6.05.51-12.16,1.12-18.22.35-3.43.17-6.93.56-10.37.47-4.19,1.44-8.33,1.66-12.56.01-.27.25-.49.19-.78"/>
      <path class="cls-1" d="m274.41,118.9c-1.56-.24-3.12-.08-4.69-.1-.59,0-.96,0-1.23-.69-.3-.77-1.14-1.2-1.73-1.8-3.22-3.29-6.56-6.45-9.94-9.58-3.5-3.25-6.69-6.81-10.03-10.23-2.58-2.64-5.16-5.28-7.67-8-1.77-1.92-3.55-3.83-5.01-6-.35-.52-.7-.57-1.23-.46-.69.13-.41.59-.45,1-.34,3.67-.65,7.35-1.09,11.01-.38,3.09-.63,6.22-1.18,9.28-.52,2.89-.48,5.86-1.44,8.7-.39,1.16-.39,2.47-.6,3.71-.34,2.05-.81,4.05-1.29,6.06-.21.88-.38,1.79-.52,2.69-.29,1.82-.54,3.65-1.22,5.38-.04.1-.03.23-.04.34-.28,3.65-.98,7.24-1.55,10.85-.47,2.97-.93,5.94-1.35,8.92-.22,1.52-.14,3.14-.53,4.51-.48,1.68-.52,3.44-1.15,5.07-.26.67-.23,1.44-.3,2.14-.15,1.75-.7,3.44-.79,5.19-.07,1.35-.41,2.64-.81,3.94-.18.6-.14,1.29-.09,1.93.13,1.55-.33,3.03-.49,4.54-.18,1.7-.07,3.44-.58,5.1-.33,1.07-.24,2.2-.54,3.27-.26.96.02,1.95-.14,2.97-.48,3.04-.76,6.11-1.05,9.17-.15,1.55-.05,3.12-.25,4.67-.23,1.81-.54,3.61-.79,5.42-.43,3.13-1.01,6.25-1.59,9.35-.34,1.81-1.04,3.54-1.32,5.37-.42,2.75-1.22,5.44-1.51,8.22-.07.68-.2,1.37-.43,2.02-.78,2.19-.76,4.52-1.18,6.76-.62,3.3-.87,6.64-1.34,9.96-.45,3.22-1.31,6.35-1.81,9.56-.42,2.68-1.11,5.32-1.67,7.97-.68,3.21-1.07,6.45-1.45,9.71-.31,2.68-1.11,5.31-1.39,8-.24,2.27-.99,4.44-.8,6.81.13,1.57-.23,3.26-.54,4.86-.32,1.65-.79,3.28-.88,4.96-.07,1.46-.78,2.73-.91,4.15-.22,2.4-.71,4.77-1.3,7.08-.93,3.68-1.28,7.45-2.02,11.15-.51,2.52-.36,5.09-.91,7.6-.69,3.17-1.48,6.33-1.6,9.58-.06,1.59-.64,3.2-.07,4.81.08.22-.03.49-.18.66-1.31,1.49-1,3.31-1.06,5.06"/>
      <path class="cls-1" d="m289.85,224.92c.11,1.21.18,2.41.48,3.59.52,2.05.44,4.14.45,6.23,0,1.38.12,2.75.04,4.13-.1,1.69-.54,3.32-.96,4.95-.58,2.22-.71,4.52-1.21,6.76-.21.94-.53,1.85-.78,2.78-.86,3.18-.97,6.49-1.72,9.69-.6,2.56-1.07,5.15-1.5,7.76-.44,2.66-1.03,5.29-2.05,7.84-.59,1.47-1.12,3.05-1.2,4.68-.16,3.45-1.1,6.67-2.7,9.7-.56,1.07-.6,2.24-.85,3.36-.43,1.84-.91,3.67-1.53,5.45-.27.78-.38,1.58-.61,2.36-.63,2.12-.59,4.37-1.12,6.53-.41,1.66-.93,3.27-1.43,4.9-.51,1.66-.69,3.41-1.39,5.02-1.02,2.32-1.67,4.75-2.08,7.24-.21,1.27-.3,2.57-.49,3.85-.21,1.37-.59,2.7-.83,4.05-.24,1.38-.48,2.78-.66,4.17-.42,3.19-1.72,6.2-1.9,9.44-.07,1.25-.97,2.27-1.2,3.54-.15.84-.29,1.75-.64,2.58"/>
      <path class="cls-1" d="m288.88,157.1c-.41,4.28-1.08,8.53-1.65,12.79-.21,1.56-.25,3.19-.27,4.78-.01.92-.15,1.82-.2,2.73-.14,2.89-.54,5.76-.69,8.64-.16,3-.4,6-.54,9-.13,2.78-.21,5.56-.24,8.33-.01,1.68.54,3.34.82,5.02.26,1.57.43,3.16.56,4.75.05.56.32,1.01.44,1.53"/>
      <path class="cls-1" d="m132.22,132.87c.61,1.07-.17,2.13.01,3.21.46,2.66.25,5.41,1.16,8.02,1.53,4.4,4.12,7.89,8.3,10.1.64.34,1.34.49,2.01.62,3.93.76,7.9.87,11.87.36.89-.11,1.79-.48,2.6-.89.79-.4,1.6-.79,2.42-1.1,1.51-.57,2.83-1.36,3.93-2.59,2.4-2.69,4.81-5.33,5.82-8.95.3-1.09,1.07-2.03,1.21-3.21.31-2.67-.21-5.25-.98-7.77-1.19-3.87-3.46-7.11-6.64-9.55-2.57-1.97-5.69-2.79-8.97-2.89-1.25-.04-2.51-.29-3.75-.22-2.81.16-5.52.78-8.01,2.17-1.44.8-3.18,1.03-4.36,2.32-.9.98-1.98,1.74-3.01,2.56-.73.59-1.27,1.33-1.68,2.14-.36.72-.72,1.41-1.21,2.08-.52.7-.92,1.6-.62,2.54.34,1.06-.72,1.17-1.1,1.73"/>
      <path class="cls-1" d="m216.36,116.17c-1.11.85-1,2.17-1.22,3.32-.52,2.7-1.51,5.32-1.66,8.08-.07,1.37-.63,2.85.52,4.01-.82,2.14-1.5,4.41-1.18,6.55.42,2.86-.64,5.39-.93,8.07-.06.56-.17,1.13-.24,1.7-.11.8,0,1.66-.79,2.22-.15.11-.26.35-.28.54-.39,3.38-1.45,6.63-1.84,10.02-.26,2.19-.49,4.41-1.23,6.54-.27.79-.46,1.7-.52,2.57-.16,2.1-.63,4.14-.95,6.21-.14.9-.1,1.82-.17,2.73-.22,2.94-.87,5.8-1.51,8.68-.66,2.97-1.06,6-1.61,9-.71,3.9-1.09,7.85-1.94,11.73-.41,1.86-.46,3.77-.69,5.66-.36,2.95-1.1,5.85-1.38,8.8-.2,2.05-.84,3.96-1.23,5.95-.19.97.35,1.9-.03,2.87-.6,1.52-.46,3.16-.71,4.74-.86,5.45-1.35,10.95-2.37,16.38-.45,2.42-.36,4.94-.7,7.37-.39,2.83-.86,5.66-1.64,8.44-.46,1.63-.6,3.37-.88,5.06-.71,4.24-1.32,8.5-1.96,12.75-.02.15.04.31.06.46"/>
      <path class="cls-1" d="m188.11,303.26c.87-.8,1.18-1.88,1.3-2.97.28-2.63,1.02-5.17,1.44-7.77.26-1.57.47-3.17.75-4.73.45-2.48.97-4.97,1.64-7.4.76-2.74,1.09-5.56,1.52-8.34.32-2.06.74-4.13.88-6.21.29-4.5,1.52-8.85,1.82-13.34.15-2.27.42-4.54.74-6.8.28-1.92.45-3.85.65-5.78.23-2.15.94-4.24,1.19-6.41.07-.57.03-1.14.11-1.71.44-3.13.74-6.28,1.3-9.38.61-3.35.82-6.71,1-10.1.18-3.22.56-6.43,1.09-9.63.56-3.38,1.25-6.74,1.76-10.13.56-3.7,1.35-7.36,2.09-11.02.27-1.31.28-2.65.5-3.96.46-2.7.6-5.45,1.14-8.14.22-1.08.48-2.16.54-3.27.12-2.22.78-4.36,1.06-6.54.26-1.96.52-3.92.85-5.87.13-.75.12-1.52.43-2.26.21-.49.15-1.07-.29-1.51"/>
      <path class="cls-1" d="m289.19,221.53c.52-.07.76.33.96.67.87,1.48,1.76,2.96,2.53,4.49.96,1.9,2.14,3.67,3.41,5.34,1.23,1.61,1.98,3.36,2.44,5.31.67,2.83,1.62,5.61,2.08,8.47.52,3.18.55,6.43.63,9.67.07,2.98-.18,5.96,0,8.94,0,.11-.02.23-.03.34-.34,2.68-.3,5.4-.61,8.07-.28,2.41-.59,4.84-.86,7.25-.47,4.27-1.03,8.53-1.37,12.81-.32,4.01-.82,8.02-1.3,12.02-.42,3.55-.98,7.08-1.41,10.63-.23,1.85-.27,3.7-.73,5.55-.54,2.16-1.08,4.32-1.64,6.47-.69,2.64-.96,5.33-1.29,8.01-.17,1.42-.61,2.76-.88,4.14-.22,1.11-.39,2.28-.63,3.39-.28,1.31-.64,2.61-.98,3.9-.18.68-.23,1.36-.36,2.04-.22,1.14.11,2.29-.82,3.42-.54.65-.62,2.01-.4,3.1"/>
      <path class="cls-1" d="m209.42,92.34c-1.11.14-2.21-.08-3.3-.23-2.23-.29-4.46-.52-6.69-.76-.87-.1-1.74-.12-2.6-.44-.79-.3-1.65.26-2.52.1-.42-.07-.91,0-1.36-.07-3.62-.51-7.28-.61-10.92-.77-3.85-.17-7.66-.59-11.48-1-4.31-.47-8.58-1.25-12.89-1.78-2.68-.33-5.34-.73-8.07-.74-2.08,0-4.16-.44-6.24-.56-4.07-.23-8.15-.27-12.22-.46-2.55-.12-5.1-.05-7.65-.18-3.23-.17-6.44-.67-9.67-.74-1.87-.04-3.74-.29-5.62-.04-.27.04-2.22-.14-2.3.13"/>
      <path class="cls-1" d="m310.33,240.79c-.56.04-.58-.49-.59-.75-.06-1.48-.59-2.83-.97-4.22-.35-1.29-.5-2.63-.74-3.94-.34-1.82-1.07-3.59-2.16-5.17-.95-1.37-1.98-2.71-2-4.54,0-.65-.45-1.28-.73-1.89-.58-1.29-.83-2.62-.96-4.01-.02-.24-.08-.48-.16-.7-1.17-3.53-1.86-7.17-2.65-10.79-.54-2.49-1.01-5-1.5-7.5-.51-2.62-.38-5.3-.5-7.95-.14-3.17.37-6.34.17-9.48-.12-1.91.69-3.53.91-5.31.1-.83-.04-1.61.04-2.4.35-3.72.87-7.42,1.79-11.05.21-.81-.14-1.48-.26-2.21"/>
      <path class="cls-1" d="m289,351.67c2.58.22,5.15.43,7.73.65,1.64.14,2.88-1.46,2.22-2.98-.43-1.01-.62-1.97-.26-3.02.24-.69-.05-1.37-.04-2.06.01-1.09.37-2.11.59-3.15.46-2.19.23-4.41.39-6.61.09-1.23.63-2.36.71-3.6.11-1.76.17-3.51.05-5.27-.06-.97.42-1.87.48-2.82.33-4.75,1.04-9.45,1.67-14.16.38-2.84.24-5.79.75-8.63.5-2.82.86-5.67,1.65-8.44.38-1.33.41-2.78.65-4.17.58-3.44,1.41-6.82,2.15-10.22.6-2.75.8-5.57.85-8.39.04-2.48.38-4.93.67-7.38.12-1.03.1-2.05.23-3.07.24-1.92.46-3.85.49-5.8.05-3.48.31-6.97-.14-10.44-.06-.49-.05-.92.15-1.36"/>
      <path class="cls-1" d="m267.05,156.56c-1.11.32-2.28.21-3.31-.04-1.9-.46-3.89-.36-5.76-.97-1.91-.62-3.92-.7-5.87-.86-2.8-.23-5.6-.6-8.42-.67-3.48-.09-6.95.07-10.43.07-3.14,0-6.28-.18-9.42.17-.69.08-1.37.37-2.08.14"/>
      <path class="cls-1" d="m184.16,342.28l-1.99,29.84,62.57,2.02c1.15-.04,2.3-.15,3.45-.1,1.82.08,3.64.22,5.46.42,3.53.38,7.08.06,10.61.43,1.58.17,3.22.33,4.78.2,1.85-.15,3.71-.33,5.54-.24,2.43.11,4.87-.01,7.29.4,1.59.27,3.25-.02,4.86.09,1.55.1,3.09.17,4.63.07.43-.03.81-.33,1.28-.22,2.9.63,5.82.62,8.77.56,1.4-.03,2.79-.16,4.05,1.12,2.95,3,6.4,5.45,9.59,8.19,2.62,2.25,5.35,4.38,8.06,6.54,3.73,2.98,7.01,6.47,10.77,9.41.87.68,1.81,1.25,2.54,2.09"/>
      <path class="cls-1" d="m264.58,150.13c-.98.69-2,.02-2.98,0-3.19-.06-6.38-.3-9.57-.57-1.24-.11-2.49-.44-3.74-.43-2.1,0-4.2-.1-6.26-.44-2.3-.39-4.61-.48-6.93-.66-4.17-.33-8.37-.22-12.54-.65"/>
      <path class="cls-1" d="m210.91,84.23c-3.37-1.08-6.86-1.54-10.37-1.68-3.23-.12-6.49.09-9.7-.43-4.51-.74-9.07-1.06-13.58-1.77-3.53-.55-7.09-.99-10.66-1.12-4.73-.17-9.4-.79-14.09-1.23-2.85-.27-5.7-.33-8.55-.49-1.74-.1-3.48-.35-5.21-.62-2.26-.35-4.52-.6-6.82-.57-1.63.02-3.25-.34-4.89-.36-2.4-.03-4.8.01-7.18-.35-4.48-.67-9-.94-13.49-1.44-3.22-.36-6.42-.87-9.59-1.52"/>
      <path class="cls-1" d="m256.19,187.11c-1.31-1.24-2.53-2.58-3.95-3.69-4.05-3.16-7.66-6.84-11.7-10.03-1.88-1.49-3.51-3.3-5.26-4.95-2.93-2.76-5.66-5.7-8.31-8.73-1.43-1.64-3-3.17-4.21-5"/>
      <path class="cls-1" d="m262.69,314.48c-.79-.77-1.87-.75-2.83-.94-4.78-.93-9.61-1.58-14.46-2.03-3.23-.3-6.47-.13-9.71-.29-1.5-.07-3.08.08-4.61.31-.37.06-.61-.14-.91-.13"/>
      <path class="cls-1" d="m338.23,120.13c-1.41-.07-2.79-.35-4.21-.31-2.17.08-4.32-.38-6.49-.42-4.83-.08-9.66-.22-14.47-.81-.9-.11-1.85.06-2.76.17-1.54.18-3.05-.08-4.55-.34"/>
      <path class="cls-1" d="m254.23,347.57c.05-1.21.69-2.26.84-3.47.23-1.89,1-3.66,1.62-5.46.8-2.33,1.44-4.7,1.9-7.14.7-3.72,1.18-7.49,2.38-11.12.39-1.18.45-2.55.32-3.85"/>
      <path class="cls-1" d="m300.17,158.78c-1.44-.95-2.07-2.28-2.31-3.99-.11-.82-.32-1.58-.18-2.44.12-.74.75-1.22.81-1.98.08-1.04.99-1.12,1.73-1.45,1.43-.65,2.91-.9,4.46-1.08,1.45-.16,2.74-1.01,4.24-1.17,2.51-.26,5-.79,7.54-.84,1.28-.03,2.49-.43,3.73-.68,2.34-.48,4.62-1.22,7.02-1.52,1.39-.17,2.81-.12,4.18-.46"/>
      <path class="cls-1" d="m158.16,141.73c1.03,1.4,2.46,2.15,4.1,2.58.23.06.4-.1.59-.15,2.38-.62,3.17-2.43,3.68-4.58.41-1.75.08-3.44-.07-5.17-.33-3.93-2.53-6.66-5.6-8.76-1.76-1.21-3.84-1.68-5.98-1.92-.8-.09-1.59-.12-2.39-.18-.65-.06-1.23-.26-1.63-.75-.56-.69-1.29-.86-2.1-.88"/>
      <path class="cls-1" d="m213.34,312.38c-.66.9-.77,1.87-.82,3.02-.15,3.45-.11,6.93-.94,10.33-.43,1.78-.51,3.62-.87,5.42-.75,3.81-1.25,7.66-1.62,11.53-.02.19-.09.36-.05.57.27,1.31.9,1.81,2.15,1.2,1.42-.69,2.98-.36,4.39-.97.22-.09,1.03-.43,1.14.41"/>
      <path class="cls-1" d="m279.97,91.28c.5-.1-2.11-4.63,8.64-4.89,1.29.16,13.94-.67,14.94-.4,1.51.41,2.92.93,4.17,1.9,1.03.8.98,3.43-.19,3.99-.22.1-.57.05-.91-.02-1.36-.28-2.43-1.21-3.74-1.55-2.48-.63-12.35-.89-16.8-.14-1.4.85-2.87.78-4.35.91-2.03.17-3.2,1.55-3.81,3.2-.87,2.36-1.36,4.86-1.59,7.39-.07.75-.06,1.48.23,2.21.39,1,.46,2.04.29,3.12-.45,2.86-.31,5.78-.65,8.64-.38,3.17-.88,6.33-1.38,9.49-.36,2.27-1,4.5-1.63,6.71-1.09,3.85-1.59,7.79-2.27,11.7-.23,1.35-.71,2.66-.6,4.07"/>
      <path class="cls-1" d="m278.37,133.49c-.99-1.27-.29-2.62.09-3.76.77-2.32.98-4.73,1.46-7.09.71-3.48,1-7.01,1.35-10.53.14-1.4.2-2.81.32-4.21.14-1.72.49-3.51.05-5.27"/>
      <path class="cls-1" d="m158.34,148.05c-2.36,1.56-5.03,2-7.77,2.09-1.88.06-3.73-.15-5.54-.75-2.42-.8-3.93-2.62-5.12-4.67-1.37-2.36-1.93-5.02-2.17-7.75-.04-.44.18-.68.25-1.01"/>
      <path class="cls-1" d="m302.03,148.08c.2-2.55.6-5.06,1.17-7.57.34-1.51.25-3.11.62-4.63.38-1.53.32-3.1.73-4.64.37-1.37.42-2.86.45-4.3.06-2.86.08-5.69.54-8.55.39-2.45.22-5.01.48-7.51.09-.84.23-1.66.45-2.48.2-.72-.07-1.36-.84-1.68-2.16-.91-4.24-1.95-6.23-3.21-1.11-.7-2.57-.73-3.74-1.26-2.49-1.13-4.99-.79-7.53-.57-.76.07-1.52.14-2.29.01-2.97-.49-5.61.4-8.1,1.94-.33.2-.63.5-1.07.48"/>
      <path class="cls-1" d="m287.75,358.54c-.85.88-.51,1.96-.38,2.94.24,1.69-.16,3.22-.81,4.75-.18.41-.45.5-.77.6-1.12.36-2.41-.13-3.1-1.1-1.05-1.48-2.57-2.48-4.04-3.44-1.27-.83-2.64-1.56-3.96-2.32-1.98-1.14-4.08-1.96-6.16-2.84-1.43-.6-2.97-.98-4.46-1.28-1.6-.33-3.3-.88-4.99-.34-.17.05-.33.1-.47.05-2.79-1.05-5.78-1.21-8.63-2-.22-.06-.47-.22-.67-.15-3.15,1.09-6.37.19-9.55.25-2.89.05-5.79-.1-8.69-.09-2.89.01-5.81-.02-8.63.56-2.79.57-5.66.76-8.35,1.85-.87.36-1.83.52-2.71.9-.81.35-1.6.08-2.39-.12"/>
      <path class="cls-1" d="m297.52,151.99c-1.31-.63-2.58-1.41-3.95-1.84-3.16-1-6.29-2.07-9.59-2.61-3.54-.58-7.07-.56-10.63-.34-.96.06-1.81.55-2.8.58-.69.02-.77.77-.83,1.37-.11,1.09-.24,2.18-.88,3.12"/>
      <path class="cls-1" d="m220.74,97.23c1.01-.37.82-1.44.94-2.09.69-3.92,2.33-7.65,2.46-11.67.1-2.97.25-5.93.55-8.88"/>
      <path class="cls-1" d="m259.06,293.73c.3-2.09.96-4.1,1.4-6.17.6-2.86,1.35-5.68,2.12-8.5.5-1.82.79-3.69,1.44-5.47"/>
      <path class="cls-1" d="m269.37,118.97c-.65,3.72-1.68,7.36-2.04,11.14-.42,4.47-1.24,8.89-1.66,13.36-.07.79-.43,1.57-.64,2.35-.33,1.29-.01,2.66-.38,3.98-.12.43.48.72.92.76.56.05,1.03.23,1.43.61"/>
      <path class="cls-1" d="m214.43,340.91c.52-2.09.66-4.26,1.58-6.28.3-.66-.04-1.63.17-2.48.54-2.15.92-4.35,1.48-6.49.35-1.34.63-2.69.81-4.05.1-.78.32-1.1,1.16-1.05,2.14.13,3.62-1.28,5.28-2.31,2.59-1.6,3.79-4.21,5.1-6.74.27-.53.09-1.2.17-1.81.33-2.76.79-5.54.38-8.32-.3-2.02-1.61-3.25-3.5-3.9-1.06-.37-2.16-.58-3.25-.76-1.85-.31-3.16.75-4.28,2-.21.23-.45.41-.68.58-.78.59-1.45,1.26-1.57,2.26-.16,1.31-1.14,2.03-1.9,2.91"/>
      <path class="cls-1" d="m213.88,308.08c-1,1.28-.88,2.99-.28,4.01.76,1.3,1.77,2.6,2.91,3.75,1.11,1.11,2.28.91,3.4.69,2.22-.44,3.65-2.18,5.18-3.69.12-.12.11-.37.18-.55.43-1.18.62-2.47,1.58-3.4.16-.16.31-.44.29-.65-.18-1.56.54-3,.59-4.53.02-.68-.49-1.05-.82-1.43-1.44-1.66-2.14-2.46-4.57-1.62-1.03.36-2.11.7-2.93,1.44-.72.65-1.47.86-2.38.67"/>
      <path class="cls-1" d="m214.13,131.87c1.17.11,1.64-.16,1.71-1.32.21-3.15.93-6.25.98-9.42.01-.7.12-1.45.31-2.14.44-1.56-.06-2.98-.52-4.4-.34-1.06-.28-1.96.62-2.7"/>
      <path class="cls-1" d="m235.98,244.14c.57.05.51.58.46.85-.41,2.18-.38,4.45-1.21,6.52-1.32,3.29-1.86,6.78-2.87,10.14-.18.6.11,1.55-.81,1.88"/>
      <path class="cls-1" d="m298.17,156.98c-1.05.4-2.02.06-2.94-.41-3.2-1.64-6.56-2.71-10.1-3.3-1.84-.31-3.73-.31-5.53-.87"/>
      <path class="cls-1" d="m232.83,271.44c-.83-.21-1.61.19-2.43.23-.41.02-.61.39-.63.73-.03.52-.29.96-.38,1.45-.38,2.14-.64,4.3-1.12,6.42-.67,2.95-.95,5.97-1.84,8.88-.4,1.29-.38,2.7-.55,4.06"/>
      <path class="cls-1" d="m254.07,346.86c-1.26-.24-2.42-.8-3.67-1.07-2.22-.49-4.31-1.42-6.58-1.81-1.58-.27-3.14-.83-4.71-1.05-2.55-.36-5.16-.51-7.74-.43-3.26.09-6.53.04-9.78.34-1.64.15-3.28.28-4.88.7"/>
      <path class="cls-1" d="m224.25,293.52c.11-.07.33.19.34-.08.08-1.51.4-2.94.78-4.41.31-1.2.32-2.64.24-3.96-.1-1.65.57-3.09.93-4.61.62-2.6,1.18-5.21,1.35-7.89,0-.12-.12-.24-.18-.36"/>
      <path class="cls-1" d="m189.63,286.67c-.71-.05-.75.65-.74.95.03,1.32-.78,2.51-.55,3.85.04.25-.07.52-.16.79-.59,1.64-.73,3.33-.81,5.08-.06,1.4-.11,2.81-.22,4.21-.06.77-.04,1.56.82,1.97"/>
      <path class="cls-1" d="m235.06,244.73c-1.89,2.23-3,4.83-3.42,7.69-.37,2.49-.6,5.02-1.28,7.42-.65,2.3-1.26,4.59-1.67,6.95-.25,1.47-.5,2.93-.65,4.41-.06.6-1.14,1.33-2.09,1.52-.54.11-.81-.11-.97-.57-.02-.06.05-.15.07-.22"/>
      <path class="cls-1" d="m91.45,363.99c-.02-.45-.36-.56-.69-.52-1.24.16-2.41-.32-3.63-.38-3.43-.15-6.78-.92-10.19-1.23-.6-.06-21.11-2.83-21.68-2.61l8.73-7.06c1.15-.02,7.1.43,8.23.55,2.65.29,5.1,1.51,7.93,1.16,2.5-.31,5.08.34,7.64.21,1.76-.09,3.47.44,5.22.53.5.02,1.02-.11,1.48.03,2.35.71,4.76,1.16,7.2,1.38.53.05,1.12-.11,1.59.07,1.43.56,2.95.57,4.41.69,2.65.21,5.3.54,7.95.73.33.02,22.39,2.19,22.28,2.65"/>
      <path class="cls-1" d="m330.62,148.6c-1.66.98-3.43.56-5.21.56-2.63,0-5.27.19-7.86.7-1.62.32-3.3.11-4.88.65-3.36,1.13-6.93,1.46-10.25,2.74-1.44.56-3.06.61-4.38,1.55"/>
      <path class="cls-1" d="m271.61,366.63c-8.01-4.11-27.9-5.55-29.2-5.75-2.27-.35-6.34.11-8.62-.05-2.17-.16-4.36-.14-6.53.03-1.95.15-13.03,2.53-14.81,3.56"/>
      <path class="cls-1" d="m306.39,107.14c.94-.54.79-1.52.77-2.33-.05-1.43.28-2.81.48-4.19.26-1.77.35-3.56.61-5.33.18-1.21.07-2.34-.59-3.38"/>
      <path class="cls-1" d="m254.09,259.21c-.08,1.48-.37,2.94-.24,4.45.09,1.05.53,1.9,1.05,2.71.39.6.98.33,1.47-.06,1.78-1.39,2.95-3.08,2.83-5.46,0-.18-.07-.42.16-.56"/>
      <path class="cls-1" d="m243.22,259.06c-1.54-.58-3.79-.12-4.79,1.02-.41.46-.43,1.1-.49,1.67-.11,1.02-.01,2.03.34,3.03.2.55.46.81.98.76.89-.09,1.66-.51,2.4-1.01.49-.33.48-.84.6-1.32.67-.48,1.36-.23,2.05-.03"/>
      <path class="cls-1" d="m116.8,180.17c.54.23,1.1.32,1.68.4.53.07.9-.06,1.13-.7-.5-1.01-1.56-1.45-2.46-2.08-.72-.5-1.38-1.06-1.89-1.79-.32-.46-.23-.96.03-1.37.86-1.34,2.55-1.67,3.83-.76.21.15.44.27.66.39"/>
      <path class="cls-1" d="m224.95,320.17c-.28,3.52-1.68,6.77-2.39,10.19-.6,2.92-1.33,5.81-1.84,8.75-.21,1.18-.03,2.29-.14,3.43"/>
      <path class="cls-1" d="m327.63,184.86c-.95.16-1.91.16-2.87.06-3.22-.35-6.44-.26-9.64.22-.4.06-17.76-.11-18.15-.08"/>
      <path class="cls-1" d="m47.17,366.99c2.61.26,41.79,4.28,44.39,4.59,2.23.26,4.48.4,6.72.41,2.94,0,5.84.49,8.76.7,5.01.35,10,.89,15.03.99,1.71.03,3.4.34,5.09.69,1.94.39,3.94.23,5.91.55,1.25.2,2.6.27,3.84.44,1.29.17,2.59.39,3.86.31.95-.06,1.8.67,2.74.21l22.79,2.47c1.51.45,3.04.82,4.62.78.68-.02,1.28.1,1.93.28,1.02.28,2.08.85,3.21.15.26-.16.76-.02,1.11.1.39.14.75.24,1.14.09"/>
      <path class="cls-1" d="m217.41,114.78c.93-.69.88-1.64.57-2.57-.17-.53-.18-.96-.09-1.51.44-2.87,1.44-5.63,1.67-8.54"/>
      <path class="cls-1" d="m282.03,131.22c-.63.82-1.56,1.17-2.45,1.59-1.27.6-1.38.79-1.24,2.06.09.81-.36,1.56-.81,2.06-.85.92-1.15,2.04-1.24,3.12-.19,2.12-1.11,3.96-1.8,5.89-.21.59-.41,1.12-.14,1.71.31.69.06,1.3-.19,1.93-.29.74-.77,1.36-.98,2.18-.23.9-1.4.9-2.22,1.17-.49.16-1,.19-1.51.2"/>
      <path class="cls-1" d="m235.79,258.9c-.14,1.6-.47,3.16-1.27,4.57-.52.92-1.09,1.77-.86,2.91.03.15-.07.52-.37.52-.37,0-.79.01-.99-.43-.23-.51-.59-1.09-.59-1.55,0-1.51-.97-2.56-1.51-3.81"/>
      <path class="cls-1" d="m207.98,357.57c-1.36-.26-2.11-1.31-2.72-2.35-1.57-2.67-4.05-3.48-6.89-3.63-1.98-.1-3.96-.07-5.95-.15-1.83-.07-2.57.6-2.91,2.47-.17.94-.3,1.89-.44,2.83-.22,1.54-.29,3.11-.24,4.67.05,1.49.79,2.1,2.38,2.3,1.74.22,3.45.64,5.23.42.66-.08,1.36.21,2.03.27,2.5.22,5.02.07,7.54.28l81.46,2.42"/>
      <path class="cls-1" d="m258.12,275.3c-2.11-1.32-4.46-1.49-6.86-1.35-.53.03-1.03.08-1.46-.27-1.06-.85-1.66-.92-2.72-.26-.2.12-.35.32-.61.34"/>
      <path class="cls-1" d="m105.58,84.77c-2.52-3.02-6.49-8.17-8.76-11.38"/>
      <path class="cls-1" d="m298.47,357.88c-3.31-1.01-6.62-2-10.09-2.25-.75-.05-1.31.84-1.08,1.84.12.55.4,1.02,1.01,1.26,2.26.91,4.19,2.4,6.29,3.61.75.43.92,1.45.47,2.2-.59.97-1.11,1.96-1.32,3.08"/>
      <path class="cls-1" d="m283.78,91.28c-1.12,2.81-1.5,5.79-2.01,8.74-.09.5.03.99-.02,1.49"/>
      <path class="cls-1" d="m137.83,165.51c-1.71-.4-3.83.57-4.56,2.07-.3.62-.2,1.16.3,1.63.52.5,1.11.36,1.59.03.75-.52,1.42-1.14,2.13-1.72"/>
      <path class="cls-1" d="m169.59,271.99c-.08.28-.31.46-.37.76-.34,1.72-1.05,2.2-2.83,2.03-.45-.05-.93,0-1.38.09-.56.1-.99.05-1.34-.48-.36-.53-.95-.59-1.54-.5-.66.1-1.26.2-1.82-.39-.28-.3-.72.03-1.03.22-.98.61-1.69.56-2.64-.02-.77-.47-1.54-.99-2.3-1.42-1.17-.65-2.6-.96-4.05-.5-.83.26-1.74.39-2.48-.34"/>
      <path class="cls-1" d="m150.98,148.35c.01-1.29-.89-2.11-1.7-2.88-.59-.56-1.13-1.51-2.27-1.21-.08.02-.37-.19-.54-.36-2.08-2.03-4.57-3.5-6.93-5.16-.43-.3-.93-.42-1.46-.26"/>
      <path class="cls-1" d="m201.39,346.5c.02.47-.28.45-.61.4-.64-.1-1.29-.16-1.92-.31-2.25-.56-4.56-.21-6.82-.55"/>
      <path class="cls-1" d="m148.47,183.74c-.11-.57.12-1.08.34-1.57.25-.58.67-1.26.02-1.68-.68-.45-1.71-.58-2.34-.11-1.06.79-1.61,2.12-2.72,2.91-.11.08.2.29,0,.45"/>
      <path class="cls-1" d="m126.71,278.66c-.72.52-2.09.52-2.6-.16-.66-.88-1.31-1.44-2.46-.92-.11.05-.29-.05-.45-.13-1.22-.62-2.41-.34-3.56.21-.96.46-2.14.23-3.05-.52-.49-.4-1.12-.54-1.69-.17-.64.42-1.27.59-1.98.25"/>
      <path class="cls-1" d="m99.31,252.01c-1.07.34-2.14.9-3.21.02-.49-.41-.55-.87-.34-1.52.56-1.65,1.89-2.2,3.36-1.27"/>
      <path class="cls-1" d="m151.15,123.28c-.78.94-1.98.6-2.97.95-1.64.57-3.42.85-4.66,2.21-.79.87-2.03.92-2.84,1.76-.81.85-.86,1.09.08,1.74,1.97,1.36,3.26,3.37,4.89,5.07"/>
      <path class="cls-1" d="m158.02,263.17c-.6,2.18-2.7,2.55-4.6,1.47-.8-.45-1.6-.19-2.39-.31-.84-.13-1.74-.38-2.46.42-.32.36-.65.2-1.02-.08-.92-.68-1.8-1.12-2.98-.24-.88.66-1.88.2-2.61-1.59"/>
      <path class="cls-1" d="m142.14,179.91c-.3-.07-.6-.14-.95-.22-.37.53-.83,1.04-1.11,1.63-.23.46-.55.79-.94,1.02-.24.14-.63.32-.91.14-.3-.19-.42-.51-.4-.94.04-.95.5-1.73.85-2.55"/>
      <path class="cls-1" d="m145.63,137.51c-.22-.71-.8-1.06-1.32-1.53-1.4-1.25-2.98-2.22-4.5-3.29-.54-.38-1.08-.72-1.76-.74"/>
      <path class="cls-1" d="m172.54,258.81c-.37.03-.68.03-1.02-.25-.83-.7-1.76-.69-2.73-.19-.34.18-.77.21-1.16.24-1.08.09-1.96-.59-2.45-1.84"/>
      <path class="cls-1" d="m125.37,254.92c-.09-1.2-1.61-1.94-2.73-1.29-.46.27-.87.64-1.24,1.02-.45.46-.98.53-1.54.4-.64-.14-.6-.67-.59-1.19,0-.19-.19-.39-.3-.6-.63-.04-.77.48-.98.93"/>
      <path class="cls-1" d="m169.03,266.55c-1.44-.56-2.9-.87-4.34-.07-.89.5-1.77.22-2.66.19-.42-.02-.95-.28-1.02.47"/>
      <path class="cls-1" d="m103.6,329.55c-.14,1.07-.07,2.15.05,3.21.12,1.05,1.3,1.51,2.17.9.42-.29.72-.74,1.15-1.01.7-.45.88-1.03.62-1.78"/>
      <path class="cls-1" d="m171.09,164.08c-.59,1.17-.35,2.49-.68,3.72-.18.66-.26,1.24-1.07,1.4-.51.1-.82.6-1.24.89-.74.5-1.68.42-2.51-.12-.81-.53-1.18-1.19-.93-2.16.14-.55.53-.8,1.02-.92.37-.1.41.24.46.49"/>
      <path class="cls-1" d="m120.52,317.12c.14.17.27.33.46.56-.9.77-1.88,1.01-2.97.54-.26-.11-.53-.13-.79-.26-1-.49-1.92-.34-2.58.55-.48-.07-.53-.45-.71-.67-.7-.87-1.24-1.01-2.14-.42-.65.43-1.33.83-1.86,1.42-.28.31-.59.31-.95.25"/>
      <path class="cls-1" d="m147.71,148.95c-1.84-2.31-4.35-3.75-6.83-5.23-.21-.12-.36-.27-.52-.42"/>
      <path class="cls-1" d="m118.53,237.75c-1.26.47-2.66.82-3.9.67-1.75-.2-3.44-.2-5.16.04-1.12.15-1.22.03-.92-1.12"/>
      <path class="cls-1" d="m177.74,165.19c-.82.6-.81,1.62-.98,2.43-.26,1.2-.81,2.32-.92,3.57-.05.55-.06,1.01.14,1.5.67-.04.94-.62,1.35-1.01,1.16-1.09,1.74-1.08,2.86.05.84.85,1.7.93,2.84.28"/>
      <path class="cls-1" d="m140.64,169.57c-.33-.63.14-1.19.33-1.67.7-1.86.94-3.81,1.32-5.73"/>
      <path class="cls-1" d="m147.95,144.16c.43-.99-.87-1.9-.17-2.88.6-.83.5-1.78.58-2.7.1-1.1-.05-2.16-1.15-2.79.42-.53.4-1.09.46-1.63.15-1.54.93-2.21,2.51-2.16.3.01.7.18.61-.4"/>
      <path class="cls-1" d="m177.06,228.03c-1.2,0-2.36-.82-3.48-.51-1.11.31-2.03.6-2.99-.23-.17-.14-.52-.07-.78-.09"/>
      <path class="cls-1" d="m143.51,139.25c.76-.57.39-1.18-.09-1.59-1.64-1.42-3.29-2.85-5.36-3.64"/>
      <path class="cls-1" d="m280.79,128.69c-.03-.9.4-1.8.96-2.26,1.16-.96.85-1.98.57-3.18.78-.33.94-.97.8-1.78-.05-.27-.06-.62.18-.9.61-.72.53-1.49.11-2.28"/>
      <path class="cls-1" d="m126,180.96c-.84,1.47-2.12,2.63-2.95,4.13,2.14.98,3.22.45,3.74-1.65.19-.8.4-1.57.13-2.4-.18-.56.39-1.01.37-1.56"/>
      <path class="cls-1" d="m213.41,139.14c.49-.39.73-.88.87-1.52.29-1.31.75-2.57.83-3.93.03-.57.02-1.1-.2-1.62"/>
      <path class="cls-1" d="m297.31,368.53c-1.66.07-3.16-.79-4.86-.76-1.66.03-3.28-.63-4.97-.68-.39-.01-.65-.37-.98-.55"/>
      <path class="cls-1" d="m120.94,223.09c-.43-.09-.9.04-1.23-.45-.56-.83-1.31-.54-2.03-.21-.6.28-1.11.77-1.81.85-.83-.5-.13-1.58-.82-2.14"/>
      <path class="cls-1" d="m234.46,334.17c-.96.29-1.91.5-2.86-.04-.31-.18-.61.13-.93.13-.34,0-.82.16-1.01-.01-.92-.84-2.08-.17-3.06-.59-.48-.21-1.04.03-1.39.42-.38.42-.85.61-1.35.77"/>
      <path class="cls-1" d="m146.37,146.3c-.01-.21.08-.39-.16-.6-1.76-1.57-3.7-2.85-5.82-3.88"/>
      <path class="cls-1" d="m105.16,165.62c-.21-.3-.43-.53-.51-.96-.35-1.96-.81-3.91-1.23-5.86"/>
      <path class="cls-1" d="m104.06,259.59c-1.88.6-3.53.37-4.95-1.15-.4-.42-1.07-.59-1.61-.87"/>
      <path class="cls-1" d="m185.21,318.78c-.79,1.42-.97,3.03-1.36,4.56-.89,3.48-.77,7.14-1.76,10.59-.65,2.27-1.05,4.54-1.01,6.9.02,1.02.36,1.86,1.17,2.62,1.28-.78,1.95-1.77,2.17-3.32.42-2.9.45-5.85,1.22-8.71.33-1.24.61-2.52.76-3.81.25-2.08.44-4.16.75-6.23.19-1.31.06-2.49-.82-3.52"/>
      <path class="cls-1" d="m250.29,265.25c.29-.22.53-.45.55-.86.08-1.65.45-3.26.92-4.84.09-.32.16-.69-.12-.98"/>
      <path class="cls-1" d="m282.62,117.07c.7-.41,1.62-.48,2.04-1.34.08-.02.04-.08-.06-.19-1.44-1.58-1.45-1.85.51-2.94,1.1-.62,1.16-1.08.44-2.12"/>
      <path class="cls-1" d="m148.99,314.25c-1.13-.23-2.21-.16-3.35.15-1.62.43-2.56-.55-2.4-2.26.07-.78.21-1.59-.72-2.02"/>
      <path class="cls-1" d="m159.15,135.18c1.23.87,2.44,1.78,3.51,2.85.41.41.97.67,1.47.04.39-.48.08-.82-.23-1.17-1.37-1.6-3.14-2.72-4.76-4.02"/>
      <path class="cls-1" d="m134.3,271.38c-.04-.87-.58-1.26-1.35-1.39-1.07-.18-2.13-.16-3.13.37-.28.15-.59.27-.94.26-.69,0-1.03.37-1.26,1.01-.28.76-.77,1.42-1.43,1.93"/>
      <path class="cls-1" d="m114.25,253.83c-1.75-.38-3.7.38-5.32-.95-.24-.19-.82.01-1.24.08-1.51.23-2.91-.68-4.43-.45-.47.07-.7-.35-.96-.66"/>
      <path class="cls-1" d="m102.67,213.16c-.3-.81-.22-1.7-1.11-2.34-.7-.51-1.33-.65-2.04-.47-.87.22-.79,1.04-.86,1.73-.02.19-.01.38.03.58.1.53-.39,1.29.23,1.57.71.32,1.59.16,2.28-.21.74-.39,1.42-.86,2.28-.9"/>
      <path class="cls-1" d="m139.13,216.4c-.83-.13-1.68-.07-2.49-.35-.31-.1-.65-.13-.95.22-.35.42-.89.64-1.42.66-.53.02-.95-.23-1.19-.78-.25-.58.29-.65.5-.93"/>
      <path class="cls-1" d="m250.41,265.72c-1.58-1.74-2.45-3.98-3.96-5.77-.26-.3-.49-.85-.95-.64-.48.22-1.06.76-.9,1.24.49,1.44-.24,2.67-.44,3.99-.05.3.07.64-.2.9"/>
      <path class="cls-1" d="m231.61,265.25c-.94.52-.54,1.57-.85,2.34-.38.95-.22,2.11-.59,3.13-.1.26-.12.58.14.81"/>
      <path class="cls-1" d="m149.07,224.82c-1.24-.51-2.24-.16-3.06.93.03.79.5,1.2,1.36,1.19.8,0,1.76-.69,1.85-1.42.12-1.1.45-2.17.45-3.28"/>
      <path class="cls-1" d="m101.54,266.56c-.21-.27-.61-.26-.77-.17-1.36.75-2.86.71-4.33.82-.47.04-.94.2-1.41.31"/>
      <path class="cls-1" d="m279.63,152.06c0,.2-.06.45-.27.42-1.82-.29-3.65-.2-5.47-.29-.24-.01-.46-.08-.67-.18"/>
      <path class="cls-1" d="m123.31,261.94c-1.5-.56-3-.68-4.57-.24-.74.2-1.33-.19-1.61-.94-.43-.06-.86-.01-1.17.24-1.27,1-2.85.36-4.23.8-.24.08-.59-.24-.63-.71-.04-.45-.27-.95-.94-.67"/>
      <path class="cls-1" d="m153.91,183.82c.76.15,1.5.05,2.2-.25.54-.23.91-.75.78-1.28-.13-.54-.53-1.05-1.23-1.05-.34,0-.69,0-1.03.01"/>
      <path class="cls-1" d="m261.93,261.01c-.97.84-1.2,2.03-1.44,3.18-.19.92-.21,1.89-.3,2.83"/>
      <path class="cls-1" d="m131.77,223.69c-.61-.82-1.48-.35-2.14-.27-1.24.14-2.48-.18-3.7.14-.43.12-.72-.23-.97-.54"/>
      <path class="cls-1" d="m146.36,241.97c-.7,0-1.36.03-2.05-.39-.58-.35-1.36.08-2.16.1-.24-.64-.42-1.38-1.34-1.55-.48-.09-.16-.57-.18-.9-.03-.51.03-.94.29-1.35"/>
      <path class="cls-1" d="m177.06,182.54c-.81-1.22-2.03-1.45-3.38-.55-.8.53-1.45,1.25-1.94,2.12.86,1.86,2.49,2.33,4.36,2.34"/>
      <path class="cls-1" d="m249.99,334.66c-1.6-.53-3.19-.8-4.72.22-.44.29-.83-.11-1.25-.12"/>
      <path class="cls-1" d="m299.01,352.43c.94.91.66,2.08.57,3.15-.06.73-.12,1.58-.85,2.1-.25.18-.15.51-.19.78-.2,1.13.1,2.28-.17,3.43-.09.4-.17.84-.31,1.22-.62,1.67-1.22,3.35-1.4,5.14"/>
      <path class="cls-1" d="m152.71,183.13c-.36-1.01-.09-1.99.17-2.96.27-.98.5-1.97.06-2.97"/>
      <path class="cls-1" d="m165.7,185.09c.6-1.31.45-1.86-.58-2.23-1.18-.43-2.29.18-2.66,1.46"/>
      <path class="cls-1" d="m241.36,335.07c-1.3-.5-2.46-1.33-3.85-1.65-.64-.15-1.23-.19-1.84.06"/>
      <path class="cls-1" d="m124.3,215.74c.07-.96.62-1,1.32-.67.74.35,1.43.83,2.19,1.11,1.39.51,1.89.26,2.62-1.1-.58-.23-1.2-.23-1.8-.29"/>
      <path class="cls-1" d="m105.43,323.77c-.06.49-.1.98-.25,1.47-.2.65-.05,1.31.53,1.62.45.24,1.04.04,1.5-.28.13-.09.24-.23.38-.3.49-.26.55-1.25,1.01-1.11,1.34.4,2.91-.34,4.05.81.4.4.86.42,1.34.46,1.06.11,2.08-.23,3.21-.16-.12-.81.03-1.48.28-2.13"/>
      <path class="cls-1" d="m161.41,184.44c-.31.08-.63.23-.94.24-.55.01-.81-.12-.76-.86.11-1.4.75-2.65.93-4.03.1-.81-.42-1.52-.15-2.31"/>
      <path class="cls-1" d="m158.74,258.2c-.28.09-.55.18-.83.26-.51.14-.88.13-1-.55-.07-.42-.34-.81-.55-1.2-.63-1.19-1.38-1.36-2.46-.58-.19.14-.37.26-.6.28"/>
      <path class="cls-1" d="m160.04,219.37c-.78.21-1.53.48-2.34.62-1.36.24-2.26-.21-2.93-1.35.18-.54.38-1.17.59-1.8"/>
      <path class="cls-1" d="m144.88,141.57c-.51-.99-1.16-1.84-2.17-2.4-1.34-.75-2.4-1.91-3.75-2.66-.92-.51-1.5-1.14-1.02-2.4.28-.74-.39-1.58.18-2.52.53-.87,1.1-1.59,1.89-2.19"/>
      <path class="cls-1" d="m124.59,318.9c1.33-.37,1.7-.23,2.55.94.24.33.56.5.97.56.99.16,1.96.37,2.91.72.82.31,2.13-.3,2.39-1.01"/>
      <path class="cls-1" d="m129.47,166.64c-1.22.08-1.96,1.12-3.02,1.59-1.03-.56-.15-1.81-.91-2.43"/>
      <path class="cls-1" d="m189.36,165.88c-.13,1.86-.64,3.62-1.19,5.39-.3.96.07,1.93.53,2.78.3.57.73,1.23,1.61.86"/>
      <path class="cls-1" d="m221.57,333.59c-1.24-.14-2.4.25-3.49.72-.67.29-1.28.56-2.01.45"/>
      <path class="cls-1" d="m164.8,135.96c-.36-1.59-1.62-2.55-2.62-3.69-.49-.56-.9-1.22-1.69-1.43"/>
      <path class="cls-1" d="m108.1,268.06c-.78.15-1.51.42-2.25-.33-.19-.2-1.12-.11-1.7.2-.5.27-1.13.25-1.72.2-.98-.08-1.1-.37-.81-1.34.15-.48.71-.74.61-1.31"/>
      <path class="cls-1" d="m103.88,238.14c.15-.4.46-.77.19-1.32-.45-.12-.93-.07-1.45.04-1.64.35-3.24.96-4.98.59-.5-.11-.94-.33-1.44-.45-.45-.1-.71-.56-.59-1.16.2-1.08.31-2.18.45-3.28"/>
      <path class="cls-1" d="m157.29,128.46c-.92-.32-1.83-.7-2.78-.94-.59-.15-1.26-.31-1.85.14-.11.08-.28.22-.35.18-1.6-.76-2.36.71-3.45,1.28"/>
      <path class="cls-1" d="m330.77,232.14c.31-1.42.84-2.73.54-4.33-.18-.97.23-2.24.47-3.36.34-1.61.65-2.13-1.6-2.55-.49-.09-.82-.51-1.33-.49"/>
      <path class="cls-1" d="m160.14,361.69c-1.07.35-2.02-.35-3.06-.32-2.02.07-4.04.12-6.06-.12"/>
      <path class="cls-1" d="m115.46,268.38c-.96-1.22-2.12-1.48-3.36-.66-.54.35-1.13.66-1.5,1.22"/>
      <path class="cls-1" d="m149.12,278.57c-1.75.66-3.5,1.22-5.38.5"/>
      <path class="cls-1" d="m267.62,268.45c.07-1.72.03-3.44-.07-5.16"/>
      <path class="cls-1" d="m164.33,141.93c-1-.89-1.67-2.1-2.81-2.86-.81-.54-1.57-1.14-2.36-1.71"/>
      <path class="cls-1" d="m128.68,230.04c-.13.15-.06.42-.44.44-1.62.08-3.21.63-4.86.42"/>
      <path class="cls-1" d="m113.33,160.69c-.97,1.16-1.84,2.38-2.85,3.51-.36.4-.76.79-1.22.63-.64-.22-.73-.92-.77-1.53-.05-.89.52-1.69.48-2.59"/>
      <path class="cls-1" d="m135.58,181.44c-.7-.05-.88-.44-.95-1.12-.16-1.56-.21-1.55-1.81-1.1-.23.06-.47.11-.7.16"/>
      <path class="cls-1" d="m162.99,143.92c.25-1.25-.78-1.7-1.5-2.31-.67-.57-1.45-1.03-2.12-1.61-.57-.49-1.15-.58-1.81-.28"/>
      <path class="cls-1" d="m159.29,243.24c.77-.9-.05-1.41-.5-1.99-.51-.66-1.15-.16-1.46.11-1.16,1.01-2.59.98-3.94,1.32-.37.09-.7.03-1.04-.02-1.03-.16-1.23-.69-.66-1.55.2-.31.62-.51.56-.97"/>
      <path class="cls-1" d="m177.37,243.53c-.5-.07-.97-.13-1.46-.35-1.29-.55-2.6-.47-3.8.3-1.15.73-1.13.76-2.28-.23-.11-.1-.29-.11-.44-.16"/>
      <path class="cls-1" d="m136.52,241.81c.19-1.66.01-3.36.49-4.99"/>
      <path class="cls-1" d="m146.37,132.32c.02-1.48-1.17-2.21-1.98-3.17-.54-.64-1.27-1.09-1.77-1.78"/>
      <path class="cls-1" d="m149.21,217.62c-.8-.15-1.59-.2-2.41-.02-.4.08-.92.29-1.23-.22-.34-.57.29-.81.46-1.21"/>
      <path class="cls-1" d="m253.25,320.2c-1.35-.52-2.8-.36-4.19-.55-.53-.07-.99.04-1.32-.45-.24-.35-.56-.53-.98-.55"/>
      <path class="cls-1" d="m117.45,250.47c-.22.65-.81.7-1.34.92-1.16.48-2.44.83-3.08,2.09"/>
      <path class="cls-1" d="m122.05,215.29c-1.48-.89-3.13-1.11-4.8-1.27"/>
      <path class="cls-1" d="m157.83,136.88c-.91-.24-1.12-1.28-1.9-1.61.09-1.12,1.19-1.27,1.78-2-.63-.95-1.41-1.59-2.56-1.71.04-.29-.23-.59.17-1.04-.99.06-1.7-.29-2.43-.54"/>
      <path class="cls-1" d="m145.55,257.13c-1.25.48-1.7.3-2.65-1.06-.66.04-1.26.3-1.89.49-.47.14-1.13.59-1.44-.04-.27-.54.16-1.07.67-1.4"/>
      <path class="cls-1" d="m120.32,269.09c-1.18.47-2.25.67-3.32-.39-.36-.35-1.12-.53-1.84.08-.93.78-2.26.81-3.4,1.19"/>
      <path class="cls-1" d="m264.57,265.63c.05-1.89-1.19-3.19-2.22-4.55-.28-.37-.43-.69-.49-1.11"/>
      <path class="cls-1" d="m187.79,304.25c.98,1.45.6,3.08.55,4.64-.04,1.21-.32,2.41-.43,3.62-.06.61-.56.86-.83,1.29"/>
      <path class="cls-1" d="m159.54,234.9c-.09-1.36-.19-1.36-1.45-1.54-1.5-.21-2.83.12-4.21.66-.84.33-1.35-.5-1.82-1.12"/>
      <path class="cls-1" d="m108.85,308.75c.07,1.1-.72,1.59-1.56,1.75-.82.16-1.87-.03-2.27-.79-.46-.87-.88-1.91-.44-2.99"/>
      <path class="cls-1" d="m142.05,263.66c-1.25.77-2.28.03-3.26-.57-.9-.56-1.6-.74-2.34.24-.64.84-1.48.16-2.15-.01-.83-.21-1.6-.1-2.41-.08"/>
      <path class="cls-1" d="m157.57,167.56c-.02-.31.44-.71-.14-.93-.8-.3-1.56-.76-2.49-.37-.88.36-.96.51-.47,1.23.45.67,1.18.88,1.84,1.2.59.28,1.21.51,1.61,1.08"/>
      <path class="cls-1" d="m160.59,369.87c.01-.56.22-.63.73-.4,1.5.67,3.2.32,4.72.92.22.09.51.15.8,0,.59-.33,1.25-.2,1.83-.04,2.15.61,4.4.48,6.55.97l4.19.95,2.83-28.8"/>
      <path class="cls-1" d="m105.99,221.28c.19-.47.28-.83-.19-1.31-.68-.7-1.38-.25-2.06-.25-.3,0-.53.52-.96.44"/>
      <path class="cls-1" d="m247.7,272.9c-.63-1.2-1.28-1.52-2.41-.89-.89.49-1.72.57-2.55.16-.85-.42-1.45.42-2.21.26"/>
      <path class="cls-1" d="m126.89,239.49c-1.07.13-2.15.02-3.24.18-1.32.18-2.75.26-4.08-.22-.67-.24-.9-.86-1.12-1.48"/>
      <path class="cls-1" d="m120.18,311.24c-.6.65-1.06-.05-1.67-.13-1.04.7-2.25,1.08-3.52.52-.84-.37-1.49.07-2.29.31-.26-.51-.91-.78-.8-1.51"/>
      <path class="cls-1" d="m109.13,237.17c-1.02-.12-2.02.07-3,.28-.72.16-1.28-.27-1.91-.42"/>
      <path class="cls-1" d="m133.92,255.42c-.26.28-.58.37-.95.37-.87-.01-.95-.23-.72-1.11.16-.61.38-1.12.86-1.51"/>
      <path class="cls-1" d="m218.37,101.58c.44.17.88.34,1.36.54.33-1.51.25-3.02.63-4.47"/>
      <path class="cls-1" d="m171.25,220.7c-.46.2-.92.03-1.37-.04-.4-.06-.77-.32-.83-.76-.06-.43.33-.64.64-.85.15-.1.32-.16.48-.24"/>
      <path class="cls-1" d="m108.89,228.55c-.31.56-.92.4-1.06.1-.71-1.45-1.69-.28-2.52-.32-.21-.01-.32.37-.61.38"/>
      <path class="cls-1" d="m185.85,173.55c-.82-.07-.5-.67-.45-1.08.11-.99.02-1.95-.3-2.89"/>
      <path class="cls-1" d="m137.26,313.5c-.37-.11-.66-.31-1.13-.25-1.37.18-2.78-.19-4.16.28-.69.24-1.73-.87-1.76-1.75,0-.23.04-.45.06-.68"/>
      <path class="cls-1" d="m207.73,349.64c-.29-.18-.63-.31-.85-.55-1.38-1.46-3.16-1.92-5.07-2.1-.15-.01-.3-.1-.44-.15"/>
      <path class="cls-1" d="m123.27,334.58c-.76-.06-1.51-.26-2.3-.02-.59.18-1.24-.13-1.38-.7-.32-1.23-1.13-.94-1.79-.6-1.25.66-2.49.21-3.68.02-.74-.12-1.45-.46-2.05.1-.36.33-.7.1-.8-.01-.18-.22-.44-.48-.19-.92.28-.49.36-1.1.53-1.65"/>
      <path class="cls-1" d="m144.33,162.37c-.8,2.06-1.15,4.23-1.65,6.37-.09.37-.19.8.11,1.15"/>
      <path class="cls-1" d="m132.2,278.74c-.11-.05-.22-.14-.33-.14-1.25-.07-2.39-.48-3.44-1.15"/>
      <path class="cls-1" d="m182.69,222.05c.08-.75-.68-1.99-1.4-2.06-.92-.1-1.55.39-1.85,1.29"/>
      <path class="cls-1" d="m144.93,226.13c-.37.19-.77,0-1.19.19-.37.16-.89-.03-1.34-.1-.64-.09-.71-.53-.72-1.09,0-.29-.38-.46-.73-.42"/>
      <path class="cls-1" d="m130.07,312.1c-.89.76-1.83,1.19-3.08.99-.77-.12-1.25-.52-1.73-1.01"/>
      <path class="cls-1" d="m153.33,256.75c-.11-.67-.75-.83-1.12-.65-.95.47-1.98.36-2.95.59"/>
      <path class="cls-1" d="m137.78,167.22c.48-.46.33-.98.31-1.58-.05-1.45.11-2.91.63-4.28.12-.31.09-.61.18-.91"/>
      <path class="cls-1" d="m95.01,267.75c-.73-1.35-1.08-2.72-.17-4.14"/>
      <path class="cls-1" d="m160.88,266.78c-.84-.82-1.94-.49-2.92-.61-.7-.09-1.25-.27-1.51-.97"/>
      <path class="cls-1" d="m160.37,146.07c-.88-1-2.05-1.53-3.24-2.04"/>
      <path class="cls-1" d="m111.73,310.99c-.49.19-.99.27-1.52.34-.98.13-1.65-.06-1.84-1.13"/>
      <path class="cls-1" d="m148.6,170.23c-1.73.26-2.6-.19-3.27-1.7"/>
      <path class="cls-1" d="m333.11,218.85c-.39.57-.5,1.23-.53,1.9-.02.65-.39,1.14-.74,1.65"/>
      <path class="cls-1" d="m151.01,361.25c-1.52-.08-9.04-1.11-10.58-.81-.86.17-1.66-.19-2.53-.25"/>
      <path class="cls-1" d="m187.32,304.32c-.91.63-.83,1.62-.94,2.54-.2,1.66-.9,3.24-.74,4.97.07.77.23,1.44.74,2.02l-.99,4.26c-.7.07-1.4.07-2.09.25"/>
      <path class="cls-1" d="m156.51,144.54c-.14.56-.73.92-.34,1.72.29.61-.64,1.15-1.1,1.17-.77.02-1.7.22-2.35-.51"/>
      <path class="cls-1" d="m153.38,231.09c-.66,1.99-2.33,1.95-3.97,1.96-.38,0-.76-.03-1.14-.05"/>
      <path class="cls-1" d="m140.33,321.93c.12-.58-.33-.54-.64-.51-1,.09-1.97-.15-2.96-.19"/>
      <path class="cls-1" d="m163.73,256.4c-1.09,1.02-1.22,1.09-2.29.2-.43-.36-.79-.04-1.15-.2"/>
      <path class="cls-1" d="m122.53,223.24c.99-.97,1.6-2.15,1.95-3.48"/>
      <path class="cls-1" d="m136.96,279.32q-.96-.23-1.99.38c-1.07.63-1.87.45-2.73-.65.49-.68.93-1.41,1.99-1.14"/>
      <path class="cls-1" d="m126.7,180.8c-1.49,0-2.57-1.67-1.87-2.93.12-.22.32-.54.83-.31.39.17.57.45.83.7"/>
      <path class="cls-1" d="m121.96,180.11c.32-1.18-.05-2.31-.23-3.46"/>
      <path class="cls-1" d="m113.57,230.5c-1.19.32-2.35.57-3.13-.77"/>
      <path class="cls-1" d="m139.89,328.76c-.84.22-1.66.36-2.53,0-.36-.15-.84-.1-1.25-.02-.62.12-1.18.01-1.69-.3-.53-.33-1.08-.42-1.69-.4-.3.01-.62.04-.9-.18-.42-.33-.88-.42-1.45-.41-1.33.02-1.6-.43-1.33-1.7.12-.56-.18-1.16.18-1.7"/>
      <path class="cls-1" d="m138.75,223.81c-1.34-.77-2.05-.72-3.24.25-.04.03-.15,0-.22-.02"/>
      <path class="cls-1" d="m133.39,231.65c-1.33-.14-1.36-.16-2.44-1.31-.88.36-1.86.58-2.24,1.65"/>
      <path class="cls-1" d="m233.24,270.8c-.05.63-.84,1.3.16,1.85.66.36,1.52.05,1.91-.73"/>
      <path class="cls-1" d="m152.41,136.12c-.76.04-1.42-.21-1.59-.97-.15-.63.2-1.16.9-1.33"/>
      <path class="cls-1" d="m280.97,139.02c-.82-.93-2.23-1.04-2.94-2.12"/>
      <path class="cls-1" d="m150.84,127.6c-.66-1.1-1.66-1.65-2.92-1.78"/>
      <path class="cls-1" d="m147.65,256.82c.37-1.09.48-2.18-.02-3.27"/>
      <path class="cls-1" d="m109.98,220.98c-.86,1.11-2.16,1.15-3.21.76-1.11-.42-2.14-.18-3.2-.22-.34-.01-.69.01-1.03-.01"/>
      <path class="cls-1" d="m136.64,255.74c-.87.04-1.62-.48-2.47-.53.03-.27.05-.53.08-.8"/>
      <path class="cls-1" d="m151.94,136.19c.01.39.15.72.33,1.08.45.9.69,1.84.33,2.89-.38,1.11-.51,1.22-1.58.76"/>
      <path class="cls-1" d="m160.2,220.07c-.07-.69.22-1.18.72-1.66.59-.57,1.18-1.22.92-2.19"/>
      <path class="cls-1" d="m133.64,262.95l.08-.84c-.77-.63-1.58-.37-2.39-.19"/>
      <path class="cls-1" d="m148.64,167.49c-1.09-.18-2.15-.19-2.93.75-.4.47-1.08.03-1.44.54"/>
      <path class="cls-1" d="m108.11,260.33c-.67-.13-1.39.2-2.05-.21-.19-.36.09-.78-.11-1.15"/>
      <path class="cls-1" d="m332.8,233.6c-.29-.14-.63-.23-.87-.44-1.2-1.09-2.47-.82-3.76-.24-.31.14-.64-.04-.93.13"/>
      <path class="cls-1" d="m290.54,147.18c.74-.92.49-2.11.88-3.12"/>
      <path class="cls-1" d="m103.73,228.04c.81.11,1.25.76.85,1.32-.82,1.15-.39,2.59-1.12,3.7"/>
      <path class="cls-1" d="m170.94,236.71c.51.23.72-.1.77-.5.03-.24.05-.56-.31-.73-.54-.25-1.08-.41-1.67-.52-.82-.15-.84.62-1.24.93"/>
      <path class="cls-1" d="m96.94,257.4c-.52-.29-.72-.72-.83-1.33-.1-.56.36-.97.19-1.48"/>
      <path class="cls-1" d="m117.09,164.39c-1.28-.28-2.25.35-3.2,1.06"/>
      <path class="cls-1" d="m108.63,325c-.14-1.32-1.35-2.11-2.69-1.61-.52.2-.99.34-1.53.27"/>
      <path class="cls-1" d="m109.86,315.96c-.87,1.07-.77,2.45-1.22,3.66"/>
      <path class="cls-1" d="m284.23,128.57c-.69-.04-1.32-.19-1.9-.63-.3-.23-.69-.37-1.1-.35"/>
      <path class="cls-1" d="m116.48,238.12c-.3-1.1-.11-2.11.53-3.04"/>
      <path class="cls-1" d="m241.59,318.71c-.59-.63-1.21-.78-2.13-.61-1.1.21-2.27-.01-3.42-.05"/>
      <path class="cls-1" d="m122.46,222.78c-.63-.97-.57-2.18-1.06-3.2"/>
      <path class="cls-1" d="m138.41,224.92c-1.26.94-2.08.73-2.74-.73"/>
      <path class="cls-1" d="m127.83,270.75c-.82-.61-1.62-1.07-2.62-.27-.39.31-.84.3-1.25-.2-.32-.4-.78-.68-1.42-.52-1.88.47-2.01.36-2.13-1.57"/>
      <path class="cls-1" d="m143.54,278.82c-.21.68-1.2,1.03-1.78.63-.41-.29-.6-.76-.92-1.12"/>
      <path class="cls-1" d="m169.43,242.75c-1.29,1.26-1.96,1.29-3.11.15"/>
      <path class="cls-1" d="m116.63,166.75c-1.04-.11-2.16.01-2.76-1.18-.26-.51-.79-.3-1.22-.24"/>
      <path class="cls-1" d="m281.4,136.43c-1.03-.22-1.8-1.06-2.86-1.2"/>
      <path class="cls-1" d="m164.26,126.28c-.27-1.03-.67-1.97-1.71-2.46"/>
      <path class="cls-1" d="m106.93,162.82c-.36,1.2-1.34,2.07-1.7,3.27"/>
      <path class="cls-1" d="m156.33,146.36c.85.04,1.37.57,1.83,1.21.52.71,1.14.71,1.47-.09.39-.95.91-1.58,2.02-1.64.86-.05.79-.79.83-1.39"/>
      <path class="cls-1" d="m140.52,313.01c.89-.65,1.11-1.75,1.74-2.58"/>
      <path class="cls-1" d="m171.63,184.19c-.56-.04-1.06.08-1.54.41-.4.27-.9.26-1.37.11"/>
      <path class="cls-1" d="m107.65,228.89c-.9.64-1.86.79-2.9.4"/>
      <path class="cls-1" d="m110.86,268.5c-.53-.91-.29-1.93-.4-2.9"/>
      <path class="cls-1" d="m134.18,238.83c.86-.68.86-1.7,1.06-2.65"/>
      <path class="cls-1" d="m145.19,132.66c-.46-.39-.91-.79-1.38-1.16-.36-.28-.77-.45-1.23-.24"/>
      <path class="cls-1" d="m167.88,185.65c1.12-1.56,1.23-2.54.42-3.74"/>
      <path class="cls-1" d="m168.99,219.22c-.58-.86-1.14-1.19-2.26-.62-1.18.6-2.57.79-3.86,1.16"/>
      <path class="cls-1" d="m168.47,240.82c-.94-.03-1.52.65-1.8,1.33-.37.91-1.02.99-1.74.94-.82-.06-1.77,0-2.07-1.13-.39.05-.78.1-1.16.14"/>
      <path class="cls-1" d="m142.01,215.65c-.02.54-.39.84-.73,1.2-.35.37-.73.87-1.21.63-.43-.21-.89-.67-.8-1.3.06-.37-.18-.63-.26-.94"/>
      <path class="cls-1" d="m161.22,168.84c-.99.11-1.92.36-2.63,1.12"/>
      <path class="cls-1" d="m264.65,264.83c1.2-.77,2.52-1.39,3.46-2.53.37-.45.31-1.15.84-1.52"/>
      <path class="cls-1" d="m147.29,235.99c.34-1.3.74-2.59.96-3.92"/>
      <path class="cls-1" d="m115.78,231.29c.04-.64.21-1.22.84-1.51.25-.12.59-.22.78.08.45.67,1.16.53,1.78.61.61.09,1.18.16,1.67.62.48.44.99.55,1.17-.33"/>
      <path class="cls-1" d="m139.59,367.92c-2.08.13-46.11-3.59-48.14-3.93"/>
      <path class="cls-1" d="m126.66,311.77c-.71-.55-1.61-.11-2.36-.46"/>
      <path class="cls-1" d="m132.88,215.9c-.68-.32-1.53-.09-2.12-.76-.19-.21-.19-.3-.1-.49"/>
      <path class="cls-1" d="m144.03,182.85c-.57-.86-.3-1.75-.08-2.64"/>
      <path class="cls-1" d="m141.49,338.09c-.46-.86-1.27-1.22-2.15-1.47"/>
      <path class="cls-1" d="m152.99,226.93c-.71-.49-1.42-.99-2.35-.57"/>
      <path class="cls-1" d="m133.4,336.49c-.78.2-1.53.46-1.79-.74-.08-.38-1.72-.4-2.25.01-.74.58-1.75.91-2.04,1.96"/>
      <path class="cls-1" d="m107.03,213.13c-.49.33-.98.68-1.47,1-.91.59-1.87.05-1.95-1.11-.02-.26.05-.53.07-.79"/>
      <path class="cls-1" d="m110.48,278.21c.4-1.68.67-3.37.56-5.1"/>
      <path class="cls-1" d="m165.33,235.47c-.18.2-.39.03-.58.06q-2.09.26-1.89-1.79l.03-.34"/>
      <path class="cls-1" d="m160.53,369.41c-.25-.27-.62-.23-.89-.18-1.89.31-3.74-.17-5.59-.3-1.18-.09-2.43.01-3.64-.45-.76-.29-1.76-.12-2.62.05-1.55.31-3.02.29-4.59-.06-1.02-.23-2.08-.49-3.14-.61"/>
      <path class="cls-1" d="m129.12,240.16c-.46.2-.93.06-1.37-.04-.51-.11-1-.38-.59-1.07"/>
      <path class="cls-1" d="m129.56,261.29c-.6-.07-1.07.34-1.64.43-.75.13-.27.9-.53,1.3"/>
      <path class="cls-1" d="m147.89,271.23c-.73.5-1.47.91-2.42.69-.25-.06-.09.2-.09.32"/>
      <path class="cls-1" d="m137.52,270.09c-.55-.69-.27-1.63-.68-2.36"/>
      <path class="cls-1" d="m217.71,316.94c-.3.79-.92,1.39-1.28,2.14.39,1.03,1.54.98,2.17,1.61"/>
      <path class="cls-1" d="m285.11,126.71c.49-.13.87-.55.63-.95-.47-.79-.17-1.47.02-2.2"/>
      <path class="cls-1" d="m116.97,326.4c-.28.69-.57,1.37-.67,2.11"/>
      <path class="cls-1" d="m285.89,136.18c.31-1.03-.56-1.44-1.06-2.05.49-1.17.16-2.36.12-3.54"/>
      <path class="cls-1" d="m141.16,277.33c.07.92-.63.98-1.26,1.14-.42.1-.84.02-1.26-.01"/>
      <path class="cls-1" d="m159.07,225.12c-.12.34.11.66-.03,1.03-.24.63-.67.66-1.07.33-.45-.37-.77-.89-1.14-1.35"/>
      <path class="cls-1" d="m123.6,165.71c-.69-.07-1.38-.19-2.07.03"/>
      <path class="cls-1" d="m151.65,279.05c-.9,1.01-1.61.97-2.62-.14"/>
      <path class="cls-1" d="m156.98,223.65c.08,1.49-.96,2.42-1.72,3.5"/>
      <path class="cls-1" d="m176.71,377.3c-.46.64-.08,1.37-.2,2.04"/>
      <path class="cls-1" d="m171.43,266.09c-.08-.15.01-.34-.25-.53-.77.56-2.01.61-2.34,1.88"/>
      <path class="cls-1" d="m102.33,251.51c-.57.65-1.35.79-2.13.68-.42-.06-.76-.4-.6-.95"/>
      <path class="cls-1" d="m139.59,269.95c-.53.11-.75.78-1.34.78-.26,0-.61.06-.59-.39"/>
      <path class="cls-1" d="m290.89,221.69c-.45-.57-.53-1.42-1.32-1.73"/>
      <path class="cls-1" d="m152.55,130.06c.87-.65.64-1.34.09-2.05"/>
      <path class="cls-1" d="m175.47,220.89c-.61.19-1.18.12-1.68-.29-.04-.51.27-.9.52-1.31"/>
      <path class="cls-1" d="m148.69,152.94c-.63,0-1.21.36-1.86.28"/>
      <path class="cls-1" d="m162.62,151.1c-1.41-.31-1.81-.82-1.93-2.48"/>
      <path class="cls-1" d="m128.18,332.43c-.54,1.3-.45,2.64-.28,3.98"/>
      <path class="cls-1" d="m157.27,136.83c-.17.43-.75.48-.85,1.13.75.97,1.67,2.12.39,3.52"/>
      <path class="cls-1" d="m331.08,227.82c-1.04-.06-2.07-.21-3.03-.64"/>
      <path class="cls-1" d="m145.48,233.98c-.11-.28-.14-.64-.33-.82-.92-.85-1.19-1.8-.62-2.94"/>
      <path class="cls-1" d="m144.9,270.82c-.8.23-1.63.4-2.39-.03-.35-.19-.61-.08-.81.07-.93.71-1.35.29-1.69-.63-.1-.28-.35-.5-.24-.84"/>
      <path class="cls-1" d="m147.71,341.22c.2-.79-.45-.88-.92-1.12"/>
      <path class="cls-1" d="m135.25,140.51c-.99-.33-1.08-.55-.83-2.03"/>
      <path class="cls-1" d="m156.23,153.22c-.87-.62-1.75-.45-2.63-.03"/>
      <path class="cls-1" d="m176.33,220.34c1.09.07,1.13.03,1.27-1.31"/>
      <path class="cls-1" d="m139.06,232.32c-.9-.14-1.74-.55-2.74-.32-.39.09-.81-.59-1.13-.99-.29-.35-.05-.7.2-1"/>
      <path class="cls-1" d="m124.37,215.06c-.29-.25-.64-.4-1.16-.51-.52.22-1.13.58-1.22,1.42-.04.4-.44.32-.63.51"/>
      <path class="cls-1" d="m142.26,308.14c-.04.45-.6.86-.13,1.36"/>
      <path class="cls-1" d="m286.62,120.67c.52.77-.29,1.34-.31,2.03"/>
      <path class="cls-1" d="m138.9,311.94c-.03.99-.18,1.86-1.53,1.57,0,.12.02.23.02.35"/>
      <path class="cls-1" d="m165.75,227.72c-.2-.45-.6-.48-.99-.43-1.17.14-1.44-.04-1.72-1.21"/>
      <path class="cls-1" d="m142.51,330.05c-.43-.05-.88-.02-1.23-.35"/>
      <path class="cls-1" d="m102.24,222.17c.45-1.11.2-2.27.22-3.42"/>
      <path class="cls-1" d="m139.73,220.81c-.37,1.25-.65,2.52-.83,3.81"/>
      <path class="cls-1" d="m134.96,336.87c-.21-.11-.45-.26-.67-.17-.6.25-.55-.21-.64-.53"/>
      <path class="cls-1" d="m289.09,220.25c.56-.14.59-.53.44-.99"/>
    </g>
    <path class="cls-1" d="m208.46,345.7l-1.22,13.54s-1.22,5.44,1.02,4.76"/>
    <line class="cls-1" x1="181.92" y1="374.71" x2="209.89" y2="397.64"/>
  </g>
</svg>