<svg xmlns="http://www.w3.org/2000/svg" xmlns:xlink="http://www.w3.org/1999/xlink" width="75" height="75" viewBox="0 0 75 75">
  <defs>
    <clipPath id="clip-image-mobile-own">
      <rect width="75" height="75"/>
    </clipPath>
  </defs>
  <g id="image-mobile-own" clip-path="url(#clip-image-mobile-own)">
    <rect width="75" height="75" fill="#fff"/>
    <g id="Layer_1" data-name="Layer 1" transform="translate(-2347.154 -912.946)">
      <g id="Group_31" data-name="Group 31">
        <g id="Group_30" data-name="Group 30">
          <g id="Group_29" data-name="Group 29">
            <g id="Group_26" data-name="Group 26">
              <g id="Group_25" data-name="Group 25">
                <path id="Path_19" data-name="Path 19" d="M2369.221,967.463l14.2,8.229a3.628,3.628,0,0,0,3.292,0l13.371-7.719a1,1,0,0,0,0-1.9l-14.2-8.23a3.637,3.637,0,0,0-3.295,0l-13.37,7.719a1,1,0,0,0,0,1.9Z" fill="#767676"/>
                <path id="Path_20" data-name="Path 20" d="M2400.768,958.179v-1.263a1.156,1.156,0,0,0-.682-.95l-14.2-8.23a3.64,3.64,0,0,0-3.295,0l-13.371,7.72a1.159,1.159,0,0,0-.682.953v1.22l.008,0a1.119,1.119,0,0,0,.674,1l14.2,8.23a3.642,3.642,0,0,0,3.294,0l13.371-7.719a1.163,1.163,0,0,0,.682-.957Z" fill="#e4e5e6"/>
                <path id="Path_21" data-name="Path 21" d="M2380.784,958.3a16.311,16.311,0,0,0,5.485-.606h.006l0,0c1.348-.776,2.1-6.382-2.258-10.337a3.217,3.217,0,0,0-1.42.381l-13.371,7.72a1.159,1.159,0,0,0-.682.953v.042a38.558,38.558,0,0,0,12.246,1.848Z" opacity="0.3" style="mix-blend-mode: overlay;isolation: isolate"/>
                <path id="Path_22" data-name="Path 22" d="M2400.086,955.966a1.006,1.006,0,0,1,0,1.9l-13.371,7.718a3.638,3.638,0,0,1-3.3,0l-14.2-8.228a1.158,1.158,0,0,1-.682-.95h0v1.22l.008,0a1.119,1.119,0,0,0,.674,1l14.2,8.23a3.642,3.642,0,0,0,3.294,0l13.371-7.719a1.163,1.163,0,0,0,.682-.957h0v-1.263A1.156,1.156,0,0,0,2400.086,955.966Z" opacity="0.3" style="mix-blend-mode: overlay;isolation: isolate"/>
                <g id="Group_24" data-name="Group 24">
                  <path id="Path_23" data-name="Path 23" d="M2385.064,967.546a3.654,3.654,0,0,1-1.79-.434l-14.2-8.231a1.438,1.438,0,0,1-.822-1.192.3.3,0,0,1-.007-.059v-1.22a1.435,1.435,0,0,1,.829-1.206l13.371-7.72a3.9,3.9,0,0,1,3.587,0l14.2,8.229a1.434,1.434,0,0,1,.829,1.2v1.263l0,.028a1.462,1.462,0,0,1-.828,1.183l-13.371,7.719A3.655,3.655,0,0,1,2385.064,967.546Zm-16.231-9.978a.281.281,0,0,1,.007.083c-.016.26.171.517.529.724l14.2,8.23a3.373,3.373,0,0,0,3,0l13.371-7.72a.9.9,0,0,0,.536-.7v-1.265a.887.887,0,0,0-.536-.7l-14.2-8.23a3.366,3.366,0,0,0-3,0l-13.371,7.72a.887.887,0,0,0-.536.7Zm31.935.611h0Z"/>
                </g>
              </g>
            </g>
            <g id="Group_28" data-name="Group 28">
              <path id="Path_24" data-name="Path 24" d="M2393.337,925.042l2.48,1.432a.351.351,0,0,1,.148.321V941.71c0,5.835-8.616,15.326-8.984,15.728a.879.879,0,0,1-.2.163.448.448,0,0,1-.2.065,13.593,13.593,0,0,1-6.537-1.252v0l-2.512-1.451h0a4.471,4.471,0,0,1-2.418-4.085V935.962a1.141,1.141,0,0,1,.515-.854,26.843,26.843,0,0,0,8.371-7.335c.174-.257.417-.4.593-.342,1.723.548,4.927-.342,8.4-2.344a.32.32,0,0,1,.346-.044Z" fill="#fff"/>
              <path id="Path_25" data-name="Path 25" d="M2375.633,935.108a26.843,26.843,0,0,0,8.371-7.335c.174-.257.417-.4.593-.342,1.723.548,4.927-.342,8.4-2.344a.32.32,0,0,1,.346-.044h0l2.48,1.432h0a.32.32,0,0,0-.343.045c-3.469,2-6.672,2.893-8.4,2.345-.175-.055-.419.085-.594.341a26.854,26.854,0,0,1-8.369,7.336,1.132,1.132,0,0,0-.515.854v14.917a4.474,4.474,0,0,0,2.45,4.1h0v0l-2.512-1.451h0a4.471,4.471,0,0,1-2.418-4.085V935.962A1.141,1.141,0,0,1,2375.633,935.108Z" fill="#767676"/>
              <g id="Group_27" data-name="Group 27">
                <path id="Path_26" data-name="Path 26" d="M2379.974,956.607a.2.2,0,0,1-.03-.014l-2.511-1.45-.015-.009a4.655,4.655,0,0,1-2.5-4.254V935.962a1.34,1.34,0,0,1,.617-1.031,26.659,26.659,0,0,0,8.3-7.273.8.8,0,0,1,.825-.422c1.669.532,4.823-.36,8.218-2.32a.523.523,0,0,1,.553-.056l.009.005,2.481,1.432a.55.55,0,0,1,.249.5V941.71c0,5.922-8.669,15.463-9.039,15.868a1.116,1.116,0,0,1-.245.2.635.635,0,0,1-.288.092c-.038,0-.279.016-.661.016A13.088,13.088,0,0,1,2379.974,956.607Zm13.26-31.388c-.02-.011-.066,0-.14.045-3.5,2.023-6.782,2.927-8.557,2.363-.063-.019-.228.062-.364.261a27.058,27.058,0,0,1-8.437,7.4.949.949,0,0,0-.413.677V950.88a4.272,4.272,0,0,0,2.315,3.907l.015.01,2.47,1.426.026.013c2.541,1.443,6.267,1.235,6.425,1.225a.249.249,0,0,0,.106-.037.686.686,0,0,0,.149-.124c.365-.4,8.931-9.825,8.931-15.59V926.794c0-.08-.023-.13-.045-.143l-2.473-1.427Z" stroke="#000" stroke-miterlimit="10" stroke-width="0.202"/>
              </g>
              <path id="Path_27" data-name="Path 27" d="M2386.783,945.266l2.731-4.725-.753-.434-1.977,3.423-2.969-1.711-.754,1.3Z"/>
              <path id="Path_28" data-name="Path 28" d="M2386.783,945.266l2.73-4.725-.753-.434-1.977,3.423-2.525-1.454a7.013,7.013,0,0,1,2.525-2.783c1.858-1.072,3.362-.205,3.362,1.936a7.422,7.422,0,0,1-3.362,5.817c-1.857,1.073-3.361.206-3.362-1.936a5.782,5.782,0,0,1,.256-1.632Z" fill="#767676"/>
            </g>
          </g>
        </g>
        <rect id="Rectangle_2" data-name="Rectangle 2" width="75.151" height="75.151" transform="translate(2347.079 912.871)" fill="#efebe6" style="mix-blend-mode: multiply;isolation: isolate"/>
      </g>
    </g>
  </g>
</svg>
