<svg xmlns="http://www.w3.org/2000/svg" xmlns:xlink="http://www.w3.org/1999/xlink" width="75" height="75" viewBox="0 0 75 75">
  <defs>
    <clipPath id="clip-image-mobile-use">
      <rect width="75" height="75"/>
    </clipPath>
  </defs>
  <g id="image-mobile-use" clip-path="url(#clip-image-mobile-use)">
    <rect width="75" height="75" fill="#fff"/>
    <g id="Layer_1" data-name="Layer 1" transform="translate(-2442.154 -912.946)">
      <g id="Group_23" data-name="Group 23">
        <g id="Group_22" data-name="Group 22">
          <g id="Group_5" data-name="Group 5">
            <g id="Group_4" data-name="Group 4">
              <g id="Group_3" data-name="Group 3">
                <g id="Group_2" data-name="Group 2">
                  <path id="Path_1" data-name="Path 1" d="M2464.221,965.341l14.2,8.23a3.628,3.628,0,0,0,3.292,0l13.371-7.72a1,1,0,0,0,0-1.9l-14.2-8.231a3.637,3.637,0,0,0-3.295,0l-13.37,7.72a1,1,0,0,0,0,1.9Z" fill="#767676"/>
                  <path id="Path_2" data-name="Path 2" d="M2495.768,956.057v-1.263a1.156,1.156,0,0,0-.682-.95l-14.2-8.23a3.64,3.64,0,0,0-3.295,0l-13.371,7.72a1.158,1.158,0,0,0-.682.953v1.219l.008,0a1.118,1.118,0,0,0,.674.995l14.2,8.231a3.648,3.648,0,0,0,3.294,0l13.371-7.72a1.163,1.163,0,0,0,.682-.957Z" fill="#e4e5e6"/>
                  <path id="Path_3" data-name="Path 3" d="M2474.874,958.95c2.778,0,5.817-3.041,6.4-3.376h.006l0,0c1.348-.776,2.1-6.381-2.258-10.337a3.231,3.231,0,0,0-1.42.382l-13.371,7.72a1.158,1.158,0,0,0-.682.953l-.007.6c3.815,1.638,7.712,4.062,11.341,4.061Z" opacity="0.3" style="mix-blend-mode: overlay;isolation: isolate"/>
                  <path id="Path_4" data-name="Path 4" d="M2495.086,953.844a1.006,1.006,0,0,1,0,1.9l-13.371,7.719a3.641,3.641,0,0,1-3.3,0l-14.2-8.228a1.158,1.158,0,0,1-.682-.95h0v1.219l.008,0a1.118,1.118,0,0,0,.674.995l14.2,8.231a3.648,3.648,0,0,0,3.294,0l13.371-7.72a1.163,1.163,0,0,0,.682-.957h0v-1.263A1.156,1.156,0,0,0,2495.086,953.844Z" opacity="0.3" style="mix-blend-mode: overlay;isolation: isolate"/>
                  <g id="Group_1" data-name="Group 1">
                    <path id="Path_5" data-name="Path 5" d="M2480.064,965.424a3.632,3.632,0,0,1-1.79-.434l-14.2-8.23a1.441,1.441,0,0,1-.822-1.193.3.3,0,0,1-.007-.059v-1.219a1.436,1.436,0,0,1,.829-1.207l13.371-7.719a3.9,3.9,0,0,1,3.587,0l14.2,8.23a1.433,1.433,0,0,1,.829,1.2v1.263l0,.028a1.46,1.46,0,0,1-.828,1.183l-13.371,7.72A3.655,3.655,0,0,1,2480.064,965.424Zm-16.231-9.978a.287.287,0,0,1,.007.083c-.016.261.171.518.529.724l14.2,8.231a3.37,3.37,0,0,0,3,0l13.371-7.719a.9.9,0,0,0,.536-.7v-1.265a.886.886,0,0,0-.536-.7l-14.2-8.23a3.367,3.367,0,0,0-3,0l-13.371,7.72a.888.888,0,0,0-.536.7Zm31.935.611h0Z"/>
                  </g>
                </g>
              </g>
            </g>
          </g>
          <g id="Group_21" data-name="Group 21">
            <g id="Group_19" data-name="Group 19">
              <g id="Group_16" data-name="Group 16">
                <g id="Group_15" data-name="Group 15">
                  <g id="Group_14" data-name="Group 14">
                    <g id="Group_13" data-name="Group 13">
                      <g id="Group_6" data-name="Group 6">
                        <path id="Path_6" data-name="Path 6" d="M2489.749,933.584c1.165-.673,2.184-.349,2.472.785l2.454,9.661a4.282,4.282,0,0,1-.453,2.776,5.383,5.383,0,0,1-2,2.283l-16.154,9.327a1.679,1.679,0,0,1-2.009.031,2.381,2.381,0,0,1-.467-2.243l2.392-12.46a5.673,5.673,0,0,1,2.459-3.631Z" fill="none"/>
                      </g>
                      <g id="Group_7" data-name="Group 7">
                        <path id="Path_7" data-name="Path 7" d="M2485.965,930.157a1.8,1.8,0,0,0-1.81.177l-11.307,6.528a5.677,5.677,0,0,0-2.46,3.632L2468,952.953a2.383,2.383,0,0,0,.468,2.244,1.247,1.247,0,0,0,.2.145l2.711,1.488a1.2,1.2,0,0,1-.2-.145,2.378,2.378,0,0,1-.468-2.243l2.392-12.46a5.671,5.671,0,0,1,2.459-3.631l11.308-6.529a1.8,1.8,0,0,1,1.81-.177Z" fill="#767676"/>
                      </g>
                      <g id="Group_8" data-name="Group 8">
                        <path id="Path_8" data-name="Path 8" d="M2487.743,931.327" fill="#e4e5e6"/>
                        <path id="Path_9" data-name="Path 9" d="M2487.743,931.327a3.877,3.877,0,0,0-.732.336l-11.35,6.417a6.487,6.487,0,0,0-2.811,4.151l-2.392,12.459a2.964,2.964,0,0,0,.108,1.769,5.549,5.549,0,0,0,1.193.707c.253.06,2.46,1.506,2.769,1.579a1.238,1.238,0,0,1-.539-.279,2.383,2.383,0,0,1-.467-2.244l2.392-12.459a5.675,5.675,0,0,1,2.459-3.632l11.308-6.528a1.625,1.625,0,0,1,2.094.051" fill="#d1d2d4"/>
                      </g>
                      <g id="Group_10" data-name="Group 10">
                        <g id="Group_9" data-name="Group 9">
                          <path id="Path_10" data-name="Path 10" d="M2475.988,937.523a.568.568,0,0,1-.1-.009.561.561,0,0,1-.454-.651l.793-4.468a8,8,0,0,1,3.414-4.976,2.994,2.994,0,0,1,2.688-.294,2.237,2.237,0,0,1,1.283,1.618l.793,3.552a.561.561,0,0,1-1.1.245l-.793-3.553a1.127,1.127,0,0,0-.639-.833,1.893,1.893,0,0,0-1.674.238,6.959,6.959,0,0,0-2.87,4.2l-.793,4.468A.562.562,0,0,1,2475.988,937.523Z" fill="#e4e5e6" stroke="#000" stroke-miterlimit="10" stroke-width="0.539"/>
                        </g>
                      </g>
                      <g id="Group_12" data-name="Group 12">
                        <g id="Group_11" data-name="Group 11">
                          <path id="Path_11" data-name="Path 11" d="M2478.676,939.443a.555.555,0,0,1-.1-.009.561.561,0,0,1-.455-.651l.793-4.468a8,8,0,0,1,3.414-4.976,2.994,2.994,0,0,1,2.688-.294,2.237,2.237,0,0,1,1.283,1.618l.793,3.552a.561.561,0,0,1-1.1.245l-.793-3.552a1.127,1.127,0,0,0-.639-.834,1.893,1.893,0,0,0-1.674.238,6.959,6.959,0,0,0-2.87,4.2l-.793,4.468A.562.562,0,0,1,2478.676,939.443Z" fill="#e4e5e6" stroke="#000" stroke-miterlimit="10" stroke-width="0.539"/>
                        </g>
                      </g>
                    </g>
                  </g>
                </g>
              </g>
              <g id="Group_17" data-name="Group 17">
                <path id="Path_12" data-name="Path 12" d="M2489.749,933.584c1.165-.673,2.184-.349,2.472.785l2.454,9.661a4.282,4.282,0,0,1-.453,2.776,5.383,5.383,0,0,1-2,2.283l-16.154,9.327a1.679,1.679,0,0,1-2.009.031,2.381,2.381,0,0,1-.467-2.243l2.392-12.46a5.673,5.673,0,0,1,2.459-3.631Z" fill="#fff" stroke="#000" stroke-miterlimit="10" stroke-width="0.539"/>
              </g>
              <path id="Path_13" data-name="Path 13" d="M2475.711,935.3l-2.863,1.654a5.672,5.672,0,0,0-2.46,3.631l-2.494,12.366a2.378,2.378,0,0,0,.468,2.243,1.2,1.2,0,0,0,.2.145l5.879,3.354" fill="none" stroke="#000" stroke-miterlimit="10" stroke-width="0.539"/>
              <line id="Line_1" data-name="Line 1" x1="2.217" y2="1.28" transform="translate(2476.982 933.292)" fill="none" stroke="#000" stroke-miterlimit="10" stroke-width="0.539"/>
              <line id="Line_2" data-name="Line 2" x1="2.025" y2="1.169" transform="translate(2480.964 931.103)" fill="none" stroke="#000" stroke-miterlimit="10" stroke-width="0.539"/>
              <path id="Path_14" data-name="Path 14" d="M2484.741,930.17a2.853,2.853,0,0,0-.586.26l-.13.075" fill="none" stroke="#000" stroke-miterlimit="10" stroke-width="0.539"/>
              <g id="Group_18" data-name="Group 18">
                <path id="Path_15" data-name="Path 15" d="M2478.516,936.569l-2.77,1.6a6.819,6.819,0,0,0-2.965,4.367l-.723,3.769s-1.346,7.028-1.635,8.591a2.993,2.993,0,0,0,.1,1.576" fill="none" stroke="#000" stroke-miterlimit="10" stroke-width="0.539"/>
                <line id="Line_3" data-name="Line 3" x1="5.813" y2="3.364" transform="translate(2479.787 932.469)" fill="none" stroke="#000" stroke-miterlimit="10" stroke-width="0.539"/>
                <path id="Path_16" data-name="Path 16" d="M2487.87,931.358a3.268,3.268,0,0,0-1.226.512" fill="none" stroke="#000" stroke-miterlimit="10" stroke-width="0.539"/>
                <path id="Path_17" data-name="Path 17" d="M2491.478,933.365" fill="none" stroke="#000" stroke-miterlimit="10" stroke-width="0.256"/>
              </g>
              <line id="Line_4" data-name="Line 4" x2="5.448" y2="3.076" transform="translate(2486.231 930.407)" fill="none" stroke="#000" stroke-miterlimit="10" stroke-width="0.539"/>
            </g>
            <g id="Group_20" data-name="Group 20">
              <path id="Path_18" data-name="Path 18" d="M2488.446,941.01a.739.739,0,0,1-.333.576l-6.207,3.584c-.183.105-.333.019-.333-.192v-.9a.737.737,0,0,1,.333-.576l6.207-3.584c.183-.106.333-.019.333.192Z" fill="#221f20"/>
            </g>
          </g>
        </g>
        <rect id="Rectangle_1" data-name="Rectangle 1" width="75.151" height="75.151" transform="translate(2442.079 912.871)" fill="#efebe6" style="mix-blend-mode: multiply;isolation: isolate"/>
      </g>
    </g>
  </g>
</svg>
