<svg xmlns="http://www.w3.org/2000/svg" xmlns:xlink="http://www.w3.org/1999/xlink" width="75" height="75" viewBox="0 0 75 75">
  <defs>
    <clipPath id="clip-image-mobile-scan">
      <rect width="75" height="75"/>
    </clipPath>
  </defs>
  <g id="image-mobile-scan" clip-path="url(#clip-image-mobile-scan)">
    <rect width="75" height="75" fill="#fff"/>
    <g id="Layer_1" data-name="Layer 1" transform="translate(-2252.154 -912.946)">
      <g id="Group_40" data-name="Group 40">
        <g id="Group_39" data-name="Group 39">
          <g id="Group_35" data-name="Group 35">
            <g id="Group_34" data-name="Group 34">
              <g id="Group_33" data-name="Group 33">
                <path id="Path_29" data-name="Path 29" d="M2274.221,967.614l14.2,8.229a3.625,3.625,0,0,0,3.292,0l13.371-7.719a1,1,0,0,0,0-1.9l-14.2-8.23a3.637,3.637,0,0,0-3.295,0l-13.37,7.72a1,1,0,0,0,0,1.9Z" fill="#767676"/>
                <path id="Path_30" data-name="Path 30" d="M2305.768,958.33v-1.263a1.156,1.156,0,0,0-.682-.95l-14.2-8.23a3.637,3.637,0,0,0-3.295,0l-13.371,7.719a1.159,1.159,0,0,0-.682.954v1.219l.008,0a1.118,1.118,0,0,0,.674.995l14.2,8.23a3.642,3.642,0,0,0,3.294,0l13.371-7.719a1.163,1.163,0,0,0,.682-.957Z" fill="#e4e5e6"/>
                <path id="Path_31" data-name="Path 31" d="M2282.883,958.391c2.778,0,7.761-.271,8.339-.606h.006l0,0c1.348-.776,2.1-6.382-2.258-10.337a3.212,3.212,0,0,0-1.419.382l-13.371,7.719a1.159,1.159,0,0,0-.683.953l.12.655,4.049,2.349c3.311,1.7,3.362,1.693,5.894,2.041Z" opacity="0.3" style="mix-blend-mode: overlay;isolation: isolate"/>
                <path id="Path_32" data-name="Path 32" d="M2305.086,956.117a1.006,1.006,0,0,1,0,1.9l-13.371,7.719a3.641,3.641,0,0,1-3.3,0l-14.651-8.491c-.455-.263-.228-.342-.228-.687v1.221l.008,0a1.118,1.118,0,0,0,.674.995l14.2,8.23a3.642,3.642,0,0,0,3.294,0l13.371-7.719a1.163,1.163,0,0,0,.682-.957h0v-1.263A1.156,1.156,0,0,0,2305.086,956.117Z" opacity="0.3" style="mix-blend-mode: overlay;isolation: isolate"/>
                <g id="Group_32" data-name="Group 32">
                  <path id="Path_33" data-name="Path 33" d="M2290.064,967.7a3.643,3.643,0,0,1-1.79-.434l-14.2-8.231a1.438,1.438,0,0,1-.822-1.192.3.3,0,0,1-.007-.059v-1.219a1.435,1.435,0,0,1,.829-1.207l13.371-7.72a3.9,3.9,0,0,1,3.587,0l14.2,8.23a1.431,1.431,0,0,1,.829,1.2v1.263l0,.028a1.462,1.462,0,0,1-.828,1.183l-13.371,7.72A3.655,3.655,0,0,1,2290.064,967.7Zm-16.231-9.978a.287.287,0,0,1,.007.083c-.016.26.171.517.529.724l14.2,8.23a3.373,3.373,0,0,0,3,0l13.371-7.72a.9.9,0,0,0,.536-.7v-1.265a.887.887,0,0,0-.536-.7l-14.2-8.23a3.366,3.366,0,0,0-3,0l-13.371,7.72a.887.887,0,0,0-.536.7Zm31.935.611h0Z"/>
                </g>
              </g>
            </g>
          </g>
          <path id="Path_34" data-name="Path 34" d="M2288.691,930.209l-7.37,7.813.064,22.643,1.917,1.114,14.76-8.522L2298,930.613l-1.917-1.114Z" fill="#fff"/>
          <g id="Group_38" data-name="Group 38">
            <path id="Path_35" data-name="Path 35" d="M2285.943,933.2a12.973,12.973,0,0,1-.749-1.583,10.6,10.6,0,0,1-.766-3.743,4.96,4.96,0,0,1,.339-1.932,2.5,2.5,0,0,1,.451-.713,1.784,1.784,0,0,1,.667-.46.369.369,0,1,1,.267.688h0a1.059,1.059,0,0,0-.393.274,2.068,2.068,0,0,0-.433.84,4.816,4.816,0,0,0-.16,1.3,9.88,9.88,0,0,0,.716,3.476,12.62,12.62,0,0,0,.591,1.282" fill="#221f20"/>
            <path id="Path_36" data-name="Path 36" d="M2298.137,930.489l-1.907-1.108-7.354.706,1.907,1.108Z" fill="#e4e5e6"/>
            <path id="Path_37" data-name="Path 37" d="M2283.449,938.969l-1.907-1.108.064,22.533,1.907,1.108Z" fill="#767676"/>
            <path id="Path_38" data-name="Path 38" d="M2290.783,931.194l-1.907-1.108-7.334,7.775,1.907,1.108Z" fill="#e4e5e6"/>
            <path id="Path_39" data-name="Path 39" d="M2298.137,930.489l.064,22.533-14.688,8.48-.064-22.533,7.334-7.775Zm-7.337,6.5a2.431,2.431,0,0,0,1.1-1.909c0-.7-.5-.984-1.108-.632a2.429,2.429,0,0,0-1.1,1.908c0,.7.5.985,1.11.633" fill="#fff" opacity="0.3"/>
            <g id="Group_37" data-name="Group 37">
              <path id="Path_40" data-name="Path 40" d="M2291.192,936.674c-.014.015-.028.029-.043.043s-.046.044-.07.064l-.042.037c-.026.022-.053.042-.08.062l-.037.028c-.039.028-.08.054-.12.078l-1.109-.645v.012c0,.7.5.985,1.109.633a1.947,1.947,0,0,0,.459-.382l0,0C2291.236,936.63,2291.214,936.652,2291.192,936.674Z" fill="none"/>
              <path id="Path_41" data-name="Path 41" d="M2291.607,934.388a.358.358,0,0,1,.041.029A.358.358,0,0,0,2291.607,934.388Z" fill="none"/>
              <path id="Path_42" data-name="Path 42" d="M2291.822,934.655c.01.024.02.049.029.075C2291.842,934.7,2291.832,934.679,2291.822,934.655Z" fill="none"/>
              <path id="Path_43" data-name="Path 43" d="M2291.575,934.366h0Z" fill="none"/>
              <path id="Path_44" data-name="Path 44" d="M2291.672,934.44a.474.474,0,0,1,.04.038A.474.474,0,0,0,2291.672,934.44Z" fill="none"/>
              <path id="Path_45" data-name="Path 45" d="M2291.4,936.435l-.038.048c-.02.026-.041.052-.063.077l0,0a2.592,2.592,0,0,0,.169-.219l-.006.008Q2291.43,936.393,2291.4,936.435Z" fill="none"/>
              <path id="Path_46" data-name="Path 46" d="M2291.781,934.575c.011.019.023.039.033.06C2291.8,934.614,2291.792,934.594,2291.781,934.575Z" fill="none"/>
              <path id="Path_47" data-name="Path 47" d="M2291.73,934.5a.455.455,0,0,1,.037.049A.455.455,0,0,0,2291.73,934.5Z" fill="none"/>
              <path id="Path_48" data-name="Path 48" d="M2291.574,936.172l-.033.054c-.016.025-.031.051-.047.075l0,0c.049-.074.094-.151.136-.229l-.008.013C2291.6,936.116,2291.59,936.144,2291.574,936.172Z" fill="none"/>
              <path id="Path_49" data-name="Path 49" d="M2291.853,934.739a1.121,1.121,0,0,1,.048.338c0,.049,0,.1-.007.148l-.006.048c0,.035-.009.069-.015.1l-.011.056c-.006.033-.014.066-.023.1,0,.018-.009.037-.015.055-.01.036-.021.071-.033.106v.005a1.929,1.929,0,0,0,.111-.622A1.121,1.121,0,0,0,2291.853,934.739Z" fill="none"/>
              <path id="Path_50" data-name="Path 50" d="M2291.731,935.854l-.015.038c-.021.048-.044.1-.068.144h0a2.56,2.56,0,0,0,.128-.3v0C2291.762,935.78,2291.747,935.817,2291.731,935.854Z" fill="none"/>
              <path id="Path_51" data-name="Path 51" d="M2291.824,935.588c.006-.018.011-.037.015-.055.009-.034.017-.067.023-.1l.011-.056c.006-.035.011-.069.015-.1l.006-.048c0-.05.007-.1.007-.148a1.121,1.121,0,0,0-.048-.338l0-.009c-.009-.026-.019-.051-.029-.075l-.008-.02c-.01-.021-.022-.041-.033-.06l-.014-.024a.455.455,0,0,0-.037-.049c-.006-.008-.012-.017-.018-.024a.474.474,0,0,0-.04-.038.269.269,0,0,0-.024-.023.358.358,0,0,0-.041-.029l-.031-.021h0a.782.782,0,0,0-.782.079,2.431,2.431,0,0,0-1.1,1.9l1.109.645c.04-.024.081-.05.12-.078l.037-.028c.027-.02.054-.04.08-.062l.042-.037c.024-.02.047-.041.07-.064s.029-.028.043-.043.044-.044.065-.067l0,0,.037-.042,0,0c.022-.025.043-.051.063-.077l.038-.048q.031-.042.06-.084l.006-.008.027-.04,0,0c.016-.024.031-.05.047-.075l.033-.054c.016-.028.031-.056.046-.085l.008-.013.02-.037h0c.024-.048.047-.1.068-.144l.015-.038c.016-.037.031-.074.044-.111v0l.014-.04v-.005C2291.8,935.659,2291.814,935.624,2291.824,935.588Z" fill="#767676"/>
              <g id="Group_36" data-name="Group 36">
                <path id="Path_52" data-name="Path 52" d="M2290.436,937.124l-.043.006a.568.568,0,0,1-.07.005h0a.826.826,0,0,0,.231-.04.356.356,0,0,1-.044.012C2290.485,937.114,2290.46,937.119,2290.436,937.124Z" fill="none"/>
                <path id="Path_53" data-name="Path 53" d="M2290.216,937.13l-.032,0a.528.528,0,0,1-.091-.026.6.6,0,0,0,.192.036h0C2290.26,937.135,2290.238,937.133,2290.216,937.13Z" fill="none"/>
                <path id="Path_54" data-name="Path 54" d="M2290.044,937.077l-.028-.013Z" fill="none"/>
                <path id="Path_55" data-name="Path 55" d="M2289.691,936.341v.012a.773.773,0,0,0,.325.711l.028.013a.437.437,0,0,0,.049.023.528.528,0,0,0,.091.026l.032,0c.022,0,.044.005.067.006h.04a.568.568,0,0,0,.07-.005l.043-.006c.024-.005.049-.01.073-.017a.356.356,0,0,0,.044-.012h0l.081-.03.04-.016c.041-.018.082-.039.125-.063" opacity="0.3"/>
                <path id="Path_56" data-name="Path 56" d="M2298.138,930.489l-7.355.7-7.334,7.775.064,22.533,14.688-8.48Z" fill="#c0c2c3"/>
                <path id="Path_57" data-name="Path 57" d="M2290.554,937.095Z" opacity="0.3" style="mix-blend-mode: overlay;isolation: isolate"/>
                <path id="Path_58" data-name="Path 58" d="M2290.3,937.137l.026,0h-.026Z" opacity="0.3" style="mix-blend-mode: overlay;isolation: isolate"/>
              </g>
              <path id="Path_59" data-name="Path 59" d="M2291.646,936.041l0,0-.02.037Z" opacity="0.3" style="mix-blend-mode: overlay;isolation: isolate"/>
              <path id="Path_60" data-name="Path 60" d="M2291.78,935.729l.01-.03-.014.04Z" opacity="0.3" style="mix-blend-mode: overlay;isolation: isolate"/>
              <path id="Path_61" data-name="Path 61" d="M2291.485,936.314l.007-.011-.027.04Z" opacity="0.3" style="mix-blend-mode: overlay;isolation: isolate"/>
              <path id="Path_62" data-name="Path 62" d="M2291.278,936.584l.018-.022-.037.042Z" opacity="0.3" style="mix-blend-mode: overlay;isolation: isolate"/>
              <path id="Path_63" data-name="Path 63" d="M2291.579,934.368h0l.031.021Z" opacity="0.3" style="mix-blend-mode: overlay;isolation: isolate"/>
              <path id="Path_64" data-name="Path 64" d="M2291.851,934.73l0,.009Z" opacity="0.3" style="mix-blend-mode: overlay;isolation: isolate"/>
              <path id="Path_65" data-name="Path 65" d="M2291.648,934.417a.269.269,0,0,1,.024.023A.269.269,0,0,0,2291.648,934.417Z" opacity="0.3" style="mix-blend-mode: overlay;isolation: isolate"/>
              <path id="Path_66" data-name="Path 66" d="M2291.814,934.635l.008.02Z" opacity="0.3" style="mix-blend-mode: overlay;isolation: isolate"/>
              <path id="Path_67" data-name="Path 67" d="M2291.767,934.551l.014.024Z" opacity="0.3" style="mix-blend-mode: overlay;isolation: isolate"/>
              <path id="Path_68" data-name="Path 68" d="M2291.712,934.478c.006.007.012.016.018.024C2291.724,934.494,2291.718,934.485,2291.712,934.478Z" opacity="0.3" style="mix-blend-mode: overlay;isolation: isolate"/>
            </g>
            <path id="Path_69" data-name="Path 69" d="M2290.661,937.055a1.387,1.387,0,0,0,.139-.069,2.431,2.431,0,0,0,1.1-1.909c0-.7-.5-.984-1.108-.632-.045.026-.089.055-.132.086v-3.207l.122-.13,7.354-.7.064,22.533-7.54,4.353Z" fill="#e4e5e6"/>
            <path id="Path_70" data-name="Path 70" d="M2288.467,944.118a.292.292,0,0,0-.133.231l.009.828c0,.085.06.119.134.077l4.706-2.717a.3.3,0,0,0,.134-.232l-.009-.828c0-.085-.06-.119-.134-.076Z" fill="#fff"/>
            <path id="Path_71" data-name="Path 71" d="M2288.467,946.61a.29.29,0,0,0-.133.231l.009.828c0,.085.06.119.134.077l4.706-2.717a.3.3,0,0,0,.134-.232l-.009-.828c0-.085-.06-.119-.134-.076Z" fill="#fff"/>
            <path id="Path_72" data-name="Path 72" d="M2288.467,949.1a.29.29,0,0,0-.133.231l.009.828c0,.085.06.119.134.077l4.706-2.717a.3.3,0,0,0,.134-.232l-.009-.828c0-.085-.06-.119-.134-.076Z" fill="#fff"/>
            <path id="Path_73" data-name="Path 73" d="M2288.467,951.594a.29.29,0,0,0-.133.231l.009.828c0,.085.06.12.134.077l4.706-2.717a.3.3,0,0,0,.134-.232l-.009-.828c0-.085-.06-.119-.134-.076Z" fill="#fff"/>
            <path id="Path_74" data-name="Path 74" d="M2288.7,930.284l-7.334,7.775.064,22.533,1.907,1.108,14.688-8.48-.064-22.533-1.907-1.108Z" fill="none" stroke="#000" stroke-miterlimit="10" stroke-width="0.55"/>
            <path id="Path_75" data-name="Path 75" d="M2290.787,936.969a2.426,2.426,0,0,0,1.1-1.909c0-.7-.5-.984-1.109-.631a2.428,2.428,0,0,0-1.1,1.908c0,.7.5.985,1.109.632" fill="#fff" opacity="0.3"/>
            <path id="Path_76" data-name="Path 76" d="M2291.18,936.658l-.043.043c-.023.022-.047.043-.07.064s-.028.025-.043.037-.053.042-.079.062l-.037.028c-.04.027-.08.053-.121.077l-1.109-.644v.012c0,.7.5.985,1.109.632a1.969,1.969,0,0,0,.459-.381l0,0C2291.223,936.613,2291.2,936.636,2291.18,936.658Z" fill="none"/>
            <path id="Path_77" data-name="Path 77" d="M2291.594,934.371c.014.01.029.018.042.029C2291.623,934.389,2291.608,934.381,2291.594,934.371Z" fill="none"/>
            <path id="Path_78" data-name="Path 78" d="M2291.809,934.638a.585.585,0,0,1,.029.075A.585.585,0,0,0,2291.809,934.638Z" fill="none"/>
            <path id="Path_79" data-name="Path 79" d="M2291.562,934.349h0Z" fill="none"/>
            <path id="Path_80" data-name="Path 80" d="M2291.66,934.423a.44.44,0,0,1,.039.038A.44.44,0,0,0,2291.66,934.423Z" fill="none"/>
            <path id="Path_81" data-name="Path 81" d="M2291.386,936.418l-.037.048c-.021.026-.042.052-.064.077v0a2.415,2.415,0,0,0,.168-.219l0,.008C2291.427,936.363,2291.407,936.391,2291.386,936.418Z" fill="none"/>
            <path id="Path_82" data-name="Path 82" d="M2291.768,934.558c.012.02.023.039.033.06C2291.791,934.6,2291.78,934.578,2291.768,934.558Z" fill="none"/>
            <path id="Path_83" data-name="Path 83" d="M2291.718,934.485c.012.016.025.032.037.049C2291.743,934.517,2291.73,934.5,2291.718,934.485Z" fill="none"/>
            <path id="Path_84" data-name="Path 84" d="M2291.562,936.155c-.011.018-.023.036-.034.055l-.047.075v0a2.5,2.5,0,0,0,.135-.23l-.007.014C2291.593,936.1,2291.578,936.127,2291.562,936.155Z" fill="none"/>
            <path id="Path_85" data-name="Path 85" d="M2291.841,934.722a1.191,1.191,0,0,1,.048.338c0,.049,0,.1-.008.148,0,.016,0,.032-.005.049,0,.034-.009.069-.015.1l-.011.056c-.007.033-.014.066-.023.1l-.015.056q-.015.052-.033.1l0,.005a1.967,1.967,0,0,0,.112-.622A1.191,1.191,0,0,0,2291.841,934.722Z" fill="none"/>
            <path id="Path_86" data-name="Path 86" d="M2291.719,935.838l-.015.037c-.021.049-.044.1-.068.144v0a2.484,2.484,0,0,0,.129-.3l0,0C2291.749,935.763,2291.734,935.8,2291.719,935.838Z" fill="none"/>
            <path id="Path_87" data-name="Path 87" d="M2291.812,935.572l.015-.056c.009-.034.016-.067.023-.1l.011-.056c.006-.034.011-.069.015-.1,0-.017,0-.033.005-.049,0-.049.008-.1.008-.148a1.191,1.191,0,0,0-.048-.338l0-.009a.585.585,0,0,0-.029-.075l-.008-.02c-.01-.021-.021-.04-.033-.06l-.013-.024c-.012-.017-.025-.033-.037-.049l-.019-.024a.44.44,0,0,0-.039-.038l-.024-.023c-.013-.011-.028-.019-.042-.029a.358.358,0,0,0-.031-.021h0a.783.783,0,0,0-.782.08,2.433,2.433,0,0,0-1.1,1.9l1.109.644c.041-.024.081-.05.121-.077l.037-.028c.026-.02.053-.04.079-.062s.029-.025.043-.037.047-.042.07-.064l.043-.043c.022-.022.043-.045.064-.068l0,0,.038-.043v0c.022-.025.043-.051.064-.077l.037-.048c.021-.027.041-.055.061-.084l0-.008.028-.039v0l.047-.075c.011-.019.023-.037.034-.055s.031-.056.046-.084l.007-.014.02-.036v0c.024-.047.047-.095.068-.144l.015-.037c.015-.037.03-.075.043-.112l0,0,.013-.041,0-.005Q2291.8,935.625,2291.812,935.572Z" fill="#767676"/>
            <path id="Path_88" data-name="Path 88" d="M2290.424,937.107l-.044.007c-.024,0-.047,0-.069.005h0a.85.85,0,0,0,.23-.04l-.044.012C2290.472,937.1,2290.448,937.1,2290.424,937.107Z" fill="none"/>
            <path id="Path_89" data-name="Path 89" d="M2290.2,937.113l-.032,0a.543.543,0,0,1-.09-.025.594.594,0,0,0,.192.036h0A.517.517,0,0,1,2290.2,937.113Z" fill="none"/>
            <path id="Path_90" data-name="Path 90" d="M2290.032,937.061a.255.255,0,0,1-.029-.014A.255.255,0,0,0,2290.032,937.061Z" fill="none"/>
            <path id="Path_91" data-name="Path 91" d="M2289.678,936.325v.012a.77.77,0,0,0,.325.71.255.255,0,0,0,.029.014c.016.008.032.016.049.023a.543.543,0,0,0,.09.025l.032,0a.517.517,0,0,0,.068.006h.04c.022,0,.045,0,.069-.005l.044-.007c.024,0,.048-.01.072-.016l.044-.012h0c.027-.008.054-.019.082-.03l.039-.016a1.363,1.363,0,0,0,.125-.063" opacity="0.3"/>
            <path id="Path_92" data-name="Path 92" d="M2290.541,937.078h0Z" opacity="0.3" style="mix-blend-mode: overlay;isolation: isolate"/>
            <path id="Path_93" data-name="Path 93" d="M2290.283,937.121l.027,0h-.027Z" opacity="0.3" style="mix-blend-mode: overlay;isolation: isolate"/>
            <path id="Path_94" data-name="Path 94" d="M2291.633,936.025l0,0-.02.036Z" opacity="0.3" style="mix-blend-mode: overlay;isolation: isolate"/>
            <path id="Path_95" data-name="Path 95" d="M2291.768,935.713l.009-.031-.013.041Z" opacity="0.3" style="mix-blend-mode: overlay;isolation: isolate"/>
            <path id="Path_96" data-name="Path 96" d="M2291.473,936.3l.007-.011-.028.039Z" opacity="0.3" style="mix-blend-mode: overlay;isolation: isolate"/>
            <path id="Path_97" data-name="Path 97" d="M2291.265,936.568l.019-.023-.038.043Z" opacity="0.3" style="mix-blend-mode: overlay;isolation: isolate"/>
            <path id="Path_98" data-name="Path 98" d="M2291.566,934.352l0,0a.358.358,0,0,1,.031.021A.283.283,0,0,0,2291.566,934.352Z" opacity="0.3" style="mix-blend-mode: overlay;isolation: isolate"/>
            <path id="Path_99" data-name="Path 99" d="M2291.838,934.713l0,.009Z" opacity="0.3" style="mix-blend-mode: overlay;isolation: isolate"/>
            <path id="Path_100" data-name="Path 100" d="M2291.636,934.4l.024.023Z" opacity="0.3" style="mix-blend-mode: overlay;isolation: isolate"/>
            <path id="Path_101" data-name="Path 101" d="M2291.8,934.618l.008.02Z" opacity="0.3" style="mix-blend-mode: overlay;isolation: isolate"/>
            <path id="Path_102" data-name="Path 102" d="M2291.755,934.534l.013.024Z" opacity="0.3" style="mix-blend-mode: overlay;isolation: isolate"/>
            <path id="Path_103" data-name="Path 103" d="M2291.7,934.461l.019.024Z" opacity="0.3" style="mix-blend-mode: overlay;isolation: isolate"/>
            <path id="Path_104" data-name="Path 104" d="M2290.059,935.518a1.042,1.042,0,0,0,.393-.274,2.044,2.044,0,0,0,.433-.84,4.775,4.775,0,0,0,.161-1.3,10.633,10.633,0,0,0-2.584-6.579,4.563,4.563,0,0,0-1.036-.851,1.858,1.858,0,0,0-.9-.28,1.017,1.017,0,0,0-.373.068.369.369,0,1,1-.268-.688,1.767,1.767,0,0,1,.641-.118,2.584,2.584,0,0,1,1.266.377,6.133,6.133,0,0,1,1.777,1.67,11.256,11.256,0,0,1,1.448,2.658,10.588,10.588,0,0,1,.767,3.743,4.965,4.965,0,0,1-.339,1.932,2.527,2.527,0,0,1-.451.713,1.789,1.789,0,0,1-.667.46.369.369,0,0,1-.268-.688Z" fill="#221f20"/>
          </g>
        </g>
        <rect id="Rectangle_3" data-name="Rectangle 3" width="75.151" height="75.151" transform="translate(2252.079 912.871)" fill="#efebe6" style="mix-blend-mode: multiply;isolation: isolate"/>
      </g>
    </g>
  </g>
</svg>
