<?xml version="1.0" encoding="UTF-8"?>
<svg id="Layer_1" data-name="Layer 1" xmlns="http://www.w3.org/2000/svg" xmlns:xlink="http://www.w3.org/1999/xlink" viewBox="0 0 312.59 743.45">
  <defs>
    <style>
      .cls-1 {
        fill: none;
      }

      .cls-2 {
        fill: url(#linear-gradient);
      }

      .cls-3 {
        fill: #fff;
      }

      .cls-4 {
        fill: #a4a4a4;
      }

      .cls-5 {
        fill: #1c1c1c;
      }

      .cls-6 {
        fill: #6d6d6d;
      }

      .cls-7 {
        fill: url(#linear-gradient-2);
      }

      .cls-8 {
        fill: url(#radial-gradient);
      }
    </style>
    <linearGradient id="linear-gradient" x1="156.29" y1="746.22" x2="156.29" y2="7.58" gradientUnits="userSpaceOnUse">
      <stop offset="0" stop-color="#3a3a3a"/>
      <stop offset="0" stop-color="#3e3e3e"/>
      <stop offset=".02" stop-color="#4b4b4b"/>
      <stop offset=".03" stop-color="#616161"/>
      <stop offset=".04" stop-color="#7f7f7f"/>
      <stop offset=".04" stop-color="#888"/>
      <stop offset=".08" stop-color="#3f3f3f"/>
      <stop offset=".51" stop-color="#5e5e5e"/>
      <stop offset=".63" stop-color="#6f6f6f"/>
      <stop offset=".85" stop-color="#9d9d9d"/>
      <stop offset=".9" stop-color="#a7a7a7"/>
      <stop offset=".91" stop-color="#a0a0a0"/>
      <stop offset=".92" stop-color="#8f8f8f"/>
      <stop offset=".93" stop-color="#737373"/>
      <stop offset=".94" stop-color="#4c4c4c"/>
      <stop offset=".94" stop-color="#3f3f3f"/>
      <stop offset=".96" stop-color="#6e6e6e"/>
      <stop offset=".97" stop-color="#909090"/>
      <stop offset=".98" stop-color="#9e9e9e"/>
      <stop offset=".99" stop-color="#707070"/>
      <stop offset="1" stop-color="#353535"/>
    </linearGradient>
    <linearGradient id="linear-gradient-2" x1="9725.83" y1="312.93" x2="9725.83" y2="220.15" gradientTransform="translate(10020.74) rotate(-180) scale(1 -1)" gradientUnits="userSpaceOnUse">
      <stop offset="0" stop-color="#282828"/>
      <stop offset="0" stop-color="#313131"/>
      <stop offset=".02" stop-color="#494949"/>
      <stop offset=".03" stop-color="#707070"/>
      <stop offset=".04" stop-color="#9e9e9e"/>
      <stop offset=".06" stop-color="#707070"/>
      <stop offset=".08" stop-color="#3f3f3f"/>
      <stop offset=".13" stop-color="#3f3f3f"/>
      <stop offset=".86" stop-color="#3f3f3f"/>
      <stop offset=".91" stop-color="#3f3f3f"/>
      <stop offset=".93" stop-color="#6e6e6e"/>
      <stop offset=".95" stop-color="#909090"/>
      <stop offset=".96" stop-color="#9e9e9e"/>
      <stop offset=".97" stop-color="#818181"/>
      <stop offset=".98" stop-color="#585858"/>
      <stop offset=".99" stop-color="#3e3e3e"/>
      <stop offset=".99" stop-color="#353535"/>
    </linearGradient>
    <radialGradient id="radial-gradient" cx="318.58" cy="5940.94" fx="318.58" fy="5940.94" r="4.78" gradientTransform="translate(-216.01 5987.09) scale(1 -1)" gradientUnits="userSpaceOnUse">
      <stop offset="0" stop-color="#000"/>
      <stop offset=".63" stop-color="#473ba3"/>
      <stop offset="1" stop-color="#000"/>
    </radialGradient>
  </defs>
  <g>
    <g>
      <path class="cls-2" d="m0,82.6v616.92c0,24.26,21.01,43.94,46.82,43.94h213.38c29.02,0,52.39-22.51,52.39-50.29V70.6C312.59-.45,257.57-2.61,229.43,1.05L49.12,27.85C20.35,32.12,0,54.74,0,82.6Zm4.64-2.99c0-24.7,18.17-44.75,43.93-48.58L229.59,4.12c24.82-3.69,48.66,16.07,48.66,40.2v643.51c0,28.75-24.56,52.05-55.04,52.04l-177.39-.07c-22.71,0-41.19-17.14-41.19-38.27V79.61Z"/>
      <path class="cls-3" d="m235.95,4.17c10.63.08,21.28,4.45,29.21,11.98,8.13,7.71,12.61,17.72,12.61,28.17v643.51c0,13.78-5.66,26.72-15.93,36.44-10.29,9.74-24,15.11-38.62,15.11l-177.39-.07c-22.44,0-40.7-16.95-40.7-37.77V79.61c0-11.82,4.33-23.11,12.18-31.79,7.86-8.68,18.98-14.47,31.33-16.31L229.67,4.6c2.07-.31,4.18-.46,6.28-.44m0-.49c-2.1-.02-4.22.13-6.35.44L48.57,31.02c-25.76,3.83-43.93,23.89-43.93,48.58v621.93c0,21.13,18.48,38.26,41.19,38.27l177.39.07h.02c30.47,0,55.02-23.29,55.02-52.04V44.32c0-22.06-19.93-40.47-42.31-40.65h0Z"/>
      <path d="m229.59,4.12L48.57,31.02c-25.76,3.83-43.93,23.89-43.93,48.59v621.92c0,21.13,18.48,38.26,41.19,38.27l177.39.07c30.48.01,55.04-23.28,55.04-52.04V44.32c0-24.14-23.84-43.89-48.66-40.2Zm48.12,683.28c0,13.78-5.67,26.73-15.97,36.48-10.31,9.75-24.01,15.13-38.61,15.13h-.02l-177.17-.07c-22.47-.01-40.75-16.99-40.75-37.85V80.02c0-24.55,17.92-44.36,43.56-48.18L229.56,4.96c2.07-.3,4.16-.44,6.27-.43,1.05,0,2.1.06,3.16.14,21.36,1.81,38.73,19.78,38.73,40.07v642.67Z"/>
    </g>
    <path class="cls-1" d="m48.57,31.02L229.59,4.12c3.21-.48,6.39-.56,9.52-.3,21.06,1.78,39.15,19.48,39.15,40.5v643.51c0,28.75-24.56,52.05-55.04,52.04l-177.39-.07c-22.71,0-41.19-17.14-41.19-38.27V79.61c0-24.7,18.17-44.75,43.93-48.58Z"/>
    <g>
      <path class="cls-4" d="m45.97,741.8c-23.94,0-43.43-18.07-43.43-40.27V79.51c0-25.73,18.82-46.49,45.76-50.48L229.92,2.16c2.2-.32,4.45-.48,6.69-.46,1.11,0,2.24.06,3.35.15,22.74,1.92,41.23,21.02,41.23,42.57v643.41c0,14.43-5.95,27.99-16.77,38.2-10.81,10.2-25.18,15.82-40.47,15.82l-177.98-.05ZM236.33,4.78c-2.07-.02-4.14.13-6.17.42L48.84,32.11c-25.35,3.77-43.06,23.31-43.06,47.52v621.91c0,20.48,18,37.15,40.13,37.16l177.69.07c14.46,0,28.03-5.31,38.23-14.94,10.18-9.62,15.78-22.4,15.78-35.99V44.3c0-19.93-17.12-37.59-38.16-39.37-1.03-.09-2.08-.14-3.11-.14Z"/>
      <g>
        <path class="cls-1" d="m260.88,723.28c10.01-9.48,15.53-22.07,15.53-35.46V44.29c0-19.56-16.78-36.89-37.42-38.63-1.01-.09-2.04-.13-3.05-.14-2.03-.02-4.06.12-6.04.41L48.88,32.84c-24.94,3.72-42.37,22.96-42.37,46.79v621.9c0,20.07,17.64,36.41,39.32,36.42l177.39.07v1.47s.02-1.47.02-1.47c14.23,0,27.59-5.23,37.64-14.74Z"/>
        <path class="cls-1" d="m239.13,2.58c-1.09-.09-2.19-.14-3.28-.15-2.2-.02-4.39.13-6.55.45L48.27,29.77C21.79,33.7,3.29,54.16,3.29,79.52v622.01c0,21.79,19.09,39.53,42.55,39.54l177.39.05h.01c15.05,0,29.19-5.55,39.83-15.61,10.63-10.06,16.49-23.44,16.49-37.66V44.41c0-21.18-18.13-39.94-40.42-41.83Zm38.75,685.24c0,13.8-5.68,26.77-15.99,36.53-10.32,9.77-24.04,15.15-38.65,15.14h-.02l-177.39-.07c-22.49,0-40.8-17.01-40.8-37.89V79.62c0-24.58,17.94-44.41,43.62-48.24L229.67,4.47c2.07-.3,4.17-.45,6.27-.43,1.05,0,2.11.06,3.16.15,21.39,1.81,38.78,19.8,38.78,40.11v643.52Z"/>
        <path d="m238.99,4.67c-1.05-.09-2.1-.13-3.16-.14-2.1-.02-4.2.12-6.27.43L48.76,31.83c-25.65,3.83-43.56,23.64-43.56,48.18v621.08c0,20.86,18.28,37.84,40.75,37.85l177.17.07h.02c14.59,0,28.3-5.37,38.61-15.13,10.3-9.75,15.97-22.7,15.97-36.48V44.74c0-20.28-17.37-38.26-38.73-40.07Zm29.54,678.54c0,23.79-20.15,45.78-45.13,45.74l-178.4-.27c-17.98-.03-32.61-16.53-32.61-33.4V84.13c0-21.63,15.77-40.18,38.11-43.59l177.42-24.47c20.69-3.16,40.61,11.87,40.61,32.19v634.95Z"/>
        <path class="cls-5" d="m240.83,1.13c-1.13-.1-2.28-.15-3.41-.16-2.28-.02-4.57.14-6.82.47L48.57,28.31C21.2,32.35,2.08,53.41,2.08,79.51v622.02c0,22.61,19.86,41.01,44.27,41.01l178.37.04c15.53,0,30.11-5.69,41.08-16.02,10.99-10.35,17.04-24.1,17.04-38.73V44.44c0-21.93-18.84-41.36-42.01-43.31Zm40.53,686.71c0,14.22-5.89,27.6-16.58,37.66-10.69,10.07-24.92,15.61-40.05,15.61h-.01l-178.37-.05c-23.58,0-42.78-17.74-42.78-39.54V79.52c0-25.36,18.6-45.81,45.23-49.75L230.83,2.9c2.17-.32,4.38-.47,6.59-.45,1.1,0,2.2.06,3.3.15,22.41,1.89,40.64,20.66,40.64,41.83v643.41Z"/>
      </g>
    </g>
    <g>
      <path class="cls-7" d="m291.37,229.76v73.55h0v.12c0,.17,0,.35,0,.52,0,.1,0,.21.01.31v.17c0,.15.01.31.03.46,0,.14.01.26.02.38,0,.01,0,.02,0,.04v.02c0,.14.02.28.03.42.01.14.03.28.04.42,0,.01,0,.02,0,.05,0,.01,0,.04,0,.05,0,.1.02.2.03.3.01.14.03.26.05.4,0,.05.02.1.03.14,0,.04,0,.06,0,.09.01.05.02.11.03.16.02.12.04.26.06.38.01.07.03.16.05.24,0,.02,0,.05.01.06,0,.02,0,.05.01.07.02.12.05.25.07.37.02.11.05.22.07.33,0,0,0,.01,0,.02h0c.03.14.06.26.09.37.03.14.07.26.1.37h0c.04.14.07.26.11.38.03.1.06.19.09.27,0,.02.01.05.02.07,0,.01.01.02.02.05.05.14.1.27.15.4.01.04.03.06.05.1.02.06.04.11.07.16.03.06.05.12.07.19.03.05.06.1.08.15.04.09.08.16.11.24.02.02.04.07.06.1.01.04.03.06.05.1.1.16.2.31.3.45.03.04.06.09.09.12.13.16.26.3.4.41.03.02.05.05.09.06.11.09.22.16.34.21.04.02.08.04.12.06.15.05.29.09.45.09l3.62.02c-.15,0-.3-.04-.45-.09-.04-.02-.08-.04-.11-.06-.12-.05-.23-.12-.34-.21-.03-.01-.06-.04-.09-.06-.13-.11-.27-.25-.4-.41-.03-.04-.05-.09-.09-.12-.1-.14-.2-.29-.29-.45-.04-.07-.08-.14-.11-.2-.04-.07-.08-.15-.11-.24-.05-.1-.11-.22-.16-.33-.02-.05-.05-.1-.07-.16-.07-.17-.14-.36-.21-.54-.01-.02-.02-.05-.03-.07-.07-.21-.14-.42-.21-.64h0c-.07-.25-.13-.49-.2-.75,0-.01,0-.02,0-.02-.05-.25-.11-.51-.16-.78,0-.01,0-.04-.01-.06-.05-.25-.09-.51-.13-.78,0-.02-.01-.05-.01-.09-.04-.26-.07-.54-.11-.83,0-.01,0-.04,0-.05-.03-.3-.06-.61-.08-.91,0-.01,0-.02,0-.04-.02-.3-.03-.61-.05-.91v-.1c-.01-.31-.02-.62-.02-.94h0v-73.56c0-.28,0-.57.02-.85v-.21c0-.12.01-.25.02-.37.01-.25.03-.48.05-.73.01-.12.02-.23.03-.36.02-.25.05-.49.08-.73.01-.11.03-.22.04-.33.05-.41.12-.8.2-1.19.03-.15.06-.3.09-.43.02-.11.05-.23.07-.35.05-.22.11-.46.18-.68.01-.04.02-.07.03-.11.05-.19.11-.37.18-.54.01-.04.03-.07.03-.11.07-.2.14-.38.22-.55.01-.02.03-.05.03-.07.07-.17.16-.35.24-.51,0-.01.02-.04.03-.05.09-.16.18-.31.26-.46,0,0,.01-.01.02-.02.09-.15.19-.28.29-.41h0c.1-.12.2-.22.3-.32,0,0,.02-.01.03-.02.09-.09.2-.15.3-.21.01-.01.02-.01.03-.02.11-.06.22-.1.32-.13.01,0,.03-.01.03-.01.11-.02.22-.05.33-.05l-3.67-.02c-.07.01-.14.01-.21.04-.06.01-.12.02-.18.05-.06.02-.12.05-.18.07-.02.01-.04.02-.06.04-.01.01-.03.01-.04.02-.02.01-.04.02-.06.04-.05.04-.1.07-.16.11-.03.01-.05.04-.07.06-.01.01-.02.02-.03.02-.01.01-.02.02-.03.04-.05.05-.09.09-.14.14-.04.05-.08.1-.12.15h-.01c-.05.07-.09.12-.14.18-.05.06-.09.12-.13.2,0,0-.01.01-.02.02,0,.01-.01.02-.01.02-.03.05-.07.1-.09.15-.05.07-.09.16-.13.23l-.07.12s-.04.09-.06.12c-.05.1-.09.18-.13.28-.01.04-.03.06-.04.1-.01.02-.02.05-.03.07-.02.05-.04.09-.05.14-.05.11-.09.23-.13.36,0,.01-.02.04-.03.06-.01.04-.02.07-.03.11-.03.07-.05.15-.08.23-.03.1-.07.21-.09.31-.01.04-.03.07-.03.11,0,.02-.01.04-.01.05-.05.2-.11.38-.16.59,0,.01,0,.02-.01.05-.02.1-.05.21-.07.32-.03.14-.06.26-.09.39,0,.01,0,.04,0,.05-.08.38-.14.78-.2,1.19,0,.05-.02.09-.02.12-.01.07-.01.15-.03.21-.03.23-.05.48-.07.72,0,.09-.02.16-.03.23,0,.05,0,.1,0,.15-.02.23-.03.47-.05.72,0,.09-.01.17-.01.27,0,.02,0,.06,0,.1,0,.07,0,.14,0,.21,0,.12,0,.26,0,.38,0,.16,0,.31,0,.47Z"/>
      <path class="cls-6" d="m294.03,229.79v73.54c0,5.45,1.74,9.87,3.89,9.88h.9c2.15.02,3.89-4.39,3.89-9.84v-73.53c0-5.44-1.74-9.87-3.89-9.88h-.9c-2.15-.02-3.89,4.4-3.89,9.83Z"/>
    </g>
  </g>
  <g>
    <g>
      <path d="m99.83,64.41l89.44-11.58c10.39-1.35,17.79-9.68,17.79-19.96v-14.91l-121.81,17.38v17.02c0,7.2,7.07,13.03,14.57,12.06Z"/>
      <path class="cls-8" d="m107.12,45.61c0-2.68-1.96-4.67-4.44-4.43-2.54.24-4.66,2.72-4.66,5.53s2.11,4.78,4.66,4.4c2.48-.37,4.44-2.83,4.44-5.51Z"/>
    </g>
    <path d="m207.07,21.05s-.66-2.81,2.87-3.32l-5,.52,2.14,2.8Z"/>
    <path d="m85.26,38.22s.36-2.56-2.06-2.21l4.7-1.1-2.64,3.3Z"/>
  </g>
</svg>