<svg xmlns="http://www.w3.org/2000/svg" width="371.997" height="146.525" viewBox="0 0 371.997 146.525">
  <g id="Group_2" data-name="Group 2" transform="translate(-235.383 -226.105)">
    <text id="unikbase" transform="translate(322.38 271.63)" fill="#0c0b0e" font-size="64.1" font-family="Rubik-Light, Rubik" font-weight="300"><tspan x="0" y="60">unikbase</tspan></text>
    <path id="Path_1" data-name="Path 1" d="M303.336,228.656a1.314,1.314,0,0,0-1.314,1.313v46.4a22.749,22.749,0,0,1-13.456,20.787,26.881,26.881,0,0,0,.248-3.647v-46.77a1.313,1.313,0,0,0-1.313-1.313h-1.3a1.313,1.313,0,0,0-1.313,1.313v46.77a22.828,22.828,0,0,1-.57,5.075,22.8,22.8,0,0,1-27.859-22.215V227.421a1.314,1.314,0,0,0-2.242-.929l-18.444,18.445a1.309,1.309,0,0,0-.385.928v47.641c0,14.656,11.984,27.188,26.716,27.188,11.645,0,21.833-7.961,25.407-18.921a26.637,26.637,0,0,0,18.448-25.407v-46.4a1.313,1.313,0,0,0-1.313-1.313ZM262.1,316.762c-12.564,0-22.785-10.769-22.785-23.256V246.949l13.208-13.207v42.624a26.73,26.73,0,0,0,30.363,26.468C279.23,310.946,271.139,316.762,262.1,316.762Z" fill="#ff4606"/>
  </g>
</svg>
