<?xml version="1.0" encoding="UTF-8"?>
<svg id="Layer_1" data-name="Layer 1" xmlns="http://www.w3.org/2000/svg" viewBox="0 0 756.76 78.92">
  <defs>
    <style>
      .cls-1 {
        fill: #ea5123;
      }

      .cls-2 {
        fill: #fff;
      }
    </style>
  </defs>
  <g>
    <path class="cls-2" d="m96.33,49.79V1.41h10.98v48.26c0,11.41,6.2,18.81,17.83,18.81s17.94-7.39,17.94-18.91V1.41h10.98v48.26c0,17.28-10.54,29.24-28.91,29.24s-28.81-11.74-28.81-29.13Z"/>
    <path class="cls-2" d="m178.73,1.41h18.48l29.35,65.55h.76V1.41h10.87v76.09h-18.7l-28.92-65.55h-.76v65.55h-11.09V1.41Z"/>
    <path class="cls-2" d="m262.54,67.61h11.09V11.3h-11.09V1.41h33.15v9.89h-11.09v56.31h11.09v9.89h-33.15v-9.89Z"/>
    <path class="cls-2" d="m320.04,1.41h11.09v31.63h9.57l21.2-31.63h13.26l-25.22,36.52,26.52,39.57h-13.59l-22.18-34.24h-9.57v34.24h-11.09V1.41Z"/>
    <path class="cls-2" d="m391.89,68.16h7.07V10.76h-7.07V1.41h32.5c14.89,0,23.37,8.59,23.37,20,0,7.07-3.37,12.5-8.81,15.65v.65c5,2.17,11.41,7.61,11.41,17.61,0,14.02-11.2,22.18-23.81,22.18h-34.68v-9.35Zm32.18-34.57c7.5,0,12.5-4.67,12.5-11.3s-5.22-10.98-12.28-10.98h-14.46v22.28h14.24Zm.87,34.02c7.93,0,14.02-4.02,14.02-12.61s-6.96-12.39-14.78-12.39h-14.35v25h15.11Z"/>
    <path class="cls-2" d="m490.48,1.41h15.54l27.18,76.09h-11.63l-6.09-17.17h-35l-6.09,17.17h-11.41L490.48,1.41Zm21.41,48.81l-13.48-38.26h-.87l-13.48,38.26h27.83Z"/>
    <path class="cls-2" d="m544.94,53.92h11.09c0,8.37,6.74,14.57,17.07,14.57,9.02,0,15.33-4.35,15.33-11.3,0-21.2-40.98-5.65-40.98-36.2,0-11.2,9.13-20.98,25-20.98,12.07,0,25.65,6.52,25.65,23.04h-11.2c0-7.83-5.33-12.94-14.57-12.94s-13.8,5.33-13.8,10.87c0,18.81,41.09,5.11,41.09,35.87,0,12.17-9.89,22.07-26.96,22.07-15.43,0-27.72-10.22-27.72-25Z"/>
    <path class="cls-2" d="m620.27,1.41h44.78v10.22h-33.7v22.07h29.02v10.11h-29.02v23.48h34.78v10.22h-45.87V1.41Z"/>
  </g>
  <path class="cls-1" d="m0,33.05h9.57L30.76,1.41h13.26l-25.22,36.52,26.52,39.57h-13.59L9.57,43.26H0v-10.22Z"/>
  <path class="cls-1" d="m756.76,43.26h-9.57s-22.18,34.24-22.18,34.24h-13.59s26.52-39.57,26.52-39.57l-25.22-36.52h13.26s21.2,31.63,21.2,31.63h9.57v10.22Z"/>
</svg>