<svg width="50" height="45" viewBox="0 0 50 45" fill="none" xmlns="http://www.w3.org/2000/svg">
<path d="M45.6799 18.7802C45.3699 18.7802 45.0799 18.5601 45.0199 18.2401C43.5699 11.3301 39.4399 6.03008 33.3899 3.33008L33.0399 3.17017C31.0299 2.27017 29.1199 1.41007 26.8799 1.45007C23.4399 1.51007 19.8799 1.57014 17.0799 4.14014C16.3399 4.82014 15.3299 5.15017 14.5199 5.42017L14.3999 5.46008C11.8699 6.30008 10.5499 8.33009 9.13992 10.4701L8.81991 10.9601C8.67991 11.1701 8.53992 11.3701 8.38992 11.5801C7.94992 12.2101 7.48992 12.8701 7.22992 13.5901C6.78992 14.8101 6.64991 15.8702 6.78991 16.9202C6.83991 17.2902 6.57992 17.6302 6.19992 17.6802C5.82992 17.7302 5.48991 17.4701 5.43991 17.0901C5.27991 15.8201 5.43992 14.5601 5.94992 13.1301C6.26992 12.2301 6.7799 11.5002 7.2699 10.7902C7.4099 10.5902 7.54992 10.4001 7.66992 10.2001L7.9899 9.72009C9.4599 7.48009 10.9699 5.16017 13.9499 4.17017L14.0699 4.13013C14.7899 3.89013 15.6099 3.62014 16.1399 3.14014C19.3199 0.230136 23.1399 0.160088 26.8299 0.0900877C29.3699 0.0500877 31.4999 1.00018 33.5699 1.93018L33.9199 2.09009C40.3699 4.97009 44.7799 10.6101 46.3299 17.9601C46.4099 18.3301 46.1699 18.6901 45.8099 18.7601C45.7599 18.7701 45.7199 18.7802 45.6699 18.7802H45.6799Z" fill="#041C25"/>
<path d="M1.50006 34.62C1.29006 34.62 1.09005 34.53 0.960052 34.35C0.740052 34.05 0.800067 33.62 1.10007 33.4C1.66007 32.98 2.02007 32.4299 2.29007 31.5699C2.57007 30.6799 3.22005 30.08 3.80005 29.55C4.28005 29.11 4.74007 28.69 4.95007 28.14C5.14007 27.65 5.83005 27.42 6.27005 27.56L6.77005 27.73C8.02005 28.14 9.44005 28.61 10.4301 29.48C10.7101 29.73 10.7401 30.1599 10.4901 30.4399C10.2401 30.7199 9.81006 30.75 9.53006 30.5C8.75006 29.82 7.53006 29.41 6.34006 29.02L6.08005 28.9399C5.74005 29.6199 5.20006 30.11 4.72006 30.55C4.20006 31.02 3.76006 31.43 3.59006 31.98C3.23006 33.12 2.71007 33.89 1.92007 34.49C1.80007 34.58 1.66007 34.63 1.51007 34.63L1.50006 34.62Z" fill="#041C25"/>
<path d="M24.2499 40.3203C23.1599 40.3203 22.1099 40.2004 21.2499 39.9604L20.82 39.8404C17.88 39.0404 14.5599 38.1304 12.5899 35.0204C12.3899 34.7004 12.4799 34.2804 12.7999 34.0804C13.1199 33.8804 13.5399 33.9804 13.7399 34.2904C15.4199 36.9604 18.3499 37.7504 21.1799 38.5304L21.6099 38.6504C22.7499 38.9604 24.26 39.0504 25.76 38.8804C27.58 38.6704 29.66 38.3404 31.29 37.4004C34.65 35.4704 37.47 32.6904 39.45 29.3604C40.55 27.5004 41.6 25.4704 41.79 23.2604C41.82 22.8904 42.1499 22.6004 42.5199 22.6404C42.8899 22.6704 43.17 23.0004 43.14 23.3704C42.93 25.8504 41.8099 28.0505 40.6199 30.0605C38.5299 33.5905 35.5399 36.5404 31.9699 38.5904C30.1199 39.6504 27.8699 40.0204 25.9099 40.2404C25.3599 40.3004 24.7999 40.3304 24.2499 40.3304V40.3203Z" fill="#041C25"/>
<path d="M27.7099 44.9003C27.4099 44.9003 27.1099 44.8403 26.8599 44.6303C26.4299 44.2703 26.4299 43.6802 26.4299 43.3302C26.4299 42.9602 26.7399 42.6503 27.1099 42.6503C27.4899 42.6503 27.7899 42.9602 27.7899 43.3302C27.7899 43.4102 27.7899 43.4803 27.7899 43.5303C27.8399 43.5303 27.9199 43.5203 28.0099 43.5002C29.1099 43.3003 30.1499 43.0003 31.2999 42.5603C32.8999 41.9403 34.4599 41.1402 35.9599 40.3702L36.8799 39.9003C37.9199 39.3703 38.8399 38.6902 39.8199 37.9702L39.9799 37.8502C42.84 35.7402 45.7899 33.5502 46.1199 29.5802C46.1499 29.2102 46.4799 28.9302 46.8499 28.9602C47.2199 28.9902 47.4999 29.3202 47.4699 29.6902C47.0999 34.2802 43.7399 36.7602 40.7899 38.9402L40.6299 39.0603C39.6499 39.7803 38.6399 40.5302 37.4999 41.1102L36.5899 41.5802C35.0499 42.3702 33.4599 43.1802 31.7999 43.8302C30.5699 44.3002 29.4499 44.6202 28.2599 44.8402C28.0899 44.8702 27.8999 44.9003 27.7099 44.9003Z" fill="#041C25"/>
<path d="M8.4799 23.53C8.4799 23.53 8.4099 23.53 8.3799 23.53C8.0099 23.47 7.74989 23.13 7.80989 22.76C8.22989 19.98 8.99989 16.3499 11.2799 12.9599C13.9099 9.03992 16.9599 6.86996 20.8899 6.12996C25.8199 5.19996 29.8499 5.69991 33.5599 7.69991C34.1299 8.00991 34.6599 8.35992 35.1699 8.70992C35.9699 9.24992 36.7299 9.75992 37.6099 10.0799C37.9599 10.2099 38.1399 10.5999 38.0199 10.9499C37.8899 11.2999 37.4999 11.4899 37.1499 11.3599C36.1199 10.9799 35.2499 10.3999 34.4099 9.83993C33.8999 9.49993 33.4199 9.17998 32.9099 8.89998C29.4899 7.05998 25.7499 6.59993 21.1399 7.46993C17.5399 8.14993 14.8499 10.0799 12.3999 13.7199C10.7399 16.1899 9.73988 19.0399 9.14988 22.9699C9.09988 23.3099 8.8099 23.55 8.4799 23.55V23.53Z" fill="#041C25"/>
<path d="M24.2601 31.1103C22.8301 31.1103 21.8501 30.4603 20.7801 29.0203C20.5601 28.7203 20.6201 28.2902 20.9201 28.0702C21.2201 27.8502 21.6501 27.9102 21.8701 28.2102C23.1001 29.8602 23.8501 30.1803 26.7401 29.2403C27.6301 28.9503 28.5801 27.7303 28.6201 26.8103C28.7001 25.2203 28.0401 24.0502 24.4601 22.7202C24.1601 22.6102 23.9701 22.3002 24.0201 21.9802C24.1401 21.2002 24.3301 20.4402 24.5201 19.7002C24.8501 18.3802 25.1601 17.1402 25.1201 15.8302C25.1001 14.9102 25.2101 14.0003 25.3201 13.1203C25.3701 12.7303 25.4201 12.3502 25.4501 11.9702C25.4801 11.6002 25.8101 11.3203 26.1901 11.3603C26.5601 11.3903 26.8401 11.7302 26.8001 12.1002C26.7601 12.5002 26.7101 12.9003 26.6601 13.3003C26.5501 14.1703 26.4501 14.9903 26.4701 15.8103C26.5101 17.3103 26.1601 18.7003 25.8301 20.0403C25.6901 20.6003 25.5601 21.1303 25.4501 21.6703C28.2801 22.7803 30.1001 24.1503 29.9701 26.8903C29.9001 28.3503 28.5601 30.0903 27.1501 30.5403C25.9801 30.9203 25.0401 31.1203 24.2501 31.1203L24.2601 31.1103Z" fill="#041C25"/>
<path d="M13.89 41.2203C13.71 41.2203 13.53 41.1503 13.4 41.0103C13.25 40.8503 13.1 40.6903 12.96 40.5203C12.68 40.2003 12.41 39.8904 12.12 39.6804C11.81 39.4504 11.5 39.2403 11.2 39.0203C8.88 37.3703 6.67999 35.8103 5.56999 32.7003C5.43999 32.3403 5.37999 31.7303 5.28999 30.7803C5.22999 30.1003 5.11998 28.9603 4.98998 28.7003C4.81998 28.3703 4.93997 27.9603 5.26997 27.7803C5.59997 27.6103 5.99998 27.7204 6.17998 28.0504C6.42998 28.5004 6.52 29.3303 6.64 30.6503C6.7 31.2603 6.76999 32.0203 6.84999 32.2403C7.81999 34.9503 9.74998 36.3203 11.99 37.9103C12.3 38.1303 12.61 38.3503 12.92 38.5803C13.34 38.8903 13.67 39.2603 13.99 39.6303C14.12 39.7803 14.25 39.9303 14.39 40.0703C14.65 40.3403 14.64 40.7703 14.37 41.0303C14.24 41.1603 14.07 41.2203 13.9 41.2203H13.89Z" fill="#041C25"/>
<path d="M24.0999 33.4605C23.7499 33.4605 23.4499 33.1905 23.4199 32.8405C23.1499 29.4905 23.6299 26.1705 24.0999 22.9705L24.1899 22.3205C24.2399 21.9505 24.5899 21.6905 24.9599 21.7405C25.3299 21.7905 25.5899 22.1406 25.5399 22.5106L25.4499 23.1606C24.9899 26.2906 24.5199 29.5305 24.7799 32.7205C24.8099 33.0905 24.5299 33.4205 24.1599 33.4505C24.1399 33.4505 24.1199 33.4505 24.0999 33.4505V33.4605Z" fill="#041C25"/>
<path d="M45.5199 18.8002C44.7999 18.8002 44.0599 18.4202 43.2799 18.0202C43.2299 18.0002 43.1899 17.9702 43.1499 17.9302C42.5099 17.3802 41.7099 17.1701 40.8599 16.9501C40.0799 16.7501 39.2699 16.5302 38.5299 16.0502C38.2199 15.8502 38.1299 15.4301 38.3299 15.1101C38.5299 14.8001 38.9499 14.7002 39.2699 14.9102C39.8299 15.2702 40.4999 15.4502 41.2099 15.6302C42.1499 15.8802 43.1199 16.1301 43.9799 16.8401C44.7599 17.2401 45.3699 17.5202 45.6899 17.4102C45.8999 17.3402 46.1299 17.0302 46.3699 16.5302C47.5199 14.5002 48.2099 12.9101 48.6099 11.3201C48.6999 10.9601 49.0699 10.7301 49.4399 10.8301C49.7999 10.9201 50.0199 11.2902 49.9299 11.6602C49.4999 13.3702 48.7699 15.0602 47.5799 17.1602C47.3499 17.6702 46.9099 18.4401 46.1399 18.7001C45.9399 18.7701 45.7499 18.8002 45.5499 18.8002H45.5199Z" fill="#041C25"/>
<path d="M24.91 44.9003C21.9 44.9003 19.49 44.3303 17.39 43.1203L16.97 42.8803C16.15 42.4103 15.31 41.9303 14.5 41.3803C14.16 41.1503 14.14 41.1802 13.96 41.4402C13.74 41.7502 13.32 41.8202 13.01 41.6002C12.7 41.3802 12.63 40.9603 12.85 40.6503C13.48 39.7603 14.34 39.6203 15.26 40.2503C16.02 40.7603 16.84 41.2402 17.64 41.6902L18.06 41.9303C20.14 43.1303 22.5999 43.6303 25.7999 43.5103L27.1099 43.4602C27.4799 43.4602 27.8 43.7403 27.81 44.1103C27.82 44.4903 27.53 44.8003 27.16 44.8103L25.85 44.8603C25.53 44.8703 25.21 44.8803 24.9 44.8803L24.91 44.9003Z" fill="#041C25"/>
<path d="M24.53 22.6096C24.53 22.6096 24.43 22.6096 24.39 22.5896C23.19 22.3296 22.24 21.5696 21.73 20.4396C21.19 19.2596 21.22 17.8497 21.81 16.7597C22.67 15.1797 24.26 14.7997 25.69 14.6397C26.07 14.5997 26.4 14.8696 26.44 15.2396C26.48 15.6096 26.21 15.9496 25.84 15.9896C24.52 16.1396 23.53 16.4397 23 17.4097C22.62 18.1197 22.6 19.0797 22.96 19.8697C23.29 20.5997 23.9 21.0897 24.67 21.2597C25.04 21.3397 25.27 21.6996 25.19 22.0696C25.12 22.3896 24.84 22.6096 24.53 22.6096Z" fill="#041C25"/>
<path d="M29.1 17.5201C28.95 17.5201 28.79 17.47 28.67 17.36C27.86 16.69 26.92 16.1601 25.86 15.7801C25.51 15.6601 25.32 15.2701 25.45 14.9101C25.57 14.5601 25.96 14.37 26.32 14.5C27.53 14.93 28.61 15.5401 29.54 16.3101C29.83 16.5501 29.87 16.9801 29.63 17.2701C29.5 17.4301 29.3 17.5101 29.11 17.5101L29.1 17.5201Z" fill="#041C25"/>
</svg>
