<svg width="53" height="33" viewBox="0 0 53 33" fill="none" xmlns="http://www.w3.org/2000/svg">
<path d="M8.82013 20.4102C8.27012 20.4102 7.69011 20.2802 7.12011 20.1602C6.84011 20.1002 6.57012 20.0402 6.31012 20.0002C6.20012 19.9802 6.07012 19.9802 5.94012 19.9802C5.44012 19.9602 4.67013 19.9402 4.14013 19.2902C3.90013 19.0002 3.94013 18.5701 4.23013 18.3301C4.52013 18.0901 4.95012 18.1302 5.19012 18.4202C5.32012 18.5802 5.54013 18.6002 5.98013 18.6102C6.17013 18.6102 6.35011 18.6202 6.52011 18.6502C6.81011 18.6902 7.11012 18.7601 7.41012 18.8301C8.07012 18.9701 8.75011 19.1202 9.18011 19.0102C10.6001 18.6502 11.7601 18.1002 12.6301 17.4002C15.3201 15.2202 18.1201 13.3102 20.9601 11.7402C21.9101 11.2202 23.1901 10.7202 24.7401 11.5602C25.7601 12.1102 26.8301 12.5301 27.9601 12.9701C28.7201 13.2701 29.4701 13.5602 30.2101 13.9002C30.9301 14.2302 31.1301 14.1202 31.3301 13.9302C31.4801 13.7902 31.5101 13.7101 31.2201 13.0901L31.1001 12.8401C30.9601 12.5301 30.7301 12.1802 30.3901 11.7902C30.0901 11.4402 29.7901 11.1002 29.5001 10.7502C28.1901 9.20018 26.8301 7.6102 25.2701 6.2702C24.1001 5.2702 22.6401 4.76016 20.8001 4.73016C19.2701 4.71016 17.8201 5.14015 16.2901 5.60015C15.9501 5.70015 15.6101 5.8002 15.2801 5.9002C13.3001 6.4702 10.9801 6.9802 8.56012 5.9002C8.22012 5.7502 8.07012 5.34018 8.22012 5.00018C8.37012 4.66018 8.78011 4.51021 9.12011 4.66021C10.9301 5.47021 12.6701 5.24015 14.9101 4.60015C15.2401 4.51015 15.5701 4.41024 15.9001 4.31024C17.4601 3.84024 19.0701 3.34018 20.8201 3.38018C22.9901 3.42018 24.7301 4.02017 26.1501 5.24017C27.7901 6.64017 29.1801 8.28017 30.5301 9.87017C30.8201 10.2202 31.1201 10.5602 31.4201 10.9102C31.8501 11.4102 32.1501 11.8602 32.3401 12.3002L32.4401 12.5202C32.6901 13.0602 33.1601 14.0602 32.2601 14.9202C31.2601 15.8802 30.0801 15.3502 29.6401 15.1502C28.9301 14.8302 28.1901 14.5402 27.4601 14.2502C26.3401 13.8102 25.1801 13.3502 24.0901 12.7702C23.1801 12.2802 22.4601 12.4701 21.6101 12.9501C18.8401 14.4801 16.1101 16.3401 13.4801 18.4701C12.4601 19.3001 11.1201 19.9302 9.52011 20.3502C9.29011 20.4102 9.06012 20.4302 8.82013 20.4302V20.4102Z" fill="#041C25"/>
<path d="M3.03989 22.1097C2.54989 22.1097 2.07988 21.8297 1.67988 21.5297C0.499877 20.6697 0.659895 19.3097 0.729895 18.7397C0.789895 18.2397 0.939871 17.7796 1.07987 17.3296C1.19987 16.9296 1.31988 16.5596 1.36988 16.1996C1.49988 15.1996 1.86989 14.3196 2.21989 13.4596C2.50989 12.7596 2.77989 12.0997 2.90989 11.4197C3.38989 9.02972 3.81989 6.57964 4.21989 4.20964C4.38989 3.21964 4.55987 2.21966 4.73987 1.22966C4.80988 0.859659 5.15988 0.609732 5.52988 0.679732C5.72988 0.719732 5.88987 0.829668 5.98987 0.989668C7.45988 1.13967 8.59987 1.50968 9.54987 2.12968C9.66987 2.20968 9.75988 2.31962 9.80988 2.43962C10.0899 3.13962 9.68989 3.60974 9.50989 3.80974C9.47989 3.84974 9.4299 3.89972 9.4199 3.91972C9.4799 5.58972 8.87987 7.12966 8.29987 8.60966C8.16987 8.94966 8.03989 9.27967 7.90989 9.61967C7.73989 10.0897 7.58989 10.5797 7.43989 11.0597C7.19989 11.8497 6.94988 12.6696 6.58988 13.4496C5.95988 14.7996 5.62988 16.2197 5.27988 17.7297C5.06988 18.6397 4.84988 19.5697 4.55988 20.4797C4.35988 21.1297 4.05989 21.8197 3.40989 22.0397C3.27989 22.0797 3.14987 22.0997 3.01987 22.0997L3.03989 22.1097ZM5.93989 2.33964C5.81989 3.03964 5.69987 3.72973 5.57987 4.42973C5.16987 6.80973 4.74989 9.26973 4.25989 11.6797C4.09989 12.4897 3.78987 13.2396 3.48987 13.9696C3.15987 14.7896 2.8399 15.5597 2.7299 16.3797C2.6699 16.8597 2.5199 17.3097 2.3899 17.7397C2.2599 18.1497 2.13988 18.5297 2.08988 18.8997C1.98988 19.7497 2.08987 20.1397 2.48987 20.4297C2.83987 20.6797 2.98989 20.7297 3.03989 20.7397C3.02989 20.7197 3.13989 20.5696 3.28989 20.0696C3.55989 19.2096 3.7699 18.2997 3.9799 17.4097C4.3299 15.9097 4.68989 14.3497 5.37989 12.8697C5.69989 12.1797 5.91989 11.4397 6.15989 10.6597C6.30989 10.1497 6.46988 9.6397 6.64988 9.1497C6.77988 8.7997 6.90987 8.45966 7.04987 8.10966C7.60987 6.68966 8.12988 5.33968 8.08988 3.87968C8.07988 3.47968 8.25989 3.19969 8.40989 3.00969C7.73989 2.65969 6.93989 2.43963 5.93989 2.32963V2.33964Z" fill="#041C25"/>
<path d="M39.2001 7.34038C38.3101 7.34038 37.3801 7.17036 36.4101 6.82036C34.7201 6.21036 33.11 5.44036 31.55 4.69036C30.99 4.42036 30.43 4.15043 29.86 3.89043C27.22 2.67043 26.9501 2.99037 25.1601 5.08037L24.5901 4.70037L24.0701 4.26043C26.1501 1.83043 27.0301 1.09045 30.4201 2.66045C30.9901 2.93045 31.5601 3.20039 32.1301 3.47039C33.6601 4.20039 35.2401 4.96045 36.8701 5.54045C38.9801 6.29045 40.7601 6.09042 42.4801 4.88042C42.7901 4.66042 43.2101 4.74046 43.4301 5.05046C43.6501 5.36046 43.5701 5.78042 43.2601 6.00042C41.9701 6.90042 40.6301 7.35039 39.2001 7.35039V7.34038Z" fill="#041C25"/>
<path d="M49.83 21.64C49.83 21.64 49.77 21.64 49.75 21.64C49.52 21.61 49.32 21.47 49.22 21.26C48.75 20.29 48.3201 19.32 47.8901 18.35C46.9101 16.12 45.98 14.02 44.62 12.11C44.08 11.34 43.86 10.41 43.66 9.51002C43.59 9.18002 43.5101 8.86005 43.4201 8.54005C43.1101 7.47005 42.81 6.39003 42.51 5.27003L42.09 3.76002C42.04 3.56002 42.07 3.34995 42.19 3.18995C42.31 3.02995 42.49 2.92003 42.7 2.90003C44.5501 2.77003 46.04 1.76004 47.49 0.780039C47.65 0.670039 47.83 0.640064 48 0.680064C48.22 0.620064 48.47 0.679976 48.65 0.839976C49.49 1.63998 49.62 2.64003 49.73 3.52003C49.77 3.82003 49.81 4.12004 49.88 4.41004C50.25 5.91004 50.4801 7.44005 50.7001 8.92005C50.9601 10.6601 51.23 12.4501 51.73 14.1701C52.11 15.4701 52.07 16.86 52.03 18.2C52.02 18.68 52 19.16 52.01 19.63C52.03 20.71 51.21 21.0101 50.78 21.1701C50.59 21.2401 50.42 21.3 50.34 21.39C50.21 21.55 50.02 21.63 49.82 21.63L49.83 21.64ZM43.61 4.16004L43.82 4.92005C44.13 6.04005 44.42 7.11005 44.73 8.17005C44.83 8.51005 44.91 8.85997 44.99 9.20997C45.17 10.02 45.35 10.78 45.74 11.33C47.18 13.35 48.1801 15.6101 49.1401 17.8001C49.4601 18.5201 49.78 19.25 50.12 19.98C50.19 19.95 50.26 19.93 50.33 19.9C50.45 19.86 50.62 19.79 50.66 19.75C50.66 19.75 50.66 19.72 50.66 19.65C50.66 19.16 50.66 18.66 50.68 18.16C50.72 16.87 50.75 15.6501 50.43 14.5501C49.91 12.7501 49.63 10.91 49.36 9.13001C49.14 7.68001 48.92 6.18001 48.56 4.75001C48.48 4.41001 48.43 4.05996 48.38 3.69996C48.3 3.08996 48.2301 2.55 47.95 2.12C46.7 2.96 45.3 3.85004 43.61 4.16004Z" fill="#041C25"/>
<path d="M21.6099 32.3603C21.4099 32.3603 21.2399 32.3204 21.1099 32.2804C20.7499 32.1604 20.2599 31.8403 19.9299 31.0203C19.8299 30.7603 19.7499 30.5003 19.6799 30.2303C19.5699 30.2303 19.4499 30.2503 19.3399 30.2603C18.7199 30.3103 18.0299 30.3703 17.3099 30.1103C15.8599 29.5903 15.6299 28.2904 15.5199 27.4204C15.4699 27.4204 15.3899 27.4104 15.2899 27.4204C12.8799 27.5704 12.4099 26.9103 12.1299 24.7403C11.9399 23.2203 13.0099 22.6003 13.6499 22.2203C13.7599 22.1603 13.8599 22.0904 13.9599 22.0304L14.2499 21.8403C16.5899 20.3003 19.0199 18.7103 21.6999 17.6003C22.0499 17.4603 22.4399 17.6203 22.5899 17.9703C22.7399 18.3203 22.5699 18.7103 22.2199 18.8603C19.6599 19.9203 17.2899 21.4703 14.9999 22.9803L14.7099 23.1704C14.5899 23.2504 14.4699 23.3203 14.3399 23.4003C13.6499 23.8103 13.4099 24.0003 13.4799 24.5803C13.6133 25.6403 14.1899 26.1369 15.2099 26.0703C16.3199 26.0103 16.7899 26.5603 16.8499 27.1103C16.9699 28.1403 17.1199 28.6003 17.7699 28.8403C18.1999 29.0003 18.6799 28.9604 19.2199 28.9104C19.5499 28.8804 19.8899 28.8503 20.2199 28.8703C20.5099 28.8803 20.7699 29.0803 20.8499 29.3603C20.8899 29.4903 20.9199 29.6203 20.9599 29.7603C21.0299 30.0203 21.0899 30.2703 21.1899 30.5203C21.2999 30.7803 21.4299 30.9603 21.5499 31.0003C21.6699 31.0403 21.8499 30.9503 21.9499 30.8903C22.6299 30.4903 23.3499 30.1703 24.0399 29.8703C25.0899 29.4003 26.0799 28.9604 26.9299 28.2804C27.2199 28.0504 27.65 28.0903 27.8899 28.3803C28.1299 28.6703 28.0799 29.1003 27.7899 29.3403C26.7999 30.1403 25.6899 30.6303 24.5999 31.1103C23.9099 31.4203 23.2599 31.7103 22.6399 32.0703C22.2499 32.3003 21.9099 32.3703 21.6199 32.3703L21.6099 32.3603Z" fill="#041C25"/>
<path d="M16.34 27.3802C16.17 27.3802 16.01 27.3202 15.88 27.2002C15.61 26.9402 15.59 26.5102 15.84 26.2402C15.87 26.2102 15.8999 26.1602 15.9299 26.1202C16.0599 25.9402 16.24 25.7002 16.56 25.5902C19.66 24.4902 22.52 22.8402 25.06 20.6902C25.35 20.4502 25.7699 20.4802 26.0199 20.7702C26.2599 21.0602 26.23 21.4902 25.94 21.7302C23.29 23.9602 20.31 25.6802 17.09 26.8402C17.07 26.8702 17.0399 26.9003 17.0199 26.9303C16.9599 27.0103 16.9 27.0902 16.84 27.1602C16.71 27.3002 16.52 27.3802 16.34 27.3802Z" fill="#041C25"/>
<path d="M39.97 29.1804C39.83 29.1804 39.69 29.1703 39.52 29.1303C38.17 28.8503 36.73 28.5504 35.73 27.1704C35.52 26.8704 35.31 26.5703 35.1 26.2603C34.67 25.6203 34.26 25.0204 33.79 24.5304C32.2 22.8604 32.5 21.0603 32.91 19.5003C33.17 18.5303 33.75 17.8604 34.52 17.6604C35.29 17.4604 36.12 17.7603 36.81 18.4703C36.97 18.6403 37.13 18.8203 37.29 18.9903C37.75 19.5003 38.18 19.9904 38.74 20.2804C38.99 20.4104 39.13 20.6703 39.11 20.9403L39.13 21.0803C39.15 21.2203 39.17 21.3003 39.2 21.3703C39.45 21.8703 39.77 22.3403 40.12 22.8403C40.85 23.8903 41.68 25.0803 41.71 26.7203C41.72 27.7103 41.48 28.4103 40.98 28.8203C40.77 28.9903 40.44 29.1704 39.95 29.1704L39.97 29.1804ZM35.01 18.9603C35.01 18.9603 34.92 18.9603 34.87 18.9803C34.59 19.0503 34.36 19.3703 34.23 19.8503C33.8 21.5003 33.76 22.5303 34.78 23.6003C35.33 24.1703 35.79 24.8503 36.23 25.5103C36.43 25.8003 36.63 26.1003 36.83 26.3803C37.53 27.3403 38.54 27.5504 39.71 27.7904C39.91 27.8304 40.06 27.8504 40.13 27.7904C40.24 27.7004 40.37 27.3703 40.36 26.7503C40.34 25.5303 39.7 24.6103 39.02 23.6303C38.66 23.1103 38.29 22.5803 38 21.9903C37.87 21.7303 37.83 21.5003 37.81 21.3203C37.2 20.9303 36.74 20.4204 36.3 19.9204C36.15 19.7604 36.01 19.5904 35.86 19.4304C35.58 19.1304 35.28 18.9703 35.03 18.9703L35.01 18.9603Z" fill="#041C25"/>
<path d="M42.89 26.2802C42.44 26.2802 42.0799 26.1001 41.7999 25.9601C41.5099 25.8101 41.4099 25.7702 41.3099 25.8102C40.9599 25.9302 40.57 25.7401 40.45 25.3901C40.33 25.0401 40.5199 24.6502 40.8699 24.5302C41.5199 24.3102 42.0399 24.5601 42.4099 24.7501C42.6399 24.8701 42.79 24.9402 42.92 24.9202C43.83 24.8302 43.9599 24.7301 43.9899 24.0701C44.0599 22.7401 43.7399 20.9501 41.8199 19.9601C41.2299 19.6601 40.4899 19.4802 39.1199 21.1602C38.8799 21.4502 38.4599 21.5001 38.1599 21.2601C37.8699 21.0201 37.8199 20.6002 38.0599 20.3002C38.9899 19.1502 40.4699 17.7301 42.4399 18.7401C44.4499 19.7701 45.4799 21.6901 45.3499 24.1301C45.2499 26.0501 43.8199 26.1901 43.0499 26.2601C42.9999 26.2601 42.94 26.2601 42.89 26.2601V26.2802Z" fill="#041C25"/>
<path d="M12.6501 24.5498C12.5901 24.5498 12.5201 24.5498 12.4601 24.5198C8.89006 23.4698 8.67006 23.2197 8.55006 19.9597C8.54006 19.5797 8.83008 19.2698 9.20008 19.2598C9.57008 19.2598 9.89006 19.5398 9.90006 19.9098C9.96006 21.5565 10.9367 22.6597 12.8301 23.2197C13.1901 23.3297 13.4001 23.6998 13.2901 24.0598C13.2001 24.3598 12.9301 24.5498 12.6401 24.5498H12.6501Z" fill="#041C25"/>
<path d="M30.9699 32.9999C30.3599 32.9999 29.7699 32.8099 29.3099 32.1899C29.0799 31.8799 28.8199 31.58 28.5699 31.28C27.7099 30.2699 26.7499 29.1299 26.5699 27.4799L26.5499 27.3C26.4699 26.6 26.3699 25.7299 27.2499 24.9899C28.0699 24.2999 28.7999 24.7899 29.1099 24.9899C29.1899 25.0399 29.2999 25.1199 29.3399 25.1299C29.8099 25.1799 30.1399 25.46 30.4199 25.67C30.6099 25.82 30.7699 25.9499 30.9099 25.9599C31.2799 25.9899 31.5599 26.3199 31.5299 26.6899C31.4999 27.0599 31.1699 27.34 30.7999 27.31C30.2399 27.27 29.8499 26.9499 29.5699 26.7199C29.4299 26.6099 29.2699 26.4799 29.1799 26.4699C28.8299 26.4299 28.5699 26.2499 28.3499 26.1099C28.2799 26.0599 28.1599 25.9799 28.1199 25.9699C27.8299 26.2499 27.8199 26.4299 27.8999 27.1299L27.9199 27.3199C28.0499 28.5599 28.8099 29.4499 29.6099 30.3899C29.8799 30.7099 30.1599 31.0399 30.4099 31.3699C30.6899 31.7499 31.1999 31.6799 32.2899 31.3499C32.4499 31.2999 32.5999 31.2599 32.7599 31.2199C33.0699 31.1399 33.0999 31.1099 33.1099 30.4799C33.1099 30.3399 33.1099 30.19 33.1299 30.05C33.1599 29.68 33.4899 29.4 33.8599 29.43C34.2299 29.46 34.5099 29.79 34.4799 30.16C34.4799 30.27 34.4699 30.3799 34.4699 30.4899C34.4699 31.0699 34.4399 32.1599 33.1099 32.5199C32.9699 32.5599 32.8199 32.5999 32.6799 32.6399C32.1699 32.7899 31.5699 32.9699 30.9799 32.9699L30.9699 32.9999Z" fill="#041C25"/>
<path d="M34.96 30.8502C34.26 30.8502 33.53 30.6502 32.93 30.2602C30.98 29.0002 30.42 27.0202 29.93 25.2702C29.8 24.8102 29.67 24.3502 29.52 23.9102C29.32 23.3202 29.48 22.6702 29.96 22.1802C30.5 21.6202 31.3 21.3902 31.98 21.6002C32.21 21.6702 32.4 21.7902 32.55 21.8802C32.63 21.9302 32.77 22.0202 32.81 22.0202C33.16 21.9002 33.56 22.0901 33.68 22.4401C33.8 22.7901 33.62 23.1802 33.27 23.3002C32.62 23.5202 32.12 23.2202 31.83 23.0302C31.74 22.9702 31.64 22.9102 31.58 22.9002C31.39 22.8402 31.11 22.9402 30.93 23.1202C30.88 23.1802 30.75 23.3302 30.8 23.4702C30.96 23.9402 31.1 24.4202 31.23 24.9102C31.7 26.5802 32.14 28.1502 33.66 29.1202C34.2 29.4702 34.97 29.5902 35.53 29.4102C35.72 29.3502 35.97 29.2202 36.06 28.9802C36.08 28.9402 36.07 28.7901 36.07 28.6901C36.07 28.3401 36.05 27.8102 36.49 27.3502C36.75 27.0802 37.18 27.0701 37.45 27.3301C37.72 27.5901 37.73 28.0202 37.47 28.2902C37.43 28.3302 37.43 28.4302 37.43 28.6602C37.43 28.8902 37.43 29.1802 37.32 29.4702C37.09 30.0502 36.6 30.4801 35.94 30.7001C35.63 30.8001 35.29 30.8502 34.95 30.8502H34.96Z" fill="#041C25"/>
<path d="M44.7201 22.6004C44.4701 22.6004 44.2401 22.4704 44.1201 22.2304C43.9501 21.9004 44.0801 21.4904 44.4101 21.3204C45.9701 20.5204 47.1901 19.7505 48.2601 18.9005C48.5501 18.6705 48.9801 18.7204 49.2101 19.0104C49.4401 19.3004 49.3901 19.7304 49.1001 19.9604C47.9601 20.8604 46.6601 21.6805 45.0201 22.5205C44.9201 22.5705 44.8101 22.6004 44.7101 22.6004H44.7201Z" fill="#041C25"/>
<path d="M20.5 30.0403C20.34 30.0403 20.18 29.9802 20.05 29.8702C19.77 29.6202 19.74 29.1903 19.99 28.9103C20.66 28.1503 21.48 27.6802 22.28 27.2402C22.86 26.9202 23.4 26.6102 23.86 26.2102C24.14 25.9602 24.57 25.9903 24.82 26.2703C25.07 26.5503 25.04 26.9802 24.76 27.2302C24.2 27.7202 23.56 28.0803 22.95 28.4203C22.22 28.8303 21.53 29.2203 21.02 29.8003C20.89 29.9503 20.7 30.0303 20.51 30.0303L20.5 30.0403Z" fill="#041C25"/>
</svg>
