<svg xmlns="http://www.w3.org/2000/svg" xmlns:xlink="http://www.w3.org/1999/xlink" width="75" height="75" viewBox="0 0 75 75">
  <defs>
    <clipPath id="clip-image-mobile-buy">
      <rect width="75" height="75"/>
    </clipPath>
  </defs>
  <g id="image-mobile-buy" clip-path="url(#clip-image-mobile-buy)">
    <rect width="75" height="75" fill="#fff"/>
    <g id="Layer_1" data-name="Layer 1" transform="translate(-2157.154 -912.946)">
      <g id="Group_62" data-name="Group 62">
        <g id="Group_44" data-name="Group 44">
          <g id="Group_43" data-name="Group 43">
            <g id="Group_42" data-name="Group 42">
              <path id="Path_105" data-name="Path 105" d="M2178.94,967.661l14.457,8.379a3.7,3.7,0,0,0,3.353,0l13.615-7.86a1.023,1.023,0,0,0,0-1.937l-14.458-8.38a3.707,3.707,0,0,0-3.355,0l-13.614,7.86a1.022,1.022,0,0,0,0,1.935Z" fill="#767676"/>
              <path id="Path_106" data-name="Path 106" d="M2211.062,958.207v-1.286a1.178,1.178,0,0,0-.7-.967l-14.456-8.38a3.7,3.7,0,0,0-3.355,0l-13.615,7.86a1.18,1.18,0,0,0-.695.971v1.241l.009,0a1.14,1.14,0,0,0,.686,1.014l14.456,8.38a3.711,3.711,0,0,0,3.354,0l13.615-7.861a1.184,1.184,0,0,0,.7-.974Z" fill="#e4e5e6"/>
              <path id="Path_107" data-name="Path 107" d="M2210.367,955.954a1.024,1.024,0,0,1,0,1.939l-13.615,7.859a3.707,3.707,0,0,1-3.355,0l-14.918-8.646c-.463-.268-.232-.349-.232-.7h0v1.241l.009,0a1.14,1.14,0,0,0,.686,1.014l14.456,8.38a3.711,3.711,0,0,0,3.354,0l13.615-7.861a1.184,1.184,0,0,0,.7-.974h0v-1.286A1.178,1.178,0,0,0,2210.367,955.954Z" opacity="0.3" style="mix-blend-mode: overlay;isolation: isolate"/>
              <g id="Group_41" data-name="Group 41">
                <path id="Path_108" data-name="Path 108" d="M2195.072,967.745a3.719,3.719,0,0,1-1.824-.442l-14.456-8.38a1.467,1.467,0,0,1-.837-1.215.28.28,0,0,1-.007-.06v-1.241a1.462,1.462,0,0,1,.844-1.229l13.615-7.86a3.976,3.976,0,0,1,3.653,0l14.456,8.38a1.459,1.459,0,0,1,.844,1.225v1.286l0,.029a1.488,1.488,0,0,1-.843,1.2L2196.9,967.3A3.722,3.722,0,0,1,2195.072,967.745Zm-16.528-10.16a.266.266,0,0,1,.008.085c-.017.265.174.526.538.737l14.457,8.38a3.43,3.43,0,0,0,3.055,0l13.615-7.861a.913.913,0,0,0,.546-.715v-1.288a.9.9,0,0,0-.546-.709l-14.457-8.38a3.426,3.426,0,0,0-3.056,0l-13.615,7.86a.9.9,0,0,0-.546.713Zm32.518.622h0Z"/>
              </g>
            </g>
          </g>
        </g>
        <g id="Group_61" data-name="Group 61">
          <path id="Path_109" data-name="Path 109" d="M2201.387,953.218c.084.252.156.5.213.726.272,1.1.78,3.722,1.312,6.573l-3.418,2.027c-.041-1.4-1.558-7.851-1.668-8.317h0l0-.02h0l-.065-.221-.115.034h0l.115-.034c-2.77-9.439.228-12.845.789-13.38l1.411,1.555C2199.441,945.111,2199.921,948.828,2201.387,953.218Z" fill="#fff"/>
          <path id="Path_110" data-name="Path 110" d="M2185.565,938.333s.384,5.717-.44,8.315-2.205,3.7-2.428,6.713l16.7,9.469s-.569-3.43-1.179-5.885c-.061-.248-1.013-5.028-1.076-5.275-1.673-6.537.368-9.911,1.5-11.248l3.925,4.378c.993,1.016,2.093,1.34,2.8.9,0,0,3.653-2.39,3.759-2.552.588-.9.332-2.592-.612-4.04l-6.581-10.056-.247-4.361-2.169,1.708a7.549,7.549,0,0,0-1.79-1.138c-2.669-1.132-5.42-1.077-8.623,1.934-4.236,3.111-3.547,11.14-3.547,11.14" fill="#e4e5e6"/>
          <g id="Group_55" data-name="Group 55">
            <g id="Group_46" data-name="Group 46">
              <g id="Group_45" data-name="Group 45">
                <path id="Path_111" data-name="Path 111" d="M2202.369,929.865l4.863,7.454-3.483,1.982-5.075-7.789,3.562.815Z" fill="#fff"/>
                <path id="Path_112" data-name="Path 112" d="M2203.75,939.3l3.482-1.982,1.164,1.787c.944,1.448,1.2,3.14.612,4.04-.106.162-3.757,2.543-3.757,2.543-.7.453-1.808.131-2.8-.889l-1.566-1.727Z" fill="#c0c2c3"/>
                <path id="Path_113" data-name="Path 113" d="M2197.609,925.259a5.112,5.112,0,0,1,1.742.959l2.118-1.487a33.9,33.9,0,0,0,.755,4.714c.959,1.286-.03,3.241-.03,3.241l-3.989-5.841-9.219.348C2192.189,924.182,2194.94,924.127,2197.609,925.259Z" fill="#c0c2c3"/>
                <path id="Path_114" data-name="Path 114" d="M2188.986,927.193a8.473,8.473,0,0,1,7.176-1.285,9.1,9.1,0,0,1,3.411,1.823s3.241,2.857,2.882,4.594c-.278,1.345-3.781-.812-3.781-.812l-.469-4.668-3.735,2.844s-2.181.006-3.077.963c-1.929,2.061-2.968,5.855-3.946,8.23a2.291,2.291,0,0,1-1.959,1.555S2184.75,930.3,2188.986,927.193Z" fill="#767676"/>
              </g>
            </g>
            <g id="Group_54" data-name="Group 54">
              <g id="Group_47" data-name="Group 47">
                <line id="Line_5" data-name="Line 5" y1="1.979" x2="3.478" transform="translate(2203.817 937.429)" fill="none" stroke="#000" stroke-miterlimit="10" stroke-width="0.56"/>
              </g>
              <g id="Group_48" data-name="Group 48">
                <path id="Path_115" data-name="Path 115" d="M2185.355,945.808a4.562,4.562,0,0,0,.381-1.94l-.122-3.44h-.253l.121,3.44a4.32,4.32,0,0,1-.357,1.833Z"/>
              </g>
              <g id="Group_49" data-name="Group 49">
                <path id="Path_116" data-name="Path 116" d="M2208.283,939.175l.213-.138-6.031-9.163-.207.135Z"/>
              </g>
              <g id="Group_50" data-name="Group 50">
                <path id="Path_117" data-name="Path 117" d="M2201.83,929.264l.252-.025-.387-4.563a.128.128,0,0,0-.076-.1.124.124,0,0,0-.127.015l-2.141,1.63.153.2,1.961-1.493Z"/>
              </g>
              <g id="Group_51" data-name="Group 51">
                <path id="Path_118" data-name="Path 118" d="M2205.317,945.8c.134-.086,3.284-2.1,3.382-2.169a1.412,1.412,0,0,0,.415-.421c.613-.937.355-2.694-.611-4.178l-1.164-1.787-.213.138,1.164,1.787c.914,1.4,1.172,3.045.612,3.9a1.182,1.182,0,0,1-.342.347c-.1.064-3.347,2.146-3.379,2.167Z"/>
              </g>
              <g id="Group_52" data-name="Group 52">
                <path id="Path_119" data-name="Path 119" d="M2198.608,931.621c.107.066,2.638,1.613,3.6,1.2a.681.681,0,0,0,.372-.469c.655-2.1-2.843-4.489-3.006-4.62a6.068,6.068,0,0,0-2.772-1.545c-1.882-.461-5.282-1.01-7.89.905-4.244,3.116-3.58,12.939-3.55,13.355" fill="none" stroke="#000" stroke-miterlimit="10" stroke-width="0.56"/>
              </g>
              <g id="Group_53" data-name="Group 53">
                <line id="Line_6" data-name="Line 6" y1="3.772" x2="2.869" transform="translate(2200.986 939.375)" fill="none" stroke="#000" stroke-miterlimit="10" stroke-width="0.56"/>
              </g>
            </g>
          </g>
          <g id="Group_58" data-name="Group 58">
            <g id="Group_57" data-name="Group 57">
              <g id="Group_56" data-name="Group 56">
                <path id="Path_120" data-name="Path 120" d="M2202.932,960.693c-.539-2.888-1.055-5.561-1.33-6.668-.057-.23-.129-.474-.213-.726-1.5-4.5-1.973-8.3-1.4-11.288,0,0,.205.287.185.408-.467,2.888.021,6.518,1.451,10.8.086.258.159.508.218.745.275,1.1.788,3.758,1.323,6.629Z"/>
              </g>
            </g>
          </g>
          <g id="Group_59" data-name="Group 59">
            <path id="Path_121" data-name="Path 121" d="M2198.7,931.7l6.432,9.5c.967,1.484,1.224,3.241.611,4.178a1.375,1.375,0,0,1-1.048.639,3.091,3.091,0,0,1-2.342-1.125l-3.809-4.2c-.561.535-3.559,3.941-.789,13.38,0,0,1.734,6.8,1.641,8.618" fill="none" stroke="#000" stroke-miterlimit="10" stroke-width="0.56"/>
          </g>
          <g id="Group_60" data-name="Group 60">
            <path id="Path_122" data-name="Path 122" d="M2185.44,940.688a3.664,3.664,0,0,0,2.332-2.079c.241-.547.507-1.278.789-2.053.7-1.927,1.574-4.325,2.633-5.461a3.955,3.955,0,0,1,3.285-1.218.133.133,0,0,0,.082-.026l3.555-2.706.632,4.691" fill="none" stroke="#000" stroke-miterlimit="10" stroke-width="0.56"/>
          </g>
          <path id="Path_123" data-name="Path 123" d="M2199.4,962.977l-.064-.036-16.776-9.512.011-.085a15.635,15.635,0,0,1,1.331-4.185,18.553,18.553,0,0,0,1.223-3.458l.23.107a18.188,18.188,0,0,1-1.22,3.452,15.408,15.408,0,0,0-1.3,4.034l16.562,9.39,3.71-2.2.129.219Z"/>
        </g>
        <path id="Path_124" data-name="Path 124" d="M2209.352,941.055a5.988,5.988,0,0,0-.849-2.018l-1.164-1.787-.014.008-2.213-3.363-2.7-4.127q-.151-.274-.331-.554l-.385-4.538a.128.128,0,0,0-.076-.1.124.124,0,0,0-.127.015l-2.122,1.616a7.535,7.535,0,0,0-1.712-1.062c-3.179-1.348-5.879-.745-8.753,1.954-4.23,3.117-3.576,12.9-3.544,13.348l.121,3.424a4.32,4.32,0,0,1-.357,1.833,18.484,18.484,0,0,1-1.223,3.458,15.635,15.635,0,0,0-1.331,4.185l-.011.085,16.776,9.512.064.036,3.836-2.274-.065-.11c-.535-2.871-1.048-5.524-1.323-6.629-.059-.237-.132-.487-.218-.745-1.421-4.253-1.91-7.862-1.459-10.74l2.183,2.406a3.091,3.091,0,0,0,2.342,1.125,1.394,1.394,0,0,0,.619-.209l0,0c.134-.086,3.284-2.1,3.383-2.169a1.421,1.421,0,0,0,.414-.421,2.084,2.084,0,0,0,.3-.849A3.7,3.7,0,0,0,2209.352,941.055Zm-9.955,21.629-.026-.015v-.007h.064Z" fill="none" stroke="#000" stroke-miterlimit="10" stroke-width="0.56"/>
      </g>
      <rect id="Rectangle_4" data-name="Rectangle 4" width="75.151" height="75.151" transform="translate(2157.079 912.871)" fill="#efebe6" style="mix-blend-mode: multiply;isolation: isolate"/>
    </g>
  </g>
</svg>
