<?xml version="1.0" encoding="UTF-8"?>
<svg id="Layer_1" data-name="Layer 1" xmlns="http://www.w3.org/2000/svg" viewBox="0 0 137.81 42.8">
  <defs>
    <style>
      .cls-1 {
        fill: #041c25;
      }
    </style>
  </defs>
  <path class="cls-1" d="m0,.32s.09-.02.13-.02c2.18,0,4.36-.01,6.54.03,1.1.02,2.17.28,3.12.87,1.31.81,1.9,2.03,1.99,3.53.07,1.14-.17,2.21-.91,3.13-.34.42-.76.73-1.24.93.35.21.73.39,1.05.64,1.06.83,1.62,1.95,1.65,3.3.04,1.6-.4,3-1.71,4.02-.82.64-1.78.95-2.8,1.07-.51.06-1.02.08-1.53.08-1.98,0-3.96,0-5.95,0-.12,0-.23.02-.35.03V.32Zm2.83,14.98c1.38,0,2.73,0,4.07,0,.18,0,.36-.03.53-.07.95-.2,1.69-.68,1.96-1.66.26-.98.17-1.92-.6-2.67-.55-.54-1.26-.71-2-.73-1.26-.02-2.53-.01-3.79-.01-.05,0-.1.01-.16.02v5.12Zm0-7.64c1.26,0,2.5.01,3.73,0,.32,0,.64-.09.95-.18.71-.22,1.21-.68,1.4-1.43.14-.54.14-1.08-.01-1.62-.15-.53-.46-.95-.96-1.16-.43-.17-.89-.33-1.34-.35-1.2-.06-2.4-.04-3.6-.05-.05,0-.1.02-.17.03v4.77Z"/>
  <path class="cls-1" d="m74.77,42.8c0-1.04,0-2.08,0-3.12,0-4.55,0-9.1,0-13.65v-.34c.11,0,.19-.01.28-.01,2.09,0,4.18,0,6.27,0,1.49,0,2.93.26,4.26.95,1.8.94,3.01,2.39,3.62,4.31.79,2.48.75,4.96-.31,7.36-1.04,2.36-2.92,3.73-5.41,4.27-.46.1-.93.15-1.4.22h-7.32Zm2.93-2.62s.07.03.09.03c1.45-.02,2.91.06,4.35-.07,2.09-.18,3.55-1.29,4.26-3.3.47-1.33.5-2.7.29-4.09-.17-1.09-.56-2.09-1.32-2.92-.95-1.04-2.18-1.5-3.55-1.56-1.32-.05-2.64-.02-3.95-.03-.05,0-.1.02-.16.03v11.91Z"/>
  <path class="cls-1" d="m114.29,42.8c0-.12.02-.25.02-.37,0-5.45,0-10.91,0-16.36v-.36c.1,0,.18-.02.26-.02,1.95,0,3.89,0,5.84,0,.98,0,1.93.14,2.84.53,1.67.72,2.55,2.02,2.77,3.8.1.83.06,1.65-.12,2.46-.41,1.84-1.61,2.85-3.41,3.22-.06.01-.12.02-.18.04-.03,0-.05.02-.1.04.11.13.21.25.31.37,1.83,2.14,3.66,4.29,5.48,6.43.06.07.12.15.18.23h-3.23c-.05-.07-.09-.15-.15-.22-1.78-2.12-3.57-4.24-5.33-6.37-.22-.27-.44-.38-.79-.36-.51.03-1.01,0-1.54,0v6.95h-2.85Zm2.87-14.59v5.23c1.1,0,2.18,0,3.27,0,.29,0,.59-.04.88-.11,1.19-.27,1.89-1.12,1.96-2.37.07-1.21-.54-2.18-1.64-2.55-.33-.11-.7-.18-1.05-.19-1.08-.03-2.17-.02-3.25-.02-.05,0-.1,0-.16.02Z"/>
  <path class="cls-1" d="m95.07,42.8c0-.12,0-.23,0-.35,0-5.46,0-10.93,0-16.39,0-.11,0-.23,0-.36h10.66v2.54h-7.71v4.12h6.91v2.54h-6.92v5.32h7.76v2.59h-10.71Z"/>
  <path class="cls-1" d="m115.09,0c.53.09,1.06.16,1.58.27.9.19,1.74.55,2.53,1.03.15.09.2.19.2.36-.01.92,0,1.84,0,2.82-.18-.13-.32-.23-.46-.33-1.52-1.1-3.2-1.67-5.09-1.51-.52.04-1.03.17-1.48.43-1.21.71-1.32,2.44-.18,3.26.32.23.69.41,1.06.56,1.3.52,2.62.97,3.91,1.52,1.17.5,2.16,1.26,2.69,2.47.74,1.67.73,4.27-1.08,5.81-.9.77-1.96,1.19-3.11,1.35-2.21.32-4.32,0-6.31-1.03-.45-.23-.66-.5-.62-1.03.06-.71.01-1.43.01-2.15,0-.09,0-.17,0-.31.19.14.35.26.51.37,1.69,1.21,3.56,1.81,5.64,1.59.51-.05,1.04-.21,1.51-.43,1.44-.68,1.41-2.78.27-3.52-.54-.35-1.15-.63-1.75-.88-1.13-.47-2.29-.88-3.42-1.35-.68-.29-1.28-.72-1.78-1.28-.92-1.03-1.19-2.26-1.11-3.6.14-2.26,1.75-3.7,3.87-4.21.4-.1.81-.15,1.21-.22.47,0,.93,0,1.4,0Z"/>
  <path class="cls-1" d="m45.27,0c.49.07.99.13,1.48.22,1,.19,1.94.55,2.82,1.09.15.09.22.19.22.38-.01.84,0,1.69,0,2.53,0,.08,0,.15,0,.28-.2-.14-.36-.26-.51-.37-1.48-1.06-3.11-1.61-4.94-1.49-.58.04-1.14.16-1.64.47-1.13.7-1.26,2.34-.21,3.16.36.28.79.49,1.22.66,1.25.51,2.53.96,3.78,1.47.38.15.74.37,1.08.6,1.22.8,1.91,1.94,2.07,3.39.18,1.66-.17,3.14-1.47,4.3-.73.65-1.58,1.05-2.53,1.25-2.54.54-4.95.2-7.22-1.09-.23-.13-.32-.28-.31-.55.02-.9,0-1.79,0-2.75.11.08.19.13.26.19,1.6,1.22,3.39,1.87,5.42,1.82.61-.02,1.21-.11,1.78-.36.72-.33,1.19-.85,1.28-1.66.09-.86-.15-1.62-.93-2.06-.71-.4-1.48-.71-2.24-1.02-.93-.39-1.9-.71-2.81-1.14-.55-.26-1.08-.62-1.53-1.04-1.16-1.07-1.5-2.47-1.34-3.98.22-2.06,1.54-3.46,3.71-4.02C43.22.15,43.74.09,44.25,0c.34,0,.68,0,1.02,0Z"/>
  <path class="cls-1" d="m137.81,13.73c-.05.22-.09.44-.14.65-.42,1.7-1.55,2.74-3.15,3.32-1.65.6-3.34.58-5.04.25-1.08-.21-2.1-.59-3.04-1.18-.15-.1-.21-.2-.21-.39.01-.86,0-1.72,0-2.58,0-.08,0-.15,0-.28.19.14.34.25.49.36,1.69,1.22,3.57,1.82,5.66,1.61.51-.05,1.05-.19,1.51-.43,1.38-.7,1.53-2.63.26-3.53-.52-.37-1.13-.62-1.72-.87-1.14-.47-2.32-.87-3.44-1.37-1.06-.47-1.93-1.2-2.44-2.29-1.35-2.87.1-5.89,3.24-6.74.47-.13.96-.19,1.45-.28.45,0,.9,0,1.35,0,.1.02.19.04.29.05,1.37.13,2.65.52,3.83,1.24.16.09.22.2.21.39-.01.84,0,1.69,0,2.53,0,.08-.01.15-.02.22-.03,0-.04,0-.05,0-.08-.06-.16-.11-.24-.17-1.36-1.01-2.85-1.63-4.57-1.65-.68,0-1.34.06-1.97.36-.54.26-.94.65-1.09,1.25-.25.98.11,1.85,1.04,2.33.68.35,1.42.59,2.13.88.99.4,2.01.75,2.98,1.23,1.25.61,2.14,1.58,2.49,2.97.08.32.13.65.19.97v1.13Z"/>
  <path class="cls-1" d="m48.61,42.8c-.49-.07-.97-.13-1.46-.22-1.06-.2-2.06-.54-2.99-1.09-.17-.1-.23-.21-.23-.41.01-.87,0-1.74,0-2.67.11.08.19.13.27.18,1.62,1.17,3.43,1.77,5.44,1.72.71-.02,1.4-.14,2.05-.46,1.36-.69,1.33-2.61.22-3.28-.54-.33-1.13-.59-1.71-.82-1.13-.44-2.28-.81-3.4-1.26-.47-.19-.9-.48-1.32-.76-2.23-1.52-2.52-5.71.69-7.29,1.15-.56,2.36-.77,3.62-.75,1.62.03,3.16.39,4.59,1.18.2.11.27.23.27.46-.01.84,0,1.68,0,2.58-.17-.12-.3-.2-.43-.29-1.53-1.04-3.2-1.58-5.07-1.45-.63.04-1.24.18-1.78.55-.97.67-1.04,2.13-.09,2.84.36.28.8.48,1.23.64,1.29.49,2.61.91,3.88,1.43.58.24,1.14.58,1.63.98,1.25,1,1.63,2.39,1.5,3.92-.17,1.96-1.36,3.14-3.13,3.78-.65.23-1.36.31-2.04.45-.08.02-.15.03-.23.05h-1.51Z"/>
  <path class="cls-1" d="m10.66,42.8c0-.12.02-.25.02-.37,0-5.45,0-10.9,0-16.35,0-.12,0-.25,0-.38h3.21v17.11h-3.23Z"/>
  <path class="cls-1" d="m63.04,42.8v-17.1h3.17c0,.09.02.17.02.26,0,5.54,0,11.09,0,16.63,0,.07,0,.14-.01.21h-3.18Z"/>
  <path class="cls-1" d="m72.11,6.43v11.43h-2.78V.03c3.92,3.84,7.81,7.65,11.74,11.5V.29h2.77v17.84c-3.91-3.9-7.8-7.78-11.74-11.71Z"/>
  <path class="cls-1" d="m37.37,42.77c-4.03-3.69-8.03-7.34-12.07-11.04v10.78h-2.85v-16.81c4.03,3.62,8.02,7.21,12.06,10.84v-10.59h2.85v16.82Z"/>
  <path class="cls-1" d="m29.39.32h2.9c0,.11,0,.2,0,.3,0,3.4,0,6.8,0,10.2,0,1.19-.14,2.36-.58,3.48-.73,1.83-2.04,3.03-3.93,3.57-1.52.43-3.05.45-4.57.03-2.37-.65-3.78-2.24-4.35-4.59-.17-.72-.27-1.47-.27-2.21-.03-3.52-.01-7.03-.01-10.55,0-.07,0-.14.01-.23h2.89c0,.12,0,.22,0,.33,0,3.29,0,6.59,0,9.88,0,.89.08,1.77.38,2.62.52,1.47,1.63,2.31,3.2,2.35.54.02,1.1-.01,1.63-.14,1.35-.32,2.09-1.28,2.45-2.56.21-.76.27-1.53.27-2.32,0-3.27,0-6.55,0-9.82v-.34Z"/>
  <path class="cls-1" d="m94.47,9.78v5.46h7.48v2.65h-10.32V.32h10.32v2.61h-7.48v4.23h6.71v2.61h-6.71Z"/>
  <path class="cls-1" d="m61.02,17.88h-2.86V.33h2.86v17.56Z"/>
</svg>