<?xml version="1.0" encoding="UTF-8"?>
<svg id="Layer_1" data-name="Layer 1" xmlns="http://www.w3.org/2000/svg" viewBox="0 0 159.22 43.25">
  <defs>
    <style>
      .cls-1 {
        fill: #041c25;
      }
    </style>
  </defs>
  <path class="cls-1" d="m83.78,42.4c0-.36,0-.65,0-.94,0-5.7,0-11.4,0-17.1,0-.98.04-1.96.17-2.93.29-2.25.99-4.36,2.71-5.95,2.25-2.08,5.01-2.41,7.87-1.98,3.11.47,5.07,2.5,5.55,5.6.15.94.18,1.9.18,2.85.02,6.49,0,12.99,0,19.48v.94h6.2v-.9c0-3.87.02-7.74,0-11.61-.02-3.68-.01-7.37-.15-11.05-.15-4.16-1.97-7.33-5.84-9.2-2.76-1.33-5.65-1.46-8.61-1.13-3.52.39-6.25,2.01-7.93,5.22-.01.03-.08.03-.19.06v-4.52h-5.93v33.14h5.95Zm68.73-28.24h6.71v-5h-6.73V0h-5.95v9.2h-4.69v5.01h4.71v.92c0,5.75,0,11.51,0,17.26,0,1.17-.04,2.34.04,3.5.15,2.42.89,4.57,3.21,5.74,2.98,1.5,6.13,1.26,9.22.81v-5.41c-.39.05-.67.1-.95.11-1.05.06-2.12.21-3.16.13-1.93-.15-2.39-.73-2.39-2.7,0-6.47,0-12.94,0-19.41,0-.29,0-.58,0-1Zm-95.92-4.98v5.02h4.76v1.03c0,6.63,0,13.25,0,19.88,0,.4,0,.8.03,1.19.23,3.05,1.78,5.09,4.58,5.91,2.59.76,5.22.66,7.83.22v-5.4c-.37.04-.62.09-.88.1-1.29.04-2.58.14-3.87.06-1.05-.06-1.54-.63-1.72-1.67-.07-.39-.07-.79-.08-1.19,0-6.41,0-12.83,0-19.24,0-.28,0-.56,0-.93h6.76v-4.97h-6.77V0h-5.98v9.18h-4.68Zm-3.38-.29c-2.47-.19-4.77.34-6.99,1.29-2.25.97-4.13,2.39-5.44,4.58v-5.52h-5.91v33.14h5.93v-.95c0-4.82-.03-9.65.02-14.47.02-1.56.15-3.12.4-4.66.73-4.47,3.08-6.93,7.32-7.62,1.5-.24,3.05-.22,4.67-.32v-5.47Z"/>
  <path class="cls-1" d="m124.14,43.25c-.8-.13-1.6-.23-2.4-.38-5.71-1.12-9.43-4.55-11.1-10.04-1.49-4.9-1.62-9.87.31-14.73,2.3-5.76,6.69-8.94,12.74-9.61,6-.66,11.03,1.47,14.65,6.34,1.7,2.29,2.42,5.11,2.77,7.95.19,1.57.19,3.16.28,4.83h-25.13c-.26,6.65,2.9,10.53,8.33,10.71,1.39.04,2.81-.04,4.17-.3,3.24-.62,5.18-2.68,6-5.84.09-.36.16-.72.27-1.22,1.89.14,3.8.29,5.8.44-.73,3.76-2.27,6.93-5.42,9.15-2.23,1.57-4.76,2.26-7.42,2.54-.28.03-.55.1-.83.16h-3.02Zm11.05-20.56c-.15-.86-.23-1.67-.43-2.46-.86-3.32-2.62-5.84-6.17-6.65-2.26-.51-4.5-.42-6.74.23-4.15,1.21-5.68,5.52-5.56,8.87h18.89Z"/>
  <path class="cls-1" d="m9.89,43.25c-.94-.21-1.9-.36-2.83-.64-3.73-1.15-6.34-3.42-6.93-7.44-.6-4.13.81-7.65,4.81-9.73,2.6-1.35,5.45-1.82,8.27-2.38,2.8-.55,5.61-1.07,8.41-1.64.24-.05.61-.35.6-.52-.09-1.37-.16-2.75-.43-4.09-.29-1.45-1.26-2.45-2.63-2.96-2.94-1.09-5.93-1.07-8.84.08-2.37.94-3.09,3.03-3.28,5.38-.02.31-.04.62-.07.98-1.96-.27-3.86-.53-5.75-.78-.45-3.6,1.76-7.62,5.04-9.22,4.82-2.35,9.86-2.51,14.92-1.11,4.24,1.17,6.68,4.43,6.78,8.94.12,5.59.04,11.18.05,16.77,0,.53.03,1.06.08,1.58.07.79.55,1.2,1.32,1.2.79,0,1.57-.07,2.47-.12v4.85c-1.88.26-3.8.43-5.71,0-2.04-.45-3.22-1.81-3.7-3.82-.06-.25-.11-.5-.19-.85-.43.61-.76,1.15-1.16,1.63-1.98,2.41-4.66,3.37-7.65,3.71-.25.03-.49.1-.74.16h-2.86Zm12.45-17.4c-.43.06-.66.08-.89.13-2.5.55-5.02,1.06-7.51,1.67-1.79.44-3.57.95-5.3,1.58-1.2.44-1.93,1.44-2.28,2.69-.81,3,.7,5.64,3.8,6.18,1.58.27,3.28.22,4.88,0,3.83-.51,6.43-2.84,7-6.35.31-1.89.21-3.85.3-5.91Z"/>
  <path class="cls-1" d="m83.78,42.4h-5.95V9.26h5.93v4.52c.1-.03.17-.03.19-.06,1.68-3.21,4.42-4.83,7.93-5.22,2.95-.33,5.84-.21,8.61,1.13,3.87,1.87,5.69,5.03,5.84,9.2.14,3.68.12,7.36.15,11.05.02,3.87,0,7.74,0,11.61v.9h-6.2v-.94c0-6.49,0-12.99,0-19.48,0-.95-.04-1.91-.18-2.85-.48-3.09-2.43-5.13-5.55-5.6-2.86-.43-5.62-.1-7.87,1.98-1.72,1.59-2.41,3.7-2.71,5.95-.13.97-.17,1.95-.17,2.93-.02,5.7,0,11.4,0,17.1,0,.29,0,.58,0,.94Z"/>
  <path class="cls-1" d="m152.51,14.16c0,.42,0,.71,0,1,0,6.47,0,12.94,0,19.41,0,1.97.46,2.56,2.39,2.7,1.04.08,2.11-.07,3.16-.13.28-.02.56-.07.95-.11v5.41c-3.09.44-6.24.68-9.22-.81-2.32-1.17-3.06-3.32-3.21-5.74-.07-1.16-.04-2.33-.04-3.5,0-5.75,0-11.51,0-17.26v-.92h-4.71v-5.01h4.69V0h5.95v9.16h6.73v5h-6.71Z"/>
  <path class="cls-1" d="m56.58,9.18h4.68V0h5.98v9.18h6.77v4.97h-6.76c0,.37,0,.65,0,.93,0,6.41,0,12.83,0,19.24,0,.4,0,.8.08,1.19.18,1.04.67,1.61,1.72,1.67,1.28.08,2.58-.03,3.87-.06.26,0,.51-.06.88-.1v5.4c-2.61.44-5.24.54-7.83-.22-2.8-.82-4.35-2.86-4.58-5.91-.03-.4-.03-.79-.03-1.19,0-6.63,0-13.25,0-19.88v-1.03h-4.76v-5.02Z"/>
  <path class="cls-1" d="m53.2,8.9v5.47c-1.62.1-3.17.08-4.67.32-4.24.69-6.59,3.15-7.32,7.62-.25,1.54-.38,3.1-.4,4.66-.05,4.82-.02,9.65-.02,14.47v.95h-5.93V9.25h5.91v5.52c1.31-2.19,3.19-3.61,5.44-4.58,2.21-.95,4.52-1.48,6.99-1.29Z"/>
</svg>