<?xml version="1.0" encoding="UTF-8"?>
<svg id="Layer_1" data-name="Layer 1" xmlns="http://www.w3.org/2000/svg" viewBox="0 0 236.56 33.36">
  <defs>
    <style>
      .cls-1 {
        fill: #041c25;
      }
    </style>
  </defs>
  <g>
    <path class="cls-1" d="m88.92,13.03v14.77h-5.39v-14.77h-5.45v-4.7h16.29v4.7h-5.45Z"/>
    <path class="cls-1" d="m106.96,21.93h-8.56c.17,1.61,1.11,2.33,2.47,2.33,1.28,0,2.34-.28,3.78-1.03l1.92,3.2c-1.81,1.06-3.67,1.67-5.95,1.67-4.39,0-6.81-3.12-6.81-7.59,0-5.03,2.84-7.62,6.67-7.62s6.51,2.64,6.51,8.06c0,.42,0,.72-.03.97Zm-6.62-5.34c-1.14,0-1.78.78-1.95,2.22h4.17c-.25-1.47-.75-2.22-2.22-2.22Z"/>
    <path class="cls-1" d="m116.28,28.1c-4.28,0-6.84-2.72-6.84-7.65,0-4.48,2.28-7.56,6.95-7.56,2.75,0,4.34,1.28,5.62,3.34l-3.45,2.61c-.69-1.28-1.17-1.89-2.25-1.89-1.28,0-1.92,1.28-1.92,3.59s.69,3.5,2.06,3.5c.94,0,1.61-.53,2.53-1.89l3.17,2.47c-1.7,2.5-3.28,3.48-5.87,3.48Z"/>
    <path class="cls-1" d="m133.35,27.8v-8.29c0-1.89-.64-2.39-1.67-2.39s-1.7.5-1.7,2.34v8.34h-5V9.53l5-2v6.65c.92-.69,1.95-1.28,3.67-1.28,3.2,0,4.73,2.14,4.73,5.98v8.93h-5.03Z"/>
    <path class="cls-1" d="m150.36,28.1c-5.78,0-8.87-4.28-8.87-10.04,0-6.26,3.67-10.04,8.9-10.04,4.78,0,6.67,2.06,8.01,5.73l-4.89,1.92c-.7-1.81-1.36-2.95-3.14-2.95-2.25,0-3.23,2.25-3.23,5.34s.94,5.34,3.28,5.34c1.7,0,2.42-.92,3.47-2.75l4.56,2.42c-1.31,2.56-3.48,5.03-8.09,5.03Z"/>
    <path class="cls-1" d="m170.76,18.71c-.64-.69-1.36-1.22-2.33-1.22-1.22,0-1.98.58-1.98,2.36v7.95h-5v-14.6h5v1.06c.86-.83,1.84-1.36,3.12-1.36,1.06,0,1.78.25,2.36.61l-1.17,5.2Z"/>
    <path class="cls-1" d="m182.66,27.8v-.97c-.89.69-1.95,1.28-3.64,1.28-3.2,0-4.73-2.14-4.73-5.98v-8.92h5.03v8.29c0,1.89.64,2.39,1.67,2.39s1.67-.5,1.67-2.34v-8.34h5.03v14.6h-5.03Z"/>
    <path class="cls-1" d="m199.67,27.8v-8.29c0-1.89-.64-2.39-1.67-2.39s-1.7.5-1.7,2.34v8.34h-5v-14.6h5v.97c.92-.69,1.95-1.28,3.67-1.28,3.2,0,4.73,2.14,4.73,5.98v8.93h-5.03Z"/>
    <path class="cls-1" d="m214.46,28.1c-4.28,0-6.84-2.72-6.84-7.65,0-4.48,2.28-7.56,6.95-7.56,2.75,0,4.34,1.28,5.62,3.34l-3.45,2.61c-.69-1.28-1.17-1.89-2.25-1.89-1.28,0-1.92,1.28-1.92,3.59s.69,3.5,2.06,3.5c.94,0,1.61-.53,2.53-1.89l3.17,2.47c-1.7,2.5-3.28,3.48-5.87,3.48Z"/>
    <path class="cls-1" d="m231.53,27.8v-8.29c0-1.89-.64-2.39-1.67-2.39s-1.7.5-1.7,2.34v8.34h-5V9.53l5-2v6.65c.92-.69,1.95-1.28,3.67-1.28,3.2,0,4.73,2.14,4.73,5.98v8.93h-5.03Z"/>
  </g>
  <g>
    <polygon class="cls-1" points="0 0 0 11.12 11.12 11.12 11.12 33.36 22.24 33.36 22.24 11.12 33.36 11.12 33.36 0 0 0"/>
    <polygon class="cls-1" points="44.48 22.24 44.48 11.12 33.36 11.12 33.36 33.36 66.72 33.36 66.72 22.24 44.48 22.24"/>
    <rect class="cls-1" x="44.48" width="22.24" height="11.12"/>
  </g>
</svg>