<?xml version="1.0" encoding="UTF-8"?>
<svg id="Layer_1" data-name="Layer 1" xmlns="http://www.w3.org/2000/svg" viewBox="0 0 402.76 470.83">
  <defs>
    <style>
      .cls-1 {
        fill: none;
        stroke: #eae5e1;
        stroke-miterlimit: 10;
        stroke-width: 1.5px;
      }

      .cls-2 {
        opacity: .14;
      }
    </style>
  </defs>
  <g class="cls-2">
    <path class="cls-1" d="m309.93,376.77s.01,0,.02-.01m-.64-104.5h0m49.24,63.74c-.04,1.45-.33,2.78-.84,4.13m-85.38-73.41h0m-92.82-11.5c5.47.68,10.94,1.41,16.4,2.16,2.73.38,5.46.76,8.19,1.15s5.46.78,8.19,1.18c2.73.4,5.46.81,8.19,1.21,2.73.41,5.45.81,8.18,1.22,5.45.82,10.91,1.64,16.36,2.45m-162.09-29.07c8.15,4.73,18.21,4.73,26.36,0m-26.55-5.45c8.71,2.79,18.16,2.05,26.33-2.05m-22.98-45.57c1.4,4.87,4.61,9.02,8.97,11.59,4.36,2.58,9.54,3.39,14.48,2.26m-18.9-23.17c4.8-1.09,9.83-.27,14.04,2.28,4.2,2.55,7.26,6.64,8.5,11.41m-16.6-21.16c5.15-.94,10.43.69,14.14,4.38,3.71,3.69,5.39,8.96,4.48,14.11m2.36-32.91c5.1-.43,10.09,1.62,13.41,5.52,3.32,3.9,4.55,9.15,3.32,14.12m6.96-34.55c5.25-.12,10.13,2.68,12.69,7.27,2.55,4.59,2.35,10.22-.53,14.61m-2.75-26.46c5.07.53,9.48,3.69,11.63,8.31,2.14,4.62,1.7,10.03-1.17,14.24m-.44-26.66c5.37.18,10.13,3.53,12.09,8.54,1.96,5.01.75,10.7-3.08,14.47m1.15-26.56c4.85,1.19,8.75,4.78,10.33,9.52,1.58,4.74.62,9.95-2.55,13.81m15.31-29.6c3.39,3.05,5.53,7.25,5.97,11.78.45,4.53-.81,9.07-3.54,12.73m20.89-28.8c5.31,7.34,5.31,17.26,0,24.6m8.94-25.76c6.41,6.43,7.56,16.42,2.79,24.15m5.94-25.03c5.33,6.99,6.14,16.43,2.07,24.23m44.82.36c6.16-6.29,9.12-15.05,8.03-23.79m1.25,25.18c2.63-7.86,4.02-16.08,4.11-24.37m.35,25.28c1.53-8.31,4.68-16.23,9.27-23.33m-3.38,24.83c1.16-8.81,5.83-16.78,12.95-22.1m-9.52,23.18c4.24-8.16,10.74-14.92,18.73-19.48m-12.5,21.95c4.06-8.21,11.02-14.63,19.54-18.01m-10.79,24.31c5.09-8.06,14.89-11.8,24.05-9.17m-23.52,10.44c7.12-4.72,15.84-6.39,24.2-4.62m-25.05,6.92c6.88-3.7,15.17-3.63,21.99.18m-22.98,1.3c6.53-2.61,13.96-1.54,19.49,2.8m-26.06,3.56c5.98-.8,12.01.96,16.63,4.85m-19.63-2.3c5.67-.43,11.12,2.29,14.17,7.09m-17.95-3.88c2.83-.68,5.81-.1,8.17,1.6,2.36,1.7,3.86,4.35,4.1,7.25m-18.39-3.66c2.83-1.38,6.16-1.27,8.89.3,2.73,1.57,4.51,4.39,4.74,7.53m-27.19,4.27c6.79-1.41,13.8,1.12,18.13,6.54m-24.11,2.88c7.24-1.25,14.69-.38,21.45,2.5m-24.73,5.74c7.42-.72,14.91-.38,22.23,1m-24.11,5.8c7.27,1.02,14.44,2.42,21.56,4.22m-23.16,4.9c7.02,2.61,14.55,3.51,21.98,2.61m-22.65,14.84c6.37,4.47,14.35,5.99,21.91,4.18m-21.91,5.57c2.3,3.5,5.9,5.94,10.01,6.78,4.11.84,8.37.02,11.87-2.29m-21.87,7.12c6.43,4.25,14.37,5.57,21.84,3.62m55.45-94.4c5.38-4.72,11.56-11.81,11.68-19.92m-36.15,42.01c8.16-7.36,16.31-14.73,24.47-22.1m-38.51,67.22c.03-4.04.31-8.04.84-12.04.53-4,1.29-7.93,2.34-11.84,1.03-3.84,2.37-7.75,4.07-11.36,1.62-3.42,3.91-7.28,6.79-9.89m-14.05,45.97c0-.28,0-.56,0-.85m-.19,6.68c.01-1.94.08-3.89.19-5.83m-1.06,146.15c.29-46.77.58-93.55.88-140.32m-251.77,20.9c-.13-3.42,1.19-6.65,3.52-9.11,2.35-2.48,5.49-3.9,8.59-4.97m-12.11,14.09h0m1.11,29.35c-.37-9.78-.74-19.57-1.11-29.35m1.12,29.39s0-.03,0-.05m11.31,11.97c-2.77-.83-5.53-2.09-7.67-4.15-2.14-2.05-3.52-4.77-3.64-7.78m98.15,30.64c-28.32-4.31-59.35-10.39-86.84-18.71m198.81,29.87c-18.74-1.02-37.44-2.41-56.12-4.24-4.67-.46-9.33-.94-13.99-1.46-4.66-.51-9.32-1.06-13.98-1.63-9.31-1.15-18.6-2.42-27.88-3.83m145.22,5.66c-4.81,2.54-11,3.99-16.27,4.75-2.81.41-5.63.67-8.47.79-2.84.12-5.67.12-8.51-.05m33.28-5.51s-.02.01-.03.02m5.59-2.98c-1.85.98-3.71,1.97-5.56,2.96m24.15-139.51s0,0-.01,0m22.12-20.01c-7.37,6.67-14.74,13.34-22.11,20.01m32.97-46.05c1.65,5,.77,9.93-1.53,14.46-2.23,4.4-5.74,8.33-9.33,11.58m-7.92-30.57c-.23-.36-.71-1.04-.97-1.39-.33-.45-.68-.89-1.04-1.33-.71-.87-1.46-1.7-2.26-2.5-1.61-1.62-3.33-3.06-5.18-4.39-3.87-2.79-8.19-5.03-12.59-6.83-4.11-1.69-8.3-3.02-12.59-4.14-4.73-1.23-9.5-2.17-14.33-2.91-17.97-2.76-37.61-2.84-55.64-1.41-4.64.37-9.27.84-13.89,1.41-4.61.58-9.21,1.25-13.8,2.03-4.64.78-9.25,1.68-13.84,2.68-4.48.98-8.94,2.07-13.37,3.27-2.33.63-4.65,1.29-6.96,1.99-2.26.68-4.51,1.39-6.74,2.14-4.3,1.43-8.55,2.99-12.74,4.7-8.47,3.46-17.08,7.68-24.7,12.82m211.71-4.33c-.32-.63-.68-1.24-1.07-1.83m2.84,9.26c.03-2.62-.59-5.1-1.77-7.43m-7.28,21.85c2.15-1.88,4.27-4.05,5.94-6.39,1.61-2.26,3.08-5.08,3.11-8.03m-33.94,36.22c8.3-7.27,16.59-14.54,24.89-21.8m-41.53,72.04c.01-4.54.34-9.02.96-13.52.62-4.49,1.53-8.9,2.78-13.26,1.23-4.3,2.84-8.65,4.89-12.63,2.01-3.91,4.64-7.88,8.01-10.83m-16.76,85.32c.04-11.69.08-23.39.12-35.08m-.07,35.3c-.04-.07-.05-.14-.05-.22m-175.62,104.09c0-.1,0-.21,0-.31m196.38,16.18c-3.51,1.79-7.12,3.29-10.82,4.64-4.52,1.64-9.1,3.01-13.75,4.22-8.4,2.17-17.08,3.78-25.67,4.98-17.04,2.37-35.04,3.24-52.23,2.78-16.95-.46-35.31-2.29-51.9-6.14-4.5-1.05-8.94-2.25-13.32-3.7-3.91-1.3-7.74-2.76-11.46-4.55-2.54-1.22-4.99-2.57-7.33-4.15-1.92-1.3-3.79-2.79-5.4-4.49-1.32-1.39-2.49-2.95-3.31-4.69-.71-1.5-1.14-3.09-1.18-4.75m213.28-2.64c-.05,4.57-2.95,8.42-6.02,11.25-3.15,2.91-7.11,5.34-10.89,7.26m16.94-21.77c-.01,1.09-.02,2.17-.03,3.26m-37.54-136.54h0m17.13,7.75c-.29,46.68-.59,93.36-.89,140.04m.89-140.08v.04m-250.54,66.15c-.11-3.04,1.35-5.65,3.51-7.6m-1.96,48.46c-.52-13.62-1.03-27.24-1.55-40.86m1.55,40.93s0-.05,0-.07m8.75,9.92c-2.15-.8-4.28-1.95-5.93-3.62-1.66-1.69-2.71-3.83-2.82-6.23m207.51,44.08c-33.3-1.64-67.72-4.9-100.67-10.09-16.56-2.61-33.33-5.8-49.64-9.68-16.12-3.84-32.92-8.61-48.45-14.46m233.62,27.01c-4.79,3.26-11.34,5.11-16.87,6.1-5.82,1.04-12.09,1.41-17.99,1.12m74.97-34.49c-13.37,9.09-26.75,18.19-40.12,27.28m53.19-43.6c-1.72,7.13-7.49,12.53-13.08,16.32m13.89-20.47c-.02,1.45-.3,2.79-.81,4.15m3.67-193.76c-.95,63.2-1.9,126.41-2.85,189.61m1.96-195.31c.62,1.85.92,3.75.89,5.7m-89.31,82.48c0,.39.32.68.58.88.45.34,1.05.58,1.57.77.9.32,1.82.53,2.76.71,1.88.36,3.76.54,5.66.66,3.6.21,7.79.12,11.38-.4m-21.93,33.83c0-12.15-.01-24.3-.01-36.45m1.16,39.93c-.74-1.02-1.14-2.22-1.14-3.48m18.94-85.95c-.67.34-1.27.74-1.84,1.22m18.61,4.17c-1.87-2.55-4.49-4.62-7.49-5.7-2.97-1.07-6.36-1.18-9.28.31m28.79-29.49c-.23-.34-.48-.65-.75-.94-.38-.42-.79-.81-1.23-1.18-1.24-1.06-2.64-1.97-4.06-2.77-1.96-1.11-3.99-2.03-6.09-2.84-2.58-1.01-5.2-1.83-7.86-2.55-3.47-.94-6.98-1.67-10.52-2.28-3.97-.68-7.95-1.18-11.96-1.55-7.53-.69-15.24-.92-22.8-.79-3.78.06-7.54.21-11.31.45-3.83.23-7.65.55-11.47.96-7.58.79-15.1,1.9-22.59,3.33-3.79.72-7.57,1.53-11.32,2.42-3.65.87-7.27,1.81-10.87,2.85-3.78,1.09-7.53,2.27-11.24,3.57-3.48,1.22-6.91,2.54-10.3,3.97-3.78,1.6-7.48,3.34-11.09,5.3-3.09,1.67-6.08,3.47-8.94,5.52m169.2-4.32c1.38-1.21,2.78-2.62,3.89-4.09.55-.72,1.1-1.57,1.47-2.41.13-.3.24-.59.31-.91.03-.15.05-.3.06-.45,0-.13-.02-.26-.06-.39-.1-.33-.28-.62-.47-.9m41.24-3.84v.05m-244.58-5.08c4.45-2.86,9.06-5.37,13.82-7.68,5.28-2.57,10.67-4.85,16.16-6.93,5.07-1.92,10.19-3.66,15.37-5.26,5.47-1.69,10.98-3.2,16.54-4.58,5.35-1.32,10.72-2.51,16.12-3.57,5.53-1.09,11.07-2.04,16.64-2.88,11.03-1.65,22.09-2.82,33.22-3.48,21.43-1.28,45.33-.76,66.57,3.28,5.88,1.11,11.66,2.51,17.35,4.37,4.86,1.59,9.75,3.55,14.26,6.02,5,2.74,9.89,6.28,13.42,10.92,3.29,4.31,5.19,9.31,5.11,14.82m-274.78,14.35c10.07-6.46,20.13-12.92,30.2-19.38m-49.13,65.96c-.15-4.34.1-8.74.75-13.03.65-4.29,1.71-8.59,3.18-12.67,1.46-4.07,3.4-8.08,5.84-11.66,2.43-3.55,5.48-6.86,9.15-9.22m-18.93,46.58h0m1.17,32.34c-.39-10.78-.78-21.56-1.17-32.34m6.92,38.58c-3.17-.41-5.64-3.02-5.75-6.24m5.74,6.24h.01m270.37,110.92s0,0,0,0m-41.33-81.83c-1.1-.22-2.2-.45-3.29-.69-.55-.12-1.09-.25-1.63-.4-.37-.1-.73-.2-1.08-.35-.17-.08-.33-.16-.48-.27-1.85-1.34-2.94-3.5-2.93-5.78m13.59,6.75c-1.28.66-2.74.92-4.17.74m5.97-1.67c-.6.31-1.2.62-1.8.93m-176.37-131.4c-9.96,6.51-19.92,13.03-29.89,19.54m30.59-19.95c-.24.12-.48.26-.7.41m16.15,6.83c-1.4-2.76-3.66-5.21-6.42-6.69-2.71-1.45-6.1-2.04-9.03-.55m16.57,17.05c1.06-3.26.36-6.9-1.13-9.82m-1.96,14.08c1.51-1.04,2.54-2.55,3.09-4.26m-32.44,24.47c9.78-6.73,19.57-13.47,29.35-20.21m-26.25,15.86c-.54,1.74-1.57,3.29-3.1,4.35m-14.03-21.98c2.28-1.17,4.91-1.06,7.24-.26,2.35.81,4.44,2.33,6.09,4.15,1.66,1.83,2.94,4.05,3.66,6.41.71,2.33.89,4.94.15,7.33m-17.83-17.23c.23-.15.46-.28.7-.4m-19.95,46.44c-.29-8.52,1.08-17.47,4.09-25.48,1.51-4.03,3.49-7.96,5.98-11.48,2.49-3.51,5.55-6.7,9.18-9.07m-18.11,80.09c-.38-11.35-.76-22.71-1.14-34.06m1.76,36.37c-.37-.72-.59-1.5-.61-2.31m231.49-83.12c2.7-2.3,6.31-2.77,9.62-1.94,3.31.83,6.25,2.91,8.31,5.58m-43.35,17.93c8.48-7.19,16.95-14.38,25.42-21.57m-42.54,69.86c0-4.41.32-8.76.96-13.12.64-4.36,1.57-8.61,2.88-12.83,2.46-7.93,6.62-16.71,13.26-22.34m-205.45,63.85c-.12-.02-.24-.05-.37-.07m20.96,2.95c-.84.18-1.69.33-2.55.46-2.41.38-4.88.64-7.27.57-2.45-.07-4.82-.49-7.39-1.08-1.02-.23-2.08-.49-2.7-1.23-.37-.43-.58-1.03-.69-1.61m25.01-.35c-.97,1.74-2.65,2.65-4.41,3.23m5.09-5.99c.03.97-.21,1.92-.68,2.76m-.3-36.74c.33,11.32.65,22.65.98,33.97m6.52-57.71c-.31.21-.58.47-.84.74-.48.5-.91,1.04-1.3,1.6-.61.88-1.14,1.8-1.61,2.76-.96,1.92-1.67,3.91-2.23,5.98-.57,2.07-.97,4.14-1.22,6.27-.25,2.13-.35,4.24-.29,6.38m7.51-23.74s0,0,0,0m195.19,56.19c.02-2.82,0-4.26.17-7.08.14-2.36.37-4.71.68-7.05.31-2.34.7-4.67,1.17-6.99.47-2.32,1.03-4.61,1.67-6.88.6-2.14,1.38-4.66,2.1-6.77.76-2.24,1.61-4.44,2.6-6.59,1-2.15,2.1-4.22,3.42-6.19.69-1.03,1.43-2.02,2.25-2.97.77-.9,1.48-1.59,2.36-2.38m-16.9,52.93c.11.01.36.02.48-.04m-202.47-24.43c-9.63,2.41-19.82-.51-26.71-7.67m100.16-86.83c4.15,2.11,7.22,5.87,8.47,10.35,1.25,4.48.57,9.28-1.88,13.24m-3.74,1.08c2.29-8.28,1.26-17.13-2.85-24.67m61.35-9.87c5.15,7.31,5.15,17.06,0,24.37m6.57-.32c3.12-8.6.49-18.24-6.57-24.06m11.82-.45c3.84,2.73,6.28,7.03,6.66,11.72.38,4.7-1.34,9.33-4.7,12.64m8.64.12c2.41-4.59,2.61-10.02.55-14.78-2.06-4.75-6.16-8.32-11.15-9.7m17.93,158.22c.6.58,1.24,1.13,1.93,1.59,2.84,1.87,6.52,2.15,10.04,2.2,3.55.05,6.95-.11,10.3-.91m-116.12-16.31c7.84.98,15.67,2.04,23.49,3.16,3.91.55,7.82,1.12,11.73,1.7,3.91.58,7.81,1.17,11.72,1.76,3.91.59,7.81,1.19,11.72,1.77,3.9.59,7.81,1.18,11.71,1.76,7.82,1.16,15.64,2.28,23.48,3.29m-169.21-21.38c6.27.74,12.56,1.35,18.84,1.96,6.28.6,12.57,1.19,18.85,1.81,3.14.31,6.29.62,9.43.95,3.14.33,6.28.66,9.42,1.01,6.28.69,12.55,1.43,18.81,2.22m-60.99-11.74l-11.79,2.67m17.53-3.71c-1.94.21-3.85.56-5.74,1.04m66.3-18.55c-9.98,2.33-20.56,5.53-30.34,8.54-10.04,3.1-20.06,6.26-30.22,8.97m104.16-19.37c-3.64-.28-7.28-.49-10.93-.61-3.65-.12-7.3-.15-10.95-.05-7.05.19-14.82.9-21.72,2.52m-1.1.13c7.13-1.68,14.98-2.43,22.27-2.65,3.75-.11,7.49-.09,11.23.03,3.74.12,7.48.34,11.21.62m-109.41,20.29c10.91-2.65,21.62-5.93,32.34-9.19,10.41-3.16,21.75-6.61,32.36-9.1m-100.47,16.93c8.45,3.69,18.11,3.4,26.31-.81m-.61-21c-8.8-.86-17.67-.6-26.41.76m0,0c8.5,3.57,18.13,3.29,26.41-.76m-26.31-23.27c6.66,7.05,16.31,10.45,25.92,9.1m.03-1.61c-9.02-.97-17.8-3.51-25.95-7.49m191.14-86.15c4.25,7.76,3.65,17.28-1.55,24.44m5.41.42c2.74-3.83,3.88-8.57,3.15-13.22-.73-4.65-3.24-8.83-7.02-11.64m-185.38,66.57c6.54,6.16,14.28,10.91,22.74,13.96m.5-1.23c-6.33-6.42-14.41-10.85-23.23-12.73m20.9-20.64c5.19-.77,10.41,1.09,13.95,4.97,3.53,3.88,4.9,9.26,3.65,14.35m-2.92,2.01c.75-4.76-.35-9.63-3.08-13.6-2.73-3.97-6.89-6.74-11.6-7.73m94.17-40.84c4.44,7.69,4.44,17.17,0,24.86m3.34-.69c4.01-3.07,6.07-8.05,5.38-13.06-.69-5-4.02-9.25-8.71-11.11m1.97,106.57c11.01-26.28,11.5-55.78,1.36-82.4m-76.19,109.91c5.78.55,11.57,1.11,17.36,1.7,5.79.59,11.57,1.21,17.34,1.87m-34.57-3.54s-.09-.02-.13-.02m-3.88-104.65c4.92.38,9.4,2.96,12.2,7.02,2.8,4.07,3.61,9.17,2.21,13.9m-2.53,1.74c.54-9.17-4.03-17.88-11.87-22.66m190.74,1.9c4.17-7.58,10.16-14,17.42-18.69m-42.82,49.58c6.49-11.77,15.1-22.24,25.4-30.89m-237.33,98.21c1.76-.62,2.77-2.26,3.08-3.98m.55,2.69c-1.21.43-2.42.86-3.63,1.29m267.65,105.86s.08-.09.12-.14m-75.72-123.43c-4.52-.57-9.05-1.07-13.58-1.57m-30.2-3.06c7.61.57,14.34,1.19,21.92,1.99,6.84.73,15.04,1.72,21.86,2.63m-88.49-2.64c-.39.09-.76.23-1.12.4m2.22-.53c-.37,0-.73.05-1.1.13"/>
    <path class="cls-1" d="m137.29,251.06s.01,0,.02,0m135.15,14.6c0,.39.26.7.52.93.43.38,1.01.65,1.53.87.89.36,1.81.6,2.74.8,1.88.41,3.76.62,5.67.75,3.62.24,7.83.14,11.42-.45m-84.83-8.79s.02,0,.04,0m-85.46,55.41h0m-53.99-67.7c-.05-1.51-.11-3.01-.16-4.52m.29,4.46c-.05-1.42-.1-2.83-.15-4.25m1.4,3.81c-.03-.81-.06-1.62-.09-2.44m-.37,2.6c-.03-1-.07-2-.11-3.01m223.28,1.51s.1.04.14.05m-24.22,86.23c.06.13.2.36.38.37m-195.87-86.39c.87.21,1.77.32,2.67.34,1.05.02,2.11-.1,3.13-.34"/>
  </g>
</svg>