<?xml version="1.0" encoding="UTF-8"?>
<svg id="Layer_1" data-name="Layer 1" xmlns="http://www.w3.org/2000/svg" viewBox="0 0 180 60">
  <defs>
    <style>
      .cls-1 {
        fill: #001c26;
      }

      .cls-2 {
        fill: #fff;
      }
    </style>
  </defs>
  <rect class="cls-1" x=".34" y=".31" width="179.33" height="59.39" rx="7.42" ry="7.42"/>
  <g>
    <g>
      <g id="_Group_" data-name=" Group ">
        <g id="_Group_2" data-name=" Group 2">
          <g id="_Group_3" data-name=" Group 3">
            <path id="_Path_" data-name=" Path " class="cls-2" d="m35.45,31.56c.03-2.4,1.29-4.63,3.34-5.89-1.3-1.85-3.4-2.99-5.66-3.06-2.38-.25-4.69,1.42-5.9,1.42s-3.1-1.4-5.12-1.36c-2.65.09-5.05,1.55-6.34,3.87-2.74,4.75-.7,11.72,1.93,15.56,1.31,1.88,2.85,3.98,4.86,3.9,1.97-.08,2.7-1.25,5.07-1.25s3.04,1.25,5.09,1.21c2.11-.03,3.44-1.89,4.71-3.78.94-1.34,1.67-2.82,2.15-4.38-2.51-1.06-4.14-3.52-4.14-6.24Z"/>
            <path id="_Path_2" data-name=" Path 2" class="cls-2" d="m31.58,20.09c1.15-1.38,1.72-3.16,1.58-4.95-1.76.18-3.38,1.02-4.55,2.35-1.15,1.31-1.73,3.02-1.62,4.76,1.78.02,3.47-.78,4.59-2.17Z"/>
          </g>
        </g>
      </g>
      <g id="_Group_4" data-name=" Group 4">
        <g>
          <path class="cls-2" d="m50.88,23.62v-7.26h-2.66v-1.2h6.63v1.2h-2.66v7.26h-1.31Z"/>
          <path class="cls-2" d="m60.95,21.9c-.35,1.2-1.52,1.98-2.77,1.85-1.6.04-2.93-1.22-2.97-2.82,0-.16,0-.32.03-.47-.22-1.61.92-3.09,2.53-3.31.14-.02.28-.03.42-.03,1.78,0,2.85,1.21,2.85,3.22v.44h-4.51v.07c-.08.93.61,1.74,1.54,1.82.05,0,.11,0,.16,0,.62.07,1.22-.23,1.52-.77h1.21Zm-4.43-2.06h3.22c.06-.85-.57-1.59-1.42-1.65-.05,0-.1,0-.15,0-.9-.01-1.64.71-1.65,1.61,0,.01,0,.03,0,.04h0Zm.9-3.67l1.47-2.02h1.48l-1.65,2.02h-1.3Z"/>
          <path class="cls-2" d="m62.78,14.75h1.26v8.87h-1.26v-8.87Z"/>
          <path class="cls-2" d="m71.51,21.9c-.35,1.2-1.52,1.98-2.77,1.85-1.6.04-2.93-1.22-2.97-2.82,0-.16,0-.32.03-.47-.22-1.61.92-3.09,2.53-3.31.14-.02.28-.03.42-.03,1.78,0,2.85,1.21,2.85,3.22v.44h-4.51v.07c-.08.93.61,1.74,1.54,1.82.05,0,.11,0,.16,0,.62.07,1.22-.23,1.52-.77h1.21Zm-4.43-2.06h3.22c.06-.85-.57-1.59-1.42-1.65-.05,0-.1,0-.15,0-.9-.01-1.64.71-1.65,1.61,0,.01,0,.03,0,.04Zm.9-3.67l1.47-2.02h1.48l-1.65,2.02h-1.3Z"/>
          <path class="cls-2" d="m77.45,19.32c-.17-.68-.81-1.14-1.51-1.08-1.05,0-1.7.81-1.7,2.17s.65,2.21,1.7,2.21c.7.08,1.34-.37,1.51-1.05h1.23c-.17,1.34-1.38,2.31-2.73,2.17-1.62.05-2.97-1.22-3.02-2.84,0-.17,0-.33.03-.5-.21-1.59.91-3.06,2.5-3.27.16-.02.33-.03.49-.02,1.36-.13,2.57.85,2.73,2.21h-1.23Z"/>
          <path class="cls-2" d="m80.35,14.75h1.25v3.52h.1c.34-.75,1.12-1.21,1.95-1.14,1.16-.06,2.15.83,2.21,1.99,0,.13,0,.26-.02.39v4.12h-1.26v-3.81c0-1.02-.47-1.54-1.36-1.54-.82-.07-1.54.54-1.61,1.36,0,.08,0,.17,0,.25v3.73h-1.26v-8.87Z"/>
          <path class="cls-2" d="m87.43,21.82c0-1.15.86-1.81,2.37-1.91l1.73-.1v-.55c0-.67-.45-1.05-1.31-1.05-.7,0-1.19.26-1.33.71h-1.22c.13-1.1,1.16-1.8,2.61-1.8,1.6,0,2.5.8,2.5,2.14v4.36h-1.21v-.9h-.1c-.41.66-1.14,1.04-1.92,1-1.06.11-2.01-.66-2.12-1.72,0-.06-.01-.13-.01-.19Zm4.1-.55v-.53l-1.56.1c-.88.06-1.28.36-1.28.92s.5.91,1.18.91c.83.08,1.56-.52,1.65-1.35,0-.02,0-.03,0-.05h0Z"/>
          <path class="cls-2" d="m94.76,17.24h1.21v.98h.09c.28-.7.97-1.14,1.72-1.08.19,0,.38.02.56.05v1.24c-.23-.05-.47-.07-.7-.08-.82-.07-1.55.53-1.62,1.36,0,.05,0,.1,0,.14v3.77h-1.26v-6.38Z"/>
          <path class="cls-2" d="m99.51,24.26h1.29c.11.46.64.76,1.49.76,1.05,0,1.67-.5,1.67-1.34v-1.23h-.09c-.4.7-1.16,1.11-1.97,1.07-1.63,0-2.64-1.26-2.64-3.17s1.02-3.22,2.65-3.22c.83-.03,1.6.41,2,1.13h.1v-1.02h1.21v6.44c0,1.46-1.14,2.39-2.95,2.39-1.59,0-2.63-.71-2.76-1.8Zm4.47-3.91c0-1.27-.66-2.09-1.73-2.09s-1.69.81-1.69,2.09.61,2.09,1.69,2.09,1.73-.81,1.73-2.09h0Z"/>
          <path class="cls-2" d="m112.62,21.9c-.35,1.2-1.52,1.98-2.77,1.85-1.6.04-2.93-1.22-2.97-2.82,0-.16,0-.32.03-.47-.22-1.61.92-3.09,2.53-3.31.14-.02.28-.03.42-.03,1.78,0,2.85,1.21,2.85,3.22v.44h-4.51v.07c-.08.93.61,1.74,1.54,1.82.05,0,.11,0,.16,0,.62.07,1.22-.23,1.52-.77h1.21Zm-4.43-2.06h3.22c.06-.85-.57-1.59-1.42-1.65-.05,0-.1,0-.15,0-.9-.01-1.64.71-1.65,1.61,0,.01,0,.03,0,.04h0Z"/>
          <path class="cls-2" d="m114.39,17.24h1.21v.98h.09c.28-.7.97-1.14,1.72-1.08.19,0,.38.02.56.05v1.24c-.23-.05-.47-.07-.7-.08-.82-.07-1.55.53-1.62,1.36,0,.05,0,.1,0,.14v3.77h-1.26v-6.38Z"/>
          <path class="cls-2" d="m122.52,20.43c0-2.02,1.04-3.29,2.65-3.29.81-.04,1.58.4,1.96,1.12h.09v-3.51h1.26v8.87h-1.21v-1.01h-.1c-.41.72-1.18,1.14-2,1.11-1.62,0-2.65-1.28-2.65-3.3Zm1.3,0c0,1.35.64,2.17,1.71,2.17s1.72-.83,1.72-2.16-.66-2.17-1.72-2.17-1.71.82-1.71,2.16h0Z"/>
          <path class="cls-2" d="m130.18,21.82c0-1.15.86-1.81,2.37-1.91l1.73-.1v-.55c0-.67-.45-1.05-1.31-1.05-.7,0-1.19.26-1.33.71h-1.22c.13-1.1,1.16-1.8,2.61-1.8,1.6,0,2.5.8,2.5,2.14v4.36h-1.21v-.9h-.1c-.41.66-1.14,1.04-1.92,1-1.06.11-2.01-.66-2.12-1.72,0-.06-.01-.13-.01-.19Zm4.1-.55v-.53l-1.56.1c-.88.06-1.28.36-1.28.92s.5.91,1.18.91c.83.08,1.56-.52,1.65-1.35,0-.02,0-.03,0-.05h0Z"/>
          <path class="cls-2" d="m137.51,17.24h1.21v1.01h.09c.33-.75,1.09-1.2,1.9-1.14,1.14-.09,2.14.77,2.23,1.91.01.15,0,.31-.02.46v4.13h-1.26v-3.82c0-1.03-.45-1.54-1.38-1.54-.81-.04-1.49.59-1.53,1.39,0,.07,0,.15,0,.22v3.73h-1.26v-6.38Z"/>
          <path class="cls-2" d="m147.22,17.11c1.44,0,2.37.67,2.5,1.79h-1.21c-.12-.47-.57-.77-1.29-.77s-1.24.33-1.24.83c0,.38.32.62,1.01.78l1.06.25c1.21.28,1.78.8,1.78,1.74,0,1.2-1.12,2-2.64,2s-2.51-.69-2.62-1.82h1.26c.22.55.8.88,1.39.8.78,0,1.34-.35,1.34-.86,0-.38-.3-.63-.94-.78l-1.11-.26c-1.21-.29-1.78-.83-1.78-1.78,0-1.13,1.04-1.93,2.48-1.93Z"/>
        </g>
      </g>
    </g>
    <g>
      <path class="cls-2" d="m50.23,28.39h2.64v17.6h-2.64v-17.6Z"/>
      <path class="cls-2" d="m56.04,34.83l1.44-6.44h2.56l-1.74,6.44h-2.26Z"/>
      <path class="cls-2" d="m70,41.24h-6.71l-1.61,4.76h-2.84l6.36-17.6h2.95l6.36,17.6h-2.89l-1.61-4.76Zm-6.01-2.2h5.32l-2.62-7.72h-.07l-2.62,7.72Z"/>
      <path class="cls-2" d="m88.23,39.58c0,3.99-2.13,6.55-5.36,6.55-1.67.09-3.23-.79-4.04-2.25h-.06v6.36h-2.63v-17.08h2.55v2.13h.05c.84-1.45,2.41-2.32,4.09-2.27,3.26,0,5.4,2.57,5.4,6.55Zm-2.71,0c0-2.6-1.34-4.31-3.39-4.31s-3.37,1.74-3.37,4.31,1.35,4.32,3.37,4.32c2.05,0,3.39-1.7,3.39-4.32Z"/>
      <path class="cls-2" d="m102.35,39.58c0,3.99-2.13,6.55-5.36,6.55-1.67.09-3.23-.79-4.04-2.25h-.06v6.36h-2.63v-17.08h2.55v2.13h.05c.84-1.45,2.41-2.32,4.09-2.27,3.26,0,5.4,2.57,5.4,6.55Zm-2.71,0c0-2.6-1.34-4.31-3.39-4.31s-3.37,1.74-3.37,4.31,1.35,4.32,3.37,4.32c2.05,0,3.39-1.7,3.39-4.32Z"/>
      <path class="cls-2" d="m111.69,41.09c.2,1.75,1.89,2.89,4.21,2.89s3.82-1.15,3.82-2.72c0-1.37-.96-2.18-3.24-2.75l-2.28-.55c-3.23-.78-4.73-2.29-4.73-4.75,0-3.04,2.65-5.12,6.41-5.12s6.27,2.09,6.36,5.12h-2.66c-.16-1.76-1.61-2.82-3.73-2.82s-3.57,1.07-3.57,2.63c0,1.24.93,1.98,3.2,2.54l1.94.48c3.61.85,5.11,2.31,5.11,4.88,0,3.29-2.62,5.36-6.8,5.36-3.9,0-6.54-2.01-6.71-5.2h2.7Z"/>
      <path class="cls-2" d="m128.18,30.12v3.04h2.44v2.09h-2.44v7.08c0,1.1.49,1.61,1.56,1.61.29,0,.58-.03.87-.06v2.07c-.48.09-.97.13-1.46.12-2.6,0-3.61-.98-3.61-3.46v-7.36h-1.87v-2.09h1.87v-3.04h2.65Z"/>
      <path class="cls-2" d="m132.03,39.58c0-4.04,2.38-6.58,6.09-6.58s6.09,2.54,6.09,6.58-2.35,6.58-6.09,6.58c-3.73,0-6.09-2.53-6.09-6.58Zm9.49,0c0-2.77-1.27-4.41-3.4-4.41s-3.4,1.65-3.4,4.41,1.27,4.4,3.4,4.4,3.4-1.62,3.4-4.4h0Z"/>
      <path class="cls-2" d="m146.38,33.16h2.51v2.18h.06c.35-1.41,1.64-2.37,3.09-2.32.3,0,.61.03.9.1v2.46c-.38-.12-.78-.17-1.18-.16-1.46-.06-2.7,1.08-2.76,2.55,0,.14,0,.27.01.41v7.61h-2.63v-12.83Z"/>
      <path class="cls-2" d="m165.09,42.22c-.35,2.33-2.62,3.93-5.53,3.93-3.73,0-6.05-2.5-6.05-6.51s2.33-6.64,5.94-6.64,5.78,2.44,5.78,6.33v.9h-9.06v.16c-.16,1.84,1.2,3.46,3.03,3.62.14.01.28.02.42.01,1.28.12,2.48-.61,2.96-1.81h2.5Zm-8.91-3.83h6.42c.1-1.7-1.21-3.16-2.91-3.25-.08,0-.16,0-.24,0-1.79-.01-3.26,1.44-3.27,3.23,0,0,0,.02,0,.03Z"/>
    </g>
  </g>
</svg>