<?xml version="1.0" encoding="UTF-8"?>
<svg id="Layer_1" data-name="Layer 1" xmlns="http://www.w3.org/2000/svg" xmlns:xlink="http://www.w3.org/1999/xlink" viewBox="0 0 200 60">
  <defs>
    <style>
      .cls-1 {
        fill: url(#linear-gradient);
      }

      .cls-2 {
        fill: #001c26;
      }

      .cls-3, .cls-4 {
        fill: #fff;
      }

      .cls-5 {
        opacity: .12;
      }

      .cls-5, .cls-4, .cls-6 {
        isolation: isolate;
      }

      .cls-4 {
        opacity: .25;
      }

      .cls-7 {
        fill: url(#linear-gradient-3);
      }

      .cls-8 {
        fill: url(#linear-gradient-4);
      }

      .cls-9 {
        fill: url(#linear-gradient-2);
      }

      .cls-6 {
        opacity: .2;
      }
    </style>
    <linearGradient id="linear-gradient" x1="32.15" y1="5213.53" x2="7.23" y2="5188.61" gradientTransform="translate(0 5226.77) scale(1 -1)" gradientUnits="userSpaceOnUse">
      <stop offset="0" stop-color="#459ff7"/>
      <stop offset="0" stop-color="#46a0f7"/>
      <stop offset=".26" stop-color="#54bbf8"/>
      <stop offset=".51" stop-color="#5ecff9"/>
      <stop offset=".76" stop-color="#64dbfa"/>
      <stop offset="1" stop-color="#66dffa"/>
    </linearGradient>
    <linearGradient id="linear-gradient-2" x1="50.02" y1="5196.76" x2="14.09" y2="5196.76" gradientTransform="translate(0 5226.77) scale(1 -1)" gradientUnits="userSpaceOnUse">
      <stop offset="0" stop-color="#f9df4b"/>
      <stop offset=".41" stop-color="#f4bd42"/>
      <stop offset=".78" stop-color="#f1a73b"/>
      <stop offset="1" stop-color="#f19f39"/>
    </linearGradient>
    <linearGradient id="linear-gradient-3" x1="36.64" y1="5193.36" x2="2.85" y2="5159.57" gradientTransform="translate(0 5226.77) scale(1 -1)" gradientUnits="userSpaceOnUse">
      <stop offset="0" stop-color="#ea4d4c"/>
      <stop offset="1" stop-color="#b22c62"/>
    </linearGradient>
    <linearGradient id="linear-gradient-4" x1="10.61" y1="5226.2" x2="25.7" y2="5211.11" gradientTransform="translate(0 5226.77) scale(1 -1)" gradientUnits="userSpaceOnUse">
      <stop offset="0" stop-color="#549c75"/>
      <stop offset=".07" stop-color="#55a375"/>
      <stop offset=".48" stop-color="#60ca7d"/>
      <stop offset=".8" stop-color="#6ae280"/>
      <stop offset="1" stop-color="#6eea82"/>
    </linearGradient>
  </defs>
  <rect class="cls-2" x="-.22" y=".31" width="200.44" height="59.39" rx="7.42" ry="7.42"/>
  <path class="cls-3" d="m100.94,32.6c-3.49,0-6.34,2.66-6.34,6.31s2.85,6.31,6.34,6.31,6.34-2.68,6.34-6.31-2.85-6.31-6.34-6.31Zm0,10.14c-1.91,0-3.56-1.58-3.56-3.83s1.65-3.83,3.56-3.83,3.56,1.55,3.56,3.83-1.65,3.83-3.56,3.83Zm-13.83-10.14c-3.49,0-6.34,2.66-6.34,6.31s2.85,6.31,6.34,6.31,6.34-2.68,6.34-6.31-2.85-6.31-6.34-6.31Zm0,10.14c-1.91,0-3.56-1.58-3.56-3.83s1.65-3.83,3.56-3.83,3.56,1.55,3.56,3.83-1.65,3.83-3.56,3.83Zm-16.45-8.2v2.68h6.41c-.19,1.51-.69,2.61-1.46,3.37-.93.93-2.39,1.96-4.95,1.96-3.95,0-7.03-3.18-7.03-7.13s3.09-7.13,7.03-7.13c2.13,0,3.68.84,4.83,1.91l1.89-1.89c-1.6-1.53-3.73-2.7-6.72-2.7-5.41,0-9.95,4.4-9.95,9.81s4.54,9.81,9.95,9.81c2.92,0,5.12-.96,6.84-2.75,1.77-1.77,2.32-4.26,2.32-6.27,0-.62-.05-1.2-.14-1.67h-9.02Zm67.27,2.08c-.53-1.41-2.13-4.02-5.41-4.02s-5.96,2.56-5.96,6.31c0,3.54,2.68,6.31,6.27,6.31,2.89,0,4.57-1.77,5.26-2.8l-2.15-1.44c-.72,1.05-1.7,1.75-3.11,1.75s-2.42-.65-3.06-1.91l8.44-3.49-.29-.72Zm-8.61,2.11c-.07-2.44,1.89-3.68,3.3-3.68,1.1,0,2.03.55,2.34,1.34l-5.64,2.34Zm-6.87,6.12h2.77v-18.56h-2.77v18.56Zm-4.54-10.84h-.1c-.62-.74-1.82-1.41-3.32-1.41-3.16,0-6.05,2.77-6.05,6.34s2.89,6.29,6.05,6.29c1.51,0,2.7-.67,3.32-1.44h.1v.91c0,2.42-1.29,3.71-3.37,3.71-1.7,0-2.75-1.22-3.18-2.25l-2.42,1c.69,1.67,2.54,3.73,5.6,3.73,3.25,0,6-1.91,6-6.58v-11.34h-2.63v1.03Zm-3.18,8.73c-1.91,0-3.52-1.6-3.52-3.8s1.6-3.85,3.52-3.85,3.37,1.63,3.37,3.85-1.48,3.8-3.37,3.8Zm36.2-16.46h-6.64v18.56h2.77v-7.03h3.87c3.07,0,6.09-2.22,6.09-5.76s-3.02-5.76-6.09-5.76Zm.07,8.95h-3.94v-6.36h3.94c2.07,0,3.25,1.72,3.25,3.18s-1.18,3.18-3.25,3.18Zm17.12-2.67c-2.01,0-4.08.88-4.94,2.84l2.46,1.03c.53-1.03,1.5-1.36,2.53-1.36,1.43,0,2.89.86,2.91,2.39v.19c-.5-.29-1.58-.72-2.89-.72-2.65,0-5.35,1.46-5.35,4.18,0,2.48,2.17,4.08,4.61,4.08,1.86,0,2.89-.84,3.53-1.81h.1v1.43h2.67v-7.12c0-3.3-2.46-5.13-5.64-5.13Zm-.33,10.17c-.91,0-2.17-.45-2.17-1.58,0-1.43,1.58-1.98,2.94-1.98,1.22,0,1.79.26,2.53.62-.21,1.72-1.7,2.94-3.3,2.94Zm15.71-9.77l-3.18,8.05h-.1l-3.3-8.05h-2.98l4.94,11.25-2.82,6.26h2.89l7.62-17.5h-3.08Zm-24.95,11.88h2.77v-18.56h-2.77v18.56Z"/>
  <g>
    <path class="cls-1" d="m15.27,11.5c-.43.46-.69,1.17-.69,2.09v32.84c0,.92.26,1.63.69,2.09l.11.11,18.39-18.39v-.43L15.38,11.39l-.11.11Z"/>
    <path class="cls-9" d="m39.91,36.35l-6.13-6.13v-.43l6.13-6.13.14.08,7.26,4.13c2.08,1.18,2.08,3.11,0,4.29l-7.26,4.13-.14.08Z"/>
    <path class="cls-7" d="m40.05,36.27l-6.27-6.27-18.5,18.5c.68.72,1.81.81,3.09.09l21.69-12.32"/>
    <path class="cls-8" d="m40.05,23.73l-21.69-12.32c-1.27-.72-2.4-.63-3.09.09l18.5,18.5,6.27-6.27Z"/>
    <g>
      <path class="cls-6" d="m39.91,36.13l-21.55,12.25c-1.21.68-2.28.64-2.97.02h0l-.11.11h0l.11.11h0c.69.62,1.77.67,2.97-.02l21.69-12.32-.14-.14Z"/>
      <path class="cls-5" d="m15.27,48.29c-.43-.46-.69-1.17-.69-2.09v.22c0,.92.26,1.63.69,2.09l.11-.11-.11-.11Z"/>
    </g>
    <path class="cls-5" d="m47.31,31.93l-7.4,4.21.14.14,7.26-4.13c1.04-.59,1.56-1.37,1.56-2.14h0c-.09.7-.62,1.39-1.56,1.93Z"/>
    <path class="cls-4" d="m18.36,11.62l28.95,16.45c.94.53,1.47,1.22,1.56,1.93h0c0-.78-.52-1.55-1.56-2.14L18.36,11.41c-2.08-1.18-3.77-.2-3.77,2.18v.22c0-2.38,1.7-3.36,3.77-2.18Z"/>
  </g>
  <g>
    <g>
      <path class="cls-3" d="m61.07,19.61v-8.91h2.72c1.37,0,2.46.41,3.29,1.24.82.82,1.23,1.9,1.23,3.22s-.41,2.39-1.23,3.22c-.82.83-1.92,1.24-3.29,1.24h-2.72Zm1.14-1.09h1.58c1.03,0,1.84-.29,2.44-.88.6-.59.9-1.41.9-2.48s-.3-1.88-.9-2.47c-.6-.59-1.42-.89-2.44-.89h-1.58v6.72Z"/>
      <path class="cls-3" d="m63.79,19.63h-2.75v-8.95h2.75c1.37,0,2.48.42,3.3,1.24.82.83,1.24,1.91,1.24,3.23s-.42,2.41-1.24,3.23c-.82.83-1.93,1.24-3.3,1.24Zm-2.7-.04h2.7c1.36,0,2.46-.41,3.27-1.23.81-.82,1.22-1.89,1.22-3.2s-.41-2.38-1.22-3.2c-.81-.82-1.91-1.23-3.27-1.23h-2.7v8.87Zm2.7-1.05h-1.6v-6.76h1.6c1.03,0,1.86.3,2.46.9.6.59.91,1.43.91,2.48s-.31,1.9-.91,2.49c-.6.59-1.43.89-2.46.89Zm-1.56-.04h1.56c1.02,0,1.83-.3,2.43-.88.59-.58.9-1.41.9-2.46s-.3-1.87-.9-2.45c-.6-.59-1.41-.88-2.43-.88h-1.56v6.68Z"/>
    </g>
    <g>
      <path class="cls-3" d="m69.92,19.61v-8.91h1.14v8.91h-1.14Z"/>
      <path class="cls-3" d="m71.08,19.63h-1.19v-8.95h1.19v8.95Zm-1.14-.04h1.1v-8.87h-1.1v8.87Z"/>
    </g>
    <g>
      <path class="cls-3" d="m75.61,19.81c-.65,0-1.28-.21-1.9-.63-.62-.42-1.02-1.02-1.21-1.78l1.05-.42c.12.49.38.9.76,1.24.39.34.82.5,1.3.5s.92-.13,1.28-.39.53-.62.53-1.06c0-.5-.18-.88-.53-1.15-.35-.27-.91-.52-1.67-.75-.79-.25-1.39-.57-1.79-.96-.41-.39-.61-.9-.61-1.51s.25-1.19.76-1.67c.51-.47,1.17-.71,1.98-.71.76,0,1.37.19,1.84.57.47.38.78.79.92,1.24l-1.04.43c-.08-.28-.26-.54-.55-.78-.29-.24-.67-.36-1.14-.36-.44,0-.81.12-1.13.37-.31.24-.47.55-.47.91,0,.33.14.61.43.84.29.23.71.43,1.26.62.44.14.81.28,1.1.41.29.13.59.31.89.53.3.22.53.49.68.82s.23.71.23,1.14-.09.82-.27,1.16c-.18.34-.42.61-.71.81-.29.2-.61.35-.95.45-.34.1-.69.16-1.05.16Z"/>
      <path class="cls-3" d="m75.61,19.83c-.65,0-1.29-.21-1.91-.64-.62-.42-1.03-1.03-1.22-1.79v-.02s.01,0,.01,0l1.07-.43v.02c.13.48.38.9.76,1.23.38.33.81.5,1.29.5s.92-.13,1.26-.39c.34-.26.52-.61.52-1.05,0-.49-.17-.87-.52-1.13-.35-.27-.91-.52-1.67-.75-.79-.25-1.39-.57-1.8-.97-.41-.4-.62-.91-.62-1.53s.26-1.21.77-1.68c.51-.48,1.18-.72,1.99-.72.76,0,1.38.19,1.85.57.47.38.79.8.93,1.25v.02s-.01,0-.01,0l-1.07.44v-.02c-.08-.28-.26-.54-.55-.77-.29-.24-.67-.36-1.13-.36-.43,0-.81.12-1.11.36-.3.24-.46.54-.46.9,0,.32.14.6.42.82.29.23.71.43,1.26.61.45.14.81.28,1.1.41.29.13.6.31.9.53.3.22.54.5.69.83.15.33.23.72.23,1.15s-.09.83-.27,1.17c-.18.34-.42.62-.72.82-.3.2-.62.35-.96.46-.34.1-.69.16-1.05.16Zm-3.08-2.42c.19.75.59,1.33,1.2,1.75.61.42,1.24.63,1.88.63.35,0,.7-.05,1.04-.15.33-.1.65-.25.95-.45s.53-.47.7-.8c.18-.33.26-.72.26-1.15s-.08-.81-.23-1.13-.38-.6-.68-.81c-.3-.22-.6-.4-.89-.53-.29-.13-.65-.27-1.1-.41-.55-.18-.98-.39-1.27-.62-.29-.23-.44-.52-.44-.86,0-.37.16-.68.48-.93.31-.25.69-.37,1.14-.37.47,0,.86.12,1.15.37.29.23.47.49.55.77l1-.42c-.14-.43-.45-.84-.91-1.21-.47-.37-1.08-.56-1.83-.56-.8,0-1.46.24-1.96.7-.5.47-.75,1.02-.75,1.65s.2,1.11.6,1.5c.4.39,1,.71,1.78.96.76.23,1.33.49,1.68.76.36.27.54.67.54,1.17,0,.45-.18.82-.54,1.08-.35.26-.79.4-1.29.4s-.92-.17-1.31-.51c-.38-.33-.64-.74-.76-1.22l-1.01.41Z"/>
    </g>
    <g>
      <path class="cls-3" d="m81.37,19.61h-1.14v-8.91h3.04c.75,0,1.41.25,1.96.75.55.5.83,1.13.83,1.9s-.28,1.39-.83,1.9c-.55.5-1.21.75-1.96.75h-1.89v3.61Zm0-4.7h1.92c.48,0,.87-.16,1.16-.48.29-.32.44-.68.44-1.07s-.15-.75-.44-1.07c-.29-.32-.68-.49-1.16-.49h-1.92v3.11Z"/>
      <path class="cls-3" d="m81.39,19.63h-1.19v-8.95h3.06c.76,0,1.42.25,1.97.76.55.5.83,1.15.83,1.91s-.28,1.41-.83,1.91c-.55.5-1.22.76-1.97.76h-1.87v3.61Zm-1.14-.04h1.1v-3.61h1.91c.75,0,1.4-.25,1.94-.75.54-.49.82-1.13.82-1.88s-.28-1.39-.82-1.88c-.54-.5-1.2-.75-1.94-.75h-3.01v8.87Zm3.04-4.66h-1.94v-3.15h1.94c.49,0,.88.17,1.17.49.29.33.44.69.44,1.08s-.15.76-.44,1.08c-.29.33-.69.49-1.17.49Zm-1.9-.04h1.9c.47,0,.86-.16,1.14-.48.29-.32.43-.67.43-1.06s-.14-.74-.43-1.06c-.28-.32-.67-.48-1.14-.48h-1.9v3.07Z"/>
    </g>
    <g>
      <path class="cls-3" d="m94.78,18.46c-.88.9-1.96,1.35-3.27,1.35s-2.39-.45-3.27-1.35c-.88-.9-1.31-2-1.31-3.3s.44-2.4,1.31-3.3c.87-.9,1.96-1.35,3.27-1.35s2.38.45,3.26,1.36c.88.9,1.32,2,1.32,3.3s-.44,2.4-1.31,3.3Zm-5.69-.75c.66.67,1.47,1,2.42,1s1.76-.33,2.42-1c.66-.67.99-1.52.99-2.56s-.33-1.89-.99-2.56c-.66-.67-1.47-1-2.42-1s-1.76.33-2.42,1c-.66.67-.99,1.52-.99,2.56s.33,1.89.99,2.56Z"/>
      <path class="cls-3" d="m91.51,19.83c-1.3,0-2.41-.46-3.28-1.36-.87-.9-1.32-2.02-1.32-3.32s.44-2.42,1.32-3.32c.88-.9,1.98-1.36,3.28-1.36s2.4.46,3.28,1.36c.88.9,1.32,2.02,1.32,3.31s-.44,2.42-1.32,3.32h0c-.88.9-1.98,1.36-3.28,1.36Zm0-9.31c-1.29,0-2.38.45-3.25,1.34-.87.89-1.31,2-1.31,3.29s.44,2.4,1.31,3.29c.87.89,1.96,1.34,3.25,1.34s2.38-.45,3.25-1.34h0c.87-.89,1.31-2,1.31-3.29s-.44-2.39-1.31-3.28c-.87-.9-1.96-1.35-3.25-1.35Zm0,8.21c-.96,0-1.77-.34-2.44-1.01h0c-.66-.67-1-1.54-1-2.57s.33-1.9,1-2.57c.66-.67,1.48-1.01,2.44-1.01s1.78.34,2.44,1.01c.66.67,1,1.53,1,2.57s-.33,1.9-1,2.57c-.66.67-1.48,1.01-2.44,1.01Zm-2.41-1.04c.65.66,1.46.99,2.41.99s1.75-.33,2.4-.99c.65-.66.98-1.52.98-2.54s-.33-1.88-.98-2.54c-.65-.66-1.46-1-2.4-1s-1.75.33-2.41,1c-.65.66-.98,1.52-.98,2.54s.33,1.88.98,2.54h0Z"/>
    </g>
    <g>
      <path class="cls-3" d="m97.7,19.61v-8.91h1.39l4.33,6.93h.05l-.05-1.72v-5.21h1.15v8.91h-1.19l-4.53-7.27h-.05l.05,1.72v5.55h-1.14Z"/>
      <path class="cls-3" d="m104.59,19.63h-1.23s-4.52-7.27-4.52-7.27h-.02l.05,1.69v5.57h-1.19v-8.95h1.43s4.32,6.93,4.32,6.93h.02l-.05-1.69v-5.24h1.19v8.95Zm-1.2-.04h1.16v-8.87h-1.1v5.19l.05,1.74h-.09s-4.32-6.93-4.32-6.93h-1.36v8.87h1.1v-5.53l-.05-1.74h.09s4.52,7.27,4.52,7.27Z"/>
    </g>
    <g>
      <path class="cls-3" d="m106.61,19.61v-8.91h1.14v8.91h-1.14Z"/>
      <path class="cls-3" d="m107.77,19.63h-1.19v-8.95h1.19v8.95Zm-1.14-.04h1.1v-8.87h-1.1v8.87Z"/>
    </g>
    <g>
      <path class="cls-3" d="m109.79,19.61v-8.91h3.22c.7,0,1.3.23,1.81.69.51.46.77,1.04.77,1.74,0,.42-.11.8-.33,1.12-.22.32-.51.57-.88.73v.05c.44.15.8.41,1.08.77.28.37.42.79.42,1.27,0,.73-.27,1.34-.8,1.82-.54.48-1.17.72-1.9.72h-3.4Zm1.14-5.09h2.08c.43,0,.78-.14,1.04-.43.26-.29.39-.6.39-.94s-.13-.65-.38-.93c-.25-.28-.59-.42-1-.42h-2.13v2.72Zm0,3.99h2.3c.44,0,.8-.15,1.07-.46.27-.31.41-.64.41-1.01s-.14-.7-.42-1c-.28-.3-.65-.45-1.11-.45h-2.25v2.92Z"/>
      <path class="cls-3" d="m113.19,19.63h-3.42v-8.95h3.24c.7,0,1.31.23,1.83.7.51.46.77,1.05.77,1.75,0,.43-.11.81-.33,1.13-.22.32-.51.57-.87.74v.02c.43.15.8.41,1.08.77.28.37.43.8.43,1.28,0,.73-.27,1.35-.81,1.83-.54.48-1.18.73-1.91.73Zm-3.37-.04h3.37c.72,0,1.36-.24,1.88-.72.53-.47.8-1.08.8-1.8,0-.47-.14-.9-.42-1.26-.28-.36-.64-.62-1.07-.76h-.01v-.08h.01c.36-.17.65-.41.87-.73.22-.32.33-.69.33-1.11,0-.69-.26-1.26-.76-1.72-.5-.45-1.11-.68-1.8-.68h-3.2v8.87Zm3.42-1.05h-2.32v-2.97h2.27c.46,0,.84.16,1.12.46.28.31.43.65.43,1.02s-.14.71-.42,1.02c-.28.31-.64.47-1.09.47Zm-2.28-.04h2.28c.43,0,.79-.15,1.05-.45.27-.3.4-.63.4-.99s-.14-.69-.42-.99c-.28-.3-.64-.45-1.09-.45h-2.23v2.88Zm2.06-3.95h-2.1v-2.77h2.15c.42,0,.76.15,1.02.43.26.28.39.6.39.95s-.13.66-.4.95c-.26.29-.62.44-1.06.44Zm-2.06-.04h2.06c.42,0,.77-.14,1.02-.42.26-.28.39-.59.39-.92s-.13-.64-.37-.92c-.25-.28-.58-.42-.98-.42h-2.11v2.68Z"/>
    </g>
    <g>
      <path class="cls-3" d="m117.43,19.61v-8.91h1.14v7.81h3.86v1.09h-5Z"/>
      <path class="cls-3" d="m122.45,19.63h-5.04v-8.95h1.19v7.81h3.86v1.14Zm-5-.04h4.96v-1.05h-3.86v-7.81h-1.1v8.87Z"/>
    </g>
    <g>
      <path class="cls-3" d="m129.08,11.79h-4.06v2.82h3.66v1.07h-3.66v2.82h4.06v1.09h-5.2v-8.91h5.2v1.09Z"/>
      <path class="cls-3" d="m129.1,19.63h-5.24v-8.95h5.24v1.14h-4.06v2.78h3.66v1.11h-3.66v2.78h4.06v1.14Zm-5.2-.04h5.16v-1.05h-4.06v-2.87h3.66v-1.03h-3.66v-2.87h4.06v-1.05h-5.16v8.87Z"/>
    </g>
    <g>
      <path class="cls-3" d="m135.99,19.81c-.65,0-1.28-.21-1.9-.63-.62-.42-1.02-1.02-1.21-1.78l1.05-.42c.12.49.38.9.76,1.24.39.34.82.5,1.3.5s.92-.13,1.28-.39.53-.62.53-1.06c0-.5-.18-.88-.53-1.15-.35-.27-.91-.52-1.67-.75-.79-.25-1.39-.57-1.79-.96-.41-.39-.61-.9-.61-1.51s.25-1.19.76-1.67c.51-.47,1.17-.71,1.98-.71.76,0,1.37.19,1.84.57.47.38.78.79.92,1.24l-1.04.43c-.08-.28-.26-.54-.55-.78-.29-.24-.67-.36-1.14-.36-.44,0-.81.12-1.13.37-.31.24-.47.55-.47.91,0,.33.14.61.43.84.29.23.71.43,1.26.62.44.14.81.28,1.1.41.29.13.59.31.89.53.3.22.53.49.68.82.15.33.23.71.23,1.14s-.09.82-.27,1.16c-.18.34-.42.61-.71.81-.29.2-.61.35-.95.45-.34.1-.69.16-1.05.16Z"/>
      <path class="cls-3" d="m135.99,19.83c-.65,0-1.29-.21-1.91-.64-.62-.42-1.03-1.03-1.22-1.79v-.02s.01,0,.01,0l1.07-.43v.02c.13.48.38.9.76,1.23.39.34.81.5,1.29.5s.92-.13,1.26-.39c.34-.26.52-.61.52-1.05,0-.49-.17-.87-.52-1.13-.35-.27-.91-.52-1.67-.75-.79-.25-1.39-.57-1.8-.97-.41-.4-.62-.91-.62-1.53s.26-1.21.77-1.68c.51-.48,1.18-.72,1.99-.72.76,0,1.38.19,1.86.57.47.38.79.8.93,1.25v.02s-.01,0-.01,0l-1.07.44v-.02c-.08-.28-.26-.54-.55-.77-.29-.24-.67-.36-1.13-.36-.43,0-.81.12-1.11.36-.3.24-.46.54-.46.9,0,.32.14.6.42.82.29.23.71.43,1.26.61.45.14.81.28,1.1.41.29.13.6.31.9.53.3.22.54.5.69.83.15.33.23.71.23,1.15s-.09.83-.27,1.17c-.18.34-.42.62-.72.82-.3.2-.62.35-.96.46-.34.1-.69.16-1.05.16Zm-3.08-2.42c.19.75.59,1.33,1.2,1.75.61.42,1.24.63,1.88.63.35,0,.7-.05,1.04-.15.33-.1.65-.25.95-.45s.53-.47.7-.8c.18-.33.26-.72.26-1.15s-.08-.81-.23-1.13c-.15-.32-.38-.6-.68-.81-.3-.22-.6-.4-.89-.53-.29-.13-.65-.27-1.1-.41-.55-.18-.98-.39-1.27-.62-.29-.23-.44-.52-.44-.86,0-.37.16-.68.48-.93.31-.25.69-.37,1.14-.37.47,0,.86.12,1.15.37.29.23.47.49.55.77l1-.42c-.14-.43-.45-.84-.91-1.21-.47-.37-1.08-.56-1.83-.56-.8,0-1.46.24-1.96.7-.5.47-.75,1.02-.75,1.65s.2,1.11.6,1.5c.4.39,1,.71,1.78.96.76.23,1.33.49,1.68.76.36.27.54.67.54,1.17,0,.45-.18.82-.54,1.08-.35.26-.79.4-1.29.4s-.92-.17-1.31-.51c-.38-.33-.64-.74-.76-1.22l-1.01.41Z"/>
    </g>
    <g>
      <path class="cls-3" d="m143.71,19.81c-.98,0-1.77-.32-2.38-.97-.61-.65-.91-1.49-.91-2.54v-5.6h1.14v5.65c0,.7.18,1.27.55,1.71.37.44.9.65,1.6.65s1.23-.22,1.6-.65c.37-.44.55-1.01.55-1.71v-5.65h1.15v5.6c0,1.05-.3,1.9-.89,2.54-.59.64-1.4.96-2.41.96Z"/>
      <path class="cls-3" d="m143.71,19.83c-.98,0-1.79-.33-2.4-.98-.61-.65-.92-1.51-.92-2.55v-5.62h1.19v5.67c0,.7.18,1.27.55,1.7.36.43.89.65,1.58.65s1.22-.22,1.58-.65c.36-.43.55-1,.55-1.7v-5.67h1.19v5.62c0,1.05-.3,1.91-.9,2.56-.59.64-1.41.97-2.42.97Zm-3.28-9.11v5.58c0,1.03.31,1.88.91,2.52.6.64,1.4.96,2.37.96s1.81-.32,2.39-.96c.59-.64.88-1.49.88-2.53v-5.58h-1.1v5.63c0,.71-.19,1.29-.56,1.73-.37.44-.91.66-1.61.66s-1.25-.22-1.62-.66c-.37-.44-.56-1.02-.56-1.73v-5.63h-1.1Z"/>
    </g>
    <g>
      <path class="cls-3" d="m148.85,19.61v-8.91h3.04c.75,0,1.41.25,1.96.75.55.5.83,1.13.83,1.9,0,.62-.2,1.17-.61,1.65-.41.48-.91.78-1.52.9l-.02.04,2.5,3.62v.05h-1.36l-2.4-3.61h-1.27v3.61h-1.14Zm1.14-4.68h1.84c.46,0,.85-.15,1.18-.45.33-.3.49-.68.49-1.13,0-.39-.14-.75-.43-1.07-.29-.32-.68-.49-1.16-.49h-1.92v3.14Z"/>
      <path class="cls-3" d="m155.04,19.63h-1.4s-2.39-3.61-2.39-3.61h-1.24v3.61h-1.19v-8.95h3.06c.76,0,1.42.25,1.97.76.55.5.83,1.15.83,1.91,0,.62-.21,1.18-.62,1.66-.4.48-.92.78-1.52.91v.02s2.49,3.61,2.49,3.61v.08Zm-1.37-.04h1.32v-.02l-2.51-3.63.04-.06h0c.6-.12,1.11-.43,1.51-.9.4-.47.61-1.02.61-1.63,0-.75-.28-1.39-.82-1.88-.54-.5-1.2-.75-1.94-.75h-3.02v8.87h1.1v-3.61h1.31s2.39,3.61,2.39,3.61Zm-1.84-4.64h-1.86v-3.18h1.94c.49,0,.88.17,1.17.49.29.33.44.69.44,1.08,0,.46-.17.85-.5,1.15-.33.3-.73.45-1.19.45Zm-1.82-.04h1.82c.45,0,.84-.15,1.16-.44.32-.29.48-.67.48-1.12,0-.38-.14-.74-.43-1.06-.28-.32-.67-.48-1.14-.48h-1.9v3.09Z"/>
    </g>
  </g>
</svg>