<?xml version="1.0" encoding="UTF-8"?>
<svg id="Layer_1" data-name="Layer 1" xmlns="http://www.w3.org/2000/svg" xmlns:xlink="http://www.w3.org/1999/xlink" viewBox="0 0 200 60">
  <defs>
    <style>
      .cls-1 {
        fill: url(#linear-gradient);
      }

      .cls-2 {
        fill: #001c26;
      }

      .cls-3, .cls-4 {
        fill: #fff;
      }

      .cls-5 {
        opacity: .12;
      }

      .cls-5, .cls-4, .cls-6 {
        isolation: isolate;
      }

      .cls-4 {
        opacity: .25;
      }

      .cls-7 {
        fill: url(#linear-gradient-3);
      }

      .cls-8 {
        fill: url(#linear-gradient-4);
      }

      .cls-9 {
        fill: url(#linear-gradient-2);
      }

      .cls-6 {
        opacity: .2;
      }
    </style>
    <linearGradient id="linear-gradient" x1="32.15" y1="5045.93" x2="7.23" y2="5021.01" gradientTransform="translate(0 5059.16) scale(1 -1)" gradientUnits="userSpaceOnUse">
      <stop offset="0" stop-color="#459ff7"/>
      <stop offset="0" stop-color="#46a0f7"/>
      <stop offset=".26" stop-color="#54bbf8"/>
      <stop offset=".51" stop-color="#5ecff9"/>
      <stop offset=".76" stop-color="#64dbfa"/>
      <stop offset="1" stop-color="#66dffa"/>
    </linearGradient>
    <linearGradient id="linear-gradient-2" x1="50.02" y1="5029.16" x2="14.09" y2="5029.16" gradientTransform="translate(0 5059.16) scale(1 -1)" gradientUnits="userSpaceOnUse">
      <stop offset="0" stop-color="#f9df4b"/>
      <stop offset=".41" stop-color="#f4bd42"/>
      <stop offset=".78" stop-color="#f1a73b"/>
      <stop offset="1" stop-color="#f19f39"/>
    </linearGradient>
    <linearGradient id="linear-gradient-3" x1="36.64" y1="5025.76" x2="2.85" y2="4991.97" gradientTransform="translate(0 5059.16) scale(1 -1)" gradientUnits="userSpaceOnUse">
      <stop offset="0" stop-color="#ea4d4c"/>
      <stop offset="1" stop-color="#b22c62"/>
    </linearGradient>
    <linearGradient id="linear-gradient-4" x1="10.61" y1="5058.6" x2="25.7" y2="5043.51" gradientTransform="translate(0 5059.16) scale(1 -1)" gradientUnits="userSpaceOnUse">
      <stop offset="0" stop-color="#549c75"/>
      <stop offset=".07" stop-color="#55a375"/>
      <stop offset=".48" stop-color="#60ca7d"/>
      <stop offset=".8" stop-color="#6ae280"/>
      <stop offset="1" stop-color="#6eea82"/>
    </linearGradient>
  </defs>
  <rect class="cls-2" x="-.22" y=".31" width="200.44" height="59.39" rx="7.42" ry="7.42"/>
  <g>
    <g>
      <path class="cls-3" d="m70.18,15.51c0,1.24-.37,2.23-1.11,2.97-.84.88-1.93,1.32-3.27,1.32s-2.38-.45-3.28-1.34c-.9-.89-1.35-2-1.35-3.32s.45-2.42,1.35-3.32c.9-.89,1.99-1.34,3.28-1.34.64,0,1.25.12,1.83.37.58.25,1.05.58,1.39,1l-.78.78c-.59-.7-1.4-1.06-2.44-1.06-.94,0-1.75.33-2.43.99-.68.66-1.03,1.52-1.03,2.57s.34,1.91,1.03,2.57c.68.66,1.49.99,2.43.99.99,0,1.82-.33,2.49-.99.43-.43.68-1.03.75-1.8h-3.23v-1.07h4.32c.04.23.06.46.06.67Z"/>
      <path class="cls-3" d="m65.81,19.83c-1.29,0-2.4-.45-3.29-1.34-.9-.89-1.36-2.01-1.36-3.33s.46-2.44,1.36-3.33c.9-.89,2.01-1.34,3.29-1.34.64,0,1.26.13,1.84.38.58.25,1.05.59,1.4,1v.02s0,.01,0,.01l-.8.8-.02-.02c-.58-.7-1.4-1.05-2.42-1.05-.93,0-1.74.33-2.42.98s-1.02,1.51-1.02,2.55.34,1.9,1.02,2.55c.68.65,1.49.98,2.42.98.98,0,1.82-.33,2.47-.99.42-.42.67-1.02.74-1.77h-3.23v-1.11h4.36v.02c.04.23.07.46.07.68,0,1.24-.37,2.25-1.11,2.99-.84.88-1.94,1.32-3.29,1.32Zm0-9.31c-1.27,0-2.37.45-3.26,1.33-.89.88-1.34,1.99-1.34,3.3s.45,2.42,1.34,3.3c.89.88,1.99,1.33,3.26,1.33s2.43-.44,3.26-1.31c.73-.73,1.1-1.73,1.1-2.96,0-.21-.02-.43-.06-.65h-4.28v1.03h3.24v.02c-.07.77-.32,1.38-.76,1.82-.66.66-1.51,1-2.5,1-.94,0-1.76-.33-2.45-1-.69-.66-1.03-1.53-1.03-2.58s.35-1.92,1.03-2.58c.69-.66,1.51-.99,2.45-.99,1.03,0,1.85.35,2.44,1.05l.75-.75c-.34-.4-.8-.73-1.37-.97-.57-.25-1.19-.37-1.82-.37Z"/>
    </g>
    <g>
      <path class="cls-3" d="m77.03,11.79h-4.06v2.82h3.66v1.07h-3.66v2.82h4.06v1.09h-5.2v-8.91h5.2v1.09Z"/>
      <path class="cls-3" d="m77.05,19.63h-5.24v-8.95h5.24v1.14h-4.06v2.78h3.66v1.11h-3.66v2.78h4.06v1.14Zm-5.2-.04h5.16v-1.05h-4.06v-2.87h3.66v-1.03h-3.66v-2.87h4.06v-1.05h-5.16v8.87Z"/>
    </g>
    <g>
      <path class="cls-3" d="m81.85,19.61h-1.15v-7.81h-2.49v-1.09h6.12v1.09h-2.49v7.81Z"/>
      <path class="cls-3" d="m81.88,19.63h-1.19v-7.81h-2.49v-1.14h6.17v1.14h-2.49v7.81Zm-1.15-.04h1.1v-7.81h2.49v-1.05h-6.08v1.05h2.49v7.81Z"/>
    </g>
    <g>
      <path class="cls-3" d="m88.77,19.61v-8.91h1.14v8.91h-1.14Z"/>
      <path class="cls-3" d="m89.94,19.63h-1.19v-8.95h1.19v8.95Zm-1.14-.04h1.1v-8.87h-1.1v8.87Z"/>
    </g>
    <g>
      <path class="cls-3" d="m94.99,19.61h-1.15v-7.81h-2.49v-1.09h6.12v1.09h-2.49v7.81Z"/>
      <path class="cls-3" d="m95.02,19.63h-1.19v-7.81h-2.49v-1.14h6.16v1.14h-2.49v7.81Zm-1.15-.04h1.1v-7.81h2.49v-1.05h-6.08v1.05h2.49v7.81Z"/>
    </g>
    <g>
      <path class="cls-3" d="m109.07,18.46c-.88.9-1.96,1.35-3.27,1.35s-2.39-.45-3.27-1.35c-.88-.9-1.31-2-1.31-3.3s.44-2.4,1.31-3.3c.87-.9,1.96-1.35,3.27-1.35s2.38.45,3.26,1.36c.88.9,1.32,2,1.32,3.3s-.44,2.4-1.31,3.3Zm-5.69-.75c.66.67,1.47,1,2.42,1s1.76-.33,2.42-1c.66-.67.99-1.52.99-2.56s-.33-1.89-.99-2.56c-.66-.67-1.47-1-2.42-1s-1.76.33-2.42,1c-.66.67-.99,1.52-.99,2.56s.33,1.89.99,2.56Z"/>
      <path class="cls-3" d="m105.8,19.83c-1.3,0-2.41-.46-3.28-1.36-.87-.9-1.32-2.02-1.32-3.32s.44-2.42,1.32-3.32c.88-.9,1.98-1.36,3.28-1.36s2.4.46,3.28,1.36c.88.9,1.32,2.02,1.32,3.31s-.44,2.42-1.32,3.32h0c-.88.9-1.98,1.36-3.28,1.36Zm0-9.31c-1.29,0-2.38.45-3.25,1.34-.87.89-1.31,2-1.31,3.29s.44,2.4,1.31,3.29c.87.89,1.96,1.34,3.25,1.34s2.38-.45,3.25-1.34h0c.87-.89,1.31-2,1.31-3.29s-.44-2.39-1.31-3.28c-.87-.9-1.96-1.35-3.25-1.35Zm0,8.21c-.96,0-1.77-.34-2.44-1.01h0c-.66-.67-1-1.54-1-2.57s.33-1.9,1-2.57c.66-.67,1.48-1.01,2.44-1.01s1.78.34,2.44,1.01c.66.67,1,1.53,1,2.57s-.33,1.9-1,2.57c-.66.67-1.48,1.01-2.44,1.01Zm-2.4-1.04c.65.66,1.46,1,2.4,1s1.75-.33,2.41-1c.65-.66.98-1.52.98-2.54s-.33-1.88-.98-2.54c-.65-.66-1.46-1-2.41-1s-1.75.33-2.4,1c-.65.66-.98,1.52-.98,2.54s.33,1.88.98,2.54h0Z"/>
    </g>
    <g>
      <path class="cls-3" d="m111.99,19.61v-8.91h1.39l4.33,6.93h.05l-.05-1.72v-5.21h1.15v8.91h-1.19l-4.53-7.27h-.05l.05,1.72v5.55h-1.14Z"/>
      <path class="cls-3" d="m118.88,19.63h-1.23s-4.52-7.27-4.52-7.27h-.02l.05,1.69v5.57h-1.19v-8.95h1.43s4.32,6.93,4.32,6.93h.02l-.05-1.69v-5.24h1.19v8.95Zm-1.2-.04h1.16v-8.87h-1.1v5.19l.05,1.74h-.09s-4.32-6.93-4.32-6.93h-1.36v8.87h1.1v-5.53l-.05-1.74h.09s4.52,7.27,4.52,7.27Z"/>
    </g>
  </g>
  <path class="cls-3" d="m100.94,32.6c-3.49,0-6.34,2.66-6.34,6.31s2.85,6.31,6.34,6.31,6.34-2.68,6.34-6.31-2.85-6.31-6.34-6.31Zm0,10.14c-1.91,0-3.56-1.58-3.56-3.83s1.65-3.83,3.56-3.83,3.56,1.55,3.56,3.83-1.65,3.83-3.56,3.83Zm-13.83-10.14c-3.49,0-6.34,2.66-6.34,6.31s2.85,6.31,6.34,6.31,6.34-2.68,6.34-6.31-2.85-6.31-6.34-6.31Zm0,10.14c-1.91,0-3.56-1.58-3.56-3.83s1.65-3.83,3.56-3.83,3.56,1.55,3.56,3.83-1.65,3.83-3.56,3.83Zm-16.45-8.2v2.68h6.41c-.19,1.51-.69,2.61-1.46,3.37-.93.93-2.39,1.96-4.95,1.96-3.95,0-7.03-3.18-7.03-7.13s3.09-7.13,7.03-7.13c2.13,0,3.68.84,4.83,1.91l1.89-1.89c-1.6-1.53-3.73-2.7-6.72-2.7-5.41,0-9.95,4.4-9.95,9.81s4.54,9.81,9.95,9.81c2.92,0,5.12-.96,6.84-2.75,1.77-1.77,2.32-4.26,2.32-6.27,0-.62-.05-1.2-.14-1.67h-9.02Zm67.27,2.08c-.53-1.41-2.13-4.02-5.41-4.02s-5.96,2.56-5.96,6.31c0,3.54,2.68,6.31,6.27,6.31,2.89,0,4.57-1.77,5.26-2.8l-2.15-1.44c-.72,1.05-1.7,1.75-3.11,1.75s-2.42-.65-3.06-1.91l8.44-3.49-.29-.72Zm-8.61,2.11c-.07-2.44,1.89-3.68,3.3-3.68,1.1,0,2.03.55,2.34,1.34l-5.64,2.34Zm-6.87,6.12h2.77v-18.56h-2.77v18.56Zm-4.54-10.84h-.1c-.62-.74-1.82-1.41-3.32-1.41-3.16,0-6.05,2.77-6.05,6.34s2.89,6.29,6.05,6.29c1.51,0,2.7-.67,3.32-1.44h.1v.91c0,2.42-1.29,3.71-3.37,3.71-1.7,0-2.75-1.22-3.18-2.25l-2.42,1c.69,1.67,2.54,3.73,5.6,3.73,3.25,0,6-1.91,6-6.58v-11.34h-2.63v1.03Zm-3.18,8.73c-1.91,0-3.52-1.6-3.52-3.8s1.6-3.85,3.52-3.85,3.37,1.63,3.37,3.85-1.48,3.8-3.37,3.8Zm36.2-16.46h-6.64v18.56h2.77v-7.03h3.87c3.07,0,6.09-2.22,6.09-5.76s-3.02-5.76-6.09-5.76Zm.07,8.95h-3.94v-6.36h3.94c2.07,0,3.25,1.72,3.25,3.18s-1.18,3.18-3.25,3.18Zm17.12-2.67c-2.01,0-4.08.88-4.94,2.84l2.46,1.03c.53-1.03,1.5-1.36,2.53-1.36,1.43,0,2.89.86,2.91,2.39v.19c-.5-.29-1.58-.72-2.89-.72-2.65,0-5.35,1.46-5.35,4.18,0,2.48,2.17,4.08,4.61,4.08,1.86,0,2.89-.84,3.53-1.81h.1v1.43h2.67v-7.12c0-3.3-2.46-5.13-5.64-5.13Zm-.33,10.17c-.91,0-2.17-.45-2.17-1.58,0-1.43,1.58-1.98,2.94-1.98,1.22,0,1.79.26,2.53.62-.21,1.72-1.7,2.94-3.3,2.94Zm15.71-9.77l-3.18,8.05h-.1l-3.3-8.05h-2.98l4.94,11.25-2.82,6.26h2.89l7.62-17.5h-3.08Zm-24.95,11.88h2.77v-18.56h-2.77v18.56Z"/>
  <g>
    <path class="cls-1" d="m15.27,11.5c-.43.46-.69,1.17-.69,2.09v32.84c0,.92.26,1.63.69,2.09l.11.11,18.39-18.39v-.43L15.38,11.39l-.11.11Z"/>
    <path class="cls-9" d="m39.91,36.35l-6.13-6.13v-.43l6.13-6.13.14.08,7.26,4.13c2.08,1.18,2.08,3.11,0,4.29l-7.26,4.13-.14.08Z"/>
    <path class="cls-7" d="m40.05,36.27l-6.27-6.27-18.5,18.5c.68.72,1.81.81,3.09.09l21.69-12.32"/>
    <path class="cls-8" d="m40.05,23.73l-21.69-12.32c-1.27-.72-2.4-.63-3.09.09l18.5,18.5,6.27-6.27Z"/>
    <g>
      <path class="cls-6" d="m39.91,36.13l-21.55,12.25c-1.21.68-2.28.64-2.97.02h0l-.11.11h0l.11.11h0c.69.62,1.77.67,2.97-.02l21.69-12.32-.14-.14Z"/>
      <path class="cls-5" d="m15.27,48.29c-.43-.46-.69-1.17-.69-2.09v.22c0,.92.26,1.63.69,2.09l.11-.11-.11-.11Z"/>
    </g>
    <path class="cls-5" d="m47.31,31.93l-7.4,4.21.14.14,7.26-4.13c1.04-.59,1.56-1.37,1.56-2.14h0c-.09.7-.62,1.39-1.56,1.93Z"/>
    <path class="cls-4" d="m18.36,11.62l28.95,16.45c.94.53,1.47,1.22,1.56,1.93h0c0-.78-.52-1.55-1.56-2.14L18.36,11.41c-2.08-1.18-3.77-.2-3.77,2.18v.22c0-2.38,1.7-3.36,3.77-2.18Z"/>
  </g>
</svg>