<?xml version="1.0" encoding="UTF-8"?>
<svg id="Layer_1" data-name="Layer 1" xmlns="http://www.w3.org/2000/svg" viewBox="0 0 180 60">
  <defs>
    <style>
      .cls-1 {
        fill: #001c26;
      }

      .cls-2 {
        fill: #fff;
      }
    </style>
  </defs>
  <rect class="cls-1" x=".34" y=".31" width="179.33" height="59.39" rx="7.42" ry="7.42"/>
  <g>
    <g id="_Group_" data-name=" Group ">
      <g id="_Group_2" data-name=" Group 2">
        <g id="_Group_3" data-name=" Group 3">
          <path id="_Path_" data-name=" Path " class="cls-2" d="m37.45,30.56c.03-2.54,1.37-4.89,3.53-6.22-1.37-1.96-3.59-3.16-5.98-3.23-2.52-.26-4.96,1.51-6.24,1.51s-3.28-1.48-5.41-1.44c-2.8.09-5.34,1.64-6.7,4.09-2.9,5.02-.74,12.39,2.04,16.45,1.39,1.99,3.01,4.2,5.14,4.13,2.08-.09,2.85-1.33,5.36-1.33s3.21,1.33,5.38,1.28c2.23-.04,3.64-1.99,4.98-4,1-1.42,1.77-2.98,2.28-4.63-2.65-1.12-4.37-3.72-4.37-6.59Z"/>
          <path id="_Path_2" data-name=" Path 2" class="cls-2" d="m33.36,18.44c1.22-1.46,1.82-3.34,1.67-5.23-1.86.2-3.57,1.08-4.81,2.49-1.22,1.39-1.83,3.2-1.71,5.04,1.88.02,3.67-.83,4.85-2.29Z"/>
        </g>
      </g>
      <g>
        <path class="cls-2" d="m63.73,40.81h-7.09l-1.7,5.03h-3l6.72-18.61h3.12l6.72,18.61h-3.06l-1.7-5.03Zm-6.36-2.32h5.62l-2.77-8.16h-.08l-2.77,8.16Z"/>
        <path class="cls-2" d="m83,39.06c0,4.22-2.26,6.93-5.66,6.93-1.76.09-3.42-.83-4.27-2.37h-.06v6.72h-2.78v-18.06h2.7v2.26h.05c.89-1.53,2.55-2.46,4.32-2.4,3.44,0,5.71,2.72,5.71,6.93Zm-2.86,0c0-2.75-1.42-4.55-3.59-4.55s-3.56,1.84-3.56,4.55,1.43,4.56,3.56,4.56,3.59-1.79,3.59-4.56Z"/>
        <path class="cls-2" d="m97.93,39.06c0,4.22-2.26,6.93-5.66,6.93-1.76.09-3.42-.83-4.27-2.37h-.06v6.72h-2.78v-18.06h2.7v2.26h.05c.89-1.53,2.55-2.46,4.32-2.4,3.44,0,5.71,2.72,5.71,6.93Zm-2.86,0c0-2.75-1.42-4.55-3.59-4.55s-3.56,1.84-3.56,4.55,1.43,4.56,3.56,4.56,3.59-1.79,3.59-4.56h0Z"/>
        <path class="cls-2" d="m107.8,40.66c.21,1.85,2,3.06,4.45,3.06s4.04-1.21,4.04-2.88c0-1.44-1.02-2.31-3.43-2.9l-2.41-.58c-3.42-.83-5-2.42-5-5.02,0-3.21,2.8-5.42,6.77-5.42s6.63,2.21,6.72,5.42h-2.81c-.17-1.86-1.7-2.98-3.95-2.98s-3.78,1.13-3.78,2.78c0,1.32.98,2.09,3.38,2.68l2.05.5c3.82.9,5.4,2.44,5.4,5.16,0,3.48-2.77,5.66-7.18,5.66-4.13,0-6.91-2.13-7.09-5.5h2.85Z"/>
        <path class="cls-2" d="m125.24,29.06v3.21h2.58v2.21h-2.58v7.48c0,1.16.52,1.7,1.65,1.7.31,0,.61-.03.92-.06v2.19c-.51.1-1.03.14-1.55.13-2.75,0-3.82-1.03-3.82-3.66v-7.78h-1.97v-2.21h1.97v-3.21h2.8Z"/>
        <path class="cls-2" d="m129.31,39.06c0-4.27,2.51-6.95,6.43-6.95s6.44,2.68,6.44,6.95-2.49,6.95-6.44,6.95-6.43-2.67-6.43-6.95Zm10.03,0c0-2.93-1.34-4.66-3.6-4.66s-3.6,1.74-3.6,4.66,1.34,4.66,3.6,4.66,3.6-1.72,3.6-4.66h0Z"/>
        <path class="cls-2" d="m144.48,32.28h2.66v2.31h.06c.37-1.49,1.73-2.51,3.26-2.45.32,0,.64.03.95.1v2.6c-.41-.12-.83-.18-1.25-.17-1.55-.06-2.85,1.14-2.92,2.69,0,.14,0,.29.02.43v8.05h-2.78v-13.57Z"/>
        <path class="cls-2" d="m164.26,41.86c-.37,2.46-2.77,4.15-5.84,4.15-3.95,0-6.4-2.64-6.4-6.89s2.46-7.02,6.28-7.02,6.11,2.58,6.11,6.69v.95h-9.58v.17c-.17,1.94,1.26,3.66,3.21,3.83.15.01.29.02.44.01,1.35.13,2.63-.65,3.13-1.91h2.64Zm-9.41-4.05h6.78c.1-1.8-1.28-3.34-3.08-3.44-.08,0-.17,0-.25,0-1.9-.01-3.44,1.52-3.46,3.41,0,0,0,.02,0,.03Z"/>
      </g>
    </g>
    <g id="_Group_4" data-name=" Group 4">
      <g>
        <path class="cls-2" d="m57.02,13.23c2.18-.16,4.07,1.48,4.23,3.66.02.26.01.52-.02.78,0,2.86-1.54,4.5-4.21,4.5h-3.23v-8.94h3.23Zm-1.84,7.68h1.69c1.55.09,2.88-1.09,2.97-2.64.01-.19,0-.39-.03-.58.21-1.54-.87-2.96-2.41-3.18-.18-.02-.36-.03-.54-.02h-1.69v6.41Z"/>
        <path class="cls-2" d="m62.8,18.79c-.17-1.76,1.12-3.32,2.88-3.49,1.76-.17,3.32,1.12,3.49,2.88.02.2.02.41,0,.61.17,1.76-1.11,3.32-2.87,3.49-1.76.17-3.32-1.11-3.49-2.87-.02-.21-.02-.41,0-.62Zm4.99,0c0-1.46-.66-2.32-1.81-2.32s-1.81.86-1.81,2.32.65,2.32,1.81,2.32c1.15,0,1.81-.85,1.81-2.32h0Z"/>
        <path class="cls-2" d="m77.62,22.17h-1.38l-1.39-4.97h-.11l-1.39,4.97h-1.37l-1.86-6.75h1.35l1.21,5.15h.1l1.39-5.15h1.28l1.39,5.15h.11l1.2-5.15h1.33l-1.85,6.75Z"/>
        <path class="cls-2" d="m81.04,15.42h1.28v1.07h.1c.35-.79,1.15-1.27,2.01-1.2,1.21-.09,2.26.82,2.35,2.02.01.16,0,.33-.02.49v4.37h-1.33v-4.03c0-1.08-.47-1.62-1.46-1.62-.85-.04-1.58.62-1.62,1.47,0,.08,0,.16,0,.24v3.95h-1.33v-6.75Z"/>
        <path class="cls-2" d="m88.89,12.79h1.33v9.38h-1.33v-9.38Z"/>
        <path class="cls-2" d="m92.08,18.79c-.17-1.76,1.12-3.32,2.88-3.49,1.76-.17,3.32,1.12,3.49,2.88.02.2.02.41,0,.61.17,1.76-1.12,3.32-2.87,3.49-1.76.17-3.32-1.12-3.49-2.87-.02-.21-.02-.41,0-.62Zm4.99,0c0-1.46-.66-2.32-1.81-2.32s-1.81.86-1.81,2.32.65,2.32,1.81,2.32c1.15,0,1.81-.85,1.81-2.32Z"/>
        <path class="cls-2" d="m99.84,20.26c0-1.21.9-1.91,2.51-2.01l1.83-.11v-.58c0-.71-.47-1.12-1.38-1.12-.74,0-1.26.27-1.41.75h-1.29c.14-1.16,1.23-1.9,2.76-1.9,1.69,0,2.65.84,2.65,2.27v4.61h-1.28v-.95h-.11c-.44.69-1.21,1.1-2.03,1.06-1.12.12-2.12-.7-2.24-1.82,0-.07-.01-.14-.01-.2Zm4.34-.58v-.56l-1.65.11c-.93.06-1.35.38-1.35.97s.53.96,1.25.96c.87.09,1.65-.55,1.74-1.42,0-.02,0-.04,0-.05Z"/>
        <path class="cls-2" d="m107.26,18.79c0-2.13,1.1-3.48,2.8-3.48.86-.04,1.67.42,2.07,1.18h.1v-3.71h1.33v9.38h-1.28v-1.07h-.11c-.43.76-1.25,1.21-2.12,1.18-1.72,0-2.8-1.35-2.8-3.49Zm1.38,0c0,1.43.67,2.29,1.8,2.29s1.82-.87,1.82-2.29-.7-2.29-1.82-2.29-1.8.87-1.8,2.29h0Z"/>
        <path class="cls-2" d="m119.07,18.79c-.17-1.76,1.12-3.32,2.88-3.49,1.76-.17,3.32,1.12,3.49,2.88.02.2.02.41,0,.61.17,1.76-1.11,3.32-2.87,3.49-1.76.17-3.32-1.11-3.49-2.87-.02-.21-.02-.41,0-.62Zm4.99,0c0-1.46-.66-2.32-1.81-2.32s-1.81.86-1.81,2.32.65,2.32,1.81,2.32c1.15,0,1.81-.85,1.81-2.32Z"/>
        <path class="cls-2" d="m127.22,15.42h1.28v1.07h.1c.35-.79,1.15-1.27,2.01-1.2,1.21-.09,2.26.82,2.35,2.02.01.16,0,.33-.02.49v4.37h-1.33v-4.03c0-1.08-.47-1.62-1.46-1.62-.85-.04-1.58.62-1.62,1.47,0,.08,0,.16,0,.24v3.95h-1.33v-6.75Z"/>
        <path class="cls-2" d="m140.48,13.74v1.71h1.46v1.12h-1.46v3.47c0,.71.29,1.02.95,1.02.17,0,.34-.01.51-.03v1.11c-.24.04-.48.07-.72.07-1.48,0-2.07-.52-2.07-1.82v-3.81h-1.07v-1.12h1.07v-1.71h1.33Z"/>
        <path class="cls-2" d="m143.76,12.79h1.32v3.72h.11c.36-.8,1.19-1.28,2.06-1.21,1.23-.07,2.27.87,2.34,2.1,0,.14,0,.28-.02.42v4.36h-1.33v-4.03c0-1.08-.5-1.62-1.44-1.62-.87-.07-1.63.57-1.7,1.44,0,.09,0,.18,0,.27v3.94h-1.33v-9.38Z"/>
        <path class="cls-2" d="m157.33,20.35c-.37,1.27-1.61,2.1-2.92,1.95-1.69.04-3.1-1.29-3.14-2.98,0-.17,0-.33.03-.5-.23-1.7.97-3.27,2.67-3.5.15-.02.29-.03.44-.03,1.88,0,3.01,1.28,3.01,3.4v.46h-4.77v.07c-.08.98.65,1.84,1.63,1.93.06,0,.11,0,.17,0,.65.08,1.29-.24,1.61-.82h1.28Zm-4.68-2.17h3.41c.07-.9-.61-1.68-1.5-1.74-.05,0-.11,0-.16,0-.95-.01-1.74.75-1.75,1.7,0,.01,0,.03,0,.04h0Z"/>
      </g>
    </g>
  </g>
</svg>