<?xml version="1.0" encoding="UTF-8"?>
<svg id="Layer_1" data-name="Layer 1" xmlns="http://www.w3.org/2000/svg" viewBox="0 0 55 55">
  <defs>
    <style>
      .cls-1 {
        fill: #808e92;
      }
    </style>
  </defs>
  <path class="cls-1" d="m26.94,20.34c-11.5-.29-19.29-9.68-19.29-9.68,0,0-3.97,7.54,2.8,12.4,0,0-1.87.16-3.96-1.04,0,0-.81,6.99,7.16,9.21,0,0-.53.58-3.9.31,0,0,1.65,6.18,8.53,6.37,0,0-4.23,4.56-13.46,4.07,0,0,14.63,9.91,30.16-.88,5.27-3.66,11.54-13.72,10.67-22.94,0,0,2.84-1.82,4.53-4.79,0,0-1.22.5-2.49.86-1.05.3-2.13.47-2.57.48,0,0,3.48-2.4,3.86-5.1,0,0-3.8,2.06-5.78,2.21h-.07c-1.72-1.82-4.15-2.95-6.86-2.95-5.2,0-9.42,4.22-9.42,9.42,0,.7.08,1.38.22,2.04h-.14Z"/>
</svg>