<?xml version="1.0" encoding="UTF-8"?>
<svg id="Layer_1" data-name="Layer 1" xmlns="http://www.w3.org/2000/svg" viewBox="0 0 55 55">
  <defs>
    <style>
      .cls-1 {
        fill: #808e92;
      }
    </style>
  </defs>
  <path class="cls-1" d="m16.64,48.69H.7c-.04-.49-.04-.9.32-1.32,1.82-2.16,3.61-4.35,5.41-6.53.5-.61.71-1.31.62-2.11-.02-.14-.02-.29-.02-.43,0-7.71,0-15.42.01-23.12,0-.85-.23-1.52-.79-2.17-1.53-1.77-2.98-3.6-4.51-5.38-.37-.43-.45-.85-.36-1.38.11,0,.21-.02.32-.02,4.96,0,9.91,0,14.87,0,.27,0,.38.1.49.33,3.9,8.56,7.8,17.11,11.7,25.66.05.1.09.2.17.35.16-.38.29-.71.43-1.05,3.34-8.32,6.67-16.65,10.01-24.97.07-.18.13-.32.38-.32,4.78,0,9.56,0,14.34,0,.07,0,.13,0,.21.01.05.48.07.89-.36,1.28-1.35,1.23-2.66,2.52-3.98,3.78-.29.28-.43.61-.41,1.01,0,.2.01.4.01.6,0,9.73,0,19.45,0,29.18,0,.21,0,.42-.01.63-.01.4.13.73.41,1.01,1.36,1.32,2.71,2.66,4.07,3.98.34.33.12.71.2,1.09h-21.03c-.06-.5-.05-.91.38-1.31,1.32-1.22,2.59-2.49,3.88-3.74.31-.3.48-.64.48-1.08,0-8.08,0-16.17,0-24.25,0-.03,0-.06-.02-.2-.08.19-.13.29-.17.39-3.9,9.91-7.81,19.82-11.7,29.73-.11.28-.23.41-.55.38-.3-.03-.6-.03-.9,0-.26.02-.39-.07-.5-.31-1.21-2.67-2.44-5.34-3.66-8.01-3.33-7.26-6.65-14.52-9.98-21.77-.05-.1-.09-.2-.22-.29,0,.13,0,.26,0,.4,0,6.52,0,13.04,0,19.56,0,.49,0,1,.1,1.48.08.36.29.73.52,1.02,1.8,2.21,3.61,4.41,5.45,6.59.35.41.35.82.32,1.31Z"/>
</svg>