<?xml version="1.0" encoding="UTF-8"?>
<svg id="Layer_1" data-name="Layer 1" xmlns="http://www.w3.org/2000/svg" viewBox="0 0 55 55">
  <defs>
    <style>
      .cls-1 {
        fill: #808e92;
      }
    </style>
  </defs>
  <path class="cls-1" d="m22.01,16.95l-.64-1.74c-.36-.95-.65-.95-.95-.94-.06,0-.12,0-.18,0-.21,0-.43-.03-.66-.05-.21-.02-.43-.04-.66-.05-.02,0-.03,0-.05,0-.29,0-.91.08-1.5.67l-.14.14c-.73.72-2.24,2.22-2.35,5.21-.11,2.99,1.85,6.07,2.46,6.94.03.04.08.12.15.24,3.07,4.96,6.98,8.65,11,10.41,5.57,2.44,6.51,2.25,7.34,2.08.2-.04.4-.08.64-.09,1.1-.06,3.82-1.41,4.39-2.83.59-1.46.62-2.69.54-2.9-.07-.12-.38-.28-.75-.48l-.37-.2c-.77-.42-3.97-2.15-4.56-2.38-.6-.25-.78-.26-1.07.15-.58.81-2.28,2.63-2.3,2.64-.71.75-1.43.5-1.99.19-.1-.06-.25-.13-.42-.21-.94-.45-2.88-1.38-5.05-3.46-1.95-1.87-3.25-4.11-3.71-4.99-.53-.99.1-1.57.44-1.88.2-.18.43-.45.66-.71.13-.15.26-.29.39-.43.26-.29.38-.5.56-.83l.11-.2c.14-.25.13-.49-.03-.84-.11-.24-.6-1.58-1.29-3.45Z"/>
  <path class="cls-1" d="m54.32,26.9C54.32,12.32,42.46.46,27.88.46S1.43,12.32,1.43,26.9c0,4.82,1.31,9.55,3.79,13.66l.1.16L.68,54.54l14.26-4.57.15.09c3.89,2.15,8.31,3.29,12.78,3.29,14.58,0,26.44-11.86,26.44-26.44ZM6.34,48.95l2.98-8.87c-2.76-3.87-4.21-8.42-4.21-13.18C5.12,14.35,15.33,4.14,27.88,4.14s22.76,10.21,22.76,22.76-10.21,22.77-22.76,22.77c-4.4,0-8.67-1.26-12.36-3.66l-9.17,2.94Z"/>
</svg>