<?xml version="1.0" encoding="UTF-8"?>
<svg id="Layer_1" data-name="Layer 1" xmlns="http://www.w3.org/2000/svg" viewBox="0 0 55 55">
  <defs>
    <style>
      .cls-1 {
        fill: #808e92;
      }
    </style>
  </defs>
  <path class="cls-1" d="m37.26,50.63h-19.51c-7.37,0-13.37-6-13.37-13.37v-19.51c0-7.37,6-13.37,13.37-13.37h19.51c7.37,0,13.37,6,13.37,13.37v19.51c0,7.37-6,13.37-13.37,13.37ZM17.74,9.03c-4.81,0-8.71,3.91-8.71,8.71v19.51c0,4.81,3.91,8.71,8.71,8.71h19.51c4.81,0,8.71-3.91,8.71-8.71v-19.51c0-4.81-3.91-8.71-8.71-8.71h-19.51Z"/>
  <path class="cls-1" d="m27.5,39.21c-6.45,0-11.71-5.25-11.71-11.71s5.25-11.71,11.71-11.71,11.71,5.25,11.71,11.71-5.25,11.71-11.71,11.71Zm0-19.52c-4.31,0-7.82,3.51-7.82,7.82s3.51,7.82,7.82,7.82,7.82-3.51,7.82-7.82-3.51-7.82-7.82-7.82Z"/>
  <circle class="cls-1" cx="39.44" cy="15.21" r="2.73"/>
</svg>